M48
;Layer_Color=9474304
;FILE_FORMAT=2:5
INCH,LZ
;TYPE=PLATED
T1F00S00C0.01618
T2F00S00C0.02165
T3F00S00C0.03150
T4F00S00C0.04331
T5F00S00C0.09055
;TYPE=NON_PLATED
T6F00S00C0.05118
%
T01
X0009209Y0013386
X0031453Y0007382
X0055863Y0007185
X0076828
X0097005Y0007087
X0117772
X0137064Y0007283
X0146653Y0013484
X0148819Y0033268
X0150461Y0047486
X0142377Y0049006
X0154975Y0062766
X015Y0074592
X0142651Y0106569
X0145036Y0118405
X0144663Y0123664
X0146085Y0130875
X0150379Y0141732
X015173Y0155417
X0120141Y0152788
X0120866Y0139567
X0126713Y0137929
X0130503Y0129981
X0125942Y0122441
X0117028Y0115847
X0118461Y0098327
X0090491Y0102518
X0073481Y0112697
X0078892Y0129833
X0090453Y0130217
X0098176Y0133212
X0088155Y0141776
X0080814Y0140786
X0067006Y0140087
X0059782Y0133969
X0051509Y0141718
X0043799Y0142224
X0008324Y0140847
X000852Y0118405
X0009013Y0097146
X0008816Y0064961
X0008422Y0045374
X0098817Y0153662
X010935Y0146752
X0159252Y0150394
X0160039Y0155217
X0159702Y0141732
X0160827Y0134055
X0168855Y0141831
X0174195Y0131507
X0183127Y0130512
X0186618Y0122663
X0192913Y0122146
X0192126Y0127657
X0202756Y0128609
X0203248Y0124138
X0208028Y0124213
X0207283Y0119095
X0207087Y0113878
X0219403Y0114341
X0227812Y0117421
X0231552Y0126181
X0236813Y0125857
X023539Y0110335
X0247595Y0115256
X0257665Y0114569
X0255666Y0108169
X0259997Y0122146
X0277123Y0120965
X0296611Y0112303
X0302615Y0099213
X0299843Y0083563
X0310549Y0059252
X0294446Y0033957
X0274374Y0034021
X0257697Y0037356
X0248087Y0028937
X0224016Y0026992
X0218996Y0027583
X0217815Y0033193
X0223299Y0032945
X022185Y0021579
X0217843Y0021503
X0217126Y0013114
X0214499Y0009728
X0218504Y0007406
X0226969Y0012622
X0227658Y0018528
X0227461Y002276
X0208366Y00192
X0204921Y0023622
Y0027559
X0200231Y0027328
X0195669Y0027559
X0198035Y003039
X0193898Y0023622
X0188827Y0021945
X0187894Y0016634
X0185236Y0018406
X018189Y0018021
X0186679Y0027381
X0195571Y0016508
X0200893Y0021414
X0199803Y0006791
X0203277Y0005217
X0237457Y0006299
X0253796Y0006201
X0273481
X0293363Y0006299
X0284308Y0023031
X0251969Y0055118
X0244094
X0248031Y0062797
X0237784Y0061222
Y0047155
X0244094Y0070866
X0225479Y0071961
X021934
X021434
X0213071Y0077461
X0206693Y0074311
X0203071Y0075492
X0198425Y007874
X0193071Y0075492
X0189676Y0077495
X0187303Y0074606
X0179331Y0073622
X0174409
X0177281Y008056
X0167514Y0082974
X0158563Y0081693
X015689Y0073646
X0163189Y0060138
X0181299Y0059768
X0190419Y0044243
X0193283Y0041545
X0196457Y0044015
X020435Y0064372
X021434Y0061789
X0221939
X022441Y0066144
X0214469Y0101279
X0209449
X0194437Y0112167
X0196063Y0117028
X0215784Y0122441
X0232776Y0148819
X0232972Y0154134
X0198327Y0156028
X017043Y0106988
X0166931Y0102263
X0173071Y0093996
X0242182Y0093898
X0271414Y0093799
X0284547Y014626
X0309813Y0121793
X0170669Y0008661
X0314721Y0006496
X0341887Y0006988
X0361473Y000689
X0382144Y0007144
X0386276Y0017028
X0386769Y0043602
X038667Y0060532
X0386965Y0087303
X0386337Y0106925
X0386572Y0131791
X0386276Y0152067
X0340453Y0117717
X0329035Y0115945
X0345036Y0094488
X0348232Y0057956
X0326926Y0059252
X0353501Y0159547
X0363442Y0188091
X0341198Y0189075
X0319741Y0189272
X038667Y0187894
X0385981Y0172343
X028563Y0175787
X0278839Y01625
X0295472Y0157579
X0298383Y018937
X0275843Y0189469
X0249564
X0246519Y0169327
X0236221Y0161417
X0230806Y0165354
X0223862Y0161417
X0222716Y0169291
X0223973Y018937
X0201926Y0189567
X0197237Y017803
X0202354Y0167811
X0192027Y0167642
X0182536Y0189469
X016482Y0189764
X0160039Y0165354
X0146217Y0189862
X012791Y0189764
X0107142
X0089524
X0070135Y0189665
X0050843
X0034997Y0189862
X0021203Y0189906
X0007831Y0189961
Y0165748
X0092816Y0163508
T02
X0189764Y0054331
X0194095
T03
X0041558Y0043406
X0047464
Y0059153
X0041558
X0053409Y0068996
X0023409
X0095236
X0113386Y0059153
X0119291
Y0043406
X0113386
X0125236Y0068996
X0272402
X0290551Y0059153
X0296457
Y0043406
X0290551
X0302402Y0068996
X0341828Y0069195
X0359978Y0059353
X0365883
Y0043605
X0359978
X0371828Y0069195
T04
X0029055Y0151516
X0039055
X0049055
X0059055
X0069055
Y0161516
X0059055
X0049055
X0039055
X0029055
T05
X0170984Y0152539
X0222716Y0152539
T06
X0013409Y002628
Y0076279
X0063409
X0085236
Y002628
X0063409
X0135236
Y0076279
X0262402
Y002628
X0312402
Y0076279
X0331828Y0076479
Y0026479
X0381828
Y0076479
M30
