%TF.GenerationSoftware,KiCad,Pcbnew,7.0.10*%
%TF.CreationDate,2024-01-23T19:04:03+00:00*%
%TF.ProjectId,buran,62757261-6e2e-46b6-9963-61645f706362,rev?*%
%TF.SameCoordinates,Original*%
%TF.FileFunction,Copper,L3,Inr*%
%TF.FilePolarity,Positive*%
%FSLAX46Y46*%
G04 Gerber Fmt 4.6, Leading zero omitted, Abs format (unit mm)*
G04 Created by KiCad (PCBNEW 7.0.10) date 2024-01-23 19:04:03*
%MOMM*%
%LPD*%
G01*
G04 APERTURE LIST*
%TA.AperFunction,ComponentPad*%
%ADD10C,8.000000*%
%TD*%
%TA.AperFunction,ComponentPad*%
%ADD11C,2.850000*%
%TD*%
%TA.AperFunction,ComponentPad*%
%ADD12R,1.650000X1.650000*%
%TD*%
%TA.AperFunction,ComponentPad*%
%ADD13C,1.650000*%
%TD*%
%TA.AperFunction,ComponentPad*%
%ADD14C,1.800000*%
%TD*%
%TA.AperFunction,ComponentPad*%
%ADD15R,1.100000X1.100000*%
%TD*%
%TA.AperFunction,ComponentPad*%
%ADD16C,1.100000*%
%TD*%
%TA.AperFunction,ComponentPad*%
%ADD17C,1.575000*%
%TD*%
%TA.AperFunction,ViaPad*%
%ADD18C,0.600000*%
%TD*%
G04 APERTURE END LIST*
D10*
%TO.N,N/C*%
%TO.C,*%
X42164000Y-141732000D03*
%TD*%
%TO.N,N/C*%
%TO.C,REF\u002A\u002A*%
X205726875Y-141861027D03*
%TD*%
%TO.N,N/C*%
%TO.C,REF\u002A\u002A*%
X205726875Y-33149027D03*
%TD*%
%TO.N,N/C*%
%TO.C,REF\u002A\u002A*%
X42164000Y-33020000D03*
%TD*%
D11*
%TO.N,GND*%
%TO.C,J2*%
X129950000Y-27915000D03*
X129950000Y-23915000D03*
X120050000Y-23915000D03*
X120050000Y-27915000D03*
%TD*%
D12*
%TO.N,VDD*%
%TO.C,J1*%
X82296000Y-72136000D03*
D13*
%TO.N,GND*%
X79756000Y-72136000D03*
%TO.N,/V_UNREG*%
X82296000Y-69596000D03*
%TO.N,/CBUS5*%
X79756000Y-69596000D03*
%TO.N,/SDA*%
X82296000Y-67056000D03*
%TO.N,unconnected-(J1-Pad6)*%
X79756000Y-67056000D03*
%TO.N,/SCL*%
X82296000Y-64516000D03*
%TO.N,unconnected-(J1-Pad8)*%
X79756000Y-64516000D03*
%TO.N,/N_RESET*%
X82296000Y-61976000D03*
%TO.N,unconnected-(J1-Pad10)*%
X79756000Y-61976000D03*
%TO.N,/CBUS0*%
X82296000Y-59436000D03*
%TO.N,unconnected-(J1-Pad12)*%
X79756000Y-59436000D03*
%TO.N,/CBUS1*%
X82296000Y-56896000D03*
%TO.N,unconnected-(J1-Pad14)*%
X79756000Y-56896000D03*
%TO.N,/CBUS2*%
X82296000Y-54356000D03*
%TO.N,unconnected-(J1-Pad16)*%
X79756000Y-54356000D03*
%TO.N,/CBUS3*%
X82296000Y-51816000D03*
%TO.N,unconnected-(J1-Pad18)*%
X79756000Y-51816000D03*
%TO.N,/CBUS4*%
X82296000Y-49276000D03*
%TO.N,unconnected-(J1-Pad20)*%
X79756000Y-49276000D03*
%TD*%
D14*
%TO.N,/MCU_S2*%
%TO.C,S2*%
X101350000Y-122540000D03*
%TO.N,GND*%
X101350000Y-117460000D03*
%TO.N,unconnected-(S2-NC-Pad3)*%
X101350000Y-112380000D03*
%TO.N,VDD*%
X97540000Y-120000000D03*
%TO.N,Net-(S2-L1)*%
X97540000Y-114920000D03*
%TO.N,/IC4_LED_4*%
X95000000Y-114920000D03*
%TO.N,/IC4_LED_5*%
X95000000Y-120000000D03*
%TD*%
D15*
%TO.N,VDD*%
%TO.C,J3*%
X145669000Y-58420000D03*
D16*
%TO.N,/SWDIO*%
X146939000Y-58420000D03*
%TO.N,GND*%
X145669000Y-59690000D03*
%TO.N,/SWCLK*%
X146939000Y-59690000D03*
%TO.N,GND*%
X145669000Y-60960000D03*
%TO.N,unconnected-(J3-Pad6)*%
X146939000Y-60960000D03*
%TO.N,unconnected-(J3-Pad7)*%
X145669000Y-62230000D03*
%TO.N,unconnected-(J3-Pad8)*%
X146939000Y-62230000D03*
%TO.N,unconnected-(J3-Pad9)*%
X145669000Y-63500000D03*
%TO.N,/N_RESET*%
X146939000Y-63500000D03*
%TD*%
D14*
%TO.N,/MCU_S3*%
%TO.C,S3*%
X163810000Y-122540000D03*
%TO.N,GND*%
X163810000Y-117460000D03*
%TO.N,unconnected-(S3-NC-Pad3)*%
X163810000Y-112380000D03*
%TO.N,VDD*%
X160000000Y-120000000D03*
%TO.N,Net-(S3-L1)*%
X160000000Y-114920000D03*
%TO.N,/IC4_LED_7*%
X157460000Y-114920000D03*
%TO.N,/IC4_LED_8*%
X157460000Y-120000000D03*
%TD*%
%TO.N,/MCU_S1*%
%TO.C,S1*%
X68810000Y-122620000D03*
%TO.N,GND*%
X68810000Y-117540000D03*
%TO.N,unconnected-(S1-NC-Pad3)*%
X68810000Y-112460000D03*
%TO.N,VDD*%
X65000000Y-120080000D03*
%TO.N,Net-(S1-L1)*%
X65000000Y-115000000D03*
%TO.N,/IC4_LED_1*%
X62460000Y-115000000D03*
%TO.N,/IC4_LED_2*%
X62460000Y-120080000D03*
%TD*%
%TO.N,/MCU_S4*%
%TO.C,S4*%
X191350000Y-122620000D03*
%TO.N,GND*%
X191350000Y-117540000D03*
%TO.N,unconnected-(S4-NC-Pad3)*%
X191350000Y-112460000D03*
%TO.N,VDD*%
X187540000Y-120080000D03*
%TO.N,Net-(S4-L1)*%
X187540000Y-115000000D03*
%TO.N,/IC4_LED_10*%
X185000000Y-115000000D03*
%TO.N,/IC4_LED_11*%
X185000000Y-120080000D03*
%TD*%
D17*
%TO.N,/N_RESET*%
%TO.C,S5*%
X102156000Y-40576000D03*
%TO.N,GND*%
X108156000Y-40576000D03*
%TO.N,/N_RESET*%
X102156000Y-32576000D03*
%TO.N,GND*%
X108156000Y-32576000D03*
%TD*%
D18*
%TO.N,GND*%
X127000000Y-34036000D03*
X122936000Y-34036000D03*
X111252000Y-82296000D03*
X109220000Y-80264000D03*
X84328000Y-76708000D03*
X74168000Y-76708000D03*
X74168000Y-71120000D03*
%TO.N,VDD*%
X130048000Y-43515500D03*
X103632000Y-60960000D03*
X123444000Y-84328000D03*
X133096000Y-55372000D03*
X120394500Y-85852000D03*
X129032000Y-46228000D03*
X107188000Y-64516000D03*
%TO.N,GND*%
X192532000Y-80264000D03*
X132080000Y-66040000D03*
X145796000Y-91948000D03*
X113284000Y-43180000D03*
X142240000Y-59944000D03*
X143256000Y-59436000D03*
X108712000Y-47752000D03*
X133096000Y-67564000D03*
X127000000Y-41148000D03*
X134620000Y-67056000D03*
X156464000Y-101600000D03*
X143256000Y-60960000D03*
X134112000Y-49276000D03*
X68580000Y-142240000D03*
X142240000Y-59944000D03*
X135636000Y-76200000D03*
X175260000Y-24384000D03*
X37592000Y-26416000D03*
X178308000Y-143256000D03*
X171704000Y-56896000D03*
X122428000Y-27432000D03*
X154432000Y-24384000D03*
X138684000Y-142748000D03*
X120396000Y-89916000D03*
X154432000Y-112268000D03*
X192024000Y-25400000D03*
X111760000Y-54356000D03*
X133604000Y-44196000D03*
X133096000Y-65532000D03*
X25400000Y-76200000D03*
X107696000Y-53848000D03*
X38608000Y-135128000D03*
X132080000Y-43180000D03*
X110744000Y-59436000D03*
X218948000Y-124460000D03*
X122936000Y-41148000D03*
X120396000Y-91948000D03*
X153416000Y-79248000D03*
X202692000Y-133096000D03*
X101600000Y-142748000D03*
X149352000Y-107696000D03*
X24892000Y-96520000D03*
X132080000Y-66040000D03*
X143256000Y-59436000D03*
X97536000Y-23876000D03*
X118872000Y-91948000D03*
X127000000Y-39624000D03*
X218948000Y-92964000D03*
X143256000Y-60960000D03*
X24892000Y-57912000D03*
X214884000Y-43688000D03*
X128016000Y-90424000D03*
X134112000Y-45720000D03*
X131572000Y-65024000D03*
X29972000Y-31496000D03*
X122936000Y-39624000D03*
X25908000Y-113284000D03*
X218948000Y-64516000D03*
X118872000Y-36576000D03*
X65532000Y-24384000D03*
X122936000Y-41148000D03*
X105664000Y-56388000D03*
X133604000Y-66548000D03*
X108712000Y-47752000D03*
X25400000Y-42164000D03*
X113284000Y-43180000D03*
X134112000Y-47244000D03*
X118872000Y-36576000D03*
X122936000Y-39624000D03*
X118872000Y-89916000D03*
X122428000Y-29464000D03*
X128016000Y-91948000D03*
%TO.N,/MCU_LED_1*%
X124961932Y-56889932D03*
X158496000Y-40640000D03*
%TO.N,/MCU_LED_2*%
X125476000Y-57404000D03*
X174244000Y-40640000D03*
%TO.N,/CBUS0*%
X116840000Y-61976000D03*
X130556000Y-44704000D03*
X94488000Y-59944000D03*
X86868000Y-59944000D03*
X132080000Y-50292000D03*
%TO.N,/CBUS1*%
X105156000Y-61976000D03*
X116840000Y-63500000D03*
X89916000Y-60960000D03*
%TO.N,/CBUS2*%
X115316000Y-59436000D03*
X118872000Y-48768000D03*
X116840000Y-64516000D03*
X115316000Y-64008000D03*
X124044836Y-63084836D03*
X92456000Y-54864000D03*
X98552000Y-57912000D03*
%TO.N,/SDA*%
X114317309Y-66830978D03*
X115824000Y-73660000D03*
%TO.N,/SCL*%
X113792000Y-64008000D03*
X84836000Y-62992000D03*
X111867837Y-65847273D03*
%TO.N,/CBUS3*%
X98552000Y-61468000D03*
X91440000Y-59436000D03*
X102108000Y-65024000D03*
X86868000Y-56388000D03*
X106680000Y-69596000D03*
X114808000Y-69596000D03*
%TO.N,/CBUS4*%
X90932000Y-54356000D03*
X85852000Y-60452000D03*
X118872000Y-47752000D03*
X88900000Y-65024000D03*
X125025836Y-62992000D03*
X102616000Y-67056000D03*
X115316000Y-70612000D03*
%TO.N,/CBUS5*%
X125984000Y-61976000D03*
X115333500Y-71461005D03*
X119380000Y-44149500D03*
%TO.N,/N_RESET*%
X122936000Y-73152000D03*
X117856000Y-51308000D03*
X135757627Y-71269293D03*
X146904836Y-68164836D03*
X145703164Y-69503164D03*
X131572000Y-51308000D03*
X138176000Y-57404000D03*
X140208000Y-59436000D03*
X125476000Y-73152000D03*
X135128000Y-50800000D03*
X102108000Y-50800000D03*
%TO.N,/SWDIO*%
X148844000Y-65532000D03*
%TO.N,/V_UNREG*%
X125476000Y-25908000D03*
X88392000Y-63500000D03*
%TO.N,/IC4_LED_11*%
X164084000Y-88392000D03*
X127508000Y-84328000D03*
%TO.N,/IC4_LED_10*%
X128524000Y-85344000D03*
X158496000Y-87376000D03*
%TO.N,/IC4_LED_8*%
X154432000Y-116840000D03*
X130556000Y-92964000D03*
%TO.N,/IC4_LED_7*%
X141732000Y-108204000D03*
X131572000Y-96520000D03*
%TO.N,/MCU_N_OE*%
X121412000Y-96012000D03*
X127000000Y-61976000D03*
%TO.N,/VCCIO*%
X130048000Y-48768000D03*
X120904000Y-45212000D03*
%TO.N,/MCU_S1*%
X125476000Y-67564000D03*
X87884000Y-99060000D03*
%TO.N,/MCU_S2*%
X106172000Y-100076000D03*
X126492000Y-66548000D03*
%TO.N,/MCU_S3*%
X132588000Y-62484000D03*
%TO.N,/MCU_S4*%
X144272000Y-65532000D03*
X147735164Y-65947164D03*
X134620000Y-61468000D03*
%TD*%
M02*
