%TF.GenerationSoftware,KiCad,Pcbnew,7.0.10*%
%TF.CreationDate,2024-12-08T15:27:32+00:00*%
%TF.ProjectId,buran,62757261-6e2e-46b6-9963-61645f706362,rev?*%
%TF.SameCoordinates,Original*%
%TF.FileFunction,Soldermask,Bot*%
%TF.FilePolarity,Negative*%
%FSLAX46Y46*%
G04 Gerber Fmt 4.6, Leading zero omitted, Abs format (unit mm)*
G04 Created by KiCad (PCBNEW 7.0.10) date 2024-12-08 15:27:32*
%MOMM*%
%LPD*%
G01*
G04 APERTURE LIST*
G04 APERTURE END LIST*
G36*
X166392069Y-119019261D02*
G01*
X166780361Y-119076859D01*
X167161139Y-119172239D01*
X167530734Y-119304482D01*
X167885587Y-119472315D01*
X168222281Y-119674122D01*
X168537573Y-119907958D01*
X168828427Y-120171573D01*
X169092042Y-120462427D01*
X169325878Y-120777719D01*
X169527685Y-121114413D01*
X169695518Y-121469266D01*
X169827761Y-121838861D01*
X169923141Y-122219639D01*
X169980739Y-122607931D01*
X170000000Y-123000000D01*
X169980739Y-123392069D01*
X169923141Y-123780361D01*
X169827761Y-124161139D01*
X169695518Y-124530734D01*
X169527685Y-124885587D01*
X169325878Y-125222281D01*
X169092042Y-125537573D01*
X168828427Y-125828427D01*
X168537573Y-126092042D01*
X168222281Y-126325878D01*
X167885587Y-126527685D01*
X167530734Y-126695518D01*
X167161139Y-126827761D01*
X166780361Y-126923141D01*
X166392069Y-126980739D01*
X166000000Y-127000000D01*
X165607931Y-126980739D01*
X165219639Y-126923141D01*
X164838861Y-126827761D01*
X164469266Y-126695518D01*
X164114413Y-126527685D01*
X163777719Y-126325878D01*
X163462427Y-126092042D01*
X163171573Y-125828427D01*
X162907958Y-125537573D01*
X162674122Y-125222281D01*
X162472315Y-124885587D01*
X162304482Y-124530734D01*
X162172239Y-124161139D01*
X162076859Y-123780361D01*
X162019261Y-123392069D01*
X162000000Y-123000000D01*
X162019261Y-122607931D01*
X162076859Y-122219639D01*
X162172239Y-121838861D01*
X162304482Y-121469266D01*
X162472315Y-121114413D01*
X162674122Y-120777719D01*
X162907958Y-120462427D01*
X163171573Y-120171573D01*
X163462427Y-119907958D01*
X163777719Y-119674122D01*
X164114413Y-119472315D01*
X164469266Y-119304482D01*
X164838861Y-119172239D01*
X165219639Y-119076859D01*
X165607931Y-119019261D01*
X166000000Y-119000000D01*
X166392069Y-119019261D01*
G37*
G36*
X39192069Y-118219261D02*
G01*
X39580361Y-118276859D01*
X39961139Y-118372239D01*
X40330734Y-118504482D01*
X40685587Y-118672315D01*
X41022281Y-118874122D01*
X41337573Y-119107958D01*
X41628427Y-119371573D01*
X41892042Y-119662427D01*
X42125878Y-119977719D01*
X42327685Y-120314413D01*
X42495518Y-120669266D01*
X42627761Y-121038861D01*
X42723141Y-121419639D01*
X42780739Y-121807931D01*
X42800000Y-122200000D01*
X42780739Y-122592069D01*
X42723141Y-122980361D01*
X42627761Y-123361139D01*
X42495518Y-123730734D01*
X42327685Y-124085587D01*
X42125878Y-124422281D01*
X41892042Y-124737573D01*
X41628427Y-125028427D01*
X41337573Y-125292042D01*
X41022281Y-125525878D01*
X40685587Y-125727685D01*
X40330734Y-125895518D01*
X39961139Y-126027761D01*
X39580361Y-126123141D01*
X39192069Y-126180739D01*
X38800000Y-126200000D01*
X38407931Y-126180739D01*
X38019639Y-126123141D01*
X37638861Y-126027761D01*
X37269266Y-125895518D01*
X36914413Y-125727685D01*
X36577719Y-125525878D01*
X36262427Y-125292042D01*
X35971573Y-125028427D01*
X35707958Y-124737573D01*
X35474122Y-124422281D01*
X35272315Y-124085587D01*
X35104482Y-123730734D01*
X34972239Y-123361139D01*
X34876859Y-122980361D01*
X34819261Y-122592069D01*
X34800000Y-122200000D01*
X34819261Y-121807931D01*
X34876859Y-121419639D01*
X34972239Y-121038861D01*
X35104482Y-120669266D01*
X35272315Y-120314413D01*
X35474122Y-119977719D01*
X35707958Y-119662427D01*
X35971573Y-119371573D01*
X36262427Y-119107958D01*
X36577719Y-118874122D01*
X36914413Y-118672315D01*
X37269266Y-118504482D01*
X37638861Y-118372239D01*
X38019639Y-118276859D01*
X38407931Y-118219261D01*
X38800000Y-118200000D01*
X39192069Y-118219261D01*
G37*
G36*
X58547113Y-123644930D02*
G01*
X58594076Y-123644930D01*
X58634622Y-123653548D01*
X58675526Y-123657577D01*
X58726916Y-123673166D01*
X58778115Y-123684049D01*
X58810879Y-123698636D01*
X58844304Y-123708776D01*
X58897420Y-123737166D01*
X58950000Y-123760577D01*
X58974445Y-123778337D01*
X58999849Y-123791916D01*
X59051669Y-123834444D01*
X59102218Y-123871170D01*
X59118631Y-123889398D01*
X59136190Y-123903809D01*
X59183379Y-123961308D01*
X59228115Y-124010993D01*
X59237512Y-124027269D01*
X59248083Y-124040150D01*
X59287183Y-124113302D01*
X59322191Y-124173937D01*
X59326218Y-124186331D01*
X59331223Y-124195695D01*
X59358821Y-124286672D01*
X59380333Y-124352879D01*
X59381090Y-124360082D01*
X59382422Y-124364473D01*
X59395377Y-124496021D01*
X59400000Y-124540000D01*
X59395377Y-124583982D01*
X59382422Y-124715526D01*
X59381090Y-124719916D01*
X59380333Y-124727121D01*
X59358816Y-124793341D01*
X59331223Y-124884304D01*
X59326219Y-124893665D01*
X59322191Y-124906063D01*
X59287176Y-124966709D01*
X59248083Y-125039849D01*
X59237514Y-125052726D01*
X59228115Y-125069007D01*
X59183369Y-125118701D01*
X59136190Y-125176190D01*
X59118634Y-125190597D01*
X59102218Y-125208830D01*
X59051659Y-125245563D01*
X58999849Y-125288083D01*
X58974450Y-125301658D01*
X58950000Y-125319423D01*
X58897408Y-125342838D01*
X58844304Y-125371223D01*
X58810886Y-125381360D01*
X58778115Y-125395951D01*
X58726905Y-125406836D01*
X58675526Y-125422422D01*
X58634631Y-125426449D01*
X58594076Y-125435070D01*
X58547103Y-125435070D01*
X58500000Y-125439709D01*
X58452897Y-125435070D01*
X58405924Y-125435070D01*
X58365368Y-125426449D01*
X58324473Y-125422422D01*
X58273091Y-125406835D01*
X58221885Y-125395951D01*
X58189115Y-125381361D01*
X58155695Y-125371223D01*
X58102585Y-125342835D01*
X58050000Y-125319423D01*
X58025552Y-125301660D01*
X58000150Y-125288083D01*
X57948332Y-125245556D01*
X57897782Y-125208830D01*
X57881368Y-125190600D01*
X57863809Y-125176190D01*
X57816618Y-125118688D01*
X57771885Y-125069007D01*
X57762487Y-125052730D01*
X57751916Y-125039849D01*
X57712810Y-124966686D01*
X57677809Y-124906063D01*
X57673782Y-124893670D01*
X57668776Y-124884304D01*
X57641168Y-124793294D01*
X57619667Y-124727121D01*
X57618910Y-124719921D01*
X57617577Y-124715526D01*
X57604606Y-124583831D01*
X57600000Y-124540000D01*
X57604606Y-124496172D01*
X57617577Y-124364473D01*
X57618910Y-124360077D01*
X57619667Y-124352879D01*
X57641163Y-124286719D01*
X57668776Y-124195695D01*
X57673783Y-124186327D01*
X57677809Y-124173937D01*
X57712802Y-124113326D01*
X57751916Y-124040150D01*
X57762489Y-124027265D01*
X57771885Y-124010993D01*
X57816609Y-123961321D01*
X57863809Y-123903809D01*
X57881371Y-123889395D01*
X57897782Y-123871170D01*
X57948321Y-123834450D01*
X58000150Y-123791916D01*
X58025557Y-123778335D01*
X58050000Y-123760577D01*
X58102573Y-123737169D01*
X58155695Y-123708776D01*
X58189122Y-123698635D01*
X58221885Y-123684049D01*
X58273080Y-123673166D01*
X58324473Y-123657577D01*
X58365377Y-123653548D01*
X58405924Y-123644930D01*
X58452887Y-123644930D01*
X58500000Y-123640290D01*
X58547113Y-123644930D01*
G37*
G36*
X83947113Y-123644930D02*
G01*
X83994076Y-123644930D01*
X84034622Y-123653548D01*
X84075526Y-123657577D01*
X84126916Y-123673166D01*
X84178115Y-123684049D01*
X84210879Y-123698636D01*
X84244304Y-123708776D01*
X84297420Y-123737166D01*
X84350000Y-123760577D01*
X84374445Y-123778337D01*
X84399849Y-123791916D01*
X84451669Y-123834444D01*
X84502218Y-123871170D01*
X84518631Y-123889398D01*
X84536190Y-123903809D01*
X84583379Y-123961308D01*
X84628115Y-124010993D01*
X84637512Y-124027269D01*
X84648083Y-124040150D01*
X84687183Y-124113302D01*
X84722191Y-124173937D01*
X84726218Y-124186331D01*
X84731223Y-124195695D01*
X84758821Y-124286672D01*
X84780333Y-124352879D01*
X84781090Y-124360082D01*
X84782422Y-124364473D01*
X84795377Y-124496021D01*
X84800000Y-124540000D01*
X84795377Y-124583982D01*
X84782422Y-124715526D01*
X84781090Y-124719916D01*
X84780333Y-124727121D01*
X84758816Y-124793341D01*
X84731223Y-124884304D01*
X84726219Y-124893665D01*
X84722191Y-124906063D01*
X84687176Y-124966709D01*
X84648083Y-125039849D01*
X84637514Y-125052726D01*
X84628115Y-125069007D01*
X84583369Y-125118701D01*
X84536190Y-125176190D01*
X84518634Y-125190597D01*
X84502218Y-125208830D01*
X84451659Y-125245563D01*
X84399849Y-125288083D01*
X84374450Y-125301658D01*
X84350000Y-125319423D01*
X84297408Y-125342838D01*
X84244304Y-125371223D01*
X84210886Y-125381360D01*
X84178115Y-125395951D01*
X84126905Y-125406836D01*
X84075526Y-125422422D01*
X84034631Y-125426449D01*
X83994076Y-125435070D01*
X83947103Y-125435070D01*
X83900000Y-125439709D01*
X83852897Y-125435070D01*
X83805924Y-125435070D01*
X83765368Y-125426449D01*
X83724473Y-125422422D01*
X83673091Y-125406835D01*
X83621885Y-125395951D01*
X83589115Y-125381361D01*
X83555695Y-125371223D01*
X83502585Y-125342835D01*
X83450000Y-125319423D01*
X83425552Y-125301660D01*
X83400150Y-125288083D01*
X83348332Y-125245556D01*
X83297782Y-125208830D01*
X83281368Y-125190600D01*
X83263809Y-125176190D01*
X83216618Y-125118688D01*
X83171885Y-125069007D01*
X83162487Y-125052730D01*
X83151916Y-125039849D01*
X83112810Y-124966686D01*
X83077809Y-124906063D01*
X83073782Y-124893670D01*
X83068776Y-124884304D01*
X83041168Y-124793294D01*
X83019667Y-124727121D01*
X83018910Y-124719921D01*
X83017577Y-124715526D01*
X83004606Y-124583831D01*
X83000000Y-124540000D01*
X83004606Y-124496172D01*
X83017577Y-124364473D01*
X83018910Y-124360077D01*
X83019667Y-124352879D01*
X83041163Y-124286719D01*
X83068776Y-124195695D01*
X83073783Y-124186327D01*
X83077809Y-124173937D01*
X83112802Y-124113326D01*
X83151916Y-124040150D01*
X83162489Y-124027265D01*
X83171885Y-124010993D01*
X83216609Y-123961321D01*
X83263809Y-123903809D01*
X83281371Y-123889395D01*
X83297782Y-123871170D01*
X83348321Y-123834450D01*
X83400150Y-123791916D01*
X83425557Y-123778335D01*
X83450000Y-123760577D01*
X83502573Y-123737169D01*
X83555695Y-123708776D01*
X83589122Y-123698635D01*
X83621885Y-123684049D01*
X83673080Y-123673166D01*
X83724473Y-123657577D01*
X83765377Y-123653548D01*
X83805924Y-123644930D01*
X83852887Y-123644930D01*
X83900000Y-123640290D01*
X83947113Y-123644930D01*
G37*
G36*
X129667113Y-123644930D02*
G01*
X129714076Y-123644930D01*
X129754622Y-123653548D01*
X129795526Y-123657577D01*
X129846916Y-123673166D01*
X129898115Y-123684049D01*
X129930879Y-123698636D01*
X129964304Y-123708776D01*
X130017420Y-123737166D01*
X130070000Y-123760577D01*
X130094445Y-123778337D01*
X130119849Y-123791916D01*
X130171669Y-123834444D01*
X130222218Y-123871170D01*
X130238631Y-123889398D01*
X130256190Y-123903809D01*
X130303379Y-123961308D01*
X130348115Y-124010993D01*
X130357512Y-124027269D01*
X130368083Y-124040150D01*
X130407183Y-124113302D01*
X130442191Y-124173937D01*
X130446218Y-124186331D01*
X130451223Y-124195695D01*
X130478821Y-124286672D01*
X130500333Y-124352879D01*
X130501090Y-124360082D01*
X130502422Y-124364473D01*
X130515377Y-124496021D01*
X130520000Y-124540000D01*
X130515377Y-124583982D01*
X130502422Y-124715526D01*
X130501090Y-124719916D01*
X130500333Y-124727121D01*
X130478816Y-124793341D01*
X130451223Y-124884304D01*
X130446219Y-124893665D01*
X130442191Y-124906063D01*
X130407176Y-124966709D01*
X130368083Y-125039849D01*
X130357514Y-125052726D01*
X130348115Y-125069007D01*
X130303369Y-125118701D01*
X130256190Y-125176190D01*
X130238634Y-125190597D01*
X130222218Y-125208830D01*
X130171659Y-125245563D01*
X130119849Y-125288083D01*
X130094450Y-125301658D01*
X130070000Y-125319423D01*
X130017408Y-125342838D01*
X129964304Y-125371223D01*
X129930886Y-125381360D01*
X129898115Y-125395951D01*
X129846905Y-125406836D01*
X129795526Y-125422422D01*
X129754631Y-125426449D01*
X129714076Y-125435070D01*
X129667103Y-125435070D01*
X129620000Y-125439709D01*
X129572897Y-125435070D01*
X129525924Y-125435070D01*
X129485368Y-125426449D01*
X129444473Y-125422422D01*
X129393091Y-125406835D01*
X129341885Y-125395951D01*
X129309115Y-125381361D01*
X129275695Y-125371223D01*
X129222585Y-125342835D01*
X129170000Y-125319423D01*
X129145552Y-125301660D01*
X129120150Y-125288083D01*
X129068332Y-125245556D01*
X129017782Y-125208830D01*
X129001368Y-125190600D01*
X128983809Y-125176190D01*
X128936618Y-125118688D01*
X128891885Y-125069007D01*
X128882487Y-125052730D01*
X128871916Y-125039849D01*
X128832810Y-124966686D01*
X128797809Y-124906063D01*
X128793782Y-124893670D01*
X128788776Y-124884304D01*
X128761168Y-124793294D01*
X128739667Y-124727121D01*
X128738910Y-124719921D01*
X128737577Y-124715526D01*
X128724606Y-124583831D01*
X128720000Y-124540000D01*
X128724606Y-124496172D01*
X128737577Y-124364473D01*
X128738910Y-124360077D01*
X128739667Y-124352879D01*
X128761163Y-124286719D01*
X128788776Y-124195695D01*
X128793783Y-124186327D01*
X128797809Y-124173937D01*
X128832802Y-124113326D01*
X128871916Y-124040150D01*
X128882489Y-124027265D01*
X128891885Y-124010993D01*
X128936609Y-123961321D01*
X128983809Y-123903809D01*
X129001371Y-123889395D01*
X129017782Y-123871170D01*
X129068321Y-123834450D01*
X129120150Y-123791916D01*
X129145557Y-123778335D01*
X129170000Y-123760577D01*
X129222573Y-123737169D01*
X129275695Y-123708776D01*
X129309122Y-123698635D01*
X129341885Y-123684049D01*
X129393080Y-123673166D01*
X129444473Y-123657577D01*
X129485377Y-123653548D01*
X129525924Y-123644930D01*
X129572887Y-123644930D01*
X129620000Y-123640290D01*
X129667113Y-123644930D01*
G37*
G36*
X155067113Y-123644930D02*
G01*
X155114076Y-123644930D01*
X155154622Y-123653548D01*
X155195526Y-123657577D01*
X155246916Y-123673166D01*
X155298115Y-123684049D01*
X155330879Y-123698636D01*
X155364304Y-123708776D01*
X155417420Y-123737166D01*
X155470000Y-123760577D01*
X155494445Y-123778337D01*
X155519849Y-123791916D01*
X155571669Y-123834444D01*
X155622218Y-123871170D01*
X155638631Y-123889398D01*
X155656190Y-123903809D01*
X155703379Y-123961308D01*
X155748115Y-124010993D01*
X155757512Y-124027269D01*
X155768083Y-124040150D01*
X155807183Y-124113302D01*
X155842191Y-124173937D01*
X155846218Y-124186331D01*
X155851223Y-124195695D01*
X155878821Y-124286672D01*
X155900333Y-124352879D01*
X155901090Y-124360082D01*
X155902422Y-124364473D01*
X155915377Y-124496021D01*
X155920000Y-124540000D01*
X155915377Y-124583982D01*
X155902422Y-124715526D01*
X155901090Y-124719916D01*
X155900333Y-124727121D01*
X155878816Y-124793341D01*
X155851223Y-124884304D01*
X155846219Y-124893665D01*
X155842191Y-124906063D01*
X155807176Y-124966709D01*
X155768083Y-125039849D01*
X155757514Y-125052726D01*
X155748115Y-125069007D01*
X155703369Y-125118701D01*
X155656190Y-125176190D01*
X155638634Y-125190597D01*
X155622218Y-125208830D01*
X155571659Y-125245563D01*
X155519849Y-125288083D01*
X155494450Y-125301658D01*
X155470000Y-125319423D01*
X155417408Y-125342838D01*
X155364304Y-125371223D01*
X155330886Y-125381360D01*
X155298115Y-125395951D01*
X155246905Y-125406836D01*
X155195526Y-125422422D01*
X155154631Y-125426449D01*
X155114076Y-125435070D01*
X155067103Y-125435070D01*
X155020000Y-125439709D01*
X154972897Y-125435070D01*
X154925924Y-125435070D01*
X154885368Y-125426449D01*
X154844473Y-125422422D01*
X154793091Y-125406835D01*
X154741885Y-125395951D01*
X154709115Y-125381361D01*
X154675695Y-125371223D01*
X154622585Y-125342835D01*
X154570000Y-125319423D01*
X154545552Y-125301660D01*
X154520150Y-125288083D01*
X154468332Y-125245556D01*
X154417782Y-125208830D01*
X154401368Y-125190600D01*
X154383809Y-125176190D01*
X154336618Y-125118688D01*
X154291885Y-125069007D01*
X154282487Y-125052730D01*
X154271916Y-125039849D01*
X154232810Y-124966686D01*
X154197809Y-124906063D01*
X154193782Y-124893670D01*
X154188776Y-124884304D01*
X154161168Y-124793294D01*
X154139667Y-124727121D01*
X154138910Y-124719921D01*
X154137577Y-124715526D01*
X154124606Y-124583831D01*
X154120000Y-124540000D01*
X154124606Y-124496172D01*
X154137577Y-124364473D01*
X154138910Y-124360077D01*
X154139667Y-124352879D01*
X154161163Y-124286719D01*
X154188776Y-124195695D01*
X154193783Y-124186327D01*
X154197809Y-124173937D01*
X154232802Y-124113326D01*
X154271916Y-124040150D01*
X154282489Y-124027265D01*
X154291885Y-124010993D01*
X154336609Y-123961321D01*
X154383809Y-123903809D01*
X154401371Y-123889395D01*
X154417782Y-123871170D01*
X154468321Y-123834450D01*
X154520150Y-123791916D01*
X154545557Y-123778335D01*
X154570000Y-123760577D01*
X154622573Y-123737169D01*
X154675695Y-123708776D01*
X154709122Y-123698635D01*
X154741885Y-123684049D01*
X154793080Y-123673166D01*
X154844473Y-123657577D01*
X154885377Y-123653548D01*
X154925924Y-123644930D01*
X154972887Y-123644930D01*
X155020000Y-123640290D01*
X155067113Y-123644930D01*
G37*
G36*
X52197113Y-121104930D02*
G01*
X52244076Y-121104930D01*
X52284622Y-121113548D01*
X52325526Y-121117577D01*
X52376916Y-121133166D01*
X52428115Y-121144049D01*
X52460879Y-121158636D01*
X52494304Y-121168776D01*
X52547420Y-121197166D01*
X52600000Y-121220577D01*
X52624445Y-121238337D01*
X52649849Y-121251916D01*
X52701669Y-121294444D01*
X52752218Y-121331170D01*
X52768631Y-121349398D01*
X52786190Y-121363809D01*
X52833379Y-121421308D01*
X52878115Y-121470993D01*
X52887512Y-121487269D01*
X52898083Y-121500150D01*
X52937183Y-121573302D01*
X52972191Y-121633937D01*
X52976218Y-121646331D01*
X52981223Y-121655695D01*
X53008821Y-121746672D01*
X53030333Y-121812879D01*
X53031090Y-121820082D01*
X53032422Y-121824473D01*
X53045377Y-121956021D01*
X53050000Y-122000000D01*
X53045377Y-122043982D01*
X53032422Y-122175526D01*
X53031090Y-122179916D01*
X53030333Y-122187121D01*
X53008816Y-122253341D01*
X52981223Y-122344304D01*
X52976219Y-122353665D01*
X52972191Y-122366063D01*
X52937176Y-122426709D01*
X52898083Y-122499849D01*
X52887514Y-122512726D01*
X52878115Y-122529007D01*
X52833369Y-122578701D01*
X52786190Y-122636190D01*
X52768634Y-122650597D01*
X52752218Y-122668830D01*
X52701659Y-122705563D01*
X52649849Y-122748083D01*
X52624450Y-122761658D01*
X52600000Y-122779423D01*
X52547408Y-122802838D01*
X52494304Y-122831223D01*
X52460886Y-122841360D01*
X52428115Y-122855951D01*
X52376905Y-122866836D01*
X52325526Y-122882422D01*
X52284631Y-122886449D01*
X52244076Y-122895070D01*
X52197103Y-122895070D01*
X52150000Y-122899709D01*
X52102897Y-122895070D01*
X52055924Y-122895070D01*
X52015368Y-122886449D01*
X51974473Y-122882422D01*
X51923091Y-122866835D01*
X51871885Y-122855951D01*
X51839115Y-122841361D01*
X51805695Y-122831223D01*
X51752585Y-122802835D01*
X51700000Y-122779423D01*
X51675552Y-122761660D01*
X51650150Y-122748083D01*
X51598332Y-122705556D01*
X51547782Y-122668830D01*
X51531368Y-122650600D01*
X51513809Y-122636190D01*
X51466618Y-122578688D01*
X51421885Y-122529007D01*
X51412487Y-122512730D01*
X51401916Y-122499849D01*
X51362810Y-122426686D01*
X51327809Y-122366063D01*
X51323782Y-122353670D01*
X51318776Y-122344304D01*
X51291168Y-122253294D01*
X51269667Y-122187121D01*
X51268910Y-122179921D01*
X51267577Y-122175526D01*
X51254606Y-122043831D01*
X51250000Y-122000000D01*
X51254606Y-121956172D01*
X51267577Y-121824473D01*
X51268910Y-121820077D01*
X51269667Y-121812879D01*
X51291163Y-121746719D01*
X51318776Y-121655695D01*
X51323783Y-121646327D01*
X51327809Y-121633937D01*
X51362802Y-121573326D01*
X51401916Y-121500150D01*
X51412489Y-121487265D01*
X51421885Y-121470993D01*
X51466609Y-121421321D01*
X51513809Y-121363809D01*
X51531371Y-121349395D01*
X51547782Y-121331170D01*
X51598321Y-121294450D01*
X51650150Y-121251916D01*
X51675557Y-121238335D01*
X51700000Y-121220577D01*
X51752573Y-121197169D01*
X51805695Y-121168776D01*
X51839122Y-121158635D01*
X51871885Y-121144049D01*
X51923080Y-121133166D01*
X51974473Y-121117577D01*
X52015377Y-121113548D01*
X52055924Y-121104930D01*
X52102887Y-121104930D01*
X52150000Y-121100290D01*
X52197113Y-121104930D01*
G37*
G36*
X54737113Y-121104930D02*
G01*
X54784076Y-121104930D01*
X54824622Y-121113548D01*
X54865526Y-121117577D01*
X54916916Y-121133166D01*
X54968115Y-121144049D01*
X55000879Y-121158636D01*
X55034304Y-121168776D01*
X55087420Y-121197166D01*
X55140000Y-121220577D01*
X55164445Y-121238337D01*
X55189849Y-121251916D01*
X55241669Y-121294444D01*
X55292218Y-121331170D01*
X55308631Y-121349398D01*
X55326190Y-121363809D01*
X55373379Y-121421308D01*
X55418115Y-121470993D01*
X55427512Y-121487269D01*
X55438083Y-121500150D01*
X55477183Y-121573302D01*
X55512191Y-121633937D01*
X55516218Y-121646331D01*
X55521223Y-121655695D01*
X55548821Y-121746672D01*
X55570333Y-121812879D01*
X55571090Y-121820082D01*
X55572422Y-121824473D01*
X55585377Y-121956021D01*
X55590000Y-122000000D01*
X55585377Y-122043982D01*
X55572422Y-122175526D01*
X55571090Y-122179916D01*
X55570333Y-122187121D01*
X55548816Y-122253341D01*
X55521223Y-122344304D01*
X55516219Y-122353665D01*
X55512191Y-122366063D01*
X55477176Y-122426709D01*
X55438083Y-122499849D01*
X55427514Y-122512726D01*
X55418115Y-122529007D01*
X55373369Y-122578701D01*
X55326190Y-122636190D01*
X55308634Y-122650597D01*
X55292218Y-122668830D01*
X55241659Y-122705563D01*
X55189849Y-122748083D01*
X55164450Y-122761658D01*
X55140000Y-122779423D01*
X55087408Y-122802838D01*
X55034304Y-122831223D01*
X55000886Y-122841360D01*
X54968115Y-122855951D01*
X54916905Y-122866836D01*
X54865526Y-122882422D01*
X54824631Y-122886449D01*
X54784076Y-122895070D01*
X54737103Y-122895070D01*
X54690000Y-122899709D01*
X54642897Y-122895070D01*
X54595924Y-122895070D01*
X54555368Y-122886449D01*
X54514473Y-122882422D01*
X54463091Y-122866835D01*
X54411885Y-122855951D01*
X54379115Y-122841361D01*
X54345695Y-122831223D01*
X54292585Y-122802835D01*
X54240000Y-122779423D01*
X54215552Y-122761660D01*
X54190150Y-122748083D01*
X54138332Y-122705556D01*
X54087782Y-122668830D01*
X54071368Y-122650600D01*
X54053809Y-122636190D01*
X54006618Y-122578688D01*
X53961885Y-122529007D01*
X53952487Y-122512730D01*
X53941916Y-122499849D01*
X53902810Y-122426686D01*
X53867809Y-122366063D01*
X53863782Y-122353670D01*
X53858776Y-122344304D01*
X53831168Y-122253294D01*
X53809667Y-122187121D01*
X53808910Y-122179921D01*
X53807577Y-122175526D01*
X53794606Y-122043831D01*
X53790000Y-122000000D01*
X53794606Y-121956172D01*
X53807577Y-121824473D01*
X53808910Y-121820077D01*
X53809667Y-121812879D01*
X53831163Y-121746719D01*
X53858776Y-121655695D01*
X53863783Y-121646327D01*
X53867809Y-121633937D01*
X53902802Y-121573326D01*
X53941916Y-121500150D01*
X53952489Y-121487265D01*
X53961885Y-121470993D01*
X54006609Y-121421321D01*
X54053809Y-121363809D01*
X54071371Y-121349395D01*
X54087782Y-121331170D01*
X54138321Y-121294450D01*
X54190150Y-121251916D01*
X54215557Y-121238335D01*
X54240000Y-121220577D01*
X54292573Y-121197169D01*
X54345695Y-121168776D01*
X54379122Y-121158635D01*
X54411885Y-121144049D01*
X54463080Y-121133166D01*
X54514473Y-121117577D01*
X54555377Y-121113548D01*
X54595924Y-121104930D01*
X54642887Y-121104930D01*
X54690000Y-121100290D01*
X54737113Y-121104930D01*
G37*
G36*
X77597113Y-121104930D02*
G01*
X77644076Y-121104930D01*
X77684622Y-121113548D01*
X77725526Y-121117577D01*
X77776916Y-121133166D01*
X77828115Y-121144049D01*
X77860879Y-121158636D01*
X77894304Y-121168776D01*
X77947420Y-121197166D01*
X78000000Y-121220577D01*
X78024445Y-121238337D01*
X78049849Y-121251916D01*
X78101669Y-121294444D01*
X78152218Y-121331170D01*
X78168631Y-121349398D01*
X78186190Y-121363809D01*
X78233379Y-121421308D01*
X78278115Y-121470993D01*
X78287512Y-121487269D01*
X78298083Y-121500150D01*
X78337183Y-121573302D01*
X78372191Y-121633937D01*
X78376218Y-121646331D01*
X78381223Y-121655695D01*
X78408821Y-121746672D01*
X78430333Y-121812879D01*
X78431090Y-121820082D01*
X78432422Y-121824473D01*
X78445377Y-121956021D01*
X78450000Y-122000000D01*
X78445377Y-122043982D01*
X78432422Y-122175526D01*
X78431090Y-122179916D01*
X78430333Y-122187121D01*
X78408816Y-122253341D01*
X78381223Y-122344304D01*
X78376219Y-122353665D01*
X78372191Y-122366063D01*
X78337176Y-122426709D01*
X78298083Y-122499849D01*
X78287514Y-122512726D01*
X78278115Y-122529007D01*
X78233369Y-122578701D01*
X78186190Y-122636190D01*
X78168634Y-122650597D01*
X78152218Y-122668830D01*
X78101659Y-122705563D01*
X78049849Y-122748083D01*
X78024450Y-122761658D01*
X78000000Y-122779423D01*
X77947408Y-122802838D01*
X77894304Y-122831223D01*
X77860886Y-122841360D01*
X77828115Y-122855951D01*
X77776905Y-122866836D01*
X77725526Y-122882422D01*
X77684631Y-122886449D01*
X77644076Y-122895070D01*
X77597103Y-122895070D01*
X77550000Y-122899709D01*
X77502897Y-122895070D01*
X77455924Y-122895070D01*
X77415368Y-122886449D01*
X77374473Y-122882422D01*
X77323091Y-122866835D01*
X77271885Y-122855951D01*
X77239115Y-122841361D01*
X77205695Y-122831223D01*
X77152585Y-122802835D01*
X77100000Y-122779423D01*
X77075552Y-122761660D01*
X77050150Y-122748083D01*
X76998332Y-122705556D01*
X76947782Y-122668830D01*
X76931368Y-122650600D01*
X76913809Y-122636190D01*
X76866618Y-122578688D01*
X76821885Y-122529007D01*
X76812487Y-122512730D01*
X76801916Y-122499849D01*
X76762810Y-122426686D01*
X76727809Y-122366063D01*
X76723782Y-122353670D01*
X76718776Y-122344304D01*
X76691168Y-122253294D01*
X76669667Y-122187121D01*
X76668910Y-122179921D01*
X76667577Y-122175526D01*
X76654606Y-122043831D01*
X76650000Y-122000000D01*
X76654606Y-121956172D01*
X76667577Y-121824473D01*
X76668910Y-121820077D01*
X76669667Y-121812879D01*
X76691163Y-121746719D01*
X76718776Y-121655695D01*
X76723783Y-121646327D01*
X76727809Y-121633937D01*
X76762802Y-121573326D01*
X76801916Y-121500150D01*
X76812489Y-121487265D01*
X76821885Y-121470993D01*
X76866609Y-121421321D01*
X76913809Y-121363809D01*
X76931371Y-121349395D01*
X76947782Y-121331170D01*
X76998321Y-121294450D01*
X77050150Y-121251916D01*
X77075557Y-121238335D01*
X77100000Y-121220577D01*
X77152573Y-121197169D01*
X77205695Y-121168776D01*
X77239122Y-121158635D01*
X77271885Y-121144049D01*
X77323080Y-121133166D01*
X77374473Y-121117577D01*
X77415377Y-121113548D01*
X77455924Y-121104930D01*
X77502887Y-121104930D01*
X77550000Y-121100290D01*
X77597113Y-121104930D01*
G37*
G36*
X80137113Y-121104930D02*
G01*
X80184076Y-121104930D01*
X80224622Y-121113548D01*
X80265526Y-121117577D01*
X80316916Y-121133166D01*
X80368115Y-121144049D01*
X80400879Y-121158636D01*
X80434304Y-121168776D01*
X80487420Y-121197166D01*
X80540000Y-121220577D01*
X80564445Y-121238337D01*
X80589849Y-121251916D01*
X80641669Y-121294444D01*
X80692218Y-121331170D01*
X80708631Y-121349398D01*
X80726190Y-121363809D01*
X80773379Y-121421308D01*
X80818115Y-121470993D01*
X80827512Y-121487269D01*
X80838083Y-121500150D01*
X80877183Y-121573302D01*
X80912191Y-121633937D01*
X80916218Y-121646331D01*
X80921223Y-121655695D01*
X80948821Y-121746672D01*
X80970333Y-121812879D01*
X80971090Y-121820082D01*
X80972422Y-121824473D01*
X80985377Y-121956021D01*
X80990000Y-122000000D01*
X80985377Y-122043982D01*
X80972422Y-122175526D01*
X80971090Y-122179916D01*
X80970333Y-122187121D01*
X80948816Y-122253341D01*
X80921223Y-122344304D01*
X80916219Y-122353665D01*
X80912191Y-122366063D01*
X80877176Y-122426709D01*
X80838083Y-122499849D01*
X80827514Y-122512726D01*
X80818115Y-122529007D01*
X80773369Y-122578701D01*
X80726190Y-122636190D01*
X80708634Y-122650597D01*
X80692218Y-122668830D01*
X80641659Y-122705563D01*
X80589849Y-122748083D01*
X80564450Y-122761658D01*
X80540000Y-122779423D01*
X80487408Y-122802838D01*
X80434304Y-122831223D01*
X80400886Y-122841360D01*
X80368115Y-122855951D01*
X80316905Y-122866836D01*
X80265526Y-122882422D01*
X80224631Y-122886449D01*
X80184076Y-122895070D01*
X80137103Y-122895070D01*
X80090000Y-122899709D01*
X80042897Y-122895070D01*
X79995924Y-122895070D01*
X79955368Y-122886449D01*
X79914473Y-122882422D01*
X79863091Y-122866835D01*
X79811885Y-122855951D01*
X79779115Y-122841361D01*
X79745695Y-122831223D01*
X79692585Y-122802835D01*
X79640000Y-122779423D01*
X79615552Y-122761660D01*
X79590150Y-122748083D01*
X79538332Y-122705556D01*
X79487782Y-122668830D01*
X79471368Y-122650600D01*
X79453809Y-122636190D01*
X79406618Y-122578688D01*
X79361885Y-122529007D01*
X79352487Y-122512730D01*
X79341916Y-122499849D01*
X79302810Y-122426686D01*
X79267809Y-122366063D01*
X79263782Y-122353670D01*
X79258776Y-122344304D01*
X79231168Y-122253294D01*
X79209667Y-122187121D01*
X79208910Y-122179921D01*
X79207577Y-122175526D01*
X79194606Y-122043831D01*
X79190000Y-122000000D01*
X79194606Y-121956172D01*
X79207577Y-121824473D01*
X79208910Y-121820077D01*
X79209667Y-121812879D01*
X79231163Y-121746719D01*
X79258776Y-121655695D01*
X79263783Y-121646327D01*
X79267809Y-121633937D01*
X79302802Y-121573326D01*
X79341916Y-121500150D01*
X79352489Y-121487265D01*
X79361885Y-121470993D01*
X79406609Y-121421321D01*
X79453809Y-121363809D01*
X79471371Y-121349395D01*
X79487782Y-121331170D01*
X79538321Y-121294450D01*
X79590150Y-121251916D01*
X79615557Y-121238335D01*
X79640000Y-121220577D01*
X79692573Y-121197169D01*
X79745695Y-121168776D01*
X79779122Y-121158635D01*
X79811885Y-121144049D01*
X79863080Y-121133166D01*
X79914473Y-121117577D01*
X79955377Y-121113548D01*
X79995924Y-121104930D01*
X80042887Y-121104930D01*
X80090000Y-121100290D01*
X80137113Y-121104930D01*
G37*
G36*
X123317113Y-121104930D02*
G01*
X123364076Y-121104930D01*
X123404622Y-121113548D01*
X123445526Y-121117577D01*
X123496916Y-121133166D01*
X123548115Y-121144049D01*
X123580879Y-121158636D01*
X123614304Y-121168776D01*
X123667420Y-121197166D01*
X123720000Y-121220577D01*
X123744445Y-121238337D01*
X123769849Y-121251916D01*
X123821669Y-121294444D01*
X123872218Y-121331170D01*
X123888631Y-121349398D01*
X123906190Y-121363809D01*
X123953379Y-121421308D01*
X123998115Y-121470993D01*
X124007512Y-121487269D01*
X124018083Y-121500150D01*
X124057183Y-121573302D01*
X124092191Y-121633937D01*
X124096218Y-121646331D01*
X124101223Y-121655695D01*
X124128821Y-121746672D01*
X124150333Y-121812879D01*
X124151090Y-121820082D01*
X124152422Y-121824473D01*
X124165377Y-121956021D01*
X124170000Y-122000000D01*
X124165377Y-122043982D01*
X124152422Y-122175526D01*
X124151090Y-122179916D01*
X124150333Y-122187121D01*
X124128816Y-122253341D01*
X124101223Y-122344304D01*
X124096219Y-122353665D01*
X124092191Y-122366063D01*
X124057176Y-122426709D01*
X124018083Y-122499849D01*
X124007514Y-122512726D01*
X123998115Y-122529007D01*
X123953369Y-122578701D01*
X123906190Y-122636190D01*
X123888634Y-122650597D01*
X123872218Y-122668830D01*
X123821659Y-122705563D01*
X123769849Y-122748083D01*
X123744450Y-122761658D01*
X123720000Y-122779423D01*
X123667408Y-122802838D01*
X123614304Y-122831223D01*
X123580886Y-122841360D01*
X123548115Y-122855951D01*
X123496905Y-122866836D01*
X123445526Y-122882422D01*
X123404631Y-122886449D01*
X123364076Y-122895070D01*
X123317103Y-122895070D01*
X123270000Y-122899709D01*
X123222897Y-122895070D01*
X123175924Y-122895070D01*
X123135368Y-122886449D01*
X123094473Y-122882422D01*
X123043091Y-122866835D01*
X122991885Y-122855951D01*
X122959115Y-122841361D01*
X122925695Y-122831223D01*
X122872585Y-122802835D01*
X122820000Y-122779423D01*
X122795552Y-122761660D01*
X122770150Y-122748083D01*
X122718332Y-122705556D01*
X122667782Y-122668830D01*
X122651368Y-122650600D01*
X122633809Y-122636190D01*
X122586618Y-122578688D01*
X122541885Y-122529007D01*
X122532487Y-122512730D01*
X122521916Y-122499849D01*
X122482810Y-122426686D01*
X122447809Y-122366063D01*
X122443782Y-122353670D01*
X122438776Y-122344304D01*
X122411168Y-122253294D01*
X122389667Y-122187121D01*
X122388910Y-122179921D01*
X122387577Y-122175526D01*
X122374606Y-122043831D01*
X122370000Y-122000000D01*
X122374606Y-121956172D01*
X122387577Y-121824473D01*
X122388910Y-121820077D01*
X122389667Y-121812879D01*
X122411163Y-121746719D01*
X122438776Y-121655695D01*
X122443783Y-121646327D01*
X122447809Y-121633937D01*
X122482802Y-121573326D01*
X122521916Y-121500150D01*
X122532489Y-121487265D01*
X122541885Y-121470993D01*
X122586609Y-121421321D01*
X122633809Y-121363809D01*
X122651371Y-121349395D01*
X122667782Y-121331170D01*
X122718321Y-121294450D01*
X122770150Y-121251916D01*
X122795557Y-121238335D01*
X122820000Y-121220577D01*
X122872573Y-121197169D01*
X122925695Y-121168776D01*
X122959122Y-121158635D01*
X122991885Y-121144049D01*
X123043080Y-121133166D01*
X123094473Y-121117577D01*
X123135377Y-121113548D01*
X123175924Y-121104930D01*
X123222887Y-121104930D01*
X123270000Y-121100290D01*
X123317113Y-121104930D01*
G37*
G36*
X125857113Y-121104930D02*
G01*
X125904076Y-121104930D01*
X125944622Y-121113548D01*
X125985526Y-121117577D01*
X126036916Y-121133166D01*
X126088115Y-121144049D01*
X126120879Y-121158636D01*
X126154304Y-121168776D01*
X126207420Y-121197166D01*
X126260000Y-121220577D01*
X126284445Y-121238337D01*
X126309849Y-121251916D01*
X126361669Y-121294444D01*
X126412218Y-121331170D01*
X126428631Y-121349398D01*
X126446190Y-121363809D01*
X126493379Y-121421308D01*
X126538115Y-121470993D01*
X126547512Y-121487269D01*
X126558083Y-121500150D01*
X126597183Y-121573302D01*
X126632191Y-121633937D01*
X126636218Y-121646331D01*
X126641223Y-121655695D01*
X126668821Y-121746672D01*
X126690333Y-121812879D01*
X126691090Y-121820082D01*
X126692422Y-121824473D01*
X126705377Y-121956021D01*
X126710000Y-122000000D01*
X126705377Y-122043982D01*
X126692422Y-122175526D01*
X126691090Y-122179916D01*
X126690333Y-122187121D01*
X126668816Y-122253341D01*
X126641223Y-122344304D01*
X126636219Y-122353665D01*
X126632191Y-122366063D01*
X126597176Y-122426709D01*
X126558083Y-122499849D01*
X126547514Y-122512726D01*
X126538115Y-122529007D01*
X126493369Y-122578701D01*
X126446190Y-122636190D01*
X126428634Y-122650597D01*
X126412218Y-122668830D01*
X126361659Y-122705563D01*
X126309849Y-122748083D01*
X126284450Y-122761658D01*
X126260000Y-122779423D01*
X126207408Y-122802838D01*
X126154304Y-122831223D01*
X126120886Y-122841360D01*
X126088115Y-122855951D01*
X126036905Y-122866836D01*
X125985526Y-122882422D01*
X125944631Y-122886449D01*
X125904076Y-122895070D01*
X125857103Y-122895070D01*
X125810000Y-122899709D01*
X125762897Y-122895070D01*
X125715924Y-122895070D01*
X125675368Y-122886449D01*
X125634473Y-122882422D01*
X125583091Y-122866835D01*
X125531885Y-122855951D01*
X125499115Y-122841361D01*
X125465695Y-122831223D01*
X125412585Y-122802835D01*
X125360000Y-122779423D01*
X125335552Y-122761660D01*
X125310150Y-122748083D01*
X125258332Y-122705556D01*
X125207782Y-122668830D01*
X125191368Y-122650600D01*
X125173809Y-122636190D01*
X125126618Y-122578688D01*
X125081885Y-122529007D01*
X125072487Y-122512730D01*
X125061916Y-122499849D01*
X125022810Y-122426686D01*
X124987809Y-122366063D01*
X124983782Y-122353670D01*
X124978776Y-122344304D01*
X124951168Y-122253294D01*
X124929667Y-122187121D01*
X124928910Y-122179921D01*
X124927577Y-122175526D01*
X124914606Y-122043831D01*
X124910000Y-122000000D01*
X124914606Y-121956172D01*
X124927577Y-121824473D01*
X124928910Y-121820077D01*
X124929667Y-121812879D01*
X124951163Y-121746719D01*
X124978776Y-121655695D01*
X124983783Y-121646327D01*
X124987809Y-121633937D01*
X125022802Y-121573326D01*
X125061916Y-121500150D01*
X125072489Y-121487265D01*
X125081885Y-121470993D01*
X125126609Y-121421321D01*
X125173809Y-121363809D01*
X125191371Y-121349395D01*
X125207782Y-121331170D01*
X125258321Y-121294450D01*
X125310150Y-121251916D01*
X125335557Y-121238335D01*
X125360000Y-121220577D01*
X125412573Y-121197169D01*
X125465695Y-121168776D01*
X125499122Y-121158635D01*
X125531885Y-121144049D01*
X125583080Y-121133166D01*
X125634473Y-121117577D01*
X125675377Y-121113548D01*
X125715924Y-121104930D01*
X125762887Y-121104930D01*
X125810000Y-121100290D01*
X125857113Y-121104930D01*
G37*
G36*
X148717113Y-121104930D02*
G01*
X148764076Y-121104930D01*
X148804622Y-121113548D01*
X148845526Y-121117577D01*
X148896916Y-121133166D01*
X148948115Y-121144049D01*
X148980879Y-121158636D01*
X149014304Y-121168776D01*
X149067420Y-121197166D01*
X149120000Y-121220577D01*
X149144445Y-121238337D01*
X149169849Y-121251916D01*
X149221669Y-121294444D01*
X149272218Y-121331170D01*
X149288631Y-121349398D01*
X149306190Y-121363809D01*
X149353379Y-121421308D01*
X149398115Y-121470993D01*
X149407512Y-121487269D01*
X149418083Y-121500150D01*
X149457183Y-121573302D01*
X149492191Y-121633937D01*
X149496218Y-121646331D01*
X149501223Y-121655695D01*
X149528821Y-121746672D01*
X149550333Y-121812879D01*
X149551090Y-121820082D01*
X149552422Y-121824473D01*
X149565377Y-121956021D01*
X149570000Y-122000000D01*
X149565377Y-122043982D01*
X149552422Y-122175526D01*
X149551090Y-122179916D01*
X149550333Y-122187121D01*
X149528816Y-122253341D01*
X149501223Y-122344304D01*
X149496219Y-122353665D01*
X149492191Y-122366063D01*
X149457176Y-122426709D01*
X149418083Y-122499849D01*
X149407514Y-122512726D01*
X149398115Y-122529007D01*
X149353369Y-122578701D01*
X149306190Y-122636190D01*
X149288634Y-122650597D01*
X149272218Y-122668830D01*
X149221659Y-122705563D01*
X149169849Y-122748083D01*
X149144450Y-122761658D01*
X149120000Y-122779423D01*
X149067408Y-122802838D01*
X149014304Y-122831223D01*
X148980886Y-122841360D01*
X148948115Y-122855951D01*
X148896905Y-122866836D01*
X148845526Y-122882422D01*
X148804631Y-122886449D01*
X148764076Y-122895070D01*
X148717103Y-122895070D01*
X148670000Y-122899709D01*
X148622897Y-122895070D01*
X148575924Y-122895070D01*
X148535368Y-122886449D01*
X148494473Y-122882422D01*
X148443091Y-122866835D01*
X148391885Y-122855951D01*
X148359115Y-122841361D01*
X148325695Y-122831223D01*
X148272585Y-122802835D01*
X148220000Y-122779423D01*
X148195552Y-122761660D01*
X148170150Y-122748083D01*
X148118332Y-122705556D01*
X148067782Y-122668830D01*
X148051368Y-122650600D01*
X148033809Y-122636190D01*
X147986618Y-122578688D01*
X147941885Y-122529007D01*
X147932487Y-122512730D01*
X147921916Y-122499849D01*
X147882810Y-122426686D01*
X147847809Y-122366063D01*
X147843782Y-122353670D01*
X147838776Y-122344304D01*
X147811168Y-122253294D01*
X147789667Y-122187121D01*
X147788910Y-122179921D01*
X147787577Y-122175526D01*
X147774606Y-122043831D01*
X147770000Y-122000000D01*
X147774606Y-121956172D01*
X147787577Y-121824473D01*
X147788910Y-121820077D01*
X147789667Y-121812879D01*
X147811163Y-121746719D01*
X147838776Y-121655695D01*
X147843783Y-121646327D01*
X147847809Y-121633937D01*
X147882802Y-121573326D01*
X147921916Y-121500150D01*
X147932489Y-121487265D01*
X147941885Y-121470993D01*
X147986609Y-121421321D01*
X148033809Y-121363809D01*
X148051371Y-121349395D01*
X148067782Y-121331170D01*
X148118321Y-121294450D01*
X148170150Y-121251916D01*
X148195557Y-121238335D01*
X148220000Y-121220577D01*
X148272573Y-121197169D01*
X148325695Y-121168776D01*
X148359122Y-121158635D01*
X148391885Y-121144049D01*
X148443080Y-121133166D01*
X148494473Y-121117577D01*
X148535377Y-121113548D01*
X148575924Y-121104930D01*
X148622887Y-121104930D01*
X148670000Y-121100290D01*
X148717113Y-121104930D01*
G37*
G36*
X151257113Y-121104930D02*
G01*
X151304076Y-121104930D01*
X151344622Y-121113548D01*
X151385526Y-121117577D01*
X151436916Y-121133166D01*
X151488115Y-121144049D01*
X151520879Y-121158636D01*
X151554304Y-121168776D01*
X151607420Y-121197166D01*
X151660000Y-121220577D01*
X151684445Y-121238337D01*
X151709849Y-121251916D01*
X151761669Y-121294444D01*
X151812218Y-121331170D01*
X151828631Y-121349398D01*
X151846190Y-121363809D01*
X151893379Y-121421308D01*
X151938115Y-121470993D01*
X151947512Y-121487269D01*
X151958083Y-121500150D01*
X151997183Y-121573302D01*
X152032191Y-121633937D01*
X152036218Y-121646331D01*
X152041223Y-121655695D01*
X152068821Y-121746672D01*
X152090333Y-121812879D01*
X152091090Y-121820082D01*
X152092422Y-121824473D01*
X152105377Y-121956021D01*
X152110000Y-122000000D01*
X152105377Y-122043982D01*
X152092422Y-122175526D01*
X152091090Y-122179916D01*
X152090333Y-122187121D01*
X152068816Y-122253341D01*
X152041223Y-122344304D01*
X152036219Y-122353665D01*
X152032191Y-122366063D01*
X151997176Y-122426709D01*
X151958083Y-122499849D01*
X151947514Y-122512726D01*
X151938115Y-122529007D01*
X151893369Y-122578701D01*
X151846190Y-122636190D01*
X151828634Y-122650597D01*
X151812218Y-122668830D01*
X151761659Y-122705563D01*
X151709849Y-122748083D01*
X151684450Y-122761658D01*
X151660000Y-122779423D01*
X151607408Y-122802838D01*
X151554304Y-122831223D01*
X151520886Y-122841360D01*
X151488115Y-122855951D01*
X151436905Y-122866836D01*
X151385526Y-122882422D01*
X151344631Y-122886449D01*
X151304076Y-122895070D01*
X151257103Y-122895070D01*
X151210000Y-122899709D01*
X151162897Y-122895070D01*
X151115924Y-122895070D01*
X151075368Y-122886449D01*
X151034473Y-122882422D01*
X150983091Y-122866835D01*
X150931885Y-122855951D01*
X150899115Y-122841361D01*
X150865695Y-122831223D01*
X150812585Y-122802835D01*
X150760000Y-122779423D01*
X150735552Y-122761660D01*
X150710150Y-122748083D01*
X150658332Y-122705556D01*
X150607782Y-122668830D01*
X150591368Y-122650600D01*
X150573809Y-122636190D01*
X150526618Y-122578688D01*
X150481885Y-122529007D01*
X150472487Y-122512730D01*
X150461916Y-122499849D01*
X150422810Y-122426686D01*
X150387809Y-122366063D01*
X150383782Y-122353670D01*
X150378776Y-122344304D01*
X150351168Y-122253294D01*
X150329667Y-122187121D01*
X150328910Y-122179921D01*
X150327577Y-122175526D01*
X150314606Y-122043831D01*
X150310000Y-122000000D01*
X150314606Y-121956172D01*
X150327577Y-121824473D01*
X150328910Y-121820077D01*
X150329667Y-121812879D01*
X150351163Y-121746719D01*
X150378776Y-121655695D01*
X150383783Y-121646327D01*
X150387809Y-121633937D01*
X150422802Y-121573326D01*
X150461916Y-121500150D01*
X150472489Y-121487265D01*
X150481885Y-121470993D01*
X150526609Y-121421321D01*
X150573809Y-121363809D01*
X150591371Y-121349395D01*
X150607782Y-121331170D01*
X150658321Y-121294450D01*
X150710150Y-121251916D01*
X150735557Y-121238335D01*
X150760000Y-121220577D01*
X150812573Y-121197169D01*
X150865695Y-121168776D01*
X150899122Y-121158635D01*
X150931885Y-121144049D01*
X150983080Y-121133166D01*
X151034473Y-121117577D01*
X151075377Y-121113548D01*
X151115924Y-121104930D01*
X151162887Y-121104930D01*
X151210000Y-121100290D01*
X151257113Y-121104930D01*
G37*
G36*
X58547113Y-118564930D02*
G01*
X58594076Y-118564930D01*
X58634622Y-118573548D01*
X58675526Y-118577577D01*
X58726916Y-118593166D01*
X58778115Y-118604049D01*
X58810879Y-118618636D01*
X58844304Y-118628776D01*
X58897420Y-118657166D01*
X58950000Y-118680577D01*
X58974445Y-118698337D01*
X58999849Y-118711916D01*
X59051669Y-118754444D01*
X59102218Y-118791170D01*
X59118631Y-118809398D01*
X59136190Y-118823809D01*
X59183379Y-118881308D01*
X59228115Y-118930993D01*
X59237512Y-118947269D01*
X59248083Y-118960150D01*
X59287183Y-119033302D01*
X59322191Y-119093937D01*
X59326218Y-119106331D01*
X59331223Y-119115695D01*
X59358821Y-119206672D01*
X59380333Y-119272879D01*
X59381090Y-119280082D01*
X59382422Y-119284473D01*
X59395377Y-119416021D01*
X59400000Y-119460000D01*
X59395377Y-119503982D01*
X59382422Y-119635526D01*
X59381090Y-119639916D01*
X59380333Y-119647121D01*
X59358816Y-119713341D01*
X59331223Y-119804304D01*
X59326219Y-119813665D01*
X59322191Y-119826063D01*
X59287176Y-119886709D01*
X59248083Y-119959849D01*
X59237514Y-119972726D01*
X59228115Y-119989007D01*
X59183369Y-120038701D01*
X59136190Y-120096190D01*
X59118634Y-120110597D01*
X59102218Y-120128830D01*
X59051659Y-120165563D01*
X58999849Y-120208083D01*
X58974450Y-120221658D01*
X58950000Y-120239423D01*
X58897408Y-120262838D01*
X58844304Y-120291223D01*
X58810886Y-120301360D01*
X58778115Y-120315951D01*
X58726905Y-120326836D01*
X58675526Y-120342422D01*
X58634631Y-120346449D01*
X58594076Y-120355070D01*
X58547103Y-120355070D01*
X58500000Y-120359709D01*
X58452897Y-120355070D01*
X58405924Y-120355070D01*
X58365368Y-120346449D01*
X58324473Y-120342422D01*
X58273091Y-120326835D01*
X58221885Y-120315951D01*
X58189115Y-120301361D01*
X58155695Y-120291223D01*
X58102585Y-120262835D01*
X58050000Y-120239423D01*
X58025552Y-120221660D01*
X58000150Y-120208083D01*
X57948332Y-120165556D01*
X57897782Y-120128830D01*
X57881368Y-120110600D01*
X57863809Y-120096190D01*
X57816618Y-120038688D01*
X57771885Y-119989007D01*
X57762487Y-119972730D01*
X57751916Y-119959849D01*
X57712810Y-119886686D01*
X57677809Y-119826063D01*
X57673782Y-119813670D01*
X57668776Y-119804304D01*
X57641168Y-119713294D01*
X57619667Y-119647121D01*
X57618910Y-119639921D01*
X57617577Y-119635526D01*
X57604606Y-119503831D01*
X57600000Y-119460000D01*
X57604606Y-119416172D01*
X57617577Y-119284473D01*
X57618910Y-119280077D01*
X57619667Y-119272879D01*
X57641163Y-119206719D01*
X57668776Y-119115695D01*
X57673783Y-119106327D01*
X57677809Y-119093937D01*
X57712802Y-119033326D01*
X57751916Y-118960150D01*
X57762489Y-118947265D01*
X57771885Y-118930993D01*
X57816609Y-118881321D01*
X57863809Y-118823809D01*
X57881371Y-118809395D01*
X57897782Y-118791170D01*
X57948321Y-118754450D01*
X58000150Y-118711916D01*
X58025557Y-118698335D01*
X58050000Y-118680577D01*
X58102573Y-118657169D01*
X58155695Y-118628776D01*
X58189122Y-118618635D01*
X58221885Y-118604049D01*
X58273080Y-118593166D01*
X58324473Y-118577577D01*
X58365377Y-118573548D01*
X58405924Y-118564930D01*
X58452887Y-118564930D01*
X58500000Y-118560290D01*
X58547113Y-118564930D01*
G37*
G36*
X83947113Y-118564930D02*
G01*
X83994076Y-118564930D01*
X84034622Y-118573548D01*
X84075526Y-118577577D01*
X84126916Y-118593166D01*
X84178115Y-118604049D01*
X84210879Y-118618636D01*
X84244304Y-118628776D01*
X84297420Y-118657166D01*
X84350000Y-118680577D01*
X84374445Y-118698337D01*
X84399849Y-118711916D01*
X84451669Y-118754444D01*
X84502218Y-118791170D01*
X84518631Y-118809398D01*
X84536190Y-118823809D01*
X84583379Y-118881308D01*
X84628115Y-118930993D01*
X84637512Y-118947269D01*
X84648083Y-118960150D01*
X84687183Y-119033302D01*
X84722191Y-119093937D01*
X84726218Y-119106331D01*
X84731223Y-119115695D01*
X84758821Y-119206672D01*
X84780333Y-119272879D01*
X84781090Y-119280082D01*
X84782422Y-119284473D01*
X84795377Y-119416021D01*
X84800000Y-119460000D01*
X84795377Y-119503982D01*
X84782422Y-119635526D01*
X84781090Y-119639916D01*
X84780333Y-119647121D01*
X84758816Y-119713341D01*
X84731223Y-119804304D01*
X84726219Y-119813665D01*
X84722191Y-119826063D01*
X84687176Y-119886709D01*
X84648083Y-119959849D01*
X84637514Y-119972726D01*
X84628115Y-119989007D01*
X84583369Y-120038701D01*
X84536190Y-120096190D01*
X84518634Y-120110597D01*
X84502218Y-120128830D01*
X84451659Y-120165563D01*
X84399849Y-120208083D01*
X84374450Y-120221658D01*
X84350000Y-120239423D01*
X84297408Y-120262838D01*
X84244304Y-120291223D01*
X84210886Y-120301360D01*
X84178115Y-120315951D01*
X84126905Y-120326836D01*
X84075526Y-120342422D01*
X84034631Y-120346449D01*
X83994076Y-120355070D01*
X83947103Y-120355070D01*
X83900000Y-120359709D01*
X83852897Y-120355070D01*
X83805924Y-120355070D01*
X83765368Y-120346449D01*
X83724473Y-120342422D01*
X83673091Y-120326835D01*
X83621885Y-120315951D01*
X83589115Y-120301361D01*
X83555695Y-120291223D01*
X83502585Y-120262835D01*
X83450000Y-120239423D01*
X83425552Y-120221660D01*
X83400150Y-120208083D01*
X83348332Y-120165556D01*
X83297782Y-120128830D01*
X83281368Y-120110600D01*
X83263809Y-120096190D01*
X83216618Y-120038688D01*
X83171885Y-119989007D01*
X83162487Y-119972730D01*
X83151916Y-119959849D01*
X83112810Y-119886686D01*
X83077809Y-119826063D01*
X83073782Y-119813670D01*
X83068776Y-119804304D01*
X83041168Y-119713294D01*
X83019667Y-119647121D01*
X83018910Y-119639921D01*
X83017577Y-119635526D01*
X83004606Y-119503831D01*
X83000000Y-119460000D01*
X83004606Y-119416172D01*
X83017577Y-119284473D01*
X83018910Y-119280077D01*
X83019667Y-119272879D01*
X83041163Y-119206719D01*
X83068776Y-119115695D01*
X83073783Y-119106327D01*
X83077809Y-119093937D01*
X83112802Y-119033326D01*
X83151916Y-118960150D01*
X83162489Y-118947265D01*
X83171885Y-118930993D01*
X83216609Y-118881321D01*
X83263809Y-118823809D01*
X83281371Y-118809395D01*
X83297782Y-118791170D01*
X83348321Y-118754450D01*
X83400150Y-118711916D01*
X83425557Y-118698335D01*
X83450000Y-118680577D01*
X83502573Y-118657169D01*
X83555695Y-118628776D01*
X83589122Y-118618635D01*
X83621885Y-118604049D01*
X83673080Y-118593166D01*
X83724473Y-118577577D01*
X83765377Y-118573548D01*
X83805924Y-118564930D01*
X83852887Y-118564930D01*
X83900000Y-118560290D01*
X83947113Y-118564930D01*
G37*
G36*
X129667113Y-118564930D02*
G01*
X129714076Y-118564930D01*
X129754622Y-118573548D01*
X129795526Y-118577577D01*
X129846916Y-118593166D01*
X129898115Y-118604049D01*
X129930879Y-118618636D01*
X129964304Y-118628776D01*
X130017420Y-118657166D01*
X130070000Y-118680577D01*
X130094445Y-118698337D01*
X130119849Y-118711916D01*
X130171669Y-118754444D01*
X130222218Y-118791170D01*
X130238631Y-118809398D01*
X130256190Y-118823809D01*
X130303379Y-118881308D01*
X130348115Y-118930993D01*
X130357512Y-118947269D01*
X130368083Y-118960150D01*
X130407183Y-119033302D01*
X130442191Y-119093937D01*
X130446218Y-119106331D01*
X130451223Y-119115695D01*
X130478821Y-119206672D01*
X130500333Y-119272879D01*
X130501090Y-119280082D01*
X130502422Y-119284473D01*
X130515377Y-119416021D01*
X130520000Y-119460000D01*
X130515377Y-119503982D01*
X130502422Y-119635526D01*
X130501090Y-119639916D01*
X130500333Y-119647121D01*
X130478816Y-119713341D01*
X130451223Y-119804304D01*
X130446219Y-119813665D01*
X130442191Y-119826063D01*
X130407176Y-119886709D01*
X130368083Y-119959849D01*
X130357514Y-119972726D01*
X130348115Y-119989007D01*
X130303369Y-120038701D01*
X130256190Y-120096190D01*
X130238634Y-120110597D01*
X130222218Y-120128830D01*
X130171659Y-120165563D01*
X130119849Y-120208083D01*
X130094450Y-120221658D01*
X130070000Y-120239423D01*
X130017408Y-120262838D01*
X129964304Y-120291223D01*
X129930886Y-120301360D01*
X129898115Y-120315951D01*
X129846905Y-120326836D01*
X129795526Y-120342422D01*
X129754631Y-120346449D01*
X129714076Y-120355070D01*
X129667103Y-120355070D01*
X129620000Y-120359709D01*
X129572897Y-120355070D01*
X129525924Y-120355070D01*
X129485368Y-120346449D01*
X129444473Y-120342422D01*
X129393091Y-120326835D01*
X129341885Y-120315951D01*
X129309115Y-120301361D01*
X129275695Y-120291223D01*
X129222585Y-120262835D01*
X129170000Y-120239423D01*
X129145552Y-120221660D01*
X129120150Y-120208083D01*
X129068332Y-120165556D01*
X129017782Y-120128830D01*
X129001368Y-120110600D01*
X128983809Y-120096190D01*
X128936618Y-120038688D01*
X128891885Y-119989007D01*
X128882487Y-119972730D01*
X128871916Y-119959849D01*
X128832810Y-119886686D01*
X128797809Y-119826063D01*
X128793782Y-119813670D01*
X128788776Y-119804304D01*
X128761168Y-119713294D01*
X128739667Y-119647121D01*
X128738910Y-119639921D01*
X128737577Y-119635526D01*
X128724606Y-119503831D01*
X128720000Y-119460000D01*
X128724606Y-119416172D01*
X128737577Y-119284473D01*
X128738910Y-119280077D01*
X128739667Y-119272879D01*
X128761163Y-119206719D01*
X128788776Y-119115695D01*
X128793783Y-119106327D01*
X128797809Y-119093937D01*
X128832802Y-119033326D01*
X128871916Y-118960150D01*
X128882489Y-118947265D01*
X128891885Y-118930993D01*
X128936609Y-118881321D01*
X128983809Y-118823809D01*
X129001371Y-118809395D01*
X129017782Y-118791170D01*
X129068321Y-118754450D01*
X129120150Y-118711916D01*
X129145557Y-118698335D01*
X129170000Y-118680577D01*
X129222573Y-118657169D01*
X129275695Y-118628776D01*
X129309122Y-118618635D01*
X129341885Y-118604049D01*
X129393080Y-118593166D01*
X129444473Y-118577577D01*
X129485377Y-118573548D01*
X129525924Y-118564930D01*
X129572887Y-118564930D01*
X129620000Y-118560290D01*
X129667113Y-118564930D01*
G37*
G36*
X155067113Y-118564930D02*
G01*
X155114076Y-118564930D01*
X155154622Y-118573548D01*
X155195526Y-118577577D01*
X155246916Y-118593166D01*
X155298115Y-118604049D01*
X155330879Y-118618636D01*
X155364304Y-118628776D01*
X155417420Y-118657166D01*
X155470000Y-118680577D01*
X155494445Y-118698337D01*
X155519849Y-118711916D01*
X155571669Y-118754444D01*
X155622218Y-118791170D01*
X155638631Y-118809398D01*
X155656190Y-118823809D01*
X155703379Y-118881308D01*
X155748115Y-118930993D01*
X155757512Y-118947269D01*
X155768083Y-118960150D01*
X155807183Y-119033302D01*
X155842191Y-119093937D01*
X155846218Y-119106331D01*
X155851223Y-119115695D01*
X155878821Y-119206672D01*
X155900333Y-119272879D01*
X155901090Y-119280082D01*
X155902422Y-119284473D01*
X155915377Y-119416021D01*
X155920000Y-119460000D01*
X155915377Y-119503982D01*
X155902422Y-119635526D01*
X155901090Y-119639916D01*
X155900333Y-119647121D01*
X155878816Y-119713341D01*
X155851223Y-119804304D01*
X155846219Y-119813665D01*
X155842191Y-119826063D01*
X155807176Y-119886709D01*
X155768083Y-119959849D01*
X155757514Y-119972726D01*
X155748115Y-119989007D01*
X155703369Y-120038701D01*
X155656190Y-120096190D01*
X155638634Y-120110597D01*
X155622218Y-120128830D01*
X155571659Y-120165563D01*
X155519849Y-120208083D01*
X155494450Y-120221658D01*
X155470000Y-120239423D01*
X155417408Y-120262838D01*
X155364304Y-120291223D01*
X155330886Y-120301360D01*
X155298115Y-120315951D01*
X155246905Y-120326836D01*
X155195526Y-120342422D01*
X155154631Y-120346449D01*
X155114076Y-120355070D01*
X155067103Y-120355070D01*
X155020000Y-120359709D01*
X154972897Y-120355070D01*
X154925924Y-120355070D01*
X154885368Y-120346449D01*
X154844473Y-120342422D01*
X154793091Y-120326835D01*
X154741885Y-120315951D01*
X154709115Y-120301361D01*
X154675695Y-120291223D01*
X154622585Y-120262835D01*
X154570000Y-120239423D01*
X154545552Y-120221660D01*
X154520150Y-120208083D01*
X154468332Y-120165556D01*
X154417782Y-120128830D01*
X154401368Y-120110600D01*
X154383809Y-120096190D01*
X154336618Y-120038688D01*
X154291885Y-119989007D01*
X154282487Y-119972730D01*
X154271916Y-119959849D01*
X154232810Y-119886686D01*
X154197809Y-119826063D01*
X154193782Y-119813670D01*
X154188776Y-119804304D01*
X154161168Y-119713294D01*
X154139667Y-119647121D01*
X154138910Y-119639921D01*
X154137577Y-119635526D01*
X154124606Y-119503831D01*
X154120000Y-119460000D01*
X154124606Y-119416172D01*
X154137577Y-119284473D01*
X154138910Y-119280077D01*
X154139667Y-119272879D01*
X154161163Y-119206719D01*
X154188776Y-119115695D01*
X154193783Y-119106327D01*
X154197809Y-119093937D01*
X154232802Y-119033326D01*
X154271916Y-118960150D01*
X154282489Y-118947265D01*
X154291885Y-118930993D01*
X154336609Y-118881321D01*
X154383809Y-118823809D01*
X154401371Y-118809395D01*
X154417782Y-118791170D01*
X154468321Y-118754450D01*
X154520150Y-118711916D01*
X154545557Y-118698335D01*
X154570000Y-118680577D01*
X154622573Y-118657169D01*
X154675695Y-118628776D01*
X154709122Y-118618635D01*
X154741885Y-118604049D01*
X154793080Y-118593166D01*
X154844473Y-118577577D01*
X154885377Y-118573548D01*
X154925924Y-118564930D01*
X154972887Y-118564930D01*
X155020000Y-118560290D01*
X155067113Y-118564930D01*
G37*
G36*
X52197113Y-116024930D02*
G01*
X52244076Y-116024930D01*
X52284622Y-116033548D01*
X52325526Y-116037577D01*
X52376916Y-116053166D01*
X52428115Y-116064049D01*
X52460879Y-116078636D01*
X52494304Y-116088776D01*
X52547420Y-116117166D01*
X52600000Y-116140577D01*
X52624445Y-116158337D01*
X52649849Y-116171916D01*
X52701669Y-116214444D01*
X52752218Y-116251170D01*
X52768631Y-116269398D01*
X52786190Y-116283809D01*
X52833379Y-116341308D01*
X52878115Y-116390993D01*
X52887512Y-116407269D01*
X52898083Y-116420150D01*
X52937183Y-116493302D01*
X52972191Y-116553937D01*
X52976218Y-116566331D01*
X52981223Y-116575695D01*
X53008821Y-116666672D01*
X53030333Y-116732879D01*
X53031090Y-116740082D01*
X53032422Y-116744473D01*
X53045377Y-116876021D01*
X53050000Y-116920000D01*
X53045377Y-116963982D01*
X53032422Y-117095526D01*
X53031090Y-117099916D01*
X53030333Y-117107121D01*
X53008816Y-117173341D01*
X52981223Y-117264304D01*
X52976219Y-117273665D01*
X52972191Y-117286063D01*
X52937176Y-117346709D01*
X52898083Y-117419849D01*
X52887514Y-117432726D01*
X52878115Y-117449007D01*
X52833369Y-117498701D01*
X52786190Y-117556190D01*
X52768634Y-117570597D01*
X52752218Y-117588830D01*
X52701659Y-117625563D01*
X52649849Y-117668083D01*
X52624450Y-117681658D01*
X52600000Y-117699423D01*
X52547408Y-117722838D01*
X52494304Y-117751223D01*
X52460886Y-117761360D01*
X52428115Y-117775951D01*
X52376905Y-117786836D01*
X52325526Y-117802422D01*
X52284631Y-117806449D01*
X52244076Y-117815070D01*
X52197103Y-117815070D01*
X52150000Y-117819709D01*
X52102897Y-117815070D01*
X52055924Y-117815070D01*
X52015368Y-117806449D01*
X51974473Y-117802422D01*
X51923091Y-117786835D01*
X51871885Y-117775951D01*
X51839115Y-117761361D01*
X51805695Y-117751223D01*
X51752585Y-117722835D01*
X51700000Y-117699423D01*
X51675552Y-117681660D01*
X51650150Y-117668083D01*
X51598332Y-117625556D01*
X51547782Y-117588830D01*
X51531368Y-117570600D01*
X51513809Y-117556190D01*
X51466618Y-117498688D01*
X51421885Y-117449007D01*
X51412487Y-117432730D01*
X51401916Y-117419849D01*
X51362810Y-117346686D01*
X51327809Y-117286063D01*
X51323782Y-117273670D01*
X51318776Y-117264304D01*
X51291168Y-117173294D01*
X51269667Y-117107121D01*
X51268910Y-117099921D01*
X51267577Y-117095526D01*
X51254606Y-116963831D01*
X51250000Y-116920000D01*
X51254606Y-116876172D01*
X51267577Y-116744473D01*
X51268910Y-116740077D01*
X51269667Y-116732879D01*
X51291163Y-116666719D01*
X51318776Y-116575695D01*
X51323783Y-116566327D01*
X51327809Y-116553937D01*
X51362802Y-116493326D01*
X51401916Y-116420150D01*
X51412489Y-116407265D01*
X51421885Y-116390993D01*
X51466609Y-116341321D01*
X51513809Y-116283809D01*
X51531371Y-116269395D01*
X51547782Y-116251170D01*
X51598321Y-116214450D01*
X51650150Y-116171916D01*
X51675557Y-116158335D01*
X51700000Y-116140577D01*
X51752573Y-116117169D01*
X51805695Y-116088776D01*
X51839122Y-116078635D01*
X51871885Y-116064049D01*
X51923080Y-116053166D01*
X51974473Y-116037577D01*
X52015377Y-116033548D01*
X52055924Y-116024930D01*
X52102887Y-116024930D01*
X52150000Y-116020290D01*
X52197113Y-116024930D01*
G37*
G36*
X54737113Y-116024930D02*
G01*
X54784076Y-116024930D01*
X54824622Y-116033548D01*
X54865526Y-116037577D01*
X54916916Y-116053166D01*
X54968115Y-116064049D01*
X55000879Y-116078636D01*
X55034304Y-116088776D01*
X55087420Y-116117166D01*
X55140000Y-116140577D01*
X55164445Y-116158337D01*
X55189849Y-116171916D01*
X55241669Y-116214444D01*
X55292218Y-116251170D01*
X55308631Y-116269398D01*
X55326190Y-116283809D01*
X55373379Y-116341308D01*
X55418115Y-116390993D01*
X55427512Y-116407269D01*
X55438083Y-116420150D01*
X55477183Y-116493302D01*
X55512191Y-116553937D01*
X55516218Y-116566331D01*
X55521223Y-116575695D01*
X55548821Y-116666672D01*
X55570333Y-116732879D01*
X55571090Y-116740082D01*
X55572422Y-116744473D01*
X55585377Y-116876021D01*
X55590000Y-116920000D01*
X55585377Y-116963982D01*
X55572422Y-117095526D01*
X55571090Y-117099916D01*
X55570333Y-117107121D01*
X55548816Y-117173341D01*
X55521223Y-117264304D01*
X55516219Y-117273665D01*
X55512191Y-117286063D01*
X55477176Y-117346709D01*
X55438083Y-117419849D01*
X55427514Y-117432726D01*
X55418115Y-117449007D01*
X55373369Y-117498701D01*
X55326190Y-117556190D01*
X55308634Y-117570597D01*
X55292218Y-117588830D01*
X55241659Y-117625563D01*
X55189849Y-117668083D01*
X55164450Y-117681658D01*
X55140000Y-117699423D01*
X55087408Y-117722838D01*
X55034304Y-117751223D01*
X55000886Y-117761360D01*
X54968115Y-117775951D01*
X54916905Y-117786836D01*
X54865526Y-117802422D01*
X54824631Y-117806449D01*
X54784076Y-117815070D01*
X54737103Y-117815070D01*
X54690000Y-117819709D01*
X54642897Y-117815070D01*
X54595924Y-117815070D01*
X54555368Y-117806449D01*
X54514473Y-117802422D01*
X54463091Y-117786835D01*
X54411885Y-117775951D01*
X54379115Y-117761361D01*
X54345695Y-117751223D01*
X54292585Y-117722835D01*
X54240000Y-117699423D01*
X54215552Y-117681660D01*
X54190150Y-117668083D01*
X54138332Y-117625556D01*
X54087782Y-117588830D01*
X54071368Y-117570600D01*
X54053809Y-117556190D01*
X54006618Y-117498688D01*
X53961885Y-117449007D01*
X53952487Y-117432730D01*
X53941916Y-117419849D01*
X53902810Y-117346686D01*
X53867809Y-117286063D01*
X53863782Y-117273670D01*
X53858776Y-117264304D01*
X53831168Y-117173294D01*
X53809667Y-117107121D01*
X53808910Y-117099921D01*
X53807577Y-117095526D01*
X53794606Y-116963831D01*
X53790000Y-116920000D01*
X53794606Y-116876172D01*
X53807577Y-116744473D01*
X53808910Y-116740077D01*
X53809667Y-116732879D01*
X53831163Y-116666719D01*
X53858776Y-116575695D01*
X53863783Y-116566327D01*
X53867809Y-116553937D01*
X53902802Y-116493326D01*
X53941916Y-116420150D01*
X53952489Y-116407265D01*
X53961885Y-116390993D01*
X54006609Y-116341321D01*
X54053809Y-116283809D01*
X54071371Y-116269395D01*
X54087782Y-116251170D01*
X54138321Y-116214450D01*
X54190150Y-116171916D01*
X54215557Y-116158335D01*
X54240000Y-116140577D01*
X54292573Y-116117169D01*
X54345695Y-116088776D01*
X54379122Y-116078635D01*
X54411885Y-116064049D01*
X54463080Y-116053166D01*
X54514473Y-116037577D01*
X54555377Y-116033548D01*
X54595924Y-116024930D01*
X54642887Y-116024930D01*
X54690000Y-116020290D01*
X54737113Y-116024930D01*
G37*
G36*
X77597113Y-116024930D02*
G01*
X77644076Y-116024930D01*
X77684622Y-116033548D01*
X77725526Y-116037577D01*
X77776916Y-116053166D01*
X77828115Y-116064049D01*
X77860879Y-116078636D01*
X77894304Y-116088776D01*
X77947420Y-116117166D01*
X78000000Y-116140577D01*
X78024445Y-116158337D01*
X78049849Y-116171916D01*
X78101669Y-116214444D01*
X78152218Y-116251170D01*
X78168631Y-116269398D01*
X78186190Y-116283809D01*
X78233379Y-116341308D01*
X78278115Y-116390993D01*
X78287512Y-116407269D01*
X78298083Y-116420150D01*
X78337183Y-116493302D01*
X78372191Y-116553937D01*
X78376218Y-116566331D01*
X78381223Y-116575695D01*
X78408821Y-116666672D01*
X78430333Y-116732879D01*
X78431090Y-116740082D01*
X78432422Y-116744473D01*
X78445377Y-116876021D01*
X78450000Y-116920000D01*
X78445377Y-116963982D01*
X78432422Y-117095526D01*
X78431090Y-117099916D01*
X78430333Y-117107121D01*
X78408816Y-117173341D01*
X78381223Y-117264304D01*
X78376219Y-117273665D01*
X78372191Y-117286063D01*
X78337176Y-117346709D01*
X78298083Y-117419849D01*
X78287514Y-117432726D01*
X78278115Y-117449007D01*
X78233369Y-117498701D01*
X78186190Y-117556190D01*
X78168634Y-117570597D01*
X78152218Y-117588830D01*
X78101659Y-117625563D01*
X78049849Y-117668083D01*
X78024450Y-117681658D01*
X78000000Y-117699423D01*
X77947408Y-117722838D01*
X77894304Y-117751223D01*
X77860886Y-117761360D01*
X77828115Y-117775951D01*
X77776905Y-117786836D01*
X77725526Y-117802422D01*
X77684631Y-117806449D01*
X77644076Y-117815070D01*
X77597103Y-117815070D01*
X77550000Y-117819709D01*
X77502897Y-117815070D01*
X77455924Y-117815070D01*
X77415368Y-117806449D01*
X77374473Y-117802422D01*
X77323091Y-117786835D01*
X77271885Y-117775951D01*
X77239115Y-117761361D01*
X77205695Y-117751223D01*
X77152585Y-117722835D01*
X77100000Y-117699423D01*
X77075552Y-117681660D01*
X77050150Y-117668083D01*
X76998332Y-117625556D01*
X76947782Y-117588830D01*
X76931368Y-117570600D01*
X76913809Y-117556190D01*
X76866618Y-117498688D01*
X76821885Y-117449007D01*
X76812487Y-117432730D01*
X76801916Y-117419849D01*
X76762810Y-117346686D01*
X76727809Y-117286063D01*
X76723782Y-117273670D01*
X76718776Y-117264304D01*
X76691168Y-117173294D01*
X76669667Y-117107121D01*
X76668910Y-117099921D01*
X76667577Y-117095526D01*
X76654606Y-116963831D01*
X76650000Y-116920000D01*
X76654606Y-116876172D01*
X76667577Y-116744473D01*
X76668910Y-116740077D01*
X76669667Y-116732879D01*
X76691163Y-116666719D01*
X76718776Y-116575695D01*
X76723783Y-116566327D01*
X76727809Y-116553937D01*
X76762802Y-116493326D01*
X76801916Y-116420150D01*
X76812489Y-116407265D01*
X76821885Y-116390993D01*
X76866609Y-116341321D01*
X76913809Y-116283809D01*
X76931371Y-116269395D01*
X76947782Y-116251170D01*
X76998321Y-116214450D01*
X77050150Y-116171916D01*
X77075557Y-116158335D01*
X77100000Y-116140577D01*
X77152573Y-116117169D01*
X77205695Y-116088776D01*
X77239122Y-116078635D01*
X77271885Y-116064049D01*
X77323080Y-116053166D01*
X77374473Y-116037577D01*
X77415377Y-116033548D01*
X77455924Y-116024930D01*
X77502887Y-116024930D01*
X77550000Y-116020290D01*
X77597113Y-116024930D01*
G37*
G36*
X80137113Y-116024930D02*
G01*
X80184076Y-116024930D01*
X80224622Y-116033548D01*
X80265526Y-116037577D01*
X80316916Y-116053166D01*
X80368115Y-116064049D01*
X80400879Y-116078636D01*
X80434304Y-116088776D01*
X80487420Y-116117166D01*
X80540000Y-116140577D01*
X80564445Y-116158337D01*
X80589849Y-116171916D01*
X80641669Y-116214444D01*
X80692218Y-116251170D01*
X80708631Y-116269398D01*
X80726190Y-116283809D01*
X80773379Y-116341308D01*
X80818115Y-116390993D01*
X80827512Y-116407269D01*
X80838083Y-116420150D01*
X80877183Y-116493302D01*
X80912191Y-116553937D01*
X80916218Y-116566331D01*
X80921223Y-116575695D01*
X80948821Y-116666672D01*
X80970333Y-116732879D01*
X80971090Y-116740082D01*
X80972422Y-116744473D01*
X80985377Y-116876021D01*
X80990000Y-116920000D01*
X80985377Y-116963982D01*
X80972422Y-117095526D01*
X80971090Y-117099916D01*
X80970333Y-117107121D01*
X80948816Y-117173341D01*
X80921223Y-117264304D01*
X80916219Y-117273665D01*
X80912191Y-117286063D01*
X80877176Y-117346709D01*
X80838083Y-117419849D01*
X80827514Y-117432726D01*
X80818115Y-117449007D01*
X80773369Y-117498701D01*
X80726190Y-117556190D01*
X80708634Y-117570597D01*
X80692218Y-117588830D01*
X80641659Y-117625563D01*
X80589849Y-117668083D01*
X80564450Y-117681658D01*
X80540000Y-117699423D01*
X80487408Y-117722838D01*
X80434304Y-117751223D01*
X80400886Y-117761360D01*
X80368115Y-117775951D01*
X80316905Y-117786836D01*
X80265526Y-117802422D01*
X80224631Y-117806449D01*
X80184076Y-117815070D01*
X80137103Y-117815070D01*
X80090000Y-117819709D01*
X80042897Y-117815070D01*
X79995924Y-117815070D01*
X79955368Y-117806449D01*
X79914473Y-117802422D01*
X79863091Y-117786835D01*
X79811885Y-117775951D01*
X79779115Y-117761361D01*
X79745695Y-117751223D01*
X79692585Y-117722835D01*
X79640000Y-117699423D01*
X79615552Y-117681660D01*
X79590150Y-117668083D01*
X79538332Y-117625556D01*
X79487782Y-117588830D01*
X79471368Y-117570600D01*
X79453809Y-117556190D01*
X79406618Y-117498688D01*
X79361885Y-117449007D01*
X79352487Y-117432730D01*
X79341916Y-117419849D01*
X79302810Y-117346686D01*
X79267809Y-117286063D01*
X79263782Y-117273670D01*
X79258776Y-117264304D01*
X79231168Y-117173294D01*
X79209667Y-117107121D01*
X79208910Y-117099921D01*
X79207577Y-117095526D01*
X79194606Y-116963831D01*
X79190000Y-116920000D01*
X79194606Y-116876172D01*
X79207577Y-116744473D01*
X79208910Y-116740077D01*
X79209667Y-116732879D01*
X79231163Y-116666719D01*
X79258776Y-116575695D01*
X79263783Y-116566327D01*
X79267809Y-116553937D01*
X79302802Y-116493326D01*
X79341916Y-116420150D01*
X79352489Y-116407265D01*
X79361885Y-116390993D01*
X79406609Y-116341321D01*
X79453809Y-116283809D01*
X79471371Y-116269395D01*
X79487782Y-116251170D01*
X79538321Y-116214450D01*
X79590150Y-116171916D01*
X79615557Y-116158335D01*
X79640000Y-116140577D01*
X79692573Y-116117169D01*
X79745695Y-116088776D01*
X79779122Y-116078635D01*
X79811885Y-116064049D01*
X79863080Y-116053166D01*
X79914473Y-116037577D01*
X79955377Y-116033548D01*
X79995924Y-116024930D01*
X80042887Y-116024930D01*
X80090000Y-116020290D01*
X80137113Y-116024930D01*
G37*
G36*
X123317113Y-116024930D02*
G01*
X123364076Y-116024930D01*
X123404622Y-116033548D01*
X123445526Y-116037577D01*
X123496916Y-116053166D01*
X123548115Y-116064049D01*
X123580879Y-116078636D01*
X123614304Y-116088776D01*
X123667420Y-116117166D01*
X123720000Y-116140577D01*
X123744445Y-116158337D01*
X123769849Y-116171916D01*
X123821669Y-116214444D01*
X123872218Y-116251170D01*
X123888631Y-116269398D01*
X123906190Y-116283809D01*
X123953379Y-116341308D01*
X123998115Y-116390993D01*
X124007512Y-116407269D01*
X124018083Y-116420150D01*
X124057183Y-116493302D01*
X124092191Y-116553937D01*
X124096218Y-116566331D01*
X124101223Y-116575695D01*
X124128821Y-116666672D01*
X124150333Y-116732879D01*
X124151090Y-116740082D01*
X124152422Y-116744473D01*
X124165377Y-116876021D01*
X124170000Y-116920000D01*
X124165377Y-116963982D01*
X124152422Y-117095526D01*
X124151090Y-117099916D01*
X124150333Y-117107121D01*
X124128816Y-117173341D01*
X124101223Y-117264304D01*
X124096219Y-117273665D01*
X124092191Y-117286063D01*
X124057176Y-117346709D01*
X124018083Y-117419849D01*
X124007514Y-117432726D01*
X123998115Y-117449007D01*
X123953369Y-117498701D01*
X123906190Y-117556190D01*
X123888634Y-117570597D01*
X123872218Y-117588830D01*
X123821659Y-117625563D01*
X123769849Y-117668083D01*
X123744450Y-117681658D01*
X123720000Y-117699423D01*
X123667408Y-117722838D01*
X123614304Y-117751223D01*
X123580886Y-117761360D01*
X123548115Y-117775951D01*
X123496905Y-117786836D01*
X123445526Y-117802422D01*
X123404631Y-117806449D01*
X123364076Y-117815070D01*
X123317103Y-117815070D01*
X123270000Y-117819709D01*
X123222897Y-117815070D01*
X123175924Y-117815070D01*
X123135368Y-117806449D01*
X123094473Y-117802422D01*
X123043091Y-117786835D01*
X122991885Y-117775951D01*
X122959115Y-117761361D01*
X122925695Y-117751223D01*
X122872585Y-117722835D01*
X122820000Y-117699423D01*
X122795552Y-117681660D01*
X122770150Y-117668083D01*
X122718332Y-117625556D01*
X122667782Y-117588830D01*
X122651368Y-117570600D01*
X122633809Y-117556190D01*
X122586618Y-117498688D01*
X122541885Y-117449007D01*
X122532487Y-117432730D01*
X122521916Y-117419849D01*
X122482810Y-117346686D01*
X122447809Y-117286063D01*
X122443782Y-117273670D01*
X122438776Y-117264304D01*
X122411168Y-117173294D01*
X122389667Y-117107121D01*
X122388910Y-117099921D01*
X122387577Y-117095526D01*
X122374606Y-116963831D01*
X122370000Y-116920000D01*
X122374606Y-116876172D01*
X122387577Y-116744473D01*
X122388910Y-116740077D01*
X122389667Y-116732879D01*
X122411163Y-116666719D01*
X122438776Y-116575695D01*
X122443783Y-116566327D01*
X122447809Y-116553937D01*
X122482802Y-116493326D01*
X122521916Y-116420150D01*
X122532489Y-116407265D01*
X122541885Y-116390993D01*
X122586609Y-116341321D01*
X122633809Y-116283809D01*
X122651371Y-116269395D01*
X122667782Y-116251170D01*
X122718321Y-116214450D01*
X122770150Y-116171916D01*
X122795557Y-116158335D01*
X122820000Y-116140577D01*
X122872573Y-116117169D01*
X122925695Y-116088776D01*
X122959122Y-116078635D01*
X122991885Y-116064049D01*
X123043080Y-116053166D01*
X123094473Y-116037577D01*
X123135377Y-116033548D01*
X123175924Y-116024930D01*
X123222887Y-116024930D01*
X123270000Y-116020290D01*
X123317113Y-116024930D01*
G37*
G36*
X125857113Y-116024930D02*
G01*
X125904076Y-116024930D01*
X125944622Y-116033548D01*
X125985526Y-116037577D01*
X126036916Y-116053166D01*
X126088115Y-116064049D01*
X126120879Y-116078636D01*
X126154304Y-116088776D01*
X126207420Y-116117166D01*
X126260000Y-116140577D01*
X126284445Y-116158337D01*
X126309849Y-116171916D01*
X126361669Y-116214444D01*
X126412218Y-116251170D01*
X126428631Y-116269398D01*
X126446190Y-116283809D01*
X126493379Y-116341308D01*
X126538115Y-116390993D01*
X126547512Y-116407269D01*
X126558083Y-116420150D01*
X126597183Y-116493302D01*
X126632191Y-116553937D01*
X126636218Y-116566331D01*
X126641223Y-116575695D01*
X126668821Y-116666672D01*
X126690333Y-116732879D01*
X126691090Y-116740082D01*
X126692422Y-116744473D01*
X126705377Y-116876021D01*
X126710000Y-116920000D01*
X126705377Y-116963982D01*
X126692422Y-117095526D01*
X126691090Y-117099916D01*
X126690333Y-117107121D01*
X126668816Y-117173341D01*
X126641223Y-117264304D01*
X126636219Y-117273665D01*
X126632191Y-117286063D01*
X126597176Y-117346709D01*
X126558083Y-117419849D01*
X126547514Y-117432726D01*
X126538115Y-117449007D01*
X126493369Y-117498701D01*
X126446190Y-117556190D01*
X126428634Y-117570597D01*
X126412218Y-117588830D01*
X126361659Y-117625563D01*
X126309849Y-117668083D01*
X126284450Y-117681658D01*
X126260000Y-117699423D01*
X126207408Y-117722838D01*
X126154304Y-117751223D01*
X126120886Y-117761360D01*
X126088115Y-117775951D01*
X126036905Y-117786836D01*
X125985526Y-117802422D01*
X125944631Y-117806449D01*
X125904076Y-117815070D01*
X125857103Y-117815070D01*
X125810000Y-117819709D01*
X125762897Y-117815070D01*
X125715924Y-117815070D01*
X125675368Y-117806449D01*
X125634473Y-117802422D01*
X125583091Y-117786835D01*
X125531885Y-117775951D01*
X125499115Y-117761361D01*
X125465695Y-117751223D01*
X125412585Y-117722835D01*
X125360000Y-117699423D01*
X125335552Y-117681660D01*
X125310150Y-117668083D01*
X125258332Y-117625556D01*
X125207782Y-117588830D01*
X125191368Y-117570600D01*
X125173809Y-117556190D01*
X125126618Y-117498688D01*
X125081885Y-117449007D01*
X125072487Y-117432730D01*
X125061916Y-117419849D01*
X125022810Y-117346686D01*
X124987809Y-117286063D01*
X124983782Y-117273670D01*
X124978776Y-117264304D01*
X124951168Y-117173294D01*
X124929667Y-117107121D01*
X124928910Y-117099921D01*
X124927577Y-117095526D01*
X124914606Y-116963831D01*
X124910000Y-116920000D01*
X124914606Y-116876172D01*
X124927577Y-116744473D01*
X124928910Y-116740077D01*
X124929667Y-116732879D01*
X124951163Y-116666719D01*
X124978776Y-116575695D01*
X124983783Y-116566327D01*
X124987809Y-116553937D01*
X125022802Y-116493326D01*
X125061916Y-116420150D01*
X125072489Y-116407265D01*
X125081885Y-116390993D01*
X125126609Y-116341321D01*
X125173809Y-116283809D01*
X125191371Y-116269395D01*
X125207782Y-116251170D01*
X125258321Y-116214450D01*
X125310150Y-116171916D01*
X125335557Y-116158335D01*
X125360000Y-116140577D01*
X125412573Y-116117169D01*
X125465695Y-116088776D01*
X125499122Y-116078635D01*
X125531885Y-116064049D01*
X125583080Y-116053166D01*
X125634473Y-116037577D01*
X125675377Y-116033548D01*
X125715924Y-116024930D01*
X125762887Y-116024930D01*
X125810000Y-116020290D01*
X125857113Y-116024930D01*
G37*
G36*
X148717113Y-116024930D02*
G01*
X148764076Y-116024930D01*
X148804622Y-116033548D01*
X148845526Y-116037577D01*
X148896916Y-116053166D01*
X148948115Y-116064049D01*
X148980879Y-116078636D01*
X149014304Y-116088776D01*
X149067420Y-116117166D01*
X149120000Y-116140577D01*
X149144445Y-116158337D01*
X149169849Y-116171916D01*
X149221669Y-116214444D01*
X149272218Y-116251170D01*
X149288631Y-116269398D01*
X149306190Y-116283809D01*
X149353379Y-116341308D01*
X149398115Y-116390993D01*
X149407512Y-116407269D01*
X149418083Y-116420150D01*
X149457183Y-116493302D01*
X149492191Y-116553937D01*
X149496218Y-116566331D01*
X149501223Y-116575695D01*
X149528821Y-116666672D01*
X149550333Y-116732879D01*
X149551090Y-116740082D01*
X149552422Y-116744473D01*
X149565377Y-116876021D01*
X149570000Y-116920000D01*
X149565377Y-116963982D01*
X149552422Y-117095526D01*
X149551090Y-117099916D01*
X149550333Y-117107121D01*
X149528816Y-117173341D01*
X149501223Y-117264304D01*
X149496219Y-117273665D01*
X149492191Y-117286063D01*
X149457176Y-117346709D01*
X149418083Y-117419849D01*
X149407514Y-117432726D01*
X149398115Y-117449007D01*
X149353369Y-117498701D01*
X149306190Y-117556190D01*
X149288634Y-117570597D01*
X149272218Y-117588830D01*
X149221659Y-117625563D01*
X149169849Y-117668083D01*
X149144450Y-117681658D01*
X149120000Y-117699423D01*
X149067408Y-117722838D01*
X149014304Y-117751223D01*
X148980886Y-117761360D01*
X148948115Y-117775951D01*
X148896905Y-117786836D01*
X148845526Y-117802422D01*
X148804631Y-117806449D01*
X148764076Y-117815070D01*
X148717103Y-117815070D01*
X148670000Y-117819709D01*
X148622897Y-117815070D01*
X148575924Y-117815070D01*
X148535368Y-117806449D01*
X148494473Y-117802422D01*
X148443091Y-117786835D01*
X148391885Y-117775951D01*
X148359115Y-117761361D01*
X148325695Y-117751223D01*
X148272585Y-117722835D01*
X148220000Y-117699423D01*
X148195552Y-117681660D01*
X148170150Y-117668083D01*
X148118332Y-117625556D01*
X148067782Y-117588830D01*
X148051368Y-117570600D01*
X148033809Y-117556190D01*
X147986618Y-117498688D01*
X147941885Y-117449007D01*
X147932487Y-117432730D01*
X147921916Y-117419849D01*
X147882810Y-117346686D01*
X147847809Y-117286063D01*
X147843782Y-117273670D01*
X147838776Y-117264304D01*
X147811168Y-117173294D01*
X147789667Y-117107121D01*
X147788910Y-117099921D01*
X147787577Y-117095526D01*
X147774606Y-116963831D01*
X147770000Y-116920000D01*
X147774606Y-116876172D01*
X147787577Y-116744473D01*
X147788910Y-116740077D01*
X147789667Y-116732879D01*
X147811163Y-116666719D01*
X147838776Y-116575695D01*
X147843783Y-116566327D01*
X147847809Y-116553937D01*
X147882802Y-116493326D01*
X147921916Y-116420150D01*
X147932489Y-116407265D01*
X147941885Y-116390993D01*
X147986609Y-116341321D01*
X148033809Y-116283809D01*
X148051371Y-116269395D01*
X148067782Y-116251170D01*
X148118321Y-116214450D01*
X148170150Y-116171916D01*
X148195557Y-116158335D01*
X148220000Y-116140577D01*
X148272573Y-116117169D01*
X148325695Y-116088776D01*
X148359122Y-116078635D01*
X148391885Y-116064049D01*
X148443080Y-116053166D01*
X148494473Y-116037577D01*
X148535377Y-116033548D01*
X148575924Y-116024930D01*
X148622887Y-116024930D01*
X148670000Y-116020290D01*
X148717113Y-116024930D01*
G37*
G36*
X151257113Y-116024930D02*
G01*
X151304076Y-116024930D01*
X151344622Y-116033548D01*
X151385526Y-116037577D01*
X151436916Y-116053166D01*
X151488115Y-116064049D01*
X151520879Y-116078636D01*
X151554304Y-116088776D01*
X151607420Y-116117166D01*
X151660000Y-116140577D01*
X151684445Y-116158337D01*
X151709849Y-116171916D01*
X151761669Y-116214444D01*
X151812218Y-116251170D01*
X151828631Y-116269398D01*
X151846190Y-116283809D01*
X151893379Y-116341308D01*
X151938115Y-116390993D01*
X151947512Y-116407269D01*
X151958083Y-116420150D01*
X151997183Y-116493302D01*
X152032191Y-116553937D01*
X152036218Y-116566331D01*
X152041223Y-116575695D01*
X152068821Y-116666672D01*
X152090333Y-116732879D01*
X152091090Y-116740082D01*
X152092422Y-116744473D01*
X152105377Y-116876021D01*
X152110000Y-116920000D01*
X152105377Y-116963982D01*
X152092422Y-117095526D01*
X152091090Y-117099916D01*
X152090333Y-117107121D01*
X152068816Y-117173341D01*
X152041223Y-117264304D01*
X152036219Y-117273665D01*
X152032191Y-117286063D01*
X151997176Y-117346709D01*
X151958083Y-117419849D01*
X151947514Y-117432726D01*
X151938115Y-117449007D01*
X151893369Y-117498701D01*
X151846190Y-117556190D01*
X151828634Y-117570597D01*
X151812218Y-117588830D01*
X151761659Y-117625563D01*
X151709849Y-117668083D01*
X151684450Y-117681658D01*
X151660000Y-117699423D01*
X151607408Y-117722838D01*
X151554304Y-117751223D01*
X151520886Y-117761360D01*
X151488115Y-117775951D01*
X151436905Y-117786836D01*
X151385526Y-117802422D01*
X151344631Y-117806449D01*
X151304076Y-117815070D01*
X151257103Y-117815070D01*
X151210000Y-117819709D01*
X151162897Y-117815070D01*
X151115924Y-117815070D01*
X151075368Y-117806449D01*
X151034473Y-117802422D01*
X150983091Y-117786835D01*
X150931885Y-117775951D01*
X150899115Y-117761361D01*
X150865695Y-117751223D01*
X150812585Y-117722835D01*
X150760000Y-117699423D01*
X150735552Y-117681660D01*
X150710150Y-117668083D01*
X150658332Y-117625556D01*
X150607782Y-117588830D01*
X150591368Y-117570600D01*
X150573809Y-117556190D01*
X150526618Y-117498688D01*
X150481885Y-117449007D01*
X150472487Y-117432730D01*
X150461916Y-117419849D01*
X150422810Y-117346686D01*
X150387809Y-117286063D01*
X150383782Y-117273670D01*
X150378776Y-117264304D01*
X150351168Y-117173294D01*
X150329667Y-117107121D01*
X150328910Y-117099921D01*
X150327577Y-117095526D01*
X150314606Y-116963831D01*
X150310000Y-116920000D01*
X150314606Y-116876172D01*
X150327577Y-116744473D01*
X150328910Y-116740077D01*
X150329667Y-116732879D01*
X150351163Y-116666719D01*
X150378776Y-116575695D01*
X150383783Y-116566327D01*
X150387809Y-116553937D01*
X150422802Y-116493326D01*
X150461916Y-116420150D01*
X150472489Y-116407265D01*
X150481885Y-116390993D01*
X150526609Y-116341321D01*
X150573809Y-116283809D01*
X150591371Y-116269395D01*
X150607782Y-116251170D01*
X150658321Y-116214450D01*
X150710150Y-116171916D01*
X150735557Y-116158335D01*
X150760000Y-116140577D01*
X150812573Y-116117169D01*
X150865695Y-116088776D01*
X150899122Y-116078635D01*
X150931885Y-116064049D01*
X150983080Y-116053166D01*
X151034473Y-116037577D01*
X151075377Y-116033548D01*
X151115924Y-116024930D01*
X151162887Y-116024930D01*
X151210000Y-116020290D01*
X151257113Y-116024930D01*
G37*
G36*
X58547113Y-113484930D02*
G01*
X58594076Y-113484930D01*
X58634622Y-113493548D01*
X58675526Y-113497577D01*
X58726916Y-113513166D01*
X58778115Y-113524049D01*
X58810879Y-113538636D01*
X58844304Y-113548776D01*
X58897420Y-113577166D01*
X58950000Y-113600577D01*
X58974445Y-113618337D01*
X58999849Y-113631916D01*
X59051669Y-113674444D01*
X59102218Y-113711170D01*
X59118631Y-113729398D01*
X59136190Y-113743809D01*
X59183379Y-113801308D01*
X59228115Y-113850993D01*
X59237512Y-113867269D01*
X59248083Y-113880150D01*
X59287183Y-113953302D01*
X59322191Y-114013937D01*
X59326218Y-114026331D01*
X59331223Y-114035695D01*
X59358821Y-114126672D01*
X59380333Y-114192879D01*
X59381090Y-114200082D01*
X59382422Y-114204473D01*
X59395377Y-114336021D01*
X59400000Y-114380000D01*
X59395377Y-114423982D01*
X59382422Y-114555526D01*
X59381090Y-114559916D01*
X59380333Y-114567121D01*
X59358816Y-114633341D01*
X59331223Y-114724304D01*
X59326219Y-114733665D01*
X59322191Y-114746063D01*
X59287176Y-114806709D01*
X59248083Y-114879849D01*
X59237514Y-114892726D01*
X59228115Y-114909007D01*
X59183369Y-114958701D01*
X59136190Y-115016190D01*
X59118634Y-115030597D01*
X59102218Y-115048830D01*
X59051659Y-115085563D01*
X58999849Y-115128083D01*
X58974450Y-115141658D01*
X58950000Y-115159423D01*
X58897408Y-115182838D01*
X58844304Y-115211223D01*
X58810886Y-115221360D01*
X58778115Y-115235951D01*
X58726905Y-115246836D01*
X58675526Y-115262422D01*
X58634631Y-115266449D01*
X58594076Y-115275070D01*
X58547103Y-115275070D01*
X58500000Y-115279709D01*
X58452897Y-115275070D01*
X58405924Y-115275070D01*
X58365368Y-115266449D01*
X58324473Y-115262422D01*
X58273091Y-115246835D01*
X58221885Y-115235951D01*
X58189115Y-115221361D01*
X58155695Y-115211223D01*
X58102585Y-115182835D01*
X58050000Y-115159423D01*
X58025552Y-115141660D01*
X58000150Y-115128083D01*
X57948332Y-115085556D01*
X57897782Y-115048830D01*
X57881368Y-115030600D01*
X57863809Y-115016190D01*
X57816618Y-114958688D01*
X57771885Y-114909007D01*
X57762487Y-114892730D01*
X57751916Y-114879849D01*
X57712810Y-114806686D01*
X57677809Y-114746063D01*
X57673782Y-114733670D01*
X57668776Y-114724304D01*
X57641168Y-114633294D01*
X57619667Y-114567121D01*
X57618910Y-114559921D01*
X57617577Y-114555526D01*
X57604606Y-114423831D01*
X57600000Y-114380000D01*
X57604606Y-114336172D01*
X57617577Y-114204473D01*
X57618910Y-114200077D01*
X57619667Y-114192879D01*
X57641163Y-114126719D01*
X57668776Y-114035695D01*
X57673783Y-114026327D01*
X57677809Y-114013937D01*
X57712802Y-113953326D01*
X57751916Y-113880150D01*
X57762489Y-113867265D01*
X57771885Y-113850993D01*
X57816609Y-113801321D01*
X57863809Y-113743809D01*
X57881371Y-113729395D01*
X57897782Y-113711170D01*
X57948321Y-113674450D01*
X58000150Y-113631916D01*
X58025557Y-113618335D01*
X58050000Y-113600577D01*
X58102573Y-113577169D01*
X58155695Y-113548776D01*
X58189122Y-113538635D01*
X58221885Y-113524049D01*
X58273080Y-113513166D01*
X58324473Y-113497577D01*
X58365377Y-113493548D01*
X58405924Y-113484930D01*
X58452887Y-113484930D01*
X58500000Y-113480290D01*
X58547113Y-113484930D01*
G37*
G36*
X83947113Y-113484930D02*
G01*
X83994076Y-113484930D01*
X84034622Y-113493548D01*
X84075526Y-113497577D01*
X84126916Y-113513166D01*
X84178115Y-113524049D01*
X84210879Y-113538636D01*
X84244304Y-113548776D01*
X84297420Y-113577166D01*
X84350000Y-113600577D01*
X84374445Y-113618337D01*
X84399849Y-113631916D01*
X84451669Y-113674444D01*
X84502218Y-113711170D01*
X84518631Y-113729398D01*
X84536190Y-113743809D01*
X84583379Y-113801308D01*
X84628115Y-113850993D01*
X84637512Y-113867269D01*
X84648083Y-113880150D01*
X84687183Y-113953302D01*
X84722191Y-114013937D01*
X84726218Y-114026331D01*
X84731223Y-114035695D01*
X84758821Y-114126672D01*
X84780333Y-114192879D01*
X84781090Y-114200082D01*
X84782422Y-114204473D01*
X84795377Y-114336021D01*
X84800000Y-114380000D01*
X84795377Y-114423982D01*
X84782422Y-114555526D01*
X84781090Y-114559916D01*
X84780333Y-114567121D01*
X84758816Y-114633341D01*
X84731223Y-114724304D01*
X84726219Y-114733665D01*
X84722191Y-114746063D01*
X84687176Y-114806709D01*
X84648083Y-114879849D01*
X84637514Y-114892726D01*
X84628115Y-114909007D01*
X84583369Y-114958701D01*
X84536190Y-115016190D01*
X84518634Y-115030597D01*
X84502218Y-115048830D01*
X84451659Y-115085563D01*
X84399849Y-115128083D01*
X84374450Y-115141658D01*
X84350000Y-115159423D01*
X84297408Y-115182838D01*
X84244304Y-115211223D01*
X84210886Y-115221360D01*
X84178115Y-115235951D01*
X84126905Y-115246836D01*
X84075526Y-115262422D01*
X84034631Y-115266449D01*
X83994076Y-115275070D01*
X83947103Y-115275070D01*
X83900000Y-115279709D01*
X83852897Y-115275070D01*
X83805924Y-115275070D01*
X83765368Y-115266449D01*
X83724473Y-115262422D01*
X83673091Y-115246835D01*
X83621885Y-115235951D01*
X83589115Y-115221361D01*
X83555695Y-115211223D01*
X83502585Y-115182835D01*
X83450000Y-115159423D01*
X83425552Y-115141660D01*
X83400150Y-115128083D01*
X83348332Y-115085556D01*
X83297782Y-115048830D01*
X83281368Y-115030600D01*
X83263809Y-115016190D01*
X83216618Y-114958688D01*
X83171885Y-114909007D01*
X83162487Y-114892730D01*
X83151916Y-114879849D01*
X83112810Y-114806686D01*
X83077809Y-114746063D01*
X83073782Y-114733670D01*
X83068776Y-114724304D01*
X83041168Y-114633294D01*
X83019667Y-114567121D01*
X83018910Y-114559921D01*
X83017577Y-114555526D01*
X83004606Y-114423831D01*
X83000000Y-114380000D01*
X83004606Y-114336172D01*
X83017577Y-114204473D01*
X83018910Y-114200077D01*
X83019667Y-114192879D01*
X83041163Y-114126719D01*
X83068776Y-114035695D01*
X83073783Y-114026327D01*
X83077809Y-114013937D01*
X83112802Y-113953326D01*
X83151916Y-113880150D01*
X83162489Y-113867265D01*
X83171885Y-113850993D01*
X83216609Y-113801321D01*
X83263809Y-113743809D01*
X83281371Y-113729395D01*
X83297782Y-113711170D01*
X83348321Y-113674450D01*
X83400150Y-113631916D01*
X83425557Y-113618335D01*
X83450000Y-113600577D01*
X83502573Y-113577169D01*
X83555695Y-113548776D01*
X83589122Y-113538635D01*
X83621885Y-113524049D01*
X83673080Y-113513166D01*
X83724473Y-113497577D01*
X83765377Y-113493548D01*
X83805924Y-113484930D01*
X83852887Y-113484930D01*
X83900000Y-113480290D01*
X83947113Y-113484930D01*
G37*
G36*
X129667113Y-113484930D02*
G01*
X129714076Y-113484930D01*
X129754622Y-113493548D01*
X129795526Y-113497577D01*
X129846916Y-113513166D01*
X129898115Y-113524049D01*
X129930879Y-113538636D01*
X129964304Y-113548776D01*
X130017420Y-113577166D01*
X130070000Y-113600577D01*
X130094445Y-113618337D01*
X130119849Y-113631916D01*
X130171669Y-113674444D01*
X130222218Y-113711170D01*
X130238631Y-113729398D01*
X130256190Y-113743809D01*
X130303379Y-113801308D01*
X130348115Y-113850993D01*
X130357512Y-113867269D01*
X130368083Y-113880150D01*
X130407183Y-113953302D01*
X130442191Y-114013937D01*
X130446218Y-114026331D01*
X130451223Y-114035695D01*
X130478821Y-114126672D01*
X130500333Y-114192879D01*
X130501090Y-114200082D01*
X130502422Y-114204473D01*
X130515377Y-114336021D01*
X130520000Y-114380000D01*
X130515377Y-114423982D01*
X130502422Y-114555526D01*
X130501090Y-114559916D01*
X130500333Y-114567121D01*
X130478816Y-114633341D01*
X130451223Y-114724304D01*
X130446219Y-114733665D01*
X130442191Y-114746063D01*
X130407176Y-114806709D01*
X130368083Y-114879849D01*
X130357514Y-114892726D01*
X130348115Y-114909007D01*
X130303369Y-114958701D01*
X130256190Y-115016190D01*
X130238634Y-115030597D01*
X130222218Y-115048830D01*
X130171659Y-115085563D01*
X130119849Y-115128083D01*
X130094450Y-115141658D01*
X130070000Y-115159423D01*
X130017408Y-115182838D01*
X129964304Y-115211223D01*
X129930886Y-115221360D01*
X129898115Y-115235951D01*
X129846905Y-115246836D01*
X129795526Y-115262422D01*
X129754631Y-115266449D01*
X129714076Y-115275070D01*
X129667103Y-115275070D01*
X129620000Y-115279709D01*
X129572897Y-115275070D01*
X129525924Y-115275070D01*
X129485368Y-115266449D01*
X129444473Y-115262422D01*
X129393091Y-115246835D01*
X129341885Y-115235951D01*
X129309115Y-115221361D01*
X129275695Y-115211223D01*
X129222585Y-115182835D01*
X129170000Y-115159423D01*
X129145552Y-115141660D01*
X129120150Y-115128083D01*
X129068332Y-115085556D01*
X129017782Y-115048830D01*
X129001368Y-115030600D01*
X128983809Y-115016190D01*
X128936618Y-114958688D01*
X128891885Y-114909007D01*
X128882487Y-114892730D01*
X128871916Y-114879849D01*
X128832810Y-114806686D01*
X128797809Y-114746063D01*
X128793782Y-114733670D01*
X128788776Y-114724304D01*
X128761168Y-114633294D01*
X128739667Y-114567121D01*
X128738910Y-114559921D01*
X128737577Y-114555526D01*
X128724606Y-114423831D01*
X128720000Y-114380000D01*
X128724606Y-114336172D01*
X128737577Y-114204473D01*
X128738910Y-114200077D01*
X128739667Y-114192879D01*
X128761163Y-114126719D01*
X128788776Y-114035695D01*
X128793783Y-114026327D01*
X128797809Y-114013937D01*
X128832802Y-113953326D01*
X128871916Y-113880150D01*
X128882489Y-113867265D01*
X128891885Y-113850993D01*
X128936609Y-113801321D01*
X128983809Y-113743809D01*
X129001371Y-113729395D01*
X129017782Y-113711170D01*
X129068321Y-113674450D01*
X129120150Y-113631916D01*
X129145557Y-113618335D01*
X129170000Y-113600577D01*
X129222573Y-113577169D01*
X129275695Y-113548776D01*
X129309122Y-113538635D01*
X129341885Y-113524049D01*
X129393080Y-113513166D01*
X129444473Y-113497577D01*
X129485377Y-113493548D01*
X129525924Y-113484930D01*
X129572887Y-113484930D01*
X129620000Y-113480290D01*
X129667113Y-113484930D01*
G37*
G36*
X155067113Y-113484930D02*
G01*
X155114076Y-113484930D01*
X155154622Y-113493548D01*
X155195526Y-113497577D01*
X155246916Y-113513166D01*
X155298115Y-113524049D01*
X155330879Y-113538636D01*
X155364304Y-113548776D01*
X155417420Y-113577166D01*
X155470000Y-113600577D01*
X155494445Y-113618337D01*
X155519849Y-113631916D01*
X155571669Y-113674444D01*
X155622218Y-113711170D01*
X155638631Y-113729398D01*
X155656190Y-113743809D01*
X155703379Y-113801308D01*
X155748115Y-113850993D01*
X155757512Y-113867269D01*
X155768083Y-113880150D01*
X155807183Y-113953302D01*
X155842191Y-114013937D01*
X155846218Y-114026331D01*
X155851223Y-114035695D01*
X155878821Y-114126672D01*
X155900333Y-114192879D01*
X155901090Y-114200082D01*
X155902422Y-114204473D01*
X155915377Y-114336021D01*
X155920000Y-114380000D01*
X155915377Y-114423982D01*
X155902422Y-114555526D01*
X155901090Y-114559916D01*
X155900333Y-114567121D01*
X155878816Y-114633341D01*
X155851223Y-114724304D01*
X155846219Y-114733665D01*
X155842191Y-114746063D01*
X155807176Y-114806709D01*
X155768083Y-114879849D01*
X155757514Y-114892726D01*
X155748115Y-114909007D01*
X155703369Y-114958701D01*
X155656190Y-115016190D01*
X155638634Y-115030597D01*
X155622218Y-115048830D01*
X155571659Y-115085563D01*
X155519849Y-115128083D01*
X155494450Y-115141658D01*
X155470000Y-115159423D01*
X155417408Y-115182838D01*
X155364304Y-115211223D01*
X155330886Y-115221360D01*
X155298115Y-115235951D01*
X155246905Y-115246836D01*
X155195526Y-115262422D01*
X155154631Y-115266449D01*
X155114076Y-115275070D01*
X155067103Y-115275070D01*
X155020000Y-115279709D01*
X154972897Y-115275070D01*
X154925924Y-115275070D01*
X154885368Y-115266449D01*
X154844473Y-115262422D01*
X154793091Y-115246835D01*
X154741885Y-115235951D01*
X154709115Y-115221361D01*
X154675695Y-115211223D01*
X154622585Y-115182835D01*
X154570000Y-115159423D01*
X154545552Y-115141660D01*
X154520150Y-115128083D01*
X154468332Y-115085556D01*
X154417782Y-115048830D01*
X154401368Y-115030600D01*
X154383809Y-115016190D01*
X154336618Y-114958688D01*
X154291885Y-114909007D01*
X154282487Y-114892730D01*
X154271916Y-114879849D01*
X154232810Y-114806686D01*
X154197809Y-114746063D01*
X154193782Y-114733670D01*
X154188776Y-114724304D01*
X154161168Y-114633294D01*
X154139667Y-114567121D01*
X154138910Y-114559921D01*
X154137577Y-114555526D01*
X154124606Y-114423831D01*
X154120000Y-114380000D01*
X154124606Y-114336172D01*
X154137577Y-114204473D01*
X154138910Y-114200077D01*
X154139667Y-114192879D01*
X154161163Y-114126719D01*
X154188776Y-114035695D01*
X154193783Y-114026327D01*
X154197809Y-114013937D01*
X154232802Y-113953326D01*
X154271916Y-113880150D01*
X154282489Y-113867265D01*
X154291885Y-113850993D01*
X154336609Y-113801321D01*
X154383809Y-113743809D01*
X154401371Y-113729395D01*
X154417782Y-113711170D01*
X154468321Y-113674450D01*
X154520150Y-113631916D01*
X154545557Y-113618335D01*
X154570000Y-113600577D01*
X154622573Y-113577169D01*
X154675695Y-113548776D01*
X154709122Y-113538635D01*
X154741885Y-113524049D01*
X154793080Y-113513166D01*
X154844473Y-113497577D01*
X154885377Y-113493548D01*
X154925924Y-113484930D01*
X154972887Y-113484930D01*
X155020000Y-113480290D01*
X155067113Y-113484930D01*
G37*
G36*
X63365000Y-79065000D02*
G01*
X61715000Y-79065000D01*
X61715000Y-77415000D01*
X63365000Y-77415000D01*
X63365000Y-79065000D01*
G37*
G36*
X60254939Y-77455378D02*
G01*
X60412500Y-77525529D01*
X60552033Y-77626906D01*
X60667439Y-77755077D01*
X60753675Y-77904442D01*
X60806972Y-78068473D01*
X60825000Y-78240000D01*
X60806972Y-78411527D01*
X60753675Y-78575558D01*
X60667439Y-78724923D01*
X60552033Y-78853094D01*
X60412500Y-78954471D01*
X60254939Y-79024622D01*
X60086236Y-79060481D01*
X59913764Y-79060481D01*
X59745061Y-79024622D01*
X59587500Y-78954471D01*
X59447967Y-78853094D01*
X59332561Y-78724923D01*
X59246325Y-78575558D01*
X59193028Y-78411527D01*
X59175000Y-78240000D01*
X59193028Y-78068473D01*
X59246325Y-77904442D01*
X59332561Y-77755077D01*
X59447967Y-77626906D01*
X59587500Y-77525529D01*
X59745061Y-77455378D01*
X59913764Y-77419519D01*
X60086236Y-77419519D01*
X60254939Y-77455378D01*
G37*
G36*
X60254939Y-74915378D02*
G01*
X60412500Y-74985529D01*
X60552033Y-75086906D01*
X60667439Y-75215077D01*
X60753675Y-75364442D01*
X60806972Y-75528473D01*
X60825000Y-75700000D01*
X60806972Y-75871527D01*
X60753675Y-76035558D01*
X60667439Y-76184923D01*
X60552033Y-76313094D01*
X60412500Y-76414471D01*
X60254939Y-76484622D01*
X60086236Y-76520481D01*
X59913764Y-76520481D01*
X59745061Y-76484622D01*
X59587500Y-76414471D01*
X59447967Y-76313094D01*
X59332561Y-76184923D01*
X59246325Y-76035558D01*
X59193028Y-75871527D01*
X59175000Y-75700000D01*
X59193028Y-75528473D01*
X59246325Y-75364442D01*
X59332561Y-75215077D01*
X59447967Y-75086906D01*
X59587500Y-74985529D01*
X59745061Y-74915378D01*
X59913764Y-74879519D01*
X60086236Y-74879519D01*
X60254939Y-74915378D01*
G37*
G36*
X62794939Y-74915378D02*
G01*
X62952500Y-74985529D01*
X63092033Y-75086906D01*
X63207439Y-75215077D01*
X63293675Y-75364442D01*
X63346972Y-75528473D01*
X63365000Y-75700000D01*
X63346972Y-75871527D01*
X63293675Y-76035558D01*
X63207439Y-76184923D01*
X63092033Y-76313094D01*
X62952500Y-76414471D01*
X62794939Y-76484622D01*
X62626236Y-76520481D01*
X62453764Y-76520481D01*
X62285061Y-76484622D01*
X62127500Y-76414471D01*
X61987967Y-76313094D01*
X61872561Y-76184923D01*
X61786325Y-76035558D01*
X61733028Y-75871527D01*
X61715000Y-75700000D01*
X61733028Y-75528473D01*
X61786325Y-75364442D01*
X61872561Y-75215077D01*
X61987967Y-75086906D01*
X62127500Y-74985529D01*
X62285061Y-74915378D01*
X62453764Y-74879519D01*
X62626236Y-74879519D01*
X62794939Y-74915378D01*
G37*
G36*
X60254939Y-72375378D02*
G01*
X60412500Y-72445529D01*
X60552033Y-72546906D01*
X60667439Y-72675077D01*
X60753675Y-72824442D01*
X60806972Y-72988473D01*
X60825000Y-73160000D01*
X60806972Y-73331527D01*
X60753675Y-73495558D01*
X60667439Y-73644923D01*
X60552033Y-73773094D01*
X60412500Y-73874471D01*
X60254939Y-73944622D01*
X60086236Y-73980481D01*
X59913764Y-73980481D01*
X59745061Y-73944622D01*
X59587500Y-73874471D01*
X59447967Y-73773094D01*
X59332561Y-73644923D01*
X59246325Y-73495558D01*
X59193028Y-73331527D01*
X59175000Y-73160000D01*
X59193028Y-72988473D01*
X59246325Y-72824442D01*
X59332561Y-72675077D01*
X59447967Y-72546906D01*
X59587500Y-72445529D01*
X59745061Y-72375378D01*
X59913764Y-72339519D01*
X60086236Y-72339519D01*
X60254939Y-72375378D01*
G37*
G36*
X62794939Y-72375378D02*
G01*
X62952500Y-72445529D01*
X63092033Y-72546906D01*
X63207439Y-72675077D01*
X63293675Y-72824442D01*
X63346972Y-72988473D01*
X63365000Y-73160000D01*
X63346972Y-73331527D01*
X63293675Y-73495558D01*
X63207439Y-73644923D01*
X63092033Y-73773094D01*
X62952500Y-73874471D01*
X62794939Y-73944622D01*
X62626236Y-73980481D01*
X62453764Y-73980481D01*
X62285061Y-73944622D01*
X62127500Y-73874471D01*
X61987967Y-73773094D01*
X61872561Y-73644923D01*
X61786325Y-73495558D01*
X61733028Y-73331527D01*
X61715000Y-73160000D01*
X61733028Y-72988473D01*
X61786325Y-72824442D01*
X61872561Y-72675077D01*
X61987967Y-72546906D01*
X62127500Y-72445529D01*
X62285061Y-72375378D01*
X62453764Y-72339519D01*
X62626236Y-72339519D01*
X62794939Y-72375378D01*
G37*
G36*
X60254939Y-69835378D02*
G01*
X60412500Y-69905529D01*
X60552033Y-70006906D01*
X60667439Y-70135077D01*
X60753675Y-70284442D01*
X60806972Y-70448473D01*
X60825000Y-70620000D01*
X60806972Y-70791527D01*
X60753675Y-70955558D01*
X60667439Y-71104923D01*
X60552033Y-71233094D01*
X60412500Y-71334471D01*
X60254939Y-71404622D01*
X60086236Y-71440481D01*
X59913764Y-71440481D01*
X59745061Y-71404622D01*
X59587500Y-71334471D01*
X59447967Y-71233094D01*
X59332561Y-71104923D01*
X59246325Y-70955558D01*
X59193028Y-70791527D01*
X59175000Y-70620000D01*
X59193028Y-70448473D01*
X59246325Y-70284442D01*
X59332561Y-70135077D01*
X59447967Y-70006906D01*
X59587500Y-69905529D01*
X59745061Y-69835378D01*
X59913764Y-69799519D01*
X60086236Y-69799519D01*
X60254939Y-69835378D01*
G37*
G36*
X62794939Y-69835378D02*
G01*
X62952500Y-69905529D01*
X63092033Y-70006906D01*
X63207439Y-70135077D01*
X63293675Y-70284442D01*
X63346972Y-70448473D01*
X63365000Y-70620000D01*
X63346972Y-70791527D01*
X63293675Y-70955558D01*
X63207439Y-71104923D01*
X63092033Y-71233094D01*
X62952500Y-71334471D01*
X62794939Y-71404622D01*
X62626236Y-71440481D01*
X62453764Y-71440481D01*
X62285061Y-71404622D01*
X62127500Y-71334471D01*
X61987967Y-71233094D01*
X61872561Y-71104923D01*
X61786325Y-70955558D01*
X61733028Y-70791527D01*
X61715000Y-70620000D01*
X61733028Y-70448473D01*
X61786325Y-70284442D01*
X61872561Y-70135077D01*
X61987967Y-70006906D01*
X62127500Y-69905529D01*
X62285061Y-69835378D01*
X62453764Y-69799519D01*
X62626236Y-69799519D01*
X62794939Y-69835378D01*
G37*
G36*
X60254939Y-67295378D02*
G01*
X60412500Y-67365529D01*
X60552033Y-67466906D01*
X60667439Y-67595077D01*
X60753675Y-67744442D01*
X60806972Y-67908473D01*
X60825000Y-68080000D01*
X60806972Y-68251527D01*
X60753675Y-68415558D01*
X60667439Y-68564923D01*
X60552033Y-68693094D01*
X60412500Y-68794471D01*
X60254939Y-68864622D01*
X60086236Y-68900481D01*
X59913764Y-68900481D01*
X59745061Y-68864622D01*
X59587500Y-68794471D01*
X59447967Y-68693094D01*
X59332561Y-68564923D01*
X59246325Y-68415558D01*
X59193028Y-68251527D01*
X59175000Y-68080000D01*
X59193028Y-67908473D01*
X59246325Y-67744442D01*
X59332561Y-67595077D01*
X59447967Y-67466906D01*
X59587500Y-67365529D01*
X59745061Y-67295378D01*
X59913764Y-67259519D01*
X60086236Y-67259519D01*
X60254939Y-67295378D01*
G37*
G36*
X62794939Y-67295378D02*
G01*
X62952500Y-67365529D01*
X63092033Y-67466906D01*
X63207439Y-67595077D01*
X63293675Y-67744442D01*
X63346972Y-67908473D01*
X63365000Y-68080000D01*
X63346972Y-68251527D01*
X63293675Y-68415558D01*
X63207439Y-68564923D01*
X63092033Y-68693094D01*
X62952500Y-68794471D01*
X62794939Y-68864622D01*
X62626236Y-68900481D01*
X62453764Y-68900481D01*
X62285061Y-68864622D01*
X62127500Y-68794471D01*
X61987967Y-68693094D01*
X61872561Y-68564923D01*
X61786325Y-68415558D01*
X61733028Y-68251527D01*
X61715000Y-68080000D01*
X61733028Y-67908473D01*
X61786325Y-67744442D01*
X61872561Y-67595077D01*
X61987967Y-67466906D01*
X62127500Y-67365529D01*
X62285061Y-67295378D01*
X62453764Y-67259519D01*
X62626236Y-67259519D01*
X62794939Y-67295378D01*
G37*
G36*
X147563487Y-67572172D02*
G01*
X147582817Y-67572172D01*
X147606112Y-67580650D01*
X147634714Y-67586340D01*
X147650231Y-67596708D01*
X147663287Y-67601460D01*
X147686523Y-67620957D01*
X147715009Y-67639991D01*
X147722413Y-67651073D01*
X147728886Y-67656504D01*
X147746963Y-67687814D01*
X147768660Y-67720286D01*
X147770210Y-67728078D01*
X147771704Y-67730666D01*
X147779346Y-67774011D01*
X147787500Y-67815000D01*
X147779346Y-67855991D01*
X147771704Y-67899333D01*
X147770210Y-67901920D01*
X147768660Y-67909714D01*
X147746958Y-67942192D01*
X147728886Y-67973495D01*
X147722415Y-67978924D01*
X147715009Y-67990009D01*
X147686517Y-68009046D01*
X147663287Y-68028539D01*
X147650233Y-68033289D01*
X147634714Y-68043660D01*
X147606111Y-68049349D01*
X147582817Y-68057828D01*
X147563487Y-68057828D01*
X147540000Y-68062500D01*
X147516513Y-68057828D01*
X147497183Y-68057828D01*
X147473888Y-68049349D01*
X147445286Y-68043660D01*
X147429767Y-68033290D01*
X147416712Y-68028539D01*
X147393477Y-68009042D01*
X147364991Y-67990009D01*
X147357585Y-67978926D01*
X147351113Y-67973495D01*
X147333033Y-67942181D01*
X147311340Y-67909714D01*
X147309790Y-67901922D01*
X147308295Y-67899333D01*
X147300645Y-67855947D01*
X147292500Y-67815000D01*
X147300644Y-67774056D01*
X147308295Y-67730666D01*
X147309790Y-67728075D01*
X147311340Y-67720286D01*
X147333028Y-67687826D01*
X147351114Y-67656502D01*
X147357588Y-67651068D01*
X147364991Y-67639991D01*
X147393469Y-67620962D01*
X147416711Y-67601461D01*
X147429767Y-67596708D01*
X147445286Y-67586340D01*
X147473889Y-67580650D01*
X147497184Y-67572172D01*
X147516513Y-67572172D01*
X147540000Y-67567500D01*
X147563487Y-67572172D01*
G37*
G36*
X142483487Y-66556172D02*
G01*
X142502817Y-66556172D01*
X142526112Y-66564650D01*
X142554714Y-66570340D01*
X142570231Y-66580708D01*
X142583287Y-66585460D01*
X142606523Y-66604957D01*
X142635009Y-66623991D01*
X142642413Y-66635073D01*
X142648886Y-66640504D01*
X142666963Y-66671814D01*
X142688660Y-66704286D01*
X142690210Y-66712078D01*
X142691704Y-66714666D01*
X142699346Y-66758011D01*
X142707500Y-66799000D01*
X142699346Y-66839991D01*
X142691704Y-66883333D01*
X142690210Y-66885920D01*
X142688660Y-66893714D01*
X142666958Y-66926192D01*
X142648886Y-66957495D01*
X142642415Y-66962924D01*
X142635009Y-66974009D01*
X142606517Y-66993046D01*
X142583287Y-67012539D01*
X142570233Y-67017289D01*
X142554714Y-67027660D01*
X142526111Y-67033349D01*
X142502817Y-67041828D01*
X142483487Y-67041828D01*
X142460000Y-67046500D01*
X142436513Y-67041828D01*
X142417183Y-67041828D01*
X142393888Y-67033349D01*
X142365286Y-67027660D01*
X142349767Y-67017290D01*
X142336712Y-67012539D01*
X142313477Y-66993042D01*
X142284991Y-66974009D01*
X142277585Y-66962926D01*
X142271113Y-66957495D01*
X142253033Y-66926181D01*
X142231340Y-66893714D01*
X142229790Y-66885922D01*
X142228295Y-66883333D01*
X142220645Y-66839947D01*
X142212500Y-66799000D01*
X142220644Y-66758056D01*
X142228295Y-66714666D01*
X142229790Y-66712075D01*
X142231340Y-66704286D01*
X142253028Y-66671826D01*
X142271114Y-66640502D01*
X142277588Y-66635068D01*
X142284991Y-66623991D01*
X142313469Y-66604962D01*
X142336711Y-66585461D01*
X142349767Y-66580708D01*
X142365286Y-66570340D01*
X142393889Y-66564650D01*
X142417184Y-66556172D01*
X142436513Y-66556172D01*
X142460000Y-66551500D01*
X142483487Y-66556172D01*
G37*
G36*
X60254939Y-64755378D02*
G01*
X60412500Y-64825529D01*
X60552033Y-64926906D01*
X60667439Y-65055077D01*
X60753675Y-65204442D01*
X60806972Y-65368473D01*
X60825000Y-65540000D01*
X60806972Y-65711527D01*
X60753675Y-65875558D01*
X60667439Y-66024923D01*
X60552033Y-66153094D01*
X60412500Y-66254471D01*
X60254939Y-66324622D01*
X60086236Y-66360481D01*
X59913764Y-66360481D01*
X59745061Y-66324622D01*
X59587500Y-66254471D01*
X59447967Y-66153094D01*
X59332561Y-66024923D01*
X59246325Y-65875558D01*
X59193028Y-65711527D01*
X59175000Y-65540000D01*
X59193028Y-65368473D01*
X59246325Y-65204442D01*
X59332561Y-65055077D01*
X59447967Y-64926906D01*
X59587500Y-64825529D01*
X59745061Y-64755378D01*
X59913764Y-64719519D01*
X60086236Y-64719519D01*
X60254939Y-64755378D01*
G37*
G36*
X62794939Y-64755378D02*
G01*
X62952500Y-64825529D01*
X63092033Y-64926906D01*
X63207439Y-65055077D01*
X63293675Y-65204442D01*
X63346972Y-65368473D01*
X63365000Y-65540000D01*
X63346972Y-65711527D01*
X63293675Y-65875558D01*
X63207439Y-66024923D01*
X63092033Y-66153094D01*
X62952500Y-66254471D01*
X62794939Y-66324622D01*
X62626236Y-66360481D01*
X62453764Y-66360481D01*
X62285061Y-66324622D01*
X62127500Y-66254471D01*
X61987967Y-66153094D01*
X61872561Y-66024923D01*
X61786325Y-65875558D01*
X61733028Y-65711527D01*
X61715000Y-65540000D01*
X61733028Y-65368473D01*
X61786325Y-65204442D01*
X61872561Y-65055077D01*
X61987967Y-64926906D01*
X62127500Y-64825529D01*
X62285061Y-64755378D01*
X62453764Y-64719519D01*
X62626236Y-64719519D01*
X62794939Y-64755378D01*
G37*
G36*
X147563487Y-65540172D02*
G01*
X147582817Y-65540172D01*
X147606112Y-65548650D01*
X147634714Y-65554340D01*
X147650231Y-65564708D01*
X147663287Y-65569460D01*
X147686523Y-65588957D01*
X147715009Y-65607991D01*
X147722413Y-65619073D01*
X147728886Y-65624504D01*
X147746963Y-65655814D01*
X147768660Y-65688286D01*
X147770210Y-65696078D01*
X147771704Y-65698666D01*
X147779346Y-65742011D01*
X147787500Y-65783000D01*
X147779346Y-65823991D01*
X147771704Y-65867333D01*
X147770210Y-65869920D01*
X147768660Y-65877714D01*
X147746958Y-65910192D01*
X147728886Y-65941495D01*
X147722415Y-65946924D01*
X147715009Y-65958009D01*
X147686517Y-65977046D01*
X147663287Y-65996539D01*
X147650233Y-66001289D01*
X147634714Y-66011660D01*
X147606111Y-66017349D01*
X147582817Y-66025828D01*
X147563487Y-66025828D01*
X147540000Y-66030500D01*
X147516513Y-66025828D01*
X147497183Y-66025828D01*
X147473888Y-66017349D01*
X147445286Y-66011660D01*
X147429767Y-66001290D01*
X147416712Y-65996539D01*
X147393477Y-65977042D01*
X147364991Y-65958009D01*
X147357585Y-65946926D01*
X147351113Y-65941495D01*
X147333033Y-65910181D01*
X147311340Y-65877714D01*
X147309790Y-65869922D01*
X147308295Y-65867333D01*
X147300645Y-65823947D01*
X147292500Y-65783000D01*
X147300644Y-65742056D01*
X147308295Y-65698666D01*
X147309790Y-65696075D01*
X147311340Y-65688286D01*
X147333028Y-65655826D01*
X147351114Y-65624502D01*
X147357588Y-65619068D01*
X147364991Y-65607991D01*
X147393469Y-65588962D01*
X147416711Y-65569461D01*
X147429767Y-65564708D01*
X147445286Y-65554340D01*
X147473889Y-65548650D01*
X147497184Y-65540172D01*
X147516513Y-65540172D01*
X147540000Y-65535500D01*
X147563487Y-65540172D01*
G37*
G36*
X60254939Y-62215378D02*
G01*
X60412500Y-62285529D01*
X60552033Y-62386906D01*
X60667439Y-62515077D01*
X60753675Y-62664442D01*
X60806972Y-62828473D01*
X60825000Y-63000000D01*
X60806972Y-63171527D01*
X60753675Y-63335558D01*
X60667439Y-63484923D01*
X60552033Y-63613094D01*
X60412500Y-63714471D01*
X60254939Y-63784622D01*
X60086236Y-63820481D01*
X59913764Y-63820481D01*
X59745061Y-63784622D01*
X59587500Y-63714471D01*
X59447967Y-63613094D01*
X59332561Y-63484923D01*
X59246325Y-63335558D01*
X59193028Y-63171527D01*
X59175000Y-63000000D01*
X59193028Y-62828473D01*
X59246325Y-62664442D01*
X59332561Y-62515077D01*
X59447967Y-62386906D01*
X59587500Y-62285529D01*
X59745061Y-62215378D01*
X59913764Y-62179519D01*
X60086236Y-62179519D01*
X60254939Y-62215378D01*
G37*
G36*
X62794939Y-62215378D02*
G01*
X62952500Y-62285529D01*
X63092033Y-62386906D01*
X63207439Y-62515077D01*
X63293675Y-62664442D01*
X63346972Y-62828473D01*
X63365000Y-63000000D01*
X63346972Y-63171527D01*
X63293675Y-63335558D01*
X63207439Y-63484923D01*
X63092033Y-63613094D01*
X62952500Y-63714471D01*
X62794939Y-63784622D01*
X62626236Y-63820481D01*
X62453764Y-63820481D01*
X62285061Y-63784622D01*
X62127500Y-63714471D01*
X61987967Y-63613094D01*
X61872561Y-63484923D01*
X61786325Y-63335558D01*
X61733028Y-63171527D01*
X61715000Y-63000000D01*
X61733028Y-62828473D01*
X61786325Y-62664442D01*
X61872561Y-62515077D01*
X61987967Y-62386906D01*
X62127500Y-62285529D01*
X62285061Y-62215378D01*
X62453764Y-62179519D01*
X62626236Y-62179519D01*
X62794939Y-62215378D01*
G37*
G36*
X60254939Y-59675378D02*
G01*
X60412500Y-59745529D01*
X60552033Y-59846906D01*
X60667439Y-59975077D01*
X60753675Y-60124442D01*
X60806972Y-60288473D01*
X60825000Y-60460000D01*
X60806972Y-60631527D01*
X60753675Y-60795558D01*
X60667439Y-60944923D01*
X60552033Y-61073094D01*
X60412500Y-61174471D01*
X60254939Y-61244622D01*
X60086236Y-61280481D01*
X59913764Y-61280481D01*
X59745061Y-61244622D01*
X59587500Y-61174471D01*
X59447967Y-61073094D01*
X59332561Y-60944923D01*
X59246325Y-60795558D01*
X59193028Y-60631527D01*
X59175000Y-60460000D01*
X59193028Y-60288473D01*
X59246325Y-60124442D01*
X59332561Y-59975077D01*
X59447967Y-59846906D01*
X59587500Y-59745529D01*
X59745061Y-59675378D01*
X59913764Y-59639519D01*
X60086236Y-59639519D01*
X60254939Y-59675378D01*
G37*
G36*
X62794939Y-59675378D02*
G01*
X62952500Y-59745529D01*
X63092033Y-59846906D01*
X63207439Y-59975077D01*
X63293675Y-60124442D01*
X63346972Y-60288473D01*
X63365000Y-60460000D01*
X63346972Y-60631527D01*
X63293675Y-60795558D01*
X63207439Y-60944923D01*
X63092033Y-61073094D01*
X62952500Y-61174471D01*
X62794939Y-61244622D01*
X62626236Y-61280481D01*
X62453764Y-61280481D01*
X62285061Y-61244622D01*
X62127500Y-61174471D01*
X61987967Y-61073094D01*
X61872561Y-60944923D01*
X61786325Y-60795558D01*
X61733028Y-60631527D01*
X61715000Y-60460000D01*
X61733028Y-60288473D01*
X61786325Y-60124442D01*
X61872561Y-59975077D01*
X61987967Y-59846906D01*
X62127500Y-59745529D01*
X62285061Y-59675378D01*
X62453764Y-59639519D01*
X62626236Y-59639519D01*
X62794939Y-59675378D01*
G37*
G36*
X60254939Y-57135378D02*
G01*
X60412500Y-57205529D01*
X60552033Y-57306906D01*
X60667439Y-57435077D01*
X60753675Y-57584442D01*
X60806972Y-57748473D01*
X60825000Y-57920000D01*
X60806972Y-58091527D01*
X60753675Y-58255558D01*
X60667439Y-58404923D01*
X60552033Y-58533094D01*
X60412500Y-58634471D01*
X60254939Y-58704622D01*
X60086236Y-58740481D01*
X59913764Y-58740481D01*
X59745061Y-58704622D01*
X59587500Y-58634471D01*
X59447967Y-58533094D01*
X59332561Y-58404923D01*
X59246325Y-58255558D01*
X59193028Y-58091527D01*
X59175000Y-57920000D01*
X59193028Y-57748473D01*
X59246325Y-57584442D01*
X59332561Y-57435077D01*
X59447967Y-57306906D01*
X59587500Y-57205529D01*
X59745061Y-57135378D01*
X59913764Y-57099519D01*
X60086236Y-57099519D01*
X60254939Y-57135378D01*
G37*
G36*
X62794939Y-57135378D02*
G01*
X62952500Y-57205529D01*
X63092033Y-57306906D01*
X63207439Y-57435077D01*
X63293675Y-57584442D01*
X63346972Y-57748473D01*
X63365000Y-57920000D01*
X63346972Y-58091527D01*
X63293675Y-58255558D01*
X63207439Y-58404923D01*
X63092033Y-58533094D01*
X62952500Y-58634471D01*
X62794939Y-58704622D01*
X62626236Y-58740481D01*
X62453764Y-58740481D01*
X62285061Y-58704622D01*
X62127500Y-58634471D01*
X61987967Y-58533094D01*
X61872561Y-58404923D01*
X61786325Y-58255558D01*
X61733028Y-58091527D01*
X61715000Y-57920000D01*
X61733028Y-57748473D01*
X61786325Y-57584442D01*
X61872561Y-57435077D01*
X61987967Y-57306906D01*
X62127500Y-57205529D01*
X62285061Y-57135378D01*
X62453764Y-57099519D01*
X62626236Y-57099519D01*
X62794939Y-57135378D01*
G37*
G36*
X60254939Y-54595378D02*
G01*
X60412500Y-54665529D01*
X60552033Y-54766906D01*
X60667439Y-54895077D01*
X60753675Y-55044442D01*
X60806972Y-55208473D01*
X60825000Y-55380000D01*
X60806972Y-55551527D01*
X60753675Y-55715558D01*
X60667439Y-55864923D01*
X60552033Y-55993094D01*
X60412500Y-56094471D01*
X60254939Y-56164622D01*
X60086236Y-56200481D01*
X59913764Y-56200481D01*
X59745061Y-56164622D01*
X59587500Y-56094471D01*
X59447967Y-55993094D01*
X59332561Y-55864923D01*
X59246325Y-55715558D01*
X59193028Y-55551527D01*
X59175000Y-55380000D01*
X59193028Y-55208473D01*
X59246325Y-55044442D01*
X59332561Y-54895077D01*
X59447967Y-54766906D01*
X59587500Y-54665529D01*
X59745061Y-54595378D01*
X59913764Y-54559519D01*
X60086236Y-54559519D01*
X60254939Y-54595378D01*
G37*
G36*
X62794939Y-54595378D02*
G01*
X62952500Y-54665529D01*
X63092033Y-54766906D01*
X63207439Y-54895077D01*
X63293675Y-55044442D01*
X63346972Y-55208473D01*
X63365000Y-55380000D01*
X63346972Y-55551527D01*
X63293675Y-55715558D01*
X63207439Y-55864923D01*
X63092033Y-55993094D01*
X62952500Y-56094471D01*
X62794939Y-56164622D01*
X62626236Y-56200481D01*
X62453764Y-56200481D01*
X62285061Y-56164622D01*
X62127500Y-56094471D01*
X61987967Y-55993094D01*
X61872561Y-55864923D01*
X61786325Y-55715558D01*
X61733028Y-55551527D01*
X61715000Y-55380000D01*
X61733028Y-55208473D01*
X61786325Y-55044442D01*
X61872561Y-54895077D01*
X61987967Y-54766906D01*
X62127500Y-54665529D01*
X62285061Y-54595378D01*
X62453764Y-54559519D01*
X62626236Y-54559519D01*
X62794939Y-54595378D01*
G37*
G36*
X139602008Y-51010543D02*
G01*
X139643081Y-51010543D01*
X139689413Y-51020391D01*
X139736035Y-51025644D01*
X139769933Y-51037505D01*
X139804049Y-51044757D01*
X139853216Y-51066647D01*
X139902483Y-51083887D01*
X139928126Y-51100000D01*
X139954385Y-51111691D01*
X140003346Y-51147263D01*
X140051798Y-51177708D01*
X140069198Y-51195108D01*
X140087520Y-51208420D01*
X140132811Y-51258721D01*
X140176492Y-51302402D01*
X140186539Y-51318392D01*
X140197631Y-51330711D01*
X140235574Y-51396430D01*
X140270313Y-51451717D01*
X140274650Y-51464112D01*
X140279916Y-51473233D01*
X140306882Y-51556225D01*
X140328556Y-51618165D01*
X140329377Y-51625458D01*
X140330768Y-51629737D01*
X140343374Y-51749683D01*
X140348300Y-51793400D01*
X140343373Y-51837120D01*
X140330768Y-51957062D01*
X140329377Y-51961340D01*
X140328556Y-51968635D01*
X140306877Y-52030587D01*
X140279916Y-52113566D01*
X140274651Y-52122684D01*
X140270313Y-52135083D01*
X140235566Y-52190381D01*
X140197631Y-52256088D01*
X140186541Y-52268403D01*
X140176492Y-52284398D01*
X140132802Y-52328087D01*
X140087520Y-52378379D01*
X140069202Y-52391687D01*
X140051798Y-52409092D01*
X140003335Y-52439542D01*
X139954385Y-52475108D01*
X139928132Y-52486796D01*
X139902483Y-52502913D01*
X139853205Y-52520155D01*
X139804049Y-52542042D01*
X139769939Y-52549292D01*
X139736035Y-52561156D01*
X139689410Y-52566409D01*
X139643081Y-52576257D01*
X139602008Y-52576257D01*
X139560800Y-52580900D01*
X139519592Y-52576257D01*
X139478519Y-52576257D01*
X139432188Y-52566409D01*
X139385565Y-52561156D01*
X139351661Y-52549292D01*
X139317550Y-52542042D01*
X139268389Y-52520154D01*
X139219117Y-52502913D01*
X139193470Y-52486798D01*
X139167214Y-52475108D01*
X139118256Y-52439538D01*
X139069802Y-52409092D01*
X139052400Y-52391690D01*
X139034079Y-52378379D01*
X138988787Y-52328077D01*
X138945108Y-52284398D01*
X138935060Y-52268407D01*
X138923968Y-52256088D01*
X138886020Y-52190361D01*
X138851287Y-52135083D01*
X138846950Y-52122688D01*
X138841683Y-52113566D01*
X138814708Y-52030547D01*
X138793044Y-51968635D01*
X138792222Y-51961344D01*
X138790831Y-51957062D01*
X138778211Y-51836988D01*
X138773300Y-51793400D01*
X138778210Y-51749815D01*
X138790831Y-51629737D01*
X138792222Y-51625453D01*
X138793044Y-51618165D01*
X138814703Y-51556265D01*
X138841683Y-51473233D01*
X138846950Y-51464108D01*
X138851287Y-51451717D01*
X138886013Y-51396449D01*
X138923968Y-51330711D01*
X138935062Y-51318389D01*
X138945108Y-51302402D01*
X138988777Y-51258732D01*
X139034079Y-51208420D01*
X139052403Y-51195106D01*
X139069802Y-51177708D01*
X139118251Y-51147265D01*
X139167215Y-51111691D01*
X139193473Y-51100000D01*
X139219117Y-51083887D01*
X139268383Y-51066647D01*
X139317551Y-51044757D01*
X139351666Y-51037505D01*
X139385565Y-51025644D01*
X139432186Y-51020391D01*
X139478519Y-51010543D01*
X139519592Y-51010543D01*
X139560800Y-51005900D01*
X139602008Y-51010543D01*
G37*
G36*
X147602008Y-51010543D02*
G01*
X147643081Y-51010543D01*
X147689413Y-51020391D01*
X147736035Y-51025644D01*
X147769933Y-51037505D01*
X147804049Y-51044757D01*
X147853216Y-51066647D01*
X147902483Y-51083887D01*
X147928126Y-51100000D01*
X147954385Y-51111691D01*
X148003346Y-51147263D01*
X148051798Y-51177708D01*
X148069198Y-51195108D01*
X148087520Y-51208420D01*
X148132811Y-51258721D01*
X148176492Y-51302402D01*
X148186539Y-51318392D01*
X148197631Y-51330711D01*
X148235574Y-51396430D01*
X148270313Y-51451717D01*
X148274650Y-51464112D01*
X148279916Y-51473233D01*
X148306882Y-51556225D01*
X148328556Y-51618165D01*
X148329377Y-51625458D01*
X148330768Y-51629737D01*
X148343374Y-51749683D01*
X148348300Y-51793400D01*
X148343373Y-51837120D01*
X148330768Y-51957062D01*
X148329377Y-51961340D01*
X148328556Y-51968635D01*
X148306877Y-52030587D01*
X148279916Y-52113566D01*
X148274651Y-52122684D01*
X148270313Y-52135083D01*
X148235566Y-52190381D01*
X148197631Y-52256088D01*
X148186541Y-52268403D01*
X148176492Y-52284398D01*
X148132802Y-52328087D01*
X148087520Y-52378379D01*
X148069202Y-52391687D01*
X148051798Y-52409092D01*
X148003335Y-52439542D01*
X147954385Y-52475108D01*
X147928132Y-52486796D01*
X147902483Y-52502913D01*
X147853205Y-52520155D01*
X147804049Y-52542042D01*
X147769939Y-52549292D01*
X147736035Y-52561156D01*
X147689410Y-52566409D01*
X147643081Y-52576257D01*
X147602008Y-52576257D01*
X147560800Y-52580900D01*
X147519592Y-52576257D01*
X147478519Y-52576257D01*
X147432188Y-52566409D01*
X147385565Y-52561156D01*
X147351661Y-52549292D01*
X147317550Y-52542042D01*
X147268389Y-52520154D01*
X147219117Y-52502913D01*
X147193470Y-52486798D01*
X147167214Y-52475108D01*
X147118256Y-52439538D01*
X147069802Y-52409092D01*
X147052400Y-52391690D01*
X147034079Y-52378379D01*
X146988787Y-52328077D01*
X146945108Y-52284398D01*
X146935060Y-52268407D01*
X146923968Y-52256088D01*
X146886020Y-52190361D01*
X146851287Y-52135083D01*
X146846950Y-52122688D01*
X146841683Y-52113566D01*
X146814708Y-52030547D01*
X146793044Y-51968635D01*
X146792222Y-51961344D01*
X146790831Y-51957062D01*
X146778211Y-51836988D01*
X146773300Y-51793400D01*
X146778210Y-51749815D01*
X146790831Y-51629737D01*
X146792222Y-51625453D01*
X146793044Y-51618165D01*
X146814703Y-51556265D01*
X146841683Y-51473233D01*
X146846950Y-51464108D01*
X146851287Y-51451717D01*
X146886013Y-51396449D01*
X146923968Y-51330711D01*
X146935062Y-51318389D01*
X146945108Y-51302402D01*
X146988777Y-51258732D01*
X147034079Y-51208420D01*
X147052403Y-51195106D01*
X147069802Y-51177708D01*
X147118251Y-51147265D01*
X147167215Y-51111691D01*
X147193473Y-51100000D01*
X147219117Y-51083887D01*
X147268383Y-51066647D01*
X147317551Y-51044757D01*
X147351666Y-51037505D01*
X147385565Y-51025644D01*
X147432186Y-51020391D01*
X147478519Y-51010543D01*
X147519592Y-51010543D01*
X147560800Y-51005900D01*
X147602008Y-51010543D01*
G37*
G36*
X139602008Y-45010543D02*
G01*
X139643081Y-45010543D01*
X139689413Y-45020391D01*
X139736035Y-45025644D01*
X139769933Y-45037505D01*
X139804049Y-45044757D01*
X139853216Y-45066647D01*
X139902483Y-45083887D01*
X139928126Y-45100000D01*
X139954385Y-45111691D01*
X140003346Y-45147263D01*
X140051798Y-45177708D01*
X140069198Y-45195108D01*
X140087520Y-45208420D01*
X140132811Y-45258721D01*
X140176492Y-45302402D01*
X140186539Y-45318392D01*
X140197631Y-45330711D01*
X140235574Y-45396430D01*
X140270313Y-45451717D01*
X140274650Y-45464112D01*
X140279916Y-45473233D01*
X140306882Y-45556225D01*
X140328556Y-45618165D01*
X140329377Y-45625458D01*
X140330768Y-45629737D01*
X140343374Y-45749683D01*
X140348300Y-45793400D01*
X140343373Y-45837120D01*
X140330768Y-45957062D01*
X140329377Y-45961340D01*
X140328556Y-45968635D01*
X140306877Y-46030587D01*
X140279916Y-46113566D01*
X140274651Y-46122684D01*
X140270313Y-46135083D01*
X140235566Y-46190381D01*
X140197631Y-46256088D01*
X140186541Y-46268403D01*
X140176492Y-46284398D01*
X140132802Y-46328087D01*
X140087520Y-46378379D01*
X140069202Y-46391687D01*
X140051798Y-46409092D01*
X140003335Y-46439542D01*
X139954385Y-46475108D01*
X139928132Y-46486796D01*
X139902483Y-46502913D01*
X139853205Y-46520155D01*
X139804049Y-46542042D01*
X139769939Y-46549292D01*
X139736035Y-46561156D01*
X139689410Y-46566409D01*
X139643081Y-46576257D01*
X139602008Y-46576257D01*
X139560800Y-46580900D01*
X139519592Y-46576257D01*
X139478519Y-46576257D01*
X139432188Y-46566409D01*
X139385565Y-46561156D01*
X139351661Y-46549292D01*
X139317550Y-46542042D01*
X139268389Y-46520154D01*
X139219117Y-46502913D01*
X139193470Y-46486798D01*
X139167214Y-46475108D01*
X139118256Y-46439538D01*
X139069802Y-46409092D01*
X139052400Y-46391690D01*
X139034079Y-46378379D01*
X138988787Y-46328077D01*
X138945108Y-46284398D01*
X138935060Y-46268407D01*
X138923968Y-46256088D01*
X138886020Y-46190361D01*
X138851287Y-46135083D01*
X138846950Y-46122688D01*
X138841683Y-46113566D01*
X138814708Y-46030547D01*
X138793044Y-45968635D01*
X138792222Y-45961344D01*
X138790831Y-45957062D01*
X138778211Y-45836988D01*
X138773300Y-45793400D01*
X138778210Y-45749815D01*
X138790831Y-45629737D01*
X138792222Y-45625453D01*
X138793044Y-45618165D01*
X138814703Y-45556265D01*
X138841683Y-45473233D01*
X138846950Y-45464108D01*
X138851287Y-45451717D01*
X138886013Y-45396449D01*
X138923968Y-45330711D01*
X138935062Y-45318389D01*
X138945108Y-45302402D01*
X138988777Y-45258732D01*
X139034079Y-45208420D01*
X139052403Y-45195106D01*
X139069802Y-45177708D01*
X139118251Y-45147265D01*
X139167215Y-45111691D01*
X139193473Y-45100000D01*
X139219117Y-45083887D01*
X139268383Y-45066647D01*
X139317551Y-45044757D01*
X139351666Y-45037505D01*
X139385565Y-45025644D01*
X139432186Y-45020391D01*
X139478519Y-45010543D01*
X139519592Y-45010543D01*
X139560800Y-45005900D01*
X139602008Y-45010543D01*
G37*
G36*
X147602008Y-45010543D02*
G01*
X147643081Y-45010543D01*
X147689413Y-45020391D01*
X147736035Y-45025644D01*
X147769933Y-45037505D01*
X147804049Y-45044757D01*
X147853216Y-45066647D01*
X147902483Y-45083887D01*
X147928126Y-45100000D01*
X147954385Y-45111691D01*
X148003346Y-45147263D01*
X148051798Y-45177708D01*
X148069198Y-45195108D01*
X148087520Y-45208420D01*
X148132811Y-45258721D01*
X148176492Y-45302402D01*
X148186539Y-45318392D01*
X148197631Y-45330711D01*
X148235574Y-45396430D01*
X148270313Y-45451717D01*
X148274650Y-45464112D01*
X148279916Y-45473233D01*
X148306882Y-45556225D01*
X148328556Y-45618165D01*
X148329377Y-45625458D01*
X148330768Y-45629737D01*
X148343374Y-45749683D01*
X148348300Y-45793400D01*
X148343373Y-45837120D01*
X148330768Y-45957062D01*
X148329377Y-45961340D01*
X148328556Y-45968635D01*
X148306877Y-46030587D01*
X148279916Y-46113566D01*
X148274651Y-46122684D01*
X148270313Y-46135083D01*
X148235566Y-46190381D01*
X148197631Y-46256088D01*
X148186541Y-46268403D01*
X148176492Y-46284398D01*
X148132802Y-46328087D01*
X148087520Y-46378379D01*
X148069202Y-46391687D01*
X148051798Y-46409092D01*
X148003335Y-46439542D01*
X147954385Y-46475108D01*
X147928132Y-46486796D01*
X147902483Y-46502913D01*
X147853205Y-46520155D01*
X147804049Y-46542042D01*
X147769939Y-46549292D01*
X147736035Y-46561156D01*
X147689410Y-46566409D01*
X147643081Y-46576257D01*
X147602008Y-46576257D01*
X147560800Y-46580900D01*
X147519592Y-46576257D01*
X147478519Y-46576257D01*
X147432188Y-46566409D01*
X147385565Y-46561156D01*
X147351661Y-46549292D01*
X147317550Y-46542042D01*
X147268389Y-46520154D01*
X147219117Y-46502913D01*
X147193470Y-46486798D01*
X147167214Y-46475108D01*
X147118256Y-46439538D01*
X147069802Y-46409092D01*
X147052400Y-46391690D01*
X147034079Y-46378379D01*
X146988787Y-46328077D01*
X146945108Y-46284398D01*
X146935060Y-46268407D01*
X146923968Y-46256088D01*
X146886020Y-46190361D01*
X146851287Y-46135083D01*
X146846950Y-46122688D01*
X146841683Y-46113566D01*
X146814708Y-46030547D01*
X146793044Y-45968635D01*
X146792222Y-45961344D01*
X146790831Y-45957062D01*
X146778211Y-45836988D01*
X146773300Y-45793400D01*
X146778210Y-45749815D01*
X146790831Y-45629737D01*
X146792222Y-45625453D01*
X146793044Y-45618165D01*
X146814703Y-45556265D01*
X146841683Y-45473233D01*
X146846950Y-45464108D01*
X146851287Y-45451717D01*
X146886013Y-45396449D01*
X146923968Y-45330711D01*
X146935062Y-45318389D01*
X146945108Y-45302402D01*
X146988777Y-45258732D01*
X147034079Y-45208420D01*
X147052403Y-45195106D01*
X147069802Y-45177708D01*
X147118251Y-45147265D01*
X147167215Y-45111691D01*
X147193473Y-45100000D01*
X147219117Y-45083887D01*
X147268383Y-45066647D01*
X147317551Y-45044757D01*
X147351666Y-45037505D01*
X147385565Y-45025644D01*
X147432186Y-45020391D01*
X147478519Y-45010543D01*
X147519592Y-45010543D01*
X147560800Y-45005900D01*
X147602008Y-45010543D01*
G37*
G36*
X100147113Y-36824930D02*
G01*
X100194076Y-36824930D01*
X100234622Y-36833548D01*
X100275526Y-36837577D01*
X100326916Y-36853166D01*
X100378115Y-36864049D01*
X100410879Y-36878636D01*
X100444304Y-36888776D01*
X100497420Y-36917166D01*
X100550000Y-36940577D01*
X100574445Y-36958337D01*
X100599849Y-36971916D01*
X100651669Y-37014444D01*
X100702218Y-37051170D01*
X100718631Y-37069398D01*
X100736190Y-37083809D01*
X100783379Y-37141308D01*
X100828115Y-37190993D01*
X100837512Y-37207269D01*
X100848083Y-37220150D01*
X100887183Y-37293302D01*
X100922191Y-37353937D01*
X100926218Y-37366331D01*
X100931223Y-37375695D01*
X100958821Y-37466672D01*
X100980333Y-37532879D01*
X100981090Y-37540082D01*
X100982422Y-37544473D01*
X100995377Y-37676021D01*
X101000000Y-37720000D01*
X100995377Y-37763982D01*
X100982422Y-37895526D01*
X100981090Y-37899916D01*
X100980333Y-37907121D01*
X100958816Y-37973341D01*
X100931223Y-38064304D01*
X100926219Y-38073665D01*
X100922191Y-38086063D01*
X100887176Y-38146709D01*
X100848083Y-38219849D01*
X100837514Y-38232726D01*
X100828115Y-38249007D01*
X100783369Y-38298701D01*
X100736190Y-38356190D01*
X100718634Y-38370597D01*
X100702218Y-38388830D01*
X100651659Y-38425563D01*
X100599849Y-38468083D01*
X100574450Y-38481658D01*
X100550000Y-38499423D01*
X100497408Y-38522838D01*
X100444304Y-38551223D01*
X100410886Y-38561360D01*
X100378115Y-38575951D01*
X100326905Y-38586836D01*
X100275526Y-38602422D01*
X100234631Y-38606449D01*
X100194076Y-38615070D01*
X100147103Y-38615070D01*
X100100000Y-38619709D01*
X100052897Y-38615070D01*
X100005924Y-38615070D01*
X99965368Y-38606449D01*
X99924473Y-38602422D01*
X99873091Y-38586835D01*
X99821885Y-38575951D01*
X99789115Y-38561361D01*
X99755695Y-38551223D01*
X99702585Y-38522835D01*
X99650000Y-38499423D01*
X99625552Y-38481660D01*
X99600150Y-38468083D01*
X99548332Y-38425556D01*
X99497782Y-38388830D01*
X99481368Y-38370600D01*
X99463809Y-38356190D01*
X99416618Y-38298688D01*
X99371885Y-38249007D01*
X99362487Y-38232730D01*
X99351916Y-38219849D01*
X99312810Y-38146686D01*
X99277809Y-38086063D01*
X99273782Y-38073670D01*
X99268776Y-38064304D01*
X99241168Y-37973294D01*
X99219667Y-37907121D01*
X99218910Y-37899921D01*
X99217577Y-37895526D01*
X99204606Y-37763831D01*
X99200000Y-37720000D01*
X99204606Y-37676172D01*
X99217577Y-37544473D01*
X99218910Y-37540077D01*
X99219667Y-37532879D01*
X99241163Y-37466719D01*
X99268776Y-37375695D01*
X99273783Y-37366327D01*
X99277809Y-37353937D01*
X99312802Y-37293326D01*
X99351916Y-37220150D01*
X99362489Y-37207265D01*
X99371885Y-37190993D01*
X99416609Y-37141321D01*
X99463809Y-37083809D01*
X99481371Y-37069395D01*
X99497782Y-37051170D01*
X99548321Y-37014450D01*
X99600150Y-36971916D01*
X99625557Y-36958335D01*
X99650000Y-36940577D01*
X99702573Y-36917169D01*
X99755695Y-36888776D01*
X99789122Y-36878635D01*
X99821885Y-36864049D01*
X99873080Y-36853166D01*
X99924473Y-36837577D01*
X99965377Y-36833548D01*
X100005924Y-36824930D01*
X100052887Y-36824930D01*
X100100000Y-36820290D01*
X100147113Y-36824930D01*
G37*
G36*
X115647113Y-36824930D02*
G01*
X115694076Y-36824930D01*
X115734622Y-36833548D01*
X115775526Y-36837577D01*
X115826916Y-36853166D01*
X115878115Y-36864049D01*
X115910879Y-36878636D01*
X115944304Y-36888776D01*
X115997420Y-36917166D01*
X116050000Y-36940577D01*
X116074445Y-36958337D01*
X116099849Y-36971916D01*
X116151669Y-37014444D01*
X116202218Y-37051170D01*
X116218631Y-37069398D01*
X116236190Y-37083809D01*
X116283379Y-37141308D01*
X116328115Y-37190993D01*
X116337512Y-37207269D01*
X116348083Y-37220150D01*
X116387183Y-37293302D01*
X116422191Y-37353937D01*
X116426218Y-37366331D01*
X116431223Y-37375695D01*
X116458821Y-37466672D01*
X116480333Y-37532879D01*
X116481090Y-37540082D01*
X116482422Y-37544473D01*
X116495377Y-37676021D01*
X116500000Y-37720000D01*
X116495377Y-37763982D01*
X116482422Y-37895526D01*
X116481090Y-37899916D01*
X116480333Y-37907121D01*
X116458816Y-37973341D01*
X116431223Y-38064304D01*
X116426219Y-38073665D01*
X116422191Y-38086063D01*
X116387176Y-38146709D01*
X116348083Y-38219849D01*
X116337514Y-38232726D01*
X116328115Y-38249007D01*
X116283369Y-38298701D01*
X116236190Y-38356190D01*
X116218634Y-38370597D01*
X116202218Y-38388830D01*
X116151659Y-38425563D01*
X116099849Y-38468083D01*
X116074450Y-38481658D01*
X116050000Y-38499423D01*
X115997408Y-38522838D01*
X115944304Y-38551223D01*
X115910886Y-38561360D01*
X115878115Y-38575951D01*
X115826905Y-38586836D01*
X115775526Y-38602422D01*
X115734631Y-38606449D01*
X115694076Y-38615070D01*
X115647103Y-38615070D01*
X115600000Y-38619709D01*
X115552897Y-38615070D01*
X115505924Y-38615070D01*
X115465368Y-38606449D01*
X115424473Y-38602422D01*
X115373091Y-38586835D01*
X115321885Y-38575951D01*
X115289115Y-38561361D01*
X115255695Y-38551223D01*
X115202585Y-38522835D01*
X115150000Y-38499423D01*
X115125552Y-38481660D01*
X115100150Y-38468083D01*
X115048332Y-38425556D01*
X114997782Y-38388830D01*
X114981368Y-38370600D01*
X114963809Y-38356190D01*
X114916618Y-38298688D01*
X114871885Y-38249007D01*
X114862487Y-38232730D01*
X114851916Y-38219849D01*
X114812810Y-38146686D01*
X114777809Y-38086063D01*
X114773782Y-38073670D01*
X114768776Y-38064304D01*
X114741168Y-37973294D01*
X114719667Y-37907121D01*
X114718910Y-37899921D01*
X114717577Y-37895526D01*
X114704606Y-37763831D01*
X114700000Y-37720000D01*
X114704606Y-37676172D01*
X114717577Y-37544473D01*
X114718910Y-37540077D01*
X114719667Y-37532879D01*
X114741163Y-37466719D01*
X114768776Y-37375695D01*
X114773783Y-37366327D01*
X114777809Y-37353937D01*
X114812802Y-37293326D01*
X114851916Y-37220150D01*
X114862489Y-37207265D01*
X114871885Y-37190993D01*
X114916609Y-37141321D01*
X114963809Y-37083809D01*
X114981371Y-37069395D01*
X114997782Y-37051170D01*
X115048321Y-37014450D01*
X115100150Y-36971916D01*
X115125557Y-36958335D01*
X115150000Y-36940577D01*
X115202573Y-36917169D01*
X115255695Y-36888776D01*
X115289122Y-36878635D01*
X115321885Y-36864049D01*
X115373080Y-36853166D01*
X115424473Y-36837577D01*
X115465377Y-36833548D01*
X115505924Y-36824930D01*
X115552887Y-36824930D01*
X115600000Y-36820290D01*
X115647113Y-36824930D01*
G37*
G36*
X100147113Y-34284930D02*
G01*
X100194076Y-34284930D01*
X100234622Y-34293548D01*
X100275526Y-34297577D01*
X100326916Y-34313166D01*
X100378115Y-34324049D01*
X100410879Y-34338636D01*
X100444304Y-34348776D01*
X100497420Y-34377166D01*
X100550000Y-34400577D01*
X100574445Y-34418337D01*
X100599849Y-34431916D01*
X100651669Y-34474444D01*
X100702218Y-34511170D01*
X100718631Y-34529398D01*
X100736190Y-34543809D01*
X100783379Y-34601308D01*
X100828115Y-34650993D01*
X100837512Y-34667269D01*
X100848083Y-34680150D01*
X100887183Y-34753302D01*
X100922191Y-34813937D01*
X100926218Y-34826331D01*
X100931223Y-34835695D01*
X100958821Y-34926672D01*
X100980333Y-34992879D01*
X100981090Y-35000082D01*
X100982422Y-35004473D01*
X100995377Y-35136021D01*
X101000000Y-35180000D01*
X100995377Y-35223982D01*
X100982422Y-35355526D01*
X100981090Y-35359916D01*
X100980333Y-35367121D01*
X100958816Y-35433341D01*
X100931223Y-35524304D01*
X100926219Y-35533665D01*
X100922191Y-35546063D01*
X100887176Y-35606709D01*
X100848083Y-35679849D01*
X100837514Y-35692726D01*
X100828115Y-35709007D01*
X100783369Y-35758701D01*
X100736190Y-35816190D01*
X100718634Y-35830597D01*
X100702218Y-35848830D01*
X100651659Y-35885563D01*
X100599849Y-35928083D01*
X100574450Y-35941658D01*
X100550000Y-35959423D01*
X100497408Y-35982838D01*
X100444304Y-36011223D01*
X100410886Y-36021360D01*
X100378115Y-36035951D01*
X100326905Y-36046836D01*
X100275526Y-36062422D01*
X100234631Y-36066449D01*
X100194076Y-36075070D01*
X100147103Y-36075070D01*
X100100000Y-36079709D01*
X100052897Y-36075070D01*
X100005924Y-36075070D01*
X99965368Y-36066449D01*
X99924473Y-36062422D01*
X99873091Y-36046835D01*
X99821885Y-36035951D01*
X99789115Y-36021361D01*
X99755695Y-36011223D01*
X99702585Y-35982835D01*
X99650000Y-35959423D01*
X99625552Y-35941660D01*
X99600150Y-35928083D01*
X99548332Y-35885556D01*
X99497782Y-35848830D01*
X99481368Y-35830600D01*
X99463809Y-35816190D01*
X99416618Y-35758688D01*
X99371885Y-35709007D01*
X99362487Y-35692730D01*
X99351916Y-35679849D01*
X99312810Y-35606686D01*
X99277809Y-35546063D01*
X99273782Y-35533670D01*
X99268776Y-35524304D01*
X99241168Y-35433294D01*
X99219667Y-35367121D01*
X99218910Y-35359921D01*
X99217577Y-35355526D01*
X99204606Y-35223831D01*
X99200000Y-35180000D01*
X99204606Y-35136172D01*
X99217577Y-35004473D01*
X99218910Y-35000077D01*
X99219667Y-34992879D01*
X99241163Y-34926719D01*
X99268776Y-34835695D01*
X99273783Y-34826327D01*
X99277809Y-34813937D01*
X99312802Y-34753326D01*
X99351916Y-34680150D01*
X99362489Y-34667265D01*
X99371885Y-34650993D01*
X99416609Y-34601321D01*
X99463809Y-34543809D01*
X99481371Y-34529395D01*
X99497782Y-34511170D01*
X99548321Y-34474450D01*
X99600150Y-34431916D01*
X99625557Y-34418335D01*
X99650000Y-34400577D01*
X99702573Y-34377169D01*
X99755695Y-34348776D01*
X99789122Y-34338635D01*
X99821885Y-34324049D01*
X99873080Y-34313166D01*
X99924473Y-34297577D01*
X99965377Y-34293548D01*
X100005924Y-34284930D01*
X100052887Y-34284930D01*
X100100000Y-34280290D01*
X100147113Y-34284930D01*
G37*
G36*
X115647113Y-34284930D02*
G01*
X115694076Y-34284930D01*
X115734622Y-34293548D01*
X115775526Y-34297577D01*
X115826916Y-34313166D01*
X115878115Y-34324049D01*
X115910879Y-34338636D01*
X115944304Y-34348776D01*
X115997420Y-34377166D01*
X116050000Y-34400577D01*
X116074445Y-34418337D01*
X116099849Y-34431916D01*
X116151669Y-34474444D01*
X116202218Y-34511170D01*
X116218631Y-34529398D01*
X116236190Y-34543809D01*
X116283379Y-34601308D01*
X116328115Y-34650993D01*
X116337512Y-34667269D01*
X116348083Y-34680150D01*
X116387183Y-34753302D01*
X116422191Y-34813937D01*
X116426218Y-34826331D01*
X116431223Y-34835695D01*
X116458821Y-34926672D01*
X116480333Y-34992879D01*
X116481090Y-35000082D01*
X116482422Y-35004473D01*
X116495377Y-35136021D01*
X116500000Y-35180000D01*
X116495377Y-35223982D01*
X116482422Y-35355526D01*
X116481090Y-35359916D01*
X116480333Y-35367121D01*
X116458816Y-35433341D01*
X116431223Y-35524304D01*
X116426219Y-35533665D01*
X116422191Y-35546063D01*
X116387176Y-35606709D01*
X116348083Y-35679849D01*
X116337514Y-35692726D01*
X116328115Y-35709007D01*
X116283369Y-35758701D01*
X116236190Y-35816190D01*
X116218634Y-35830597D01*
X116202218Y-35848830D01*
X116151659Y-35885563D01*
X116099849Y-35928083D01*
X116074450Y-35941658D01*
X116050000Y-35959423D01*
X115997408Y-35982838D01*
X115944304Y-36011223D01*
X115910886Y-36021360D01*
X115878115Y-36035951D01*
X115826905Y-36046836D01*
X115775526Y-36062422D01*
X115734631Y-36066449D01*
X115694076Y-36075070D01*
X115647103Y-36075070D01*
X115600000Y-36079709D01*
X115552897Y-36075070D01*
X115505924Y-36075070D01*
X115465368Y-36066449D01*
X115424473Y-36062422D01*
X115373091Y-36046835D01*
X115321885Y-36035951D01*
X115289115Y-36021361D01*
X115255695Y-36011223D01*
X115202585Y-35982835D01*
X115150000Y-35959423D01*
X115125552Y-35941660D01*
X115100150Y-35928083D01*
X115048332Y-35885556D01*
X114997782Y-35848830D01*
X114981368Y-35830600D01*
X114963809Y-35816190D01*
X114916618Y-35758688D01*
X114871885Y-35709007D01*
X114862487Y-35692730D01*
X114851916Y-35679849D01*
X114812810Y-35606686D01*
X114777809Y-35546063D01*
X114773782Y-35533670D01*
X114768776Y-35524304D01*
X114741168Y-35433294D01*
X114719667Y-35367121D01*
X114718910Y-35359921D01*
X114717577Y-35355526D01*
X114704606Y-35223831D01*
X114700000Y-35180000D01*
X114704606Y-35136172D01*
X114717577Y-35004473D01*
X114718910Y-35000077D01*
X114719667Y-34992879D01*
X114741163Y-34926719D01*
X114768776Y-34835695D01*
X114773783Y-34826327D01*
X114777809Y-34813937D01*
X114812802Y-34753326D01*
X114851916Y-34680150D01*
X114862489Y-34667265D01*
X114871885Y-34650993D01*
X114916609Y-34601321D01*
X114963809Y-34543809D01*
X114981371Y-34529395D01*
X114997782Y-34511170D01*
X115048321Y-34474450D01*
X115100150Y-34431916D01*
X115125557Y-34418335D01*
X115150000Y-34400577D01*
X115202573Y-34377169D01*
X115255695Y-34348776D01*
X115289122Y-34338635D01*
X115321885Y-34324049D01*
X115373080Y-34313166D01*
X115424473Y-34297577D01*
X115465377Y-34293548D01*
X115505924Y-34284930D01*
X115552887Y-34284930D01*
X115600000Y-34280290D01*
X115647113Y-34284930D01*
G37*
G36*
X100147113Y-31744930D02*
G01*
X100194076Y-31744930D01*
X100234622Y-31753548D01*
X100275526Y-31757577D01*
X100326916Y-31773166D01*
X100378115Y-31784049D01*
X100410879Y-31798636D01*
X100444304Y-31808776D01*
X100497420Y-31837166D01*
X100550000Y-31860577D01*
X100574445Y-31878337D01*
X100599849Y-31891916D01*
X100651669Y-31934444D01*
X100702218Y-31971170D01*
X100718631Y-31989398D01*
X100736190Y-32003809D01*
X100783379Y-32061308D01*
X100828115Y-32110993D01*
X100837512Y-32127269D01*
X100848083Y-32140150D01*
X100887183Y-32213302D01*
X100922191Y-32273937D01*
X100926218Y-32286331D01*
X100931223Y-32295695D01*
X100958821Y-32386672D01*
X100980333Y-32452879D01*
X100981090Y-32460082D01*
X100982422Y-32464473D01*
X100995377Y-32596021D01*
X101000000Y-32640000D01*
X100995377Y-32683982D01*
X100982422Y-32815526D01*
X100981090Y-32819916D01*
X100980333Y-32827121D01*
X100958816Y-32893341D01*
X100931223Y-32984304D01*
X100926219Y-32993665D01*
X100922191Y-33006063D01*
X100887176Y-33066709D01*
X100848083Y-33139849D01*
X100837514Y-33152726D01*
X100828115Y-33169007D01*
X100783369Y-33218701D01*
X100736190Y-33276190D01*
X100718634Y-33290597D01*
X100702218Y-33308830D01*
X100651659Y-33345563D01*
X100599849Y-33388083D01*
X100574450Y-33401658D01*
X100550000Y-33419423D01*
X100497408Y-33442838D01*
X100444304Y-33471223D01*
X100410886Y-33481360D01*
X100378115Y-33495951D01*
X100326905Y-33506836D01*
X100275526Y-33522422D01*
X100234631Y-33526449D01*
X100194076Y-33535070D01*
X100147103Y-33535070D01*
X100100000Y-33539709D01*
X100052897Y-33535070D01*
X100005924Y-33535070D01*
X99965368Y-33526449D01*
X99924473Y-33522422D01*
X99873091Y-33506835D01*
X99821885Y-33495951D01*
X99789115Y-33481361D01*
X99755695Y-33471223D01*
X99702585Y-33442835D01*
X99650000Y-33419423D01*
X99625552Y-33401660D01*
X99600150Y-33388083D01*
X99548332Y-33345556D01*
X99497782Y-33308830D01*
X99481368Y-33290600D01*
X99463809Y-33276190D01*
X99416618Y-33218688D01*
X99371885Y-33169007D01*
X99362487Y-33152730D01*
X99351916Y-33139849D01*
X99312810Y-33066686D01*
X99277809Y-33006063D01*
X99273782Y-32993670D01*
X99268776Y-32984304D01*
X99241168Y-32893294D01*
X99219667Y-32827121D01*
X99218910Y-32819921D01*
X99217577Y-32815526D01*
X99204606Y-32683831D01*
X99200000Y-32640000D01*
X99204606Y-32596172D01*
X99217577Y-32464473D01*
X99218910Y-32460077D01*
X99219667Y-32452879D01*
X99241163Y-32386719D01*
X99268776Y-32295695D01*
X99273783Y-32286327D01*
X99277809Y-32273937D01*
X99312802Y-32213326D01*
X99351916Y-32140150D01*
X99362489Y-32127265D01*
X99371885Y-32110993D01*
X99416609Y-32061321D01*
X99463809Y-32003809D01*
X99481371Y-31989395D01*
X99497782Y-31971170D01*
X99548321Y-31934450D01*
X99600150Y-31891916D01*
X99625557Y-31878335D01*
X99650000Y-31860577D01*
X99702573Y-31837169D01*
X99755695Y-31808776D01*
X99789122Y-31798635D01*
X99821885Y-31784049D01*
X99873080Y-31773166D01*
X99924473Y-31757577D01*
X99965377Y-31753548D01*
X100005924Y-31744930D01*
X100052887Y-31744930D01*
X100100000Y-31740290D01*
X100147113Y-31744930D01*
G37*
G36*
X115647113Y-31744930D02*
G01*
X115694076Y-31744930D01*
X115734622Y-31753548D01*
X115775526Y-31757577D01*
X115826916Y-31773166D01*
X115878115Y-31784049D01*
X115910879Y-31798636D01*
X115944304Y-31808776D01*
X115997420Y-31837166D01*
X116050000Y-31860577D01*
X116074445Y-31878337D01*
X116099849Y-31891916D01*
X116151669Y-31934444D01*
X116202218Y-31971170D01*
X116218631Y-31989398D01*
X116236190Y-32003809D01*
X116283379Y-32061308D01*
X116328115Y-32110993D01*
X116337512Y-32127269D01*
X116348083Y-32140150D01*
X116387183Y-32213302D01*
X116422191Y-32273937D01*
X116426218Y-32286331D01*
X116431223Y-32295695D01*
X116458821Y-32386672D01*
X116480333Y-32452879D01*
X116481090Y-32460082D01*
X116482422Y-32464473D01*
X116495377Y-32596021D01*
X116500000Y-32640000D01*
X116495377Y-32683982D01*
X116482422Y-32815526D01*
X116481090Y-32819916D01*
X116480333Y-32827121D01*
X116458816Y-32893341D01*
X116431223Y-32984304D01*
X116426219Y-32993665D01*
X116422191Y-33006063D01*
X116387176Y-33066709D01*
X116348083Y-33139849D01*
X116337514Y-33152726D01*
X116328115Y-33169007D01*
X116283369Y-33218701D01*
X116236190Y-33276190D01*
X116218634Y-33290597D01*
X116202218Y-33308830D01*
X116151659Y-33345563D01*
X116099849Y-33388083D01*
X116074450Y-33401658D01*
X116050000Y-33419423D01*
X115997408Y-33442838D01*
X115944304Y-33471223D01*
X115910886Y-33481360D01*
X115878115Y-33495951D01*
X115826905Y-33506836D01*
X115775526Y-33522422D01*
X115734631Y-33526449D01*
X115694076Y-33535070D01*
X115647103Y-33535070D01*
X115600000Y-33539709D01*
X115552897Y-33535070D01*
X115505924Y-33535070D01*
X115465368Y-33526449D01*
X115424473Y-33522422D01*
X115373091Y-33506835D01*
X115321885Y-33495951D01*
X115289115Y-33481361D01*
X115255695Y-33471223D01*
X115202585Y-33442835D01*
X115150000Y-33419423D01*
X115125552Y-33401660D01*
X115100150Y-33388083D01*
X115048332Y-33345556D01*
X114997782Y-33308830D01*
X114981368Y-33290600D01*
X114963809Y-33276190D01*
X114916618Y-33218688D01*
X114871885Y-33169007D01*
X114862487Y-33152730D01*
X114851916Y-33139849D01*
X114812810Y-33066686D01*
X114777809Y-33006063D01*
X114773782Y-32993670D01*
X114768776Y-32984304D01*
X114741168Y-32893294D01*
X114719667Y-32827121D01*
X114718910Y-32819921D01*
X114717577Y-32815526D01*
X114704606Y-32683831D01*
X114700000Y-32640000D01*
X114704606Y-32596172D01*
X114717577Y-32464473D01*
X114718910Y-32460077D01*
X114719667Y-32452879D01*
X114741163Y-32386719D01*
X114768776Y-32295695D01*
X114773783Y-32286327D01*
X114777809Y-32273937D01*
X114812802Y-32213326D01*
X114851916Y-32140150D01*
X114862489Y-32127265D01*
X114871885Y-32110993D01*
X114916609Y-32061321D01*
X114963809Y-32003809D01*
X114981371Y-31989395D01*
X114997782Y-31971170D01*
X115048321Y-31934450D01*
X115100150Y-31891916D01*
X115125557Y-31878335D01*
X115150000Y-31860577D01*
X115202573Y-31837169D01*
X115255695Y-31808776D01*
X115289122Y-31798635D01*
X115321885Y-31784049D01*
X115373080Y-31773166D01*
X115424473Y-31757577D01*
X115465377Y-31753548D01*
X115505924Y-31744930D01*
X115552887Y-31744930D01*
X115600000Y-31740290D01*
X115647113Y-31744930D01*
G37*
G36*
X100147113Y-29204930D02*
G01*
X100194076Y-29204930D01*
X100234622Y-29213548D01*
X100275526Y-29217577D01*
X100326916Y-29233166D01*
X100378115Y-29244049D01*
X100410879Y-29258636D01*
X100444304Y-29268776D01*
X100497420Y-29297166D01*
X100550000Y-29320577D01*
X100574445Y-29338337D01*
X100599849Y-29351916D01*
X100651669Y-29394444D01*
X100702218Y-29431170D01*
X100718631Y-29449398D01*
X100736190Y-29463809D01*
X100783379Y-29521308D01*
X100828115Y-29570993D01*
X100837512Y-29587269D01*
X100848083Y-29600150D01*
X100887183Y-29673302D01*
X100922191Y-29733937D01*
X100926218Y-29746331D01*
X100931223Y-29755695D01*
X100958821Y-29846672D01*
X100980333Y-29912879D01*
X100981090Y-29920082D01*
X100982422Y-29924473D01*
X100995377Y-30056021D01*
X101000000Y-30100000D01*
X100995377Y-30143982D01*
X100982422Y-30275526D01*
X100981090Y-30279916D01*
X100980333Y-30287121D01*
X100958816Y-30353341D01*
X100931223Y-30444304D01*
X100926219Y-30453665D01*
X100922191Y-30466063D01*
X100887176Y-30526709D01*
X100848083Y-30599849D01*
X100837514Y-30612726D01*
X100828115Y-30629007D01*
X100783369Y-30678701D01*
X100736190Y-30736190D01*
X100718634Y-30750597D01*
X100702218Y-30768830D01*
X100651659Y-30805563D01*
X100599849Y-30848083D01*
X100574450Y-30861658D01*
X100550000Y-30879423D01*
X100497408Y-30902838D01*
X100444304Y-30931223D01*
X100410886Y-30941360D01*
X100378115Y-30955951D01*
X100326905Y-30966836D01*
X100275526Y-30982422D01*
X100234631Y-30986449D01*
X100194076Y-30995070D01*
X100147103Y-30995070D01*
X100100000Y-30999709D01*
X100052897Y-30995070D01*
X100005924Y-30995070D01*
X99965368Y-30986449D01*
X99924473Y-30982422D01*
X99873091Y-30966835D01*
X99821885Y-30955951D01*
X99789115Y-30941361D01*
X99755695Y-30931223D01*
X99702585Y-30902835D01*
X99650000Y-30879423D01*
X99625552Y-30861660D01*
X99600150Y-30848083D01*
X99548332Y-30805556D01*
X99497782Y-30768830D01*
X99481368Y-30750600D01*
X99463809Y-30736190D01*
X99416618Y-30678688D01*
X99371885Y-30629007D01*
X99362487Y-30612730D01*
X99351916Y-30599849D01*
X99312810Y-30526686D01*
X99277809Y-30466063D01*
X99273782Y-30453670D01*
X99268776Y-30444304D01*
X99241168Y-30353294D01*
X99219667Y-30287121D01*
X99218910Y-30279921D01*
X99217577Y-30275526D01*
X99204606Y-30143831D01*
X99200000Y-30100000D01*
X99204606Y-30056172D01*
X99217577Y-29924473D01*
X99218910Y-29920077D01*
X99219667Y-29912879D01*
X99241163Y-29846719D01*
X99268776Y-29755695D01*
X99273783Y-29746327D01*
X99277809Y-29733937D01*
X99312802Y-29673326D01*
X99351916Y-29600150D01*
X99362489Y-29587265D01*
X99371885Y-29570993D01*
X99416609Y-29521321D01*
X99463809Y-29463809D01*
X99481371Y-29449395D01*
X99497782Y-29431170D01*
X99548321Y-29394450D01*
X99600150Y-29351916D01*
X99625557Y-29338335D01*
X99650000Y-29320577D01*
X99702573Y-29297169D01*
X99755695Y-29268776D01*
X99789122Y-29258635D01*
X99821885Y-29244049D01*
X99873080Y-29233166D01*
X99924473Y-29217577D01*
X99965377Y-29213548D01*
X100005924Y-29204930D01*
X100052887Y-29204930D01*
X100100000Y-29200290D01*
X100147113Y-29204930D01*
G37*
G36*
X115647113Y-29204930D02*
G01*
X115694076Y-29204930D01*
X115734622Y-29213548D01*
X115775526Y-29217577D01*
X115826916Y-29233166D01*
X115878115Y-29244049D01*
X115910879Y-29258636D01*
X115944304Y-29268776D01*
X115997420Y-29297166D01*
X116050000Y-29320577D01*
X116074445Y-29338337D01*
X116099849Y-29351916D01*
X116151669Y-29394444D01*
X116202218Y-29431170D01*
X116218631Y-29449398D01*
X116236190Y-29463809D01*
X116283379Y-29521308D01*
X116328115Y-29570993D01*
X116337512Y-29587269D01*
X116348083Y-29600150D01*
X116387183Y-29673302D01*
X116422191Y-29733937D01*
X116426218Y-29746331D01*
X116431223Y-29755695D01*
X116458821Y-29846672D01*
X116480333Y-29912879D01*
X116481090Y-29920082D01*
X116482422Y-29924473D01*
X116495377Y-30056021D01*
X116500000Y-30100000D01*
X116495377Y-30143982D01*
X116482422Y-30275526D01*
X116481090Y-30279916D01*
X116480333Y-30287121D01*
X116458816Y-30353341D01*
X116431223Y-30444304D01*
X116426219Y-30453665D01*
X116422191Y-30466063D01*
X116387176Y-30526709D01*
X116348083Y-30599849D01*
X116337514Y-30612726D01*
X116328115Y-30629007D01*
X116283369Y-30678701D01*
X116236190Y-30736190D01*
X116218634Y-30750597D01*
X116202218Y-30768830D01*
X116151659Y-30805563D01*
X116099849Y-30848083D01*
X116074450Y-30861658D01*
X116050000Y-30879423D01*
X115997408Y-30902838D01*
X115944304Y-30931223D01*
X115910886Y-30941360D01*
X115878115Y-30955951D01*
X115826905Y-30966836D01*
X115775526Y-30982422D01*
X115734631Y-30986449D01*
X115694076Y-30995070D01*
X115647103Y-30995070D01*
X115600000Y-30999709D01*
X115552897Y-30995070D01*
X115505924Y-30995070D01*
X115465368Y-30986449D01*
X115424473Y-30982422D01*
X115373091Y-30966835D01*
X115321885Y-30955951D01*
X115289115Y-30941361D01*
X115255695Y-30931223D01*
X115202585Y-30902835D01*
X115150000Y-30879423D01*
X115125552Y-30861660D01*
X115100150Y-30848083D01*
X115048332Y-30805556D01*
X114997782Y-30768830D01*
X114981368Y-30750600D01*
X114963809Y-30736190D01*
X114916618Y-30678688D01*
X114871885Y-30629007D01*
X114862487Y-30612730D01*
X114851916Y-30599849D01*
X114812810Y-30526686D01*
X114777809Y-30466063D01*
X114773782Y-30453670D01*
X114768776Y-30444304D01*
X114741168Y-30353294D01*
X114719667Y-30287121D01*
X114718910Y-30279921D01*
X114717577Y-30275526D01*
X114704606Y-30143831D01*
X114700000Y-30100000D01*
X114704606Y-30056172D01*
X114717577Y-29924473D01*
X114718910Y-29920077D01*
X114719667Y-29912879D01*
X114741163Y-29846719D01*
X114768776Y-29755695D01*
X114773783Y-29746327D01*
X114777809Y-29733937D01*
X114812802Y-29673326D01*
X114851916Y-29600150D01*
X114862489Y-29587265D01*
X114871885Y-29570993D01*
X114916609Y-29521321D01*
X114963809Y-29463809D01*
X114981371Y-29449395D01*
X114997782Y-29431170D01*
X115048321Y-29394450D01*
X115100150Y-29351916D01*
X115125557Y-29338335D01*
X115150000Y-29320577D01*
X115202573Y-29297169D01*
X115255695Y-29268776D01*
X115289122Y-29258635D01*
X115321885Y-29244049D01*
X115373080Y-29233166D01*
X115424473Y-29217577D01*
X115465377Y-29213548D01*
X115505924Y-29204930D01*
X115552887Y-29204930D01*
X115600000Y-29200290D01*
X115647113Y-29204930D01*
G37*
G36*
X166592069Y-21819261D02*
G01*
X166980361Y-21876859D01*
X167361139Y-21972239D01*
X167730734Y-22104482D01*
X168085587Y-22272315D01*
X168422281Y-22474122D01*
X168737573Y-22707958D01*
X169028427Y-22971573D01*
X169292042Y-23262427D01*
X169525878Y-23577719D01*
X169727685Y-23914413D01*
X169895518Y-24269266D01*
X170027761Y-24638861D01*
X170123141Y-25019639D01*
X170180739Y-25407931D01*
X170200000Y-25800000D01*
X170180739Y-26192069D01*
X170123141Y-26580361D01*
X170027761Y-26961139D01*
X169895518Y-27330734D01*
X169727685Y-27685587D01*
X169525878Y-28022281D01*
X169292042Y-28337573D01*
X169028427Y-28628427D01*
X168737573Y-28892042D01*
X168422281Y-29125878D01*
X168085587Y-29327685D01*
X167730734Y-29495518D01*
X167361139Y-29627761D01*
X166980361Y-29723141D01*
X166592069Y-29780739D01*
X166200000Y-29800000D01*
X165807931Y-29780739D01*
X165419639Y-29723141D01*
X165038861Y-29627761D01*
X164669266Y-29495518D01*
X164314413Y-29327685D01*
X163977719Y-29125878D01*
X163662427Y-28892042D01*
X163371573Y-28628427D01*
X163107958Y-28337573D01*
X162874122Y-28022281D01*
X162672315Y-27685587D01*
X162504482Y-27330734D01*
X162372239Y-26961139D01*
X162276859Y-26580361D01*
X162219261Y-26192069D01*
X162200000Y-25800000D01*
X162219261Y-25407931D01*
X162276859Y-25019639D01*
X162372239Y-24638861D01*
X162504482Y-24269266D01*
X162672315Y-23914413D01*
X162874122Y-23577719D01*
X163107958Y-23262427D01*
X163371573Y-22971573D01*
X163662427Y-22707958D01*
X163977719Y-22474122D01*
X164314413Y-22272315D01*
X164669266Y-22104482D01*
X165038861Y-21972239D01*
X165419639Y-21876859D01*
X165807931Y-21819261D01*
X166200000Y-21800000D01*
X166592069Y-21819261D01*
G37*
G36*
X39392069Y-21019261D02*
G01*
X39780361Y-21076859D01*
X40161139Y-21172239D01*
X40530734Y-21304482D01*
X40885587Y-21472315D01*
X41222281Y-21674122D01*
X41537573Y-21907958D01*
X41828427Y-22171573D01*
X42092042Y-22462427D01*
X42325878Y-22777719D01*
X42527685Y-23114413D01*
X42695518Y-23469266D01*
X42827761Y-23838861D01*
X42923141Y-24219639D01*
X42980739Y-24607931D01*
X43000000Y-25000000D01*
X42980739Y-25392069D01*
X42923141Y-25780361D01*
X42827761Y-26161139D01*
X42695518Y-26530734D01*
X42527685Y-26885587D01*
X42325878Y-27222281D01*
X42092042Y-27537573D01*
X41828427Y-27828427D01*
X41537573Y-28092042D01*
X41222281Y-28325878D01*
X40885587Y-28527685D01*
X40530734Y-28695518D01*
X40161139Y-28827761D01*
X39780361Y-28923141D01*
X39392069Y-28980739D01*
X39000000Y-29000000D01*
X38607931Y-28980739D01*
X38219639Y-28923141D01*
X37838861Y-28827761D01*
X37469266Y-28695518D01*
X37114413Y-28527685D01*
X36777719Y-28325878D01*
X36462427Y-28092042D01*
X36171573Y-27828427D01*
X35907958Y-27537573D01*
X35674122Y-27222281D01*
X35472315Y-26885587D01*
X35304482Y-26530734D01*
X35172239Y-26161139D01*
X35076859Y-25780361D01*
X35019261Y-25392069D01*
X35000000Y-25000000D01*
X35019261Y-24607931D01*
X35076859Y-24219639D01*
X35172239Y-23838861D01*
X35304482Y-23469266D01*
X35472315Y-23114413D01*
X35674122Y-22777719D01*
X35907958Y-22462427D01*
X36171573Y-22171573D01*
X36462427Y-21907958D01*
X36777719Y-21674122D01*
X37114413Y-21472315D01*
X37469266Y-21304482D01*
X37838861Y-21172239D01*
X38219639Y-21076859D01*
X38607931Y-21019261D01*
X39000000Y-21000000D01*
X39392069Y-21019261D01*
G37*
G36*
X100147113Y-26664930D02*
G01*
X100194076Y-26664930D01*
X100234622Y-26673548D01*
X100275526Y-26677577D01*
X100326916Y-26693166D01*
X100378115Y-26704049D01*
X100410879Y-26718636D01*
X100444304Y-26728776D01*
X100497420Y-26757166D01*
X100550000Y-26780577D01*
X100574445Y-26798337D01*
X100599849Y-26811916D01*
X100651669Y-26854444D01*
X100702218Y-26891170D01*
X100718631Y-26909398D01*
X100736190Y-26923809D01*
X100783379Y-26981308D01*
X100828115Y-27030993D01*
X100837512Y-27047269D01*
X100848083Y-27060150D01*
X100887183Y-27133302D01*
X100922191Y-27193937D01*
X100926218Y-27206331D01*
X100931223Y-27215695D01*
X100958821Y-27306672D01*
X100980333Y-27372879D01*
X100981090Y-27380082D01*
X100982422Y-27384473D01*
X100995377Y-27516021D01*
X101000000Y-27560000D01*
X100995377Y-27603982D01*
X100982422Y-27735526D01*
X100981090Y-27739916D01*
X100980333Y-27747121D01*
X100958816Y-27813341D01*
X100931223Y-27904304D01*
X100926219Y-27913665D01*
X100922191Y-27926063D01*
X100887176Y-27986709D01*
X100848083Y-28059849D01*
X100837514Y-28072726D01*
X100828115Y-28089007D01*
X100783369Y-28138701D01*
X100736190Y-28196190D01*
X100718634Y-28210597D01*
X100702218Y-28228830D01*
X100651659Y-28265563D01*
X100599849Y-28308083D01*
X100574450Y-28321658D01*
X100550000Y-28339423D01*
X100497408Y-28362838D01*
X100444304Y-28391223D01*
X100410886Y-28401360D01*
X100378115Y-28415951D01*
X100326905Y-28426836D01*
X100275526Y-28442422D01*
X100234631Y-28446449D01*
X100194076Y-28455070D01*
X100147103Y-28455070D01*
X100100000Y-28459709D01*
X100052897Y-28455070D01*
X100005924Y-28455070D01*
X99965368Y-28446449D01*
X99924473Y-28442422D01*
X99873091Y-28426835D01*
X99821885Y-28415951D01*
X99789115Y-28401361D01*
X99755695Y-28391223D01*
X99702585Y-28362835D01*
X99650000Y-28339423D01*
X99625552Y-28321660D01*
X99600150Y-28308083D01*
X99548332Y-28265556D01*
X99497782Y-28228830D01*
X99481368Y-28210600D01*
X99463809Y-28196190D01*
X99416618Y-28138688D01*
X99371885Y-28089007D01*
X99362487Y-28072730D01*
X99351916Y-28059849D01*
X99312810Y-27986686D01*
X99277809Y-27926063D01*
X99273782Y-27913670D01*
X99268776Y-27904304D01*
X99241168Y-27813294D01*
X99219667Y-27747121D01*
X99218910Y-27739921D01*
X99217577Y-27735526D01*
X99204606Y-27603831D01*
X99200000Y-27560000D01*
X99204606Y-27516172D01*
X99217577Y-27384473D01*
X99218910Y-27380077D01*
X99219667Y-27372879D01*
X99241163Y-27306719D01*
X99268776Y-27215695D01*
X99273783Y-27206327D01*
X99277809Y-27193937D01*
X99312802Y-27133326D01*
X99351916Y-27060150D01*
X99362489Y-27047265D01*
X99371885Y-27030993D01*
X99416609Y-26981321D01*
X99463809Y-26923809D01*
X99481371Y-26909395D01*
X99497782Y-26891170D01*
X99548321Y-26854450D01*
X99600150Y-26811916D01*
X99625557Y-26798335D01*
X99650000Y-26780577D01*
X99702573Y-26757169D01*
X99755695Y-26728776D01*
X99789122Y-26718635D01*
X99821885Y-26704049D01*
X99873080Y-26693166D01*
X99924473Y-26677577D01*
X99965377Y-26673548D01*
X100005924Y-26664930D01*
X100052887Y-26664930D01*
X100100000Y-26660290D01*
X100147113Y-26664930D01*
G37*
G36*
X115647113Y-26664930D02*
G01*
X115694076Y-26664930D01*
X115734622Y-26673548D01*
X115775526Y-26677577D01*
X115826916Y-26693166D01*
X115878115Y-26704049D01*
X115910879Y-26718636D01*
X115944304Y-26728776D01*
X115997420Y-26757166D01*
X116050000Y-26780577D01*
X116074445Y-26798337D01*
X116099849Y-26811916D01*
X116151669Y-26854444D01*
X116202218Y-26891170D01*
X116218631Y-26909398D01*
X116236190Y-26923809D01*
X116283379Y-26981308D01*
X116328115Y-27030993D01*
X116337512Y-27047269D01*
X116348083Y-27060150D01*
X116387183Y-27133302D01*
X116422191Y-27193937D01*
X116426218Y-27206331D01*
X116431223Y-27215695D01*
X116458821Y-27306672D01*
X116480333Y-27372879D01*
X116481090Y-27380082D01*
X116482422Y-27384473D01*
X116495377Y-27516021D01*
X116500000Y-27560000D01*
X116495377Y-27603982D01*
X116482422Y-27735526D01*
X116481090Y-27739916D01*
X116480333Y-27747121D01*
X116458816Y-27813341D01*
X116431223Y-27904304D01*
X116426219Y-27913665D01*
X116422191Y-27926063D01*
X116387176Y-27986709D01*
X116348083Y-28059849D01*
X116337514Y-28072726D01*
X116328115Y-28089007D01*
X116283369Y-28138701D01*
X116236190Y-28196190D01*
X116218634Y-28210597D01*
X116202218Y-28228830D01*
X116151659Y-28265563D01*
X116099849Y-28308083D01*
X116074450Y-28321658D01*
X116050000Y-28339423D01*
X115997408Y-28362838D01*
X115944304Y-28391223D01*
X115910886Y-28401360D01*
X115878115Y-28415951D01*
X115826905Y-28426836D01*
X115775526Y-28442422D01*
X115734631Y-28446449D01*
X115694076Y-28455070D01*
X115647103Y-28455070D01*
X115600000Y-28459709D01*
X115552897Y-28455070D01*
X115505924Y-28455070D01*
X115465368Y-28446449D01*
X115424473Y-28442422D01*
X115373091Y-28426835D01*
X115321885Y-28415951D01*
X115289115Y-28401361D01*
X115255695Y-28391223D01*
X115202585Y-28362835D01*
X115150000Y-28339423D01*
X115125552Y-28321660D01*
X115100150Y-28308083D01*
X115048332Y-28265556D01*
X114997782Y-28228830D01*
X114981368Y-28210600D01*
X114963809Y-28196190D01*
X114916618Y-28138688D01*
X114871885Y-28089007D01*
X114862487Y-28072730D01*
X114851916Y-28059849D01*
X114812810Y-27986686D01*
X114777809Y-27926063D01*
X114773782Y-27913670D01*
X114768776Y-27904304D01*
X114741168Y-27813294D01*
X114719667Y-27747121D01*
X114718910Y-27739921D01*
X114717577Y-27735526D01*
X114704606Y-27603831D01*
X114700000Y-27560000D01*
X114704606Y-27516172D01*
X114717577Y-27384473D01*
X114718910Y-27380077D01*
X114719667Y-27372879D01*
X114741163Y-27306719D01*
X114768776Y-27215695D01*
X114773783Y-27206327D01*
X114777809Y-27193937D01*
X114812802Y-27133326D01*
X114851916Y-27060150D01*
X114862489Y-27047265D01*
X114871885Y-27030993D01*
X114916609Y-26981321D01*
X114963809Y-26923809D01*
X114981371Y-26909395D01*
X114997782Y-26891170D01*
X115048321Y-26854450D01*
X115100150Y-26811916D01*
X115125557Y-26798335D01*
X115150000Y-26780577D01*
X115202573Y-26757169D01*
X115255695Y-26728776D01*
X115289122Y-26718635D01*
X115321885Y-26704049D01*
X115373080Y-26693166D01*
X115424473Y-26677577D01*
X115465377Y-26673548D01*
X115505924Y-26664930D01*
X115552887Y-26664930D01*
X115600000Y-26660290D01*
X115647113Y-26664930D01*
G37*
G36*
X100147113Y-24124930D02*
G01*
X100194076Y-24124930D01*
X100234622Y-24133548D01*
X100275526Y-24137577D01*
X100326916Y-24153166D01*
X100378115Y-24164049D01*
X100410879Y-24178636D01*
X100444304Y-24188776D01*
X100497420Y-24217166D01*
X100550000Y-24240577D01*
X100574445Y-24258337D01*
X100599849Y-24271916D01*
X100651669Y-24314444D01*
X100702218Y-24351170D01*
X100718631Y-24369398D01*
X100736190Y-24383809D01*
X100783379Y-24441308D01*
X100828115Y-24490993D01*
X100837512Y-24507269D01*
X100848083Y-24520150D01*
X100887183Y-24593302D01*
X100922191Y-24653937D01*
X100926218Y-24666331D01*
X100931223Y-24675695D01*
X100958821Y-24766672D01*
X100980333Y-24832879D01*
X100981090Y-24840082D01*
X100982422Y-24844473D01*
X100995377Y-24976021D01*
X101000000Y-25020000D01*
X100995377Y-25063982D01*
X100982422Y-25195526D01*
X100981090Y-25199916D01*
X100980333Y-25207121D01*
X100958816Y-25273341D01*
X100931223Y-25364304D01*
X100926219Y-25373665D01*
X100922191Y-25386063D01*
X100887176Y-25446709D01*
X100848083Y-25519849D01*
X100837514Y-25532726D01*
X100828115Y-25549007D01*
X100783369Y-25598701D01*
X100736190Y-25656190D01*
X100718634Y-25670597D01*
X100702218Y-25688830D01*
X100651659Y-25725563D01*
X100599849Y-25768083D01*
X100574450Y-25781658D01*
X100550000Y-25799423D01*
X100497408Y-25822838D01*
X100444304Y-25851223D01*
X100410886Y-25861360D01*
X100378115Y-25875951D01*
X100326905Y-25886836D01*
X100275526Y-25902422D01*
X100234631Y-25906449D01*
X100194076Y-25915070D01*
X100147103Y-25915070D01*
X100100000Y-25919709D01*
X100052897Y-25915070D01*
X100005924Y-25915070D01*
X99965368Y-25906449D01*
X99924473Y-25902422D01*
X99873091Y-25886835D01*
X99821885Y-25875951D01*
X99789115Y-25861361D01*
X99755695Y-25851223D01*
X99702585Y-25822835D01*
X99650000Y-25799423D01*
X99625552Y-25781660D01*
X99600150Y-25768083D01*
X99548332Y-25725556D01*
X99497782Y-25688830D01*
X99481368Y-25670600D01*
X99463809Y-25656190D01*
X99416618Y-25598688D01*
X99371885Y-25549007D01*
X99362487Y-25532730D01*
X99351916Y-25519849D01*
X99312810Y-25446686D01*
X99277809Y-25386063D01*
X99273782Y-25373670D01*
X99268776Y-25364304D01*
X99241168Y-25273294D01*
X99219667Y-25207121D01*
X99218910Y-25199921D01*
X99217577Y-25195526D01*
X99204606Y-25063831D01*
X99200000Y-25020000D01*
X99204606Y-24976172D01*
X99217577Y-24844473D01*
X99218910Y-24840077D01*
X99219667Y-24832879D01*
X99241163Y-24766719D01*
X99268776Y-24675695D01*
X99273783Y-24666327D01*
X99277809Y-24653937D01*
X99312802Y-24593326D01*
X99351916Y-24520150D01*
X99362489Y-24507265D01*
X99371885Y-24490993D01*
X99416609Y-24441321D01*
X99463809Y-24383809D01*
X99481371Y-24369395D01*
X99497782Y-24351170D01*
X99548321Y-24314450D01*
X99600150Y-24271916D01*
X99625557Y-24258335D01*
X99650000Y-24240577D01*
X99702573Y-24217169D01*
X99755695Y-24188776D01*
X99789122Y-24178635D01*
X99821885Y-24164049D01*
X99873080Y-24153166D01*
X99924473Y-24137577D01*
X99965377Y-24133548D01*
X100005924Y-24124930D01*
X100052887Y-24124930D01*
X100100000Y-24120290D01*
X100147113Y-24124930D01*
G37*
G36*
X115647113Y-24124930D02*
G01*
X115694076Y-24124930D01*
X115734622Y-24133548D01*
X115775526Y-24137577D01*
X115826916Y-24153166D01*
X115878115Y-24164049D01*
X115910879Y-24178636D01*
X115944304Y-24188776D01*
X115997420Y-24217166D01*
X116050000Y-24240577D01*
X116074445Y-24258337D01*
X116099849Y-24271916D01*
X116151669Y-24314444D01*
X116202218Y-24351170D01*
X116218631Y-24369398D01*
X116236190Y-24383809D01*
X116283379Y-24441308D01*
X116328115Y-24490993D01*
X116337512Y-24507269D01*
X116348083Y-24520150D01*
X116387183Y-24593302D01*
X116422191Y-24653937D01*
X116426218Y-24666331D01*
X116431223Y-24675695D01*
X116458821Y-24766672D01*
X116480333Y-24832879D01*
X116481090Y-24840082D01*
X116482422Y-24844473D01*
X116495377Y-24976021D01*
X116500000Y-25020000D01*
X116495377Y-25063982D01*
X116482422Y-25195526D01*
X116481090Y-25199916D01*
X116480333Y-25207121D01*
X116458816Y-25273341D01*
X116431223Y-25364304D01*
X116426219Y-25373665D01*
X116422191Y-25386063D01*
X116387176Y-25446709D01*
X116348083Y-25519849D01*
X116337514Y-25532726D01*
X116328115Y-25549007D01*
X116283369Y-25598701D01*
X116236190Y-25656190D01*
X116218634Y-25670597D01*
X116202218Y-25688830D01*
X116151659Y-25725563D01*
X116099849Y-25768083D01*
X116074450Y-25781658D01*
X116050000Y-25799423D01*
X115997408Y-25822838D01*
X115944304Y-25851223D01*
X115910886Y-25861360D01*
X115878115Y-25875951D01*
X115826905Y-25886836D01*
X115775526Y-25902422D01*
X115734631Y-25906449D01*
X115694076Y-25915070D01*
X115647103Y-25915070D01*
X115600000Y-25919709D01*
X115552897Y-25915070D01*
X115505924Y-25915070D01*
X115465368Y-25906449D01*
X115424473Y-25902422D01*
X115373091Y-25886835D01*
X115321885Y-25875951D01*
X115289115Y-25861361D01*
X115255695Y-25851223D01*
X115202585Y-25822835D01*
X115150000Y-25799423D01*
X115125552Y-25781660D01*
X115100150Y-25768083D01*
X115048332Y-25725556D01*
X114997782Y-25688830D01*
X114981368Y-25670600D01*
X114963809Y-25656190D01*
X114916618Y-25598688D01*
X114871885Y-25549007D01*
X114862487Y-25532730D01*
X114851916Y-25519849D01*
X114812810Y-25446686D01*
X114777809Y-25386063D01*
X114773782Y-25373670D01*
X114768776Y-25364304D01*
X114741168Y-25273294D01*
X114719667Y-25207121D01*
X114718910Y-25199921D01*
X114717577Y-25195526D01*
X114704606Y-25063831D01*
X114700000Y-25020000D01*
X114704606Y-24976172D01*
X114717577Y-24844473D01*
X114718910Y-24840077D01*
X114719667Y-24832879D01*
X114741163Y-24766719D01*
X114768776Y-24675695D01*
X114773783Y-24666327D01*
X114777809Y-24653937D01*
X114812802Y-24593326D01*
X114851916Y-24520150D01*
X114862489Y-24507265D01*
X114871885Y-24490993D01*
X114916609Y-24441321D01*
X114963809Y-24383809D01*
X114981371Y-24369395D01*
X114997782Y-24351170D01*
X115048321Y-24314450D01*
X115100150Y-24271916D01*
X115125557Y-24258335D01*
X115150000Y-24240577D01*
X115202573Y-24217169D01*
X115255695Y-24188776D01*
X115289122Y-24178635D01*
X115321885Y-24164049D01*
X115373080Y-24153166D01*
X115424473Y-24137577D01*
X115465377Y-24133548D01*
X115505924Y-24124930D01*
X115552887Y-24124930D01*
X115600000Y-24120290D01*
X115647113Y-24124930D01*
G37*
G36*
X100147113Y-21584930D02*
G01*
X100194076Y-21584930D01*
X100234622Y-21593548D01*
X100275526Y-21597577D01*
X100326916Y-21613166D01*
X100378115Y-21624049D01*
X100410879Y-21638636D01*
X100444304Y-21648776D01*
X100497420Y-21677166D01*
X100550000Y-21700577D01*
X100574445Y-21718337D01*
X100599849Y-21731916D01*
X100651669Y-21774444D01*
X100702218Y-21811170D01*
X100718631Y-21829398D01*
X100736190Y-21843809D01*
X100783379Y-21901308D01*
X100828115Y-21950993D01*
X100837512Y-21967269D01*
X100848083Y-21980150D01*
X100887183Y-22053302D01*
X100922191Y-22113937D01*
X100926218Y-22126331D01*
X100931223Y-22135695D01*
X100958821Y-22226672D01*
X100980333Y-22292879D01*
X100981090Y-22300082D01*
X100982422Y-22304473D01*
X100995377Y-22436021D01*
X101000000Y-22480000D01*
X100995377Y-22523982D01*
X100982422Y-22655526D01*
X100981090Y-22659916D01*
X100980333Y-22667121D01*
X100958816Y-22733341D01*
X100931223Y-22824304D01*
X100926219Y-22833665D01*
X100922191Y-22846063D01*
X100887176Y-22906709D01*
X100848083Y-22979849D01*
X100837514Y-22992726D01*
X100828115Y-23009007D01*
X100783369Y-23058701D01*
X100736190Y-23116190D01*
X100718634Y-23130597D01*
X100702218Y-23148830D01*
X100651659Y-23185563D01*
X100599849Y-23228083D01*
X100574450Y-23241658D01*
X100550000Y-23259423D01*
X100497408Y-23282838D01*
X100444304Y-23311223D01*
X100410886Y-23321360D01*
X100378115Y-23335951D01*
X100326905Y-23346836D01*
X100275526Y-23362422D01*
X100234631Y-23366449D01*
X100194076Y-23375070D01*
X100147103Y-23375070D01*
X100100000Y-23379709D01*
X100052897Y-23375070D01*
X100005924Y-23375070D01*
X99965368Y-23366449D01*
X99924473Y-23362422D01*
X99873091Y-23346835D01*
X99821885Y-23335951D01*
X99789115Y-23321361D01*
X99755695Y-23311223D01*
X99702585Y-23282835D01*
X99650000Y-23259423D01*
X99625552Y-23241660D01*
X99600150Y-23228083D01*
X99548332Y-23185556D01*
X99497782Y-23148830D01*
X99481368Y-23130600D01*
X99463809Y-23116190D01*
X99416618Y-23058688D01*
X99371885Y-23009007D01*
X99362487Y-22992730D01*
X99351916Y-22979849D01*
X99312810Y-22906686D01*
X99277809Y-22846063D01*
X99273782Y-22833670D01*
X99268776Y-22824304D01*
X99241168Y-22733294D01*
X99219667Y-22667121D01*
X99218910Y-22659921D01*
X99217577Y-22655526D01*
X99204606Y-22523831D01*
X99200000Y-22480000D01*
X99204606Y-22436172D01*
X99217577Y-22304473D01*
X99218910Y-22300077D01*
X99219667Y-22292879D01*
X99241163Y-22226719D01*
X99268776Y-22135695D01*
X99273783Y-22126327D01*
X99277809Y-22113937D01*
X99312802Y-22053326D01*
X99351916Y-21980150D01*
X99362489Y-21967265D01*
X99371885Y-21950993D01*
X99416609Y-21901321D01*
X99463809Y-21843809D01*
X99481371Y-21829395D01*
X99497782Y-21811170D01*
X99548321Y-21774450D01*
X99600150Y-21731916D01*
X99625557Y-21718335D01*
X99650000Y-21700577D01*
X99702573Y-21677169D01*
X99755695Y-21648776D01*
X99789122Y-21638635D01*
X99821885Y-21624049D01*
X99873080Y-21613166D01*
X99924473Y-21597577D01*
X99965377Y-21593548D01*
X100005924Y-21584930D01*
X100052887Y-21584930D01*
X100100000Y-21580290D01*
X100147113Y-21584930D01*
G37*
G36*
X115647113Y-21584930D02*
G01*
X115694076Y-21584930D01*
X115734622Y-21593548D01*
X115775526Y-21597577D01*
X115826916Y-21613166D01*
X115878115Y-21624049D01*
X115910879Y-21638636D01*
X115944304Y-21648776D01*
X115997420Y-21677166D01*
X116050000Y-21700577D01*
X116074445Y-21718337D01*
X116099849Y-21731916D01*
X116151669Y-21774444D01*
X116202218Y-21811170D01*
X116218631Y-21829398D01*
X116236190Y-21843809D01*
X116283379Y-21901308D01*
X116328115Y-21950993D01*
X116337512Y-21967269D01*
X116348083Y-21980150D01*
X116387183Y-22053302D01*
X116422191Y-22113937D01*
X116426218Y-22126331D01*
X116431223Y-22135695D01*
X116458821Y-22226672D01*
X116480333Y-22292879D01*
X116481090Y-22300082D01*
X116482422Y-22304473D01*
X116495377Y-22436021D01*
X116500000Y-22480000D01*
X116495377Y-22523982D01*
X116482422Y-22655526D01*
X116481090Y-22659916D01*
X116480333Y-22667121D01*
X116458816Y-22733341D01*
X116431223Y-22824304D01*
X116426219Y-22833665D01*
X116422191Y-22846063D01*
X116387176Y-22906709D01*
X116348083Y-22979849D01*
X116337514Y-22992726D01*
X116328115Y-23009007D01*
X116283369Y-23058701D01*
X116236190Y-23116190D01*
X116218634Y-23130597D01*
X116202218Y-23148830D01*
X116151659Y-23185563D01*
X116099849Y-23228083D01*
X116074450Y-23241658D01*
X116050000Y-23259423D01*
X115997408Y-23282838D01*
X115944304Y-23311223D01*
X115910886Y-23321360D01*
X115878115Y-23335951D01*
X115826905Y-23346836D01*
X115775526Y-23362422D01*
X115734631Y-23366449D01*
X115694076Y-23375070D01*
X115647103Y-23375070D01*
X115600000Y-23379709D01*
X115552897Y-23375070D01*
X115505924Y-23375070D01*
X115465368Y-23366449D01*
X115424473Y-23362422D01*
X115373091Y-23346835D01*
X115321885Y-23335951D01*
X115289115Y-23321361D01*
X115255695Y-23311223D01*
X115202585Y-23282835D01*
X115150000Y-23259423D01*
X115125552Y-23241660D01*
X115100150Y-23228083D01*
X115048332Y-23185556D01*
X114997782Y-23148830D01*
X114981368Y-23130600D01*
X114963809Y-23116190D01*
X114916618Y-23058688D01*
X114871885Y-23009007D01*
X114862487Y-22992730D01*
X114851916Y-22979849D01*
X114812810Y-22906686D01*
X114777809Y-22846063D01*
X114773782Y-22833670D01*
X114768776Y-22824304D01*
X114741168Y-22733294D01*
X114719667Y-22667121D01*
X114718910Y-22659921D01*
X114717577Y-22655526D01*
X114704606Y-22523831D01*
X114700000Y-22480000D01*
X114704606Y-22436172D01*
X114717577Y-22304473D01*
X114718910Y-22300077D01*
X114719667Y-22292879D01*
X114741163Y-22226719D01*
X114768776Y-22135695D01*
X114773783Y-22126327D01*
X114777809Y-22113937D01*
X114812802Y-22053326D01*
X114851916Y-21980150D01*
X114862489Y-21967265D01*
X114871885Y-21950993D01*
X114916609Y-21901321D01*
X114963809Y-21843809D01*
X114981371Y-21829395D01*
X114997782Y-21811170D01*
X115048321Y-21774450D01*
X115100150Y-21731916D01*
X115125557Y-21718335D01*
X115150000Y-21700577D01*
X115202573Y-21677169D01*
X115255695Y-21648776D01*
X115289122Y-21638635D01*
X115321885Y-21624049D01*
X115373080Y-21613166D01*
X115424473Y-21597577D01*
X115465377Y-21593548D01*
X115505924Y-21584930D01*
X115552887Y-21584930D01*
X115600000Y-21580290D01*
X115647113Y-21584930D01*
G37*
G36*
X100147113Y-19044930D02*
G01*
X100194076Y-19044930D01*
X100234622Y-19053548D01*
X100275526Y-19057577D01*
X100326916Y-19073166D01*
X100378115Y-19084049D01*
X100410879Y-19098636D01*
X100444304Y-19108776D01*
X100497420Y-19137166D01*
X100550000Y-19160577D01*
X100574445Y-19178337D01*
X100599849Y-19191916D01*
X100651669Y-19234444D01*
X100702218Y-19271170D01*
X100718631Y-19289398D01*
X100736190Y-19303809D01*
X100783379Y-19361308D01*
X100828115Y-19410993D01*
X100837512Y-19427269D01*
X100848083Y-19440150D01*
X100887183Y-19513302D01*
X100922191Y-19573937D01*
X100926218Y-19586331D01*
X100931223Y-19595695D01*
X100958821Y-19686672D01*
X100980333Y-19752879D01*
X100981090Y-19760082D01*
X100982422Y-19764473D01*
X100995377Y-19896021D01*
X101000000Y-19940000D01*
X100995377Y-19983982D01*
X100982422Y-20115526D01*
X100981090Y-20119916D01*
X100980333Y-20127121D01*
X100958816Y-20193341D01*
X100931223Y-20284304D01*
X100926219Y-20293665D01*
X100922191Y-20306063D01*
X100887176Y-20366709D01*
X100848083Y-20439849D01*
X100837514Y-20452726D01*
X100828115Y-20469007D01*
X100783369Y-20518701D01*
X100736190Y-20576190D01*
X100718634Y-20590597D01*
X100702218Y-20608830D01*
X100651659Y-20645563D01*
X100599849Y-20688083D01*
X100574450Y-20701658D01*
X100550000Y-20719423D01*
X100497408Y-20742838D01*
X100444304Y-20771223D01*
X100410886Y-20781360D01*
X100378115Y-20795951D01*
X100326905Y-20806836D01*
X100275526Y-20822422D01*
X100234631Y-20826449D01*
X100194076Y-20835070D01*
X100147103Y-20835070D01*
X100100000Y-20839709D01*
X100052897Y-20835070D01*
X100005924Y-20835070D01*
X99965368Y-20826449D01*
X99924473Y-20822422D01*
X99873091Y-20806835D01*
X99821885Y-20795951D01*
X99789115Y-20781361D01*
X99755695Y-20771223D01*
X99702585Y-20742835D01*
X99650000Y-20719423D01*
X99625552Y-20701660D01*
X99600150Y-20688083D01*
X99548332Y-20645556D01*
X99497782Y-20608830D01*
X99481368Y-20590600D01*
X99463809Y-20576190D01*
X99416618Y-20518688D01*
X99371885Y-20469007D01*
X99362487Y-20452730D01*
X99351916Y-20439849D01*
X99312810Y-20366686D01*
X99277809Y-20306063D01*
X99273782Y-20293670D01*
X99268776Y-20284304D01*
X99241168Y-20193294D01*
X99219667Y-20127121D01*
X99218910Y-20119921D01*
X99217577Y-20115526D01*
X99204606Y-19983831D01*
X99200000Y-19940000D01*
X99204606Y-19896172D01*
X99217577Y-19764473D01*
X99218910Y-19760077D01*
X99219667Y-19752879D01*
X99241163Y-19686719D01*
X99268776Y-19595695D01*
X99273783Y-19586327D01*
X99277809Y-19573937D01*
X99312802Y-19513326D01*
X99351916Y-19440150D01*
X99362489Y-19427265D01*
X99371885Y-19410993D01*
X99416609Y-19361321D01*
X99463809Y-19303809D01*
X99481371Y-19289395D01*
X99497782Y-19271170D01*
X99548321Y-19234450D01*
X99600150Y-19191916D01*
X99625557Y-19178335D01*
X99650000Y-19160577D01*
X99702573Y-19137169D01*
X99755695Y-19108776D01*
X99789122Y-19098635D01*
X99821885Y-19084049D01*
X99873080Y-19073166D01*
X99924473Y-19057577D01*
X99965377Y-19053548D01*
X100005924Y-19044930D01*
X100052887Y-19044930D01*
X100100000Y-19040290D01*
X100147113Y-19044930D01*
G37*
G36*
X115647113Y-19044930D02*
G01*
X115694076Y-19044930D01*
X115734622Y-19053548D01*
X115775526Y-19057577D01*
X115826916Y-19073166D01*
X115878115Y-19084049D01*
X115910879Y-19098636D01*
X115944304Y-19108776D01*
X115997420Y-19137166D01*
X116050000Y-19160577D01*
X116074445Y-19178337D01*
X116099849Y-19191916D01*
X116151669Y-19234444D01*
X116202218Y-19271170D01*
X116218631Y-19289398D01*
X116236190Y-19303809D01*
X116283379Y-19361308D01*
X116328115Y-19410993D01*
X116337512Y-19427269D01*
X116348083Y-19440150D01*
X116387183Y-19513302D01*
X116422191Y-19573937D01*
X116426218Y-19586331D01*
X116431223Y-19595695D01*
X116458821Y-19686672D01*
X116480333Y-19752879D01*
X116481090Y-19760082D01*
X116482422Y-19764473D01*
X116495377Y-19896021D01*
X116500000Y-19940000D01*
X116495377Y-19983982D01*
X116482422Y-20115526D01*
X116481090Y-20119916D01*
X116480333Y-20127121D01*
X116458816Y-20193341D01*
X116431223Y-20284304D01*
X116426219Y-20293665D01*
X116422191Y-20306063D01*
X116387176Y-20366709D01*
X116348083Y-20439849D01*
X116337514Y-20452726D01*
X116328115Y-20469007D01*
X116283369Y-20518701D01*
X116236190Y-20576190D01*
X116218634Y-20590597D01*
X116202218Y-20608830D01*
X116151659Y-20645563D01*
X116099849Y-20688083D01*
X116074450Y-20701658D01*
X116050000Y-20719423D01*
X115997408Y-20742838D01*
X115944304Y-20771223D01*
X115910886Y-20781360D01*
X115878115Y-20795951D01*
X115826905Y-20806836D01*
X115775526Y-20822422D01*
X115734631Y-20826449D01*
X115694076Y-20835070D01*
X115647103Y-20835070D01*
X115600000Y-20839709D01*
X115552897Y-20835070D01*
X115505924Y-20835070D01*
X115465368Y-20826449D01*
X115424473Y-20822422D01*
X115373091Y-20806835D01*
X115321885Y-20795951D01*
X115289115Y-20781361D01*
X115255695Y-20771223D01*
X115202585Y-20742835D01*
X115150000Y-20719423D01*
X115125552Y-20701660D01*
X115100150Y-20688083D01*
X115048332Y-20645556D01*
X114997782Y-20608830D01*
X114981368Y-20590600D01*
X114963809Y-20576190D01*
X114916618Y-20518688D01*
X114871885Y-20469007D01*
X114862487Y-20452730D01*
X114851916Y-20439849D01*
X114812810Y-20366686D01*
X114777809Y-20306063D01*
X114773782Y-20293670D01*
X114768776Y-20284304D01*
X114741168Y-20193294D01*
X114719667Y-20127121D01*
X114718910Y-20119921D01*
X114717577Y-20115526D01*
X114704606Y-19983831D01*
X114700000Y-19940000D01*
X114704606Y-19896172D01*
X114717577Y-19764473D01*
X114718910Y-19760077D01*
X114719667Y-19752879D01*
X114741163Y-19686719D01*
X114768776Y-19595695D01*
X114773783Y-19586327D01*
X114777809Y-19573937D01*
X114812802Y-19513326D01*
X114851916Y-19440150D01*
X114862489Y-19427265D01*
X114871885Y-19410993D01*
X114916609Y-19361321D01*
X114963809Y-19303809D01*
X114981371Y-19289395D01*
X114997782Y-19271170D01*
X115048321Y-19234450D01*
X115100150Y-19191916D01*
X115125557Y-19178335D01*
X115150000Y-19160577D01*
X115202573Y-19137169D01*
X115255695Y-19108776D01*
X115289122Y-19098635D01*
X115321885Y-19084049D01*
X115373080Y-19073166D01*
X115424473Y-19057577D01*
X115465377Y-19053548D01*
X115505924Y-19044930D01*
X115552887Y-19044930D01*
X115600000Y-19040290D01*
X115647113Y-19044930D01*
G37*
G36*
X101000000Y-18300000D02*
G01*
X99200000Y-18300000D01*
X99200000Y-16500000D01*
X101000000Y-16500000D01*
X101000000Y-18300000D01*
G37*
G36*
X116500000Y-18300000D02*
G01*
X114700000Y-18300000D01*
X114700000Y-16500000D01*
X116500000Y-16500000D01*
X116500000Y-18300000D01*
G37*
M02*
