%TF.GenerationSoftware,KiCad,Pcbnew,7.0.10*%
%TF.CreationDate,2024-06-15T10:18:46+01:00*%
%TF.ProjectId,buran,62757261-6e2e-46b6-9963-61645f706362,rev?*%
%TF.SameCoordinates,Original*%
%TF.FileFunction,Copper,L2,Bot*%
%TF.FilePolarity,Positive*%
%FSLAX46Y46*%
G04 Gerber Fmt 4.6, Leading zero omitted, Abs format (unit mm)*
G04 Created by KiCad (PCBNEW 7.0.10) date 2024-06-15 10:18:46*
%MOMM*%
%LPD*%
G01*
G04 APERTURE LIST*
%TA.AperFunction,ComponentPad*%
%ADD10C,8.000000*%
%TD*%
%TA.AperFunction,ComponentPad*%
%ADD11C,1.200000*%
%TD*%
%TA.AperFunction,ComponentPad*%
%ADD12C,3.037000*%
%TD*%
%TA.AperFunction,ComponentPad*%
%ADD13R,1.650000X1.650000*%
%TD*%
%TA.AperFunction,ComponentPad*%
%ADD14C,1.650000*%
%TD*%
%TA.AperFunction,ComponentPad*%
%ADD15C,1.800000*%
%TD*%
%TA.AperFunction,ComponentPad*%
%ADD16R,1.100000X1.100000*%
%TD*%
%TA.AperFunction,ComponentPad*%
%ADD17C,1.100000*%
%TD*%
%TA.AperFunction,ComponentPad*%
%ADD18C,1.575000*%
%TD*%
%TA.AperFunction,ViaPad*%
%ADD19C,0.600000*%
%TD*%
%TA.AperFunction,Conductor*%
%ADD20C,0.127000*%
%TD*%
%TA.AperFunction,Conductor*%
%ADD21C,0.500000*%
%TD*%
G04 APERTURE END LIST*
D10*
%TO.P,REF\u002A\u002A,1*%
%TO.N,N/C*%
X42164000Y-33020000D03*
%TD*%
%TO.P,REF\u002A\u002A,1*%
%TO.N,N/C*%
X205726875Y-141861027D03*
%TD*%
%TO.P,REF\u002A\u002A,1*%
%TO.N,N/C*%
X205726875Y-33149027D03*
%TD*%
D11*
%TO.P,J4,1,VBUS*%
%TO.N,/V_UNREG*%
X126276000Y-29140000D03*
%TO.P,J4,2,D-*%
%TO.N,/D0-*%
X125476000Y-27940000D03*
%TO.P,J4,3,D+*%
%TO.N,/D0+*%
X124676000Y-29140000D03*
%TO.P,J4,4,ID*%
%TO.N,GND*%
X123876000Y-27940000D03*
%TO.P,J4,5,GND*%
X123076000Y-29140000D03*
D12*
%TO.P,J4,MH1,MH1*%
X128326000Y-24090000D03*
%TO.P,J4,MH2,MH2*%
X121026000Y-24090000D03*
%TD*%
D13*
%TO.P,J1,1,1*%
%TO.N,VDD*%
X82296000Y-72136000D03*
D14*
%TO.P,J1,2,2*%
%TO.N,GND*%
X79756000Y-72136000D03*
%TO.P,J1,3,3*%
%TO.N,/V_UNREG*%
X82296000Y-69596000D03*
%TO.P,J1,4,4*%
%TO.N,/CBUS5{slash}USART_RX*%
X79756000Y-69596000D03*
%TO.P,J1,5,5*%
%TO.N,/SDA*%
X82296000Y-67056000D03*
%TO.P,J1,6,6*%
%TO.N,unconnected-(J1-Pad6)*%
X79756000Y-67056000D03*
%TO.P,J1,7,7*%
%TO.N,/SCL*%
X82296000Y-64516000D03*
%TO.P,J1,8,8*%
%TO.N,unconnected-(J1-Pad8)*%
X79756000Y-64516000D03*
%TO.P,J1,9,9*%
%TO.N,/N_RESET*%
X82296000Y-61976000D03*
%TO.P,J1,10,10*%
%TO.N,unconnected-(J1-Pad10)*%
X79756000Y-61976000D03*
%TO.P,J1,11,11*%
%TO.N,/CBUS0*%
X82296000Y-59436000D03*
%TO.P,J1,12,12*%
%TO.N,unconnected-(J1-Pad12)*%
X79756000Y-59436000D03*
%TO.P,J1,13,13*%
%TO.N,/CBUS1*%
X82296000Y-56896000D03*
%TO.P,J1,14,14*%
%TO.N,unconnected-(J1-Pad14)*%
X79756000Y-56896000D03*
%TO.P,J1,15,15*%
%TO.N,/CBUS2*%
X82296000Y-54356000D03*
%TO.P,J1,16,16*%
%TO.N,unconnected-(J1-Pad16)*%
X79756000Y-54356000D03*
%TO.P,J1,17,17*%
%TO.N,/CBUS3*%
X82296000Y-51816000D03*
%TO.P,J1,18,18*%
%TO.N,unconnected-(J1-Pad18)*%
X79756000Y-51816000D03*
%TO.P,J1,19,19*%
%TO.N,/CBUS4{slash}USART_TX*%
X82296000Y-49276000D03*
%TO.P,J1,20,20*%
%TO.N,unconnected-(J1-Pad20)*%
X79756000Y-49276000D03*
%TD*%
D15*
%TO.P,S2,1,COM*%
%TO.N,/MCU_S2*%
X101350000Y-122540000D03*
%TO.P,S2,2,NO*%
%TO.N,GND*%
X101350000Y-117460000D03*
%TO.P,S2,3,NC*%
%TO.N,unconnected-(S2-NC-Pad3)*%
X101350000Y-112380000D03*
%TO.P,S2,4,L2*%
%TO.N,VDD*%
X97540000Y-120000000D03*
%TO.P,S2,5,L1*%
%TO.N,Net-(S2-L1)*%
X97540000Y-114920000D03*
%TO.P,S2,6,L4*%
%TO.N,/IC4_LED_4*%
X95000000Y-114920000D03*
%TO.P,S2,7,L3*%
%TO.N,/IC4_LED_5*%
X95000000Y-120000000D03*
%TD*%
D10*
%TO.P,,1*%
%TO.N,N/C*%
X42164000Y-141732000D03*
%TD*%
D16*
%TO.P,J3,1,1*%
%TO.N,VDD*%
X145669000Y-58420000D03*
D17*
%TO.P,J3,2,2*%
%TO.N,/SWDIO*%
X146939000Y-58420000D03*
%TO.P,J3,3,3*%
%TO.N,GND*%
X145669000Y-59690000D03*
%TO.P,J3,4,4*%
%TO.N,/SWCLK*%
X146939000Y-59690000D03*
%TO.P,J3,5,5*%
%TO.N,GND*%
X145669000Y-60960000D03*
%TO.P,J3,6,6*%
%TO.N,unconnected-(J3-Pad6)*%
X146939000Y-60960000D03*
%TO.P,J3,7,7*%
%TO.N,unconnected-(J3-Pad7)*%
X145669000Y-62230000D03*
%TO.P,J3,8,8*%
%TO.N,unconnected-(J3-Pad8)*%
X146939000Y-62230000D03*
%TO.P,J3,9,9*%
%TO.N,unconnected-(J3-Pad9)*%
X145669000Y-63500000D03*
%TO.P,J3,10,10*%
%TO.N,/N_RESET*%
X146939000Y-63500000D03*
%TD*%
D15*
%TO.P,S3,1,COM*%
%TO.N,/MCU_S3*%
X163810000Y-122540000D03*
%TO.P,S3,2,NO*%
%TO.N,GND*%
X163810000Y-117460000D03*
%TO.P,S3,3,NC*%
%TO.N,unconnected-(S3-NC-Pad3)*%
X163810000Y-112380000D03*
%TO.P,S3,4,L2*%
%TO.N,VDD*%
X160000000Y-120000000D03*
%TO.P,S3,5,L1*%
%TO.N,Net-(S3-L1)*%
X160000000Y-114920000D03*
%TO.P,S3,6,L4*%
%TO.N,/IC4_LED_7*%
X157460000Y-114920000D03*
%TO.P,S3,7,L3*%
%TO.N,/IC4_LED_8*%
X157460000Y-120000000D03*
%TD*%
%TO.P,S1,1,COM*%
%TO.N,/MCU_S1*%
X68810000Y-122620000D03*
%TO.P,S1,2,NO*%
%TO.N,GND*%
X68810000Y-117540000D03*
%TO.P,S1,3,NC*%
%TO.N,unconnected-(S1-NC-Pad3)*%
X68810000Y-112460000D03*
%TO.P,S1,4,L2*%
%TO.N,VDD*%
X65000000Y-120080000D03*
%TO.P,S1,5,L1*%
%TO.N,Net-(S1-L1)*%
X65000000Y-115000000D03*
%TO.P,S1,6,L4*%
%TO.N,/IC4_LED_1*%
X62460000Y-115000000D03*
%TO.P,S1,7,L3*%
%TO.N,/IC4_LED_2*%
X62460000Y-120080000D03*
%TD*%
%TO.P,S4,1,COM*%
%TO.N,/MCU_S4*%
X191350000Y-122620000D03*
%TO.P,S4,2,NO*%
%TO.N,GND*%
X191350000Y-117540000D03*
%TO.P,S4,3,NC*%
%TO.N,unconnected-(S4-NC-Pad3)*%
X191350000Y-112460000D03*
%TO.P,S4,4,L2*%
%TO.N,VDD*%
X187540000Y-120080000D03*
%TO.P,S4,5,L1*%
%TO.N,Net-(S4-L1)*%
X187540000Y-115000000D03*
%TO.P,S4,6,L4*%
%TO.N,/IC4_LED_10*%
X185000000Y-115000000D03*
%TO.P,S4,7,L3*%
%TO.N,/IC4_LED_11*%
X185000000Y-120080000D03*
%TD*%
D18*
%TO.P,S5,A1,A1*%
%TO.N,/N_RESET*%
X102156000Y-40576000D03*
%TO.P,S5,B1,B1*%
%TO.N,GND*%
X108156000Y-40576000D03*
%TO.P,S5,C1,C1*%
%TO.N,/N_RESET*%
X102156000Y-32576000D03*
%TO.P,S5,D1,D1*%
%TO.N,GND*%
X108156000Y-32576000D03*
%TD*%
D19*
%TO.N,VDD*%
X130048000Y-43515500D03*
X103632000Y-60960000D03*
X123444000Y-84328000D03*
X133096000Y-55372000D03*
X120394500Y-85852000D03*
X129032000Y-46228000D03*
X107188000Y-64516000D03*
%TO.N,GND*%
X192532000Y-80264000D03*
X132080000Y-66040000D03*
X145796000Y-91948000D03*
X113284000Y-43180000D03*
X68072000Y-71120000D03*
X142240000Y-59944000D03*
X143256000Y-59436000D03*
X108712000Y-47752000D03*
X109220000Y-80264000D03*
X133096000Y-67564000D03*
X127000000Y-41148000D03*
X134620000Y-67056000D03*
X156464000Y-101600000D03*
X143256000Y-60960000D03*
X134112000Y-49276000D03*
X68580000Y-142240000D03*
X142240000Y-59944000D03*
X135636000Y-76200000D03*
X175260000Y-24384000D03*
X37592000Y-26416000D03*
X111252000Y-82296000D03*
X178308000Y-143256000D03*
X84328000Y-76708000D03*
X171704000Y-56896000D03*
X154432000Y-24384000D03*
X138684000Y-142748000D03*
X120396000Y-89916000D03*
X154432000Y-112268000D03*
X192024000Y-25400000D03*
X111760000Y-54356000D03*
X133604000Y-44196000D03*
X133096000Y-65532000D03*
X127000000Y-34036000D03*
X25400000Y-76200000D03*
X107696000Y-53848000D03*
X38608000Y-135128000D03*
X132080000Y-43180000D03*
X110744000Y-59436000D03*
X218948000Y-124460000D03*
X122936000Y-41148000D03*
X120396000Y-91948000D03*
X153416000Y-79248000D03*
X202692000Y-133096000D03*
X101600000Y-142748000D03*
X149352000Y-107696000D03*
X24892000Y-96520000D03*
X122936000Y-34036000D03*
X132080000Y-66040000D03*
X143256000Y-59436000D03*
X97536000Y-23876000D03*
X118872000Y-91948000D03*
X127000000Y-39624000D03*
X218948000Y-92964000D03*
X143256000Y-60960000D03*
X24892000Y-57912000D03*
X214884000Y-43688000D03*
X128016000Y-90424000D03*
X134112000Y-45720000D03*
X131572000Y-65024000D03*
X29972000Y-31496000D03*
X122936000Y-39624000D03*
X68072000Y-76708000D03*
X25908000Y-113284000D03*
X218948000Y-64516000D03*
X118872000Y-36576000D03*
X65532000Y-24384000D03*
X122936000Y-41148000D03*
X105664000Y-56388000D03*
X133604000Y-66548000D03*
X108712000Y-47752000D03*
X25400000Y-42164000D03*
X113284000Y-43180000D03*
X134112000Y-47244000D03*
X118872000Y-36576000D03*
X122936000Y-39624000D03*
X118872000Y-89916000D03*
X128016000Y-91948000D03*
%TO.N,/MCU_LED_1*%
X124961932Y-56889932D03*
X158496000Y-40640000D03*
%TO.N,/MCU_LED_2*%
X125476000Y-57404000D03*
X174244000Y-40640000D03*
%TO.N,/CBUS0*%
X116840000Y-61976000D03*
X130556000Y-44704000D03*
X94488000Y-59944000D03*
X86868000Y-59944000D03*
X132080000Y-50292000D03*
%TO.N,/CBUS1*%
X105156000Y-61976000D03*
X116840000Y-63500000D03*
X89916000Y-60960000D03*
%TO.N,/CBUS2*%
X115316000Y-59436000D03*
X118872000Y-48768000D03*
X116840000Y-64516000D03*
X115316000Y-64008000D03*
X124044836Y-63084836D03*
X92456000Y-54864000D03*
X98552000Y-57912000D03*
%TO.N,/SDA*%
X114317309Y-66830978D03*
X115824000Y-73660000D03*
%TO.N,/SCL*%
X113792000Y-64008000D03*
X84836000Y-62992000D03*
X111867837Y-65847273D03*
%TO.N,/CBUS3*%
X98552000Y-61468000D03*
X91440000Y-59436000D03*
X102108000Y-65024000D03*
X86868000Y-56388000D03*
X106680000Y-69596000D03*
X114808000Y-69596000D03*
%TO.N,/N_RESET*%
X122936000Y-73152000D03*
X117856000Y-51308000D03*
X135757627Y-71269293D03*
X146904836Y-68164836D03*
X145703164Y-69503164D03*
X131572000Y-51308000D03*
X138176000Y-57404000D03*
X140208000Y-59436000D03*
X125476000Y-73152000D03*
X135128000Y-50800000D03*
X102108000Y-50800000D03*
%TO.N,/SWDIO*%
X148844000Y-65532000D03*
%TO.N,/V_UNREG*%
X129156000Y-31112000D03*
X88392000Y-63500000D03*
%TO.N,/IC4_LED_11*%
X164084000Y-88392000D03*
X127508000Y-84328000D03*
%TO.N,/IC4_LED_10*%
X128524000Y-85344000D03*
X158496000Y-87376000D03*
%TO.N,/IC4_LED_8*%
X154432000Y-116840000D03*
X130556000Y-92964000D03*
%TO.N,/IC4_LED_7*%
X141732000Y-108204000D03*
X131572000Y-96520000D03*
%TO.N,/MCU_N_OE*%
X121412000Y-96012000D03*
X127000000Y-61976000D03*
%TO.N,/VCCIO*%
X130048000Y-48768000D03*
X120904000Y-45212000D03*
%TO.N,/MCU_S1*%
X125476000Y-67564000D03*
X87884000Y-99060000D03*
%TO.N,/MCU_S2*%
X106172000Y-100076000D03*
X126492000Y-66548000D03*
%TO.N,/MCU_S3*%
X132588000Y-62484000D03*
%TO.N,/MCU_S4*%
X144272000Y-65532000D03*
X147735164Y-65947164D03*
X134620000Y-61468000D03*
%TO.N,/CBUS4{slash}USART_TX*%
X90932000Y-54356000D03*
X85852000Y-60452000D03*
X118872000Y-47752000D03*
X88900000Y-65024000D03*
X125025836Y-62992000D03*
X102616000Y-67056000D03*
X115316000Y-70612000D03*
%TO.N,/CBUS5{slash}USART_RX*%
X125984000Y-61976000D03*
X115333500Y-71461005D03*
X119380000Y-44149500D03*
%TD*%
D20*
%TO.N,VDD*%
X129032000Y-44531500D02*
X130048000Y-43515500D01*
X130048000Y-51816000D02*
X133096000Y-54864000D01*
X129032000Y-46228000D02*
X130538500Y-47734500D01*
X130538500Y-49293500D02*
X130048000Y-49784000D01*
X123444000Y-84328000D02*
X121918500Y-84328000D01*
X130048000Y-49784000D02*
X130048000Y-51816000D01*
X103632000Y-60960000D02*
X103632000Y-61976000D01*
X106172000Y-64516000D02*
X107188000Y-64516000D01*
X133096000Y-54864000D02*
X133096000Y-55372000D01*
X103632000Y-61976000D02*
X106172000Y-64516000D01*
X130538500Y-47734500D02*
X130538500Y-49293500D01*
X129032000Y-46228000D02*
X129032000Y-44531500D01*
X121918500Y-84328000D02*
X120394500Y-85852000D01*
%TO.N,GND*%
X128016000Y-90424000D02*
X128016000Y-89916000D01*
X128016000Y-91948000D02*
X128524000Y-92456000D01*
%TO.N,/MCU_LED_1*%
X125971864Y-55880000D02*
X124961932Y-56889932D01*
X158496000Y-40640000D02*
X143256000Y-55880000D01*
X143256000Y-55880000D02*
X133096000Y-55880000D01*
X133096000Y-55880000D02*
X125971864Y-55880000D01*
%TO.N,/MCU_LED_2*%
X174244000Y-40640000D02*
X159512000Y-40640000D01*
X159512000Y-40640000D02*
X143764000Y-56388000D01*
X133096000Y-56388000D02*
X126492000Y-56388000D01*
X143764000Y-56388000D02*
X133096000Y-56388000D01*
X126492000Y-56388000D02*
X125476000Y-57404000D01*
%TO.N,/CBUS0*%
X86868000Y-59944000D02*
X82804000Y-59944000D01*
X107188000Y-61976000D02*
X105156000Y-59944000D01*
X82804000Y-59944000D02*
X82296000Y-59436000D01*
X116840000Y-61976000D02*
X107188000Y-61976000D01*
X132080000Y-50292000D02*
X132080000Y-46228000D01*
X105156000Y-59944000D02*
X94488000Y-59944000D01*
X132080000Y-46228000D02*
X130556000Y-44704000D01*
%TO.N,/CBUS1*%
X89916000Y-60960000D02*
X85852000Y-56896000D01*
X116840000Y-63500000D02*
X106680000Y-63500000D01*
X106680000Y-63500000D02*
X105156000Y-61976000D01*
X85852000Y-56896000D02*
X82296000Y-56896000D01*
%TO.N,/CBUS2*%
X113792000Y-57912000D02*
X98552000Y-57912000D01*
X92456000Y-54864000D02*
X82804000Y-54864000D01*
X115824000Y-64516000D02*
X115316000Y-64008000D01*
X82804000Y-54864000D02*
X82296000Y-54356000D01*
X120904000Y-50800000D02*
X118872000Y-48768000D01*
X124044836Y-63084836D02*
X124044836Y-59020836D01*
X124044836Y-59020836D02*
X120904000Y-55880000D01*
X116840000Y-64516000D02*
X115824000Y-64516000D01*
X120904000Y-55880000D02*
X120904000Y-50800000D01*
X115316000Y-59436000D02*
X113792000Y-57912000D01*
%TO.N,/SDA*%
X115824000Y-68337669D02*
X114317309Y-66830978D01*
X115824000Y-73660000D02*
X115824000Y-68337669D01*
%TO.N,/SCL*%
X87691273Y-65847273D02*
X111867837Y-65847273D01*
X113792000Y-64008000D02*
X111952727Y-65847273D01*
X84836000Y-62992000D02*
X87691273Y-65847273D01*
X111952727Y-65847273D02*
X111867837Y-65847273D01*
%TO.N,/CBUS3*%
X86868000Y-56388000D02*
X89916000Y-59436000D01*
X106680000Y-69596000D02*
X114808000Y-69596000D01*
X89916000Y-59436000D02*
X91440000Y-59436000D01*
X98552000Y-61468000D02*
X102108000Y-65024000D01*
%TO.N,/N_RESET*%
X145634836Y-69503164D02*
X143868707Y-71269293D01*
X131572000Y-51308000D02*
X134620000Y-51308000D01*
X117856000Y-51308000D02*
X102616000Y-51308000D01*
X146939000Y-63500000D02*
X146939000Y-68130672D01*
X134620000Y-51308000D02*
X135128000Y-50800000D01*
X122936000Y-73152000D02*
X125476000Y-73152000D01*
X145703164Y-69503164D02*
X145634836Y-69503164D01*
X135757627Y-71269293D02*
X143868707Y-71269293D01*
X146939000Y-68130672D02*
X146904836Y-68164836D01*
X102616000Y-51308000D02*
X102108000Y-50800000D01*
X140208000Y-59436000D02*
X138176000Y-57404000D01*
%TO.N,/SWDIO*%
X148844000Y-65532000D02*
X148844000Y-59436000D01*
X148844000Y-59436000D02*
X147828000Y-58420000D01*
X147828000Y-58420000D02*
X146939000Y-58420000D01*
%TO.N,/V_UNREG*%
X119888000Y-28448000D02*
X117232337Y-28448000D01*
D21*
X129156000Y-31112000D02*
X128248000Y-31112000D01*
D20*
X102616000Y-49276000D02*
X103632000Y-49276000D01*
X125485500Y-29930500D02*
X121370500Y-29930500D01*
X88392000Y-63500000D02*
X102616000Y-49276000D01*
X115316000Y-37592000D02*
X115316000Y-30364337D01*
X126276000Y-29140000D02*
X125485500Y-29930500D01*
D21*
X128248000Y-31112000D02*
X126276000Y-29140000D01*
D20*
X103632000Y-49276000D02*
X115316000Y-37592000D01*
X115316000Y-30364337D02*
X117232337Y-28448000D01*
X121370500Y-29930500D02*
X119888000Y-28448000D01*
%TO.N,/IC4_LED_11*%
X164084000Y-88392000D02*
X160020000Y-84328000D01*
X160020000Y-84328000D02*
X128524000Y-84328000D01*
X128524000Y-84328000D02*
X127508000Y-84328000D01*
%TO.N,/IC4_LED_10*%
X156464000Y-85344000D02*
X128524000Y-85344000D01*
X158496000Y-87376000D02*
X156464000Y-85344000D01*
%TO.N,/IC4_LED_8*%
X154432000Y-116840000D02*
X130556000Y-92964000D01*
%TO.N,/IC4_LED_7*%
X141732000Y-106680000D02*
X131572000Y-96520000D01*
X141732000Y-108204000D02*
X141732000Y-106680000D01*
%TO.N,/MCU_N_OE*%
X121412000Y-96012000D02*
X119380000Y-96012000D01*
X127000000Y-77724000D02*
X127000000Y-61976000D01*
X119380000Y-96012000D02*
X117348000Y-93980000D01*
X117348000Y-87376000D02*
X127000000Y-77724000D01*
X117348000Y-93980000D02*
X117348000Y-87376000D01*
%TO.N,/VCCIO*%
X129032000Y-49784000D02*
X130048000Y-48768000D01*
X119888000Y-46228000D02*
X119888000Y-47752000D01*
X120904000Y-45212000D02*
X119888000Y-46228000D01*
X119888000Y-47752000D02*
X121920000Y-49784000D01*
X121920000Y-49784000D02*
X129032000Y-49784000D01*
%TO.N,/MCU_S1*%
X112268000Y-74676000D02*
X115824000Y-74676000D01*
X115824000Y-74676000D02*
X118364000Y-72136000D01*
X120396000Y-72136000D02*
X124968000Y-67564000D01*
X87884000Y-99060000D02*
X112268000Y-74676000D01*
X124968000Y-67564000D02*
X125476000Y-67564000D01*
X118364000Y-72136000D02*
X120396000Y-72136000D01*
%TO.N,/MCU_S2*%
X106172000Y-100076000D02*
X106172000Y-88900000D01*
X125984000Y-67056000D02*
X126492000Y-66548000D01*
X106172000Y-88900000D02*
X125984000Y-69088000D01*
X125984000Y-69088000D02*
X125984000Y-67056000D01*
%TO.N,/MCU_S3*%
X164592000Y-69088000D02*
X150368000Y-69088000D01*
X139700000Y-62484000D02*
X137668000Y-62484000D01*
X146304000Y-69088000D02*
X139700000Y-62484000D01*
X167132000Y-119218000D02*
X167132000Y-73660000D01*
X167132000Y-73660000D02*
X167132000Y-71628000D01*
X167132000Y-71628000D02*
X164592000Y-69088000D01*
X150368000Y-69088000D02*
X146304000Y-69088000D01*
X137668000Y-62484000D02*
X132588000Y-62484000D01*
X163810000Y-122540000D02*
X167132000Y-119218000D01*
%TO.N,/MCU_S4*%
X147735164Y-65947164D02*
X150368000Y-68580000D01*
X167640000Y-108204000D02*
X182056000Y-122620000D01*
X182056000Y-122620000D02*
X191350000Y-122620000D01*
X164592000Y-68580000D02*
X167640000Y-71628000D01*
X167640000Y-71628000D02*
X167640000Y-108204000D01*
X150368000Y-68580000D02*
X164592000Y-68580000D01*
X134620000Y-61468000D02*
X140208000Y-61468000D01*
X140208000Y-61468000D02*
X144272000Y-65532000D01*
%TO.N,/CBUS4{slash}USART_TX*%
X125025836Y-62992000D02*
X125025836Y-59493836D01*
X121412000Y-55880000D02*
X121412000Y-50292000D01*
X85852000Y-49276000D02*
X82296000Y-49276000D01*
X90932000Y-54356000D02*
X85852000Y-49276000D01*
X85852000Y-61976000D02*
X85852000Y-60452000D01*
X121412000Y-50292000D02*
X118872000Y-47752000D01*
X106172000Y-70612000D02*
X102616000Y-67056000D01*
X115316000Y-70612000D02*
X106172000Y-70612000D01*
X125025836Y-59493836D02*
X121412000Y-55880000D01*
X88900000Y-65024000D02*
X85852000Y-61976000D01*
%TO.N,/CBUS5{slash}USART_RX*%
X125984000Y-59436000D02*
X123444000Y-56896000D01*
X103124500Y-68580500D02*
X104648000Y-70104000D01*
X119380000Y-47603210D02*
X119380000Y-44149500D01*
X121920000Y-50143210D02*
X119380000Y-47603210D01*
X121920000Y-55880000D02*
X121920000Y-54864000D01*
X123444000Y-56896000D02*
X122936000Y-56896000D01*
X104648000Y-70104000D02*
X106005005Y-71461005D01*
X106005005Y-71461005D02*
X115333500Y-71461005D01*
X80771500Y-68580500D02*
X103124500Y-68580500D01*
X121920000Y-54864000D02*
X121920000Y-50143210D01*
X125984000Y-61976000D02*
X125984000Y-59436000D01*
X79756000Y-69596000D02*
X80771500Y-68580500D01*
X122936000Y-56896000D02*
X121920000Y-55880000D01*
%TD*%
%TA.AperFunction,Conductor*%
%TO.N,GND*%
G36*
X200001120Y-20500520D02*
G01*
X201050718Y-20519256D01*
X201055090Y-20519413D01*
X202102314Y-20575545D01*
X202106633Y-20575854D01*
X203151155Y-20669326D01*
X203155533Y-20669796D01*
X204196069Y-20800492D01*
X204200351Y-20801107D01*
X205235561Y-20968860D01*
X205239891Y-20969641D01*
X206268426Y-21174229D01*
X206272693Y-21175157D01*
X207293271Y-21416326D01*
X207297508Y-21417407D01*
X208308834Y-21694851D01*
X208313081Y-21696098D01*
X209313836Y-22009454D01*
X209318004Y-22010841D01*
X210306962Y-22359726D01*
X210311060Y-22361255D01*
X211138973Y-22686999D01*
X211286906Y-22745204D01*
X211290996Y-22746898D01*
X212252526Y-23165436D01*
X212256507Y-23167254D01*
X212933803Y-23491298D01*
X213202482Y-23619844D01*
X213206432Y-23621821D01*
X214101456Y-24090000D01*
X214135657Y-24107890D01*
X214139542Y-24110012D01*
X215050791Y-24628917D01*
X215054598Y-24631176D01*
X215946745Y-25182274D01*
X215950464Y-25184664D01*
X216785939Y-25742911D01*
X216822382Y-25767261D01*
X216826011Y-25769780D01*
X217140274Y-25996396D01*
X217676610Y-26383149D01*
X217680153Y-26385802D01*
X218508292Y-27029120D01*
X218511710Y-27031875D01*
X219310775Y-27699673D01*
X219316358Y-27704339D01*
X219319668Y-27707206D01*
X220099875Y-28408028D01*
X220103088Y-28411021D01*
X220857727Y-29139190D01*
X220860809Y-29142272D01*
X221182459Y-29475614D01*
X221588978Y-29896911D01*
X221591973Y-29900126D01*
X222292789Y-30680327D01*
X222295657Y-30683638D01*
X222945755Y-31461523D01*
X222968113Y-31488275D01*
X222970884Y-31491714D01*
X223200321Y-31787066D01*
X223614197Y-32319846D01*
X223616850Y-32323389D01*
X224230214Y-33173981D01*
X224232738Y-33177617D01*
X224815332Y-34049530D01*
X224817725Y-34053254D01*
X225368823Y-34945401D01*
X225371082Y-34949208D01*
X225889987Y-35860457D01*
X225892109Y-35864342D01*
X226378174Y-36793559D01*
X226380155Y-36797517D01*
X226832734Y-37743469D01*
X226834573Y-37747496D01*
X227253101Y-38709003D01*
X227254795Y-38713093D01*
X227638735Y-39688915D01*
X227640282Y-39693062D01*
X227989152Y-40681979D01*
X227990550Y-40686179D01*
X228303901Y-41686918D01*
X228305148Y-41691165D01*
X228582585Y-42702465D01*
X228583679Y-42706754D01*
X228824835Y-43727277D01*
X228825776Y-43731603D01*
X229030355Y-44760095D01*
X229031141Y-44764451D01*
X229151885Y-45509565D01*
X229185055Y-45714262D01*
X229198884Y-45799598D01*
X229199513Y-45803977D01*
X229202248Y-45825749D01*
X229330201Y-46844455D01*
X229330674Y-46848856D01*
X229424141Y-47893318D01*
X229424457Y-47897733D01*
X229480585Y-48944883D01*
X229480743Y-48949307D01*
X229499480Y-49998879D01*
X229499500Y-50001092D01*
X229499500Y-119998907D01*
X229499480Y-120001120D01*
X229480743Y-121050692D01*
X229480585Y-121055116D01*
X229424457Y-122102266D01*
X229424141Y-122106681D01*
X229330674Y-123151143D01*
X229330201Y-123155544D01*
X229199514Y-124196019D01*
X229198884Y-124200401D01*
X229031141Y-125235548D01*
X229030355Y-125239904D01*
X228825776Y-126268396D01*
X228824835Y-126272722D01*
X228583679Y-127293245D01*
X228582585Y-127297534D01*
X228305148Y-128308834D01*
X228303901Y-128313081D01*
X227990550Y-129313820D01*
X227989152Y-129318020D01*
X227640282Y-130306937D01*
X227638735Y-130311084D01*
X227254795Y-131286906D01*
X227253101Y-131290996D01*
X226834573Y-132252503D01*
X226832734Y-132256530D01*
X226380155Y-133202482D01*
X226378174Y-133206440D01*
X225892109Y-134135657D01*
X225889987Y-134139542D01*
X225371082Y-135050791D01*
X225368823Y-135054598D01*
X224817725Y-135946745D01*
X224815332Y-135950469D01*
X224232738Y-136822382D01*
X224230214Y-136826018D01*
X223616850Y-137676610D01*
X223614197Y-137680153D01*
X222970891Y-138508277D01*
X222968113Y-138511724D01*
X222295660Y-139316358D01*
X222292765Y-139319699D01*
X222075045Y-139562082D01*
X221591995Y-140099849D01*
X221588978Y-140103088D01*
X220860833Y-140857703D01*
X220857703Y-140860833D01*
X220103088Y-141588978D01*
X220099849Y-141591995D01*
X219337548Y-142276734D01*
X219319704Y-142292762D01*
X219316358Y-142295660D01*
X218511724Y-142968113D01*
X218508277Y-142970891D01*
X217680153Y-143614197D01*
X217676610Y-143616850D01*
X216826018Y-144230214D01*
X216822382Y-144232738D01*
X215950469Y-144815332D01*
X215946745Y-144817725D01*
X215054598Y-145368823D01*
X215050791Y-145371082D01*
X214139542Y-145889987D01*
X214135657Y-145892109D01*
X213206440Y-146378174D01*
X213202482Y-146380155D01*
X212256530Y-146832734D01*
X212252503Y-146834573D01*
X211290996Y-147253101D01*
X211286906Y-147254795D01*
X210311084Y-147638735D01*
X210306937Y-147640282D01*
X209318020Y-147989152D01*
X209313820Y-147990550D01*
X208313081Y-148303901D01*
X208308834Y-148305148D01*
X207297534Y-148582585D01*
X207293245Y-148583679D01*
X206272722Y-148824835D01*
X206268396Y-148825776D01*
X205239904Y-149030355D01*
X205235548Y-149031141D01*
X204200401Y-149198884D01*
X204196019Y-149199514D01*
X203155544Y-149330201D01*
X203151143Y-149330674D01*
X202106681Y-149424141D01*
X202102266Y-149424457D01*
X201055116Y-149480585D01*
X201050692Y-149480743D01*
X200001120Y-149499480D01*
X199998907Y-149499500D01*
X50001093Y-149499500D01*
X49998880Y-149499480D01*
X48949307Y-149480743D01*
X48944883Y-149480585D01*
X47897733Y-149424457D01*
X47893318Y-149424141D01*
X46848856Y-149330674D01*
X46844455Y-149330201D01*
X45803980Y-149199514D01*
X45799598Y-149198884D01*
X44764451Y-149031141D01*
X44760095Y-149030355D01*
X43731603Y-148825776D01*
X43727277Y-148824835D01*
X42706754Y-148583679D01*
X42702465Y-148582585D01*
X41691165Y-148305148D01*
X41686918Y-148303901D01*
X40686179Y-147990550D01*
X40681979Y-147989152D01*
X39693062Y-147640282D01*
X39688915Y-147638735D01*
X38713093Y-147254795D01*
X38709003Y-147253101D01*
X37747496Y-146834573D01*
X37743469Y-146832734D01*
X36797517Y-146380155D01*
X36793559Y-146378174D01*
X35864342Y-145892109D01*
X35860457Y-145889987D01*
X34949208Y-145371082D01*
X34945401Y-145368823D01*
X34053254Y-144817725D01*
X34049530Y-144815332D01*
X33177617Y-144232738D01*
X33173981Y-144230214D01*
X32323389Y-143616850D01*
X32319846Y-143614197D01*
X31491722Y-142970891D01*
X31488275Y-142968113D01*
X31154154Y-142688880D01*
X30683638Y-142295657D01*
X30680327Y-142292789D01*
X30056015Y-141732000D01*
X37658693Y-141732000D01*
X37677912Y-142147697D01*
X37677912Y-142147702D01*
X37677913Y-142147707D01*
X37735403Y-142559845D01*
X37735405Y-142559853D01*
X37830679Y-142964933D01*
X37962929Y-143359514D01*
X38131010Y-143740177D01*
X38131020Y-143740198D01*
X38333506Y-144103731D01*
X38333509Y-144103735D01*
X38333511Y-144103739D01*
X38568687Y-144447054D01*
X38568689Y-144447056D01*
X38568696Y-144447066D01*
X38814611Y-144743209D01*
X38834538Y-144767206D01*
X39128794Y-145061462D01*
X39128805Y-145061471D01*
X39448933Y-145327303D01*
X39448939Y-145327307D01*
X39448946Y-145327313D01*
X39792261Y-145562489D01*
X39792267Y-145562492D01*
X39792268Y-145562493D01*
X40023916Y-145691520D01*
X40155812Y-145764985D01*
X40346153Y-145849029D01*
X40536485Y-145933070D01*
X40536488Y-145933071D01*
X40536495Y-145933074D01*
X40931064Y-146065320D01*
X41336152Y-146160596D01*
X41748303Y-146218088D01*
X42164000Y-146237307D01*
X42579697Y-146218088D01*
X42991848Y-146160596D01*
X43396936Y-146065320D01*
X43791505Y-145933074D01*
X44172188Y-145764985D01*
X44535739Y-145562489D01*
X44879054Y-145327313D01*
X45199206Y-145061462D01*
X45493462Y-144767206D01*
X45759313Y-144447054D01*
X45994489Y-144103739D01*
X46196985Y-143740188D01*
X46365074Y-143359505D01*
X46497320Y-142964936D01*
X46592596Y-142559848D01*
X46650088Y-142147697D01*
X46663342Y-141861027D01*
X201221568Y-141861027D01*
X201240787Y-142276724D01*
X201240787Y-142276729D01*
X201240788Y-142276734D01*
X201298278Y-142688872D01*
X201298280Y-142688880D01*
X201393554Y-143093960D01*
X201525804Y-143488541D01*
X201693885Y-143869204D01*
X201693895Y-143869225D01*
X201896381Y-144232758D01*
X201896384Y-144232762D01*
X201896386Y-144232766D01*
X202131562Y-144576081D01*
X202131564Y-144576083D01*
X202131571Y-144576093D01*
X202397403Y-144896221D01*
X202397413Y-144896233D01*
X202691669Y-145190489D01*
X202691680Y-145190498D01*
X203011808Y-145456330D01*
X203011814Y-145456334D01*
X203011821Y-145456340D01*
X203355136Y-145691516D01*
X203355142Y-145691519D01*
X203355143Y-145691520D01*
X203711460Y-145889987D01*
X203718687Y-145894012D01*
X203909028Y-145978056D01*
X204099360Y-146062097D01*
X204099363Y-146062098D01*
X204099370Y-146062101D01*
X204493939Y-146194347D01*
X204899027Y-146289623D01*
X205311178Y-146347115D01*
X205726875Y-146366334D01*
X206142572Y-146347115D01*
X206554723Y-146289623D01*
X206959811Y-146194347D01*
X207354380Y-146062101D01*
X207735063Y-145894012D01*
X208098614Y-145691516D01*
X208441929Y-145456340D01*
X208762081Y-145190489D01*
X209056337Y-144896233D01*
X209322188Y-144576081D01*
X209557364Y-144232766D01*
X209759860Y-143869215D01*
X209927949Y-143488532D01*
X210060195Y-143093963D01*
X210155471Y-142688875D01*
X210212963Y-142276724D01*
X210232182Y-141861027D01*
X210212963Y-141445330D01*
X210155471Y-141033179D01*
X210060195Y-140628091D01*
X209927949Y-140233522D01*
X209870356Y-140103088D01*
X209759864Y-139852849D01*
X209759860Y-139852839D01*
X209557364Y-139489288D01*
X209322188Y-139145973D01*
X209322182Y-139145966D01*
X209322178Y-139145960D01*
X209056346Y-138825832D01*
X209056337Y-138825821D01*
X208762081Y-138531565D01*
X208762069Y-138531555D01*
X208441941Y-138265723D01*
X208441931Y-138265716D01*
X208441929Y-138265714D01*
X208098614Y-138030538D01*
X208098610Y-138030536D01*
X208098606Y-138030533D01*
X207735073Y-137828047D01*
X207735052Y-137828037D01*
X207354389Y-137659956D01*
X206959808Y-137527706D01*
X206554728Y-137432432D01*
X206554720Y-137432430D01*
X206142582Y-137374940D01*
X206142577Y-137374939D01*
X206142572Y-137374939D01*
X205726875Y-137355720D01*
X205311178Y-137374939D01*
X205311172Y-137374939D01*
X205311167Y-137374940D01*
X204899029Y-137432430D01*
X204899021Y-137432432D01*
X204493941Y-137527706D01*
X204099360Y-137659956D01*
X203718697Y-137828037D01*
X203718676Y-137828047D01*
X203355143Y-138030533D01*
X203355137Y-138030537D01*
X203011818Y-138265716D01*
X203011808Y-138265723D01*
X202691680Y-138531555D01*
X202691660Y-138531573D01*
X202397421Y-138825812D01*
X202397403Y-138825832D01*
X202131571Y-139145960D01*
X202131564Y-139145970D01*
X201896385Y-139489289D01*
X201896381Y-139489295D01*
X201693895Y-139852828D01*
X201693885Y-139852849D01*
X201525804Y-140233512D01*
X201393554Y-140628093D01*
X201298280Y-141033173D01*
X201298278Y-141033181D01*
X201240788Y-141445319D01*
X201240787Y-141445324D01*
X201240787Y-141445330D01*
X201221568Y-141861027D01*
X46663342Y-141861027D01*
X46669307Y-141732000D01*
X46650088Y-141316303D01*
X46592596Y-140904152D01*
X46497320Y-140499064D01*
X46365074Y-140104495D01*
X46196985Y-139723812D01*
X45994489Y-139360261D01*
X45759313Y-139016946D01*
X45759307Y-139016939D01*
X45759303Y-139016933D01*
X45493471Y-138696805D01*
X45493462Y-138696794D01*
X45199206Y-138402538D01*
X45199194Y-138402528D01*
X44879066Y-138136696D01*
X44879056Y-138136689D01*
X44879054Y-138136687D01*
X44535739Y-137901511D01*
X44535735Y-137901509D01*
X44535731Y-137901506D01*
X44172198Y-137699020D01*
X44172177Y-137699010D01*
X43791514Y-137530929D01*
X43396933Y-137398679D01*
X42991853Y-137303405D01*
X42991845Y-137303403D01*
X42579707Y-137245913D01*
X42579702Y-137245912D01*
X42579697Y-137245912D01*
X42164000Y-137226693D01*
X41748303Y-137245912D01*
X41748297Y-137245912D01*
X41748292Y-137245913D01*
X41336154Y-137303403D01*
X41336146Y-137303405D01*
X40931066Y-137398679D01*
X40536485Y-137530929D01*
X40155822Y-137699010D01*
X40155801Y-137699020D01*
X39792268Y-137901506D01*
X39792262Y-137901510D01*
X39448943Y-138136689D01*
X39448933Y-138136696D01*
X39128805Y-138402528D01*
X39128785Y-138402546D01*
X38834546Y-138696785D01*
X38834528Y-138696805D01*
X38568696Y-139016933D01*
X38568689Y-139016943D01*
X38333510Y-139360262D01*
X38333506Y-139360268D01*
X38131020Y-139723801D01*
X38131010Y-139723822D01*
X37962929Y-140104485D01*
X37830679Y-140499066D01*
X37735405Y-140904146D01*
X37735403Y-140904154D01*
X37677913Y-141316292D01*
X37677912Y-141316297D01*
X37677912Y-141316303D01*
X37658693Y-141732000D01*
X30056015Y-141732000D01*
X29900126Y-141591973D01*
X29896911Y-141588978D01*
X29475240Y-141182098D01*
X29142272Y-140860809D01*
X29139190Y-140857727D01*
X28411021Y-140103088D01*
X28408028Y-140099875D01*
X27707206Y-139319668D01*
X27704339Y-139316358D01*
X27561944Y-139145973D01*
X27031875Y-138511710D01*
X27029108Y-138508277D01*
X26946967Y-138402538D01*
X26385802Y-137680153D01*
X26383149Y-137676610D01*
X25769785Y-136826018D01*
X25767261Y-136822382D01*
X25184667Y-135950469D01*
X25182274Y-135946745D01*
X24631176Y-135054598D01*
X24628917Y-135050791D01*
X24110012Y-134139542D01*
X24107890Y-134135657D01*
X23621825Y-133206440D01*
X23619844Y-133202482D01*
X23167265Y-132256530D01*
X23165436Y-132252526D01*
X22746898Y-131290996D01*
X22745204Y-131286906D01*
X22361264Y-130311084D01*
X22359726Y-130306962D01*
X22010841Y-129318004D01*
X22009449Y-129313820D01*
X21696098Y-128313081D01*
X21694851Y-128308834D01*
X21417414Y-127297534D01*
X21416326Y-127293271D01*
X21175157Y-126272693D01*
X21174229Y-126268426D01*
X20969641Y-125239891D01*
X20968858Y-125235548D01*
X20801107Y-124200351D01*
X20800492Y-124196069D01*
X20669796Y-123155533D01*
X20669325Y-123151143D01*
X20665881Y-123112654D01*
X20621795Y-122620006D01*
X67404700Y-122620006D01*
X67423864Y-122851297D01*
X67423866Y-122851308D01*
X67480842Y-123076300D01*
X67574075Y-123288848D01*
X67701016Y-123483147D01*
X67701019Y-123483151D01*
X67701021Y-123483153D01*
X67858216Y-123653913D01*
X67858219Y-123653915D01*
X67858222Y-123653918D01*
X68041365Y-123796464D01*
X68041371Y-123796468D01*
X68041374Y-123796470D01*
X68245497Y-123906936D01*
X68343266Y-123940500D01*
X68465015Y-123982297D01*
X68465017Y-123982297D01*
X68465019Y-123982298D01*
X68693951Y-124020500D01*
X68693952Y-124020500D01*
X68926048Y-124020500D01*
X68926049Y-124020500D01*
X69154981Y-123982298D01*
X69374503Y-123906936D01*
X69578626Y-123796470D01*
X69761784Y-123653913D01*
X69918979Y-123483153D01*
X70045924Y-123288849D01*
X70139157Y-123076300D01*
X70196134Y-122851305D01*
X70202763Y-122771305D01*
X70215300Y-122620006D01*
X70215300Y-122619993D01*
X70208672Y-122540006D01*
X99944700Y-122540006D01*
X99963864Y-122771297D01*
X99963866Y-122771308D01*
X100020842Y-122996300D01*
X100114075Y-123208848D01*
X100241016Y-123403147D01*
X100241019Y-123403151D01*
X100241021Y-123403153D01*
X100398216Y-123573913D01*
X100398219Y-123573915D01*
X100398222Y-123573918D01*
X100581365Y-123716464D01*
X100581371Y-123716468D01*
X100581374Y-123716470D01*
X100785497Y-123826936D01*
X100899487Y-123866068D01*
X101005015Y-123902297D01*
X101005017Y-123902297D01*
X101005019Y-123902298D01*
X101233951Y-123940500D01*
X101233952Y-123940500D01*
X101466048Y-123940500D01*
X101466049Y-123940500D01*
X101694981Y-123902298D01*
X101914503Y-123826936D01*
X102118626Y-123716470D01*
X102301784Y-123573913D01*
X102458979Y-123403153D01*
X102585924Y-123208849D01*
X102679157Y-122996300D01*
X102736134Y-122771305D01*
X102736135Y-122771297D01*
X102755300Y-122540006D01*
X102755300Y-122539993D01*
X102736135Y-122308702D01*
X102736133Y-122308691D01*
X102679157Y-122083699D01*
X102585924Y-121871151D01*
X102458983Y-121676852D01*
X102458980Y-121676849D01*
X102458979Y-121676847D01*
X102301784Y-121506087D01*
X102301779Y-121506083D01*
X102301777Y-121506081D01*
X102118634Y-121363535D01*
X102118628Y-121363531D01*
X101914504Y-121253064D01*
X101914495Y-121253061D01*
X101694984Y-121177702D01*
X101523282Y-121149050D01*
X101466049Y-121139500D01*
X101233951Y-121139500D01*
X101188164Y-121147140D01*
X101005015Y-121177702D01*
X100785504Y-121253061D01*
X100785495Y-121253064D01*
X100581371Y-121363531D01*
X100581365Y-121363535D01*
X100398222Y-121506081D01*
X100398219Y-121506084D01*
X100241016Y-121676852D01*
X100114075Y-121871151D01*
X100020842Y-122083699D01*
X99963866Y-122308691D01*
X99963864Y-122308702D01*
X99944700Y-122539993D01*
X99944700Y-122540006D01*
X70208672Y-122540006D01*
X70196135Y-122388702D01*
X70196133Y-122388691D01*
X70139157Y-122163699D01*
X70045924Y-121951151D01*
X69918983Y-121756852D01*
X69918980Y-121756849D01*
X69918979Y-121756847D01*
X69761784Y-121586087D01*
X69761779Y-121586083D01*
X69761777Y-121586081D01*
X69578634Y-121443535D01*
X69578628Y-121443531D01*
X69374504Y-121333064D01*
X69374495Y-121333061D01*
X69154984Y-121257702D01*
X68983282Y-121229050D01*
X68926049Y-121219500D01*
X68693951Y-121219500D01*
X68648164Y-121227140D01*
X68465015Y-121257702D01*
X68245504Y-121333061D01*
X68245495Y-121333064D01*
X68041371Y-121443531D01*
X68041365Y-121443535D01*
X67858222Y-121586081D01*
X67858219Y-121586084D01*
X67701016Y-121756852D01*
X67574075Y-121951151D01*
X67480842Y-122163699D01*
X67423866Y-122388691D01*
X67423864Y-122388702D01*
X67404700Y-122619993D01*
X67404700Y-122620006D01*
X20621795Y-122620006D01*
X20575854Y-122106633D01*
X20575545Y-122102314D01*
X20519413Y-121055090D01*
X20519256Y-121050692D01*
X20518956Y-121033913D01*
X20501928Y-120080006D01*
X61054700Y-120080006D01*
X61073864Y-120311297D01*
X61073866Y-120311308D01*
X61130842Y-120536300D01*
X61224075Y-120748848D01*
X61351016Y-120943147D01*
X61351019Y-120943151D01*
X61351021Y-120943153D01*
X61508216Y-121113913D01*
X61508219Y-121113915D01*
X61508222Y-121113918D01*
X61691365Y-121256464D01*
X61691371Y-121256468D01*
X61691374Y-121256470D01*
X61747674Y-121286938D01*
X61889212Y-121363535D01*
X61895497Y-121366936D01*
X61993266Y-121400500D01*
X62115015Y-121442297D01*
X62115017Y-121442297D01*
X62115019Y-121442298D01*
X62343951Y-121480500D01*
X62343952Y-121480500D01*
X62576048Y-121480500D01*
X62576049Y-121480500D01*
X62804981Y-121442298D01*
X63024503Y-121366936D01*
X63228626Y-121256470D01*
X63411784Y-121113913D01*
X63568979Y-120943153D01*
X63626191Y-120855582D01*
X63679337Y-120810226D01*
X63748568Y-120800802D01*
X63811904Y-120830304D01*
X63833807Y-120855581D01*
X63845379Y-120873292D01*
X63891016Y-120943147D01*
X63891019Y-120943151D01*
X63891021Y-120943153D01*
X64048216Y-121113913D01*
X64048219Y-121113915D01*
X64048222Y-121113918D01*
X64231365Y-121256464D01*
X64231371Y-121256468D01*
X64231374Y-121256470D01*
X64287674Y-121286938D01*
X64429212Y-121363535D01*
X64435497Y-121366936D01*
X64533266Y-121400500D01*
X64655015Y-121442297D01*
X64655017Y-121442297D01*
X64655019Y-121442298D01*
X64883951Y-121480500D01*
X64883952Y-121480500D01*
X65116048Y-121480500D01*
X65116049Y-121480500D01*
X65344981Y-121442298D01*
X65564503Y-121366936D01*
X65768626Y-121256470D01*
X65951784Y-121113913D01*
X66108979Y-120943153D01*
X66235924Y-120748849D01*
X66329157Y-120536300D01*
X66386134Y-120311305D01*
X66392763Y-120231305D01*
X66405300Y-120080006D01*
X66405300Y-120079993D01*
X66398672Y-120000006D01*
X93594700Y-120000006D01*
X93613864Y-120231297D01*
X93613866Y-120231308D01*
X93670842Y-120456300D01*
X93764075Y-120668848D01*
X93891016Y-120863147D01*
X93891019Y-120863151D01*
X93891021Y-120863153D01*
X94048216Y-121033913D01*
X94048219Y-121033915D01*
X94048222Y-121033918D01*
X94231365Y-121176464D01*
X94231371Y-121176468D01*
X94231374Y-121176470D01*
X94435497Y-121286936D01*
X94549487Y-121326068D01*
X94655015Y-121362297D01*
X94655017Y-121362297D01*
X94655019Y-121362298D01*
X94883951Y-121400500D01*
X94883952Y-121400500D01*
X95116048Y-121400500D01*
X95116049Y-121400500D01*
X95344981Y-121362298D01*
X95564503Y-121286936D01*
X95768626Y-121176470D01*
X95951784Y-121033913D01*
X96108979Y-120863153D01*
X96166191Y-120775582D01*
X96219337Y-120730226D01*
X96288568Y-120720802D01*
X96351904Y-120750304D01*
X96373809Y-120775583D01*
X96431016Y-120863147D01*
X96431019Y-120863151D01*
X96431021Y-120863153D01*
X96588216Y-121033913D01*
X96588219Y-121033915D01*
X96588222Y-121033918D01*
X96771365Y-121176464D01*
X96771371Y-121176468D01*
X96771374Y-121176470D01*
X96975497Y-121286936D01*
X97089487Y-121326068D01*
X97195015Y-121362297D01*
X97195017Y-121362297D01*
X97195019Y-121362298D01*
X97423951Y-121400500D01*
X97423952Y-121400500D01*
X97656048Y-121400500D01*
X97656049Y-121400500D01*
X97884981Y-121362298D01*
X98104503Y-121286936D01*
X98308626Y-121176470D01*
X98491784Y-121033913D01*
X98648979Y-120863153D01*
X98775924Y-120668849D01*
X98869157Y-120456300D01*
X98926134Y-120231305D01*
X98938671Y-120080006D01*
X98945300Y-120000006D01*
X156054700Y-120000006D01*
X156073864Y-120231297D01*
X156073866Y-120231308D01*
X156130842Y-120456300D01*
X156224075Y-120668848D01*
X156351016Y-120863147D01*
X156351019Y-120863151D01*
X156351021Y-120863153D01*
X156508216Y-121033913D01*
X156508219Y-121033915D01*
X156508222Y-121033918D01*
X156691365Y-121176464D01*
X156691371Y-121176468D01*
X156691374Y-121176470D01*
X156895497Y-121286936D01*
X157009487Y-121326068D01*
X157115015Y-121362297D01*
X157115017Y-121362297D01*
X157115019Y-121362298D01*
X157343951Y-121400500D01*
X157343952Y-121400500D01*
X157576048Y-121400500D01*
X157576049Y-121400500D01*
X157804981Y-121362298D01*
X158024503Y-121286936D01*
X158228626Y-121176470D01*
X158411784Y-121033913D01*
X158568979Y-120863153D01*
X158626191Y-120775582D01*
X158679337Y-120730226D01*
X158748568Y-120720802D01*
X158811904Y-120750304D01*
X158833809Y-120775583D01*
X158891016Y-120863147D01*
X158891019Y-120863151D01*
X158891021Y-120863153D01*
X159048216Y-121033913D01*
X159048219Y-121033915D01*
X159048222Y-121033918D01*
X159231365Y-121176464D01*
X159231371Y-121176468D01*
X159231374Y-121176470D01*
X159435497Y-121286936D01*
X159549487Y-121326068D01*
X159655015Y-121362297D01*
X159655017Y-121362297D01*
X159655019Y-121362298D01*
X159883951Y-121400500D01*
X159883952Y-121400500D01*
X160116048Y-121400500D01*
X160116049Y-121400500D01*
X160344981Y-121362298D01*
X160564503Y-121286936D01*
X160768626Y-121176470D01*
X160951784Y-121033913D01*
X161108979Y-120863153D01*
X161235924Y-120668849D01*
X161329157Y-120456300D01*
X161386134Y-120231305D01*
X161398671Y-120080006D01*
X161405300Y-120000006D01*
X161405300Y-119999993D01*
X161386135Y-119768702D01*
X161386133Y-119768691D01*
X161329157Y-119543699D01*
X161235924Y-119331151D01*
X161108983Y-119136852D01*
X161108980Y-119136849D01*
X161108979Y-119136847D01*
X160951784Y-118966087D01*
X160951779Y-118966083D01*
X160951777Y-118966081D01*
X160768634Y-118823535D01*
X160768628Y-118823531D01*
X160564504Y-118713064D01*
X160564495Y-118713061D01*
X160344984Y-118637702D01*
X160173282Y-118609050D01*
X160116049Y-118599500D01*
X159883951Y-118599500D01*
X159838164Y-118607140D01*
X159655015Y-118637702D01*
X159435504Y-118713061D01*
X159435495Y-118713064D01*
X159231371Y-118823531D01*
X159231365Y-118823535D01*
X159048222Y-118966081D01*
X159048219Y-118966084D01*
X159048216Y-118966086D01*
X159048216Y-118966087D01*
X158989267Y-119030122D01*
X158891016Y-119136852D01*
X158833809Y-119224416D01*
X158780662Y-119269773D01*
X158711431Y-119279197D01*
X158648095Y-119249695D01*
X158626191Y-119224416D01*
X158568983Y-119136852D01*
X158568980Y-119136849D01*
X158568979Y-119136847D01*
X158411784Y-118966087D01*
X158411779Y-118966083D01*
X158411777Y-118966081D01*
X158228634Y-118823535D01*
X158228628Y-118823531D01*
X158024504Y-118713064D01*
X158024495Y-118713061D01*
X157804984Y-118637702D01*
X157633282Y-118609050D01*
X157576049Y-118599500D01*
X157343951Y-118599500D01*
X157298164Y-118607140D01*
X157115015Y-118637702D01*
X156895504Y-118713061D01*
X156895495Y-118713064D01*
X156691371Y-118823531D01*
X156691365Y-118823535D01*
X156508222Y-118966081D01*
X156508219Y-118966084D01*
X156508216Y-118966086D01*
X156508216Y-118966087D01*
X156449267Y-119030122D01*
X156351016Y-119136852D01*
X156224075Y-119331151D01*
X156130842Y-119543699D01*
X156073866Y-119768691D01*
X156073864Y-119768702D01*
X156054700Y-119999993D01*
X156054700Y-120000006D01*
X98945300Y-120000006D01*
X98945300Y-119999993D01*
X98926135Y-119768702D01*
X98926133Y-119768691D01*
X98869157Y-119543699D01*
X98775924Y-119331151D01*
X98648983Y-119136852D01*
X98648980Y-119136849D01*
X98648979Y-119136847D01*
X98491784Y-118966087D01*
X98491779Y-118966083D01*
X98491777Y-118966081D01*
X98308634Y-118823535D01*
X98308628Y-118823531D01*
X98104504Y-118713064D01*
X98104495Y-118713061D01*
X97884984Y-118637702D01*
X97713282Y-118609050D01*
X97656049Y-118599500D01*
X97423951Y-118599500D01*
X97378164Y-118607140D01*
X97195015Y-118637702D01*
X96975504Y-118713061D01*
X96975495Y-118713064D01*
X96771371Y-118823531D01*
X96771365Y-118823535D01*
X96588222Y-118966081D01*
X96588219Y-118966084D01*
X96588216Y-118966086D01*
X96588216Y-118966087D01*
X96529267Y-119030122D01*
X96431016Y-119136852D01*
X96373809Y-119224416D01*
X96320662Y-119269773D01*
X96251431Y-119279197D01*
X96188095Y-119249695D01*
X96166191Y-119224416D01*
X96108983Y-119136852D01*
X96108980Y-119136849D01*
X96108979Y-119136847D01*
X95951784Y-118966087D01*
X95951779Y-118966083D01*
X95951777Y-118966081D01*
X95768634Y-118823535D01*
X95768628Y-118823531D01*
X95564504Y-118713064D01*
X95564495Y-118713061D01*
X95344984Y-118637702D01*
X95173282Y-118609050D01*
X95116049Y-118599500D01*
X94883951Y-118599500D01*
X94838164Y-118607140D01*
X94655015Y-118637702D01*
X94435504Y-118713061D01*
X94435495Y-118713064D01*
X94231371Y-118823531D01*
X94231365Y-118823535D01*
X94048222Y-118966081D01*
X94048219Y-118966084D01*
X94048216Y-118966086D01*
X94048216Y-118966087D01*
X93989267Y-119030122D01*
X93891016Y-119136852D01*
X93764075Y-119331151D01*
X93670842Y-119543699D01*
X93613866Y-119768691D01*
X93613864Y-119768702D01*
X93594700Y-119999993D01*
X93594700Y-120000006D01*
X66398672Y-120000006D01*
X66386135Y-119848702D01*
X66386133Y-119848691D01*
X66329157Y-119623699D01*
X66235924Y-119411151D01*
X66108983Y-119216852D01*
X66108980Y-119216849D01*
X66108979Y-119216847D01*
X65951784Y-119046087D01*
X65951779Y-119046083D01*
X65951777Y-119046081D01*
X65768634Y-118903535D01*
X65768628Y-118903531D01*
X65564504Y-118793064D01*
X65564495Y-118793061D01*
X65344984Y-118717702D01*
X65173282Y-118689050D01*
X65116049Y-118679500D01*
X64883951Y-118679500D01*
X64838164Y-118687140D01*
X64655015Y-118717702D01*
X64435504Y-118793061D01*
X64435495Y-118793064D01*
X64231371Y-118903531D01*
X64231365Y-118903535D01*
X64048222Y-119046081D01*
X64048219Y-119046084D01*
X63891016Y-119216852D01*
X63833809Y-119304416D01*
X63780662Y-119349773D01*
X63711431Y-119359197D01*
X63648095Y-119329695D01*
X63626191Y-119304416D01*
X63568983Y-119216852D01*
X63568980Y-119216849D01*
X63568979Y-119216847D01*
X63411784Y-119046087D01*
X63411779Y-119046083D01*
X63411777Y-119046081D01*
X63228634Y-118903535D01*
X63228628Y-118903531D01*
X63024504Y-118793064D01*
X63024495Y-118793061D01*
X62804984Y-118717702D01*
X62633282Y-118689050D01*
X62576049Y-118679500D01*
X62343951Y-118679500D01*
X62298164Y-118687140D01*
X62115015Y-118717702D01*
X61895504Y-118793061D01*
X61895495Y-118793064D01*
X61691371Y-118903531D01*
X61691365Y-118903535D01*
X61508222Y-119046081D01*
X61508219Y-119046084D01*
X61351016Y-119216852D01*
X61224075Y-119411151D01*
X61130842Y-119623699D01*
X61073866Y-119848691D01*
X61073864Y-119848702D01*
X61054700Y-120079993D01*
X61054700Y-120080006D01*
X20501928Y-120080006D01*
X20500520Y-120001120D01*
X20500500Y-119998907D01*
X20500500Y-117540005D01*
X67405202Y-117540005D01*
X67424361Y-117771218D01*
X67481317Y-117996135D01*
X67574515Y-118208606D01*
X67658812Y-118337633D01*
X68247226Y-117749219D01*
X68285901Y-117842588D01*
X68382075Y-117967925D01*
X68507412Y-118064099D01*
X68600779Y-118102772D01*
X68011201Y-118692351D01*
X68041649Y-118716050D01*
X68245697Y-118826476D01*
X68245706Y-118826479D01*
X68465139Y-118901811D01*
X68693993Y-118940000D01*
X68926007Y-118940000D01*
X69154860Y-118901811D01*
X69374293Y-118826479D01*
X69374301Y-118826476D01*
X69578355Y-118716047D01*
X69608797Y-118692351D01*
X69608798Y-118692350D01*
X69019220Y-118102772D01*
X69112588Y-118064099D01*
X69237925Y-117967925D01*
X69334099Y-117842589D01*
X69372773Y-117749220D01*
X69961186Y-118337633D01*
X70045482Y-118208611D01*
X70138682Y-117996135D01*
X70195638Y-117771218D01*
X70214798Y-117540005D01*
X70214798Y-117539994D01*
X70208170Y-117460005D01*
X99945202Y-117460005D01*
X99964361Y-117691218D01*
X100021317Y-117916135D01*
X100114515Y-118128606D01*
X100198812Y-118257633D01*
X100787226Y-117669219D01*
X100825901Y-117762588D01*
X100922075Y-117887925D01*
X101047412Y-117984099D01*
X101140779Y-118022772D01*
X100551201Y-118612351D01*
X100581649Y-118636050D01*
X100785697Y-118746476D01*
X100785706Y-118746479D01*
X101005139Y-118821811D01*
X101233993Y-118860000D01*
X101466007Y-118860000D01*
X101694860Y-118821811D01*
X101914293Y-118746479D01*
X101914301Y-118746476D01*
X102118355Y-118636047D01*
X102148797Y-118612351D01*
X102148798Y-118612350D01*
X101559220Y-118022772D01*
X101652588Y-117984099D01*
X101777925Y-117887925D01*
X101874099Y-117762589D01*
X101912773Y-117669220D01*
X102501186Y-118257633D01*
X102585482Y-118128611D01*
X102678682Y-117916135D01*
X102735638Y-117691218D01*
X102754798Y-117460005D01*
X102754798Y-117459994D01*
X102735638Y-117228781D01*
X102678682Y-117003864D01*
X102585484Y-116791393D01*
X102501186Y-116662365D01*
X101912772Y-117250779D01*
X101874099Y-117157412D01*
X101777925Y-117032075D01*
X101652588Y-116935901D01*
X101559219Y-116897226D01*
X102148797Y-116307647D01*
X102148797Y-116307645D01*
X102118360Y-116283955D01*
X102118354Y-116283951D01*
X101914302Y-116173523D01*
X101914293Y-116173520D01*
X101694860Y-116098188D01*
X101466007Y-116060000D01*
X101233993Y-116060000D01*
X101005139Y-116098188D01*
X100785706Y-116173520D01*
X100785697Y-116173523D01*
X100581650Y-116283949D01*
X100551200Y-116307647D01*
X101140780Y-116897226D01*
X101047412Y-116935901D01*
X100922075Y-117032075D01*
X100825901Y-117157411D01*
X100787226Y-117250780D01*
X100198811Y-116662365D01*
X100114516Y-116791390D01*
X100021317Y-117003864D01*
X99964361Y-117228781D01*
X99945202Y-117459994D01*
X99945202Y-117460005D01*
X70208170Y-117460005D01*
X70195638Y-117308781D01*
X70138682Y-117083864D01*
X70045484Y-116871393D01*
X69961186Y-116742365D01*
X69372772Y-117330779D01*
X69334099Y-117237412D01*
X69237925Y-117112075D01*
X69112588Y-117015901D01*
X69019219Y-116977226D01*
X69608797Y-116387647D01*
X69608797Y-116387645D01*
X69578360Y-116363955D01*
X69578354Y-116363951D01*
X69374302Y-116253523D01*
X69374293Y-116253520D01*
X69154860Y-116178188D01*
X68926007Y-116140000D01*
X68693993Y-116140000D01*
X68465139Y-116178188D01*
X68245706Y-116253520D01*
X68245697Y-116253523D01*
X68041650Y-116363949D01*
X68011200Y-116387647D01*
X68600780Y-116977226D01*
X68507412Y-117015901D01*
X68382075Y-117112075D01*
X68285901Y-117237411D01*
X68247226Y-117330780D01*
X67658811Y-116742365D01*
X67574516Y-116871390D01*
X67481317Y-117083864D01*
X67424361Y-117308781D01*
X67405202Y-117539994D01*
X67405202Y-117540005D01*
X20500500Y-117540005D01*
X20500500Y-115000006D01*
X61054700Y-115000006D01*
X61073864Y-115231297D01*
X61073866Y-115231308D01*
X61130842Y-115456300D01*
X61224075Y-115668848D01*
X61351016Y-115863147D01*
X61351019Y-115863151D01*
X61351021Y-115863153D01*
X61508216Y-116033913D01*
X61508219Y-116033915D01*
X61508222Y-116033918D01*
X61691365Y-116176464D01*
X61691371Y-116176468D01*
X61691374Y-116176470D01*
X61747674Y-116206938D01*
X61889988Y-116283955D01*
X61895497Y-116286936D01*
X61993266Y-116320500D01*
X62115015Y-116362297D01*
X62115017Y-116362297D01*
X62115019Y-116362298D01*
X62343951Y-116400500D01*
X62343952Y-116400500D01*
X62576048Y-116400500D01*
X62576049Y-116400500D01*
X62804981Y-116362298D01*
X63024503Y-116286936D01*
X63228626Y-116176470D01*
X63232413Y-116173523D01*
X63385165Y-116054631D01*
X63411784Y-116033913D01*
X63568979Y-115863153D01*
X63626191Y-115775582D01*
X63679337Y-115730226D01*
X63748568Y-115720802D01*
X63811904Y-115750304D01*
X63833807Y-115775581D01*
X63845379Y-115793292D01*
X63891016Y-115863147D01*
X63891019Y-115863151D01*
X63891021Y-115863153D01*
X64048216Y-116033913D01*
X64048219Y-116033915D01*
X64048222Y-116033918D01*
X64231365Y-116176464D01*
X64231371Y-116176468D01*
X64231374Y-116176470D01*
X64287674Y-116206938D01*
X64429988Y-116283955D01*
X64435497Y-116286936D01*
X64533266Y-116320500D01*
X64655015Y-116362297D01*
X64655017Y-116362297D01*
X64655019Y-116362298D01*
X64883951Y-116400500D01*
X64883952Y-116400500D01*
X65116048Y-116400500D01*
X65116049Y-116400500D01*
X65344981Y-116362298D01*
X65564503Y-116286936D01*
X65768626Y-116176470D01*
X65772413Y-116173523D01*
X65925165Y-116054631D01*
X65951784Y-116033913D01*
X66108979Y-115863153D01*
X66235924Y-115668849D01*
X66329157Y-115456300D01*
X66386134Y-115231305D01*
X66392763Y-115151305D01*
X66405300Y-115000006D01*
X66405300Y-114999993D01*
X66398672Y-114920006D01*
X93594700Y-114920006D01*
X93613864Y-115151297D01*
X93613866Y-115151308D01*
X93670842Y-115376300D01*
X93764075Y-115588848D01*
X93891016Y-115783147D01*
X93891019Y-115783151D01*
X93891021Y-115783153D01*
X94048216Y-115953913D01*
X94048219Y-115953915D01*
X94048222Y-115953918D01*
X94231365Y-116096464D01*
X94231371Y-116096468D01*
X94231374Y-116096470D01*
X94435497Y-116206936D01*
X94549487Y-116246068D01*
X94655015Y-116282297D01*
X94655017Y-116282297D01*
X94655019Y-116282298D01*
X94883951Y-116320500D01*
X94883952Y-116320500D01*
X95116048Y-116320500D01*
X95116049Y-116320500D01*
X95344981Y-116282298D01*
X95564503Y-116206936D01*
X95768626Y-116096470D01*
X95951784Y-115953913D01*
X96108979Y-115783153D01*
X96166191Y-115695582D01*
X96219337Y-115650226D01*
X96288568Y-115640802D01*
X96351904Y-115670304D01*
X96373809Y-115695583D01*
X96431016Y-115783147D01*
X96431019Y-115783151D01*
X96431021Y-115783153D01*
X96588216Y-115953913D01*
X96588219Y-115953915D01*
X96588222Y-115953918D01*
X96771365Y-116096464D01*
X96771371Y-116096468D01*
X96771374Y-116096470D01*
X96975497Y-116206936D01*
X97089487Y-116246068D01*
X97195015Y-116282297D01*
X97195017Y-116282297D01*
X97195019Y-116282298D01*
X97423951Y-116320500D01*
X97423952Y-116320500D01*
X97656048Y-116320500D01*
X97656049Y-116320500D01*
X97884981Y-116282298D01*
X98104503Y-116206936D01*
X98308626Y-116096470D01*
X98491784Y-115953913D01*
X98648979Y-115783153D01*
X98775924Y-115588849D01*
X98869157Y-115376300D01*
X98926134Y-115151305D01*
X98938671Y-115000006D01*
X98945300Y-114920006D01*
X98945300Y-114919993D01*
X98926135Y-114688702D01*
X98926133Y-114688691D01*
X98869157Y-114463699D01*
X98775924Y-114251151D01*
X98648983Y-114056852D01*
X98648980Y-114056849D01*
X98648979Y-114056847D01*
X98491784Y-113886087D01*
X98491779Y-113886083D01*
X98491777Y-113886081D01*
X98308634Y-113743535D01*
X98308628Y-113743531D01*
X98104504Y-113633064D01*
X98104495Y-113633061D01*
X97884984Y-113557702D01*
X97713282Y-113529050D01*
X97656049Y-113519500D01*
X97423951Y-113519500D01*
X97378164Y-113527140D01*
X97195015Y-113557702D01*
X96975504Y-113633061D01*
X96975495Y-113633064D01*
X96771371Y-113743531D01*
X96771365Y-113743535D01*
X96588222Y-113886081D01*
X96588219Y-113886084D01*
X96431016Y-114056852D01*
X96373809Y-114144416D01*
X96320662Y-114189773D01*
X96251431Y-114199197D01*
X96188095Y-114169695D01*
X96166191Y-114144416D01*
X96108983Y-114056852D01*
X96108980Y-114056849D01*
X96108979Y-114056847D01*
X95951784Y-113886087D01*
X95951779Y-113886083D01*
X95951777Y-113886081D01*
X95768634Y-113743535D01*
X95768628Y-113743531D01*
X95564504Y-113633064D01*
X95564495Y-113633061D01*
X95344984Y-113557702D01*
X95173282Y-113529050D01*
X95116049Y-113519500D01*
X94883951Y-113519500D01*
X94838164Y-113527140D01*
X94655015Y-113557702D01*
X94435504Y-113633061D01*
X94435495Y-113633064D01*
X94231371Y-113743531D01*
X94231365Y-113743535D01*
X94048222Y-113886081D01*
X94048219Y-113886084D01*
X93891016Y-114056852D01*
X93764075Y-114251151D01*
X93670842Y-114463699D01*
X93613866Y-114688691D01*
X93613864Y-114688702D01*
X93594700Y-114919993D01*
X93594700Y-114920006D01*
X66398672Y-114920006D01*
X66386135Y-114768702D01*
X66386133Y-114768691D01*
X66329157Y-114543699D01*
X66235924Y-114331151D01*
X66108983Y-114136852D01*
X66108980Y-114136849D01*
X66108979Y-114136847D01*
X65951784Y-113966087D01*
X65951779Y-113966083D01*
X65951777Y-113966081D01*
X65768634Y-113823535D01*
X65768628Y-113823531D01*
X65564504Y-113713064D01*
X65564495Y-113713061D01*
X65344984Y-113637702D01*
X65173282Y-113609050D01*
X65116049Y-113599500D01*
X64883951Y-113599500D01*
X64838164Y-113607140D01*
X64655015Y-113637702D01*
X64435504Y-113713061D01*
X64435495Y-113713064D01*
X64231371Y-113823531D01*
X64231365Y-113823535D01*
X64048222Y-113966081D01*
X64048219Y-113966084D01*
X63891016Y-114136852D01*
X63833809Y-114224416D01*
X63780662Y-114269773D01*
X63711431Y-114279197D01*
X63648095Y-114249695D01*
X63626191Y-114224416D01*
X63568983Y-114136852D01*
X63568980Y-114136849D01*
X63568979Y-114136847D01*
X63411784Y-113966087D01*
X63411779Y-113966083D01*
X63411777Y-113966081D01*
X63228634Y-113823535D01*
X63228628Y-113823531D01*
X63024504Y-113713064D01*
X63024495Y-113713061D01*
X62804984Y-113637702D01*
X62633282Y-113609050D01*
X62576049Y-113599500D01*
X62343951Y-113599500D01*
X62298164Y-113607140D01*
X62115015Y-113637702D01*
X61895504Y-113713061D01*
X61895495Y-113713064D01*
X61691371Y-113823531D01*
X61691365Y-113823535D01*
X61508222Y-113966081D01*
X61508219Y-113966084D01*
X61351016Y-114136852D01*
X61224075Y-114331151D01*
X61130842Y-114543699D01*
X61073866Y-114768691D01*
X61073864Y-114768702D01*
X61054700Y-114999993D01*
X61054700Y-115000006D01*
X20500500Y-115000006D01*
X20500500Y-112460006D01*
X67404700Y-112460006D01*
X67423864Y-112691297D01*
X67423866Y-112691308D01*
X67480842Y-112916300D01*
X67574075Y-113128848D01*
X67701016Y-113323147D01*
X67701019Y-113323151D01*
X67701021Y-113323153D01*
X67858216Y-113493913D01*
X67858219Y-113493915D01*
X67858222Y-113493918D01*
X68041365Y-113636464D01*
X68041371Y-113636468D01*
X68041374Y-113636470D01*
X68097674Y-113666938D01*
X68239212Y-113743535D01*
X68245497Y-113746936D01*
X68343266Y-113780500D01*
X68465015Y-113822297D01*
X68465017Y-113822297D01*
X68465019Y-113822298D01*
X68693951Y-113860500D01*
X68693952Y-113860500D01*
X68926048Y-113860500D01*
X68926049Y-113860500D01*
X69154981Y-113822298D01*
X69374503Y-113746936D01*
X69578626Y-113636470D01*
X69761784Y-113493913D01*
X69918979Y-113323153D01*
X70045924Y-113128849D01*
X70139157Y-112916300D01*
X70196134Y-112691305D01*
X70202763Y-112611305D01*
X70215300Y-112460006D01*
X70215300Y-112459993D01*
X70208672Y-112380006D01*
X99944700Y-112380006D01*
X99963864Y-112611297D01*
X99963866Y-112611308D01*
X100020842Y-112836300D01*
X100114075Y-113048848D01*
X100241016Y-113243147D01*
X100241019Y-113243151D01*
X100241021Y-113243153D01*
X100398216Y-113413913D01*
X100398219Y-113413915D01*
X100398222Y-113413918D01*
X100581365Y-113556464D01*
X100581371Y-113556468D01*
X100581374Y-113556470D01*
X100785497Y-113666936D01*
X100899487Y-113706068D01*
X101005015Y-113742297D01*
X101005017Y-113742297D01*
X101005019Y-113742298D01*
X101233951Y-113780500D01*
X101233952Y-113780500D01*
X101466048Y-113780500D01*
X101466049Y-113780500D01*
X101694981Y-113742298D01*
X101914503Y-113666936D01*
X102118626Y-113556470D01*
X102301784Y-113413913D01*
X102458979Y-113243153D01*
X102585924Y-113048849D01*
X102679157Y-112836300D01*
X102736134Y-112611305D01*
X102748671Y-112460006D01*
X102755300Y-112380006D01*
X102755300Y-112379993D01*
X102736135Y-112148702D01*
X102736133Y-112148691D01*
X102679157Y-111923699D01*
X102585924Y-111711151D01*
X102458983Y-111516852D01*
X102458980Y-111516849D01*
X102458979Y-111516847D01*
X102301784Y-111346087D01*
X102301779Y-111346083D01*
X102301777Y-111346081D01*
X102118634Y-111203535D01*
X102118628Y-111203531D01*
X101914504Y-111093064D01*
X101914495Y-111093061D01*
X101694984Y-111017702D01*
X101523282Y-110989050D01*
X101466049Y-110979500D01*
X101233951Y-110979500D01*
X101188164Y-110987140D01*
X101005015Y-111017702D01*
X100785504Y-111093061D01*
X100785495Y-111093064D01*
X100581371Y-111203531D01*
X100581365Y-111203535D01*
X100398222Y-111346081D01*
X100398219Y-111346084D01*
X100241016Y-111516852D01*
X100114075Y-111711151D01*
X100020842Y-111923699D01*
X99963866Y-112148691D01*
X99963864Y-112148702D01*
X99944700Y-112379993D01*
X99944700Y-112380006D01*
X70208672Y-112380006D01*
X70196135Y-112228702D01*
X70196133Y-112228691D01*
X70139157Y-112003699D01*
X70045924Y-111791151D01*
X69918983Y-111596852D01*
X69918980Y-111596849D01*
X69918979Y-111596847D01*
X69761784Y-111426087D01*
X69761779Y-111426083D01*
X69761777Y-111426081D01*
X69578634Y-111283535D01*
X69578628Y-111283531D01*
X69374504Y-111173064D01*
X69374495Y-111173061D01*
X69154984Y-111097702D01*
X68983282Y-111069050D01*
X68926049Y-111059500D01*
X68693951Y-111059500D01*
X68648164Y-111067140D01*
X68465015Y-111097702D01*
X68245504Y-111173061D01*
X68245495Y-111173064D01*
X68041371Y-111283531D01*
X68041365Y-111283535D01*
X67858222Y-111426081D01*
X67858219Y-111426084D01*
X67701016Y-111596852D01*
X67574075Y-111791151D01*
X67480842Y-112003699D01*
X67423866Y-112228691D01*
X67423864Y-112228702D01*
X67404700Y-112459993D01*
X67404700Y-112460006D01*
X20500500Y-112460006D01*
X20500500Y-69596001D01*
X78425437Y-69596001D01*
X78445650Y-69827044D01*
X78445651Y-69827051D01*
X78505678Y-70051074D01*
X78505679Y-70051076D01*
X78505680Y-70051079D01*
X78603699Y-70261282D01*
X78736730Y-70451269D01*
X78900731Y-70615270D01*
X79090718Y-70748301D01*
X79102710Y-70753893D01*
X79155149Y-70800062D01*
X79174303Y-70867255D01*
X79154089Y-70934137D01*
X79102717Y-70978655D01*
X79090966Y-70984134D01*
X79012576Y-71039022D01*
X79012576Y-71039023D01*
X79584431Y-71610878D01*
X79467542Y-71661651D01*
X79350261Y-71757066D01*
X79263072Y-71880585D01*
X79232644Y-71966198D01*
X78659022Y-71392576D01*
X78604134Y-71470967D01*
X78506152Y-71681090D01*
X78506148Y-71681099D01*
X78446147Y-71905031D01*
X78446145Y-71905041D01*
X78425939Y-72135999D01*
X78425939Y-72136000D01*
X78446145Y-72366958D01*
X78446147Y-72366968D01*
X78506148Y-72590900D01*
X78506152Y-72590909D01*
X78604133Y-72801030D01*
X78659023Y-72879422D01*
X79230070Y-72308375D01*
X79232884Y-72321915D01*
X79302442Y-72456156D01*
X79405638Y-72566652D01*
X79534819Y-72645209D01*
X79586002Y-72659549D01*
X79012576Y-73232975D01*
X79090969Y-73287867D01*
X79301090Y-73385847D01*
X79301099Y-73385851D01*
X79525031Y-73445852D01*
X79525041Y-73445854D01*
X79755999Y-73466061D01*
X79756001Y-73466061D01*
X79986958Y-73445854D01*
X79986968Y-73445852D01*
X80210900Y-73385851D01*
X80210909Y-73385847D01*
X80421030Y-73287867D01*
X80421034Y-73287865D01*
X80499422Y-73232976D01*
X80499422Y-73232975D01*
X79927568Y-72661121D01*
X80044458Y-72610349D01*
X80161739Y-72514934D01*
X80248928Y-72391415D01*
X80279355Y-72305801D01*
X80859214Y-72885660D01*
X80904191Y-72894699D01*
X80954375Y-72943313D01*
X80970500Y-73004445D01*
X80970500Y-73008862D01*
X80970501Y-73008876D01*
X80976908Y-73068483D01*
X81027202Y-73203328D01*
X81027206Y-73203335D01*
X81113452Y-73318544D01*
X81113455Y-73318547D01*
X81228664Y-73404793D01*
X81228671Y-73404797D01*
X81363517Y-73455091D01*
X81363516Y-73455091D01*
X81370444Y-73455835D01*
X81423127Y-73461500D01*
X83168872Y-73461499D01*
X83228483Y-73455091D01*
X83363331Y-73404796D01*
X83478546Y-73318546D01*
X83564796Y-73203331D01*
X83615091Y-73068483D01*
X83621500Y-73008873D01*
X83621499Y-71263128D01*
X83616299Y-71214757D01*
X83615091Y-71203516D01*
X83564797Y-71068671D01*
X83564793Y-71068664D01*
X83478547Y-70953455D01*
X83478544Y-70953452D01*
X83363335Y-70867206D01*
X83363328Y-70867202D01*
X83228482Y-70816908D01*
X83220938Y-70815126D01*
X83221614Y-70812263D01*
X83169790Y-70790765D01*
X83129971Y-70733352D01*
X83127514Y-70663526D01*
X83159962Y-70606576D01*
X83315270Y-70451269D01*
X83448301Y-70261282D01*
X83546320Y-70051079D01*
X83606349Y-69827050D01*
X83626563Y-69596000D01*
X83606349Y-69364950D01*
X83589104Y-69300591D01*
X83590767Y-69230744D01*
X83629929Y-69172882D01*
X83694157Y-69145377D01*
X83708879Y-69144500D01*
X102839521Y-69144500D01*
X102906560Y-69164185D01*
X102927202Y-69180819D01*
X104220606Y-70474222D01*
X104220643Y-70474261D01*
X105574307Y-71827924D01*
X105585001Y-71840118D01*
X105602755Y-71863255D01*
X105632335Y-71885952D01*
X105632336Y-71885953D01*
X105720570Y-71953657D01*
X105720571Y-71953657D01*
X105720572Y-71953658D01*
X105857771Y-72010488D01*
X105987875Y-72027616D01*
X106005004Y-72029872D01*
X106005005Y-72029872D01*
X106005006Y-72029872D01*
X106033916Y-72026066D01*
X106050101Y-72025005D01*
X114714060Y-72025005D01*
X114781099Y-72044690D01*
X114801741Y-72061324D01*
X114831238Y-72090821D01*
X114903140Y-72136000D01*
X114983978Y-72186794D01*
X115154248Y-72246374D01*
X115161034Y-72247923D01*
X115160482Y-72250338D01*
X115214289Y-72272942D01*
X115253849Y-72330534D01*
X115260000Y-72369102D01*
X115260000Y-73040560D01*
X115240315Y-73107599D01*
X115223681Y-73128241D01*
X115194184Y-73157737D01*
X115098211Y-73310476D01*
X115038631Y-73480745D01*
X115038630Y-73480750D01*
X115018435Y-73659996D01*
X115018435Y-73660003D01*
X115038630Y-73839249D01*
X115038633Y-73839262D01*
X115076349Y-73947045D01*
X115079911Y-74016824D01*
X115045183Y-74077451D01*
X114983190Y-74109679D01*
X114959308Y-74112000D01*
X112313101Y-74112000D01*
X112296916Y-74110939D01*
X112268000Y-74107132D01*
X112267999Y-74107132D01*
X112137878Y-74124262D01*
X112137879Y-74124263D01*
X112120766Y-74126517D01*
X112080581Y-74143159D01*
X112080582Y-74143160D01*
X111983569Y-74183344D01*
X111983565Y-74183346D01*
X111949506Y-74209482D01*
X111949505Y-74209483D01*
X111865750Y-74273748D01*
X111847992Y-74296890D01*
X111837301Y-74309080D01*
X87923637Y-98222744D01*
X87862314Y-98256229D01*
X87849840Y-98258283D01*
X87704749Y-98274630D01*
X87704745Y-98274631D01*
X87534476Y-98334211D01*
X87381737Y-98430184D01*
X87254184Y-98557737D01*
X87158211Y-98710476D01*
X87098631Y-98880745D01*
X87098630Y-98880750D01*
X87078435Y-99059996D01*
X87078435Y-99060003D01*
X87098630Y-99239249D01*
X87098631Y-99239254D01*
X87158211Y-99409523D01*
X87220040Y-99507922D01*
X87254184Y-99562262D01*
X87381738Y-99689816D01*
X87534478Y-99785789D01*
X87704745Y-99845368D01*
X87704750Y-99845369D01*
X87883996Y-99865565D01*
X87884000Y-99865565D01*
X87884004Y-99865565D01*
X88063249Y-99845369D01*
X88063252Y-99845368D01*
X88063255Y-99845368D01*
X88233522Y-99785789D01*
X88386262Y-99689816D01*
X88513816Y-99562262D01*
X88609789Y-99409522D01*
X88669368Y-99239255D01*
X88685716Y-99094156D01*
X88712782Y-99029744D01*
X88721245Y-99020370D01*
X112465298Y-75276319D01*
X112526621Y-75242834D01*
X112552979Y-75240000D01*
X115778906Y-75240000D01*
X115795089Y-75241060D01*
X115808558Y-75242834D01*
X115823999Y-75244867D01*
X115824000Y-75244867D01*
X115824001Y-75244867D01*
X115839442Y-75242834D01*
X115971234Y-75225483D01*
X116108433Y-75168653D01*
X116196668Y-75100949D01*
X116196668Y-75100948D01*
X116219606Y-75083348D01*
X116219606Y-75083347D01*
X116226250Y-75078250D01*
X116244009Y-75055104D01*
X116254690Y-75042925D01*
X118561297Y-72736319D01*
X118622620Y-72702834D01*
X118648978Y-72700000D01*
X120350906Y-72700000D01*
X120367089Y-72701060D01*
X120380558Y-72702834D01*
X120395999Y-72704867D01*
X120396000Y-72704867D01*
X120396001Y-72704867D01*
X120411442Y-72702834D01*
X120543234Y-72685483D01*
X120680433Y-72628653D01*
X120768668Y-72560949D01*
X120768668Y-72560948D01*
X120791606Y-72543348D01*
X120791606Y-72543347D01*
X120798250Y-72538250D01*
X120816009Y-72515104D01*
X120826690Y-72502925D01*
X125007195Y-68322419D01*
X125068516Y-68288936D01*
X125135829Y-68293061D01*
X125296737Y-68349366D01*
X125296741Y-68349366D01*
X125296745Y-68349368D01*
X125309880Y-68350847D01*
X125374293Y-68377911D01*
X125413851Y-68435504D01*
X125420000Y-68474068D01*
X125420000Y-68803020D01*
X125400315Y-68870059D01*
X125383681Y-68890701D01*
X105805080Y-88469301D01*
X105792888Y-88479994D01*
X105769748Y-88497750D01*
X105734598Y-88543558D01*
X105734588Y-88543573D01*
X105679347Y-88615566D01*
X105622517Y-88752765D01*
X105622517Y-88752766D01*
X105603133Y-88900000D01*
X105606939Y-88928908D01*
X105608000Y-88945094D01*
X105608000Y-99456560D01*
X105588315Y-99523599D01*
X105571681Y-99544241D01*
X105542184Y-99573737D01*
X105446211Y-99726476D01*
X105386631Y-99896745D01*
X105386630Y-99896750D01*
X105366435Y-100075996D01*
X105366435Y-100076003D01*
X105386630Y-100255249D01*
X105386631Y-100255254D01*
X105446211Y-100425523D01*
X105542184Y-100578262D01*
X105669738Y-100705816D01*
X105822478Y-100801789D01*
X105992745Y-100861368D01*
X105992750Y-100861369D01*
X106171996Y-100881565D01*
X106172000Y-100881565D01*
X106172004Y-100881565D01*
X106351249Y-100861369D01*
X106351252Y-100861368D01*
X106351255Y-100861368D01*
X106521522Y-100801789D01*
X106674262Y-100705816D01*
X106801816Y-100578262D01*
X106897789Y-100425522D01*
X106957368Y-100255255D01*
X106977565Y-100076000D01*
X106957368Y-99896745D01*
X106897789Y-99726478D01*
X106801816Y-99573738D01*
X106772319Y-99544241D01*
X106738834Y-99482918D01*
X106736000Y-99456560D01*
X106736000Y-89184977D01*
X106755685Y-89117938D01*
X106772314Y-89097301D01*
X122173089Y-73696525D01*
X122234410Y-73663042D01*
X122304102Y-73668026D01*
X122348449Y-73696527D01*
X122433738Y-73781816D01*
X122586478Y-73877789D01*
X122756745Y-73937368D01*
X122756750Y-73937369D01*
X122935996Y-73957565D01*
X122936000Y-73957565D01*
X122936004Y-73957565D01*
X123115249Y-73937369D01*
X123115252Y-73937368D01*
X123115255Y-73937368D01*
X123285522Y-73877789D01*
X123438262Y-73781816D01*
X123467759Y-73752319D01*
X123529082Y-73718834D01*
X123555440Y-73716000D01*
X124856560Y-73716000D01*
X124923599Y-73735685D01*
X124944241Y-73752319D01*
X124973738Y-73781816D01*
X125126478Y-73877789D01*
X125296745Y-73937368D01*
X125296750Y-73937369D01*
X125475996Y-73957565D01*
X125476000Y-73957565D01*
X125476004Y-73957565D01*
X125655249Y-73937369D01*
X125655252Y-73937368D01*
X125655255Y-73937368D01*
X125825522Y-73877789D01*
X125978262Y-73781816D01*
X126105816Y-73654262D01*
X126201789Y-73501522D01*
X126201788Y-73501522D01*
X126205494Y-73495626D01*
X126207370Y-73496804D01*
X126247098Y-73452799D01*
X126314525Y-73434484D01*
X126381150Y-73455529D01*
X126425820Y-73509254D01*
X126436000Y-73558458D01*
X126436000Y-77439020D01*
X126416315Y-77506059D01*
X126399681Y-77526701D01*
X116981080Y-86945301D01*
X116968888Y-86955994D01*
X116945748Y-86973750D01*
X116910598Y-87019558D01*
X116910588Y-87019573D01*
X116855347Y-87091566D01*
X116798517Y-87228765D01*
X116798517Y-87228766D01*
X116779133Y-87376000D01*
X116782939Y-87404908D01*
X116784000Y-87421094D01*
X116784000Y-93934904D01*
X116782939Y-93951089D01*
X116779133Y-93979998D01*
X116779133Y-93980000D01*
X116784000Y-94016967D01*
X116798517Y-94127233D01*
X116798517Y-94127234D01*
X116855347Y-94264434D01*
X116900548Y-94323341D01*
X116945750Y-94382250D01*
X116968884Y-94400001D01*
X116981079Y-94410696D01*
X118949302Y-96378919D01*
X118959996Y-96391113D01*
X118977750Y-96414250D01*
X119007330Y-96436947D01*
X119007331Y-96436948D01*
X119095565Y-96504652D01*
X119095566Y-96504652D01*
X119095567Y-96504653D01*
X119232766Y-96561483D01*
X119362870Y-96578611D01*
X119379999Y-96580867D01*
X119380000Y-96580867D01*
X119380001Y-96580867D01*
X119408911Y-96577061D01*
X119425096Y-96576000D01*
X120792560Y-96576000D01*
X120859599Y-96595685D01*
X120880241Y-96612319D01*
X120909738Y-96641816D01*
X121062478Y-96737789D01*
X121232745Y-96797368D01*
X121232750Y-96797369D01*
X121411996Y-96817565D01*
X121412000Y-96817565D01*
X121412004Y-96817565D01*
X121591249Y-96797369D01*
X121591252Y-96797368D01*
X121591255Y-96797368D01*
X121761522Y-96737789D01*
X121914262Y-96641816D01*
X122036075Y-96520003D01*
X130766435Y-96520003D01*
X130786630Y-96699249D01*
X130786631Y-96699254D01*
X130846211Y-96869523D01*
X130942184Y-97022262D01*
X131069738Y-97149816D01*
X131222478Y-97245789D01*
X131392745Y-97305368D01*
X131392750Y-97305369D01*
X131504915Y-97318006D01*
X131537840Y-97321716D01*
X131602254Y-97348782D01*
X131611638Y-97357255D01*
X141131681Y-106877298D01*
X141165166Y-106938621D01*
X141168000Y-106964979D01*
X141168000Y-107584560D01*
X141148315Y-107651599D01*
X141131681Y-107672241D01*
X141102184Y-107701737D01*
X141006211Y-107854476D01*
X140946631Y-108024745D01*
X140946630Y-108024750D01*
X140926435Y-108203996D01*
X140926435Y-108204003D01*
X140946630Y-108383249D01*
X140946631Y-108383254D01*
X141006211Y-108553523D01*
X141102184Y-108706262D01*
X141229738Y-108833816D01*
X141382478Y-108929789D01*
X141552745Y-108989368D01*
X141552750Y-108989369D01*
X141731996Y-109009565D01*
X141732000Y-109009565D01*
X141732004Y-109009565D01*
X141911249Y-108989369D01*
X141911252Y-108989368D01*
X141911255Y-108989368D01*
X142081522Y-108929789D01*
X142234262Y-108833816D01*
X142361816Y-108706262D01*
X142457789Y-108553522D01*
X142517368Y-108383255D01*
X142537565Y-108204000D01*
X142517368Y-108024745D01*
X142457789Y-107854478D01*
X142361816Y-107701738D01*
X142332319Y-107672241D01*
X142298834Y-107610918D01*
X142296000Y-107584560D01*
X142296000Y-106725101D01*
X142297061Y-106708914D01*
X142300868Y-106679999D01*
X142281483Y-106532766D01*
X142224652Y-106395565D01*
X142154478Y-106304112D01*
X142154477Y-106304111D01*
X142134250Y-106277750D01*
X142111113Y-106259996D01*
X142098919Y-106249302D01*
X132409255Y-96559638D01*
X132375770Y-96498315D01*
X132373716Y-96485840D01*
X132357369Y-96340750D01*
X132357368Y-96340745D01*
X132297788Y-96170476D01*
X132201815Y-96017737D01*
X132074262Y-95890184D01*
X131921523Y-95794211D01*
X131751254Y-95734631D01*
X131751249Y-95734630D01*
X131572004Y-95714435D01*
X131571996Y-95714435D01*
X131392750Y-95734630D01*
X131392745Y-95734631D01*
X131222476Y-95794211D01*
X131069737Y-95890184D01*
X130942184Y-96017737D01*
X130846211Y-96170476D01*
X130786631Y-96340745D01*
X130786630Y-96340750D01*
X130766435Y-96519996D01*
X130766435Y-96520003D01*
X122036075Y-96520003D01*
X122041816Y-96514262D01*
X122137789Y-96361522D01*
X122197368Y-96191255D01*
X122199709Y-96170478D01*
X122217565Y-96012003D01*
X122217565Y-96011996D01*
X122197369Y-95832750D01*
X122197368Y-95832745D01*
X122163036Y-95734630D01*
X122137789Y-95662478D01*
X122041816Y-95509738D01*
X121914262Y-95382184D01*
X121761523Y-95286211D01*
X121591254Y-95226631D01*
X121591249Y-95226630D01*
X121412004Y-95206435D01*
X121411996Y-95206435D01*
X121232750Y-95226630D01*
X121232745Y-95226631D01*
X121062476Y-95286211D01*
X120909737Y-95382184D01*
X120880241Y-95411681D01*
X120818918Y-95445166D01*
X120792560Y-95448000D01*
X119664979Y-95448000D01*
X119597940Y-95428315D01*
X119577298Y-95411681D01*
X117948319Y-93782702D01*
X117914834Y-93721379D01*
X117912000Y-93695021D01*
X117912000Y-92964003D01*
X129750435Y-92964003D01*
X129770630Y-93143249D01*
X129770631Y-93143254D01*
X129830211Y-93313523D01*
X129926184Y-93466262D01*
X130053738Y-93593816D01*
X130206478Y-93689789D01*
X130296757Y-93721379D01*
X130376745Y-93749368D01*
X130376750Y-93749369D01*
X130488915Y-93762006D01*
X130521840Y-93765716D01*
X130586254Y-93792782D01*
X130595638Y-93801255D01*
X153594743Y-116800360D01*
X153628228Y-116861683D01*
X153630282Y-116874157D01*
X153646630Y-117019250D01*
X153646631Y-117019254D01*
X153706211Y-117189523D01*
X153736302Y-117237412D01*
X153802184Y-117342262D01*
X153929738Y-117469816D01*
X154020080Y-117526582D01*
X154041425Y-117539994D01*
X154082478Y-117565789D01*
X154227776Y-117616631D01*
X154252745Y-117625368D01*
X154252750Y-117625369D01*
X154431996Y-117645565D01*
X154432000Y-117645565D01*
X154432004Y-117645565D01*
X154611249Y-117625369D01*
X154611252Y-117625368D01*
X154611255Y-117625368D01*
X154781522Y-117565789D01*
X154934262Y-117469816D01*
X154944073Y-117460005D01*
X162405202Y-117460005D01*
X162424361Y-117691218D01*
X162481317Y-117916135D01*
X162574515Y-118128606D01*
X162658812Y-118257633D01*
X163247226Y-117669219D01*
X163285901Y-117762588D01*
X163382075Y-117887925D01*
X163507412Y-117984099D01*
X163600779Y-118022772D01*
X163011201Y-118612351D01*
X163041649Y-118636050D01*
X163245697Y-118746476D01*
X163245706Y-118746479D01*
X163465139Y-118821811D01*
X163693993Y-118860000D01*
X163926007Y-118860000D01*
X164154860Y-118821811D01*
X164374293Y-118746479D01*
X164374301Y-118746476D01*
X164578355Y-118636047D01*
X164608797Y-118612351D01*
X164608798Y-118612350D01*
X164019220Y-118022772D01*
X164112588Y-117984099D01*
X164237925Y-117887925D01*
X164334099Y-117762589D01*
X164372773Y-117669220D01*
X164961186Y-118257633D01*
X165045482Y-118128611D01*
X165138682Y-117916135D01*
X165195638Y-117691218D01*
X165214798Y-117460005D01*
X165214798Y-117459994D01*
X165195638Y-117228781D01*
X165138682Y-117003864D01*
X165045484Y-116791393D01*
X164961186Y-116662365D01*
X164372772Y-117250779D01*
X164334099Y-117157412D01*
X164237925Y-117032075D01*
X164112588Y-116935901D01*
X164019219Y-116897226D01*
X164608797Y-116307647D01*
X164608797Y-116307645D01*
X164578360Y-116283955D01*
X164578354Y-116283951D01*
X164374302Y-116173523D01*
X164374293Y-116173520D01*
X164154860Y-116098188D01*
X163926007Y-116060000D01*
X163693993Y-116060000D01*
X163465139Y-116098188D01*
X163245706Y-116173520D01*
X163245697Y-116173523D01*
X163041650Y-116283949D01*
X163011200Y-116307647D01*
X163600780Y-116897226D01*
X163507412Y-116935901D01*
X163382075Y-117032075D01*
X163285901Y-117157411D01*
X163247226Y-117250780D01*
X162658811Y-116662365D01*
X162574516Y-116791390D01*
X162481317Y-117003864D01*
X162424361Y-117228781D01*
X162405202Y-117459994D01*
X162405202Y-117460005D01*
X154944073Y-117460005D01*
X155061816Y-117342262D01*
X155157789Y-117189522D01*
X155217368Y-117019255D01*
X155226760Y-116935901D01*
X155237565Y-116840003D01*
X155237565Y-116839996D01*
X155217369Y-116660750D01*
X155217368Y-116660745D01*
X155157788Y-116490476D01*
X155078289Y-116363955D01*
X155061816Y-116337738D01*
X154934262Y-116210184D01*
X154880607Y-116176470D01*
X154781523Y-116114211D01*
X154611254Y-116054631D01*
X154611250Y-116054630D01*
X154466157Y-116038282D01*
X154401743Y-116011215D01*
X154392360Y-116002743D01*
X153309623Y-114920006D01*
X156054700Y-114920006D01*
X156073864Y-115151297D01*
X156073866Y-115151308D01*
X156130842Y-115376300D01*
X156224075Y-115588848D01*
X156351016Y-115783147D01*
X156351019Y-115783151D01*
X156351021Y-115783153D01*
X156508216Y-115953913D01*
X156508219Y-115953915D01*
X156508222Y-115953918D01*
X156691365Y-116096464D01*
X156691371Y-116096468D01*
X156691374Y-116096470D01*
X156895497Y-116206936D01*
X157009487Y-116246068D01*
X157115015Y-116282297D01*
X157115017Y-116282297D01*
X157115019Y-116282298D01*
X157343951Y-116320500D01*
X157343952Y-116320500D01*
X157576048Y-116320500D01*
X157576049Y-116320500D01*
X157804981Y-116282298D01*
X158024503Y-116206936D01*
X158228626Y-116096470D01*
X158411784Y-115953913D01*
X158568979Y-115783153D01*
X158626191Y-115695582D01*
X158679337Y-115650226D01*
X158748568Y-115640802D01*
X158811904Y-115670304D01*
X158833809Y-115695583D01*
X158891016Y-115783147D01*
X158891019Y-115783151D01*
X158891021Y-115783153D01*
X159048216Y-115953913D01*
X159048219Y-115953915D01*
X159048222Y-115953918D01*
X159231365Y-116096464D01*
X159231371Y-116096468D01*
X159231374Y-116096470D01*
X159435497Y-116206936D01*
X159549487Y-116246068D01*
X159655015Y-116282297D01*
X159655017Y-116282297D01*
X159655019Y-116282298D01*
X159883951Y-116320500D01*
X159883952Y-116320500D01*
X160116048Y-116320500D01*
X160116049Y-116320500D01*
X160344981Y-116282298D01*
X160564503Y-116206936D01*
X160768626Y-116096470D01*
X160951784Y-115953913D01*
X161108979Y-115783153D01*
X161235924Y-115588849D01*
X161329157Y-115376300D01*
X161386134Y-115151305D01*
X161398671Y-115000006D01*
X161405300Y-114920006D01*
X161405300Y-114919993D01*
X161386135Y-114688702D01*
X161386133Y-114688691D01*
X161329157Y-114463699D01*
X161235924Y-114251151D01*
X161108983Y-114056852D01*
X161108980Y-114056849D01*
X161108979Y-114056847D01*
X160951784Y-113886087D01*
X160951779Y-113886083D01*
X160951777Y-113886081D01*
X160768634Y-113743535D01*
X160768628Y-113743531D01*
X160564504Y-113633064D01*
X160564495Y-113633061D01*
X160344984Y-113557702D01*
X160173282Y-113529050D01*
X160116049Y-113519500D01*
X159883951Y-113519500D01*
X159838164Y-113527140D01*
X159655015Y-113557702D01*
X159435504Y-113633061D01*
X159435495Y-113633064D01*
X159231371Y-113743531D01*
X159231365Y-113743535D01*
X159048222Y-113886081D01*
X159048219Y-113886084D01*
X158891016Y-114056852D01*
X158833809Y-114144416D01*
X158780662Y-114189773D01*
X158711431Y-114199197D01*
X158648095Y-114169695D01*
X158626191Y-114144416D01*
X158568983Y-114056852D01*
X158568980Y-114056849D01*
X158568979Y-114056847D01*
X158411784Y-113886087D01*
X158411779Y-113886083D01*
X158411777Y-113886081D01*
X158228634Y-113743535D01*
X158228628Y-113743531D01*
X158024504Y-113633064D01*
X158024495Y-113633061D01*
X157804984Y-113557702D01*
X157633282Y-113529050D01*
X157576049Y-113519500D01*
X157343951Y-113519500D01*
X157298164Y-113527140D01*
X157115015Y-113557702D01*
X156895504Y-113633061D01*
X156895495Y-113633064D01*
X156691371Y-113743531D01*
X156691365Y-113743535D01*
X156508222Y-113886081D01*
X156508219Y-113886084D01*
X156351016Y-114056852D01*
X156224075Y-114251151D01*
X156130842Y-114463699D01*
X156073866Y-114688691D01*
X156073864Y-114688702D01*
X156054700Y-114919993D01*
X156054700Y-114920006D01*
X153309623Y-114920006D01*
X150769623Y-112380006D01*
X162404700Y-112380006D01*
X162423864Y-112611297D01*
X162423866Y-112611308D01*
X162480842Y-112836300D01*
X162574075Y-113048848D01*
X162701016Y-113243147D01*
X162701019Y-113243151D01*
X162701021Y-113243153D01*
X162858216Y-113413913D01*
X162858219Y-113413915D01*
X162858222Y-113413918D01*
X163041365Y-113556464D01*
X163041371Y-113556468D01*
X163041374Y-113556470D01*
X163245497Y-113666936D01*
X163359487Y-113706068D01*
X163465015Y-113742297D01*
X163465017Y-113742297D01*
X163465019Y-113742298D01*
X163693951Y-113780500D01*
X163693952Y-113780500D01*
X163926048Y-113780500D01*
X163926049Y-113780500D01*
X164154981Y-113742298D01*
X164374503Y-113666936D01*
X164578626Y-113556470D01*
X164761784Y-113413913D01*
X164918979Y-113243153D01*
X165045924Y-113048849D01*
X165139157Y-112836300D01*
X165196134Y-112611305D01*
X165208671Y-112460006D01*
X165215300Y-112380006D01*
X165215300Y-112379993D01*
X165196135Y-112148702D01*
X165196133Y-112148691D01*
X165139157Y-111923699D01*
X165045924Y-111711151D01*
X164918983Y-111516852D01*
X164918980Y-111516849D01*
X164918979Y-111516847D01*
X164761784Y-111346087D01*
X164761779Y-111346083D01*
X164761777Y-111346081D01*
X164578634Y-111203535D01*
X164578628Y-111203531D01*
X164374504Y-111093064D01*
X164374495Y-111093061D01*
X164154984Y-111017702D01*
X163983282Y-110989050D01*
X163926049Y-110979500D01*
X163693951Y-110979500D01*
X163648164Y-110987140D01*
X163465015Y-111017702D01*
X163245504Y-111093061D01*
X163245495Y-111093064D01*
X163041371Y-111203531D01*
X163041365Y-111203535D01*
X162858222Y-111346081D01*
X162858219Y-111346084D01*
X162701016Y-111516852D01*
X162574075Y-111711151D01*
X162480842Y-111923699D01*
X162423866Y-112148691D01*
X162423864Y-112148702D01*
X162404700Y-112379993D01*
X162404700Y-112380006D01*
X150769623Y-112380006D01*
X131393255Y-93003638D01*
X131359770Y-92942315D01*
X131357716Y-92929840D01*
X131341369Y-92784750D01*
X131341368Y-92784745D01*
X131281788Y-92614476D01*
X131185815Y-92461737D01*
X131058262Y-92334184D01*
X130905523Y-92238211D01*
X130735254Y-92178631D01*
X130735249Y-92178630D01*
X130556004Y-92158435D01*
X130555996Y-92158435D01*
X130376750Y-92178630D01*
X130376745Y-92178631D01*
X130206476Y-92238211D01*
X130053737Y-92334184D01*
X129926184Y-92461737D01*
X129830211Y-92614476D01*
X129770631Y-92784745D01*
X129770630Y-92784750D01*
X129750435Y-92963996D01*
X129750435Y-92964003D01*
X117912000Y-92964003D01*
X117912000Y-87660978D01*
X117931685Y-87593939D01*
X117948319Y-87573297D01*
X118647879Y-86873737D01*
X119438802Y-86082813D01*
X119500123Y-86049330D01*
X119569815Y-86054314D01*
X119625748Y-86096186D01*
X119643522Y-86129540D01*
X119668709Y-86201520D01*
X119764684Y-86354262D01*
X119892238Y-86481816D01*
X119982580Y-86538582D01*
X120039396Y-86574282D01*
X120044978Y-86577789D01*
X120215245Y-86637368D01*
X120215250Y-86637369D01*
X120394496Y-86657565D01*
X120394500Y-86657565D01*
X120394504Y-86657565D01*
X120573749Y-86637369D01*
X120573752Y-86637368D01*
X120573755Y-86637368D01*
X120744022Y-86577789D01*
X120896762Y-86481816D01*
X121024316Y-86354262D01*
X121120289Y-86201522D01*
X121179868Y-86031255D01*
X121196216Y-85886156D01*
X121223282Y-85821744D01*
X121231745Y-85812370D01*
X122115797Y-84928319D01*
X122177120Y-84894834D01*
X122203478Y-84892000D01*
X122824560Y-84892000D01*
X122891599Y-84911685D01*
X122912241Y-84928319D01*
X122941738Y-84957816D01*
X122963247Y-84971331D01*
X123076285Y-85042358D01*
X123094478Y-85053789D01*
X123185712Y-85085713D01*
X123264745Y-85113368D01*
X123264750Y-85113369D01*
X123443996Y-85133565D01*
X123444000Y-85133565D01*
X123444004Y-85133565D01*
X123623249Y-85113369D01*
X123623252Y-85113368D01*
X123623255Y-85113368D01*
X123793522Y-85053789D01*
X123946262Y-84957816D01*
X124073816Y-84830262D01*
X124169789Y-84677522D01*
X124229368Y-84507255D01*
X124249565Y-84328003D01*
X126702435Y-84328003D01*
X126722630Y-84507249D01*
X126722631Y-84507254D01*
X126782211Y-84677523D01*
X126878184Y-84830262D01*
X127005738Y-84957816D01*
X127027247Y-84971331D01*
X127140285Y-85042358D01*
X127158478Y-85053789D01*
X127249712Y-85085713D01*
X127328745Y-85113368D01*
X127328750Y-85113369D01*
X127507996Y-85133565D01*
X127508000Y-85133565D01*
X127508004Y-85133565D01*
X127590642Y-85124254D01*
X127659463Y-85136308D01*
X127710843Y-85183658D01*
X127728467Y-85251268D01*
X127727745Y-85261356D01*
X127718435Y-85343994D01*
X127718435Y-85344003D01*
X127738630Y-85523249D01*
X127738631Y-85523254D01*
X127798211Y-85693523D01*
X127872882Y-85812360D01*
X127894184Y-85846262D01*
X128021738Y-85973816D01*
X128112080Y-86030582D01*
X128149849Y-86054314D01*
X128174478Y-86069789D01*
X128344745Y-86129368D01*
X128344750Y-86129369D01*
X128523996Y-86149565D01*
X128524000Y-86149565D01*
X128524004Y-86149565D01*
X128703249Y-86129369D01*
X128703252Y-86129368D01*
X128703255Y-86129368D01*
X128873522Y-86069789D01*
X129026262Y-85973816D01*
X129055759Y-85944319D01*
X129117082Y-85910834D01*
X129143440Y-85908000D01*
X156179021Y-85908000D01*
X156246060Y-85927685D01*
X156266702Y-85944319D01*
X157658743Y-87336360D01*
X157692228Y-87397683D01*
X157694282Y-87410157D01*
X157710630Y-87555250D01*
X157710631Y-87555254D01*
X157770211Y-87725523D01*
X157793247Y-87762184D01*
X157866184Y-87878262D01*
X157993738Y-88005816D01*
X158146478Y-88101789D01*
X158316745Y-88161368D01*
X158316750Y-88161369D01*
X158495996Y-88181565D01*
X158496000Y-88181565D01*
X158496004Y-88181565D01*
X158675249Y-88161369D01*
X158675252Y-88161368D01*
X158675255Y-88161368D01*
X158845522Y-88101789D01*
X158998262Y-88005816D01*
X159125816Y-87878262D01*
X159221789Y-87725522D01*
X159281368Y-87555255D01*
X159281426Y-87554743D01*
X159301565Y-87376003D01*
X159301565Y-87375996D01*
X159281369Y-87196750D01*
X159281368Y-87196745D01*
X159221789Y-87026478D01*
X159217450Y-87019573D01*
X159125815Y-86873737D01*
X158998262Y-86746184D01*
X158845523Y-86650211D01*
X158675254Y-86590631D01*
X158675250Y-86590630D01*
X158530157Y-86574282D01*
X158465743Y-86547215D01*
X158456360Y-86538743D01*
X157021298Y-85103681D01*
X156987813Y-85042358D01*
X156992797Y-84972666D01*
X157034669Y-84916733D01*
X157100133Y-84892316D01*
X157108979Y-84892000D01*
X159735021Y-84892000D01*
X159802060Y-84911685D01*
X159822702Y-84928319D01*
X163246743Y-88352360D01*
X163280228Y-88413683D01*
X163282282Y-88426157D01*
X163298630Y-88571250D01*
X163298631Y-88571254D01*
X163358211Y-88741523D01*
X163454184Y-88894262D01*
X163581738Y-89021816D01*
X163672080Y-89078582D01*
X163701863Y-89097296D01*
X163734478Y-89117789D01*
X163904745Y-89177368D01*
X163904750Y-89177369D01*
X164083996Y-89197565D01*
X164084000Y-89197565D01*
X164084004Y-89197565D01*
X164263249Y-89177369D01*
X164263252Y-89177368D01*
X164263255Y-89177368D01*
X164433522Y-89117789D01*
X164586262Y-89021816D01*
X164713816Y-88894262D01*
X164809789Y-88741522D01*
X164869368Y-88571255D01*
X164879651Y-88479994D01*
X164889565Y-88392003D01*
X164889565Y-88391996D01*
X164869369Y-88212750D01*
X164869368Y-88212745D01*
X164809788Y-88042476D01*
X164713815Y-87889737D01*
X164586262Y-87762184D01*
X164433523Y-87666211D01*
X164263254Y-87606631D01*
X164263250Y-87606630D01*
X164118157Y-87590282D01*
X164053743Y-87563215D01*
X164044360Y-87554743D01*
X160450696Y-83961079D01*
X160440001Y-83948884D01*
X160422248Y-83925748D01*
X160380181Y-83893470D01*
X160380180Y-83893469D01*
X160304432Y-83835346D01*
X160215315Y-83798433D01*
X160167234Y-83778517D01*
X160093617Y-83768825D01*
X160020001Y-83759133D01*
X160019999Y-83759133D01*
X160005699Y-83761015D01*
X159991089Y-83762939D01*
X159974906Y-83764000D01*
X128127440Y-83764000D01*
X128060401Y-83744315D01*
X128039759Y-83727681D01*
X128010262Y-83698184D01*
X127857523Y-83602211D01*
X127687254Y-83542631D01*
X127687249Y-83542630D01*
X127508004Y-83522435D01*
X127507996Y-83522435D01*
X127328750Y-83542630D01*
X127328745Y-83542631D01*
X127158476Y-83602211D01*
X127005737Y-83698184D01*
X126878184Y-83825737D01*
X126782211Y-83978476D01*
X126722631Y-84148745D01*
X126722630Y-84148750D01*
X126702435Y-84327996D01*
X126702435Y-84328003D01*
X124249565Y-84328003D01*
X124249565Y-84328000D01*
X124229368Y-84148745D01*
X124169789Y-83978478D01*
X124158856Y-83961079D01*
X124116374Y-83893469D01*
X124073816Y-83825738D01*
X123946262Y-83698184D01*
X123935642Y-83691511D01*
X123793523Y-83602211D01*
X123623254Y-83542631D01*
X123623249Y-83542630D01*
X123444004Y-83522435D01*
X123443996Y-83522435D01*
X123264750Y-83542630D01*
X123264745Y-83542631D01*
X123094476Y-83602211D01*
X122941737Y-83698184D01*
X122912241Y-83727681D01*
X122850918Y-83761166D01*
X122824560Y-83764000D01*
X122056977Y-83764000D01*
X121989938Y-83744315D01*
X121944183Y-83691511D01*
X121934239Y-83622353D01*
X121963264Y-83558797D01*
X121969296Y-83552319D01*
X121999180Y-83522435D01*
X127366920Y-78154694D01*
X127379111Y-78144004D01*
X127402250Y-78126250D01*
X127492653Y-78008433D01*
X127549483Y-77871234D01*
X127564000Y-77760968D01*
X127568867Y-77724000D01*
X127565060Y-77695090D01*
X127564000Y-77678905D01*
X127564000Y-62595440D01*
X127583685Y-62528401D01*
X127600319Y-62507759D01*
X127624075Y-62484003D01*
X131782435Y-62484003D01*
X131802630Y-62663249D01*
X131802631Y-62663254D01*
X131862211Y-62833523D01*
X131926602Y-62936000D01*
X131958184Y-62986262D01*
X132085738Y-63113816D01*
X132238478Y-63209789D01*
X132393647Y-63264085D01*
X132408745Y-63269368D01*
X132408750Y-63269369D01*
X132587996Y-63289565D01*
X132588000Y-63289565D01*
X132588004Y-63289565D01*
X132767249Y-63269369D01*
X132767252Y-63269368D01*
X132767255Y-63269368D01*
X132937522Y-63209789D01*
X133090262Y-63113816D01*
X133119759Y-63084319D01*
X133181082Y-63050834D01*
X133207440Y-63048000D01*
X137631032Y-63048000D01*
X139415021Y-63048000D01*
X139482060Y-63067685D01*
X139502702Y-63084319D01*
X145158635Y-68740252D01*
X145192120Y-68801575D01*
X145187136Y-68871267D01*
X145158636Y-68915614D01*
X145073347Y-69000903D01*
X144977374Y-69153642D01*
X144917796Y-69323909D01*
X144910123Y-69392002D01*
X144883055Y-69456415D01*
X144874584Y-69465797D01*
X143671409Y-70668974D01*
X143610086Y-70702459D01*
X143583728Y-70705293D01*
X136377067Y-70705293D01*
X136310028Y-70685608D01*
X136289386Y-70668974D01*
X136259889Y-70639477D01*
X136107150Y-70543504D01*
X135936881Y-70483924D01*
X135936876Y-70483923D01*
X135757631Y-70463728D01*
X135757623Y-70463728D01*
X135578377Y-70483923D01*
X135578372Y-70483924D01*
X135408103Y-70543504D01*
X135255364Y-70639477D01*
X135127811Y-70767030D01*
X135031838Y-70919769D01*
X134972258Y-71090038D01*
X134972257Y-71090043D01*
X134952062Y-71269289D01*
X134952062Y-71269296D01*
X134972257Y-71448542D01*
X134972258Y-71448547D01*
X135031838Y-71618816D01*
X135121773Y-71761945D01*
X135127811Y-71771555D01*
X135255365Y-71899109D01*
X135408105Y-71995082D01*
X135507529Y-72029872D01*
X135578372Y-72054661D01*
X135578377Y-72054662D01*
X135757623Y-72074858D01*
X135757627Y-72074858D01*
X135757631Y-72074858D01*
X135936876Y-72054662D01*
X135936879Y-72054661D01*
X135936882Y-72054661D01*
X136107149Y-71995082D01*
X136259889Y-71899109D01*
X136289386Y-71869612D01*
X136350709Y-71836127D01*
X136377067Y-71833293D01*
X143823613Y-71833293D01*
X143839796Y-71834353D01*
X143853265Y-71836127D01*
X143868706Y-71838160D01*
X143868707Y-71838160D01*
X143868708Y-71838160D01*
X143884149Y-71836127D01*
X144015941Y-71818776D01*
X144153140Y-71761946D01*
X144241375Y-71694242D01*
X144241375Y-71694241D01*
X144264313Y-71676641D01*
X144264313Y-71676640D01*
X144270957Y-71671543D01*
X144288716Y-71648397D01*
X144299397Y-71636218D01*
X145592387Y-70343228D01*
X145653708Y-70309745D01*
X145693951Y-70307691D01*
X145703163Y-70308729D01*
X145703164Y-70308729D01*
X145703168Y-70308729D01*
X145882413Y-70288533D01*
X145882416Y-70288532D01*
X145882419Y-70288532D01*
X146052686Y-70228953D01*
X146205426Y-70132980D01*
X146332980Y-70005426D01*
X146428953Y-69852686D01*
X146470117Y-69735045D01*
X146510839Y-69678270D01*
X146575791Y-69652522D01*
X146587159Y-69652000D01*
X150331032Y-69652000D01*
X164307021Y-69652000D01*
X164374060Y-69671685D01*
X164394702Y-69688319D01*
X166531681Y-71825297D01*
X166565166Y-71886620D01*
X166568000Y-71912978D01*
X166568000Y-118933020D01*
X166548315Y-119000059D01*
X166531681Y-119020701D01*
X164373266Y-121179115D01*
X164311943Y-121212600D01*
X164245323Y-121208716D01*
X164154980Y-121177701D01*
X163964250Y-121145874D01*
X163926049Y-121139500D01*
X163693951Y-121139500D01*
X163648164Y-121147140D01*
X163465015Y-121177702D01*
X163245504Y-121253061D01*
X163245495Y-121253064D01*
X163041371Y-121363531D01*
X163041365Y-121363535D01*
X162858222Y-121506081D01*
X162858219Y-121506084D01*
X162701016Y-121676852D01*
X162574075Y-121871151D01*
X162480842Y-122083699D01*
X162423866Y-122308691D01*
X162423864Y-122308702D01*
X162404700Y-122539993D01*
X162404700Y-122540006D01*
X162423864Y-122771297D01*
X162423866Y-122771308D01*
X162480842Y-122996300D01*
X162574075Y-123208848D01*
X162701016Y-123403147D01*
X162701019Y-123403151D01*
X162701021Y-123403153D01*
X162858216Y-123573913D01*
X162858219Y-123573915D01*
X162858222Y-123573918D01*
X163041365Y-123716464D01*
X163041371Y-123716468D01*
X163041374Y-123716470D01*
X163245497Y-123826936D01*
X163359487Y-123866068D01*
X163465015Y-123902297D01*
X163465017Y-123902297D01*
X163465019Y-123902298D01*
X163693951Y-123940500D01*
X163693952Y-123940500D01*
X163926048Y-123940500D01*
X163926049Y-123940500D01*
X164154981Y-123902298D01*
X164374503Y-123826936D01*
X164578626Y-123716470D01*
X164761784Y-123573913D01*
X164918979Y-123403153D01*
X165045924Y-123208849D01*
X165139157Y-122996300D01*
X165196134Y-122771305D01*
X165196135Y-122771297D01*
X165215300Y-122540006D01*
X165215300Y-122539993D01*
X165196135Y-122308702D01*
X165196134Y-122308699D01*
X165196134Y-122308695D01*
X165141249Y-122091961D01*
X165143874Y-122022142D01*
X165173772Y-121973843D01*
X167498920Y-119648694D01*
X167511111Y-119638004D01*
X167534250Y-119620250D01*
X167624653Y-119502433D01*
X167681483Y-119365234D01*
X167696000Y-119254968D01*
X167696000Y-119254966D01*
X167700867Y-119218000D01*
X167697061Y-119189090D01*
X167696000Y-119172905D01*
X167696000Y-109356979D01*
X167715685Y-109289940D01*
X167768489Y-109244185D01*
X167837647Y-109234241D01*
X167901203Y-109263266D01*
X167907681Y-109269298D01*
X181625302Y-122986919D01*
X181635996Y-122999113D01*
X181653750Y-123022250D01*
X181680103Y-123042471D01*
X181680122Y-123042486D01*
X181771567Y-123112654D01*
X181771566Y-123112654D01*
X181828395Y-123136192D01*
X181908766Y-123169483D01*
X182027085Y-123185061D01*
X182055999Y-123188868D01*
X182056000Y-123188868D01*
X182084916Y-123185060D01*
X182101102Y-123184000D01*
X189987072Y-123184000D01*
X190054111Y-123203685D01*
X190099866Y-123256489D01*
X190100590Y-123258104D01*
X190114076Y-123288848D01*
X190114077Y-123288851D01*
X190241016Y-123483147D01*
X190241019Y-123483151D01*
X190241021Y-123483153D01*
X190398216Y-123653913D01*
X190398219Y-123653915D01*
X190398222Y-123653918D01*
X190581365Y-123796464D01*
X190581371Y-123796468D01*
X190581374Y-123796470D01*
X190785497Y-123906936D01*
X190883266Y-123940500D01*
X191005015Y-123982297D01*
X191005017Y-123982297D01*
X191005019Y-123982298D01*
X191233951Y-124020500D01*
X191233952Y-124020500D01*
X191466048Y-124020500D01*
X191466049Y-124020500D01*
X191694981Y-123982298D01*
X191914503Y-123906936D01*
X192118626Y-123796470D01*
X192301784Y-123653913D01*
X192458979Y-123483153D01*
X192585924Y-123288849D01*
X192679157Y-123076300D01*
X192736134Y-122851305D01*
X192742763Y-122771305D01*
X192755300Y-122620006D01*
X192755300Y-122619993D01*
X192736135Y-122388702D01*
X192736133Y-122388691D01*
X192679157Y-122163699D01*
X192585924Y-121951151D01*
X192458983Y-121756852D01*
X192458980Y-121756849D01*
X192458979Y-121756847D01*
X192301784Y-121586087D01*
X192301779Y-121586083D01*
X192301777Y-121586081D01*
X192118634Y-121443535D01*
X192118628Y-121443531D01*
X191914504Y-121333064D01*
X191914495Y-121333061D01*
X191694984Y-121257702D01*
X191523282Y-121229050D01*
X191466049Y-121219500D01*
X191233951Y-121219500D01*
X191188164Y-121227140D01*
X191005015Y-121257702D01*
X190785504Y-121333061D01*
X190785495Y-121333064D01*
X190581371Y-121443531D01*
X190581365Y-121443535D01*
X190398222Y-121586081D01*
X190398219Y-121586084D01*
X190241016Y-121756852D01*
X190114077Y-121951148D01*
X190114076Y-121951151D01*
X190100627Y-121981811D01*
X190055673Y-122035295D01*
X189988938Y-122055986D01*
X189987072Y-122056000D01*
X182340979Y-122056000D01*
X182273940Y-122036315D01*
X182253298Y-122019681D01*
X180313623Y-120080006D01*
X183594700Y-120080006D01*
X183613864Y-120311297D01*
X183613866Y-120311308D01*
X183670842Y-120536300D01*
X183764075Y-120748848D01*
X183891016Y-120943147D01*
X183891019Y-120943151D01*
X183891021Y-120943153D01*
X184048216Y-121113913D01*
X184048219Y-121113915D01*
X184048222Y-121113918D01*
X184231365Y-121256464D01*
X184231371Y-121256468D01*
X184231374Y-121256470D01*
X184287674Y-121286938D01*
X184429212Y-121363535D01*
X184435497Y-121366936D01*
X184533266Y-121400500D01*
X184655015Y-121442297D01*
X184655017Y-121442297D01*
X184655019Y-121442298D01*
X184883951Y-121480500D01*
X184883952Y-121480500D01*
X185116048Y-121480500D01*
X185116049Y-121480500D01*
X185344981Y-121442298D01*
X185564503Y-121366936D01*
X185768626Y-121256470D01*
X185951784Y-121113913D01*
X186108979Y-120943153D01*
X186166191Y-120855582D01*
X186219337Y-120810226D01*
X186288568Y-120800802D01*
X186351904Y-120830304D01*
X186373807Y-120855581D01*
X186385379Y-120873292D01*
X186431016Y-120943147D01*
X186431019Y-120943151D01*
X186431021Y-120943153D01*
X186588216Y-121113913D01*
X186588219Y-121113915D01*
X186588222Y-121113918D01*
X186771365Y-121256464D01*
X186771371Y-121256468D01*
X186771374Y-121256470D01*
X186827674Y-121286938D01*
X186969212Y-121363535D01*
X186975497Y-121366936D01*
X187073266Y-121400500D01*
X187195015Y-121442297D01*
X187195017Y-121442297D01*
X187195019Y-121442298D01*
X187423951Y-121480500D01*
X187423952Y-121480500D01*
X187656048Y-121480500D01*
X187656049Y-121480500D01*
X187884981Y-121442298D01*
X188104503Y-121366936D01*
X188308626Y-121256470D01*
X188491784Y-121113913D01*
X188648979Y-120943153D01*
X188775924Y-120748849D01*
X188869157Y-120536300D01*
X188926134Y-120311305D01*
X188932763Y-120231305D01*
X188945300Y-120080006D01*
X188945300Y-120079993D01*
X188926135Y-119848702D01*
X188926133Y-119848691D01*
X188869157Y-119623699D01*
X188775924Y-119411151D01*
X188648983Y-119216852D01*
X188648980Y-119216849D01*
X188648979Y-119216847D01*
X188491784Y-119046087D01*
X188491779Y-119046083D01*
X188491777Y-119046081D01*
X188308634Y-118903535D01*
X188308628Y-118903531D01*
X188104504Y-118793064D01*
X188104495Y-118793061D01*
X187884984Y-118717702D01*
X187713282Y-118689050D01*
X187656049Y-118679500D01*
X187423951Y-118679500D01*
X187378164Y-118687140D01*
X187195015Y-118717702D01*
X186975504Y-118793061D01*
X186975495Y-118793064D01*
X186771371Y-118903531D01*
X186771365Y-118903535D01*
X186588222Y-119046081D01*
X186588219Y-119046084D01*
X186431016Y-119216852D01*
X186373809Y-119304416D01*
X186320662Y-119349773D01*
X186251431Y-119359197D01*
X186188095Y-119329695D01*
X186166191Y-119304416D01*
X186108983Y-119216852D01*
X186108980Y-119216849D01*
X186108979Y-119216847D01*
X185951784Y-119046087D01*
X185951779Y-119046083D01*
X185951777Y-119046081D01*
X185768634Y-118903535D01*
X185768628Y-118903531D01*
X185564504Y-118793064D01*
X185564495Y-118793061D01*
X185344984Y-118717702D01*
X185173282Y-118689050D01*
X185116049Y-118679500D01*
X184883951Y-118679500D01*
X184838164Y-118687140D01*
X184655015Y-118717702D01*
X184435504Y-118793061D01*
X184435495Y-118793064D01*
X184231371Y-118903531D01*
X184231365Y-118903535D01*
X184048222Y-119046081D01*
X184048219Y-119046084D01*
X183891016Y-119216852D01*
X183764075Y-119411151D01*
X183670842Y-119623699D01*
X183613866Y-119848691D01*
X183613864Y-119848702D01*
X183594700Y-120079993D01*
X183594700Y-120080006D01*
X180313623Y-120080006D01*
X177773622Y-117540005D01*
X189945202Y-117540005D01*
X189964361Y-117771218D01*
X190021317Y-117996135D01*
X190114515Y-118208606D01*
X190198812Y-118337633D01*
X190787226Y-117749219D01*
X190825901Y-117842588D01*
X190922075Y-117967925D01*
X191047412Y-118064099D01*
X191140779Y-118102772D01*
X190551201Y-118692351D01*
X190581649Y-118716050D01*
X190785697Y-118826476D01*
X190785706Y-118826479D01*
X191005139Y-118901811D01*
X191233993Y-118940000D01*
X191466007Y-118940000D01*
X191694860Y-118901811D01*
X191914293Y-118826479D01*
X191914301Y-118826476D01*
X192118355Y-118716047D01*
X192148797Y-118692351D01*
X192148798Y-118692350D01*
X191559220Y-118102772D01*
X191652588Y-118064099D01*
X191777925Y-117967925D01*
X191874099Y-117842589D01*
X191912773Y-117749220D01*
X192501186Y-118337633D01*
X192585482Y-118208611D01*
X192678682Y-117996135D01*
X192735638Y-117771218D01*
X192754798Y-117540005D01*
X192754798Y-117539994D01*
X192735638Y-117308781D01*
X192678682Y-117083864D01*
X192585484Y-116871393D01*
X192501186Y-116742365D01*
X191912772Y-117330779D01*
X191874099Y-117237412D01*
X191777925Y-117112075D01*
X191652588Y-117015901D01*
X191559219Y-116977226D01*
X192148797Y-116387647D01*
X192148797Y-116387645D01*
X192118360Y-116363955D01*
X192118354Y-116363951D01*
X191914302Y-116253523D01*
X191914293Y-116253520D01*
X191694860Y-116178188D01*
X191466007Y-116140000D01*
X191233993Y-116140000D01*
X191005139Y-116178188D01*
X190785706Y-116253520D01*
X190785697Y-116253523D01*
X190581650Y-116363949D01*
X190551200Y-116387647D01*
X191140780Y-116977226D01*
X191047412Y-117015901D01*
X190922075Y-117112075D01*
X190825901Y-117237411D01*
X190787226Y-117330780D01*
X190198811Y-116742365D01*
X190114516Y-116871390D01*
X190021317Y-117083864D01*
X189964361Y-117308781D01*
X189945202Y-117539994D01*
X189945202Y-117540005D01*
X177773622Y-117540005D01*
X175233623Y-115000006D01*
X183594700Y-115000006D01*
X183613864Y-115231297D01*
X183613866Y-115231308D01*
X183670842Y-115456300D01*
X183764075Y-115668848D01*
X183891016Y-115863147D01*
X183891019Y-115863151D01*
X183891021Y-115863153D01*
X184048216Y-116033913D01*
X184048219Y-116033915D01*
X184048222Y-116033918D01*
X184231365Y-116176464D01*
X184231371Y-116176468D01*
X184231374Y-116176470D01*
X184287674Y-116206938D01*
X184429988Y-116283955D01*
X184435497Y-116286936D01*
X184533266Y-116320500D01*
X184655015Y-116362297D01*
X184655017Y-116362297D01*
X184655019Y-116362298D01*
X184883951Y-116400500D01*
X184883952Y-116400500D01*
X185116048Y-116400500D01*
X185116049Y-116400500D01*
X185344981Y-116362298D01*
X185564503Y-116286936D01*
X185768626Y-116176470D01*
X185772413Y-116173523D01*
X185925165Y-116054631D01*
X185951784Y-116033913D01*
X186108979Y-115863153D01*
X186166191Y-115775582D01*
X186219337Y-115730226D01*
X186288568Y-115720802D01*
X186351904Y-115750304D01*
X186373807Y-115775581D01*
X186385379Y-115793292D01*
X186431016Y-115863147D01*
X186431019Y-115863151D01*
X186431021Y-115863153D01*
X186588216Y-116033913D01*
X186588219Y-116033915D01*
X186588222Y-116033918D01*
X186771365Y-116176464D01*
X186771371Y-116176468D01*
X186771374Y-116176470D01*
X186827674Y-116206938D01*
X186969988Y-116283955D01*
X186975497Y-116286936D01*
X187073266Y-116320500D01*
X187195015Y-116362297D01*
X187195017Y-116362297D01*
X187195019Y-116362298D01*
X187423951Y-116400500D01*
X187423952Y-116400500D01*
X187656048Y-116400500D01*
X187656049Y-116400500D01*
X187884981Y-116362298D01*
X188104503Y-116286936D01*
X188308626Y-116176470D01*
X188312413Y-116173523D01*
X188465165Y-116054631D01*
X188491784Y-116033913D01*
X188648979Y-115863153D01*
X188775924Y-115668849D01*
X188869157Y-115456300D01*
X188926134Y-115231305D01*
X188932763Y-115151305D01*
X188945300Y-115000006D01*
X188945300Y-114999993D01*
X188926135Y-114768702D01*
X188926133Y-114768691D01*
X188869157Y-114543699D01*
X188775924Y-114331151D01*
X188648983Y-114136852D01*
X188648980Y-114136849D01*
X188648979Y-114136847D01*
X188491784Y-113966087D01*
X188491779Y-113966083D01*
X188491777Y-113966081D01*
X188308634Y-113823535D01*
X188308628Y-113823531D01*
X188104504Y-113713064D01*
X188104495Y-113713061D01*
X187884984Y-113637702D01*
X187713282Y-113609050D01*
X187656049Y-113599500D01*
X187423951Y-113599500D01*
X187378164Y-113607140D01*
X187195015Y-113637702D01*
X186975504Y-113713061D01*
X186975495Y-113713064D01*
X186771371Y-113823531D01*
X186771365Y-113823535D01*
X186588222Y-113966081D01*
X186588219Y-113966084D01*
X186431016Y-114136852D01*
X186373809Y-114224416D01*
X186320662Y-114269773D01*
X186251431Y-114279197D01*
X186188095Y-114249695D01*
X186166191Y-114224416D01*
X186108983Y-114136852D01*
X186108980Y-114136849D01*
X186108979Y-114136847D01*
X185951784Y-113966087D01*
X185951779Y-113966083D01*
X185951777Y-113966081D01*
X185768634Y-113823535D01*
X185768628Y-113823531D01*
X185564504Y-113713064D01*
X185564495Y-113713061D01*
X185344984Y-113637702D01*
X185173282Y-113609050D01*
X185116049Y-113599500D01*
X184883951Y-113599500D01*
X184838164Y-113607140D01*
X184655015Y-113637702D01*
X184435504Y-113713061D01*
X184435495Y-113713064D01*
X184231371Y-113823531D01*
X184231365Y-113823535D01*
X184048222Y-113966081D01*
X184048219Y-113966084D01*
X183891016Y-114136852D01*
X183764075Y-114331151D01*
X183670842Y-114543699D01*
X183613866Y-114768691D01*
X183613864Y-114768702D01*
X183594700Y-114999993D01*
X183594700Y-115000006D01*
X175233623Y-115000006D01*
X172693623Y-112460006D01*
X189944700Y-112460006D01*
X189963864Y-112691297D01*
X189963866Y-112691308D01*
X190020842Y-112916300D01*
X190114075Y-113128848D01*
X190241016Y-113323147D01*
X190241019Y-113323151D01*
X190241021Y-113323153D01*
X190398216Y-113493913D01*
X190398219Y-113493915D01*
X190398222Y-113493918D01*
X190581365Y-113636464D01*
X190581371Y-113636468D01*
X190581374Y-113636470D01*
X190637674Y-113666938D01*
X190779212Y-113743535D01*
X190785497Y-113746936D01*
X190883266Y-113780500D01*
X191005015Y-113822297D01*
X191005017Y-113822297D01*
X191005019Y-113822298D01*
X191233951Y-113860500D01*
X191233952Y-113860500D01*
X191466048Y-113860500D01*
X191466049Y-113860500D01*
X191694981Y-113822298D01*
X191914503Y-113746936D01*
X192118626Y-113636470D01*
X192301784Y-113493913D01*
X192458979Y-113323153D01*
X192585924Y-113128849D01*
X192679157Y-112916300D01*
X192736134Y-112691305D01*
X192742763Y-112611305D01*
X192755300Y-112460006D01*
X192755300Y-112459993D01*
X192736135Y-112228702D01*
X192736133Y-112228691D01*
X192679157Y-112003699D01*
X192585924Y-111791151D01*
X192458983Y-111596852D01*
X192458980Y-111596849D01*
X192458979Y-111596847D01*
X192301784Y-111426087D01*
X192301779Y-111426083D01*
X192301777Y-111426081D01*
X192118634Y-111283535D01*
X192118628Y-111283531D01*
X191914504Y-111173064D01*
X191914495Y-111173061D01*
X191694984Y-111097702D01*
X191523282Y-111069050D01*
X191466049Y-111059500D01*
X191233951Y-111059500D01*
X191188164Y-111067140D01*
X191005015Y-111097702D01*
X190785504Y-111173061D01*
X190785495Y-111173064D01*
X190581371Y-111283531D01*
X190581365Y-111283535D01*
X190398222Y-111426081D01*
X190398219Y-111426084D01*
X190241016Y-111596852D01*
X190114075Y-111791151D01*
X190020842Y-112003699D01*
X189963866Y-112228691D01*
X189963864Y-112228702D01*
X189944700Y-112459993D01*
X189944700Y-112460006D01*
X172693623Y-112460006D01*
X168240319Y-108006702D01*
X168206834Y-107945379D01*
X168204000Y-107919021D01*
X168204000Y-71673094D01*
X168205061Y-71656908D01*
X168208867Y-71628000D01*
X168208867Y-71627999D01*
X168205367Y-71601416D01*
X168189483Y-71480766D01*
X168132653Y-71343567D01*
X168132652Y-71343566D01*
X168132652Y-71343565D01*
X168062478Y-71252112D01*
X168062477Y-71252111D01*
X168042250Y-71225750D01*
X168019113Y-71207996D01*
X168006919Y-71197302D01*
X165022696Y-68213079D01*
X165012001Y-68200884D01*
X164994248Y-68177748D01*
X164897202Y-68103284D01*
X164897200Y-68103282D01*
X164876434Y-68087347D01*
X164876430Y-68087345D01*
X164787739Y-68050608D01*
X164739234Y-68030517D01*
X164632766Y-68016500D01*
X164592001Y-68011133D01*
X164591999Y-68011133D01*
X164577699Y-68013015D01*
X164563089Y-68014939D01*
X164546906Y-68016000D01*
X150652978Y-68016000D01*
X150585939Y-67996315D01*
X150565297Y-67979681D01*
X149073704Y-66488087D01*
X149040219Y-66426764D01*
X149045203Y-66357072D01*
X149087075Y-66301139D01*
X149120430Y-66283364D01*
X149156787Y-66270642D01*
X149193520Y-66257790D01*
X149206677Y-66249523D01*
X149346262Y-66161816D01*
X149473816Y-66034262D01*
X149569789Y-65881522D01*
X149629368Y-65711255D01*
X149629369Y-65711249D01*
X149649565Y-65532003D01*
X149649565Y-65531996D01*
X149629369Y-65352750D01*
X149629368Y-65352745D01*
X149598871Y-65265590D01*
X149569789Y-65182478D01*
X149556792Y-65161794D01*
X149528923Y-65117440D01*
X149473816Y-65029738D01*
X149444319Y-65000241D01*
X149410834Y-64938918D01*
X149408000Y-64912560D01*
X149408000Y-59481094D01*
X149409061Y-59464908D01*
X149412867Y-59436000D01*
X149412867Y-59435999D01*
X149407648Y-59396360D01*
X149393483Y-59288766D01*
X149336653Y-59151567D01*
X149336652Y-59151566D01*
X149336652Y-59151565D01*
X149266478Y-59060112D01*
X149266477Y-59060111D01*
X149246250Y-59033750D01*
X149223113Y-59015996D01*
X149210919Y-59005302D01*
X148258696Y-58053079D01*
X148248001Y-58040884D01*
X148230250Y-58017750D01*
X148230248Y-58017749D01*
X148230248Y-58017748D01*
X148133202Y-57943284D01*
X148133200Y-57943282D01*
X148112434Y-57927347D01*
X148112430Y-57927345D01*
X148023739Y-57890608D01*
X147975234Y-57870517D01*
X147880073Y-57857988D01*
X147816178Y-57829722D01*
X147800406Y-57813714D01*
X147685410Y-57673589D01*
X147548560Y-57561281D01*
X147525450Y-57542315D01*
X147342954Y-57444768D01*
X147144934Y-57384700D01*
X147144932Y-57384699D01*
X147144934Y-57384699D01*
X146939000Y-57364417D01*
X146733067Y-57384699D01*
X146559285Y-57437415D01*
X146489418Y-57438038D01*
X146463863Y-57427586D01*
X146461331Y-57426203D01*
X146326482Y-57375908D01*
X146326483Y-57375908D01*
X146266883Y-57369501D01*
X146266881Y-57369500D01*
X146266873Y-57369500D01*
X146266864Y-57369500D01*
X145071129Y-57369500D01*
X145071123Y-57369501D01*
X145011516Y-57375908D01*
X144876671Y-57426202D01*
X144876664Y-57426206D01*
X144761455Y-57512452D01*
X144761452Y-57512455D01*
X144675206Y-57627664D01*
X144675202Y-57627671D01*
X144624908Y-57762517D01*
X144618501Y-57822116D01*
X144618500Y-57822135D01*
X144618500Y-59017870D01*
X144618501Y-59017876D01*
X144624908Y-59077483D01*
X144675203Y-59212330D01*
X144676921Y-59215476D01*
X144677683Y-59218978D01*
X144678303Y-59220641D01*
X144678064Y-59220730D01*
X144691774Y-59283749D01*
X144686751Y-59310900D01*
X144634191Y-59484165D01*
X144613919Y-59690000D01*
X144634191Y-59895834D01*
X144694233Y-60093766D01*
X144769975Y-60235469D01*
X145318012Y-59687432D01*
X145315372Y-59719302D01*
X145344047Y-59832538D01*
X145407936Y-59930327D01*
X145500115Y-60002072D01*
X145610595Y-60040000D01*
X145698005Y-60040000D01*
X145784216Y-60025614D01*
X145886947Y-59970019D01*
X145916450Y-59937969D01*
X145926473Y-59971009D01*
X145927096Y-60040875D01*
X145889847Y-60099988D01*
X145826553Y-60129579D01*
X145757308Y-60120252D01*
X145720131Y-60094684D01*
X145669000Y-60043553D01*
X145387553Y-60325000D01*
X145668999Y-60606446D01*
X145720130Y-60555315D01*
X145781453Y-60521830D01*
X145851145Y-60526814D01*
X145907079Y-60568685D01*
X145931496Y-60634149D01*
X145926473Y-60678990D01*
X145917174Y-60709641D01*
X145837885Y-60647928D01*
X145727405Y-60610000D01*
X145639995Y-60610000D01*
X145553784Y-60624386D01*
X145451053Y-60679981D01*
X145371940Y-60765921D01*
X145325018Y-60872892D01*
X145317619Y-60962172D01*
X144769975Y-60414528D01*
X144694234Y-60556234D01*
X144634191Y-60754166D01*
X144613919Y-60960000D01*
X144634191Y-61165834D01*
X144694232Y-61363762D01*
X144786304Y-61536018D01*
X144800545Y-61604421D01*
X144786303Y-61652924D01*
X144693769Y-61826041D01*
X144633699Y-62024067D01*
X144613417Y-62230000D01*
X144633699Y-62435932D01*
X144693769Y-62633958D01*
X144786020Y-62806547D01*
X144800262Y-62874950D01*
X144786020Y-62923453D01*
X144693769Y-63096041D01*
X144633699Y-63294067D01*
X144613417Y-63500000D01*
X144633699Y-63705932D01*
X144637296Y-63717789D01*
X144693768Y-63903954D01*
X144791315Y-64086450D01*
X144825969Y-64128677D01*
X144922589Y-64246410D01*
X144969551Y-64284950D01*
X145082550Y-64377685D01*
X145265046Y-64475232D01*
X145463066Y-64535300D01*
X145463065Y-64535300D01*
X145481529Y-64537118D01*
X145669000Y-64555583D01*
X145874934Y-64535300D01*
X146072954Y-64475232D01*
X146192549Y-64411306D01*
X146260948Y-64397065D01*
X146326192Y-64422064D01*
X146367563Y-64478369D01*
X146375000Y-64520665D01*
X146375000Y-67511232D01*
X146355315Y-67578271D01*
X146338681Y-67598913D01*
X146275020Y-67662573D01*
X146179045Y-67815316D01*
X146153470Y-67888405D01*
X146112748Y-67945181D01*
X146047796Y-67970928D01*
X145979234Y-67957472D01*
X145948748Y-67935131D01*
X144501704Y-66488087D01*
X144468219Y-66426764D01*
X144473203Y-66357072D01*
X144515075Y-66301139D01*
X144548430Y-66283364D01*
X144584787Y-66270642D01*
X144621520Y-66257790D01*
X144634677Y-66249523D01*
X144774262Y-66161816D01*
X144901816Y-66034262D01*
X144997789Y-65881522D01*
X145057368Y-65711255D01*
X145057369Y-65711249D01*
X145077565Y-65532003D01*
X145077565Y-65531996D01*
X145057369Y-65352750D01*
X145057368Y-65352745D01*
X145026871Y-65265590D01*
X144997789Y-65182478D01*
X144984792Y-65161794D01*
X144956923Y-65117440D01*
X144901816Y-65029738D01*
X144774262Y-64902184D01*
X144763002Y-64895109D01*
X144621523Y-64806211D01*
X144451254Y-64746631D01*
X144451250Y-64746630D01*
X144306157Y-64730282D01*
X144241743Y-64703215D01*
X144232360Y-64694743D01*
X140638696Y-61101079D01*
X140628001Y-61088884D01*
X140610248Y-61065748D01*
X140568181Y-61033470D01*
X140568180Y-61033469D01*
X140492432Y-60975346D01*
X140384641Y-60930698D01*
X140355234Y-60918517D01*
X140281617Y-60908825D01*
X140208001Y-60899133D01*
X140207999Y-60899133D01*
X140193699Y-60901015D01*
X140179089Y-60902939D01*
X140162906Y-60904000D01*
X135239440Y-60904000D01*
X135172401Y-60884315D01*
X135151759Y-60867681D01*
X135122262Y-60838184D01*
X134969523Y-60742211D01*
X134799254Y-60682631D01*
X134799249Y-60682630D01*
X134620004Y-60662435D01*
X134619996Y-60662435D01*
X134440750Y-60682630D01*
X134440745Y-60682631D01*
X134270476Y-60742211D01*
X134117737Y-60838184D01*
X133990184Y-60965737D01*
X133894211Y-61118476D01*
X133834631Y-61288745D01*
X133834630Y-61288750D01*
X133814435Y-61467996D01*
X133814435Y-61468003D01*
X133834630Y-61647249D01*
X133834633Y-61647262D01*
X133872349Y-61755045D01*
X133875911Y-61824824D01*
X133841183Y-61885451D01*
X133779190Y-61917679D01*
X133755308Y-61920000D01*
X133207440Y-61920000D01*
X133140401Y-61900315D01*
X133119759Y-61883681D01*
X133090262Y-61854184D01*
X132937523Y-61758211D01*
X132767254Y-61698631D01*
X132767249Y-61698630D01*
X132588004Y-61678435D01*
X132587996Y-61678435D01*
X132408750Y-61698630D01*
X132408745Y-61698631D01*
X132238476Y-61758211D01*
X132085737Y-61854184D01*
X131958184Y-61981737D01*
X131862211Y-62134476D01*
X131802631Y-62304745D01*
X131802630Y-62304750D01*
X131782435Y-62483996D01*
X131782435Y-62484003D01*
X127624075Y-62484003D01*
X127629816Y-62478262D01*
X127725789Y-62325522D01*
X127785368Y-62155255D01*
X127787709Y-62134478D01*
X127805565Y-61976003D01*
X127805565Y-61975996D01*
X127785369Y-61796750D01*
X127785368Y-61796745D01*
X127771884Y-61758211D01*
X127725789Y-61626478D01*
X127629816Y-61473738D01*
X127502262Y-61346184D01*
X127452000Y-61314602D01*
X127349523Y-61250211D01*
X127179254Y-61190631D01*
X127179249Y-61190630D01*
X127000004Y-61170435D01*
X126999996Y-61170435D01*
X126820750Y-61190630D01*
X126820742Y-61190632D01*
X126712954Y-61228349D01*
X126643175Y-61231910D01*
X126582548Y-61197181D01*
X126550321Y-61135188D01*
X126548000Y-61111307D01*
X126548000Y-59481093D01*
X126549061Y-59464906D01*
X126550846Y-59451346D01*
X126552867Y-59436000D01*
X126548000Y-59399032D01*
X126533483Y-59288766D01*
X126476653Y-59151567D01*
X126476652Y-59151566D01*
X126476652Y-59151565D01*
X126386250Y-59033749D01*
X126363105Y-59015989D01*
X126350911Y-59005295D01*
X125705704Y-58360087D01*
X125672219Y-58298764D01*
X125677203Y-58229072D01*
X125719075Y-58173139D01*
X125752430Y-58155364D01*
X125788787Y-58142642D01*
X125825520Y-58129790D01*
X125825522Y-58129789D01*
X125978262Y-58033816D01*
X126105816Y-57906262D01*
X126201789Y-57753522D01*
X126261368Y-57583255D01*
X126263710Y-57562476D01*
X126276971Y-57444769D01*
X126277716Y-57438156D01*
X126304782Y-57373744D01*
X126313245Y-57364371D01*
X126689298Y-56988319D01*
X126750621Y-56954834D01*
X126776979Y-56952000D01*
X133059032Y-56952000D01*
X137311308Y-56952000D01*
X137378347Y-56971685D01*
X137424102Y-57024489D01*
X137434046Y-57093647D01*
X137428349Y-57116955D01*
X137390633Y-57224737D01*
X137390630Y-57224750D01*
X137370435Y-57403996D01*
X137370435Y-57404003D01*
X137390630Y-57583249D01*
X137390631Y-57583254D01*
X137450211Y-57753523D01*
X137500496Y-57833550D01*
X137546184Y-57906262D01*
X137673738Y-58033816D01*
X137826478Y-58129789D01*
X137950365Y-58173139D01*
X137996745Y-58189368D01*
X137996750Y-58189369D01*
X138104829Y-58201546D01*
X138141840Y-58205716D01*
X138206254Y-58232782D01*
X138215638Y-58241255D01*
X139370743Y-59396360D01*
X139404228Y-59457683D01*
X139406282Y-59470157D01*
X139422630Y-59615250D01*
X139422631Y-59615254D01*
X139482211Y-59785523D01*
X139573198Y-59930327D01*
X139578184Y-59938262D01*
X139705738Y-60065816D01*
X139761517Y-60100864D01*
X139848053Y-60155239D01*
X139858478Y-60161789D01*
X139935963Y-60188902D01*
X140028745Y-60221368D01*
X140028750Y-60221369D01*
X140207996Y-60241565D01*
X140208000Y-60241565D01*
X140208004Y-60241565D01*
X140387249Y-60221369D01*
X140387252Y-60221368D01*
X140387255Y-60221368D01*
X140557522Y-60161789D01*
X140710262Y-60065816D01*
X140837816Y-59938262D01*
X140933789Y-59785522D01*
X140993368Y-59615255D01*
X140994761Y-59602892D01*
X141013565Y-59436003D01*
X141013565Y-59435996D01*
X140993369Y-59256750D01*
X140993368Y-59256745D01*
X140977827Y-59212331D01*
X140933789Y-59086478D01*
X140919245Y-59063332D01*
X140886395Y-59011051D01*
X140837816Y-58933738D01*
X140710262Y-58806184D01*
X140671969Y-58782123D01*
X140557523Y-58710211D01*
X140387254Y-58650631D01*
X140387250Y-58650630D01*
X140242157Y-58634282D01*
X140177743Y-58607215D01*
X140168360Y-58598743D01*
X139013255Y-57443638D01*
X138979770Y-57382315D01*
X138977716Y-57369840D01*
X138961369Y-57224750D01*
X138961366Y-57224737D01*
X138923651Y-57116955D01*
X138920089Y-57047176D01*
X138954817Y-56986549D01*
X139016810Y-56954321D01*
X139040692Y-56952000D01*
X143718906Y-56952000D01*
X143735089Y-56953060D01*
X143748558Y-56954834D01*
X143763999Y-56956867D01*
X143764000Y-56956867D01*
X143764001Y-56956867D01*
X143779442Y-56954834D01*
X143911234Y-56937483D01*
X144048433Y-56880653D01*
X144136668Y-56812949D01*
X144136668Y-56812948D01*
X144159606Y-56795348D01*
X144159606Y-56795347D01*
X144166250Y-56790250D01*
X144184009Y-56767104D01*
X144194690Y-56754925D01*
X159709297Y-41240319D01*
X159770620Y-41206834D01*
X159796978Y-41204000D01*
X173624560Y-41204000D01*
X173691599Y-41223685D01*
X173712241Y-41240319D01*
X173741738Y-41269816D01*
X173894478Y-41365789D01*
X174012461Y-41407073D01*
X174064745Y-41425368D01*
X174064750Y-41425369D01*
X174243996Y-41445565D01*
X174244000Y-41445565D01*
X174244004Y-41445565D01*
X174423249Y-41425369D01*
X174423252Y-41425368D01*
X174423255Y-41425368D01*
X174593522Y-41365789D01*
X174746262Y-41269816D01*
X174873816Y-41142262D01*
X174969789Y-40989522D01*
X175029368Y-40819255D01*
X175031480Y-40800513D01*
X175049565Y-40640003D01*
X175049565Y-40639996D01*
X175029369Y-40460750D01*
X175029368Y-40460745D01*
X174969788Y-40290476D01*
X174881581Y-40150096D01*
X174873816Y-40137738D01*
X174746262Y-40010184D01*
X174593523Y-39914211D01*
X174423254Y-39854631D01*
X174423249Y-39854630D01*
X174244004Y-39834435D01*
X174243996Y-39834435D01*
X174064750Y-39854630D01*
X174064745Y-39854631D01*
X173894476Y-39914211D01*
X173741737Y-40010184D01*
X173712241Y-40039681D01*
X173650918Y-40073166D01*
X173624560Y-40076000D01*
X159557094Y-40076000D01*
X159540910Y-40074939D01*
X159526300Y-40073015D01*
X159512001Y-40071133D01*
X159511999Y-40071133D01*
X159496558Y-40073166D01*
X159475032Y-40076000D01*
X159364766Y-40090517D01*
X159364762Y-40090518D01*
X159238958Y-40142627D01*
X159169488Y-40150096D01*
X159107009Y-40118820D01*
X159103825Y-40115747D01*
X158998262Y-40010184D01*
X158845523Y-39914211D01*
X158675254Y-39854631D01*
X158675249Y-39854630D01*
X158496004Y-39834435D01*
X158495996Y-39834435D01*
X158316750Y-39854630D01*
X158316745Y-39854631D01*
X158146476Y-39914211D01*
X157993737Y-40010184D01*
X157866184Y-40137737D01*
X157770211Y-40290476D01*
X157710631Y-40460745D01*
X157710630Y-40460749D01*
X157694283Y-40605840D01*
X157667216Y-40670254D01*
X157658744Y-40679637D01*
X143058702Y-55279681D01*
X142997379Y-55313166D01*
X142971021Y-55316000D01*
X134006069Y-55316000D01*
X133939030Y-55296315D01*
X133893275Y-55243511D01*
X133882849Y-55205884D01*
X133881369Y-55192749D01*
X133881368Y-55192745D01*
X133821788Y-55022476D01*
X133725815Y-54869737D01*
X133686259Y-54830181D01*
X133652774Y-54768858D01*
X133651003Y-54758698D01*
X133645483Y-54716766D01*
X133588653Y-54579567D01*
X133588652Y-54579566D01*
X133588652Y-54579565D01*
X133518478Y-54488112D01*
X133518477Y-54488111D01*
X133498250Y-54461750D01*
X133475113Y-54443996D01*
X133462919Y-54433302D01*
X131339309Y-52309692D01*
X131305824Y-52248369D01*
X131310808Y-52178677D01*
X131352680Y-52122744D01*
X131418144Y-52098327D01*
X131440874Y-52098791D01*
X131571997Y-52113565D01*
X131572000Y-52113565D01*
X131572004Y-52113565D01*
X131751249Y-52093369D01*
X131751252Y-52093368D01*
X131751255Y-52093368D01*
X131921522Y-52033789D01*
X132074262Y-51937816D01*
X132103759Y-51908319D01*
X132165082Y-51874834D01*
X132191440Y-51872000D01*
X134574906Y-51872000D01*
X134591089Y-51873060D01*
X134604558Y-51874834D01*
X134619999Y-51876867D01*
X134620000Y-51876867D01*
X134620001Y-51876867D01*
X134635442Y-51874834D01*
X134767234Y-51857483D01*
X134904433Y-51800653D01*
X134992668Y-51732949D01*
X134992668Y-51732948D01*
X135015606Y-51715348D01*
X135015606Y-51715347D01*
X135022250Y-51710250D01*
X135040004Y-51687110D01*
X135050691Y-51674924D01*
X135088362Y-51637253D01*
X135149683Y-51603770D01*
X135162151Y-51601717D01*
X135227071Y-51594402D01*
X135307250Y-51585369D01*
X135307253Y-51585368D01*
X135307255Y-51585368D01*
X135477522Y-51525789D01*
X135630262Y-51429816D01*
X135757816Y-51302262D01*
X135853789Y-51149522D01*
X135913368Y-50979255D01*
X135915045Y-50964374D01*
X135933565Y-50800003D01*
X135933565Y-50799996D01*
X135913369Y-50620750D01*
X135913368Y-50620745D01*
X135899711Y-50581715D01*
X135853789Y-50450478D01*
X135757816Y-50297738D01*
X135630262Y-50170184D01*
X135477523Y-50074211D01*
X135307254Y-50014631D01*
X135307249Y-50014630D01*
X135128004Y-49994435D01*
X135127996Y-49994435D01*
X134948750Y-50014630D01*
X134948745Y-50014631D01*
X134778476Y-50074211D01*
X134625737Y-50170184D01*
X134498184Y-50297737D01*
X134402211Y-50450476D01*
X134342631Y-50620745D01*
X134342630Y-50620749D01*
X134341151Y-50633884D01*
X134314084Y-50698298D01*
X134256490Y-50737853D01*
X134217931Y-50744000D01*
X132944692Y-50744000D01*
X132877653Y-50724315D01*
X132831898Y-50671511D01*
X132821954Y-50602353D01*
X132827651Y-50579045D01*
X132865366Y-50471262D01*
X132865369Y-50471249D01*
X132885565Y-50292003D01*
X132885565Y-50291996D01*
X132865369Y-50112750D01*
X132865368Y-50112745D01*
X132825917Y-50000000D01*
X132805789Y-49942478D01*
X132709816Y-49789738D01*
X132680319Y-49760241D01*
X132646834Y-49698918D01*
X132644000Y-49672560D01*
X132644000Y-46273093D01*
X132645061Y-46256906D01*
X132648867Y-46228000D01*
X132644000Y-46191032D01*
X132629483Y-46080766D01*
X132572653Y-45943567D01*
X132572652Y-45943566D01*
X132572652Y-45943565D01*
X132482250Y-45825749D01*
X132459105Y-45807989D01*
X132446911Y-45797295D01*
X131393255Y-44743638D01*
X131359770Y-44682315D01*
X131357716Y-44669840D01*
X131341369Y-44524750D01*
X131341368Y-44524745D01*
X131307036Y-44426630D01*
X131281789Y-44354478D01*
X131265622Y-44328749D01*
X131185815Y-44201737D01*
X131058262Y-44074184D01*
X130905525Y-43978212D01*
X130903656Y-43977558D01*
X130869911Y-43965750D01*
X130813138Y-43925030D01*
X130787390Y-43860078D01*
X130793826Y-43807758D01*
X130833368Y-43694755D01*
X130849099Y-43555137D01*
X130853565Y-43515503D01*
X130853565Y-43515496D01*
X130833369Y-43336250D01*
X130833368Y-43336245D01*
X130773788Y-43165976D01*
X130677815Y-43013237D01*
X130550262Y-42885684D01*
X130397523Y-42789711D01*
X130227254Y-42730131D01*
X130227249Y-42730130D01*
X130048004Y-42709935D01*
X130047996Y-42709935D01*
X129868750Y-42730130D01*
X129868745Y-42730131D01*
X129698476Y-42789711D01*
X129545737Y-42885684D01*
X129418184Y-43013237D01*
X129322211Y-43165976D01*
X129262631Y-43336245D01*
X129262630Y-43336249D01*
X129246283Y-43481340D01*
X129219216Y-43545754D01*
X129210744Y-43555137D01*
X128665080Y-44100801D01*
X128652888Y-44111494D01*
X128629748Y-44129250D01*
X128594598Y-44175058D01*
X128594588Y-44175073D01*
X128539347Y-44247066D01*
X128482517Y-44384265D01*
X128482517Y-44384266D01*
X128463133Y-44531500D01*
X128466939Y-44560408D01*
X128468000Y-44576594D01*
X128468000Y-45608560D01*
X128448315Y-45675599D01*
X128431681Y-45696241D01*
X128402184Y-45725737D01*
X128306211Y-45878476D01*
X128246631Y-46048745D01*
X128246630Y-46048750D01*
X128226435Y-46227996D01*
X128226435Y-46228003D01*
X128246630Y-46407249D01*
X128246631Y-46407254D01*
X128306211Y-46577523D01*
X128402184Y-46730262D01*
X128529738Y-46857816D01*
X128620080Y-46914582D01*
X128680814Y-46952744D01*
X128682478Y-46953789D01*
X128852745Y-47013368D01*
X128852750Y-47013369D01*
X128964915Y-47026006D01*
X128997840Y-47029716D01*
X129062254Y-47056782D01*
X129071638Y-47065255D01*
X129818295Y-47811912D01*
X129851780Y-47873235D01*
X129846796Y-47942927D01*
X129804924Y-47998860D01*
X129771569Y-48016634D01*
X129698480Y-48042209D01*
X129545737Y-48138184D01*
X129418184Y-48265737D01*
X129322211Y-48418476D01*
X129262631Y-48588745D01*
X129262630Y-48588749D01*
X129246283Y-48733840D01*
X129219216Y-48798254D01*
X129210744Y-48807637D01*
X128834702Y-49183681D01*
X128773379Y-49217166D01*
X128747021Y-49220000D01*
X122204979Y-49220000D01*
X122137940Y-49200315D01*
X122117298Y-49183681D01*
X120488319Y-47554702D01*
X120454834Y-47493379D01*
X120452000Y-47467021D01*
X120452000Y-46512978D01*
X120471685Y-46445939D01*
X120488315Y-46425301D01*
X120864362Y-46049253D01*
X120925683Y-46015770D01*
X120938151Y-46013717D01*
X121003071Y-46006402D01*
X121083250Y-45997369D01*
X121083253Y-45997368D01*
X121083255Y-45997368D01*
X121253522Y-45937789D01*
X121406262Y-45841816D01*
X121533816Y-45714262D01*
X121629789Y-45561522D01*
X121689368Y-45391255D01*
X121695840Y-45333815D01*
X121709565Y-45212003D01*
X121709565Y-45211996D01*
X121689369Y-45032750D01*
X121689368Y-45032745D01*
X121629788Y-44862476D01*
X121538742Y-44717578D01*
X121533816Y-44709738D01*
X121406262Y-44582184D01*
X121325599Y-44531500D01*
X121253523Y-44486211D01*
X121083254Y-44426631D01*
X121083249Y-44426630D01*
X120904004Y-44406435D01*
X120903996Y-44406435D01*
X120724750Y-44426630D01*
X120724745Y-44426631D01*
X120554476Y-44486211D01*
X120401737Y-44582184D01*
X120274184Y-44709737D01*
X120174506Y-44868374D01*
X120172631Y-44867196D01*
X120132888Y-44911208D01*
X120065460Y-44929515D01*
X119998838Y-44908461D01*
X119954174Y-44854731D01*
X119944000Y-44805541D01*
X119944000Y-44768940D01*
X119963685Y-44701901D01*
X119980319Y-44681259D01*
X119991738Y-44669840D01*
X120009816Y-44651762D01*
X120105789Y-44499022D01*
X120165368Y-44328755D01*
X120174572Y-44247066D01*
X120185565Y-44149503D01*
X120185565Y-44149496D01*
X120165369Y-43970250D01*
X120165368Y-43970245D01*
X120105788Y-43799976D01*
X120009815Y-43647237D01*
X119882262Y-43519684D01*
X119729523Y-43423711D01*
X119559254Y-43364131D01*
X119559249Y-43364130D01*
X119380004Y-43343935D01*
X119379996Y-43343935D01*
X119200750Y-43364130D01*
X119200745Y-43364131D01*
X119030476Y-43423711D01*
X118877737Y-43519684D01*
X118750184Y-43647237D01*
X118654211Y-43799976D01*
X118594631Y-43970245D01*
X118594630Y-43970250D01*
X118574435Y-44149496D01*
X118574435Y-44149503D01*
X118594630Y-44328749D01*
X118594631Y-44328754D01*
X118654211Y-44499023D01*
X118750184Y-44651762D01*
X118779681Y-44681259D01*
X118813166Y-44742582D01*
X118816000Y-44768940D01*
X118816000Y-46841930D01*
X118796315Y-46908969D01*
X118743511Y-46954724D01*
X118705889Y-46965150D01*
X118692749Y-46966631D01*
X118692746Y-46966631D01*
X118692745Y-46966632D01*
X118644129Y-46983643D01*
X118522478Y-47026210D01*
X118369737Y-47122184D01*
X118242184Y-47249737D01*
X118146211Y-47402476D01*
X118086631Y-47572745D01*
X118086630Y-47572750D01*
X118066435Y-47751996D01*
X118066435Y-47752003D01*
X118086630Y-47931249D01*
X118086631Y-47931254D01*
X118146211Y-48101523D01*
X118204336Y-48194028D01*
X118223336Y-48261265D01*
X118204336Y-48325972D01*
X118146211Y-48418476D01*
X118086631Y-48588745D01*
X118086630Y-48588750D01*
X118066435Y-48767996D01*
X118066435Y-48768003D01*
X118086630Y-48947249D01*
X118086631Y-48947254D01*
X118146211Y-49117523D01*
X118210602Y-49220000D01*
X118242184Y-49270262D01*
X118369738Y-49397816D01*
X118522478Y-49493789D01*
X118560359Y-49507044D01*
X118692745Y-49553368D01*
X118692750Y-49553369D01*
X118804915Y-49566006D01*
X118837840Y-49569716D01*
X118902254Y-49596782D01*
X118911638Y-49605255D01*
X120303681Y-50997298D01*
X120337166Y-51058621D01*
X120340000Y-51084979D01*
X120340000Y-55834904D01*
X120338939Y-55851089D01*
X120335133Y-55879998D01*
X120335133Y-55880000D01*
X120354517Y-56027233D01*
X120354517Y-56027234D01*
X120411347Y-56164434D01*
X120469918Y-56240766D01*
X120501748Y-56282249D01*
X120512908Y-56290812D01*
X120524887Y-56300003D01*
X120537079Y-56310696D01*
X123444517Y-59218134D01*
X123478002Y-59279457D01*
X123480836Y-59305815D01*
X123480836Y-62465396D01*
X123461151Y-62532435D01*
X123444517Y-62553077D01*
X123415020Y-62582573D01*
X123319047Y-62735312D01*
X123259467Y-62905581D01*
X123259466Y-62905586D01*
X123239271Y-63084832D01*
X123239271Y-63084839D01*
X123259466Y-63264085D01*
X123259467Y-63264090D01*
X123319047Y-63434359D01*
X123415020Y-63587098D01*
X123542574Y-63714652D01*
X123547565Y-63717788D01*
X123668403Y-63793716D01*
X123695314Y-63810625D01*
X123806478Y-63849523D01*
X123865581Y-63870204D01*
X123865586Y-63870205D01*
X124044832Y-63890401D01*
X124044836Y-63890401D01*
X124044840Y-63890401D01*
X124224085Y-63870205D01*
X124224088Y-63870204D01*
X124224091Y-63870204D01*
X124394358Y-63810625D01*
X124543239Y-63717076D01*
X124610474Y-63698077D01*
X124669711Y-63715470D01*
X124670048Y-63714771D01*
X124674294Y-63716816D01*
X124675179Y-63717076D01*
X124676314Y-63717789D01*
X124846581Y-63777368D01*
X124846586Y-63777369D01*
X125025832Y-63797565D01*
X125025836Y-63797565D01*
X125025840Y-63797565D01*
X125205085Y-63777369D01*
X125205088Y-63777368D01*
X125205091Y-63777368D01*
X125375358Y-63717789D01*
X125528098Y-63621816D01*
X125655652Y-63494262D01*
X125751625Y-63341522D01*
X125811204Y-63171255D01*
X125813545Y-63150478D01*
X125831401Y-62992003D01*
X125831401Y-62991997D01*
X125822833Y-62915958D01*
X125834887Y-62847136D01*
X125882236Y-62795757D01*
X125949846Y-62778132D01*
X125959937Y-62778854D01*
X125983997Y-62781565D01*
X125984000Y-62781565D01*
X125984004Y-62781565D01*
X126163249Y-62761369D01*
X126163251Y-62761368D01*
X126163255Y-62761368D01*
X126163258Y-62761366D01*
X126163262Y-62761366D01*
X126271045Y-62723651D01*
X126340824Y-62720089D01*
X126401451Y-62754817D01*
X126433679Y-62816810D01*
X126436000Y-62840692D01*
X126436000Y-65637930D01*
X126416315Y-65704969D01*
X126363511Y-65750724D01*
X126325889Y-65761150D01*
X126312749Y-65762631D01*
X126312746Y-65762631D01*
X126312745Y-65762632D01*
X126264129Y-65779643D01*
X126142478Y-65822210D01*
X125989737Y-65918184D01*
X125862184Y-66045737D01*
X125766211Y-66198476D01*
X125706631Y-66368745D01*
X125706630Y-66368749D01*
X125690283Y-66513840D01*
X125663216Y-66578254D01*
X125654744Y-66587637D01*
X125617080Y-66625301D01*
X125604888Y-66635994D01*
X125581748Y-66653750D01*
X125546598Y-66699558D01*
X125546588Y-66699573D01*
X125535927Y-66713467D01*
X125479499Y-66754671D01*
X125451434Y-66761202D01*
X125296749Y-66778630D01*
X125296745Y-66778631D01*
X125126476Y-66838211D01*
X124973734Y-66934186D01*
X124973733Y-66934187D01*
X124934178Y-66973741D01*
X124872854Y-67007225D01*
X124862688Y-67008997D01*
X124820764Y-67014517D01*
X124683565Y-67071347D01*
X124565749Y-67161750D01*
X124547993Y-67184890D01*
X124537300Y-67197082D01*
X120198702Y-71535681D01*
X120137379Y-71569166D01*
X120111021Y-71572000D01*
X118409094Y-71572000D01*
X118392908Y-71570939D01*
X118364001Y-71567133D01*
X118363996Y-71567133D01*
X118331069Y-71571467D01*
X118331057Y-71571470D01*
X118216766Y-71586517D01*
X118216765Y-71586517D01*
X118079565Y-71643347D01*
X117961749Y-71733750D01*
X117943993Y-71756890D01*
X117933300Y-71769082D01*
X116599681Y-73102702D01*
X116538358Y-73136187D01*
X116468666Y-73131203D01*
X116412733Y-73089331D01*
X116388316Y-73023867D01*
X116388000Y-73015021D01*
X116388000Y-68382770D01*
X116389061Y-68366583D01*
X116392868Y-68337668D01*
X116373483Y-68190435D01*
X116316652Y-68053234D01*
X116246478Y-67961781D01*
X116246477Y-67961780D01*
X116243171Y-67957472D01*
X116226250Y-67935419D01*
X116225875Y-67935131D01*
X116203113Y-67917665D01*
X116190919Y-67906971D01*
X115154564Y-66870616D01*
X115121079Y-66809293D01*
X115119025Y-66796818D01*
X115102678Y-66651728D01*
X115102677Y-66651723D01*
X115095444Y-66631051D01*
X115043098Y-66481456D01*
X115040353Y-66477088D01*
X114960206Y-66349535D01*
X114947125Y-66328716D01*
X114819571Y-66201162D01*
X114812619Y-66196794D01*
X114666832Y-66105189D01*
X114496563Y-66045609D01*
X114496558Y-66045608D01*
X114317313Y-66025413D01*
X114317305Y-66025413D01*
X114138059Y-66045608D01*
X114138054Y-66045609D01*
X113967785Y-66105189D01*
X113815046Y-66201162D01*
X113687493Y-66328715D01*
X113591520Y-66481454D01*
X113531940Y-66651723D01*
X113531939Y-66651728D01*
X113511744Y-66830974D01*
X113511744Y-66830981D01*
X113531939Y-67010227D01*
X113531940Y-67010232D01*
X113591520Y-67180501D01*
X113658466Y-67287044D01*
X113687493Y-67333240D01*
X113815047Y-67460794D01*
X113967787Y-67556767D01*
X114138054Y-67616346D01*
X114138059Y-67616347D01*
X114250224Y-67628984D01*
X114283149Y-67632694D01*
X114347563Y-67659760D01*
X114356947Y-67668233D01*
X115223681Y-68534967D01*
X115257166Y-68596290D01*
X115260000Y-68622648D01*
X115260000Y-68731307D01*
X115240315Y-68798346D01*
X115187511Y-68844101D01*
X115118353Y-68854045D01*
X115095046Y-68848349D01*
X114987257Y-68810632D01*
X114987249Y-68810630D01*
X114808004Y-68790435D01*
X114807996Y-68790435D01*
X114628750Y-68810630D01*
X114628745Y-68810631D01*
X114458476Y-68870211D01*
X114305737Y-68966184D01*
X114276241Y-68995681D01*
X114214918Y-69029166D01*
X114188560Y-69032000D01*
X107299440Y-69032000D01*
X107232401Y-69012315D01*
X107211759Y-68995681D01*
X107182262Y-68966184D01*
X107029523Y-68870211D01*
X106859254Y-68810631D01*
X106859249Y-68810630D01*
X106680004Y-68790435D01*
X106679996Y-68790435D01*
X106500750Y-68810630D01*
X106500745Y-68810631D01*
X106330476Y-68870211D01*
X106177737Y-68966184D01*
X106050184Y-69093737D01*
X105954209Y-69246480D01*
X105928634Y-69319569D01*
X105887912Y-69376345D01*
X105822960Y-69402092D01*
X105754398Y-69388636D01*
X105723912Y-69366295D01*
X103453255Y-67095638D01*
X103419770Y-67034315D01*
X103417716Y-67021840D01*
X103401369Y-66876750D01*
X103401368Y-66876745D01*
X103383243Y-66824948D01*
X103341789Y-66706478D01*
X103341788Y-66706476D01*
X103275667Y-66601245D01*
X103256667Y-66534008D01*
X103277035Y-66467173D01*
X103330303Y-66421959D01*
X103380661Y-66411273D01*
X111248397Y-66411273D01*
X111315436Y-66430958D01*
X111336078Y-66447592D01*
X111365575Y-66477089D01*
X111518315Y-66573062D01*
X111684038Y-66631051D01*
X111688582Y-66632641D01*
X111688587Y-66632642D01*
X111867833Y-66652838D01*
X111867837Y-66652838D01*
X111867841Y-66652838D01*
X112047086Y-66632642D01*
X112047089Y-66632641D01*
X112047092Y-66632641D01*
X112217359Y-66573062D01*
X112370099Y-66477089D01*
X112497653Y-66349535D01*
X112593626Y-66196795D01*
X112653205Y-66026528D01*
X112658773Y-65977100D01*
X112685837Y-65912689D01*
X112694302Y-65903313D01*
X113752362Y-64845253D01*
X113813683Y-64811770D01*
X113826151Y-64809717D01*
X113891071Y-64802402D01*
X113971250Y-64793369D01*
X113971253Y-64793368D01*
X113971255Y-64793368D01*
X114141522Y-64733789D01*
X114294262Y-64637816D01*
X114421816Y-64510262D01*
X114449006Y-64466988D01*
X114501341Y-64420698D01*
X114570394Y-64410050D01*
X114634243Y-64438425D01*
X114658993Y-64466987D01*
X114686184Y-64510262D01*
X114813738Y-64637816D01*
X114872082Y-64674476D01*
X114960896Y-64730282D01*
X114966478Y-64733789D01*
X115004359Y-64747044D01*
X115136745Y-64793368D01*
X115136750Y-64793369D01*
X115248915Y-64806006D01*
X115281840Y-64809716D01*
X115346254Y-64836782D01*
X115355638Y-64845255D01*
X115393298Y-64882915D01*
X115403990Y-64895106D01*
X115421751Y-64918252D01*
X115539565Y-65008652D01*
X115539566Y-65008652D01*
X115539567Y-65008653D01*
X115676766Y-65065483D01*
X115787032Y-65080000D01*
X115787034Y-65080000D01*
X115824000Y-65084867D01*
X115852910Y-65081060D01*
X115869094Y-65080000D01*
X116220560Y-65080000D01*
X116287599Y-65099685D01*
X116308241Y-65116319D01*
X116337738Y-65145816D01*
X116410157Y-65191320D01*
X116459854Y-65222547D01*
X116490478Y-65241789D01*
X116660745Y-65301368D01*
X116660750Y-65301369D01*
X116839996Y-65321565D01*
X116840000Y-65321565D01*
X116840004Y-65321565D01*
X117019249Y-65301369D01*
X117019252Y-65301368D01*
X117019255Y-65301368D01*
X117189522Y-65241789D01*
X117342262Y-65145816D01*
X117469816Y-65018262D01*
X117565789Y-64865522D01*
X117625368Y-64695255D01*
X117627709Y-64674478D01*
X117645565Y-64516003D01*
X117645565Y-64515996D01*
X117625369Y-64336750D01*
X117625368Y-64336745D01*
X117565788Y-64166475D01*
X117507664Y-64073973D01*
X117488663Y-64006736D01*
X117507664Y-63942027D01*
X117565788Y-63849524D01*
X117565789Y-63849522D01*
X117625368Y-63679255D01*
X117627455Y-63660731D01*
X117645565Y-63500003D01*
X117645565Y-63499996D01*
X117625369Y-63320750D01*
X117625368Y-63320745D01*
X117605544Y-63264091D01*
X117565789Y-63150478D01*
X117469816Y-62997738D01*
X117342262Y-62870184D01*
X117298988Y-62842993D01*
X117252698Y-62790659D01*
X117242050Y-62721606D01*
X117270425Y-62657757D01*
X117298989Y-62633006D01*
X117342262Y-62605816D01*
X117469816Y-62478262D01*
X117565789Y-62325522D01*
X117625368Y-62155255D01*
X117627709Y-62134478D01*
X117645565Y-61976003D01*
X117645565Y-61975996D01*
X117625369Y-61796750D01*
X117625368Y-61796745D01*
X117611884Y-61758211D01*
X117565789Y-61626478D01*
X117469816Y-61473738D01*
X117342262Y-61346184D01*
X117292000Y-61314602D01*
X117189523Y-61250211D01*
X117019254Y-61190631D01*
X117019249Y-61190630D01*
X116840004Y-61170435D01*
X116839996Y-61170435D01*
X116660750Y-61190630D01*
X116660745Y-61190631D01*
X116490476Y-61250211D01*
X116337737Y-61346184D01*
X116308241Y-61375681D01*
X116246918Y-61409166D01*
X116220560Y-61412000D01*
X107472979Y-61412000D01*
X107405940Y-61392315D01*
X107385298Y-61375681D01*
X105586696Y-59577079D01*
X105576001Y-59564884D01*
X105558248Y-59541748D01*
X105516181Y-59509470D01*
X105516180Y-59509469D01*
X105440432Y-59451346D01*
X105340567Y-59409981D01*
X105303234Y-59394517D01*
X105229617Y-59384825D01*
X105156001Y-59375133D01*
X105155999Y-59375133D01*
X105141699Y-59377015D01*
X105127089Y-59378939D01*
X105110906Y-59380000D01*
X95107440Y-59380000D01*
X95040401Y-59360315D01*
X95019759Y-59343681D01*
X94990262Y-59314184D01*
X94837523Y-59218211D01*
X94667254Y-59158631D01*
X94667249Y-59158630D01*
X94488004Y-59138435D01*
X94487996Y-59138435D01*
X94308750Y-59158630D01*
X94308745Y-59158631D01*
X94138476Y-59218211D01*
X93985737Y-59314184D01*
X93858184Y-59441737D01*
X93762211Y-59594476D01*
X93702631Y-59764745D01*
X93702630Y-59764750D01*
X93682435Y-59943996D01*
X93682435Y-59944003D01*
X93702630Y-60123249D01*
X93702631Y-60123254D01*
X93762211Y-60293523D01*
X93785247Y-60330184D01*
X93858184Y-60446262D01*
X93985738Y-60573816D01*
X94138478Y-60669789D01*
X94262548Y-60713203D01*
X94308745Y-60729368D01*
X94308750Y-60729369D01*
X94487996Y-60749565D01*
X94488000Y-60749565D01*
X94488004Y-60749565D01*
X94667249Y-60729369D01*
X94667252Y-60729368D01*
X94667255Y-60729368D01*
X94837522Y-60669789D01*
X94990262Y-60573816D01*
X95019759Y-60544319D01*
X95081082Y-60510834D01*
X95107440Y-60508000D01*
X98145542Y-60508000D01*
X98212581Y-60527685D01*
X98258336Y-60580489D01*
X98268280Y-60649647D01*
X98239255Y-60713203D01*
X98207655Y-60737363D01*
X98208374Y-60738506D01*
X98049737Y-60838184D01*
X97922184Y-60965737D01*
X97826211Y-61118476D01*
X97766631Y-61288745D01*
X97766630Y-61288750D01*
X97746435Y-61467996D01*
X97746435Y-61468003D01*
X97766630Y-61647249D01*
X97766631Y-61647254D01*
X97826211Y-61817523D01*
X97878233Y-61900315D01*
X97922184Y-61970262D01*
X98049738Y-62097816D01*
X98108082Y-62134476D01*
X98188945Y-62185286D01*
X98202478Y-62193789D01*
X98240359Y-62207044D01*
X98372745Y-62253368D01*
X98372750Y-62253369D01*
X98484915Y-62266006D01*
X98517840Y-62269716D01*
X98582254Y-62296782D01*
X98591638Y-62305255D01*
X101270743Y-64984360D01*
X101304228Y-65045683D01*
X101306282Y-65058157D01*
X101316111Y-65145389D01*
X101304057Y-65214211D01*
X101256708Y-65265590D01*
X101192891Y-65283273D01*
X89815108Y-65283273D01*
X89748069Y-65263588D01*
X89702314Y-65210784D01*
X89691888Y-65145389D01*
X89705565Y-65024002D01*
X89705565Y-65023996D01*
X89685369Y-64844750D01*
X89685368Y-64844745D01*
X89674176Y-64812760D01*
X89625789Y-64674478D01*
X89529816Y-64521738D01*
X89402262Y-64394184D01*
X89312593Y-64337841D01*
X89249523Y-64298211D01*
X89079253Y-64238631D01*
X89071061Y-64237708D01*
X89006648Y-64210637D01*
X88967096Y-64153040D01*
X88964962Y-64083203D01*
X88997268Y-64026809D01*
X89021816Y-64002262D01*
X89117789Y-63849522D01*
X89177368Y-63679255D01*
X89179456Y-63660729D01*
X89186402Y-63599071D01*
X89193716Y-63534156D01*
X89220782Y-63469744D01*
X89229245Y-63460370D01*
X94777612Y-57912003D01*
X97746435Y-57912003D01*
X97766630Y-58091249D01*
X97766631Y-58091254D01*
X97826211Y-58261523D01*
X97922184Y-58414262D01*
X98049738Y-58541816D01*
X98111668Y-58580729D01*
X98196896Y-58634282D01*
X98202478Y-58637789D01*
X98372745Y-58697368D01*
X98372750Y-58697369D01*
X98551996Y-58717565D01*
X98552000Y-58717565D01*
X98552004Y-58717565D01*
X98731249Y-58697369D01*
X98731252Y-58697368D01*
X98731255Y-58697368D01*
X98901522Y-58637789D01*
X99054262Y-58541816D01*
X99083759Y-58512319D01*
X99145082Y-58478834D01*
X99171440Y-58476000D01*
X113507021Y-58476000D01*
X113574060Y-58495685D01*
X113594702Y-58512319D01*
X114478743Y-59396360D01*
X114512228Y-59457683D01*
X114514282Y-59470157D01*
X114530630Y-59615250D01*
X114530631Y-59615254D01*
X114590211Y-59785523D01*
X114681198Y-59930327D01*
X114686184Y-59938262D01*
X114813738Y-60065816D01*
X114869517Y-60100864D01*
X114956053Y-60155239D01*
X114966478Y-60161789D01*
X115043963Y-60188902D01*
X115136745Y-60221368D01*
X115136750Y-60221369D01*
X115315996Y-60241565D01*
X115316000Y-60241565D01*
X115316004Y-60241565D01*
X115495249Y-60221369D01*
X115495252Y-60221368D01*
X115495255Y-60221368D01*
X115665522Y-60161789D01*
X115818262Y-60065816D01*
X115945816Y-59938262D01*
X116041789Y-59785522D01*
X116101368Y-59615255D01*
X116102761Y-59602892D01*
X116121565Y-59436003D01*
X116121565Y-59435996D01*
X116101369Y-59256750D01*
X116101368Y-59256745D01*
X116085827Y-59212331D01*
X116041789Y-59086478D01*
X116027245Y-59063332D01*
X115994395Y-59011051D01*
X115945816Y-58933738D01*
X115818262Y-58806184D01*
X115779969Y-58782123D01*
X115665523Y-58710211D01*
X115495254Y-58650631D01*
X115495250Y-58650630D01*
X115350157Y-58634282D01*
X115285743Y-58607215D01*
X115276360Y-58598743D01*
X114222696Y-57545079D01*
X114212001Y-57532884D01*
X114211012Y-57531595D01*
X114194250Y-57509750D01*
X114194248Y-57509749D01*
X114194248Y-57509748D01*
X114158671Y-57482450D01*
X114158670Y-57482449D01*
X114076432Y-57419346D01*
X113971565Y-57375909D01*
X113939234Y-57362517D01*
X113852317Y-57351074D01*
X113792001Y-57343133D01*
X113791999Y-57343133D01*
X113777699Y-57345015D01*
X113763089Y-57346939D01*
X113746906Y-57348000D01*
X99171440Y-57348000D01*
X99104401Y-57328315D01*
X99083759Y-57311681D01*
X99054262Y-57282184D01*
X98901523Y-57186211D01*
X98731254Y-57126631D01*
X98731249Y-57126630D01*
X98552004Y-57106435D01*
X98551996Y-57106435D01*
X98372750Y-57126630D01*
X98372745Y-57126631D01*
X98202476Y-57186211D01*
X98049737Y-57282184D01*
X97922184Y-57409737D01*
X97826211Y-57562476D01*
X97766631Y-57732745D01*
X97766630Y-57732750D01*
X97746435Y-57911996D01*
X97746435Y-57912003D01*
X94777612Y-57912003D01*
X101345088Y-51344528D01*
X101406411Y-51311043D01*
X101476103Y-51316027D01*
X101520450Y-51344528D01*
X101605738Y-51429816D01*
X101758478Y-51525789D01*
X101920214Y-51582383D01*
X101928745Y-51585368D01*
X101928750Y-51585369D01*
X102040915Y-51598006D01*
X102073840Y-51601716D01*
X102138254Y-51628782D01*
X102147638Y-51637255D01*
X102185298Y-51674915D01*
X102195990Y-51687106D01*
X102213751Y-51710252D01*
X102331565Y-51800652D01*
X102331566Y-51800652D01*
X102331567Y-51800653D01*
X102468766Y-51857483D01*
X102579032Y-51872000D01*
X102579034Y-51872000D01*
X102616000Y-51876867D01*
X102644910Y-51873060D01*
X102661094Y-51872000D01*
X117236560Y-51872000D01*
X117303599Y-51891685D01*
X117324241Y-51908319D01*
X117353738Y-51937816D01*
X117506478Y-52033789D01*
X117544359Y-52047044D01*
X117676745Y-52093368D01*
X117676750Y-52093369D01*
X117855996Y-52113565D01*
X117856000Y-52113565D01*
X117856004Y-52113565D01*
X118035249Y-52093369D01*
X118035252Y-52093368D01*
X118035255Y-52093368D01*
X118205522Y-52033789D01*
X118358262Y-51937816D01*
X118485816Y-51810262D01*
X118581789Y-51657522D01*
X118641368Y-51487255D01*
X118647840Y-51429815D01*
X118661565Y-51308003D01*
X118661565Y-51307996D01*
X118641369Y-51128750D01*
X118641368Y-51128745D01*
X118626054Y-51084979D01*
X118581789Y-50958478D01*
X118485816Y-50805738D01*
X118358262Y-50678184D01*
X118347642Y-50671511D01*
X118205523Y-50582211D01*
X118035254Y-50522631D01*
X118035249Y-50522630D01*
X117856004Y-50502435D01*
X117855996Y-50502435D01*
X117676750Y-50522630D01*
X117676745Y-50522631D01*
X117506476Y-50582211D01*
X117353737Y-50678184D01*
X117324241Y-50707681D01*
X117262918Y-50741166D01*
X117236560Y-50744000D01*
X103018069Y-50744000D01*
X102951030Y-50724315D01*
X102905275Y-50671511D01*
X102894849Y-50633884D01*
X102893369Y-50620749D01*
X102893368Y-50620745D01*
X102879711Y-50581715D01*
X102833789Y-50450478D01*
X102737816Y-50297738D01*
X102652528Y-50212450D01*
X102619043Y-50151127D01*
X102624027Y-50081435D01*
X102652525Y-50037090D01*
X102813299Y-49876316D01*
X102874621Y-49842834D01*
X102900979Y-49840000D01*
X103586906Y-49840000D01*
X103603089Y-49841060D01*
X103616558Y-49842834D01*
X103631999Y-49844867D01*
X103632000Y-49844867D01*
X103632001Y-49844867D01*
X103647442Y-49842834D01*
X103779234Y-49825483D01*
X103916433Y-49768653D01*
X104004668Y-49700949D01*
X104004668Y-49700948D01*
X104027606Y-49683348D01*
X104027606Y-49683347D01*
X104034250Y-49678250D01*
X104052009Y-49655104D01*
X104062690Y-49642925D01*
X115682920Y-38022694D01*
X115695111Y-38012004D01*
X115718250Y-37994250D01*
X115808653Y-37876433D01*
X115865483Y-37739234D01*
X115880000Y-37628968D01*
X115884867Y-37592000D01*
X115881060Y-37563090D01*
X115880000Y-37546905D01*
X115880000Y-33149027D01*
X201221568Y-33149027D01*
X201240787Y-33564724D01*
X201240787Y-33564729D01*
X201240788Y-33564734D01*
X201298278Y-33976872D01*
X201298280Y-33976880D01*
X201393554Y-34381960D01*
X201525804Y-34776541D01*
X201693885Y-35157204D01*
X201693895Y-35157225D01*
X201896381Y-35520758D01*
X201896384Y-35520762D01*
X201896386Y-35520766D01*
X202131562Y-35864081D01*
X202131564Y-35864083D01*
X202131571Y-35864093D01*
X202290260Y-36055194D01*
X202397413Y-36184233D01*
X202691669Y-36478489D01*
X202691680Y-36478498D01*
X203011808Y-36744330D01*
X203011814Y-36744334D01*
X203011821Y-36744340D01*
X203355136Y-36979516D01*
X203355142Y-36979519D01*
X203355143Y-36979520D01*
X203487045Y-37052989D01*
X203718687Y-37182012D01*
X203909028Y-37266056D01*
X204099360Y-37350097D01*
X204099363Y-37350098D01*
X204099370Y-37350101D01*
X204493939Y-37482347D01*
X204899027Y-37577623D01*
X205311178Y-37635115D01*
X205726875Y-37654334D01*
X206142572Y-37635115D01*
X206554723Y-37577623D01*
X206959811Y-37482347D01*
X207354380Y-37350101D01*
X207735063Y-37182012D01*
X208098614Y-36979516D01*
X208441929Y-36744340D01*
X208762081Y-36478489D01*
X209056337Y-36184233D01*
X209322188Y-35864081D01*
X209557364Y-35520766D01*
X209759860Y-35157215D01*
X209927949Y-34776532D01*
X210060195Y-34381963D01*
X210155471Y-33976875D01*
X210212963Y-33564724D01*
X210232182Y-33149027D01*
X210212963Y-32733330D01*
X210155471Y-32321179D01*
X210060195Y-31916091D01*
X209927949Y-31521522D01*
X209921072Y-31505948D01*
X209831338Y-31302721D01*
X209759860Y-31140839D01*
X209743798Y-31112003D01*
X209557368Y-30777295D01*
X209557367Y-30777294D01*
X209557364Y-30777288D01*
X209322188Y-30433973D01*
X209322182Y-30433966D01*
X209322178Y-30433960D01*
X209056346Y-30113832D01*
X209056337Y-30113821D01*
X208762081Y-29819565D01*
X208762069Y-29819555D01*
X208441941Y-29553723D01*
X208441931Y-29553716D01*
X208441929Y-29553714D01*
X208098614Y-29318538D01*
X208098610Y-29318536D01*
X208098606Y-29318533D01*
X207735073Y-29116047D01*
X207735052Y-29116037D01*
X207354389Y-28947956D01*
X206959808Y-28815706D01*
X206554728Y-28720432D01*
X206554720Y-28720430D01*
X206142582Y-28662940D01*
X206142577Y-28662939D01*
X206142572Y-28662939D01*
X205726875Y-28643720D01*
X205311178Y-28662939D01*
X205311172Y-28662939D01*
X205311167Y-28662940D01*
X204899029Y-28720430D01*
X204899021Y-28720432D01*
X204493941Y-28815706D01*
X204099360Y-28947956D01*
X203718697Y-29116037D01*
X203718676Y-29116047D01*
X203355143Y-29318533D01*
X203355137Y-29318537D01*
X203011818Y-29553716D01*
X203011808Y-29553723D01*
X202691680Y-29819555D01*
X202691660Y-29819573D01*
X202397421Y-30113812D01*
X202397403Y-30113832D01*
X202131571Y-30433960D01*
X202131564Y-30433970D01*
X201896385Y-30777289D01*
X201896381Y-30777295D01*
X201693895Y-31140828D01*
X201693885Y-31140849D01*
X201525804Y-31521512D01*
X201393554Y-31916093D01*
X201298280Y-32321173D01*
X201298278Y-32321181D01*
X201240788Y-32733319D01*
X201240787Y-32733324D01*
X201240787Y-32733330D01*
X201221568Y-33149027D01*
X115880000Y-33149027D01*
X115880000Y-30649316D01*
X115899685Y-30582277D01*
X115916319Y-30561635D01*
X117429635Y-29048319D01*
X117490958Y-29014834D01*
X117517316Y-29012000D01*
X119603021Y-29012000D01*
X119670060Y-29031685D01*
X119690702Y-29048319D01*
X120939802Y-30297419D01*
X120950496Y-30309613D01*
X120968249Y-30332749D01*
X120968250Y-30332750D01*
X120997831Y-30355448D01*
X120997832Y-30355449D01*
X121086067Y-30423154D01*
X121178644Y-30461500D01*
X121223266Y-30479983D01*
X121239984Y-30482184D01*
X121370499Y-30499368D01*
X121370499Y-30499367D01*
X121370500Y-30499368D01*
X121399416Y-30495560D01*
X121415602Y-30494500D01*
X125440406Y-30494500D01*
X125456589Y-30495560D01*
X125471199Y-30497484D01*
X125485499Y-30499367D01*
X125485500Y-30499367D01*
X125485501Y-30499367D01*
X125500844Y-30497346D01*
X125632734Y-30479983D01*
X125769933Y-30423153D01*
X125858168Y-30355449D01*
X125858168Y-30355448D01*
X125881106Y-30337848D01*
X125881106Y-30337847D01*
X125887750Y-30332750D01*
X125905509Y-30309604D01*
X125916190Y-30297425D01*
X125958541Y-30255074D01*
X126019862Y-30221591D01*
X126069004Y-30220868D01*
X126174024Y-30240500D01*
X126263770Y-30240500D01*
X126330809Y-30260185D01*
X126351451Y-30276819D01*
X127672267Y-31597634D01*
X127684048Y-31611266D01*
X127698389Y-31630529D01*
X127698390Y-31630530D01*
X127736343Y-31662376D01*
X127744319Y-31669686D01*
X127748219Y-31673587D01*
X127772544Y-31692821D01*
X127775340Y-31695099D01*
X127803062Y-31718360D01*
X127832786Y-31743302D01*
X127832794Y-31743306D01*
X127838824Y-31747273D01*
X127838790Y-31747323D01*
X127845137Y-31751366D01*
X127845169Y-31751316D01*
X127851321Y-31755110D01*
X127919294Y-31786806D01*
X127922510Y-31788362D01*
X127989567Y-31822040D01*
X127989576Y-31822042D01*
X127996355Y-31824510D01*
X127996334Y-31824567D01*
X128003451Y-31827040D01*
X128003470Y-31826984D01*
X128010324Y-31829255D01*
X128010325Y-31829255D01*
X128010327Y-31829256D01*
X128083848Y-31844436D01*
X128087209Y-31845181D01*
X128160279Y-31862500D01*
X128160285Y-31862500D01*
X128167452Y-31863338D01*
X128167445Y-31863397D01*
X128174946Y-31864163D01*
X128174952Y-31864104D01*
X128182141Y-31864733D01*
X128182143Y-31864732D01*
X128182144Y-31864733D01*
X128257111Y-31862552D01*
X128260717Y-31862500D01*
X128856028Y-31862500D01*
X128896983Y-31869458D01*
X128976745Y-31897368D01*
X128976750Y-31897369D01*
X129155996Y-31917565D01*
X129156000Y-31917565D01*
X129156004Y-31917565D01*
X129335249Y-31897369D01*
X129335252Y-31897368D01*
X129335255Y-31897368D01*
X129505522Y-31837789D01*
X129658262Y-31741816D01*
X129785816Y-31614262D01*
X129881789Y-31461522D01*
X129941368Y-31291255D01*
X129961565Y-31112000D01*
X129950275Y-31011801D01*
X129941369Y-30932750D01*
X129941368Y-30932745D01*
X129881789Y-30762478D01*
X129785816Y-30609738D01*
X129658262Y-30482184D01*
X129625344Y-30461500D01*
X129505523Y-30386211D01*
X129335254Y-30326631D01*
X129335249Y-30326630D01*
X129156004Y-30306435D01*
X129155996Y-30306435D01*
X128976750Y-30326630D01*
X128976745Y-30326631D01*
X128896983Y-30354542D01*
X128856028Y-30361500D01*
X128610230Y-30361500D01*
X128543191Y-30341815D01*
X128522549Y-30325181D01*
X127417351Y-29219983D01*
X127383866Y-29158660D01*
X127381561Y-29143743D01*
X127381214Y-29140004D01*
X127381215Y-29140000D01*
X127362397Y-28936917D01*
X127306582Y-28740750D01*
X127296464Y-28720431D01*
X127215804Y-28558443D01*
X127215673Y-28558179D01*
X127104545Y-28411021D01*
X127092762Y-28395418D01*
X126942041Y-28258019D01*
X126942039Y-28258017D01*
X126768642Y-28150655D01*
X126768641Y-28150654D01*
X126768637Y-28150652D01*
X126768632Y-28150650D01*
X126768626Y-28150647D01*
X126656183Y-28107086D01*
X126600781Y-28064513D01*
X126577191Y-27998747D01*
X126577505Y-27980026D01*
X126581215Y-27940000D01*
X126562397Y-27736917D01*
X126506582Y-27540750D01*
X126415673Y-27358179D01*
X126292764Y-27195421D01*
X126292762Y-27195418D01*
X126142041Y-27058019D01*
X126142039Y-27058017D01*
X125968642Y-26950655D01*
X125968635Y-26950651D01*
X125779705Y-26877460D01*
X125778456Y-26876976D01*
X125577976Y-26839500D01*
X125374024Y-26839500D01*
X125173544Y-26876976D01*
X125173541Y-26876976D01*
X125173541Y-26876977D01*
X124983364Y-26950651D01*
X124983357Y-26950655D01*
X124809960Y-27058017D01*
X124809958Y-27058019D01*
X124659237Y-27195418D01*
X124536327Y-27358178D01*
X124445422Y-27540739D01*
X124445417Y-27540752D01*
X124389603Y-27736915D01*
X124389339Y-27739767D01*
X124388830Y-27741047D01*
X124388549Y-27742553D01*
X124388254Y-27742497D01*
X124363551Y-27804703D01*
X124353549Y-27816003D01*
X124226987Y-27942564D01*
X124229628Y-27910698D01*
X124200953Y-27797462D01*
X124137064Y-27699673D01*
X124044885Y-27627928D01*
X123934405Y-27590000D01*
X123846995Y-27590000D01*
X123760784Y-27604386D01*
X123658053Y-27659981D01*
X123578940Y-27745921D01*
X123532018Y-27852892D01*
X123524619Y-27942173D01*
X122938533Y-27356087D01*
X122936755Y-27358442D01*
X122936754Y-27358443D01*
X122845886Y-27540930D01*
X122845883Y-27540936D01*
X122790097Y-27737007D01*
X122790096Y-27737010D01*
X122771287Y-27939999D01*
X122771287Y-27940003D01*
X122775025Y-27980351D01*
X122761609Y-28048920D01*
X122713251Y-28099351D01*
X122696348Y-28107416D01*
X122583597Y-28151096D01*
X122583581Y-28151104D01*
X122495312Y-28205757D01*
X122495311Y-28205758D01*
X123079553Y-28790000D01*
X123046995Y-28790000D01*
X122960784Y-28804386D01*
X122858053Y-28859981D01*
X122778940Y-28945921D01*
X122732018Y-29052892D01*
X122724619Y-29142173D01*
X122138533Y-28556087D01*
X122136755Y-28558442D01*
X122136754Y-28558443D01*
X122045886Y-28740930D01*
X122045883Y-28740936D01*
X121990097Y-28937007D01*
X121990096Y-28937010D01*
X121971287Y-29139999D01*
X121979725Y-29231058D01*
X121966310Y-29299628D01*
X121917953Y-29350060D01*
X121856254Y-29366500D01*
X121655479Y-29366500D01*
X121588440Y-29346815D01*
X121567798Y-29330181D01*
X120318696Y-28081079D01*
X120308001Y-28068884D01*
X120291881Y-28047876D01*
X120290250Y-28045750D01*
X120290248Y-28045749D01*
X120290248Y-28045748D01*
X120212795Y-27986318D01*
X120212794Y-27986317D01*
X120172433Y-27955347D01*
X120172429Y-27955345D01*
X120064641Y-27910698D01*
X120035234Y-27898517D01*
X119961617Y-27888825D01*
X119888001Y-27879133D01*
X119887999Y-27879133D01*
X119873699Y-27881015D01*
X119859089Y-27882939D01*
X119842906Y-27884000D01*
X117277438Y-27884000D01*
X117261253Y-27882939D01*
X117232337Y-27879132D01*
X117232336Y-27879132D01*
X117085103Y-27898516D01*
X116947907Y-27955345D01*
X116947904Y-27955346D01*
X116947904Y-27955347D01*
X116915318Y-27980351D01*
X116907542Y-27986318D01*
X116830085Y-28045751D01*
X116812330Y-28068889D01*
X116801638Y-28081080D01*
X114949080Y-29933638D01*
X114936888Y-29944331D01*
X114913748Y-29962087D01*
X114878598Y-30007895D01*
X114878588Y-30007910D01*
X114823347Y-30079903D01*
X114766517Y-30217102D01*
X114766517Y-30217103D01*
X114747133Y-30364337D01*
X114750939Y-30393245D01*
X114752000Y-30409431D01*
X114752000Y-37307021D01*
X114732315Y-37374060D01*
X114715681Y-37394702D01*
X103434702Y-48675681D01*
X103373379Y-48709166D01*
X103347021Y-48712000D01*
X102661101Y-48712000D01*
X102644916Y-48710939D01*
X102616000Y-48707132D01*
X102615999Y-48707132D01*
X102468765Y-48726517D01*
X102331569Y-48783344D01*
X102312138Y-48798254D01*
X102243332Y-48851051D01*
X102243331Y-48851052D01*
X102213750Y-48873749D01*
X102195992Y-48896890D01*
X102185301Y-48909080D01*
X92202911Y-58891470D01*
X92141588Y-58924955D01*
X92071896Y-58919971D01*
X92027549Y-58891471D01*
X91988393Y-58852315D01*
X91942262Y-58806184D01*
X91897961Y-58778348D01*
X91789523Y-58710211D01*
X91619254Y-58650631D01*
X91619249Y-58650630D01*
X91440004Y-58630435D01*
X91439996Y-58630435D01*
X91260750Y-58650630D01*
X91260745Y-58650631D01*
X91090476Y-58710211D01*
X90937737Y-58806184D01*
X90908241Y-58835681D01*
X90846918Y-58869166D01*
X90820560Y-58872000D01*
X90200979Y-58872000D01*
X90133940Y-58852315D01*
X90113298Y-58835681D01*
X87705255Y-56427638D01*
X87671770Y-56366315D01*
X87669716Y-56353840D01*
X87653369Y-56208750D01*
X87653368Y-56208745D01*
X87637863Y-56164434D01*
X87593789Y-56038478D01*
X87586723Y-56027233D01*
X87497815Y-55885737D01*
X87370262Y-55758184D01*
X87211626Y-55658506D01*
X87212804Y-55656629D01*
X87168799Y-55616902D01*
X87150484Y-55549475D01*
X87171529Y-55482850D01*
X87225254Y-55438180D01*
X87274458Y-55428000D01*
X91836560Y-55428000D01*
X91903599Y-55447685D01*
X91924241Y-55464319D01*
X91953738Y-55493816D01*
X92106478Y-55589789D01*
X92230548Y-55633203D01*
X92276745Y-55649368D01*
X92276750Y-55649369D01*
X92455996Y-55669565D01*
X92456000Y-55669565D01*
X92456004Y-55669565D01*
X92635249Y-55649369D01*
X92635252Y-55649368D01*
X92635255Y-55649368D01*
X92805522Y-55589789D01*
X92958262Y-55493816D01*
X93085816Y-55366262D01*
X93181789Y-55213522D01*
X93241368Y-55043255D01*
X93241369Y-55043249D01*
X93261565Y-54864003D01*
X93261565Y-54863996D01*
X93241369Y-54684750D01*
X93241368Y-54684745D01*
X93207181Y-54587044D01*
X93181789Y-54514478D01*
X93167245Y-54491332D01*
X93085815Y-54361737D01*
X92958262Y-54234184D01*
X92805523Y-54138211D01*
X92635254Y-54078631D01*
X92635249Y-54078630D01*
X92456004Y-54058435D01*
X92455996Y-54058435D01*
X92276750Y-54078630D01*
X92276745Y-54078631D01*
X92106476Y-54138211D01*
X91953739Y-54234183D01*
X91929191Y-54258731D01*
X91867867Y-54292215D01*
X91798175Y-54287229D01*
X91742243Y-54245357D01*
X91718291Y-54184931D01*
X91717369Y-54176750D01*
X91717368Y-54176745D01*
X91699246Y-54124955D01*
X91657789Y-54006478D01*
X91561816Y-53853738D01*
X91434262Y-53726184D01*
X91395969Y-53702123D01*
X91281523Y-53630211D01*
X91111254Y-53570631D01*
X91111250Y-53570630D01*
X90966157Y-53554282D01*
X90901743Y-53527215D01*
X90892360Y-53518743D01*
X86282696Y-48909079D01*
X86272001Y-48896884D01*
X86270070Y-48894367D01*
X86254250Y-48873750D01*
X86168089Y-48807637D01*
X86136434Y-48783347D01*
X86067833Y-48754932D01*
X85999234Y-48726517D01*
X85888968Y-48712000D01*
X85867442Y-48709166D01*
X85852001Y-48707133D01*
X85851999Y-48707133D01*
X85837699Y-48709015D01*
X85823089Y-48710939D01*
X85806906Y-48712000D01*
X83574526Y-48712000D01*
X83507487Y-48692315D01*
X83462144Y-48640406D01*
X83448301Y-48610719D01*
X83448298Y-48610714D01*
X83315273Y-48420735D01*
X83315268Y-48420729D01*
X83151269Y-48256730D01*
X83147744Y-48254262D01*
X82961282Y-48123699D01*
X82751079Y-48025680D01*
X82751076Y-48025679D01*
X82751074Y-48025678D01*
X82527051Y-47965651D01*
X82527044Y-47965650D01*
X82296002Y-47945437D01*
X82295998Y-47945437D01*
X82064955Y-47965650D01*
X82064948Y-47965651D01*
X81840917Y-48025681D01*
X81630718Y-48123699D01*
X81630714Y-48123701D01*
X81440735Y-48256726D01*
X81440729Y-48256731D01*
X81276731Y-48420729D01*
X81276726Y-48420735D01*
X81143701Y-48610714D01*
X81143698Y-48610720D01*
X81138381Y-48622123D01*
X81092207Y-48674562D01*
X81025013Y-48693712D01*
X80958133Y-48673495D01*
X80913619Y-48622123D01*
X80908301Y-48610720D01*
X80908298Y-48610714D01*
X80775273Y-48420735D01*
X80775268Y-48420729D01*
X80611269Y-48256730D01*
X80607744Y-48254262D01*
X80421282Y-48123699D01*
X80211079Y-48025680D01*
X80211076Y-48025679D01*
X80211074Y-48025678D01*
X79987051Y-47965651D01*
X79987044Y-47965650D01*
X79756002Y-47945437D01*
X79755998Y-47945437D01*
X79524955Y-47965650D01*
X79524948Y-47965651D01*
X79300917Y-48025681D01*
X79090718Y-48123699D01*
X79090714Y-48123701D01*
X78900735Y-48256726D01*
X78900729Y-48256731D01*
X78736731Y-48420729D01*
X78736726Y-48420735D01*
X78603701Y-48610714D01*
X78603699Y-48610718D01*
X78505681Y-48820917D01*
X78445651Y-49044948D01*
X78445650Y-49044955D01*
X78425437Y-49275998D01*
X78425437Y-49276001D01*
X78445650Y-49507044D01*
X78445651Y-49507051D01*
X78505678Y-49731074D01*
X78505679Y-49731076D01*
X78505680Y-49731079D01*
X78603699Y-49941282D01*
X78736730Y-50131269D01*
X78900731Y-50295270D01*
X79090718Y-50428301D01*
X79102121Y-50433618D01*
X79154560Y-50479790D01*
X79173712Y-50546984D01*
X79153496Y-50613865D01*
X79102123Y-50658381D01*
X79090720Y-50663698D01*
X79090714Y-50663701D01*
X78900735Y-50796726D01*
X78900729Y-50796731D01*
X78736731Y-50960729D01*
X78736726Y-50960735D01*
X78603701Y-51150714D01*
X78603699Y-51150718D01*
X78505681Y-51360917D01*
X78445651Y-51584948D01*
X78445650Y-51584955D01*
X78425437Y-51815998D01*
X78425437Y-51816001D01*
X78445650Y-52047044D01*
X78445651Y-52047051D01*
X78505678Y-52271074D01*
X78505679Y-52271076D01*
X78505680Y-52271079D01*
X78603699Y-52481282D01*
X78736730Y-52671269D01*
X78900731Y-52835270D01*
X79090718Y-52968301D01*
X79102121Y-52973618D01*
X79154560Y-53019790D01*
X79173712Y-53086984D01*
X79153496Y-53153865D01*
X79102123Y-53198381D01*
X79090720Y-53203698D01*
X79090714Y-53203701D01*
X78900735Y-53336726D01*
X78900729Y-53336731D01*
X78736731Y-53500729D01*
X78736726Y-53500735D01*
X78603701Y-53690714D01*
X78603699Y-53690718D01*
X78505681Y-53900917D01*
X78445651Y-54124948D01*
X78445650Y-54124955D01*
X78425437Y-54355998D01*
X78425437Y-54356001D01*
X78445650Y-54587044D01*
X78445651Y-54587051D01*
X78505678Y-54811074D01*
X78505679Y-54811076D01*
X78505680Y-54811079D01*
X78603699Y-55021282D01*
X78736730Y-55211269D01*
X78900731Y-55375270D01*
X79090718Y-55508301D01*
X79102121Y-55513618D01*
X79154560Y-55559790D01*
X79173712Y-55626984D01*
X79153496Y-55693865D01*
X79102123Y-55738381D01*
X79090720Y-55743698D01*
X79090714Y-55743701D01*
X78900735Y-55876726D01*
X78900729Y-55876731D01*
X78736731Y-56040729D01*
X78736726Y-56040735D01*
X78603701Y-56230714D01*
X78603699Y-56230718D01*
X78505681Y-56440917D01*
X78445651Y-56664948D01*
X78445650Y-56664955D01*
X78425437Y-56895998D01*
X78425437Y-56896001D01*
X78445650Y-57127044D01*
X78445651Y-57127051D01*
X78505678Y-57351074D01*
X78505679Y-57351076D01*
X78505680Y-57351079D01*
X78603699Y-57561282D01*
X78736730Y-57751269D01*
X78900731Y-57915270D01*
X79090718Y-58048301D01*
X79102121Y-58053618D01*
X79154560Y-58099790D01*
X79173712Y-58166984D01*
X79153496Y-58233865D01*
X79102123Y-58278381D01*
X79090720Y-58283698D01*
X79090714Y-58283701D01*
X78900735Y-58416726D01*
X78900729Y-58416731D01*
X78736731Y-58580729D01*
X78736726Y-58580735D01*
X78603701Y-58770714D01*
X78603699Y-58770718D01*
X78505681Y-58980917D01*
X78445651Y-59204948D01*
X78445650Y-59204955D01*
X78425437Y-59435998D01*
X78425437Y-59436001D01*
X78445650Y-59667044D01*
X78445651Y-59667051D01*
X78505678Y-59891074D01*
X78505679Y-59891076D01*
X78505680Y-59891079D01*
X78603699Y-60101282D01*
X78736730Y-60291269D01*
X78900731Y-60455270D01*
X79090718Y-60588301D01*
X79102121Y-60593618D01*
X79154560Y-60639790D01*
X79173712Y-60706984D01*
X79153496Y-60773865D01*
X79102123Y-60818381D01*
X79090720Y-60823698D01*
X79090714Y-60823701D01*
X78900735Y-60956726D01*
X78900729Y-60956731D01*
X78736731Y-61120729D01*
X78736726Y-61120735D01*
X78603701Y-61310714D01*
X78603699Y-61310718D01*
X78505681Y-61520917D01*
X78445651Y-61744948D01*
X78445650Y-61744955D01*
X78425437Y-61975998D01*
X78425437Y-61976001D01*
X78445650Y-62207044D01*
X78445651Y-62207051D01*
X78505678Y-62431074D01*
X78505679Y-62431076D01*
X78505680Y-62431079D01*
X78603699Y-62641282D01*
X78736730Y-62831269D01*
X78900731Y-62995270D01*
X79090718Y-63128301D01*
X79102121Y-63133618D01*
X79154560Y-63179790D01*
X79173712Y-63246984D01*
X79153496Y-63313865D01*
X79102123Y-63358381D01*
X79090720Y-63363698D01*
X79090714Y-63363701D01*
X78900735Y-63496726D01*
X78900729Y-63496731D01*
X78736731Y-63660729D01*
X78736726Y-63660735D01*
X78603701Y-63850714D01*
X78603699Y-63850718D01*
X78505681Y-64060917D01*
X78445651Y-64284948D01*
X78445650Y-64284955D01*
X78425437Y-64515998D01*
X78425437Y-64516001D01*
X78445650Y-64747044D01*
X78445651Y-64747051D01*
X78505678Y-64971074D01*
X78505679Y-64971076D01*
X78505680Y-64971079D01*
X78603699Y-65181282D01*
X78736730Y-65371269D01*
X78900731Y-65535270D01*
X79090718Y-65668301D01*
X79102121Y-65673618D01*
X79154560Y-65719790D01*
X79173712Y-65786984D01*
X79153496Y-65853865D01*
X79102123Y-65898381D01*
X79090720Y-65903698D01*
X79090714Y-65903701D01*
X78900735Y-66036726D01*
X78900729Y-66036731D01*
X78736731Y-66200729D01*
X78736726Y-66200735D01*
X78603701Y-66390714D01*
X78603699Y-66390718D01*
X78505681Y-66600917D01*
X78445651Y-66824948D01*
X78445650Y-66824955D01*
X78425437Y-67055998D01*
X78425437Y-67056001D01*
X78445650Y-67287044D01*
X78445651Y-67287051D01*
X78505678Y-67511074D01*
X78505679Y-67511076D01*
X78505680Y-67511079D01*
X78603699Y-67721282D01*
X78736730Y-67911269D01*
X78900731Y-68075270D01*
X79090718Y-68208301D01*
X79102121Y-68213618D01*
X79154560Y-68259790D01*
X79173712Y-68326984D01*
X79153496Y-68393865D01*
X79102123Y-68438381D01*
X79090720Y-68443698D01*
X79090714Y-68443701D01*
X78900735Y-68576726D01*
X78900729Y-68576731D01*
X78736731Y-68740729D01*
X78736726Y-68740735D01*
X78603701Y-68930714D01*
X78603699Y-68930718D01*
X78505681Y-69140917D01*
X78445651Y-69364948D01*
X78445650Y-69364955D01*
X78425437Y-69595998D01*
X78425437Y-69596001D01*
X20500500Y-69596001D01*
X20500500Y-50001092D01*
X20500520Y-49998879D01*
X20503615Y-49825482D01*
X20519256Y-48949279D01*
X20519412Y-48944911D01*
X20575545Y-47897681D01*
X20575854Y-47893370D01*
X20669326Y-46848838D01*
X20669798Y-46844455D01*
X20711433Y-46512978D01*
X20800493Y-45803922D01*
X20801106Y-45799656D01*
X20968862Y-44764428D01*
X20969644Y-44760095D01*
X21174231Y-43731561D01*
X21175155Y-43727317D01*
X21416330Y-42706714D01*
X21417403Y-42702504D01*
X21694855Y-41691149D01*
X21696098Y-41686918D01*
X21733824Y-41566434D01*
X22009459Y-40686147D01*
X22010835Y-40682012D01*
X22048233Y-40576002D01*
X100863080Y-40576002D01*
X100882721Y-40800507D01*
X100882722Y-40800514D01*
X100941051Y-41018200D01*
X100941055Y-41018211D01*
X101036296Y-41222456D01*
X101036302Y-41222466D01*
X101165566Y-41407073D01*
X101324927Y-41566434D01*
X101509540Y-41695702D01*
X101632424Y-41753003D01*
X101713788Y-41790944D01*
X101713790Y-41790944D01*
X101713795Y-41790947D01*
X101931487Y-41849278D01*
X102091853Y-41863308D01*
X102155998Y-41868920D01*
X102156000Y-41868920D01*
X102156002Y-41868920D01*
X102212128Y-41864009D01*
X102380513Y-41849278D01*
X102598205Y-41790947D01*
X102802460Y-41695702D01*
X102987073Y-41566434D01*
X103146434Y-41407073D01*
X103275702Y-41222460D01*
X103370947Y-41018205D01*
X103429278Y-40800513D01*
X103448920Y-40576000D01*
X106863582Y-40576000D01*
X106883216Y-40800421D01*
X106883218Y-40800431D01*
X106941521Y-41018025D01*
X106941525Y-41018034D01*
X107036732Y-41222207D01*
X107036733Y-41222209D01*
X107085949Y-41292497D01*
X107651211Y-40727235D01*
X107656662Y-40753465D01*
X107723058Y-40881604D01*
X107821564Y-40987077D01*
X107944873Y-41062063D01*
X108006282Y-41079269D01*
X107439501Y-41646049D01*
X107509791Y-41695267D01*
X107713965Y-41790474D01*
X107713974Y-41790478D01*
X107931568Y-41848781D01*
X107931578Y-41848783D01*
X108155999Y-41868418D01*
X108156001Y-41868418D01*
X108380421Y-41848783D01*
X108380431Y-41848781D01*
X108598025Y-41790478D01*
X108598034Y-41790474D01*
X108802208Y-41695267D01*
X108802212Y-41695265D01*
X108872497Y-41646050D01*
X108308566Y-41082119D01*
X108431346Y-41028788D01*
X108543296Y-40937709D01*
X108626522Y-40819805D01*
X108659780Y-40726227D01*
X109226050Y-41292497D01*
X109275265Y-41222212D01*
X109275267Y-41222208D01*
X109370474Y-41018034D01*
X109370478Y-41018025D01*
X109428781Y-40800431D01*
X109428783Y-40800421D01*
X109448418Y-40576000D01*
X109448418Y-40575999D01*
X109428783Y-40351578D01*
X109428781Y-40351568D01*
X109370478Y-40133974D01*
X109370474Y-40133965D01*
X109275267Y-39929791D01*
X109226049Y-39859501D01*
X108660788Y-40424763D01*
X108655338Y-40398535D01*
X108588942Y-40270396D01*
X108490436Y-40164923D01*
X108367127Y-40089937D01*
X108305716Y-40072730D01*
X108872497Y-39505949D01*
X108872497Y-39505948D01*
X108802209Y-39456733D01*
X108802207Y-39456732D01*
X108598034Y-39361525D01*
X108598025Y-39361521D01*
X108380431Y-39303218D01*
X108380421Y-39303216D01*
X108156001Y-39283582D01*
X108155999Y-39283582D01*
X107931578Y-39303216D01*
X107931568Y-39303218D01*
X107713974Y-39361521D01*
X107713965Y-39361525D01*
X107509787Y-39456735D01*
X107439502Y-39505948D01*
X107439501Y-39505949D01*
X108003433Y-40069881D01*
X107880654Y-40123212D01*
X107768704Y-40214291D01*
X107685478Y-40332195D01*
X107652220Y-40425772D01*
X107085949Y-39859501D01*
X107085948Y-39859502D01*
X107036735Y-39929787D01*
X106941525Y-40133965D01*
X106941521Y-40133974D01*
X106883218Y-40351568D01*
X106883216Y-40351578D01*
X106863582Y-40575999D01*
X106863582Y-40576000D01*
X103448920Y-40576000D01*
X103429278Y-40351487D01*
X103370947Y-40133795D01*
X103275702Y-39929540D01*
X103146434Y-39744927D01*
X102987073Y-39585566D01*
X102803084Y-39456735D01*
X102802466Y-39456302D01*
X102802463Y-39456300D01*
X102802460Y-39456298D01*
X102802456Y-39456296D01*
X102598211Y-39361055D01*
X102598200Y-39361051D01*
X102380514Y-39302722D01*
X102380507Y-39302721D01*
X102156002Y-39283080D01*
X102155998Y-39283080D01*
X101931492Y-39302721D01*
X101931485Y-39302722D01*
X101713799Y-39361051D01*
X101713788Y-39361055D01*
X101509543Y-39456296D01*
X101509533Y-39456302D01*
X101324926Y-39585566D01*
X101165566Y-39744926D01*
X101036302Y-39929533D01*
X101036296Y-39929543D01*
X100941055Y-40133788D01*
X100941051Y-40133799D01*
X100882722Y-40351485D01*
X100882721Y-40351492D01*
X100863080Y-40575997D01*
X100863080Y-40576002D01*
X22048233Y-40576002D01*
X22359732Y-39693019D01*
X22361248Y-39688957D01*
X22745210Y-38713078D01*
X22746898Y-38709003D01*
X23165446Y-37747452D01*
X23167244Y-37743513D01*
X23619858Y-36797487D01*
X23621809Y-36793589D01*
X24107902Y-35864318D01*
X24109998Y-35860482D01*
X24628922Y-34949198D01*
X24631176Y-34945401D01*
X24656270Y-34904778D01*
X25182293Y-34053224D01*
X25184647Y-34049560D01*
X25767284Y-33177583D01*
X25769762Y-33174013D01*
X25880821Y-33020000D01*
X37658693Y-33020000D01*
X37677912Y-33435697D01*
X37677912Y-33435702D01*
X37677913Y-33435707D01*
X37714120Y-33695265D01*
X37735404Y-33847848D01*
X37740242Y-33868418D01*
X37830679Y-34252933D01*
X37962929Y-34647514D01*
X38131010Y-35028177D01*
X38131020Y-35028198D01*
X38333506Y-35391731D01*
X38333509Y-35391735D01*
X38333511Y-35391739D01*
X38568687Y-35735054D01*
X38568689Y-35735056D01*
X38568696Y-35735066D01*
X38676046Y-35864342D01*
X38834538Y-36055206D01*
X39128794Y-36349462D01*
X39128805Y-36349471D01*
X39448933Y-36615303D01*
X39448939Y-36615307D01*
X39448946Y-36615313D01*
X39792261Y-36850489D01*
X39792267Y-36850492D01*
X39792268Y-36850493D01*
X40023916Y-36979520D01*
X40155812Y-37052985D01*
X40346153Y-37137029D01*
X40536485Y-37221070D01*
X40536488Y-37221071D01*
X40536495Y-37221074D01*
X40931064Y-37353320D01*
X41336152Y-37448596D01*
X41748303Y-37506088D01*
X42164000Y-37525307D01*
X42579697Y-37506088D01*
X42991848Y-37448596D01*
X43396936Y-37353320D01*
X43791505Y-37221074D01*
X44172188Y-37052985D01*
X44535739Y-36850489D01*
X44879054Y-36615313D01*
X45199206Y-36349462D01*
X45493462Y-36055206D01*
X45759313Y-35735054D01*
X45994489Y-35391739D01*
X46196985Y-35028188D01*
X46365074Y-34647505D01*
X46497320Y-34252936D01*
X46592596Y-33847848D01*
X46650088Y-33435697D01*
X46669307Y-33020000D01*
X46650088Y-32604303D01*
X46646140Y-32576002D01*
X100863080Y-32576002D01*
X100882721Y-32800507D01*
X100882722Y-32800514D01*
X100941051Y-33018200D01*
X100941055Y-33018211D01*
X101036180Y-33222207D01*
X101036298Y-33222460D01*
X101165566Y-33407073D01*
X101324927Y-33566434D01*
X101509540Y-33695702D01*
X101632424Y-33753003D01*
X101713788Y-33790944D01*
X101713790Y-33790944D01*
X101713795Y-33790947D01*
X101931487Y-33849278D01*
X102091853Y-33863308D01*
X102155998Y-33868920D01*
X102156000Y-33868920D01*
X102156002Y-33868920D01*
X102212128Y-33864009D01*
X102380513Y-33849278D01*
X102598205Y-33790947D01*
X102802460Y-33695702D01*
X102987073Y-33566434D01*
X103146434Y-33407073D01*
X103275702Y-33222460D01*
X103370947Y-33018205D01*
X103429278Y-32800513D01*
X103448920Y-32576000D01*
X106863582Y-32576000D01*
X106883216Y-32800421D01*
X106883218Y-32800431D01*
X106941521Y-33018025D01*
X106941525Y-33018034D01*
X107036732Y-33222207D01*
X107036733Y-33222209D01*
X107085949Y-33292497D01*
X107651211Y-32727235D01*
X107656662Y-32753465D01*
X107723058Y-32881604D01*
X107821564Y-32987077D01*
X107944873Y-33062063D01*
X108006282Y-33079269D01*
X107439501Y-33646049D01*
X107509791Y-33695267D01*
X107713965Y-33790474D01*
X107713974Y-33790478D01*
X107931568Y-33848781D01*
X107931578Y-33848783D01*
X108155999Y-33868418D01*
X108156001Y-33868418D01*
X108380421Y-33848783D01*
X108380431Y-33848781D01*
X108598025Y-33790478D01*
X108598034Y-33790474D01*
X108802208Y-33695267D01*
X108802212Y-33695265D01*
X108872497Y-33646050D01*
X108308566Y-33082119D01*
X108431346Y-33028788D01*
X108543296Y-32937709D01*
X108626522Y-32819805D01*
X108659780Y-32726227D01*
X109226050Y-33292497D01*
X109275265Y-33222212D01*
X109275267Y-33222208D01*
X109370474Y-33018034D01*
X109370478Y-33018025D01*
X109428781Y-32800431D01*
X109428783Y-32800421D01*
X109448418Y-32576000D01*
X109448418Y-32575999D01*
X109428783Y-32351578D01*
X109428781Y-32351568D01*
X109370478Y-32133974D01*
X109370474Y-32133965D01*
X109275267Y-31929791D01*
X109226049Y-31859501D01*
X108660788Y-32424763D01*
X108655338Y-32398535D01*
X108588942Y-32270396D01*
X108490436Y-32164923D01*
X108367127Y-32089937D01*
X108305716Y-32072730D01*
X108872497Y-31505949D01*
X108872497Y-31505948D01*
X108802209Y-31456733D01*
X108802207Y-31456732D01*
X108598034Y-31361525D01*
X108598025Y-31361521D01*
X108380431Y-31303218D01*
X108380421Y-31303216D01*
X108156001Y-31283582D01*
X108155999Y-31283582D01*
X107931578Y-31303216D01*
X107931568Y-31303218D01*
X107713974Y-31361521D01*
X107713965Y-31361525D01*
X107509787Y-31456735D01*
X107439502Y-31505948D01*
X107439501Y-31505949D01*
X108003433Y-32069881D01*
X107880654Y-32123212D01*
X107768704Y-32214291D01*
X107685478Y-32332195D01*
X107652220Y-32425772D01*
X107085949Y-31859501D01*
X107085948Y-31859502D01*
X107036735Y-31929787D01*
X106941525Y-32133965D01*
X106941521Y-32133974D01*
X106883218Y-32351568D01*
X106883216Y-32351578D01*
X106863582Y-32575999D01*
X106863582Y-32576000D01*
X103448920Y-32576000D01*
X103429278Y-32351487D01*
X103370947Y-32133795D01*
X103275702Y-31929540D01*
X103146434Y-31744927D01*
X102987073Y-31585566D01*
X102873367Y-31505948D01*
X102802466Y-31456302D01*
X102802463Y-31456300D01*
X102802460Y-31456298D01*
X102802456Y-31456296D01*
X102598211Y-31361055D01*
X102598200Y-31361051D01*
X102380514Y-31302722D01*
X102380507Y-31302721D01*
X102156002Y-31283080D01*
X102155998Y-31283080D01*
X101931492Y-31302721D01*
X101931485Y-31302722D01*
X101713799Y-31361051D01*
X101713788Y-31361055D01*
X101509543Y-31456296D01*
X101509533Y-31456302D01*
X101324926Y-31585566D01*
X101165566Y-31744926D01*
X101036302Y-31929533D01*
X101036296Y-31929543D01*
X100941055Y-32133788D01*
X100941051Y-32133799D01*
X100882722Y-32351485D01*
X100882721Y-32351492D01*
X100863080Y-32575997D01*
X100863080Y-32576002D01*
X46646140Y-32576002D01*
X46592596Y-32192152D01*
X46497320Y-31787064D01*
X46365074Y-31392495D01*
X46351399Y-31361525D01*
X46241224Y-31112003D01*
X46196985Y-31011812D01*
X46014195Y-30683641D01*
X45994493Y-30648268D01*
X45994492Y-30648267D01*
X45994489Y-30648261D01*
X45759313Y-30304946D01*
X45759307Y-30304939D01*
X45759303Y-30304933D01*
X45493471Y-29984805D01*
X45493462Y-29984794D01*
X45199206Y-29690538D01*
X45199194Y-29690528D01*
X44879066Y-29424696D01*
X44879056Y-29424689D01*
X44879054Y-29424687D01*
X44535739Y-29189511D01*
X44535735Y-29189509D01*
X44535731Y-29189506D01*
X44172198Y-28987020D01*
X44172177Y-28987010D01*
X43791514Y-28818929D01*
X43396933Y-28686679D01*
X42991853Y-28591405D01*
X42991845Y-28591403D01*
X42579707Y-28533913D01*
X42579702Y-28533912D01*
X42579697Y-28533912D01*
X42164000Y-28514693D01*
X41748303Y-28533912D01*
X41748297Y-28533912D01*
X41748292Y-28533913D01*
X41336154Y-28591403D01*
X41336146Y-28591405D01*
X40931066Y-28686679D01*
X40536485Y-28818929D01*
X40155822Y-28987010D01*
X40155801Y-28987020D01*
X39792268Y-29189506D01*
X39792262Y-29189510D01*
X39448943Y-29424689D01*
X39448933Y-29424696D01*
X39128805Y-29690528D01*
X39128785Y-29690546D01*
X38834546Y-29984785D01*
X38834528Y-29984805D01*
X38568696Y-30304933D01*
X38568689Y-30304943D01*
X38333510Y-30648262D01*
X38333506Y-30648268D01*
X38131020Y-31011801D01*
X38131010Y-31011822D01*
X37962929Y-31392485D01*
X37830679Y-31787066D01*
X37735405Y-32192146D01*
X37735403Y-32192154D01*
X37677913Y-32604292D01*
X37677912Y-32604297D01*
X37677912Y-32604303D01*
X37658693Y-33020000D01*
X25880821Y-33020000D01*
X26383168Y-32323363D01*
X26385781Y-32319873D01*
X27029141Y-31491680D01*
X27031852Y-31488316D01*
X27704370Y-30683605D01*
X27707182Y-30680358D01*
X28408053Y-29900096D01*
X28410996Y-29896937D01*
X29139218Y-29142243D01*
X29142243Y-29139218D01*
X29896937Y-28410996D01*
X29900096Y-28408053D01*
X30680358Y-27707182D01*
X30683605Y-27704370D01*
X31488316Y-27031852D01*
X31491680Y-27029141D01*
X31521781Y-27005758D01*
X123295311Y-27005758D01*
X123876000Y-27586446D01*
X123876001Y-27586446D01*
X124456687Y-27005758D01*
X124368413Y-26951101D01*
X124368411Y-26951100D01*
X124178321Y-26877460D01*
X123977928Y-26840000D01*
X123774072Y-26840000D01*
X123573678Y-26877460D01*
X123383588Y-26951100D01*
X123383581Y-26951104D01*
X123295312Y-27005757D01*
X123295311Y-27005758D01*
X31521781Y-27005758D01*
X32319873Y-26385781D01*
X32323363Y-26383168D01*
X33174013Y-25769762D01*
X33177583Y-25767284D01*
X34049560Y-25184647D01*
X34053224Y-25182293D01*
X34945411Y-24631169D01*
X34949208Y-24628917D01*
X35274726Y-24443553D01*
X35860482Y-24109998D01*
X35864318Y-24107902D01*
X35898542Y-24090000D01*
X119002783Y-24090000D01*
X119021626Y-24365495D01*
X119021627Y-24365497D01*
X119077805Y-24635846D01*
X119077810Y-24635862D01*
X119170281Y-24896048D01*
X119170280Y-24896048D01*
X119297324Y-25141232D01*
X119297328Y-25141238D01*
X119431347Y-25331099D01*
X120154741Y-24607704D01*
X120180126Y-24655195D01*
X120306643Y-24809357D01*
X120460805Y-24935874D01*
X120508294Y-24961257D01*
X119786131Y-25683419D01*
X119859254Y-25742909D01*
X120095190Y-25886385D01*
X120348462Y-25996396D01*
X120614358Y-26070898D01*
X120614366Y-26070900D01*
X120887928Y-26108499D01*
X120887929Y-26108500D01*
X121164071Y-26108500D01*
X121164071Y-26108499D01*
X121437633Y-26070900D01*
X121437641Y-26070898D01*
X121703537Y-25996396D01*
X121956809Y-25886385D01*
X122192742Y-25742911D01*
X122192756Y-25742901D01*
X122265866Y-25683419D01*
X121543704Y-24961257D01*
X121591195Y-24935874D01*
X121745357Y-24809357D01*
X121871874Y-24655195D01*
X121897257Y-24607704D01*
X122620651Y-25331098D01*
X122754675Y-25141231D01*
X122881718Y-24896048D01*
X122974189Y-24635862D01*
X122974194Y-24635846D01*
X123030372Y-24365497D01*
X123030373Y-24365495D01*
X123049216Y-24090000D01*
X126302783Y-24090000D01*
X126321626Y-24365495D01*
X126321627Y-24365497D01*
X126377805Y-24635846D01*
X126377810Y-24635862D01*
X126470281Y-24896048D01*
X126470280Y-24896048D01*
X126597324Y-25141232D01*
X126597328Y-25141238D01*
X126731347Y-25331099D01*
X127454741Y-24607704D01*
X127480126Y-24655195D01*
X127606643Y-24809357D01*
X127760805Y-24935874D01*
X127808294Y-24961257D01*
X127086131Y-25683419D01*
X127159254Y-25742909D01*
X127395190Y-25886385D01*
X127648462Y-25996396D01*
X127914358Y-26070898D01*
X127914366Y-26070900D01*
X128187928Y-26108499D01*
X128187929Y-26108500D01*
X128464071Y-26108500D01*
X128464071Y-26108499D01*
X128737633Y-26070900D01*
X128737641Y-26070898D01*
X129003537Y-25996396D01*
X129256809Y-25886385D01*
X129492742Y-25742911D01*
X129492756Y-25742901D01*
X129565866Y-25683419D01*
X128843704Y-24961257D01*
X128891195Y-24935874D01*
X129045357Y-24809357D01*
X129171874Y-24655195D01*
X129197257Y-24607704D01*
X129920651Y-25331098D01*
X130054675Y-25141231D01*
X130181718Y-24896048D01*
X130274189Y-24635862D01*
X130274194Y-24635846D01*
X130330372Y-24365497D01*
X130330373Y-24365495D01*
X130349216Y-24090000D01*
X130330373Y-23814504D01*
X130330372Y-23814502D01*
X130274194Y-23544153D01*
X130274189Y-23544137D01*
X130181718Y-23283951D01*
X130181719Y-23283951D01*
X130054675Y-23038767D01*
X130054671Y-23038761D01*
X129920652Y-22848900D01*
X129197257Y-23572294D01*
X129171874Y-23524805D01*
X129045357Y-23370643D01*
X128891195Y-23244126D01*
X128843705Y-23218742D01*
X129565867Y-22496579D01*
X129492745Y-22437090D01*
X129256809Y-22293614D01*
X129003537Y-22183603D01*
X128737641Y-22109101D01*
X128737633Y-22109099D01*
X128464071Y-22071500D01*
X128187929Y-22071500D01*
X127914366Y-22109099D01*
X127914358Y-22109101D01*
X127648462Y-22183603D01*
X127395190Y-22293614D01*
X127159255Y-22437090D01*
X127159246Y-22437096D01*
X127086131Y-22496579D01*
X127808294Y-23218742D01*
X127760805Y-23244126D01*
X127606643Y-23370643D01*
X127480126Y-23524805D01*
X127454742Y-23572294D01*
X126731347Y-22848899D01*
X126597321Y-23038773D01*
X126470281Y-23283951D01*
X126377810Y-23544137D01*
X126377805Y-23544153D01*
X126321627Y-23814502D01*
X126321626Y-23814504D01*
X126302783Y-24090000D01*
X123049216Y-24090000D01*
X123030373Y-23814504D01*
X123030372Y-23814502D01*
X122974194Y-23544153D01*
X122974189Y-23544137D01*
X122881718Y-23283951D01*
X122881719Y-23283951D01*
X122754675Y-23038767D01*
X122754671Y-23038761D01*
X122620652Y-22848900D01*
X121897257Y-23572294D01*
X121871874Y-23524805D01*
X121745357Y-23370643D01*
X121591195Y-23244126D01*
X121543705Y-23218742D01*
X122265867Y-22496579D01*
X122192745Y-22437090D01*
X121956809Y-22293614D01*
X121703537Y-22183603D01*
X121437641Y-22109101D01*
X121437633Y-22109099D01*
X121164071Y-22071500D01*
X120887929Y-22071500D01*
X120614366Y-22109099D01*
X120614358Y-22109101D01*
X120348462Y-22183603D01*
X120095190Y-22293614D01*
X119859255Y-22437090D01*
X119859246Y-22437096D01*
X119786131Y-22496579D01*
X120508294Y-23218742D01*
X120460805Y-23244126D01*
X120306643Y-23370643D01*
X120180126Y-23524805D01*
X120154742Y-23572294D01*
X119431347Y-22848899D01*
X119297321Y-23038773D01*
X119170281Y-23283951D01*
X119077810Y-23544137D01*
X119077805Y-23544153D01*
X119021627Y-23814502D01*
X119021626Y-23814504D01*
X119002783Y-24090000D01*
X35898542Y-24090000D01*
X36793589Y-23621809D01*
X36797487Y-23619858D01*
X37743513Y-23167244D01*
X37747452Y-23165446D01*
X38709018Y-22746891D01*
X38713078Y-22745210D01*
X39688957Y-22361248D01*
X39693019Y-22359732D01*
X40682012Y-22010835D01*
X40686147Y-22009459D01*
X41686933Y-21696093D01*
X41691149Y-21694855D01*
X42702504Y-21417403D01*
X42706714Y-21416330D01*
X43727317Y-21175155D01*
X43731561Y-21174231D01*
X44760118Y-20969639D01*
X44764428Y-20968862D01*
X45799656Y-20801106D01*
X45803922Y-20800493D01*
X46844472Y-20669796D01*
X46848838Y-20669326D01*
X47893370Y-20575854D01*
X47897681Y-20575545D01*
X48944911Y-20519412D01*
X48949279Y-20519256D01*
X49998880Y-20500520D01*
X50001093Y-20500500D01*
X50065892Y-20500500D01*
X199934108Y-20500500D01*
X199998907Y-20500500D01*
X200001120Y-20500520D01*
G37*
%TD.AperFunction*%
%TD*%
M02*
