%TF.GenerationSoftware,KiCad,Pcbnew,7.0.10*%
%TF.CreationDate,2024-12-08T15:27:32+00:00*%
%TF.ProjectId,buran,62757261-6e2e-46b6-9963-61645f706362,rev?*%
%TF.SameCoordinates,Original*%
%TF.FileFunction,Copper,L2,Bot*%
%TF.FilePolarity,Positive*%
%FSLAX46Y46*%
G04 Gerber Fmt 4.6, Leading zero omitted, Abs format (unit mm)*
G04 Created by KiCad (PCBNEW 7.0.10) date 2024-12-08 15:27:32*
%MOMM*%
%LPD*%
G01*
G04 APERTURE LIST*
%TA.AperFunction,ComponentPad*%
%ADD10C,8.000000*%
%TD*%
%TA.AperFunction,ComponentPad*%
%ADD11C,0.495000*%
%TD*%
%TA.AperFunction,ComponentPad*%
%ADD12C,1.650000*%
%TD*%
%TA.AperFunction,ComponentPad*%
%ADD13R,1.650000X1.650000*%
%TD*%
%TA.AperFunction,ComponentPad*%
%ADD14C,1.800000*%
%TD*%
%TA.AperFunction,ComponentPad*%
%ADD15R,1.800000X1.800000*%
%TD*%
%TA.AperFunction,ComponentPad*%
%ADD16C,1.575000*%
%TD*%
%TA.AperFunction,ViaPad*%
%ADD17C,0.600000*%
%TD*%
%TA.AperFunction,Conductor*%
%ADD18C,0.127000*%
%TD*%
G04 APERTURE END LIST*
D10*
%TO.P,,1*%
%TO.N,N/C*%
X166000000Y-123000000D03*
%TD*%
%TO.P,,1*%
%TO.N,N/C*%
X166200000Y-25800000D03*
%TD*%
%TO.P,,1*%
%TO.N,N/C*%
X39000000Y-25000000D03*
%TD*%
%TO.P,,1*%
%TO.N,N/C*%
X38800000Y-122200000D03*
%TD*%
%TO.P,,1*%
%TO.N,N/C*%
X38800000Y-122200000D03*
%TD*%
D11*
%TO.P,J4,7*%
%TO.N,N/C*%
X142460000Y-66799000D03*
%TO.P,J4,8*%
X147540000Y-65783000D03*
%TO.P,J4,9*%
X147540000Y-67815000D03*
%TD*%
D12*
%TO.P,J1,20,20*%
%TO.N,/MCU_DBG_1*%
X60000000Y-55380000D03*
%TO.P,J1,19,19*%
%TO.N,/USART_TX*%
X62540000Y-55380000D03*
%TO.P,J1,18,18*%
%TO.N,/MCU_DBG_2*%
X60000000Y-57920000D03*
%TO.P,J1,17,17*%
%TO.N,/USART_RX*%
X62540000Y-57920000D03*
%TO.P,J1,16,16*%
%TO.N,/MCU_DBG_3*%
X60000000Y-60460000D03*
%TO.P,J1,15,15*%
%TO.N,unconnected-(J1-Pad15)*%
X62540000Y-60460000D03*
%TO.P,J1,14,14*%
%TO.N,/MCU_DBG_4*%
X60000000Y-63000000D03*
%TO.P,J1,13,13*%
%TO.N,/N_RESET*%
X62540000Y-63000000D03*
%TO.P,J1,12,12*%
%TO.N,/MCU_DBG_5*%
X60000000Y-65540000D03*
%TO.P,J1,11,11*%
%TO.N,unconnected-(J1-Pad11)*%
X62540000Y-65540000D03*
%TO.P,J1,10,10*%
%TO.N,unconnected-(J1-Pad10)*%
X60000000Y-68080000D03*
%TO.P,J1,9,9*%
%TO.N,unconnected-(J1-Pad9)*%
X62540000Y-68080000D03*
%TO.P,J1,8,8*%
%TO.N,unconnected-(J1-Pad8)*%
X60000000Y-70620000D03*
%TO.P,J1,7,7*%
%TO.N,unconnected-(J1-Pad7)*%
X62540000Y-70620000D03*
%TO.P,J1,6,6*%
%TO.N,unconnected-(J1-Pad6)*%
X60000000Y-73160000D03*
%TO.P,J1,5,5*%
%TO.N,unconnected-(J1-Pad5)*%
X62540000Y-73160000D03*
%TO.P,J1,4,4*%
%TO.N,unconnected-(J1-Pad4)*%
X60000000Y-75700000D03*
%TO.P,J1,3,3*%
%TO.N,/V_UNREG*%
X62540000Y-75700000D03*
%TO.P,J1,2,2*%
%TO.N,GND*%
X60000000Y-78240000D03*
D13*
%TO.P,J1,1,1*%
%TO.N,VDD*%
X62540000Y-78240000D03*
%TD*%
D14*
%TO.P,S2,7,L3*%
%TO.N,/V_LEDs*%
X77550000Y-122000000D03*
%TO.P,S2,6,L4*%
%TO.N,Net-(S2-L4)*%
X77550000Y-116920000D03*
%TO.P,S2,5,L1*%
%TO.N,/V_LEDs*%
X80090000Y-116920000D03*
%TO.P,S2,4,L2*%
X80090000Y-122000000D03*
%TO.P,S2,3,NC*%
%TO.N,unconnected-(S2-NC-Pad3)*%
X83900000Y-114380000D03*
%TO.P,S2,2,NO*%
%TO.N,GND*%
X83900000Y-119460000D03*
%TO.P,S2,1,COM*%
%TO.N,/MCU_S2*%
X83900000Y-124540000D03*
%TD*%
%TO.P,S3,7,L3*%
%TO.N,Net-(S3-L3)*%
X123270000Y-122000000D03*
%TO.P,S3,6,L4*%
%TO.N,/V_LEDs*%
X123270000Y-116920000D03*
%TO.P,S3,5,L1*%
X125810000Y-116920000D03*
%TO.P,S3,4,L2*%
X125810000Y-122000000D03*
%TO.P,S3,3,NC*%
%TO.N,unconnected-(S3-NC-Pad3)*%
X129620000Y-114380000D03*
%TO.P,S3,2,NO*%
%TO.N,GND*%
X129620000Y-119460000D03*
%TO.P,S3,1,COM*%
%TO.N,/MCU_S3*%
X129620000Y-124540000D03*
%TD*%
D15*
%TO.P,J3,1,1*%
%TO.N,unconnected-(J3-Pad1)*%
X115600000Y-17400000D03*
D14*
%TO.P,J3,2,2*%
%TO.N,unconnected-(J3-Pad2)*%
X115600000Y-19940000D03*
%TO.P,J3,3,3*%
%TO.N,GND*%
X115600000Y-22480000D03*
%TO.P,J3,4,4*%
%TO.N,unconnected-(J3-Pad4)*%
X115600000Y-25020000D03*
%TO.P,J3,5,5*%
%TO.N,/USART_TX*%
X115600000Y-27560000D03*
%TO.P,J3,6,6*%
%TO.N,unconnected-(J3-Pad6)*%
X115600000Y-30100000D03*
%TO.P,J3,7,7*%
%TO.N,unconnected-(J3-Pad7)*%
X115600000Y-32640000D03*
%TO.P,J3,8,8*%
%TO.N,unconnected-(J3-Pad8)*%
X115600000Y-35180000D03*
%TO.P,J3,9,9*%
%TO.N,/USART_RX*%
X115600000Y-37720000D03*
%TD*%
%TO.P,S1,1,COM*%
%TO.N,/MCU_S1*%
X58500000Y-124540000D03*
%TO.P,S1,2,NO*%
%TO.N,GND*%
X58500000Y-119460000D03*
%TO.P,S1,3,NC*%
%TO.N,unconnected-(S1-NC-Pad3)*%
X58500000Y-114380000D03*
%TO.P,S1,4,L2*%
%TO.N,/V_LEDs*%
X54690000Y-122000000D03*
%TO.P,S1,5,L1*%
%TO.N,Net-(S1-L1)*%
X54690000Y-116920000D03*
%TO.P,S1,6,L4*%
%TO.N,/V_LEDs*%
X52150000Y-116920000D03*
%TO.P,S1,7,L3*%
X52150000Y-122000000D03*
%TD*%
D15*
%TO.P,J2,1,1*%
%TO.N,unconnected-(J2-Pad1)*%
X100100000Y-17400000D03*
D14*
%TO.P,J2,2,2*%
%TO.N,unconnected-(J2-Pad2)*%
X100100000Y-19940000D03*
%TO.P,J2,3,3*%
%TO.N,unconnected-(J2-Pad3)*%
X100100000Y-22480000D03*
%TO.P,J2,4,4*%
%TO.N,unconnected-(J2-Pad4)*%
X100100000Y-25020000D03*
%TO.P,J2,5,5*%
%TO.N,VDD*%
X100100000Y-27560000D03*
%TO.P,J2,6,6*%
%TO.N,/V_UNREG*%
X100100000Y-30100000D03*
%TO.P,J2,7,7*%
%TO.N,unconnected-(J2-Pad7)*%
X100100000Y-32640000D03*
%TO.P,J2,8,8*%
%TO.N,unconnected-(J2-Pad8)*%
X100100000Y-35180000D03*
%TO.P,J2,9,9*%
%TO.N,GND*%
X100100000Y-37720000D03*
%TD*%
%TO.P,S4,7,L3*%
%TO.N,Net-(S4-L3)*%
X148670000Y-122000000D03*
%TO.P,S4,6,L4*%
%TO.N,Net-(S4-L4)*%
X148670000Y-116920000D03*
%TO.P,S4,5,L1*%
%TO.N,Net-(S4-L1)*%
X151210000Y-116920000D03*
%TO.P,S4,4,L2*%
%TO.N,/V_LEDs*%
X151210000Y-122000000D03*
%TO.P,S4,3,NC*%
%TO.N,unconnected-(S4-NC-Pad3)*%
X155020000Y-114380000D03*
%TO.P,S4,2,NO*%
%TO.N,GND*%
X155020000Y-119460000D03*
%TO.P,S4,1,COM*%
%TO.N,/MCU_S4*%
X155020000Y-124540000D03*
%TD*%
D16*
%TO.P,S5,A1,A1*%
%TO.N,/N_RESET*%
X147560800Y-51793400D03*
%TO.P,S5,B1,B1*%
%TO.N,GND*%
X147560800Y-45793400D03*
%TO.P,S5,C1,C1*%
%TO.N,/N_RESET*%
X139560800Y-51793400D03*
%TO.P,S5,D1,D1*%
%TO.N,GND*%
X139560800Y-45793400D03*
%TD*%
D17*
%TO.N,GND*%
X98800000Y-56200000D03*
X97100000Y-54900000D03*
X102800000Y-53200000D03*
X96300000Y-54600000D03*
X94200000Y-37800000D03*
X92600000Y-35100000D03*
X100600000Y-108500000D03*
X107100000Y-23600000D03*
X118338600Y-102539800D03*
X142671800Y-103784400D03*
X154228800Y-84099400D03*
X166471600Y-52247800D03*
X123469400Y-34137600D03*
X47904400Y-75641200D03*
X34000000Y-116000000D03*
X33274000Y-95250000D03*
X65608200Y-35026600D03*
X65405000Y-31623000D03*
X54203600Y-33629600D03*
X53365400Y-31496000D03*
X42519600Y-32893000D03*
X41148000Y-31140400D03*
X87706200Y-46456600D03*
X85547200Y-46304200D03*
X109169200Y-74269600D03*
X109220000Y-73101200D03*
X109855000Y-73761600D03*
%TO.N,VDD*%
X80238600Y-43383200D03*
X62230000Y-43535600D03*
%TO.N,/USART_RX*%
X100457000Y-81026000D03*
%TO.N,/USART_TX*%
X101041200Y-78486000D03*
%TO.N,/MCU_LED_1*%
X93853000Y-66065400D03*
X74777600Y-52959000D03*
X96570800Y-68351400D03*
X88493600Y-62077600D03*
%TO.N,/MCU_LED_2*%
X85293200Y-61899800D03*
X79552800Y-56210200D03*
%TO.N,/MCU_DBG_5*%
X105359200Y-69367400D03*
X84785200Y-70916800D03*
X73253600Y-69596000D03*
X78210036Y-69516364D03*
X80797400Y-70815200D03*
%TO.N,VDD*%
X91973400Y-63779400D03*
X89585800Y-71450200D03*
X78028800Y-73863200D03*
%TO.N,/V_UNREG*%
X96520000Y-60096400D03*
X75768200Y-73380600D03*
X81153000Y-67335400D03*
%TO.N,/N_RESET*%
X148818600Y-53136800D03*
%TO.N,VDD*%
X125374400Y-71882000D03*
X129387600Y-71856600D03*
%TO.N,/SWDIO*%
X117322600Y-77089000D03*
X131927600Y-73177400D03*
%TO.N,/SWCLK*%
X141274800Y-64058800D03*
X127330200Y-76149200D03*
%TO.N,/N_RESET*%
X145034000Y-70662800D03*
X128574800Y-78333600D03*
X104521000Y-79705200D03*
X103378000Y-75260200D03*
X78562200Y-57658000D03*
X74803000Y-62839600D03*
%TO.N,/USART_RX*%
X85674200Y-79705200D03*
X64000000Y-58000000D03*
%TO.N,/USART_TX*%
X86000000Y-78000000D03*
X65000000Y-55905000D03*
%TO.N,/MCU_DBG_1*%
X88000000Y-77000000D03*
X79000000Y-59000000D03*
%TO.N,/MCU_DBG_2*%
X88000000Y-73000000D03*
X84000000Y-65000000D03*
%TO.N,/MCU_DBG_3*%
X86000000Y-69000000D03*
X92000000Y-72000000D03*
%TD*%
D18*
%TO.N,/USART_RX*%
X109804200Y-82067400D02*
X115500000Y-76371600D01*
X115500000Y-37820000D02*
X115600000Y-37720000D01*
X100457000Y-81026000D02*
X101498400Y-82067400D01*
X101498400Y-82067400D02*
X109804200Y-82067400D01*
X115500000Y-76371600D02*
X115500000Y-37820000D01*
%TO.N,/USART_TX*%
X112090500Y-31069500D02*
X115600000Y-27560000D01*
X112090500Y-78384100D02*
X112090500Y-31069500D01*
X103886000Y-81330800D02*
X109143800Y-81330800D01*
X109143800Y-81330800D02*
X112090500Y-78384100D01*
X101041200Y-78486000D02*
X103886000Y-81330800D01*
%TO.N,VDD*%
X80086200Y-43535600D02*
X80238600Y-43383200D01*
X62230000Y-43535600D02*
X80086200Y-43535600D01*
%TO.N,/MCU_LED_1*%
X96139000Y-68351400D02*
X96570800Y-68351400D01*
X93853000Y-66065400D02*
X96139000Y-68351400D01*
X88468200Y-62077600D02*
X88493600Y-62077600D01*
X86944200Y-60553600D02*
X88468200Y-62077600D01*
X79349600Y-52959000D02*
X86944200Y-60553600D01*
X74777600Y-52959000D02*
X79349600Y-52959000D01*
%TO.N,/MCU_LED_2*%
X79552800Y-56210200D02*
X85242400Y-61899800D01*
X85242400Y-61899800D02*
X85293200Y-61899800D01*
%TO.N,/MCU_DBG_5*%
X102006400Y-72720200D02*
X105359200Y-69367400D01*
X96850200Y-72720200D02*
X102006400Y-72720200D01*
X96697800Y-72872600D02*
X96850200Y-72720200D01*
X95758000Y-73812400D02*
X96697800Y-72872600D01*
X89027000Y-73812400D02*
X95758000Y-73812400D01*
X84785200Y-70916800D02*
X87680800Y-73812400D01*
X87680800Y-73812400D02*
X89027000Y-73812400D01*
X79508872Y-70815200D02*
X80797400Y-70815200D01*
X78210036Y-69516364D02*
X79508872Y-70815200D01*
X70722100Y-67064500D02*
X73253600Y-69596000D01*
X61524500Y-67064500D02*
X70722100Y-67064500D01*
X60000000Y-65540000D02*
X61524500Y-67064500D01*
%TO.N,VDD*%
X91998800Y-63804800D02*
X91973400Y-63779400D01*
X91998800Y-64592200D02*
X91998800Y-63804800D01*
X91998800Y-69037200D02*
X91998800Y-64592200D01*
X89585800Y-71450200D02*
X91998800Y-69037200D01*
X73652000Y-78240000D02*
X78028800Y-73863200D01*
X62540000Y-78240000D02*
X73652000Y-78240000D01*
%TO.N,/V_UNREG*%
X93751400Y-62865000D02*
X96520000Y-60096400D01*
X83667600Y-62865000D02*
X93751400Y-62865000D01*
X81153000Y-65379600D02*
X83667600Y-62865000D01*
X81153000Y-67335400D02*
X81153000Y-65379600D01*
X73448800Y-75700000D02*
X75768200Y-73380600D01*
X62540000Y-75700000D02*
X73448800Y-75700000D01*
%TO.N,/N_RESET*%
X149098000Y-53416200D02*
X148818600Y-53136800D01*
X149098000Y-62509400D02*
X149098000Y-53416200D01*
X149098000Y-68148200D02*
X149098000Y-62509400D01*
X145034000Y-72212200D02*
X149098000Y-68148200D01*
X145034000Y-72212200D02*
X145034000Y-70662800D01*
X145034000Y-72263000D02*
X145034000Y-72212200D01*
%TO.N,VDD*%
X129387600Y-71856600D02*
X125399800Y-71856600D01*
X125399800Y-71856600D02*
X125374400Y-71882000D01*
%TO.N,/SWDIO*%
X131927600Y-73177400D02*
X128016000Y-77089000D01*
X128016000Y-77089000D02*
X117322600Y-77089000D01*
%TO.N,/SWCLK*%
X139420600Y-64058800D02*
X141274800Y-64058800D01*
X127330200Y-76149200D02*
X139420600Y-64058800D01*
%TO.N,/N_RESET*%
X138963400Y-78333600D02*
X145034000Y-72263000D01*
X128574800Y-78333600D02*
X138963400Y-78333600D01*
X103378000Y-78562200D02*
X104521000Y-79705200D01*
X103378000Y-75260200D02*
X103378000Y-78562200D01*
X74803000Y-62839600D02*
X74803000Y-61417200D01*
X74803000Y-61417200D02*
X78562200Y-57658000D01*
%TO.N,/USART_RX*%
X85674200Y-79674200D02*
X64000000Y-58000000D01*
X85674200Y-79705200D02*
X85674200Y-79674200D01*
%TO.N,/USART_TX*%
X65000000Y-57000000D02*
X86000000Y-78000000D01*
X65000000Y-55905000D02*
X65000000Y-57000000D01*
%TO.N,/MCU_DBG_1*%
X79000000Y-68000000D02*
X88000000Y-77000000D01*
X79000000Y-59000000D02*
X79000000Y-68000000D01*
%TO.N,/MCU_DBG_2*%
X84000000Y-69000000D02*
X88000000Y-73000000D01*
X84000000Y-65000000D02*
X84000000Y-69000000D01*
%TO.N,/MCU_DBG_3*%
X86000000Y-69000000D02*
X89000000Y-72000000D01*
X89000000Y-72000000D02*
X92000000Y-72000000D01*
%TD*%
%TA.AperFunction,Conductor*%
%TO.N,GND*%
G36*
X61337865Y-76302504D02*
G01*
X61382381Y-76353878D01*
X61387699Y-76365282D01*
X61480446Y-76497738D01*
X61520730Y-76555269D01*
X61676034Y-76710573D01*
X61709519Y-76771896D01*
X61704535Y-76841588D01*
X61662663Y-76897521D01*
X61614447Y-76916496D01*
X61615068Y-76919124D01*
X61607520Y-76920907D01*
X61472671Y-76971202D01*
X61472664Y-76971206D01*
X61357455Y-77057452D01*
X61357452Y-77057455D01*
X61271206Y-77172664D01*
X61271202Y-77172671D01*
X61220908Y-77307517D01*
X61214501Y-77367116D01*
X61214501Y-77367123D01*
X61214500Y-77367135D01*
X61214500Y-77371536D01*
X61194815Y-77438575D01*
X61142011Y-77484330D01*
X61102398Y-77491153D01*
X60525929Y-78067622D01*
X60523116Y-78054085D01*
X60453558Y-77919844D01*
X60350362Y-77809348D01*
X60221181Y-77730791D01*
X60169996Y-77716449D01*
X60743422Y-77143023D01*
X60665029Y-77088132D01*
X60653286Y-77082656D01*
X60600848Y-77036482D01*
X60581697Y-76969289D01*
X60601914Y-76902408D01*
X60653289Y-76857893D01*
X60665282Y-76852301D01*
X60855269Y-76719270D01*
X61019270Y-76555269D01*
X61152301Y-76365282D01*
X61157618Y-76353878D01*
X61203790Y-76301440D01*
X61270984Y-76282288D01*
X61337865Y-76302504D01*
G37*
%TD.AperFunction*%
%TA.AperFunction,Conductor*%
G36*
X151902265Y-14821587D02*
G01*
X151910033Y-14821583D01*
X151910036Y-14821584D01*
X151974710Y-14821552D01*
X151977068Y-14821574D01*
X152948701Y-14840188D01*
X152953524Y-14840376D01*
X153922401Y-14897047D01*
X153927173Y-14897419D01*
X154893110Y-14992088D01*
X154897914Y-14992655D01*
X155859395Y-15125174D01*
X155864115Y-15125919D01*
X156819601Y-15296075D01*
X156824349Y-15297017D01*
X157772460Y-15504562D01*
X157777147Y-15505686D01*
X158716336Y-15750283D01*
X158720971Y-15751587D01*
X159560809Y-16005909D01*
X159649855Y-16032874D01*
X159654480Y-16034374D01*
X160571564Y-16351899D01*
X160576109Y-16353573D01*
X160828288Y-16452135D01*
X161480029Y-16706861D01*
X161484521Y-16708719D01*
X162373884Y-17097225D01*
X162378257Y-17099239D01*
X163251718Y-17522380D01*
X163256017Y-17524569D01*
X164112150Y-17981654D01*
X164116390Y-17984025D01*
X164839671Y-18407482D01*
X164953905Y-18474362D01*
X164958058Y-18476904D01*
X165775671Y-18999740D01*
X165779721Y-19002443D01*
X166470934Y-19483699D01*
X166576179Y-19556975D01*
X166580110Y-19559827D01*
X166776966Y-19708695D01*
X167354210Y-20145222D01*
X167358028Y-20148229D01*
X168108551Y-20763565D01*
X168112212Y-20766690D01*
X168838006Y-21411024D01*
X168841531Y-21414279D01*
X169108321Y-21670546D01*
X169541457Y-22086599D01*
X169544902Y-22090040D01*
X170217881Y-22789308D01*
X170221187Y-22792882D01*
X170866201Y-23518039D01*
X170869353Y-23521726D01*
X171403669Y-24172154D01*
X171485383Y-24271625D01*
X171488393Y-24275439D01*
X171706817Y-24563699D01*
X172074510Y-25048952D01*
X172077374Y-25052890D01*
X172632687Y-25848839D01*
X172635394Y-25852886D01*
X173159007Y-26669986D01*
X173161553Y-26674136D01*
X173652693Y-27511182D01*
X173655074Y-27515429D01*
X174112970Y-28371103D01*
X174115183Y-28375441D01*
X174533508Y-29236852D01*
X174539141Y-29248450D01*
X174541177Y-29252863D01*
X174912204Y-30099993D01*
X174930518Y-30141807D01*
X174932381Y-30146298D01*
X174940132Y-30166072D01*
X175286545Y-31049903D01*
X175288232Y-31054471D01*
X175606627Y-31971224D01*
X175608134Y-31975854D01*
X175890298Y-32904420D01*
X175891622Y-32909105D01*
X176128861Y-33816470D01*
X176137117Y-33848044D01*
X176138253Y-33852770D01*
X176202756Y-34146081D01*
X176346696Y-34800622D01*
X176347648Y-34805397D01*
X176518714Y-35760689D01*
X176519478Y-35765498D01*
X176652907Y-36726763D01*
X176653482Y-36731598D01*
X176749073Y-37697389D01*
X176749457Y-37702243D01*
X176807053Y-38671002D01*
X176807247Y-38675867D01*
X176816383Y-39129972D01*
X176826793Y-39647444D01*
X176826818Y-39649883D01*
X176826818Y-109574397D01*
X176826782Y-109574948D01*
X176826817Y-109647331D01*
X176826794Y-109649766D01*
X176808181Y-110621362D01*
X176807992Y-110626228D01*
X176751324Y-111595042D01*
X176750945Y-111599896D01*
X176656282Y-112565776D01*
X176655712Y-112570612D01*
X176523201Y-113532033D01*
X176522441Y-113536842D01*
X176352296Y-114492269D01*
X176351349Y-114497045D01*
X176143812Y-115445118D01*
X176142677Y-115449853D01*
X175898093Y-116388992D01*
X175896774Y-116393679D01*
X175615494Y-117322536D01*
X175613991Y-117327168D01*
X175296473Y-118244234D01*
X175294790Y-118248803D01*
X174941507Y-119152710D01*
X174939646Y-119157209D01*
X174551154Y-120046539D01*
X174549118Y-120050962D01*
X174125998Y-120924378D01*
X174123789Y-120928718D01*
X173666714Y-121784832D01*
X173664337Y-121789081D01*
X173174006Y-122626586D01*
X173171464Y-122630739D01*
X172648629Y-123448352D01*
X172645926Y-123452402D01*
X172091393Y-124248860D01*
X172088533Y-124252801D01*
X171503146Y-125026891D01*
X171500133Y-125030716D01*
X170884833Y-125781195D01*
X170881673Y-125784899D01*
X170237356Y-126510674D01*
X170234052Y-126514251D01*
X169561769Y-127214138D01*
X169558328Y-127217583D01*
X168859061Y-127890562D01*
X168855487Y-127893869D01*
X168130345Y-128538869D01*
X168126644Y-128542033D01*
X167376727Y-129158076D01*
X167372904Y-129161092D01*
X166599405Y-129747200D01*
X166595467Y-129750064D01*
X165799542Y-130305359D01*
X165795495Y-130308066D01*
X164978382Y-130831687D01*
X164974232Y-130834233D01*
X164137186Y-131325375D01*
X164132939Y-131327756D01*
X163277266Y-131785651D01*
X163272928Y-131787864D01*
X162399918Y-132211821D01*
X162395497Y-132213861D01*
X161506561Y-132603198D01*
X161502064Y-132605064D01*
X160598466Y-132959225D01*
X160593898Y-132960912D01*
X159677144Y-133279307D01*
X159672514Y-133280814D01*
X158743943Y-133562981D01*
X158739257Y-133564305D01*
X157800330Y-133809795D01*
X157795597Y-133810934D01*
X156847748Y-134019376D01*
X156842972Y-134020328D01*
X155887680Y-134191394D01*
X155882871Y-134192158D01*
X154921606Y-134325587D01*
X154916771Y-134326162D01*
X153950980Y-134421753D01*
X153946126Y-134422137D01*
X152977367Y-134479733D01*
X152972502Y-134479927D01*
X152420847Y-134491025D01*
X152000826Y-134499475D01*
X151998387Y-134499500D01*
X52073972Y-134499500D01*
X52073422Y-134499464D01*
X52001038Y-134499499D01*
X51998603Y-134499476D01*
X51027007Y-134480863D01*
X51022141Y-134480674D01*
X50053327Y-134424006D01*
X50048473Y-134423627D01*
X49082593Y-134328964D01*
X49077757Y-134328394D01*
X48116336Y-134195883D01*
X48111527Y-134195123D01*
X48094877Y-134192158D01*
X48003378Y-134175863D01*
X47156100Y-134024978D01*
X47151324Y-134024031D01*
X46203251Y-133816494D01*
X46198516Y-133815359D01*
X45259377Y-133570775D01*
X45254690Y-133569456D01*
X44325833Y-133288176D01*
X44321201Y-133286673D01*
X43404135Y-132969155D01*
X43399566Y-132967472D01*
X42495658Y-132614189D01*
X42491159Y-132612328D01*
X41601829Y-132223836D01*
X41597406Y-132221800D01*
X40723990Y-131798680D01*
X40719650Y-131796471D01*
X39863537Y-131339396D01*
X39859288Y-131337019D01*
X39021783Y-130846688D01*
X39017630Y-130844146D01*
X38200016Y-130321311D01*
X38195966Y-130318608D01*
X37399509Y-129764076D01*
X37395568Y-129761216D01*
X36621477Y-129175828D01*
X36617652Y-129172815D01*
X35867173Y-128557515D01*
X35863469Y-128554355D01*
X35137694Y-127910038D01*
X35134117Y-127906734D01*
X34434230Y-127234451D01*
X34430785Y-127231010D01*
X33757806Y-126531743D01*
X33754499Y-126528169D01*
X33109499Y-125803027D01*
X33106335Y-125799326D01*
X33032437Y-125709369D01*
X32490283Y-125049398D01*
X32487276Y-125045586D01*
X32476008Y-125030716D01*
X31901167Y-124272086D01*
X31898304Y-124268149D01*
X31789048Y-124111549D01*
X31343009Y-123472224D01*
X31340302Y-123468177D01*
X30816681Y-122651064D01*
X30814135Y-122646914D01*
X30570269Y-122231297D01*
X30551905Y-122200000D01*
X34294693Y-122200000D01*
X34313912Y-122615697D01*
X34313912Y-122615702D01*
X34313913Y-122615707D01*
X34371403Y-123027845D01*
X34371405Y-123027853D01*
X34466679Y-123432933D01*
X34598929Y-123827514D01*
X34767010Y-124208177D01*
X34767020Y-124208198D01*
X34969506Y-124571731D01*
X34969509Y-124571735D01*
X34969511Y-124571739D01*
X35204687Y-124915054D01*
X35204689Y-124915056D01*
X35204696Y-124915066D01*
X35448651Y-125208849D01*
X35470538Y-125235206D01*
X35764794Y-125529462D01*
X35764805Y-125529471D01*
X36084933Y-125795303D01*
X36084939Y-125795307D01*
X36084946Y-125795313D01*
X36428261Y-126030489D01*
X36428267Y-126030492D01*
X36428268Y-126030493D01*
X36436729Y-126035206D01*
X36791812Y-126232985D01*
X36982153Y-126317029D01*
X37172485Y-126401070D01*
X37172488Y-126401071D01*
X37172495Y-126401074D01*
X37567064Y-126533320D01*
X37972152Y-126628596D01*
X38384303Y-126686088D01*
X38800000Y-126705307D01*
X39215697Y-126686088D01*
X39627848Y-126628596D01*
X40032936Y-126533320D01*
X40427505Y-126401074D01*
X40808188Y-126232985D01*
X41171739Y-126030489D01*
X41515054Y-125795313D01*
X41835206Y-125529462D01*
X42129462Y-125235206D01*
X42395313Y-124915054D01*
X42630489Y-124571739D01*
X42648164Y-124540006D01*
X57094700Y-124540006D01*
X57113864Y-124771297D01*
X57113866Y-124771308D01*
X57170842Y-124996300D01*
X57264075Y-125208848D01*
X57391016Y-125403147D01*
X57391019Y-125403151D01*
X57391021Y-125403153D01*
X57548216Y-125573913D01*
X57548219Y-125573915D01*
X57548222Y-125573918D01*
X57731365Y-125716464D01*
X57731371Y-125716468D01*
X57731374Y-125716470D01*
X57935497Y-125826936D01*
X58049487Y-125866068D01*
X58155015Y-125902297D01*
X58155017Y-125902297D01*
X58155019Y-125902298D01*
X58383951Y-125940500D01*
X58383952Y-125940500D01*
X58616048Y-125940500D01*
X58616049Y-125940500D01*
X58844981Y-125902298D01*
X59064503Y-125826936D01*
X59268626Y-125716470D01*
X59270446Y-125715054D01*
X59330129Y-125668600D01*
X59451784Y-125573913D01*
X59608979Y-125403153D01*
X59735924Y-125208849D01*
X59829157Y-124996300D01*
X59886134Y-124771305D01*
X59898049Y-124627514D01*
X59905300Y-124540006D01*
X82494700Y-124540006D01*
X82513864Y-124771297D01*
X82513866Y-124771308D01*
X82570842Y-124996300D01*
X82664075Y-125208848D01*
X82791016Y-125403147D01*
X82791019Y-125403151D01*
X82791021Y-125403153D01*
X82948216Y-125573913D01*
X82948219Y-125573915D01*
X82948222Y-125573918D01*
X83131365Y-125716464D01*
X83131371Y-125716468D01*
X83131374Y-125716470D01*
X83335497Y-125826936D01*
X83449487Y-125866068D01*
X83555015Y-125902297D01*
X83555017Y-125902297D01*
X83555019Y-125902298D01*
X83783951Y-125940500D01*
X83783952Y-125940500D01*
X84016048Y-125940500D01*
X84016049Y-125940500D01*
X84244981Y-125902298D01*
X84464503Y-125826936D01*
X84668626Y-125716470D01*
X84670446Y-125715054D01*
X84730129Y-125668600D01*
X84851784Y-125573913D01*
X85008979Y-125403153D01*
X85135924Y-125208849D01*
X85229157Y-124996300D01*
X85286134Y-124771305D01*
X85298049Y-124627514D01*
X85305300Y-124540006D01*
X128214700Y-124540006D01*
X128233864Y-124771297D01*
X128233866Y-124771308D01*
X128290842Y-124996300D01*
X128384075Y-125208848D01*
X128511016Y-125403147D01*
X128511019Y-125403151D01*
X128511021Y-125403153D01*
X128668216Y-125573913D01*
X128668219Y-125573915D01*
X128668222Y-125573918D01*
X128851365Y-125716464D01*
X128851371Y-125716468D01*
X128851374Y-125716470D01*
X129055497Y-125826936D01*
X129169487Y-125866068D01*
X129275015Y-125902297D01*
X129275017Y-125902297D01*
X129275019Y-125902298D01*
X129503951Y-125940500D01*
X129503952Y-125940500D01*
X129736048Y-125940500D01*
X129736049Y-125940500D01*
X129964981Y-125902298D01*
X130184503Y-125826936D01*
X130388626Y-125716470D01*
X130390446Y-125715054D01*
X130450129Y-125668600D01*
X130571784Y-125573913D01*
X130728979Y-125403153D01*
X130855924Y-125208849D01*
X130949157Y-124996300D01*
X131006134Y-124771305D01*
X131018049Y-124627514D01*
X131025300Y-124540006D01*
X153614700Y-124540006D01*
X153633864Y-124771297D01*
X153633866Y-124771308D01*
X153690842Y-124996300D01*
X153784075Y-125208848D01*
X153911016Y-125403147D01*
X153911019Y-125403151D01*
X153911021Y-125403153D01*
X154068216Y-125573913D01*
X154068219Y-125573915D01*
X154068222Y-125573918D01*
X154251365Y-125716464D01*
X154251371Y-125716468D01*
X154251374Y-125716470D01*
X154455497Y-125826936D01*
X154569487Y-125866068D01*
X154675015Y-125902297D01*
X154675017Y-125902297D01*
X154675019Y-125902298D01*
X154903951Y-125940500D01*
X154903952Y-125940500D01*
X155136048Y-125940500D01*
X155136049Y-125940500D01*
X155364981Y-125902298D01*
X155584503Y-125826936D01*
X155788626Y-125716470D01*
X155790446Y-125715054D01*
X155850129Y-125668600D01*
X155971784Y-125573913D01*
X156128979Y-125403153D01*
X156255924Y-125208849D01*
X156349157Y-124996300D01*
X156406134Y-124771305D01*
X156418049Y-124627514D01*
X156425300Y-124540006D01*
X156425300Y-124539993D01*
X156406135Y-124308702D01*
X156406133Y-124308691D01*
X156349157Y-124083699D01*
X156255924Y-123871151D01*
X156128983Y-123676852D01*
X156128980Y-123676849D01*
X156128979Y-123676847D01*
X155971784Y-123506087D01*
X155971779Y-123506083D01*
X155971777Y-123506081D01*
X155788634Y-123363535D01*
X155788628Y-123363531D01*
X155584504Y-123253064D01*
X155584495Y-123253061D01*
X155364984Y-123177702D01*
X155193282Y-123149050D01*
X155136049Y-123139500D01*
X154903951Y-123139500D01*
X154858164Y-123147140D01*
X154675015Y-123177702D01*
X154455504Y-123253061D01*
X154455495Y-123253064D01*
X154251371Y-123363531D01*
X154251365Y-123363535D01*
X154068222Y-123506081D01*
X154068219Y-123506084D01*
X153911016Y-123676852D01*
X153784075Y-123871151D01*
X153690842Y-124083699D01*
X153633866Y-124308691D01*
X153633864Y-124308702D01*
X153614700Y-124539993D01*
X153614700Y-124540006D01*
X131025300Y-124540006D01*
X131025300Y-124539993D01*
X131006135Y-124308702D01*
X131006133Y-124308691D01*
X130949157Y-124083699D01*
X130855924Y-123871151D01*
X130728983Y-123676852D01*
X130728980Y-123676849D01*
X130728979Y-123676847D01*
X130571784Y-123506087D01*
X130571779Y-123506083D01*
X130571777Y-123506081D01*
X130388634Y-123363535D01*
X130388628Y-123363531D01*
X130184504Y-123253064D01*
X130184495Y-123253061D01*
X129964984Y-123177702D01*
X129793282Y-123149050D01*
X129736049Y-123139500D01*
X129503951Y-123139500D01*
X129458164Y-123147140D01*
X129275015Y-123177702D01*
X129055504Y-123253061D01*
X129055495Y-123253064D01*
X128851371Y-123363531D01*
X128851365Y-123363535D01*
X128668222Y-123506081D01*
X128668219Y-123506084D01*
X128511016Y-123676852D01*
X128384075Y-123871151D01*
X128290842Y-124083699D01*
X128233866Y-124308691D01*
X128233864Y-124308702D01*
X128214700Y-124539993D01*
X128214700Y-124540006D01*
X85305300Y-124540006D01*
X85305300Y-124539993D01*
X85286135Y-124308702D01*
X85286133Y-124308691D01*
X85229157Y-124083699D01*
X85135924Y-123871151D01*
X85008983Y-123676852D01*
X85008980Y-123676849D01*
X85008979Y-123676847D01*
X84851784Y-123506087D01*
X84851779Y-123506083D01*
X84851777Y-123506081D01*
X84668634Y-123363535D01*
X84668628Y-123363531D01*
X84464504Y-123253064D01*
X84464495Y-123253061D01*
X84244984Y-123177702D01*
X84073282Y-123149050D01*
X84016049Y-123139500D01*
X83783951Y-123139500D01*
X83738164Y-123147140D01*
X83555015Y-123177702D01*
X83335504Y-123253061D01*
X83335495Y-123253064D01*
X83131371Y-123363531D01*
X83131365Y-123363535D01*
X82948222Y-123506081D01*
X82948219Y-123506084D01*
X82791016Y-123676852D01*
X82664075Y-123871151D01*
X82570842Y-124083699D01*
X82513866Y-124308691D01*
X82513864Y-124308702D01*
X82494700Y-124539993D01*
X82494700Y-124540006D01*
X59905300Y-124540006D01*
X59905300Y-124539993D01*
X59886135Y-124308702D01*
X59886133Y-124308691D01*
X59829157Y-124083699D01*
X59735924Y-123871151D01*
X59608983Y-123676852D01*
X59608980Y-123676849D01*
X59608979Y-123676847D01*
X59451784Y-123506087D01*
X59451779Y-123506083D01*
X59451777Y-123506081D01*
X59268634Y-123363535D01*
X59268628Y-123363531D01*
X59064504Y-123253064D01*
X59064495Y-123253061D01*
X58844984Y-123177702D01*
X58673282Y-123149050D01*
X58616049Y-123139500D01*
X58383951Y-123139500D01*
X58338164Y-123147140D01*
X58155015Y-123177702D01*
X57935504Y-123253061D01*
X57935495Y-123253064D01*
X57731371Y-123363531D01*
X57731365Y-123363535D01*
X57548222Y-123506081D01*
X57548219Y-123506084D01*
X57391016Y-123676852D01*
X57264075Y-123871151D01*
X57170842Y-124083699D01*
X57113866Y-124308691D01*
X57113864Y-124308702D01*
X57094700Y-124539993D01*
X57094700Y-124540006D01*
X42648164Y-124540006D01*
X42832985Y-124208188D01*
X43001074Y-123827505D01*
X43133320Y-123432936D01*
X43228596Y-123027848D01*
X43286088Y-122615697D01*
X43305307Y-122200000D01*
X43296061Y-122000006D01*
X50744700Y-122000006D01*
X50763864Y-122231297D01*
X50763866Y-122231308D01*
X50820842Y-122456300D01*
X50914075Y-122668848D01*
X51041016Y-122863147D01*
X51041019Y-122863151D01*
X51041021Y-122863153D01*
X51198216Y-123033913D01*
X51198219Y-123033915D01*
X51198222Y-123033918D01*
X51381365Y-123176464D01*
X51381371Y-123176468D01*
X51381374Y-123176470D01*
X51585497Y-123286936D01*
X51699487Y-123326068D01*
X51805015Y-123362297D01*
X51805017Y-123362297D01*
X51805019Y-123362298D01*
X52033951Y-123400500D01*
X52033952Y-123400500D01*
X52266048Y-123400500D01*
X52266049Y-123400500D01*
X52494981Y-123362298D01*
X52714503Y-123286936D01*
X52918626Y-123176470D01*
X53101784Y-123033913D01*
X53258979Y-122863153D01*
X53316191Y-122775582D01*
X53369337Y-122730226D01*
X53438568Y-122720802D01*
X53501904Y-122750304D01*
X53523809Y-122775583D01*
X53581016Y-122863147D01*
X53581019Y-122863151D01*
X53581021Y-122863153D01*
X53738216Y-123033913D01*
X53738219Y-123033915D01*
X53738222Y-123033918D01*
X53921365Y-123176464D01*
X53921371Y-123176468D01*
X53921374Y-123176470D01*
X54125497Y-123286936D01*
X54239487Y-123326068D01*
X54345015Y-123362297D01*
X54345017Y-123362297D01*
X54345019Y-123362298D01*
X54573951Y-123400500D01*
X54573952Y-123400500D01*
X54806048Y-123400500D01*
X54806049Y-123400500D01*
X55034981Y-123362298D01*
X55254503Y-123286936D01*
X55458626Y-123176470D01*
X55641784Y-123033913D01*
X55798979Y-122863153D01*
X55925924Y-122668849D01*
X56019157Y-122456300D01*
X56076134Y-122231305D01*
X56078728Y-122200000D01*
X56095300Y-122000006D01*
X76144700Y-122000006D01*
X76163864Y-122231297D01*
X76163866Y-122231308D01*
X76220842Y-122456300D01*
X76314075Y-122668848D01*
X76441016Y-122863147D01*
X76441019Y-122863151D01*
X76441021Y-122863153D01*
X76598216Y-123033913D01*
X76598219Y-123033915D01*
X76598222Y-123033918D01*
X76781365Y-123176464D01*
X76781371Y-123176468D01*
X76781374Y-123176470D01*
X76985497Y-123286936D01*
X77099487Y-123326068D01*
X77205015Y-123362297D01*
X77205017Y-123362297D01*
X77205019Y-123362298D01*
X77433951Y-123400500D01*
X77433952Y-123400500D01*
X77666048Y-123400500D01*
X77666049Y-123400500D01*
X77894981Y-123362298D01*
X78114503Y-123286936D01*
X78318626Y-123176470D01*
X78501784Y-123033913D01*
X78658979Y-122863153D01*
X78716191Y-122775582D01*
X78769337Y-122730226D01*
X78838568Y-122720802D01*
X78901904Y-122750304D01*
X78923809Y-122775583D01*
X78981016Y-122863147D01*
X78981019Y-122863151D01*
X78981021Y-122863153D01*
X79138216Y-123033913D01*
X79138219Y-123033915D01*
X79138222Y-123033918D01*
X79321365Y-123176464D01*
X79321371Y-123176468D01*
X79321374Y-123176470D01*
X79525497Y-123286936D01*
X79639487Y-123326068D01*
X79745015Y-123362297D01*
X79745017Y-123362297D01*
X79745019Y-123362298D01*
X79973951Y-123400500D01*
X79973952Y-123400500D01*
X80206048Y-123400500D01*
X80206049Y-123400500D01*
X80434981Y-123362298D01*
X80654503Y-123286936D01*
X80858626Y-123176470D01*
X81041784Y-123033913D01*
X81198979Y-122863153D01*
X81325924Y-122668849D01*
X81419157Y-122456300D01*
X81476134Y-122231305D01*
X81478728Y-122200000D01*
X81495300Y-122000006D01*
X121864700Y-122000006D01*
X121883864Y-122231297D01*
X121883866Y-122231308D01*
X121940842Y-122456300D01*
X122034075Y-122668848D01*
X122161016Y-122863147D01*
X122161019Y-122863151D01*
X122161021Y-122863153D01*
X122318216Y-123033913D01*
X122318219Y-123033915D01*
X122318222Y-123033918D01*
X122501365Y-123176464D01*
X122501371Y-123176468D01*
X122501374Y-123176470D01*
X122705497Y-123286936D01*
X122819487Y-123326068D01*
X122925015Y-123362297D01*
X122925017Y-123362297D01*
X122925019Y-123362298D01*
X123153951Y-123400500D01*
X123153952Y-123400500D01*
X123386048Y-123400500D01*
X123386049Y-123400500D01*
X123614981Y-123362298D01*
X123834503Y-123286936D01*
X124038626Y-123176470D01*
X124221784Y-123033913D01*
X124378979Y-122863153D01*
X124436191Y-122775582D01*
X124489337Y-122730226D01*
X124558568Y-122720802D01*
X124621904Y-122750304D01*
X124643809Y-122775583D01*
X124701016Y-122863147D01*
X124701019Y-122863151D01*
X124701021Y-122863153D01*
X124858216Y-123033913D01*
X124858219Y-123033915D01*
X124858222Y-123033918D01*
X125041365Y-123176464D01*
X125041371Y-123176468D01*
X125041374Y-123176470D01*
X125245497Y-123286936D01*
X125359487Y-123326068D01*
X125465015Y-123362297D01*
X125465017Y-123362297D01*
X125465019Y-123362298D01*
X125693951Y-123400500D01*
X125693952Y-123400500D01*
X125926048Y-123400500D01*
X125926049Y-123400500D01*
X126154981Y-123362298D01*
X126374503Y-123286936D01*
X126578626Y-123176470D01*
X126761784Y-123033913D01*
X126918979Y-122863153D01*
X127045924Y-122668849D01*
X127139157Y-122456300D01*
X127196134Y-122231305D01*
X127198728Y-122200000D01*
X127215300Y-122000006D01*
X147264700Y-122000006D01*
X147283864Y-122231297D01*
X147283866Y-122231308D01*
X147340842Y-122456300D01*
X147434075Y-122668848D01*
X147561016Y-122863147D01*
X147561019Y-122863151D01*
X147561021Y-122863153D01*
X147718216Y-123033913D01*
X147718219Y-123033915D01*
X147718222Y-123033918D01*
X147901365Y-123176464D01*
X147901371Y-123176468D01*
X147901374Y-123176470D01*
X148105497Y-123286936D01*
X148219487Y-123326068D01*
X148325015Y-123362297D01*
X148325017Y-123362297D01*
X148325019Y-123362298D01*
X148553951Y-123400500D01*
X148553952Y-123400500D01*
X148786048Y-123400500D01*
X148786049Y-123400500D01*
X149014981Y-123362298D01*
X149234503Y-123286936D01*
X149438626Y-123176470D01*
X149621784Y-123033913D01*
X149778979Y-122863153D01*
X149836191Y-122775582D01*
X149889337Y-122730226D01*
X149958568Y-122720802D01*
X150021904Y-122750304D01*
X150043809Y-122775583D01*
X150101016Y-122863147D01*
X150101019Y-122863151D01*
X150101021Y-122863153D01*
X150258216Y-123033913D01*
X150258219Y-123033915D01*
X150258222Y-123033918D01*
X150441365Y-123176464D01*
X150441371Y-123176468D01*
X150441374Y-123176470D01*
X150645497Y-123286936D01*
X150759487Y-123326068D01*
X150865015Y-123362297D01*
X150865017Y-123362297D01*
X150865019Y-123362298D01*
X151093951Y-123400500D01*
X151093952Y-123400500D01*
X151326048Y-123400500D01*
X151326049Y-123400500D01*
X151554981Y-123362298D01*
X151774503Y-123286936D01*
X151978626Y-123176470D01*
X152161784Y-123033913D01*
X152193003Y-123000000D01*
X161494693Y-123000000D01*
X161513912Y-123415697D01*
X161513912Y-123415702D01*
X161513913Y-123415707D01*
X161571403Y-123827845D01*
X161571405Y-123827853D01*
X161666679Y-124232933D01*
X161798929Y-124627514D01*
X161967010Y-125008177D01*
X161967020Y-125008198D01*
X162169506Y-125371731D01*
X162169509Y-125371735D01*
X162169511Y-125371739D01*
X162404687Y-125715054D01*
X162404689Y-125715056D01*
X162404696Y-125715066D01*
X162591895Y-125940500D01*
X162670538Y-126035206D01*
X162964794Y-126329462D01*
X162964805Y-126329471D01*
X163284933Y-126595303D01*
X163284939Y-126595307D01*
X163284946Y-126595313D01*
X163628261Y-126830489D01*
X163991812Y-127032985D01*
X164182153Y-127117029D01*
X164372485Y-127201070D01*
X164372488Y-127201071D01*
X164372495Y-127201074D01*
X164767064Y-127333320D01*
X165172152Y-127428596D01*
X165584303Y-127486088D01*
X166000000Y-127505307D01*
X166415697Y-127486088D01*
X166827848Y-127428596D01*
X167232936Y-127333320D01*
X167627505Y-127201074D01*
X168008188Y-127032985D01*
X168371739Y-126830489D01*
X168715054Y-126595313D01*
X169035206Y-126329462D01*
X169329462Y-126035206D01*
X169595313Y-125715054D01*
X169830489Y-125371739D01*
X170032985Y-125008188D01*
X170201074Y-124627505D01*
X170333320Y-124232936D01*
X170428596Y-123827848D01*
X170486088Y-123415697D01*
X170505307Y-123000000D01*
X170486088Y-122584303D01*
X170428596Y-122172152D01*
X170333320Y-121767064D01*
X170201074Y-121372495D01*
X170200923Y-121372154D01*
X170032989Y-120991822D01*
X170032985Y-120991812D01*
X170019200Y-120967064D01*
X169830493Y-120628268D01*
X169830492Y-120628267D01*
X169830489Y-120628261D01*
X169595313Y-120284946D01*
X169595307Y-120284939D01*
X169595303Y-120284933D01*
X169329471Y-119964805D01*
X169329462Y-119964794D01*
X169035206Y-119670538D01*
X169035194Y-119670528D01*
X168715066Y-119404696D01*
X168715056Y-119404689D01*
X168715054Y-119404687D01*
X168371739Y-119169511D01*
X168371735Y-119169509D01*
X168371731Y-119169506D01*
X168008198Y-118967020D01*
X168008177Y-118967010D01*
X167627514Y-118798929D01*
X167232933Y-118666679D01*
X166827853Y-118571405D01*
X166827845Y-118571403D01*
X166415707Y-118513913D01*
X166415702Y-118513912D01*
X166415697Y-118513912D01*
X166000000Y-118494693D01*
X165584303Y-118513912D01*
X165584297Y-118513912D01*
X165584292Y-118513913D01*
X165172154Y-118571403D01*
X165172146Y-118571405D01*
X164767066Y-118666679D01*
X164372485Y-118798929D01*
X163991822Y-118967010D01*
X163991801Y-118967020D01*
X163628268Y-119169506D01*
X163628262Y-119169510D01*
X163284943Y-119404689D01*
X163284933Y-119404696D01*
X162964805Y-119670528D01*
X162964785Y-119670546D01*
X162670546Y-119964785D01*
X162670528Y-119964805D01*
X162404696Y-120284933D01*
X162404689Y-120284943D01*
X162169510Y-120628262D01*
X162169506Y-120628268D01*
X161967020Y-120991801D01*
X161967010Y-120991822D01*
X161798929Y-121372485D01*
X161666679Y-121767066D01*
X161571405Y-122172146D01*
X161571403Y-122172154D01*
X161513913Y-122584292D01*
X161513912Y-122584297D01*
X161513912Y-122584303D01*
X161494693Y-123000000D01*
X152193003Y-123000000D01*
X152318979Y-122863153D01*
X152445924Y-122668849D01*
X152539157Y-122456300D01*
X152596134Y-122231305D01*
X152598728Y-122200000D01*
X152615300Y-122000006D01*
X152615300Y-121999993D01*
X152596135Y-121768702D01*
X152596133Y-121768691D01*
X152539157Y-121543699D01*
X152445924Y-121331151D01*
X152318983Y-121136852D01*
X152318980Y-121136849D01*
X152318979Y-121136847D01*
X152161784Y-120966087D01*
X152161779Y-120966083D01*
X152161777Y-120966081D01*
X151978634Y-120823535D01*
X151978628Y-120823531D01*
X151774504Y-120713064D01*
X151774495Y-120713061D01*
X151554984Y-120637702D01*
X151383282Y-120609050D01*
X151326049Y-120599500D01*
X151093951Y-120599500D01*
X151048164Y-120607140D01*
X150865015Y-120637702D01*
X150645504Y-120713061D01*
X150645495Y-120713064D01*
X150441371Y-120823531D01*
X150441365Y-120823535D01*
X150258222Y-120966081D01*
X150258219Y-120966084D01*
X150258216Y-120966086D01*
X150258216Y-120966087D01*
X150199267Y-121030122D01*
X150101016Y-121136852D01*
X150043809Y-121224416D01*
X149990662Y-121269773D01*
X149921431Y-121279197D01*
X149858095Y-121249695D01*
X149836191Y-121224416D01*
X149778983Y-121136852D01*
X149778980Y-121136849D01*
X149778979Y-121136847D01*
X149621784Y-120966087D01*
X149621779Y-120966083D01*
X149621777Y-120966081D01*
X149438634Y-120823535D01*
X149438628Y-120823531D01*
X149234504Y-120713064D01*
X149234495Y-120713061D01*
X149014984Y-120637702D01*
X148843282Y-120609050D01*
X148786049Y-120599500D01*
X148553951Y-120599500D01*
X148508164Y-120607140D01*
X148325015Y-120637702D01*
X148105504Y-120713061D01*
X148105495Y-120713064D01*
X147901371Y-120823531D01*
X147901365Y-120823535D01*
X147718222Y-120966081D01*
X147718219Y-120966084D01*
X147718216Y-120966086D01*
X147718216Y-120966087D01*
X147659267Y-121030122D01*
X147561016Y-121136852D01*
X147434075Y-121331151D01*
X147340842Y-121543699D01*
X147283866Y-121768691D01*
X147283864Y-121768702D01*
X147264700Y-121999993D01*
X147264700Y-122000006D01*
X127215300Y-122000006D01*
X127215300Y-121999993D01*
X127196135Y-121768702D01*
X127196133Y-121768691D01*
X127139157Y-121543699D01*
X127045924Y-121331151D01*
X126918983Y-121136852D01*
X126918980Y-121136849D01*
X126918979Y-121136847D01*
X126761784Y-120966087D01*
X126761779Y-120966083D01*
X126761777Y-120966081D01*
X126578634Y-120823535D01*
X126578628Y-120823531D01*
X126374504Y-120713064D01*
X126374495Y-120713061D01*
X126154984Y-120637702D01*
X125983282Y-120609050D01*
X125926049Y-120599500D01*
X125693951Y-120599500D01*
X125648164Y-120607140D01*
X125465015Y-120637702D01*
X125245504Y-120713061D01*
X125245495Y-120713064D01*
X125041371Y-120823531D01*
X125041365Y-120823535D01*
X124858222Y-120966081D01*
X124858219Y-120966084D01*
X124858216Y-120966086D01*
X124858216Y-120966087D01*
X124799267Y-121030122D01*
X124701016Y-121136852D01*
X124643809Y-121224416D01*
X124590662Y-121269773D01*
X124521431Y-121279197D01*
X124458095Y-121249695D01*
X124436191Y-121224416D01*
X124378983Y-121136852D01*
X124378980Y-121136849D01*
X124378979Y-121136847D01*
X124221784Y-120966087D01*
X124221779Y-120966083D01*
X124221777Y-120966081D01*
X124038634Y-120823535D01*
X124038628Y-120823531D01*
X123834504Y-120713064D01*
X123834495Y-120713061D01*
X123614984Y-120637702D01*
X123443282Y-120609050D01*
X123386049Y-120599500D01*
X123153951Y-120599500D01*
X123108164Y-120607140D01*
X122925015Y-120637702D01*
X122705504Y-120713061D01*
X122705495Y-120713064D01*
X122501371Y-120823531D01*
X122501365Y-120823535D01*
X122318222Y-120966081D01*
X122318219Y-120966084D01*
X122318216Y-120966086D01*
X122318216Y-120966087D01*
X122259267Y-121030122D01*
X122161016Y-121136852D01*
X122034075Y-121331151D01*
X121940842Y-121543699D01*
X121883866Y-121768691D01*
X121883864Y-121768702D01*
X121864700Y-121999993D01*
X121864700Y-122000006D01*
X81495300Y-122000006D01*
X81495300Y-121999993D01*
X81476135Y-121768702D01*
X81476133Y-121768691D01*
X81419157Y-121543699D01*
X81325924Y-121331151D01*
X81198983Y-121136852D01*
X81198980Y-121136849D01*
X81198979Y-121136847D01*
X81041784Y-120966087D01*
X81041779Y-120966083D01*
X81041777Y-120966081D01*
X80858634Y-120823535D01*
X80858628Y-120823531D01*
X80654504Y-120713064D01*
X80654495Y-120713061D01*
X80434984Y-120637702D01*
X80263282Y-120609050D01*
X80206049Y-120599500D01*
X79973951Y-120599500D01*
X79928164Y-120607140D01*
X79745015Y-120637702D01*
X79525504Y-120713061D01*
X79525495Y-120713064D01*
X79321371Y-120823531D01*
X79321365Y-120823535D01*
X79138222Y-120966081D01*
X79138219Y-120966084D01*
X79138216Y-120966086D01*
X79138216Y-120966087D01*
X79079267Y-121030122D01*
X78981016Y-121136852D01*
X78923809Y-121224416D01*
X78870662Y-121269773D01*
X78801431Y-121279197D01*
X78738095Y-121249695D01*
X78716191Y-121224416D01*
X78658983Y-121136852D01*
X78658980Y-121136849D01*
X78658979Y-121136847D01*
X78501784Y-120966087D01*
X78501779Y-120966083D01*
X78501777Y-120966081D01*
X78318634Y-120823535D01*
X78318628Y-120823531D01*
X78114504Y-120713064D01*
X78114495Y-120713061D01*
X77894984Y-120637702D01*
X77723282Y-120609050D01*
X77666049Y-120599500D01*
X77433951Y-120599500D01*
X77388164Y-120607140D01*
X77205015Y-120637702D01*
X76985504Y-120713061D01*
X76985495Y-120713064D01*
X76781371Y-120823531D01*
X76781365Y-120823535D01*
X76598222Y-120966081D01*
X76598219Y-120966084D01*
X76598216Y-120966086D01*
X76598216Y-120966087D01*
X76539267Y-121030122D01*
X76441016Y-121136852D01*
X76314075Y-121331151D01*
X76220842Y-121543699D01*
X76163866Y-121768691D01*
X76163864Y-121768702D01*
X76144700Y-121999993D01*
X76144700Y-122000006D01*
X56095300Y-122000006D01*
X56095300Y-121999993D01*
X56076135Y-121768702D01*
X56076133Y-121768691D01*
X56019157Y-121543699D01*
X55925924Y-121331151D01*
X55798983Y-121136852D01*
X55798980Y-121136849D01*
X55798979Y-121136847D01*
X55641784Y-120966087D01*
X55641779Y-120966083D01*
X55641777Y-120966081D01*
X55458634Y-120823535D01*
X55458628Y-120823531D01*
X55254504Y-120713064D01*
X55254495Y-120713061D01*
X55034984Y-120637702D01*
X54863282Y-120609050D01*
X54806049Y-120599500D01*
X54573951Y-120599500D01*
X54528164Y-120607140D01*
X54345015Y-120637702D01*
X54125504Y-120713061D01*
X54125495Y-120713064D01*
X53921371Y-120823531D01*
X53921365Y-120823535D01*
X53738222Y-120966081D01*
X53738219Y-120966084D01*
X53738216Y-120966086D01*
X53738216Y-120966087D01*
X53679267Y-121030122D01*
X53581016Y-121136852D01*
X53523809Y-121224416D01*
X53470662Y-121269773D01*
X53401431Y-121279197D01*
X53338095Y-121249695D01*
X53316191Y-121224416D01*
X53258983Y-121136852D01*
X53258980Y-121136849D01*
X53258979Y-121136847D01*
X53101784Y-120966087D01*
X53101779Y-120966083D01*
X53101777Y-120966081D01*
X52918634Y-120823535D01*
X52918628Y-120823531D01*
X52714504Y-120713064D01*
X52714495Y-120713061D01*
X52494984Y-120637702D01*
X52323282Y-120609050D01*
X52266049Y-120599500D01*
X52033951Y-120599500D01*
X51988164Y-120607140D01*
X51805015Y-120637702D01*
X51585504Y-120713061D01*
X51585495Y-120713064D01*
X51381371Y-120823531D01*
X51381365Y-120823535D01*
X51198222Y-120966081D01*
X51198219Y-120966084D01*
X51198216Y-120966086D01*
X51198216Y-120966087D01*
X51139267Y-121030122D01*
X51041016Y-121136852D01*
X50914075Y-121331151D01*
X50820842Y-121543699D01*
X50763866Y-121768691D01*
X50763864Y-121768702D01*
X50744700Y-121999993D01*
X50744700Y-122000006D01*
X43296061Y-122000006D01*
X43286088Y-121784303D01*
X43228596Y-121372152D01*
X43133320Y-120967064D01*
X43001074Y-120572495D01*
X42832985Y-120191812D01*
X42759566Y-120060000D01*
X42630493Y-119828268D01*
X42630492Y-119828267D01*
X42630489Y-119828261D01*
X42395313Y-119484946D01*
X42395307Y-119484939D01*
X42395303Y-119484933D01*
X42374603Y-119460005D01*
X57095202Y-119460005D01*
X57114361Y-119691218D01*
X57171317Y-119916135D01*
X57264515Y-120128606D01*
X57348812Y-120257633D01*
X57937226Y-119669219D01*
X57975901Y-119762588D01*
X58072075Y-119887925D01*
X58197412Y-119984099D01*
X58290779Y-120022772D01*
X57701201Y-120612351D01*
X57731649Y-120636050D01*
X57935697Y-120746476D01*
X57935706Y-120746479D01*
X58155139Y-120821811D01*
X58383993Y-120860000D01*
X58616007Y-120860000D01*
X58844860Y-120821811D01*
X59064293Y-120746479D01*
X59064301Y-120746476D01*
X59268355Y-120636047D01*
X59298797Y-120612351D01*
X59298798Y-120612350D01*
X58709220Y-120022772D01*
X58802588Y-119984099D01*
X58927925Y-119887925D01*
X59024099Y-119762589D01*
X59062773Y-119669220D01*
X59651186Y-120257633D01*
X59735482Y-120128611D01*
X59828682Y-119916135D01*
X59885638Y-119691218D01*
X59904798Y-119460005D01*
X82495202Y-119460005D01*
X82514361Y-119691218D01*
X82571317Y-119916135D01*
X82664515Y-120128606D01*
X82748812Y-120257633D01*
X83337226Y-119669219D01*
X83375901Y-119762588D01*
X83472075Y-119887925D01*
X83597412Y-119984099D01*
X83690779Y-120022772D01*
X83101201Y-120612351D01*
X83131649Y-120636050D01*
X83335697Y-120746476D01*
X83335706Y-120746479D01*
X83555139Y-120821811D01*
X83783993Y-120860000D01*
X84016007Y-120860000D01*
X84244860Y-120821811D01*
X84464293Y-120746479D01*
X84464301Y-120746476D01*
X84668355Y-120636047D01*
X84698797Y-120612351D01*
X84698798Y-120612350D01*
X84109220Y-120022772D01*
X84202588Y-119984099D01*
X84327925Y-119887925D01*
X84424099Y-119762589D01*
X84462773Y-119669220D01*
X85051186Y-120257633D01*
X85135482Y-120128611D01*
X85228682Y-119916135D01*
X85285638Y-119691218D01*
X85304798Y-119460005D01*
X128215202Y-119460005D01*
X128234361Y-119691218D01*
X128291317Y-119916135D01*
X128384515Y-120128606D01*
X128468812Y-120257633D01*
X129057226Y-119669219D01*
X129095901Y-119762588D01*
X129192075Y-119887925D01*
X129317412Y-119984099D01*
X129410779Y-120022772D01*
X128821201Y-120612351D01*
X128851649Y-120636050D01*
X129055697Y-120746476D01*
X129055706Y-120746479D01*
X129275139Y-120821811D01*
X129503993Y-120860000D01*
X129736007Y-120860000D01*
X129964860Y-120821811D01*
X130184293Y-120746479D01*
X130184301Y-120746476D01*
X130388355Y-120636047D01*
X130418797Y-120612351D01*
X130418798Y-120612350D01*
X129829220Y-120022772D01*
X129922588Y-119984099D01*
X130047925Y-119887925D01*
X130144099Y-119762589D01*
X130182773Y-119669220D01*
X130771186Y-120257633D01*
X130855482Y-120128611D01*
X130948682Y-119916135D01*
X131005638Y-119691218D01*
X131024798Y-119460005D01*
X153615202Y-119460005D01*
X153634361Y-119691218D01*
X153691317Y-119916135D01*
X153784515Y-120128606D01*
X153868812Y-120257633D01*
X154457226Y-119669219D01*
X154495901Y-119762588D01*
X154592075Y-119887925D01*
X154717412Y-119984099D01*
X154810779Y-120022772D01*
X154221201Y-120612351D01*
X154251649Y-120636050D01*
X154455697Y-120746476D01*
X154455706Y-120746479D01*
X154675139Y-120821811D01*
X154903993Y-120860000D01*
X155136007Y-120860000D01*
X155364860Y-120821811D01*
X155584293Y-120746479D01*
X155584301Y-120746476D01*
X155788355Y-120636047D01*
X155818797Y-120612351D01*
X155818798Y-120612350D01*
X155229220Y-120022772D01*
X155322588Y-119984099D01*
X155447925Y-119887925D01*
X155544099Y-119762589D01*
X155582773Y-119669220D01*
X156171186Y-120257633D01*
X156255482Y-120128611D01*
X156348682Y-119916135D01*
X156405638Y-119691218D01*
X156424798Y-119460005D01*
X156424798Y-119459994D01*
X156405638Y-119228781D01*
X156348682Y-119003864D01*
X156255484Y-118791393D01*
X156171186Y-118662365D01*
X155582772Y-119250779D01*
X155544099Y-119157412D01*
X155447925Y-119032075D01*
X155322588Y-118935901D01*
X155229219Y-118897226D01*
X155818797Y-118307647D01*
X155818797Y-118307645D01*
X155788360Y-118283955D01*
X155788354Y-118283951D01*
X155584302Y-118173523D01*
X155584293Y-118173520D01*
X155364860Y-118098188D01*
X155136007Y-118060000D01*
X154903993Y-118060000D01*
X154675139Y-118098188D01*
X154455706Y-118173520D01*
X154455697Y-118173523D01*
X154251650Y-118283949D01*
X154221200Y-118307647D01*
X154810780Y-118897226D01*
X154717412Y-118935901D01*
X154592075Y-119032075D01*
X154495901Y-119157411D01*
X154457226Y-119250780D01*
X153868811Y-118662365D01*
X153784516Y-118791390D01*
X153691317Y-119003864D01*
X153634361Y-119228781D01*
X153615202Y-119459994D01*
X153615202Y-119460005D01*
X131024798Y-119460005D01*
X131024798Y-119459994D01*
X131005638Y-119228781D01*
X130948682Y-119003864D01*
X130855484Y-118791393D01*
X130771186Y-118662365D01*
X130182772Y-119250779D01*
X130144099Y-119157412D01*
X130047925Y-119032075D01*
X129922588Y-118935901D01*
X129829219Y-118897226D01*
X130418797Y-118307647D01*
X130418797Y-118307645D01*
X130388360Y-118283955D01*
X130388354Y-118283951D01*
X130184302Y-118173523D01*
X130184293Y-118173520D01*
X129964860Y-118098188D01*
X129736007Y-118060000D01*
X129503993Y-118060000D01*
X129275139Y-118098188D01*
X129055706Y-118173520D01*
X129055697Y-118173523D01*
X128851650Y-118283949D01*
X128821200Y-118307647D01*
X129410780Y-118897226D01*
X129317412Y-118935901D01*
X129192075Y-119032075D01*
X129095901Y-119157411D01*
X129057226Y-119250780D01*
X128468811Y-118662365D01*
X128384516Y-118791390D01*
X128291317Y-119003864D01*
X128234361Y-119228781D01*
X128215202Y-119459994D01*
X128215202Y-119460005D01*
X85304798Y-119460005D01*
X85304798Y-119459994D01*
X85285638Y-119228781D01*
X85228682Y-119003864D01*
X85135484Y-118791393D01*
X85051186Y-118662365D01*
X84462772Y-119250779D01*
X84424099Y-119157412D01*
X84327925Y-119032075D01*
X84202588Y-118935901D01*
X84109219Y-118897226D01*
X84698797Y-118307647D01*
X84698797Y-118307645D01*
X84668360Y-118283955D01*
X84668354Y-118283951D01*
X84464302Y-118173523D01*
X84464293Y-118173520D01*
X84244860Y-118098188D01*
X84016007Y-118060000D01*
X83783993Y-118060000D01*
X83555139Y-118098188D01*
X83335706Y-118173520D01*
X83335697Y-118173523D01*
X83131650Y-118283949D01*
X83101200Y-118307647D01*
X83690780Y-118897226D01*
X83597412Y-118935901D01*
X83472075Y-119032075D01*
X83375901Y-119157411D01*
X83337226Y-119250780D01*
X82748811Y-118662365D01*
X82664516Y-118791390D01*
X82571317Y-119003864D01*
X82514361Y-119228781D01*
X82495202Y-119459994D01*
X82495202Y-119460005D01*
X59904798Y-119460005D01*
X59904798Y-119459994D01*
X59885638Y-119228781D01*
X59828682Y-119003864D01*
X59735484Y-118791393D01*
X59651186Y-118662365D01*
X59062772Y-119250779D01*
X59024099Y-119157412D01*
X58927925Y-119032075D01*
X58802588Y-118935901D01*
X58709219Y-118897226D01*
X59298797Y-118307647D01*
X59298797Y-118307645D01*
X59268360Y-118283955D01*
X59268354Y-118283951D01*
X59064302Y-118173523D01*
X59064293Y-118173520D01*
X58844860Y-118098188D01*
X58616007Y-118060000D01*
X58383993Y-118060000D01*
X58155139Y-118098188D01*
X57935706Y-118173520D01*
X57935697Y-118173523D01*
X57731650Y-118283949D01*
X57701200Y-118307647D01*
X58290780Y-118897226D01*
X58197412Y-118935901D01*
X58072075Y-119032075D01*
X57975901Y-119157411D01*
X57937226Y-119250780D01*
X57348811Y-118662365D01*
X57264516Y-118791390D01*
X57171317Y-119003864D01*
X57114361Y-119228781D01*
X57095202Y-119459994D01*
X57095202Y-119460005D01*
X42374603Y-119460005D01*
X42129471Y-119164805D01*
X42129462Y-119164794D01*
X41835206Y-118870538D01*
X41748967Y-118798926D01*
X41515066Y-118604696D01*
X41515056Y-118604689D01*
X41515054Y-118604687D01*
X41171739Y-118369511D01*
X41171735Y-118369509D01*
X41171731Y-118369506D01*
X40808198Y-118167020D01*
X40808177Y-118167010D01*
X40427514Y-117998929D01*
X40032933Y-117866679D01*
X39627853Y-117771405D01*
X39627845Y-117771403D01*
X39215707Y-117713913D01*
X39215702Y-117713912D01*
X39215697Y-117713912D01*
X38800000Y-117694693D01*
X38384303Y-117713912D01*
X38384297Y-117713912D01*
X38384292Y-117713913D01*
X37972154Y-117771403D01*
X37972146Y-117771405D01*
X37567066Y-117866679D01*
X37172485Y-117998929D01*
X36791822Y-118167010D01*
X36791801Y-118167020D01*
X36428268Y-118369506D01*
X36428262Y-118369510D01*
X36084943Y-118604689D01*
X36084933Y-118604696D01*
X35764805Y-118870528D01*
X35764785Y-118870546D01*
X35470546Y-119164785D01*
X35470528Y-119164805D01*
X35204696Y-119484933D01*
X35204689Y-119484943D01*
X34969510Y-119828262D01*
X34969506Y-119828268D01*
X34767020Y-120191801D01*
X34767010Y-120191822D01*
X34598929Y-120572485D01*
X34466679Y-120967066D01*
X34371405Y-121372146D01*
X34371403Y-121372154D01*
X34313913Y-121784292D01*
X34313912Y-121784297D01*
X34313912Y-121784303D01*
X34294693Y-122200000D01*
X30551905Y-122200000D01*
X30322983Y-121809851D01*
X30320612Y-121805621D01*
X30309487Y-121784832D01*
X29862707Y-120949929D01*
X29860504Y-120945610D01*
X29852301Y-120928718D01*
X29436532Y-120072570D01*
X29434520Y-120068210D01*
X29045157Y-119179212D01*
X29043317Y-119174777D01*
X28689137Y-118271135D01*
X28687455Y-118266580D01*
X28680494Y-118246538D01*
X28369057Y-117349818D01*
X28367553Y-117345197D01*
X28308635Y-117151305D01*
X28238350Y-116920006D01*
X50744700Y-116920006D01*
X50763864Y-117151297D01*
X50763866Y-117151308D01*
X50820842Y-117376300D01*
X50914075Y-117588848D01*
X51041016Y-117783147D01*
X51041019Y-117783151D01*
X51041021Y-117783153D01*
X51198216Y-117953913D01*
X51198219Y-117953915D01*
X51198222Y-117953918D01*
X51381365Y-118096464D01*
X51381371Y-118096468D01*
X51381374Y-118096470D01*
X51585497Y-118206936D01*
X51694142Y-118244234D01*
X51805015Y-118282297D01*
X51805017Y-118282297D01*
X51805019Y-118282298D01*
X52033951Y-118320500D01*
X52033952Y-118320500D01*
X52266048Y-118320500D01*
X52266049Y-118320500D01*
X52494981Y-118282298D01*
X52714503Y-118206936D01*
X52918626Y-118096470D01*
X53101784Y-117953913D01*
X53258979Y-117783153D01*
X53316191Y-117695582D01*
X53369337Y-117650226D01*
X53438568Y-117640802D01*
X53501904Y-117670304D01*
X53523809Y-117695583D01*
X53581016Y-117783147D01*
X53581019Y-117783151D01*
X53581021Y-117783153D01*
X53738216Y-117953913D01*
X53738219Y-117953915D01*
X53738222Y-117953918D01*
X53921365Y-118096464D01*
X53921371Y-118096468D01*
X53921374Y-118096470D01*
X54125497Y-118206936D01*
X54234142Y-118244234D01*
X54345015Y-118282297D01*
X54345017Y-118282297D01*
X54345019Y-118282298D01*
X54573951Y-118320500D01*
X54573952Y-118320500D01*
X54806048Y-118320500D01*
X54806049Y-118320500D01*
X55034981Y-118282298D01*
X55254503Y-118206936D01*
X55458626Y-118096470D01*
X55641784Y-117953913D01*
X55798979Y-117783153D01*
X55925924Y-117588849D01*
X56019157Y-117376300D01*
X56076134Y-117151305D01*
X56076135Y-117151297D01*
X56095300Y-116920006D01*
X76144700Y-116920006D01*
X76163864Y-117151297D01*
X76163866Y-117151308D01*
X76220842Y-117376300D01*
X76314075Y-117588848D01*
X76441016Y-117783147D01*
X76441019Y-117783151D01*
X76441021Y-117783153D01*
X76598216Y-117953913D01*
X76598219Y-117953915D01*
X76598222Y-117953918D01*
X76781365Y-118096464D01*
X76781371Y-118096468D01*
X76781374Y-118096470D01*
X76985497Y-118206936D01*
X77094142Y-118244234D01*
X77205015Y-118282297D01*
X77205017Y-118282297D01*
X77205019Y-118282298D01*
X77433951Y-118320500D01*
X77433952Y-118320500D01*
X77666048Y-118320500D01*
X77666049Y-118320500D01*
X77894981Y-118282298D01*
X78114503Y-118206936D01*
X78318626Y-118096470D01*
X78501784Y-117953913D01*
X78658979Y-117783153D01*
X78716191Y-117695582D01*
X78769337Y-117650226D01*
X78838568Y-117640802D01*
X78901904Y-117670304D01*
X78923809Y-117695583D01*
X78981016Y-117783147D01*
X78981019Y-117783151D01*
X78981021Y-117783153D01*
X79138216Y-117953913D01*
X79138219Y-117953915D01*
X79138222Y-117953918D01*
X79321365Y-118096464D01*
X79321371Y-118096468D01*
X79321374Y-118096470D01*
X79525497Y-118206936D01*
X79634142Y-118244234D01*
X79745015Y-118282297D01*
X79745017Y-118282297D01*
X79745019Y-118282298D01*
X79973951Y-118320500D01*
X79973952Y-118320500D01*
X80206048Y-118320500D01*
X80206049Y-118320500D01*
X80434981Y-118282298D01*
X80654503Y-118206936D01*
X80858626Y-118096470D01*
X81041784Y-117953913D01*
X81198979Y-117783153D01*
X81325924Y-117588849D01*
X81419157Y-117376300D01*
X81476134Y-117151305D01*
X81476135Y-117151297D01*
X81495300Y-116920006D01*
X121864700Y-116920006D01*
X121883864Y-117151297D01*
X121883866Y-117151308D01*
X121940842Y-117376300D01*
X122034075Y-117588848D01*
X122161016Y-117783147D01*
X122161019Y-117783151D01*
X122161021Y-117783153D01*
X122318216Y-117953913D01*
X122318219Y-117953915D01*
X122318222Y-117953918D01*
X122501365Y-118096464D01*
X122501371Y-118096468D01*
X122501374Y-118096470D01*
X122705497Y-118206936D01*
X122814142Y-118244234D01*
X122925015Y-118282297D01*
X122925017Y-118282297D01*
X122925019Y-118282298D01*
X123153951Y-118320500D01*
X123153952Y-118320500D01*
X123386048Y-118320500D01*
X123386049Y-118320500D01*
X123614981Y-118282298D01*
X123834503Y-118206936D01*
X124038626Y-118096470D01*
X124221784Y-117953913D01*
X124378979Y-117783153D01*
X124436191Y-117695582D01*
X124489337Y-117650226D01*
X124558568Y-117640802D01*
X124621904Y-117670304D01*
X124643809Y-117695583D01*
X124701016Y-117783147D01*
X124701019Y-117783151D01*
X124701021Y-117783153D01*
X124858216Y-117953913D01*
X124858219Y-117953915D01*
X124858222Y-117953918D01*
X125041365Y-118096464D01*
X125041371Y-118096468D01*
X125041374Y-118096470D01*
X125245497Y-118206936D01*
X125354142Y-118244234D01*
X125465015Y-118282297D01*
X125465017Y-118282297D01*
X125465019Y-118282298D01*
X125693951Y-118320500D01*
X125693952Y-118320500D01*
X125926048Y-118320500D01*
X125926049Y-118320500D01*
X126154981Y-118282298D01*
X126374503Y-118206936D01*
X126578626Y-118096470D01*
X126761784Y-117953913D01*
X126918979Y-117783153D01*
X127045924Y-117588849D01*
X127139157Y-117376300D01*
X127196134Y-117151305D01*
X127196135Y-117151297D01*
X127215300Y-116920006D01*
X147264700Y-116920006D01*
X147283864Y-117151297D01*
X147283866Y-117151308D01*
X147340842Y-117376300D01*
X147434075Y-117588848D01*
X147561016Y-117783147D01*
X147561019Y-117783151D01*
X147561021Y-117783153D01*
X147718216Y-117953913D01*
X147718219Y-117953915D01*
X147718222Y-117953918D01*
X147901365Y-118096464D01*
X147901371Y-118096468D01*
X147901374Y-118096470D01*
X148105497Y-118206936D01*
X148214142Y-118244234D01*
X148325015Y-118282297D01*
X148325017Y-118282297D01*
X148325019Y-118282298D01*
X148553951Y-118320500D01*
X148553952Y-118320500D01*
X148786048Y-118320500D01*
X148786049Y-118320500D01*
X149014981Y-118282298D01*
X149234503Y-118206936D01*
X149438626Y-118096470D01*
X149621784Y-117953913D01*
X149778979Y-117783153D01*
X149836191Y-117695582D01*
X149889337Y-117650226D01*
X149958568Y-117640802D01*
X150021904Y-117670304D01*
X150043809Y-117695583D01*
X150101016Y-117783147D01*
X150101019Y-117783151D01*
X150101021Y-117783153D01*
X150258216Y-117953913D01*
X150258219Y-117953915D01*
X150258222Y-117953918D01*
X150441365Y-118096464D01*
X150441371Y-118096468D01*
X150441374Y-118096470D01*
X150645497Y-118206936D01*
X150754142Y-118244234D01*
X150865015Y-118282297D01*
X150865017Y-118282297D01*
X150865019Y-118282298D01*
X151093951Y-118320500D01*
X151093952Y-118320500D01*
X151326048Y-118320500D01*
X151326049Y-118320500D01*
X151554981Y-118282298D01*
X151774503Y-118206936D01*
X151978626Y-118096470D01*
X152161784Y-117953913D01*
X152318979Y-117783153D01*
X152445924Y-117588849D01*
X152539157Y-117376300D01*
X152596134Y-117151305D01*
X152596135Y-117151297D01*
X152615300Y-116920006D01*
X152615300Y-116919993D01*
X152596135Y-116688702D01*
X152596133Y-116688691D01*
X152539157Y-116463699D01*
X152445924Y-116251151D01*
X152318983Y-116056852D01*
X152318980Y-116056849D01*
X152318979Y-116056847D01*
X152161784Y-115886087D01*
X152161779Y-115886083D01*
X152161777Y-115886081D01*
X151978634Y-115743535D01*
X151978628Y-115743531D01*
X151774504Y-115633064D01*
X151774495Y-115633061D01*
X151554984Y-115557702D01*
X151383282Y-115529050D01*
X151326049Y-115519500D01*
X151093951Y-115519500D01*
X151048164Y-115527140D01*
X150865015Y-115557702D01*
X150645504Y-115633061D01*
X150645495Y-115633064D01*
X150441371Y-115743531D01*
X150441365Y-115743535D01*
X150258222Y-115886081D01*
X150258219Y-115886084D01*
X150101016Y-116056852D01*
X150043809Y-116144416D01*
X149990662Y-116189773D01*
X149921431Y-116199197D01*
X149858095Y-116169695D01*
X149836191Y-116144416D01*
X149778983Y-116056852D01*
X149778980Y-116056849D01*
X149778979Y-116056847D01*
X149621784Y-115886087D01*
X149621779Y-115886083D01*
X149621777Y-115886081D01*
X149438634Y-115743535D01*
X149438628Y-115743531D01*
X149234504Y-115633064D01*
X149234495Y-115633061D01*
X149014984Y-115557702D01*
X148843282Y-115529050D01*
X148786049Y-115519500D01*
X148553951Y-115519500D01*
X148508164Y-115527140D01*
X148325015Y-115557702D01*
X148105504Y-115633061D01*
X148105495Y-115633064D01*
X147901371Y-115743531D01*
X147901365Y-115743535D01*
X147718222Y-115886081D01*
X147718219Y-115886084D01*
X147561016Y-116056852D01*
X147434075Y-116251151D01*
X147340842Y-116463699D01*
X147283866Y-116688691D01*
X147283864Y-116688702D01*
X147264700Y-116919993D01*
X147264700Y-116920006D01*
X127215300Y-116920006D01*
X127215300Y-116919993D01*
X127196135Y-116688702D01*
X127196133Y-116688691D01*
X127139157Y-116463699D01*
X127045924Y-116251151D01*
X126918983Y-116056852D01*
X126918980Y-116056849D01*
X126918979Y-116056847D01*
X126761784Y-115886087D01*
X126761779Y-115886083D01*
X126761777Y-115886081D01*
X126578634Y-115743535D01*
X126578628Y-115743531D01*
X126374504Y-115633064D01*
X126374495Y-115633061D01*
X126154984Y-115557702D01*
X125983282Y-115529050D01*
X125926049Y-115519500D01*
X125693951Y-115519500D01*
X125648164Y-115527140D01*
X125465015Y-115557702D01*
X125245504Y-115633061D01*
X125245495Y-115633064D01*
X125041371Y-115743531D01*
X125041365Y-115743535D01*
X124858222Y-115886081D01*
X124858219Y-115886084D01*
X124701016Y-116056852D01*
X124643809Y-116144416D01*
X124590662Y-116189773D01*
X124521431Y-116199197D01*
X124458095Y-116169695D01*
X124436191Y-116144416D01*
X124378983Y-116056852D01*
X124378980Y-116056849D01*
X124378979Y-116056847D01*
X124221784Y-115886087D01*
X124221779Y-115886083D01*
X124221777Y-115886081D01*
X124038634Y-115743535D01*
X124038628Y-115743531D01*
X123834504Y-115633064D01*
X123834495Y-115633061D01*
X123614984Y-115557702D01*
X123443282Y-115529050D01*
X123386049Y-115519500D01*
X123153951Y-115519500D01*
X123108164Y-115527140D01*
X122925015Y-115557702D01*
X122705504Y-115633061D01*
X122705495Y-115633064D01*
X122501371Y-115743531D01*
X122501365Y-115743535D01*
X122318222Y-115886081D01*
X122318219Y-115886084D01*
X122161016Y-116056852D01*
X122034075Y-116251151D01*
X121940842Y-116463699D01*
X121883866Y-116688691D01*
X121883864Y-116688702D01*
X121864700Y-116919993D01*
X121864700Y-116920006D01*
X81495300Y-116920006D01*
X81495300Y-116919993D01*
X81476135Y-116688702D01*
X81476133Y-116688691D01*
X81419157Y-116463699D01*
X81325924Y-116251151D01*
X81198983Y-116056852D01*
X81198980Y-116056849D01*
X81198979Y-116056847D01*
X81041784Y-115886087D01*
X81041779Y-115886083D01*
X81041777Y-115886081D01*
X80858634Y-115743535D01*
X80858628Y-115743531D01*
X80654504Y-115633064D01*
X80654495Y-115633061D01*
X80434984Y-115557702D01*
X80263282Y-115529050D01*
X80206049Y-115519500D01*
X79973951Y-115519500D01*
X79928164Y-115527140D01*
X79745015Y-115557702D01*
X79525504Y-115633061D01*
X79525495Y-115633064D01*
X79321371Y-115743531D01*
X79321365Y-115743535D01*
X79138222Y-115886081D01*
X79138219Y-115886084D01*
X78981016Y-116056852D01*
X78923809Y-116144416D01*
X78870662Y-116189773D01*
X78801431Y-116199197D01*
X78738095Y-116169695D01*
X78716191Y-116144416D01*
X78658983Y-116056852D01*
X78658980Y-116056849D01*
X78658979Y-116056847D01*
X78501784Y-115886087D01*
X78501779Y-115886083D01*
X78501777Y-115886081D01*
X78318634Y-115743535D01*
X78318628Y-115743531D01*
X78114504Y-115633064D01*
X78114495Y-115633061D01*
X77894984Y-115557702D01*
X77723282Y-115529050D01*
X77666049Y-115519500D01*
X77433951Y-115519500D01*
X77388164Y-115527140D01*
X77205015Y-115557702D01*
X76985504Y-115633061D01*
X76985495Y-115633064D01*
X76781371Y-115743531D01*
X76781365Y-115743535D01*
X76598222Y-115886081D01*
X76598219Y-115886084D01*
X76441016Y-116056852D01*
X76314075Y-116251151D01*
X76220842Y-116463699D01*
X76163866Y-116688691D01*
X76163864Y-116688702D01*
X76144700Y-116919993D01*
X76144700Y-116920006D01*
X56095300Y-116920006D01*
X56095300Y-116919993D01*
X56076135Y-116688702D01*
X56076133Y-116688691D01*
X56019157Y-116463699D01*
X55925924Y-116251151D01*
X55798983Y-116056852D01*
X55798980Y-116056849D01*
X55798979Y-116056847D01*
X55641784Y-115886087D01*
X55641779Y-115886083D01*
X55641777Y-115886081D01*
X55458634Y-115743535D01*
X55458628Y-115743531D01*
X55254504Y-115633064D01*
X55254495Y-115633061D01*
X55034984Y-115557702D01*
X54863282Y-115529050D01*
X54806049Y-115519500D01*
X54573951Y-115519500D01*
X54528164Y-115527140D01*
X54345015Y-115557702D01*
X54125504Y-115633061D01*
X54125495Y-115633064D01*
X53921371Y-115743531D01*
X53921365Y-115743535D01*
X53738222Y-115886081D01*
X53738219Y-115886084D01*
X53581016Y-116056852D01*
X53523809Y-116144416D01*
X53470662Y-116189773D01*
X53401431Y-116199197D01*
X53338095Y-116169695D01*
X53316191Y-116144416D01*
X53258983Y-116056852D01*
X53258980Y-116056849D01*
X53258979Y-116056847D01*
X53101784Y-115886087D01*
X53101779Y-115886083D01*
X53101777Y-115886081D01*
X52918634Y-115743535D01*
X52918628Y-115743531D01*
X52714504Y-115633064D01*
X52714495Y-115633061D01*
X52494984Y-115557702D01*
X52323282Y-115529050D01*
X52266049Y-115519500D01*
X52033951Y-115519500D01*
X51988164Y-115527140D01*
X51805015Y-115557702D01*
X51585504Y-115633061D01*
X51585495Y-115633064D01*
X51381371Y-115743531D01*
X51381365Y-115743535D01*
X51198222Y-115886081D01*
X51198219Y-115886084D01*
X51041016Y-116056852D01*
X50914075Y-116251151D01*
X50820842Y-116463699D01*
X50763866Y-116688691D01*
X50763864Y-116688702D01*
X50744700Y-116919993D01*
X50744700Y-116920006D01*
X28238350Y-116920006D01*
X28085377Y-116416591D01*
X28084072Y-116411974D01*
X27838567Y-115472989D01*
X27837441Y-115468312D01*
X27628980Y-114520377D01*
X27628047Y-114515697D01*
X27603749Y-114380006D01*
X57094700Y-114380006D01*
X57113864Y-114611297D01*
X57113866Y-114611308D01*
X57170842Y-114836300D01*
X57264075Y-115048848D01*
X57391016Y-115243147D01*
X57391019Y-115243151D01*
X57391021Y-115243153D01*
X57548216Y-115413913D01*
X57548219Y-115413915D01*
X57548222Y-115413918D01*
X57731365Y-115556464D01*
X57731371Y-115556468D01*
X57731374Y-115556470D01*
X57935497Y-115666936D01*
X58049487Y-115706068D01*
X58155015Y-115742297D01*
X58155017Y-115742297D01*
X58155019Y-115742298D01*
X58383951Y-115780500D01*
X58383952Y-115780500D01*
X58616048Y-115780500D01*
X58616049Y-115780500D01*
X58844981Y-115742298D01*
X59064503Y-115666936D01*
X59268626Y-115556470D01*
X59451784Y-115413913D01*
X59608979Y-115243153D01*
X59735924Y-115048849D01*
X59829157Y-114836300D01*
X59886134Y-114611305D01*
X59886135Y-114611297D01*
X59905300Y-114380006D01*
X82494700Y-114380006D01*
X82513864Y-114611297D01*
X82513866Y-114611308D01*
X82570842Y-114836300D01*
X82664075Y-115048848D01*
X82791016Y-115243147D01*
X82791019Y-115243151D01*
X82791021Y-115243153D01*
X82948216Y-115413913D01*
X82948219Y-115413915D01*
X82948222Y-115413918D01*
X83131365Y-115556464D01*
X83131371Y-115556468D01*
X83131374Y-115556470D01*
X83335497Y-115666936D01*
X83449487Y-115706068D01*
X83555015Y-115742297D01*
X83555017Y-115742297D01*
X83555019Y-115742298D01*
X83783951Y-115780500D01*
X83783952Y-115780500D01*
X84016048Y-115780500D01*
X84016049Y-115780500D01*
X84244981Y-115742298D01*
X84464503Y-115666936D01*
X84668626Y-115556470D01*
X84851784Y-115413913D01*
X85008979Y-115243153D01*
X85135924Y-115048849D01*
X85229157Y-114836300D01*
X85286134Y-114611305D01*
X85286135Y-114611297D01*
X85305300Y-114380006D01*
X128214700Y-114380006D01*
X128233864Y-114611297D01*
X128233866Y-114611308D01*
X128290842Y-114836300D01*
X128384075Y-115048848D01*
X128511016Y-115243147D01*
X128511019Y-115243151D01*
X128511021Y-115243153D01*
X128668216Y-115413913D01*
X128668219Y-115413915D01*
X128668222Y-115413918D01*
X128851365Y-115556464D01*
X128851371Y-115556468D01*
X128851374Y-115556470D01*
X129055497Y-115666936D01*
X129169487Y-115706068D01*
X129275015Y-115742297D01*
X129275017Y-115742297D01*
X129275019Y-115742298D01*
X129503951Y-115780500D01*
X129503952Y-115780500D01*
X129736048Y-115780500D01*
X129736049Y-115780500D01*
X129964981Y-115742298D01*
X130184503Y-115666936D01*
X130388626Y-115556470D01*
X130571784Y-115413913D01*
X130728979Y-115243153D01*
X130855924Y-115048849D01*
X130949157Y-114836300D01*
X131006134Y-114611305D01*
X131006135Y-114611297D01*
X131025300Y-114380006D01*
X153614700Y-114380006D01*
X153633864Y-114611297D01*
X153633866Y-114611308D01*
X153690842Y-114836300D01*
X153784075Y-115048848D01*
X153911016Y-115243147D01*
X153911019Y-115243151D01*
X153911021Y-115243153D01*
X154068216Y-115413913D01*
X154068219Y-115413915D01*
X154068222Y-115413918D01*
X154251365Y-115556464D01*
X154251371Y-115556468D01*
X154251374Y-115556470D01*
X154455497Y-115666936D01*
X154569487Y-115706068D01*
X154675015Y-115742297D01*
X154675017Y-115742297D01*
X154675019Y-115742298D01*
X154903951Y-115780500D01*
X154903952Y-115780500D01*
X155136048Y-115780500D01*
X155136049Y-115780500D01*
X155364981Y-115742298D01*
X155584503Y-115666936D01*
X155788626Y-115556470D01*
X155971784Y-115413913D01*
X156128979Y-115243153D01*
X156255924Y-115048849D01*
X156349157Y-114836300D01*
X156406134Y-114611305D01*
X156406135Y-114611297D01*
X156425300Y-114380006D01*
X156425300Y-114379993D01*
X156406135Y-114148702D01*
X156406133Y-114148691D01*
X156349157Y-113923699D01*
X156255924Y-113711151D01*
X156128983Y-113516852D01*
X156128980Y-113516849D01*
X156128979Y-113516847D01*
X155971784Y-113346087D01*
X155971779Y-113346083D01*
X155971777Y-113346081D01*
X155788634Y-113203535D01*
X155788628Y-113203531D01*
X155584504Y-113093064D01*
X155584495Y-113093061D01*
X155364984Y-113017702D01*
X155193282Y-112989050D01*
X155136049Y-112979500D01*
X154903951Y-112979500D01*
X154858164Y-112987140D01*
X154675015Y-113017702D01*
X154455504Y-113093061D01*
X154455495Y-113093064D01*
X154251371Y-113203531D01*
X154251365Y-113203535D01*
X154068222Y-113346081D01*
X154068219Y-113346084D01*
X153911016Y-113516852D01*
X153784075Y-113711151D01*
X153690842Y-113923699D01*
X153633866Y-114148691D01*
X153633864Y-114148702D01*
X153614700Y-114379993D01*
X153614700Y-114380006D01*
X131025300Y-114380006D01*
X131025300Y-114379993D01*
X131006135Y-114148702D01*
X131006133Y-114148691D01*
X130949157Y-113923699D01*
X130855924Y-113711151D01*
X130728983Y-113516852D01*
X130728980Y-113516849D01*
X130728979Y-113516847D01*
X130571784Y-113346087D01*
X130571779Y-113346083D01*
X130571777Y-113346081D01*
X130388634Y-113203535D01*
X130388628Y-113203531D01*
X130184504Y-113093064D01*
X130184495Y-113093061D01*
X129964984Y-113017702D01*
X129793282Y-112989050D01*
X129736049Y-112979500D01*
X129503951Y-112979500D01*
X129458164Y-112987140D01*
X129275015Y-113017702D01*
X129055504Y-113093061D01*
X129055495Y-113093064D01*
X128851371Y-113203531D01*
X128851365Y-113203535D01*
X128668222Y-113346081D01*
X128668219Y-113346084D01*
X128511016Y-113516852D01*
X128384075Y-113711151D01*
X128290842Y-113923699D01*
X128233866Y-114148691D01*
X128233864Y-114148702D01*
X128214700Y-114379993D01*
X128214700Y-114380006D01*
X85305300Y-114380006D01*
X85305300Y-114379993D01*
X85286135Y-114148702D01*
X85286133Y-114148691D01*
X85229157Y-113923699D01*
X85135924Y-113711151D01*
X85008983Y-113516852D01*
X85008980Y-113516849D01*
X85008979Y-113516847D01*
X84851784Y-113346087D01*
X84851779Y-113346083D01*
X84851777Y-113346081D01*
X84668634Y-113203535D01*
X84668628Y-113203531D01*
X84464504Y-113093064D01*
X84464495Y-113093061D01*
X84244984Y-113017702D01*
X84073282Y-112989050D01*
X84016049Y-112979500D01*
X83783951Y-112979500D01*
X83738164Y-112987140D01*
X83555015Y-113017702D01*
X83335504Y-113093061D01*
X83335495Y-113093064D01*
X83131371Y-113203531D01*
X83131365Y-113203535D01*
X82948222Y-113346081D01*
X82948219Y-113346084D01*
X82791016Y-113516852D01*
X82664075Y-113711151D01*
X82570842Y-113923699D01*
X82513866Y-114148691D01*
X82513864Y-114148702D01*
X82494700Y-114379993D01*
X82494700Y-114380006D01*
X59905300Y-114380006D01*
X59905300Y-114379993D01*
X59886135Y-114148702D01*
X59886133Y-114148691D01*
X59829157Y-113923699D01*
X59735924Y-113711151D01*
X59608983Y-113516852D01*
X59608980Y-113516849D01*
X59608979Y-113516847D01*
X59451784Y-113346087D01*
X59451779Y-113346083D01*
X59451777Y-113346081D01*
X59268634Y-113203535D01*
X59268628Y-113203531D01*
X59064504Y-113093064D01*
X59064495Y-113093061D01*
X58844984Y-113017702D01*
X58673282Y-112989050D01*
X58616049Y-112979500D01*
X58383951Y-112979500D01*
X58338164Y-112987140D01*
X58155015Y-113017702D01*
X57935504Y-113093061D01*
X57935495Y-113093064D01*
X57731371Y-113203531D01*
X57731365Y-113203535D01*
X57548222Y-113346081D01*
X57548219Y-113346084D01*
X57391016Y-113516852D01*
X57264075Y-113711151D01*
X57170842Y-113923699D01*
X57113866Y-114148691D01*
X57113864Y-114148702D01*
X57094700Y-114379993D01*
X57094700Y-114380006D01*
X27603749Y-114380006D01*
X27456969Y-113560335D01*
X27456214Y-113555587D01*
X27322774Y-112594247D01*
X27322208Y-112589488D01*
X27226610Y-111623615D01*
X27226233Y-111618855D01*
X27168633Y-110650036D01*
X27168440Y-110645184D01*
X27158341Y-110143182D01*
X27148894Y-109673608D01*
X27148870Y-109671168D01*
X27148870Y-81026003D01*
X99651435Y-81026003D01*
X99671630Y-81205249D01*
X99671631Y-81205254D01*
X99731211Y-81375523D01*
X99811562Y-81503400D01*
X99827184Y-81528262D01*
X99954738Y-81655816D01*
X100107478Y-81751789D01*
X100277745Y-81811368D01*
X100277750Y-81811369D01*
X100389915Y-81824006D01*
X100422840Y-81827716D01*
X100487254Y-81854782D01*
X100496638Y-81863255D01*
X101067702Y-82434319D01*
X101078396Y-82446513D01*
X101096150Y-82469650D01*
X101125730Y-82492347D01*
X101125731Y-82492348D01*
X101213965Y-82560052D01*
X101213966Y-82560052D01*
X101213967Y-82560053D01*
X101351166Y-82616883D01*
X101481270Y-82634011D01*
X101498399Y-82636267D01*
X101498400Y-82636267D01*
X101498401Y-82636267D01*
X101512700Y-82634384D01*
X101527310Y-82632460D01*
X101543494Y-82631400D01*
X109759106Y-82631400D01*
X109775289Y-82632460D01*
X109789899Y-82634384D01*
X109804199Y-82636267D01*
X109804200Y-82636267D01*
X109804201Y-82636267D01*
X109819544Y-82634246D01*
X109951434Y-82616883D01*
X110088633Y-82560053D01*
X110176868Y-82492349D01*
X110176868Y-82492348D01*
X110199806Y-82474748D01*
X110199806Y-82474747D01*
X110206450Y-82469650D01*
X110224209Y-82446504D01*
X110234890Y-82434325D01*
X115580212Y-77089003D01*
X116517035Y-77089003D01*
X116537230Y-77268249D01*
X116537231Y-77268254D01*
X116596811Y-77438523D01*
X116665745Y-77548230D01*
X116692784Y-77591262D01*
X116820338Y-77718816D01*
X116896650Y-77766766D01*
X116964418Y-77809348D01*
X116973078Y-77814789D01*
X117091378Y-77856184D01*
X117143345Y-77874368D01*
X117143350Y-77874369D01*
X117322596Y-77894565D01*
X117322600Y-77894565D01*
X117322604Y-77894565D01*
X117501849Y-77874369D01*
X117501852Y-77874368D01*
X117501855Y-77874368D01*
X117672122Y-77814789D01*
X117824862Y-77718816D01*
X117854359Y-77689319D01*
X117915682Y-77655834D01*
X117942040Y-77653000D01*
X127832680Y-77653000D01*
X127899719Y-77672685D01*
X127945474Y-77725489D01*
X127955418Y-77794647D01*
X127937674Y-77842972D01*
X127849011Y-77984076D01*
X127789431Y-78154345D01*
X127789430Y-78154350D01*
X127769235Y-78333596D01*
X127769235Y-78333603D01*
X127789430Y-78512849D01*
X127789431Y-78512854D01*
X127849011Y-78683123D01*
X127890536Y-78749209D01*
X127944984Y-78835862D01*
X128072538Y-78963416D01*
X128225278Y-79059389D01*
X128378135Y-79112876D01*
X128395545Y-79118968D01*
X128395550Y-79118969D01*
X128574796Y-79139165D01*
X128574800Y-79139165D01*
X128574804Y-79139165D01*
X128754049Y-79118969D01*
X128754052Y-79118968D01*
X128754055Y-79118968D01*
X128924322Y-79059389D01*
X129077062Y-78963416D01*
X129106559Y-78933919D01*
X129167882Y-78900434D01*
X129194240Y-78897600D01*
X138918306Y-78897600D01*
X138934489Y-78898660D01*
X138947958Y-78900434D01*
X138963399Y-78902467D01*
X138963400Y-78902467D01*
X138963401Y-78902467D01*
X138978842Y-78900434D01*
X139110634Y-78883083D01*
X139247833Y-78826253D01*
X139336068Y-78758549D01*
X139336068Y-78758548D01*
X139359006Y-78740948D01*
X139359006Y-78740947D01*
X139365650Y-78735850D01*
X139383409Y-78712704D01*
X139394090Y-78700525D01*
X145400925Y-72693690D01*
X145413104Y-72683009D01*
X145436250Y-72665250D01*
X145526653Y-72547433D01*
X145538618Y-72518545D01*
X145565495Y-72478320D01*
X149464924Y-68578891D01*
X149477115Y-68568201D01*
X149500250Y-68550450D01*
X149532656Y-68508218D01*
X149590652Y-68432634D01*
X149590651Y-68432634D01*
X149590653Y-68432633D01*
X149647483Y-68295434D01*
X149666867Y-68148200D01*
X149663061Y-68119289D01*
X149662000Y-68103104D01*
X149662000Y-53461294D01*
X149663061Y-53445108D01*
X149666867Y-53416200D01*
X149666867Y-53416199D01*
X149653682Y-53316054D01*
X149647483Y-53268966D01*
X149629684Y-53225997D01*
X149621025Y-53164661D01*
X149624165Y-53136800D01*
X149618624Y-53087621D01*
X149603969Y-52957550D01*
X149603968Y-52957545D01*
X149544388Y-52787276D01*
X149448415Y-52634537D01*
X149320862Y-52506984D01*
X149168123Y-52411011D01*
X148997854Y-52351431D01*
X148997849Y-52351430D01*
X148895314Y-52339878D01*
X148830900Y-52312812D01*
X148791345Y-52255217D01*
X148789207Y-52185380D01*
X148789322Y-52184939D01*
X148834078Y-52017913D01*
X148853720Y-51793400D01*
X148834078Y-51568887D01*
X148775747Y-51351195D01*
X148680502Y-51146940D01*
X148551234Y-50962327D01*
X148391873Y-50802966D01*
X148207260Y-50673698D01*
X148207256Y-50673696D01*
X148003011Y-50578455D01*
X148003000Y-50578451D01*
X147785314Y-50520122D01*
X147785307Y-50520121D01*
X147560802Y-50500480D01*
X147560798Y-50500480D01*
X147336292Y-50520121D01*
X147336285Y-50520122D01*
X147118599Y-50578451D01*
X147118588Y-50578455D01*
X146914343Y-50673696D01*
X146914333Y-50673702D01*
X146729726Y-50802966D01*
X146570366Y-50962326D01*
X146441102Y-51146933D01*
X146441096Y-51146943D01*
X146345855Y-51351188D01*
X146345851Y-51351199D01*
X146287522Y-51568885D01*
X146287521Y-51568892D01*
X146267880Y-51793397D01*
X146267880Y-51793402D01*
X146287521Y-52017907D01*
X146287522Y-52017914D01*
X146345851Y-52235600D01*
X146345855Y-52235611D01*
X146441096Y-52439856D01*
X146441098Y-52439860D01*
X146570366Y-52624473D01*
X146729727Y-52783834D01*
X146914340Y-52913102D01*
X147009649Y-52957545D01*
X147118588Y-53008344D01*
X147118590Y-53008344D01*
X147118595Y-53008347D01*
X147336287Y-53066678D01*
X147496653Y-53080708D01*
X147560798Y-53086320D01*
X147560800Y-53086320D01*
X147560802Y-53086320D01*
X147616928Y-53081409D01*
X147785313Y-53066678D01*
X147859512Y-53046796D01*
X147929359Y-53048459D01*
X147987222Y-53087621D01*
X148014727Y-53151849D01*
X148014824Y-53152687D01*
X148033230Y-53316050D01*
X148033231Y-53316054D01*
X148092811Y-53486323D01*
X148157212Y-53588816D01*
X148188784Y-53639062D01*
X148316338Y-53766616D01*
X148404920Y-53822276D01*
X148474974Y-53866294D01*
X148473428Y-53868754D01*
X148515629Y-53906818D01*
X148534000Y-53971768D01*
X148534000Y-65072616D01*
X148514315Y-65139655D01*
X148461511Y-65185410D01*
X148392353Y-65195354D01*
X148328797Y-65166329D01*
X148320126Y-65158048D01*
X148192116Y-65023381D01*
X148192114Y-65023380D01*
X148168481Y-65006931D01*
X148085108Y-64948901D01*
X148025853Y-64907658D01*
X147839703Y-64827776D01*
X147641283Y-64787000D01*
X147489483Y-64787000D01*
X147489482Y-64787000D01*
X147338471Y-64802355D01*
X147145204Y-64862993D01*
X147145189Y-64863000D01*
X146968084Y-64961301D01*
X146968079Y-64961304D01*
X146814384Y-65093248D01*
X146814382Y-65093249D01*
X146690393Y-65253431D01*
X146601180Y-65435303D01*
X146550409Y-65631391D01*
X146550408Y-65631397D01*
X146540148Y-65833708D01*
X146570820Y-66033930D01*
X146570823Y-66033942D01*
X146641173Y-66223890D01*
X146641177Y-66223899D01*
X146748321Y-66395798D01*
X146748326Y-66395804D01*
X146887883Y-66542618D01*
X146887885Y-66542619D01*
X146887887Y-66542621D01*
X147038414Y-66647391D01*
X147054146Y-66658341D01*
X147113650Y-66683876D01*
X147167494Y-66728403D01*
X147188717Y-66794971D01*
X147170582Y-66862446D01*
X147124928Y-66906246D01*
X146968080Y-66993304D01*
X146968079Y-66993304D01*
X146814384Y-67125248D01*
X146814382Y-67125249D01*
X146690393Y-67285431D01*
X146601180Y-67467303D01*
X146550409Y-67663391D01*
X146550408Y-67663397D01*
X146540148Y-67865708D01*
X146570820Y-68065930D01*
X146570823Y-68065942D01*
X146641173Y-68255890D01*
X146641177Y-68255899D01*
X146748321Y-68427798D01*
X146748326Y-68427804D01*
X146887883Y-68574618D01*
X146887885Y-68574619D01*
X146887887Y-68574621D01*
X147054146Y-68690341D01*
X147240297Y-68770224D01*
X147378164Y-68798556D01*
X147439867Y-68831331D01*
X147474056Y-68892264D01*
X147469875Y-68962009D01*
X147440883Y-69007698D01*
X145996671Y-70451910D01*
X145935348Y-70485395D01*
X145865656Y-70480411D01*
X145809723Y-70438539D01*
X145791948Y-70405183D01*
X145759789Y-70313278D01*
X145740536Y-70282637D01*
X145663816Y-70160538D01*
X145536262Y-70032984D01*
X145513310Y-70018562D01*
X145383523Y-69937011D01*
X145213254Y-69877431D01*
X145213249Y-69877430D01*
X145034004Y-69857235D01*
X145033996Y-69857235D01*
X144854750Y-69877430D01*
X144854745Y-69877431D01*
X144684476Y-69937011D01*
X144531737Y-70032984D01*
X144404184Y-70160537D01*
X144308211Y-70313276D01*
X144248631Y-70483545D01*
X144248630Y-70483550D01*
X144228435Y-70662796D01*
X144228435Y-70662803D01*
X144248630Y-70842049D01*
X144248631Y-70842054D01*
X144308211Y-71012323D01*
X144404184Y-71165062D01*
X144433681Y-71194559D01*
X144467166Y-71255882D01*
X144470000Y-71282240D01*
X144470000Y-71978021D01*
X144450315Y-72045060D01*
X144433681Y-72065702D01*
X138766102Y-77733281D01*
X138704779Y-77766766D01*
X138678421Y-77769600D01*
X129194240Y-77769600D01*
X129127201Y-77749915D01*
X129106559Y-77733281D01*
X129077062Y-77703784D01*
X128924323Y-77607811D01*
X128754054Y-77548231D01*
X128754049Y-77548230D01*
X128650725Y-77536589D01*
X128586311Y-77509523D01*
X128546755Y-77451928D01*
X128544618Y-77382091D01*
X128576925Y-77325690D01*
X131887962Y-74014653D01*
X131949283Y-73981170D01*
X131961751Y-73979117D01*
X132026671Y-73971802D01*
X132106850Y-73962769D01*
X132106853Y-73962768D01*
X132106855Y-73962768D01*
X132277122Y-73903189D01*
X132429862Y-73807216D01*
X132557416Y-73679662D01*
X132653389Y-73526922D01*
X132712968Y-73356655D01*
X132717040Y-73320519D01*
X132733165Y-73177403D01*
X132733165Y-73177396D01*
X132712969Y-72998150D01*
X132712968Y-72998145D01*
X132688755Y-72928948D01*
X132653389Y-72827878D01*
X132557416Y-72675138D01*
X132429862Y-72547584D01*
X132429620Y-72547432D01*
X132277119Y-72451609D01*
X132128766Y-72399697D01*
X132071990Y-72358975D01*
X132046243Y-72294022D01*
X132059700Y-72225461D01*
X132082037Y-72194978D01*
X137427308Y-66849708D01*
X141460148Y-66849708D01*
X141490820Y-67049930D01*
X141490823Y-67049942D01*
X141561173Y-67239890D01*
X141561177Y-67239899D01*
X141668321Y-67411798D01*
X141668326Y-67411804D01*
X141807883Y-67558618D01*
X141807885Y-67558619D01*
X141807887Y-67558621D01*
X141974146Y-67674341D01*
X142160297Y-67754224D01*
X142358717Y-67795000D01*
X142510518Y-67795000D01*
X142661528Y-67779644D01*
X142854795Y-67719006D01*
X142854796Y-67719005D01*
X142854804Y-67719003D01*
X143031918Y-67620697D01*
X143185617Y-67488750D01*
X143309609Y-67328565D01*
X143398818Y-67146700D01*
X143449592Y-66950600D01*
X143459852Y-66748293D01*
X143429178Y-66548062D01*
X143358825Y-66358105D01*
X143303557Y-66269435D01*
X143251678Y-66186201D01*
X143251673Y-66186195D01*
X143112116Y-66039381D01*
X143112114Y-66039380D01*
X143104295Y-66033938D01*
X143022923Y-65977301D01*
X142945853Y-65923658D01*
X142759703Y-65843776D01*
X142561283Y-65803000D01*
X142409483Y-65803000D01*
X142409482Y-65803000D01*
X142258471Y-65818355D01*
X142065204Y-65878993D01*
X142065189Y-65879000D01*
X141888084Y-65977301D01*
X141888079Y-65977304D01*
X141734384Y-66109248D01*
X141734382Y-66109249D01*
X141610393Y-66269431D01*
X141521180Y-66451303D01*
X141470409Y-66647391D01*
X141470408Y-66647397D01*
X141460148Y-66849708D01*
X137427308Y-66849708D01*
X139617898Y-64659119D01*
X139679221Y-64625634D01*
X139705579Y-64622800D01*
X140655360Y-64622800D01*
X140722399Y-64642485D01*
X140743041Y-64659119D01*
X140772538Y-64688616D01*
X140925278Y-64784589D01*
X141095545Y-64844168D01*
X141095550Y-64844169D01*
X141274796Y-64864365D01*
X141274800Y-64864365D01*
X141274804Y-64864365D01*
X141454049Y-64844169D01*
X141454052Y-64844168D01*
X141454055Y-64844168D01*
X141624322Y-64784589D01*
X141777062Y-64688616D01*
X141904616Y-64561062D01*
X142000589Y-64408322D01*
X142060168Y-64238055D01*
X142062807Y-64214632D01*
X142080365Y-64058803D01*
X142080365Y-64058796D01*
X142060169Y-63879550D01*
X142060168Y-63879545D01*
X142000588Y-63709276D01*
X141932011Y-63600137D01*
X141904616Y-63556538D01*
X141777062Y-63428984D01*
X141701702Y-63381632D01*
X141624323Y-63333011D01*
X141454054Y-63273431D01*
X141454049Y-63273430D01*
X141274804Y-63253235D01*
X141274796Y-63253235D01*
X141095550Y-63273430D01*
X141095545Y-63273431D01*
X140925276Y-63333011D01*
X140772537Y-63428984D01*
X140743041Y-63458481D01*
X140681718Y-63491966D01*
X140655360Y-63494800D01*
X139465701Y-63494800D01*
X139449516Y-63493739D01*
X139420600Y-63489932D01*
X139420599Y-63489932D01*
X139273365Y-63509317D01*
X139136168Y-63566144D01*
X139136166Y-63566146D01*
X139059508Y-63624968D01*
X139018350Y-63656548D01*
X139000592Y-63679690D01*
X138989901Y-63691880D01*
X130279110Y-72402671D01*
X130217787Y-72436156D01*
X130148095Y-72431172D01*
X130092162Y-72389300D01*
X130067745Y-72323836D01*
X130082597Y-72255563D01*
X130086436Y-72249017D01*
X130113388Y-72206124D01*
X130113389Y-72206122D01*
X130172968Y-72035855D01*
X130172969Y-72035849D01*
X130193165Y-71856603D01*
X130193165Y-71856596D01*
X130172969Y-71677350D01*
X130172968Y-71677345D01*
X130146103Y-71600569D01*
X130113389Y-71507078D01*
X130107520Y-71497738D01*
X130033038Y-71379200D01*
X130017416Y-71354338D01*
X129889862Y-71226784D01*
X129850877Y-71202288D01*
X129737123Y-71130811D01*
X129566854Y-71071231D01*
X129566849Y-71071230D01*
X129387604Y-71051035D01*
X129387596Y-71051035D01*
X129208350Y-71071230D01*
X129208345Y-71071231D01*
X129038076Y-71130811D01*
X128885337Y-71226784D01*
X128855841Y-71256281D01*
X128794518Y-71289766D01*
X128768160Y-71292600D01*
X125968440Y-71292600D01*
X125901401Y-71272915D01*
X125880759Y-71256281D01*
X125876662Y-71252184D01*
X125723923Y-71156211D01*
X125553654Y-71096631D01*
X125553649Y-71096630D01*
X125374404Y-71076435D01*
X125374396Y-71076435D01*
X125195150Y-71096630D01*
X125195145Y-71096631D01*
X125024876Y-71156211D01*
X124872137Y-71252184D01*
X124744584Y-71379737D01*
X124648611Y-71532476D01*
X124589031Y-71702745D01*
X124589030Y-71702750D01*
X124568835Y-71881996D01*
X124568835Y-71882003D01*
X124589030Y-72061249D01*
X124589031Y-72061254D01*
X124648611Y-72231523D01*
X124702916Y-72317948D01*
X124744584Y-72384262D01*
X124872138Y-72511816D01*
X124940297Y-72554643D01*
X125012989Y-72600319D01*
X125024878Y-72607789D01*
X125087825Y-72629815D01*
X125195145Y-72667368D01*
X125195150Y-72667369D01*
X125374396Y-72687565D01*
X125374400Y-72687565D01*
X125374404Y-72687565D01*
X125553649Y-72667369D01*
X125553652Y-72667368D01*
X125553655Y-72667368D01*
X125723922Y-72607789D01*
X125876662Y-72511816D01*
X125931559Y-72456919D01*
X125992882Y-72423434D01*
X126019240Y-72420600D01*
X128768160Y-72420600D01*
X128835199Y-72440285D01*
X128855841Y-72456919D01*
X128885338Y-72486416D01*
X128925762Y-72511816D01*
X129030634Y-72577712D01*
X129038078Y-72582389D01*
X129117183Y-72610069D01*
X129208345Y-72641968D01*
X129208350Y-72641969D01*
X129387596Y-72662165D01*
X129387600Y-72662165D01*
X129387604Y-72662165D01*
X129566849Y-72641969D01*
X129566852Y-72641968D01*
X129566855Y-72641968D01*
X129737122Y-72582389D01*
X129744566Y-72577712D01*
X129775042Y-72558562D01*
X129780017Y-72555435D01*
X129847253Y-72536435D01*
X129914089Y-72556802D01*
X129959303Y-72610069D01*
X129968542Y-72679325D01*
X129938871Y-72742582D01*
X129933671Y-72748110D01*
X127369837Y-75311944D01*
X127308514Y-75345429D01*
X127296040Y-75347483D01*
X127150949Y-75363830D01*
X127150945Y-75363831D01*
X126980676Y-75423411D01*
X126827937Y-75519384D01*
X126700384Y-75646937D01*
X126604411Y-75799676D01*
X126544831Y-75969945D01*
X126544830Y-75969950D01*
X126524635Y-76149196D01*
X126524635Y-76149203D01*
X126544830Y-76328449D01*
X126544833Y-76328462D01*
X126555885Y-76360045D01*
X126559447Y-76429824D01*
X126524719Y-76490451D01*
X126462726Y-76522679D01*
X126438844Y-76525000D01*
X117942040Y-76525000D01*
X117875001Y-76505315D01*
X117854359Y-76488681D01*
X117824862Y-76459184D01*
X117672123Y-76363211D01*
X117501854Y-76303631D01*
X117501849Y-76303630D01*
X117322604Y-76283435D01*
X117322596Y-76283435D01*
X117143350Y-76303630D01*
X117143345Y-76303631D01*
X116973076Y-76363211D01*
X116820337Y-76459184D01*
X116692784Y-76586737D01*
X116596811Y-76739476D01*
X116537231Y-76909745D01*
X116537230Y-76909750D01*
X116517035Y-77088996D01*
X116517035Y-77089003D01*
X115580212Y-77089003D01*
X115866925Y-76802290D01*
X115879104Y-76791609D01*
X115902250Y-76773850D01*
X115931830Y-76735300D01*
X115992654Y-76656033D01*
X116049483Y-76518833D01*
X116068868Y-76371600D01*
X116065061Y-76342682D01*
X116064000Y-76326497D01*
X116064000Y-51793402D01*
X138267880Y-51793402D01*
X138287521Y-52017907D01*
X138287522Y-52017914D01*
X138345851Y-52235600D01*
X138345855Y-52235611D01*
X138441096Y-52439856D01*
X138441098Y-52439860D01*
X138570366Y-52624473D01*
X138729727Y-52783834D01*
X138914340Y-52913102D01*
X139009649Y-52957545D01*
X139118588Y-53008344D01*
X139118590Y-53008344D01*
X139118595Y-53008347D01*
X139336287Y-53066678D01*
X139496653Y-53080708D01*
X139560798Y-53086320D01*
X139560800Y-53086320D01*
X139560802Y-53086320D01*
X139616928Y-53081409D01*
X139785313Y-53066678D01*
X140003005Y-53008347D01*
X140207260Y-52913102D01*
X140391873Y-52783834D01*
X140551234Y-52624473D01*
X140680502Y-52439860D01*
X140775747Y-52235605D01*
X140834078Y-52017913D01*
X140853720Y-51793400D01*
X140834078Y-51568887D01*
X140775747Y-51351195D01*
X140680502Y-51146940D01*
X140551234Y-50962327D01*
X140391873Y-50802966D01*
X140207260Y-50673698D01*
X140207256Y-50673696D01*
X140003011Y-50578455D01*
X140003000Y-50578451D01*
X139785314Y-50520122D01*
X139785307Y-50520121D01*
X139560802Y-50500480D01*
X139560798Y-50500480D01*
X139336292Y-50520121D01*
X139336285Y-50520122D01*
X139118599Y-50578451D01*
X139118588Y-50578455D01*
X138914343Y-50673696D01*
X138914333Y-50673702D01*
X138729726Y-50802966D01*
X138570366Y-50962326D01*
X138441102Y-51146933D01*
X138441096Y-51146943D01*
X138345855Y-51351188D01*
X138345851Y-51351199D01*
X138287522Y-51568885D01*
X138287521Y-51568892D01*
X138267880Y-51793397D01*
X138267880Y-51793402D01*
X116064000Y-51793402D01*
X116064000Y-45793400D01*
X138268382Y-45793400D01*
X138288016Y-46017821D01*
X138288018Y-46017831D01*
X138346321Y-46235425D01*
X138346325Y-46235434D01*
X138441532Y-46439607D01*
X138441533Y-46439609D01*
X138490749Y-46509897D01*
X139056011Y-45944635D01*
X139061462Y-45970865D01*
X139127858Y-46099004D01*
X139226364Y-46204477D01*
X139349673Y-46279463D01*
X139411082Y-46296669D01*
X138844301Y-46863449D01*
X138914591Y-46912667D01*
X139118765Y-47007874D01*
X139118774Y-47007878D01*
X139336368Y-47066181D01*
X139336378Y-47066183D01*
X139560799Y-47085818D01*
X139560801Y-47085818D01*
X139785221Y-47066183D01*
X139785231Y-47066181D01*
X140002825Y-47007878D01*
X140002834Y-47007874D01*
X140207008Y-46912667D01*
X140207012Y-46912665D01*
X140277297Y-46863450D01*
X139713366Y-46299519D01*
X139836146Y-46246188D01*
X139948096Y-46155109D01*
X140031322Y-46037205D01*
X140064580Y-45943627D01*
X140630850Y-46509897D01*
X140680065Y-46439612D01*
X140680067Y-46439608D01*
X140775274Y-46235434D01*
X140775278Y-46235425D01*
X140833581Y-46017831D01*
X140833583Y-46017821D01*
X140853218Y-45793400D01*
X146268382Y-45793400D01*
X146288016Y-46017821D01*
X146288018Y-46017831D01*
X146346321Y-46235425D01*
X146346325Y-46235434D01*
X146441532Y-46439607D01*
X146441533Y-46439609D01*
X146490749Y-46509897D01*
X147056011Y-45944635D01*
X147061462Y-45970865D01*
X147127858Y-46099004D01*
X147226364Y-46204477D01*
X147349673Y-46279463D01*
X147411082Y-46296669D01*
X146844301Y-46863449D01*
X146914591Y-46912667D01*
X147118765Y-47007874D01*
X147118774Y-47007878D01*
X147336368Y-47066181D01*
X147336378Y-47066183D01*
X147560799Y-47085818D01*
X147560801Y-47085818D01*
X147785221Y-47066183D01*
X147785231Y-47066181D01*
X148002825Y-47007878D01*
X148002834Y-47007874D01*
X148207008Y-46912667D01*
X148207012Y-46912665D01*
X148277297Y-46863450D01*
X147713366Y-46299519D01*
X147836146Y-46246188D01*
X147948096Y-46155109D01*
X148031322Y-46037205D01*
X148064580Y-45943627D01*
X148630850Y-46509897D01*
X148680065Y-46439612D01*
X148680067Y-46439608D01*
X148775274Y-46235434D01*
X148775278Y-46235425D01*
X148833581Y-46017831D01*
X148833583Y-46017821D01*
X148853218Y-45793400D01*
X148853218Y-45793399D01*
X148833583Y-45568978D01*
X148833581Y-45568968D01*
X148775278Y-45351374D01*
X148775274Y-45351365D01*
X148680067Y-45147191D01*
X148630849Y-45076901D01*
X148065588Y-45642163D01*
X148060138Y-45615935D01*
X147993742Y-45487796D01*
X147895236Y-45382323D01*
X147771927Y-45307337D01*
X147710516Y-45290130D01*
X148277297Y-44723349D01*
X148277297Y-44723348D01*
X148207009Y-44674133D01*
X148207007Y-44674132D01*
X148002834Y-44578925D01*
X148002825Y-44578921D01*
X147785231Y-44520618D01*
X147785221Y-44520616D01*
X147560801Y-44500982D01*
X147560799Y-44500982D01*
X147336378Y-44520616D01*
X147336368Y-44520618D01*
X147118774Y-44578921D01*
X147118765Y-44578925D01*
X146914587Y-44674135D01*
X146844302Y-44723348D01*
X146844301Y-44723349D01*
X147408233Y-45287281D01*
X147285454Y-45340612D01*
X147173504Y-45431691D01*
X147090278Y-45549595D01*
X147057020Y-45643172D01*
X146490749Y-45076901D01*
X146490748Y-45076902D01*
X146441535Y-45147187D01*
X146346325Y-45351365D01*
X146346321Y-45351374D01*
X146288018Y-45568968D01*
X146288016Y-45568978D01*
X146268382Y-45793399D01*
X146268382Y-45793400D01*
X140853218Y-45793400D01*
X140853218Y-45793399D01*
X140833583Y-45568978D01*
X140833581Y-45568968D01*
X140775278Y-45351374D01*
X140775274Y-45351365D01*
X140680067Y-45147191D01*
X140630849Y-45076901D01*
X140065588Y-45642163D01*
X140060138Y-45615935D01*
X139993742Y-45487796D01*
X139895236Y-45382323D01*
X139771927Y-45307337D01*
X139710516Y-45290130D01*
X140277297Y-44723349D01*
X140277297Y-44723348D01*
X140207009Y-44674133D01*
X140207007Y-44674132D01*
X140002834Y-44578925D01*
X140002825Y-44578921D01*
X139785231Y-44520618D01*
X139785221Y-44520616D01*
X139560801Y-44500982D01*
X139560799Y-44500982D01*
X139336378Y-44520616D01*
X139336368Y-44520618D01*
X139118774Y-44578921D01*
X139118765Y-44578925D01*
X138914587Y-44674135D01*
X138844302Y-44723348D01*
X138844301Y-44723349D01*
X139408233Y-45287281D01*
X139285454Y-45340612D01*
X139173504Y-45431691D01*
X139090278Y-45549595D01*
X139057020Y-45643172D01*
X138490749Y-45076901D01*
X138490748Y-45076902D01*
X138441535Y-45147187D01*
X138346325Y-45351365D01*
X138346321Y-45351374D01*
X138288018Y-45568968D01*
X138288016Y-45568978D01*
X138268382Y-45793399D01*
X138268382Y-45793400D01*
X116064000Y-45793400D01*
X116064000Y-39129972D01*
X116083685Y-39062933D01*
X116136489Y-39017178D01*
X116147717Y-39012698D01*
X116164503Y-39006936D01*
X116368626Y-38896470D01*
X116369170Y-38896047D01*
X116430129Y-38848600D01*
X116551784Y-38753913D01*
X116708979Y-38583153D01*
X116835924Y-38388849D01*
X116929157Y-38176300D01*
X116986134Y-37951305D01*
X116986135Y-37951297D01*
X117005300Y-37720006D01*
X117005300Y-37719993D01*
X116986135Y-37488702D01*
X116986133Y-37488691D01*
X116929157Y-37263699D01*
X116835924Y-37051151D01*
X116708983Y-36856852D01*
X116708980Y-36856849D01*
X116708979Y-36856847D01*
X116551784Y-36686087D01*
X116374180Y-36547853D01*
X116333368Y-36491143D01*
X116329693Y-36421370D01*
X116364324Y-36360687D01*
X116374181Y-36352146D01*
X116551784Y-36213913D01*
X116708979Y-36043153D01*
X116835924Y-35848849D01*
X116929157Y-35636300D01*
X116986134Y-35411305D01*
X116986135Y-35411297D01*
X117005300Y-35180006D01*
X117005300Y-35179993D01*
X116986135Y-34948702D01*
X116986133Y-34948691D01*
X116929157Y-34723699D01*
X116835924Y-34511151D01*
X116708983Y-34316852D01*
X116708980Y-34316849D01*
X116708979Y-34316847D01*
X116551784Y-34146087D01*
X116374180Y-34007853D01*
X116333368Y-33951143D01*
X116329693Y-33881370D01*
X116364324Y-33820687D01*
X116374181Y-33812146D01*
X116551784Y-33673913D01*
X116708979Y-33503153D01*
X116835924Y-33308849D01*
X116929157Y-33096300D01*
X116986134Y-32871305D01*
X117005300Y-32640000D01*
X117005300Y-32639993D01*
X116986135Y-32408702D01*
X116986133Y-32408691D01*
X116929157Y-32183699D01*
X116835924Y-31971151D01*
X116708983Y-31776852D01*
X116708980Y-31776849D01*
X116708979Y-31776847D01*
X116551784Y-31606087D01*
X116374180Y-31467853D01*
X116333368Y-31411143D01*
X116329693Y-31341370D01*
X116364324Y-31280687D01*
X116374181Y-31272146D01*
X116551784Y-31133913D01*
X116708979Y-30963153D01*
X116835924Y-30768849D01*
X116929157Y-30556300D01*
X116986134Y-30331305D01*
X116986135Y-30331297D01*
X117005300Y-30100006D01*
X117005300Y-30099993D01*
X116986135Y-29868702D01*
X116986133Y-29868691D01*
X116929157Y-29643699D01*
X116835924Y-29431151D01*
X116708983Y-29236852D01*
X116708980Y-29236849D01*
X116708979Y-29236847D01*
X116551784Y-29066087D01*
X116374180Y-28927853D01*
X116333368Y-28871143D01*
X116329693Y-28801370D01*
X116364324Y-28740687D01*
X116374181Y-28732146D01*
X116551784Y-28593913D01*
X116708979Y-28423153D01*
X116835924Y-28228849D01*
X116929157Y-28016300D01*
X116986134Y-27791305D01*
X116988548Y-27762172D01*
X117005300Y-27560006D01*
X117005300Y-27559993D01*
X116986135Y-27328702D01*
X116986133Y-27328691D01*
X116929157Y-27103699D01*
X116835924Y-26891151D01*
X116708983Y-26696852D01*
X116708980Y-26696849D01*
X116708979Y-26696847D01*
X116551784Y-26526087D01*
X116374180Y-26387853D01*
X116333368Y-26331143D01*
X116329693Y-26261370D01*
X116364324Y-26200687D01*
X116374181Y-26192146D01*
X116551784Y-26053913D01*
X116708979Y-25883153D01*
X116763306Y-25800000D01*
X161694693Y-25800000D01*
X161713912Y-26215697D01*
X161713912Y-26215702D01*
X161713913Y-26215707D01*
X161771403Y-26627845D01*
X161771405Y-26627853D01*
X161866679Y-27032933D01*
X161998929Y-27427514D01*
X162167010Y-27808177D01*
X162167020Y-27808198D01*
X162369506Y-28171731D01*
X162369509Y-28171735D01*
X162369511Y-28171739D01*
X162604687Y-28515054D01*
X162604689Y-28515056D01*
X162604696Y-28515066D01*
X162792050Y-28740687D01*
X162870538Y-28835206D01*
X163164794Y-29129462D01*
X163164805Y-29129471D01*
X163484933Y-29395303D01*
X163484939Y-29395307D01*
X163484946Y-29395313D01*
X163828261Y-29630489D01*
X163828267Y-29630492D01*
X163828268Y-29630493D01*
X163851977Y-29643699D01*
X164191812Y-29832985D01*
X164272678Y-29868691D01*
X164572485Y-30001070D01*
X164572488Y-30001071D01*
X164572495Y-30001074D01*
X164967064Y-30133320D01*
X165372152Y-30228596D01*
X165784303Y-30286088D01*
X166200000Y-30305307D01*
X166615697Y-30286088D01*
X167027848Y-30228596D01*
X167432936Y-30133320D01*
X167827505Y-30001074D01*
X168208188Y-29832985D01*
X168571739Y-29630489D01*
X168915054Y-29395313D01*
X169235206Y-29129462D01*
X169529462Y-28835206D01*
X169795313Y-28515054D01*
X170030489Y-28171739D01*
X170232985Y-27808188D01*
X170401074Y-27427505D01*
X170533320Y-27032936D01*
X170628596Y-26627848D01*
X170686088Y-26215697D01*
X170705307Y-25800000D01*
X170686088Y-25384303D01*
X170628596Y-24972152D01*
X170533320Y-24567064D01*
X170401074Y-24172495D01*
X170400923Y-24172154D01*
X170257730Y-23847854D01*
X170232985Y-23791812D01*
X170219200Y-23767064D01*
X170030493Y-23428268D01*
X170030492Y-23428267D01*
X170030489Y-23428261D01*
X169795313Y-23084946D01*
X169795307Y-23084939D01*
X169795303Y-23084933D01*
X169529471Y-22764805D01*
X169529462Y-22764794D01*
X169235206Y-22470538D01*
X169235194Y-22470528D01*
X168915066Y-22204696D01*
X168915056Y-22204689D01*
X168915054Y-22204687D01*
X168571739Y-21969511D01*
X168571735Y-21969509D01*
X168571731Y-21969506D01*
X168208198Y-21767020D01*
X168208177Y-21767010D01*
X167827514Y-21598929D01*
X167432933Y-21466679D01*
X167027853Y-21371405D01*
X167027845Y-21371403D01*
X166615707Y-21313913D01*
X166615702Y-21313912D01*
X166615697Y-21313912D01*
X166200000Y-21294693D01*
X165784303Y-21313912D01*
X165784297Y-21313912D01*
X165784292Y-21313913D01*
X165372154Y-21371403D01*
X165372146Y-21371405D01*
X164967066Y-21466679D01*
X164572485Y-21598929D01*
X164191822Y-21767010D01*
X164191801Y-21767020D01*
X163828268Y-21969506D01*
X163828262Y-21969510D01*
X163484943Y-22204689D01*
X163484933Y-22204696D01*
X163164805Y-22470528D01*
X163164785Y-22470546D01*
X162870546Y-22764785D01*
X162870528Y-22764805D01*
X162604696Y-23084933D01*
X162604689Y-23084943D01*
X162369510Y-23428262D01*
X162369506Y-23428268D01*
X162167020Y-23791801D01*
X162167010Y-23791822D01*
X161998929Y-24172485D01*
X161866679Y-24567066D01*
X161771405Y-24972146D01*
X161771403Y-24972154D01*
X161713913Y-25384292D01*
X161713912Y-25384297D01*
X161713912Y-25384303D01*
X161694693Y-25800000D01*
X116763306Y-25800000D01*
X116835924Y-25688849D01*
X116929157Y-25476300D01*
X116986134Y-25251305D01*
X117001142Y-25070184D01*
X117005300Y-25020006D01*
X117005300Y-25019993D01*
X116986135Y-24788702D01*
X116986133Y-24788691D01*
X116929157Y-24563699D01*
X116835924Y-24351151D01*
X116708983Y-24156852D01*
X116708980Y-24156849D01*
X116708979Y-24156847D01*
X116551784Y-23986087D01*
X116373773Y-23847536D01*
X116332961Y-23790826D01*
X116329286Y-23721053D01*
X116363917Y-23660370D01*
X116373772Y-23651831D01*
X116398797Y-23632352D01*
X116398798Y-23632350D01*
X115809220Y-23042772D01*
X115902588Y-23004099D01*
X116027925Y-22907925D01*
X116124099Y-22782589D01*
X116162773Y-22689220D01*
X116751186Y-23277633D01*
X116835482Y-23148611D01*
X116928682Y-22936135D01*
X116985638Y-22711218D01*
X117004798Y-22480005D01*
X117004798Y-22479994D01*
X116985638Y-22248781D01*
X116928682Y-22023864D01*
X116835484Y-21811393D01*
X116751186Y-21682365D01*
X116162772Y-22270779D01*
X116124099Y-22177412D01*
X116027925Y-22052075D01*
X115902588Y-21955901D01*
X115809219Y-21917226D01*
X116398797Y-21327647D01*
X116398797Y-21327646D01*
X116373773Y-21308169D01*
X116332961Y-21251459D01*
X116329286Y-21181686D01*
X116363918Y-21121003D01*
X116373760Y-21112473D01*
X116551784Y-20973913D01*
X116708979Y-20803153D01*
X116835924Y-20608849D01*
X116929157Y-20396300D01*
X116986134Y-20171305D01*
X116986135Y-20171297D01*
X117005300Y-19940006D01*
X117005300Y-19939993D01*
X116986135Y-19708702D01*
X116986133Y-19708691D01*
X116929157Y-19483699D01*
X116835924Y-19271151D01*
X116708983Y-19076852D01*
X116708980Y-19076849D01*
X116708979Y-19076847D01*
X116614195Y-18973884D01*
X116583275Y-18911232D01*
X116591135Y-18841806D01*
X116635283Y-18787651D01*
X116662095Y-18773722D01*
X116742326Y-18743798D01*
X116742326Y-18743797D01*
X116742331Y-18743796D01*
X116857546Y-18657546D01*
X116943796Y-18542331D01*
X116994091Y-18407483D01*
X117000500Y-18347873D01*
X117000499Y-16452128D01*
X116994091Y-16392517D01*
X116943796Y-16257669D01*
X116943795Y-16257668D01*
X116943793Y-16257664D01*
X116857547Y-16142455D01*
X116857544Y-16142452D01*
X116742335Y-16056206D01*
X116742328Y-16056202D01*
X116607482Y-16005908D01*
X116607483Y-16005908D01*
X116547883Y-15999501D01*
X116547881Y-15999500D01*
X116547873Y-15999500D01*
X116547864Y-15999500D01*
X114652129Y-15999500D01*
X114652123Y-15999501D01*
X114592516Y-16005908D01*
X114457671Y-16056202D01*
X114457664Y-16056206D01*
X114342455Y-16142452D01*
X114342452Y-16142455D01*
X114256206Y-16257664D01*
X114256202Y-16257671D01*
X114205908Y-16392517D01*
X114199501Y-16452116D01*
X114199501Y-16452123D01*
X114199500Y-16452135D01*
X114199500Y-18347870D01*
X114199501Y-18347876D01*
X114205908Y-18407483D01*
X114256202Y-18542328D01*
X114256206Y-18542335D01*
X114342452Y-18657544D01*
X114342455Y-18657547D01*
X114457664Y-18743793D01*
X114457673Y-18743798D01*
X114537904Y-18773722D01*
X114593838Y-18815593D01*
X114618256Y-18881057D01*
X114603405Y-18949330D01*
X114585802Y-18973886D01*
X114491019Y-19076849D01*
X114364075Y-19271151D01*
X114270842Y-19483699D01*
X114213866Y-19708691D01*
X114213864Y-19708702D01*
X114194700Y-19939993D01*
X114194700Y-19940006D01*
X114213864Y-20171297D01*
X114213866Y-20171308D01*
X114270842Y-20396300D01*
X114364075Y-20608848D01*
X114491016Y-20803147D01*
X114491019Y-20803151D01*
X114491021Y-20803153D01*
X114648216Y-20973913D01*
X114825819Y-21112146D01*
X114826225Y-21112462D01*
X114867038Y-21169173D01*
X114870713Y-21238946D01*
X114836082Y-21299629D01*
X114826225Y-21308170D01*
X114801201Y-21327646D01*
X114801200Y-21327647D01*
X115390780Y-21917226D01*
X115297412Y-21955901D01*
X115172075Y-22052075D01*
X115075901Y-22177411D01*
X115037226Y-22270780D01*
X114448811Y-21682365D01*
X114364516Y-21811390D01*
X114271317Y-22023864D01*
X114214361Y-22248781D01*
X114195202Y-22479994D01*
X114195202Y-22480005D01*
X114214361Y-22711218D01*
X114271317Y-22936135D01*
X114364515Y-23148606D01*
X114448812Y-23277633D01*
X115037226Y-22689219D01*
X115075901Y-22782588D01*
X115172075Y-22907925D01*
X115297412Y-23004099D01*
X115390779Y-23042772D01*
X114801201Y-23632351D01*
X114826226Y-23651829D01*
X114867038Y-23708539D01*
X114870713Y-23778312D01*
X114836081Y-23838995D01*
X114826226Y-23847535D01*
X114648218Y-23986085D01*
X114491016Y-24156852D01*
X114364075Y-24351151D01*
X114270842Y-24563699D01*
X114213866Y-24788691D01*
X114213864Y-24788702D01*
X114194700Y-25019993D01*
X114194700Y-25020006D01*
X114213864Y-25251297D01*
X114213866Y-25251308D01*
X114270842Y-25476300D01*
X114364075Y-25688848D01*
X114491016Y-25883147D01*
X114491019Y-25883151D01*
X114491021Y-25883153D01*
X114648216Y-26053913D01*
X114648219Y-26053915D01*
X114648222Y-26053918D01*
X114825818Y-26192147D01*
X114866631Y-26248857D01*
X114870306Y-26318630D01*
X114835674Y-26379313D01*
X114825818Y-26387853D01*
X114648222Y-26526081D01*
X114648219Y-26526084D01*
X114491016Y-26696852D01*
X114364075Y-26891151D01*
X114270842Y-27103699D01*
X114213866Y-27328691D01*
X114213864Y-27328702D01*
X114194700Y-27559993D01*
X114194700Y-27560006D01*
X114213864Y-27791297D01*
X114213866Y-27791305D01*
X114268750Y-28008034D01*
X114266125Y-28077855D01*
X114236225Y-28126156D01*
X111723580Y-30638801D01*
X111711388Y-30649494D01*
X111688248Y-30667250D01*
X111653098Y-30713058D01*
X111653088Y-30713073D01*
X111597847Y-30785066D01*
X111541017Y-30922265D01*
X111541017Y-30922266D01*
X111521633Y-31069500D01*
X111525439Y-31098408D01*
X111526500Y-31114594D01*
X111526500Y-78099121D01*
X111506815Y-78166160D01*
X111490181Y-78186802D01*
X108946502Y-80730481D01*
X108885179Y-80763966D01*
X108858821Y-80766800D01*
X104170979Y-80766800D01*
X104103940Y-80747115D01*
X104083298Y-80730481D01*
X103906582Y-80553765D01*
X103873097Y-80492442D01*
X103878081Y-80422750D01*
X103919953Y-80366817D01*
X103985417Y-80342400D01*
X104053690Y-80357252D01*
X104060227Y-80361085D01*
X104171478Y-80430989D01*
X104341745Y-80490568D01*
X104341750Y-80490569D01*
X104520996Y-80510765D01*
X104521000Y-80510765D01*
X104521004Y-80510765D01*
X104700249Y-80490569D01*
X104700252Y-80490568D01*
X104700255Y-80490568D01*
X104870522Y-80430989D01*
X105023262Y-80335016D01*
X105150816Y-80207462D01*
X105246789Y-80054722D01*
X105306368Y-79884455D01*
X105306369Y-79884449D01*
X105326565Y-79705203D01*
X105326565Y-79705196D01*
X105306369Y-79525950D01*
X105306368Y-79525945D01*
X105246788Y-79355676D01*
X105156377Y-79211789D01*
X105150816Y-79202938D01*
X105023262Y-79075384D01*
X104997805Y-79059388D01*
X104870523Y-78979411D01*
X104700254Y-78919831D01*
X104700250Y-78919830D01*
X104555157Y-78903482D01*
X104490743Y-78876415D01*
X104481360Y-78867943D01*
X103978319Y-78364902D01*
X103944834Y-78303579D01*
X103942000Y-78277221D01*
X103942000Y-75879640D01*
X103961685Y-75812601D01*
X103978319Y-75791959D01*
X104007816Y-75762462D01*
X104103789Y-75609722D01*
X104163368Y-75439455D01*
X104174074Y-75344439D01*
X104183565Y-75260203D01*
X104183565Y-75260196D01*
X104163369Y-75080950D01*
X104163368Y-75080945D01*
X104103788Y-74910676D01*
X104007815Y-74757937D01*
X103880262Y-74630384D01*
X103727523Y-74534411D01*
X103557254Y-74474831D01*
X103557249Y-74474830D01*
X103378004Y-74454635D01*
X103377996Y-74454635D01*
X103198750Y-74474830D01*
X103198745Y-74474831D01*
X103028476Y-74534411D01*
X102875737Y-74630384D01*
X102748184Y-74757937D01*
X102652211Y-74910676D01*
X102592631Y-75080945D01*
X102592630Y-75080950D01*
X102572435Y-75260196D01*
X102572435Y-75260203D01*
X102592630Y-75439449D01*
X102592631Y-75439454D01*
X102652211Y-75609723D01*
X102748184Y-75762462D01*
X102777681Y-75791959D01*
X102811166Y-75853282D01*
X102814000Y-75879640D01*
X102814000Y-78517104D01*
X102812939Y-78533289D01*
X102809133Y-78562200D01*
X102814000Y-78599168D01*
X102820343Y-78647343D01*
X102828517Y-78709433D01*
X102828517Y-78709434D01*
X102885347Y-78846634D01*
X102975746Y-78964446D01*
X102975748Y-78964447D01*
X102975750Y-78964450D01*
X102998893Y-78982208D01*
X103011080Y-78992897D01*
X103683743Y-79665560D01*
X103717228Y-79726883D01*
X103719282Y-79739357D01*
X103735630Y-79884450D01*
X103735631Y-79884454D01*
X103795211Y-80054723D01*
X103865109Y-80165964D01*
X103884109Y-80233201D01*
X103863741Y-80300036D01*
X103810474Y-80345250D01*
X103741217Y-80354488D01*
X103677961Y-80324816D01*
X103672434Y-80319617D01*
X101878455Y-78525638D01*
X101844970Y-78464315D01*
X101842916Y-78451840D01*
X101826569Y-78306750D01*
X101826568Y-78306745D01*
X101803213Y-78240000D01*
X101766989Y-78136478D01*
X101671016Y-77983738D01*
X101543462Y-77856184D01*
X101503920Y-77831338D01*
X101390723Y-77760211D01*
X101220454Y-77700631D01*
X101220449Y-77700630D01*
X101041204Y-77680435D01*
X101041196Y-77680435D01*
X100861950Y-77700630D01*
X100861945Y-77700631D01*
X100691676Y-77760211D01*
X100538937Y-77856184D01*
X100411384Y-77983737D01*
X100315411Y-78136476D01*
X100255831Y-78306745D01*
X100255830Y-78306750D01*
X100235635Y-78485996D01*
X100235635Y-78486003D01*
X100255830Y-78665249D01*
X100255831Y-78665254D01*
X100315411Y-78835523D01*
X100395772Y-78963416D01*
X100411384Y-78988262D01*
X100538938Y-79115816D01*
X100576098Y-79139165D01*
X100677591Y-79202938D01*
X100691678Y-79211789D01*
X100861945Y-79271368D01*
X100861950Y-79271369D01*
X100974115Y-79284006D01*
X101007040Y-79287716D01*
X101071454Y-79314782D01*
X101080838Y-79323255D01*
X103049302Y-81291719D01*
X103082787Y-81353042D01*
X103077803Y-81422734D01*
X103035931Y-81478667D01*
X102970467Y-81503084D01*
X102961621Y-81503400D01*
X101783379Y-81503400D01*
X101716340Y-81483715D01*
X101695698Y-81467081D01*
X101294255Y-81065638D01*
X101260770Y-81004315D01*
X101258716Y-80991840D01*
X101242369Y-80846750D01*
X101242368Y-80846745D01*
X101182788Y-80676476D01*
X101086815Y-80523737D01*
X100959262Y-80396184D01*
X100806523Y-80300211D01*
X100636254Y-80240631D01*
X100636249Y-80240630D01*
X100457004Y-80220435D01*
X100456996Y-80220435D01*
X100277750Y-80240630D01*
X100277745Y-80240631D01*
X100107476Y-80300211D01*
X99954737Y-80396184D01*
X99827184Y-80523737D01*
X99731211Y-80676476D01*
X99671631Y-80846745D01*
X99671630Y-80846750D01*
X99651435Y-81025996D01*
X99651435Y-81026003D01*
X27148870Y-81026003D01*
X27148870Y-75700001D01*
X58669437Y-75700001D01*
X58689650Y-75931044D01*
X58689651Y-75931051D01*
X58749678Y-76155074D01*
X58749679Y-76155076D01*
X58749680Y-76155079D01*
X58847699Y-76365282D01*
X58980730Y-76555269D01*
X59144731Y-76719270D01*
X59334718Y-76852301D01*
X59346710Y-76857893D01*
X59399149Y-76904062D01*
X59418303Y-76971255D01*
X59398089Y-77038137D01*
X59346717Y-77082655D01*
X59334966Y-77088134D01*
X59256576Y-77143022D01*
X59828432Y-77714878D01*
X59711542Y-77765651D01*
X59594261Y-77861066D01*
X59507072Y-77984585D01*
X59476644Y-78070198D01*
X58903022Y-77496576D01*
X58848134Y-77574967D01*
X58750152Y-77785090D01*
X58750148Y-77785099D01*
X58690147Y-78009031D01*
X58690145Y-78009041D01*
X58669939Y-78239999D01*
X58669939Y-78240000D01*
X58690145Y-78470958D01*
X58690147Y-78470968D01*
X58750148Y-78694900D01*
X58750152Y-78694909D01*
X58848133Y-78905030D01*
X58903023Y-78983422D01*
X59474070Y-78412375D01*
X59476884Y-78425915D01*
X59546442Y-78560156D01*
X59649638Y-78670652D01*
X59778819Y-78749209D01*
X59830002Y-78763549D01*
X59256576Y-79336975D01*
X59334969Y-79391867D01*
X59545090Y-79489847D01*
X59545099Y-79489851D01*
X59769031Y-79549852D01*
X59769041Y-79549854D01*
X59999999Y-79570061D01*
X60000001Y-79570061D01*
X60230958Y-79549854D01*
X60230968Y-79549852D01*
X60454900Y-79489851D01*
X60454909Y-79489847D01*
X60665030Y-79391867D01*
X60665034Y-79391865D01*
X60743422Y-79336976D01*
X60743422Y-79336975D01*
X60171568Y-78765121D01*
X60288458Y-78714349D01*
X60405739Y-78618934D01*
X60492928Y-78495415D01*
X60523354Y-78409801D01*
X61103214Y-78989660D01*
X61148191Y-78998699D01*
X61198375Y-79047313D01*
X61214500Y-79108445D01*
X61214500Y-79112862D01*
X61214501Y-79112876D01*
X61220908Y-79172483D01*
X61271202Y-79307328D01*
X61271206Y-79307335D01*
X61357452Y-79422544D01*
X61357455Y-79422547D01*
X61472664Y-79508793D01*
X61472671Y-79508797D01*
X61607517Y-79559091D01*
X61607516Y-79559091D01*
X61614444Y-79559835D01*
X61667127Y-79565500D01*
X63412872Y-79565499D01*
X63472483Y-79559091D01*
X63607331Y-79508796D01*
X63722546Y-79422546D01*
X63808796Y-79307331D01*
X63859091Y-79172483D01*
X63865500Y-79112873D01*
X63865500Y-78928000D01*
X63885185Y-78860961D01*
X63937989Y-78815206D01*
X63989500Y-78804000D01*
X73606906Y-78804000D01*
X73623089Y-78805060D01*
X73637699Y-78806984D01*
X73651999Y-78808867D01*
X73652000Y-78808867D01*
X73652001Y-78808867D01*
X73667344Y-78806846D01*
X73799234Y-78789483D01*
X73936433Y-78732653D01*
X74024668Y-78664949D01*
X74024668Y-78664948D01*
X74047606Y-78647348D01*
X74047606Y-78647347D01*
X74054250Y-78642250D01*
X74072009Y-78619104D01*
X74082690Y-78606925D01*
X77989162Y-74700453D01*
X78050483Y-74666970D01*
X78062951Y-74664917D01*
X78127871Y-74657602D01*
X78208050Y-74648569D01*
X78208053Y-74648568D01*
X78208055Y-74648568D01*
X78378322Y-74588989D01*
X78531062Y-74493016D01*
X78658616Y-74365462D01*
X78754589Y-74212722D01*
X78814168Y-74042455D01*
X78828949Y-73911264D01*
X78856015Y-73846851D01*
X78913609Y-73807296D01*
X78983446Y-73805157D01*
X79039850Y-73837467D01*
X84833007Y-79630624D01*
X84866492Y-79691947D01*
X84868546Y-79704421D01*
X84888830Y-79884450D01*
X84888831Y-79884454D01*
X84948411Y-80054723D01*
X85018309Y-80165964D01*
X85044384Y-80207462D01*
X85171938Y-80335016D01*
X85222549Y-80366817D01*
X85311565Y-80422750D01*
X85324678Y-80430989D01*
X85494945Y-80490568D01*
X85494950Y-80490569D01*
X85674196Y-80510765D01*
X85674200Y-80510765D01*
X85674204Y-80510765D01*
X85853449Y-80490569D01*
X85853452Y-80490568D01*
X85853455Y-80490568D01*
X86023722Y-80430989D01*
X86176462Y-80335016D01*
X86304016Y-80207462D01*
X86399989Y-80054722D01*
X86459568Y-79884455D01*
X86459569Y-79884449D01*
X86479765Y-79705203D01*
X86479765Y-79705196D01*
X86459569Y-79525950D01*
X86459568Y-79525945D01*
X86399988Y-79355676D01*
X86309577Y-79211789D01*
X86304016Y-79202938D01*
X86176462Y-79075384D01*
X86176460Y-79075382D01*
X86085564Y-79018268D01*
X86039274Y-78965933D01*
X86028626Y-78896880D01*
X86057001Y-78833032D01*
X86115391Y-78794660D01*
X86137644Y-78790056D01*
X86179255Y-78785368D01*
X86349522Y-78725789D01*
X86502262Y-78629816D01*
X86629816Y-78502262D01*
X86725789Y-78349522D01*
X86785368Y-78179255D01*
X86785369Y-78179249D01*
X86805565Y-78000003D01*
X86805565Y-77999996D01*
X86785369Y-77820750D01*
X86785368Y-77820745D01*
X86764186Y-77760211D01*
X86725789Y-77650478D01*
X86629816Y-77497738D01*
X86502262Y-77370184D01*
X86469379Y-77349522D01*
X86349523Y-77274211D01*
X86179254Y-77214631D01*
X86179250Y-77214630D01*
X86034157Y-77198282D01*
X85969743Y-77171215D01*
X85960360Y-77162743D01*
X80620832Y-71823215D01*
X80587347Y-71761892D01*
X80592331Y-71692200D01*
X80634203Y-71636267D01*
X80699667Y-71611850D01*
X80722394Y-71612313D01*
X80763284Y-71616921D01*
X80797398Y-71620765D01*
X80797400Y-71620765D01*
X80797404Y-71620765D01*
X80976649Y-71600569D01*
X80976652Y-71600568D01*
X80976655Y-71600568D01*
X81146922Y-71540989D01*
X81299662Y-71445016D01*
X81385852Y-71358825D01*
X81447171Y-71325343D01*
X81516863Y-71330327D01*
X81561211Y-71358828D01*
X87162743Y-76960360D01*
X87196228Y-77021683D01*
X87198282Y-77034157D01*
X87214630Y-77179250D01*
X87214631Y-77179254D01*
X87274211Y-77349523D01*
X87363204Y-77491153D01*
X87370184Y-77502262D01*
X87497738Y-77629816D01*
X87539911Y-77656315D01*
X87650000Y-77725489D01*
X87650478Y-77725789D01*
X87764397Y-77765651D01*
X87820745Y-77785368D01*
X87820750Y-77785369D01*
X87999996Y-77805565D01*
X88000000Y-77805565D01*
X88000004Y-77805565D01*
X88179249Y-77785369D01*
X88179252Y-77785368D01*
X88179255Y-77785368D01*
X88349522Y-77725789D01*
X88502262Y-77629816D01*
X88629816Y-77502262D01*
X88725789Y-77349522D01*
X88785368Y-77179255D01*
X88786274Y-77171215D01*
X88805565Y-77000003D01*
X88805565Y-76999996D01*
X88785369Y-76820750D01*
X88785368Y-76820745D01*
X88755470Y-76735301D01*
X88725789Y-76650478D01*
X88629816Y-76497738D01*
X88502262Y-76370184D01*
X88435851Y-76328455D01*
X88349523Y-76274211D01*
X88179254Y-76214631D01*
X88179250Y-76214630D01*
X88034157Y-76198282D01*
X87969743Y-76171215D01*
X87960360Y-76162743D01*
X79600319Y-67802702D01*
X79566834Y-67741379D01*
X79564000Y-67715021D01*
X79564000Y-59619440D01*
X79583685Y-59552401D01*
X79600319Y-59531759D01*
X79629816Y-59502262D01*
X79725789Y-59349522D01*
X79785368Y-59179255D01*
X79785368Y-59179252D01*
X79785369Y-59179249D01*
X79805565Y-59000003D01*
X79805565Y-58999996D01*
X79785369Y-58820750D01*
X79785368Y-58820745D01*
X79725788Y-58650476D01*
X79677659Y-58573879D01*
X79629816Y-58497738D01*
X79502262Y-58370184D01*
X79349519Y-58274208D01*
X79308476Y-58259847D01*
X79251700Y-58219125D01*
X79225953Y-58154172D01*
X79239410Y-58085611D01*
X79244438Y-58076833D01*
X79287988Y-58007524D01*
X79287989Y-58007522D01*
X79347568Y-57837255D01*
X79347697Y-57836114D01*
X79367765Y-57658003D01*
X79367765Y-57657996D01*
X79347569Y-57478750D01*
X79347568Y-57478745D01*
X79342729Y-57464917D01*
X79287989Y-57308478D01*
X79200386Y-57169059D01*
X79181387Y-57101825D01*
X79201755Y-57034989D01*
X79255022Y-56989775D01*
X79324279Y-56980537D01*
X79346336Y-56986048D01*
X79373537Y-56995566D01*
X79373543Y-56995567D01*
X79373545Y-56995568D01*
X79373546Y-56995568D01*
X79373550Y-56995569D01*
X79485715Y-57008206D01*
X79518640Y-57011916D01*
X79583054Y-57038982D01*
X79592438Y-57047455D01*
X84462394Y-61917410D01*
X84495879Y-61978733D01*
X84497933Y-61991207D01*
X84507830Y-62079049D01*
X84507831Y-62079054D01*
X84507832Y-62079055D01*
X84514205Y-62097267D01*
X84527774Y-62136046D01*
X84531335Y-62205825D01*
X84496606Y-62266452D01*
X84434612Y-62298679D01*
X84410732Y-62301000D01*
X83712694Y-62301000D01*
X83696508Y-62299939D01*
X83667601Y-62296133D01*
X83667596Y-62296133D01*
X83634669Y-62300467D01*
X83634657Y-62300470D01*
X83520366Y-62315517D01*
X83520365Y-62315517D01*
X83383165Y-62372347D01*
X83265349Y-62462750D01*
X83247593Y-62485890D01*
X83236900Y-62498082D01*
X80786080Y-64948901D01*
X80773888Y-64959594D01*
X80750748Y-64977350D01*
X80715598Y-65023158D01*
X80715588Y-65023173D01*
X80660347Y-65095166D01*
X80603517Y-65232365D01*
X80603517Y-65232366D01*
X80584133Y-65379600D01*
X80587939Y-65408508D01*
X80589000Y-65424694D01*
X80589000Y-66715960D01*
X80569315Y-66782999D01*
X80552681Y-66803641D01*
X80523184Y-66833137D01*
X80427211Y-66985876D01*
X80367631Y-67156145D01*
X80367630Y-67156150D01*
X80347435Y-67335396D01*
X80347435Y-67335403D01*
X80367630Y-67514649D01*
X80367631Y-67514654D01*
X80427211Y-67684923D01*
X80501217Y-67802702D01*
X80523184Y-67837662D01*
X80650738Y-67965216D01*
X80709082Y-68001876D01*
X80764930Y-68036968D01*
X80803478Y-68061189D01*
X80857237Y-68080000D01*
X80973745Y-68120768D01*
X80973750Y-68120769D01*
X81152996Y-68140965D01*
X81153000Y-68140965D01*
X81153004Y-68140965D01*
X81332249Y-68120769D01*
X81332252Y-68120768D01*
X81332255Y-68120768D01*
X81502522Y-68061189D01*
X81655262Y-67965216D01*
X81782816Y-67837662D01*
X81878789Y-67684922D01*
X81938368Y-67514655D01*
X81941287Y-67488750D01*
X81958565Y-67335403D01*
X81958565Y-67335396D01*
X81938369Y-67156150D01*
X81938368Y-67156145D01*
X81901206Y-67049942D01*
X81878789Y-66985878D01*
X81782816Y-66833138D01*
X81753319Y-66803641D01*
X81719834Y-66742318D01*
X81717000Y-66715960D01*
X81717000Y-65664578D01*
X81736685Y-65597539D01*
X81753319Y-65576897D01*
X83864897Y-63465319D01*
X83926220Y-63431834D01*
X83952578Y-63429000D01*
X91073156Y-63429000D01*
X91140195Y-63448685D01*
X91185950Y-63501489D01*
X91195894Y-63570647D01*
X91190197Y-63593955D01*
X91188033Y-63600137D01*
X91188030Y-63600150D01*
X91167835Y-63779396D01*
X91167835Y-63779403D01*
X91188030Y-63958649D01*
X91188031Y-63958654D01*
X91247611Y-64128923D01*
X91343584Y-64281662D01*
X91398481Y-64336559D01*
X91431966Y-64397882D01*
X91434800Y-64424240D01*
X91434800Y-68752220D01*
X91415115Y-68819259D01*
X91398481Y-68839901D01*
X89625437Y-70612944D01*
X89564114Y-70646429D01*
X89551640Y-70648483D01*
X89406549Y-70664830D01*
X89406545Y-70664831D01*
X89236276Y-70724411D01*
X89083537Y-70820384D01*
X88955986Y-70947935D01*
X88951643Y-70953382D01*
X88950051Y-70952112D01*
X88905154Y-70991810D01*
X88836099Y-71002445D01*
X88772256Y-70974058D01*
X88764835Y-70967218D01*
X86837255Y-69039638D01*
X86803770Y-68978315D01*
X86801716Y-68965840D01*
X86785369Y-68820750D01*
X86785368Y-68820745D01*
X86766346Y-68766383D01*
X86725789Y-68650478D01*
X86720217Y-68641611D01*
X86662937Y-68550450D01*
X86629816Y-68497738D01*
X86502262Y-68370184D01*
X86472372Y-68351403D01*
X86349523Y-68274211D01*
X86179254Y-68214631D01*
X86179249Y-68214630D01*
X86000004Y-68194435D01*
X85999996Y-68194435D01*
X85820750Y-68214630D01*
X85820745Y-68214631D01*
X85650476Y-68274211D01*
X85497737Y-68370184D01*
X85370184Y-68497737D01*
X85274211Y-68650476D01*
X85214631Y-68820745D01*
X85214630Y-68820750D01*
X85194435Y-68999996D01*
X85194435Y-69000004D01*
X85205145Y-69095063D01*
X85193090Y-69163885D01*
X85145741Y-69215264D01*
X85078130Y-69232888D01*
X85011725Y-69211161D01*
X84994244Y-69196627D01*
X84600319Y-68802702D01*
X84566834Y-68741379D01*
X84564000Y-68715021D01*
X84564000Y-65619440D01*
X84583685Y-65552401D01*
X84600319Y-65531759D01*
X84629816Y-65502262D01*
X84725789Y-65349522D01*
X84785368Y-65179255D01*
X84785369Y-65179249D01*
X84805565Y-65000003D01*
X84805565Y-64999996D01*
X84785369Y-64820750D01*
X84785368Y-64820745D01*
X84739134Y-64688616D01*
X84725789Y-64650478D01*
X84710178Y-64625634D01*
X84629815Y-64497737D01*
X84502262Y-64370184D01*
X84349523Y-64274211D01*
X84179254Y-64214631D01*
X84179249Y-64214630D01*
X84000004Y-64194435D01*
X83999996Y-64194435D01*
X83820750Y-64214630D01*
X83820745Y-64214631D01*
X83650476Y-64274211D01*
X83497737Y-64370184D01*
X83370184Y-64497737D01*
X83274211Y-64650476D01*
X83214631Y-64820745D01*
X83214630Y-64820750D01*
X83194435Y-64999996D01*
X83194435Y-65000003D01*
X83214630Y-65179249D01*
X83214631Y-65179254D01*
X83274211Y-65349523D01*
X83370184Y-65502262D01*
X83399681Y-65531759D01*
X83433166Y-65593082D01*
X83436000Y-65619440D01*
X83436000Y-68954904D01*
X83434939Y-68971089D01*
X83431134Y-68999996D01*
X83431133Y-69000000D01*
X83436000Y-69036968D01*
X83443649Y-69095063D01*
X83450517Y-69147233D01*
X83450517Y-69147234D01*
X83507347Y-69284434D01*
X83535891Y-69321633D01*
X83597750Y-69402250D01*
X83616641Y-69416745D01*
X83620884Y-69420001D01*
X83633079Y-69430696D01*
X84299761Y-70097378D01*
X84333246Y-70158701D01*
X84328262Y-70228393D01*
X84288009Y-70282162D01*
X84288388Y-70282637D01*
X84286567Y-70284089D01*
X84286390Y-70284326D01*
X84285524Y-70284920D01*
X84282939Y-70286982D01*
X84155384Y-70414537D01*
X84059411Y-70567276D01*
X83999831Y-70737545D01*
X83999830Y-70737550D01*
X83979635Y-70916796D01*
X83979635Y-70916803D01*
X83999830Y-71096049D01*
X83999831Y-71096054D01*
X84059411Y-71266323D01*
X84114715Y-71354338D01*
X84155384Y-71419062D01*
X84282938Y-71546616D01*
X84368802Y-71600568D01*
X84430395Y-71639270D01*
X84435678Y-71642589D01*
X84577458Y-71692200D01*
X84605945Y-71702168D01*
X84605950Y-71702169D01*
X84718115Y-71714806D01*
X84751040Y-71718516D01*
X84815454Y-71745582D01*
X84824838Y-71754055D01*
X87250102Y-74179319D01*
X87260796Y-74191513D01*
X87278550Y-74214650D01*
X87308130Y-74237347D01*
X87308131Y-74237348D01*
X87396365Y-74305052D01*
X87396366Y-74305052D01*
X87396367Y-74305053D01*
X87533564Y-74361882D01*
X87533566Y-74361883D01*
X87680799Y-74381268D01*
X87680800Y-74381268D01*
X87709716Y-74377460D01*
X87725902Y-74376400D01*
X88990032Y-74376400D01*
X95712906Y-74376400D01*
X95729089Y-74377460D01*
X95743699Y-74379384D01*
X95757999Y-74381267D01*
X95758000Y-74381267D01*
X95758001Y-74381267D01*
X95773344Y-74379246D01*
X95905234Y-74361883D01*
X96042433Y-74305053D01*
X96130668Y-74237349D01*
X96130668Y-74237348D01*
X96153606Y-74219748D01*
X96153606Y-74219747D01*
X96160250Y-74214650D01*
X96178009Y-74191504D01*
X96188690Y-74179325D01*
X97047498Y-73320519D01*
X97108821Y-73287034D01*
X97135179Y-73284200D01*
X101961306Y-73284200D01*
X101977489Y-73285260D01*
X101990958Y-73287034D01*
X102006399Y-73289067D01*
X102006400Y-73289067D01*
X102006401Y-73289067D01*
X102021842Y-73287034D01*
X102153634Y-73269683D01*
X102290833Y-73212853D01*
X102379068Y-73145149D01*
X102379068Y-73145148D01*
X102402006Y-73127548D01*
X102402006Y-73127547D01*
X102408650Y-73122450D01*
X102426409Y-73099304D01*
X102437090Y-73087125D01*
X105319562Y-70204653D01*
X105380883Y-70171170D01*
X105393351Y-70169117D01*
X105469503Y-70160537D01*
X105538450Y-70152769D01*
X105538453Y-70152768D01*
X105538455Y-70152768D01*
X105708722Y-70093189D01*
X105861462Y-69997216D01*
X105989016Y-69869662D01*
X106084989Y-69716922D01*
X106144568Y-69546655D01*
X106149570Y-69502262D01*
X106164765Y-69367403D01*
X106164765Y-69367396D01*
X106144569Y-69188150D01*
X106144568Y-69188145D01*
X106111997Y-69095063D01*
X106084989Y-69017878D01*
X106082616Y-69014102D01*
X106002469Y-68886548D01*
X105989016Y-68865138D01*
X105861462Y-68737584D01*
X105818834Y-68710799D01*
X105708723Y-68641611D01*
X105538454Y-68582031D01*
X105538449Y-68582030D01*
X105359204Y-68561835D01*
X105359196Y-68561835D01*
X105179950Y-68582030D01*
X105179945Y-68582031D01*
X105009676Y-68641611D01*
X104856937Y-68737584D01*
X104729384Y-68865137D01*
X104633411Y-69017876D01*
X104573831Y-69188145D01*
X104573830Y-69188149D01*
X104557483Y-69333240D01*
X104530416Y-69397654D01*
X104521944Y-69407037D01*
X101809102Y-72119881D01*
X101747779Y-72153366D01*
X101721421Y-72156200D01*
X96895294Y-72156200D01*
X96879110Y-72155139D01*
X96864500Y-72153215D01*
X96850201Y-72151333D01*
X96850199Y-72151333D01*
X96834758Y-72153366D01*
X96813232Y-72156200D01*
X96702966Y-72170717D01*
X96702965Y-72170717D01*
X96565765Y-72227547D01*
X96447950Y-72317948D01*
X96430189Y-72341094D01*
X96419499Y-72353284D01*
X96325133Y-72447650D01*
X95560702Y-73212081D01*
X95499379Y-73245566D01*
X95473021Y-73248400D01*
X88916333Y-73248400D01*
X88849294Y-73228715D01*
X88803539Y-73175911D01*
X88793113Y-73110516D01*
X88805565Y-73000002D01*
X88805565Y-72999996D01*
X88785369Y-72820750D01*
X88785368Y-72820745D01*
X88749163Y-72717277D01*
X88745602Y-72647498D01*
X88780331Y-72586870D01*
X88842324Y-72554643D01*
X88882388Y-72553383D01*
X89000000Y-72568868D01*
X89028916Y-72565060D01*
X89045102Y-72564000D01*
X91380560Y-72564000D01*
X91447599Y-72583685D01*
X91468241Y-72600319D01*
X91497738Y-72629816D01*
X91576531Y-72679325D01*
X91599405Y-72693698D01*
X91650478Y-72725789D01*
X91698470Y-72742582D01*
X91820745Y-72785368D01*
X91820750Y-72785369D01*
X91999996Y-72805565D01*
X92000000Y-72805565D01*
X92000004Y-72805565D01*
X92179249Y-72785369D01*
X92179252Y-72785368D01*
X92179255Y-72785368D01*
X92349522Y-72725789D01*
X92502262Y-72629816D01*
X92629816Y-72502262D01*
X92725789Y-72349522D01*
X92785368Y-72179255D01*
X92786330Y-72170717D01*
X92805565Y-72000003D01*
X92805565Y-71999996D01*
X92785369Y-71820750D01*
X92785368Y-71820745D01*
X92750943Y-71722365D01*
X92725789Y-71650478D01*
X92720831Y-71642588D01*
X92656992Y-71540988D01*
X92629816Y-71497738D01*
X92502262Y-71370184D01*
X92418356Y-71317462D01*
X92349523Y-71274211D01*
X92179254Y-71214631D01*
X92179249Y-71214630D01*
X92000004Y-71194435D01*
X91999996Y-71194435D01*
X91820750Y-71214630D01*
X91820745Y-71214631D01*
X91650476Y-71274211D01*
X91497737Y-71370184D01*
X91468241Y-71399681D01*
X91406918Y-71433166D01*
X91380560Y-71436000D01*
X90696979Y-71436000D01*
X90629940Y-71416315D01*
X90584185Y-71363511D01*
X90574241Y-71294353D01*
X90603266Y-71230797D01*
X90609298Y-71224319D01*
X91452248Y-70381368D01*
X92365720Y-69467894D01*
X92377911Y-69457204D01*
X92401050Y-69439450D01*
X92491453Y-69321633D01*
X92548283Y-69184434D01*
X92562800Y-69074168D01*
X92567667Y-69037200D01*
X92567636Y-69036968D01*
X92563861Y-69008291D01*
X92562800Y-68992105D01*
X92562800Y-66065403D01*
X93047435Y-66065403D01*
X93067630Y-66244649D01*
X93067631Y-66244654D01*
X93127211Y-66414923D01*
X93180983Y-66500500D01*
X93223184Y-66567662D01*
X93350738Y-66695216D01*
X93441080Y-66751982D01*
X93490443Y-66782999D01*
X93503478Y-66791189D01*
X93626842Y-66834356D01*
X93673745Y-66850768D01*
X93673750Y-66850769D01*
X93773379Y-66861994D01*
X93818840Y-66867116D01*
X93883254Y-66894182D01*
X93892638Y-66902655D01*
X95708299Y-68718315D01*
X95718993Y-68730509D01*
X95736749Y-68753649D01*
X95736750Y-68753650D01*
X95758350Y-68770224D01*
X95824191Y-68820745D01*
X95854567Y-68844053D01*
X95854566Y-68844053D01*
X95962898Y-68888925D01*
X96003127Y-68915805D01*
X96068538Y-68981216D01*
X96098433Y-69000000D01*
X96216468Y-69074167D01*
X96221278Y-69077189D01*
X96284382Y-69099270D01*
X96391545Y-69136768D01*
X96391550Y-69136769D01*
X96570796Y-69156965D01*
X96570800Y-69156965D01*
X96570804Y-69156965D01*
X96750049Y-69136769D01*
X96750052Y-69136768D01*
X96750055Y-69136768D01*
X96920322Y-69077189D01*
X97073062Y-68981216D01*
X97200616Y-68853662D01*
X97296589Y-68700922D01*
X97356168Y-68530655D01*
X97363945Y-68461632D01*
X97376365Y-68351403D01*
X97376365Y-68351396D01*
X97356169Y-68172150D01*
X97356168Y-68172145D01*
X97334853Y-68111230D01*
X97296589Y-68001878D01*
X97200616Y-67849138D01*
X97073062Y-67721584D01*
X97062176Y-67714744D01*
X96920323Y-67625611D01*
X96750054Y-67566031D01*
X96750049Y-67566030D01*
X96570804Y-67545835D01*
X96570796Y-67545835D01*
X96391550Y-67566030D01*
X96391537Y-67566033D01*
X96287078Y-67602586D01*
X96217299Y-67606148D01*
X96158442Y-67573226D01*
X95435985Y-66850769D01*
X94690255Y-66105038D01*
X94656770Y-66043715D01*
X94654716Y-66031240D01*
X94638369Y-65886150D01*
X94638368Y-65886145D01*
X94623542Y-65843776D01*
X94578789Y-65715878D01*
X94482816Y-65563138D01*
X94355262Y-65435584D01*
X94312171Y-65408508D01*
X94202523Y-65339611D01*
X94032254Y-65280031D01*
X94032249Y-65280030D01*
X93853004Y-65259835D01*
X93852996Y-65259835D01*
X93673750Y-65280030D01*
X93673745Y-65280031D01*
X93503476Y-65339611D01*
X93350737Y-65435584D01*
X93223184Y-65563137D01*
X93127211Y-65715876D01*
X93067631Y-65886145D01*
X93067630Y-65886150D01*
X93047435Y-66065396D01*
X93047435Y-66065403D01*
X92562800Y-66065403D01*
X92562800Y-64373440D01*
X92582485Y-64306401D01*
X92599119Y-64285759D01*
X92603216Y-64281662D01*
X92699189Y-64128922D01*
X92758768Y-63958655D01*
X92767681Y-63879550D01*
X92778965Y-63779403D01*
X92778965Y-63779396D01*
X92758769Y-63600150D01*
X92758766Y-63600137D01*
X92756603Y-63593955D01*
X92753041Y-63524176D01*
X92787769Y-63463549D01*
X92849763Y-63431321D01*
X92873644Y-63429000D01*
X93706306Y-63429000D01*
X93722489Y-63430060D01*
X93735958Y-63431834D01*
X93751399Y-63433867D01*
X93751400Y-63433867D01*
X93751401Y-63433867D01*
X93766842Y-63431834D01*
X93898634Y-63414483D01*
X94035833Y-63357653D01*
X94124068Y-63289949D01*
X94124068Y-63289948D01*
X94147006Y-63272348D01*
X94147006Y-63272347D01*
X94153650Y-63267250D01*
X94171409Y-63244104D01*
X94182090Y-63231925D01*
X96480362Y-60933653D01*
X96541683Y-60900170D01*
X96554151Y-60898117D01*
X96619071Y-60890802D01*
X96699250Y-60881769D01*
X96699253Y-60881768D01*
X96699255Y-60881768D01*
X96869522Y-60822189D01*
X97022262Y-60726216D01*
X97149816Y-60598662D01*
X97245789Y-60445922D01*
X97305368Y-60275655D01*
X97310630Y-60228955D01*
X97325565Y-60096403D01*
X97325565Y-60096396D01*
X97305369Y-59917150D01*
X97305368Y-59917145D01*
X97284869Y-59858562D01*
X97245789Y-59746878D01*
X97149816Y-59594138D01*
X97022262Y-59466584D01*
X96981116Y-59440730D01*
X96869523Y-59370611D01*
X96699254Y-59311031D01*
X96699249Y-59311030D01*
X96520004Y-59290835D01*
X96519996Y-59290835D01*
X96340750Y-59311030D01*
X96340745Y-59311031D01*
X96170476Y-59370611D01*
X96017737Y-59466584D01*
X95890184Y-59594137D01*
X95794211Y-59746876D01*
X95734631Y-59917145D01*
X95734630Y-59917149D01*
X95718283Y-60062240D01*
X95691216Y-60126654D01*
X95682744Y-60136037D01*
X93554102Y-62264681D01*
X93492779Y-62298166D01*
X93466421Y-62301000D01*
X89412750Y-62301000D01*
X89345711Y-62281315D01*
X89299956Y-62228511D01*
X89289530Y-62163116D01*
X89299165Y-62077602D01*
X89299165Y-62077596D01*
X89278969Y-61898350D01*
X89278968Y-61898345D01*
X89259385Y-61842381D01*
X89219389Y-61728078D01*
X89123416Y-61575338D01*
X88995862Y-61447784D01*
X88947188Y-61417200D01*
X88843123Y-61351811D01*
X88672854Y-61292231D01*
X88672850Y-61292230D01*
X88499133Y-61272657D01*
X88434719Y-61245590D01*
X88425336Y-61237118D01*
X87314461Y-60126243D01*
X87314422Y-60126206D01*
X79780296Y-52592079D01*
X79769601Y-52579884D01*
X79751848Y-52556748D01*
X79709781Y-52524470D01*
X79709780Y-52524469D01*
X79634032Y-52466346D01*
X79553663Y-52433056D01*
X79496834Y-52409517D01*
X79423217Y-52399825D01*
X79349601Y-52390133D01*
X79349599Y-52390133D01*
X79335299Y-52392015D01*
X79320689Y-52393939D01*
X79304506Y-52395000D01*
X75397040Y-52395000D01*
X75330001Y-52375315D01*
X75309359Y-52358681D01*
X75279862Y-52329184D01*
X75127123Y-52233211D01*
X74956854Y-52173631D01*
X74956849Y-52173630D01*
X74777604Y-52153435D01*
X74777596Y-52153435D01*
X74598350Y-52173630D01*
X74598345Y-52173631D01*
X74428076Y-52233211D01*
X74275337Y-52329184D01*
X74147784Y-52456737D01*
X74051811Y-52609476D01*
X73992231Y-52779745D01*
X73992230Y-52779750D01*
X73972035Y-52958996D01*
X73972035Y-52959003D01*
X73992230Y-53138249D01*
X73992231Y-53138254D01*
X74051811Y-53308523D01*
X74137634Y-53445108D01*
X74147784Y-53461262D01*
X74275338Y-53588816D01*
X74428078Y-53684789D01*
X74598345Y-53744368D01*
X74598350Y-53744369D01*
X74777596Y-53764565D01*
X74777600Y-53764565D01*
X74777604Y-53764565D01*
X74956849Y-53744369D01*
X74956852Y-53744368D01*
X74956855Y-53744368D01*
X75127122Y-53684789D01*
X75279862Y-53588816D01*
X75309359Y-53559319D01*
X75370682Y-53525834D01*
X75397040Y-53523000D01*
X79064621Y-53523000D01*
X79131660Y-53542685D01*
X79152302Y-53559319D01*
X86516806Y-60923822D01*
X86516843Y-60923861D01*
X87659569Y-62066586D01*
X87693054Y-62127909D01*
X87695109Y-62140386D01*
X87697670Y-62163119D01*
X87685614Y-62231940D01*
X87638264Y-62283319D01*
X87574449Y-62301000D01*
X86175668Y-62301000D01*
X86108629Y-62281315D01*
X86062874Y-62228511D01*
X86052930Y-62159353D01*
X86058627Y-62136045D01*
X86078566Y-62079062D01*
X86078569Y-62079049D01*
X86098765Y-61899803D01*
X86098765Y-61899796D01*
X86078569Y-61720550D01*
X86078568Y-61720545D01*
X86072141Y-61702178D01*
X86018989Y-61550278D01*
X85923016Y-61397538D01*
X85795462Y-61269984D01*
X85743156Y-61237118D01*
X85642723Y-61174011D01*
X85472454Y-61114431D01*
X85472449Y-61114430D01*
X85293204Y-61094235D01*
X85286237Y-61094235D01*
X85286237Y-61091190D01*
X85230618Y-61081294D01*
X85198174Y-61057958D01*
X80390055Y-56249838D01*
X80356570Y-56188515D01*
X80354516Y-56176040D01*
X80338169Y-56030950D01*
X80338168Y-56030945D01*
X80294098Y-55905000D01*
X80278589Y-55860678D01*
X80182616Y-55707938D01*
X80055062Y-55580384D01*
X79902323Y-55484411D01*
X79732054Y-55424831D01*
X79732049Y-55424830D01*
X79552804Y-55404635D01*
X79552796Y-55404635D01*
X79373550Y-55424830D01*
X79373545Y-55424831D01*
X79203276Y-55484411D01*
X79050537Y-55580384D01*
X78922984Y-55707937D01*
X78827011Y-55860676D01*
X78767431Y-56030945D01*
X78767430Y-56030950D01*
X78747235Y-56210196D01*
X78747235Y-56210203D01*
X78767430Y-56389449D01*
X78767431Y-56389454D01*
X78827011Y-56559723D01*
X78914612Y-56699138D01*
X78933612Y-56766375D01*
X78913244Y-56833210D01*
X78859977Y-56878424D01*
X78790720Y-56887662D01*
X78768665Y-56882152D01*
X78741461Y-56872633D01*
X78741449Y-56872630D01*
X78562204Y-56852435D01*
X78562196Y-56852435D01*
X78382950Y-56872630D01*
X78382945Y-56872631D01*
X78212676Y-56932211D01*
X78059937Y-57028184D01*
X77932384Y-57155737D01*
X77836411Y-57308476D01*
X77776831Y-57478745D01*
X77776830Y-57478749D01*
X77760483Y-57623840D01*
X77733416Y-57688254D01*
X77724944Y-57697637D01*
X74436080Y-60986501D01*
X74423888Y-60997194D01*
X74400748Y-61014950D01*
X74365598Y-61060758D01*
X74365588Y-61060773D01*
X74310347Y-61132766D01*
X74253517Y-61269965D01*
X74253517Y-61269966D01*
X74234133Y-61417200D01*
X74237939Y-61446108D01*
X74239000Y-61462294D01*
X74239000Y-62220160D01*
X74219315Y-62287199D01*
X74202681Y-62307841D01*
X74173184Y-62337337D01*
X74077211Y-62490076D01*
X74017631Y-62660345D01*
X74017630Y-62660350D01*
X73997435Y-62839596D01*
X73997435Y-62839603D01*
X74017630Y-63018849D01*
X74017631Y-63018854D01*
X74077211Y-63189123D01*
X74140564Y-63289948D01*
X74173184Y-63341862D01*
X74300738Y-63469416D01*
X74351782Y-63501489D01*
X74439391Y-63556538D01*
X74453478Y-63565389D01*
X74556506Y-63601440D01*
X74623745Y-63624968D01*
X74623750Y-63624969D01*
X74802996Y-63645165D01*
X74803000Y-63645165D01*
X74803004Y-63645165D01*
X74982249Y-63624969D01*
X74982252Y-63624968D01*
X74982255Y-63624968D01*
X75152522Y-63565389D01*
X75305262Y-63469416D01*
X75432816Y-63341862D01*
X75528789Y-63189122D01*
X75588368Y-63018855D01*
X75588369Y-63018849D01*
X75608565Y-62839603D01*
X75608565Y-62839596D01*
X75588369Y-62660350D01*
X75588368Y-62660345D01*
X75547978Y-62544917D01*
X75528789Y-62490078D01*
X75432816Y-62337338D01*
X75403319Y-62307841D01*
X75369834Y-62246518D01*
X75367000Y-62220160D01*
X75367000Y-61702178D01*
X75386685Y-61635139D01*
X75403314Y-61614502D01*
X77994479Y-59023336D01*
X78055800Y-58989853D01*
X78125492Y-58994837D01*
X78181425Y-59036709D01*
X78205378Y-59097134D01*
X78214631Y-59179251D01*
X78214631Y-59179254D01*
X78274211Y-59349523D01*
X78370184Y-59502262D01*
X78399681Y-59531759D01*
X78433166Y-59593082D01*
X78436000Y-59619440D01*
X78436000Y-67954904D01*
X78434939Y-67971089D01*
X78431133Y-68000000D01*
X78436000Y-68036968D01*
X78441666Y-68080001D01*
X78450517Y-68147233D01*
X78450517Y-68147234D01*
X78507347Y-68284434D01*
X78527771Y-68311051D01*
X78597750Y-68402250D01*
X78620884Y-68420001D01*
X78633079Y-68430696D01*
X80241902Y-70039519D01*
X80275387Y-70100842D01*
X80270403Y-70170534D01*
X80228531Y-70226467D01*
X80163067Y-70250884D01*
X80154221Y-70251200D01*
X79793850Y-70251200D01*
X79726811Y-70231515D01*
X79706169Y-70214881D01*
X79047291Y-69556002D01*
X79013806Y-69494679D01*
X79011752Y-69482204D01*
X78995405Y-69337114D01*
X78995404Y-69337109D01*
X78963690Y-69246476D01*
X78935825Y-69166842D01*
X78923504Y-69147234D01*
X78879492Y-69077189D01*
X78839852Y-69014102D01*
X78712298Y-68886548D01*
X78673305Y-68862047D01*
X78559559Y-68790575D01*
X78389290Y-68730995D01*
X78389285Y-68730994D01*
X78210040Y-68710799D01*
X78210032Y-68710799D01*
X78030786Y-68730994D01*
X78030781Y-68730995D01*
X77860512Y-68790575D01*
X77777004Y-68843047D01*
X77709767Y-68862047D01*
X77642932Y-68841679D01*
X77623351Y-68825734D01*
X65600319Y-56802702D01*
X65566834Y-56741379D01*
X65564000Y-56715021D01*
X65564000Y-56524440D01*
X65583685Y-56457401D01*
X65600319Y-56436759D01*
X65629816Y-56407262D01*
X65725789Y-56254522D01*
X65785368Y-56084255D01*
X65789759Y-56045282D01*
X65805565Y-55905003D01*
X65805565Y-55904996D01*
X65785369Y-55725750D01*
X65785368Y-55725745D01*
X65725788Y-55555476D01*
X65681135Y-55484411D01*
X65629816Y-55402738D01*
X65502262Y-55275184D01*
X65349523Y-55179211D01*
X65179254Y-55119631D01*
X65179249Y-55119630D01*
X65000004Y-55099435D01*
X64999996Y-55099435D01*
X64820750Y-55119630D01*
X64820745Y-55119631D01*
X64650476Y-55179211D01*
X64497737Y-55275184D01*
X64370184Y-55402737D01*
X64274211Y-55555476D01*
X64214631Y-55725745D01*
X64214630Y-55725750D01*
X64194435Y-55904996D01*
X64194435Y-55905003D01*
X64214630Y-56084249D01*
X64214631Y-56084254D01*
X64274211Y-56254523D01*
X64370184Y-56407262D01*
X64399681Y-56436759D01*
X64433166Y-56498082D01*
X64436000Y-56524440D01*
X64436000Y-56954904D01*
X64434939Y-56971089D01*
X64431133Y-56999998D01*
X64431133Y-57000002D01*
X64446616Y-57117609D01*
X64435850Y-57186644D01*
X64389470Y-57238900D01*
X64322201Y-57257785D01*
X64282723Y-57250836D01*
X64179257Y-57214632D01*
X64179249Y-57214630D01*
X64000004Y-57194435D01*
X63999996Y-57194435D01*
X63820750Y-57214630D01*
X63820738Y-57214633D01*
X63783686Y-57227598D01*
X63713907Y-57231159D01*
X63653280Y-57196429D01*
X63641158Y-57181679D01*
X63559273Y-57064735D01*
X63559268Y-57064729D01*
X63395269Y-56900730D01*
X63363413Y-56878424D01*
X63205282Y-56767699D01*
X63193878Y-56762381D01*
X63141440Y-56716210D01*
X63122288Y-56649016D01*
X63142504Y-56582135D01*
X63193878Y-56537618D01*
X63205282Y-56532301D01*
X63395269Y-56399270D01*
X63559270Y-56235269D01*
X63692301Y-56045282D01*
X63790320Y-55835079D01*
X63850349Y-55611050D01*
X63870563Y-55380000D01*
X63850349Y-55148950D01*
X63790320Y-54924921D01*
X63692301Y-54714719D01*
X63692299Y-54714716D01*
X63692298Y-54714714D01*
X63559273Y-54524735D01*
X63559268Y-54524729D01*
X63395269Y-54360730D01*
X63395263Y-54360726D01*
X63205282Y-54227699D01*
X62995079Y-54129680D01*
X62995076Y-54129679D01*
X62995074Y-54129678D01*
X62771051Y-54069651D01*
X62771044Y-54069650D01*
X62540002Y-54049437D01*
X62539998Y-54049437D01*
X62308955Y-54069650D01*
X62308948Y-54069651D01*
X62084917Y-54129681D01*
X61874718Y-54227699D01*
X61874714Y-54227701D01*
X61684735Y-54360726D01*
X61684729Y-54360731D01*
X61520731Y-54524729D01*
X61520726Y-54524735D01*
X61387701Y-54714714D01*
X61387698Y-54714720D01*
X61382381Y-54726123D01*
X61336207Y-54778562D01*
X61269013Y-54797712D01*
X61202133Y-54777495D01*
X61157619Y-54726123D01*
X61152301Y-54714720D01*
X61152298Y-54714714D01*
X61019273Y-54524735D01*
X61019268Y-54524729D01*
X60855269Y-54360730D01*
X60855263Y-54360726D01*
X60665282Y-54227699D01*
X60455079Y-54129680D01*
X60455076Y-54129679D01*
X60455074Y-54129678D01*
X60231051Y-54069651D01*
X60231044Y-54069650D01*
X60000002Y-54049437D01*
X59999998Y-54049437D01*
X59768955Y-54069650D01*
X59768948Y-54069651D01*
X59544917Y-54129681D01*
X59334718Y-54227699D01*
X59334714Y-54227701D01*
X59144735Y-54360726D01*
X59144729Y-54360731D01*
X58980731Y-54524729D01*
X58980726Y-54524735D01*
X58847701Y-54714714D01*
X58847699Y-54714718D01*
X58749681Y-54924917D01*
X58689651Y-55148948D01*
X58689650Y-55148955D01*
X58669437Y-55379998D01*
X58669437Y-55380001D01*
X58689650Y-55611044D01*
X58689651Y-55611051D01*
X58749678Y-55835074D01*
X58749679Y-55835076D01*
X58749680Y-55835079D01*
X58847699Y-56045282D01*
X58980730Y-56235269D01*
X59144731Y-56399270D01*
X59334718Y-56532301D01*
X59346121Y-56537618D01*
X59398560Y-56583790D01*
X59417712Y-56650984D01*
X59397496Y-56717865D01*
X59346123Y-56762381D01*
X59334720Y-56767698D01*
X59334714Y-56767701D01*
X59144735Y-56900726D01*
X59144729Y-56900731D01*
X58980731Y-57064729D01*
X58980726Y-57064735D01*
X58847701Y-57254714D01*
X58847699Y-57254718D01*
X58749681Y-57464917D01*
X58689651Y-57688948D01*
X58689650Y-57688955D01*
X58669437Y-57919998D01*
X58669437Y-57920001D01*
X58689650Y-58151044D01*
X58689651Y-58151051D01*
X58749678Y-58375074D01*
X58749679Y-58375076D01*
X58749680Y-58375079D01*
X58847699Y-58585282D01*
X58980730Y-58775269D01*
X59144731Y-58939270D01*
X59334718Y-59072301D01*
X59346121Y-59077618D01*
X59398560Y-59123790D01*
X59417712Y-59190984D01*
X59397496Y-59257865D01*
X59346123Y-59302381D01*
X59334720Y-59307698D01*
X59334714Y-59307701D01*
X59144735Y-59440726D01*
X59144729Y-59440731D01*
X58980731Y-59604729D01*
X58980726Y-59604735D01*
X58847701Y-59794714D01*
X58847699Y-59794718D01*
X58749681Y-60004917D01*
X58689651Y-60228948D01*
X58689650Y-60228955D01*
X58669437Y-60459998D01*
X58669437Y-60460001D01*
X58689650Y-60691044D01*
X58689651Y-60691051D01*
X58749678Y-60915074D01*
X58749679Y-60915076D01*
X58749680Y-60915079D01*
X58847699Y-61125282D01*
X58980730Y-61315269D01*
X59144731Y-61479270D01*
X59334718Y-61612301D01*
X59346121Y-61617618D01*
X59398560Y-61663790D01*
X59417712Y-61730984D01*
X59397496Y-61797865D01*
X59346123Y-61842381D01*
X59334720Y-61847698D01*
X59334714Y-61847701D01*
X59144735Y-61980726D01*
X59144729Y-61980731D01*
X58980731Y-62144729D01*
X58980726Y-62144735D01*
X58847701Y-62334714D01*
X58847699Y-62334718D01*
X58749681Y-62544917D01*
X58689651Y-62768948D01*
X58689650Y-62768955D01*
X58669437Y-62999998D01*
X58669437Y-63000001D01*
X58689650Y-63231044D01*
X58689651Y-63231051D01*
X58749678Y-63455074D01*
X58749679Y-63455076D01*
X58749680Y-63455079D01*
X58847699Y-63665282D01*
X58980730Y-63855269D01*
X59144731Y-64019270D01*
X59334718Y-64152301D01*
X59346121Y-64157618D01*
X59398560Y-64203790D01*
X59417712Y-64270984D01*
X59397496Y-64337865D01*
X59346123Y-64382381D01*
X59334720Y-64387698D01*
X59334714Y-64387701D01*
X59144735Y-64520726D01*
X59144729Y-64520731D01*
X58980731Y-64684729D01*
X58980726Y-64684735D01*
X58847701Y-64874714D01*
X58847699Y-64874718D01*
X58749681Y-65084917D01*
X58689651Y-65308948D01*
X58689650Y-65308955D01*
X58669437Y-65539998D01*
X58669437Y-65540001D01*
X58689650Y-65771044D01*
X58689651Y-65771051D01*
X58749678Y-65995074D01*
X58749679Y-65995076D01*
X58749680Y-65995079D01*
X58847699Y-66205282D01*
X58980730Y-66395269D01*
X59144731Y-66559270D01*
X59334718Y-66692301D01*
X59346121Y-66697618D01*
X59398560Y-66743790D01*
X59417712Y-66810984D01*
X59397496Y-66877865D01*
X59346123Y-66922381D01*
X59334720Y-66927698D01*
X59334714Y-66927701D01*
X59144735Y-67060726D01*
X59144729Y-67060731D01*
X58980731Y-67224729D01*
X58980726Y-67224735D01*
X58847701Y-67414714D01*
X58847699Y-67414718D01*
X58749681Y-67624917D01*
X58689651Y-67848948D01*
X58689650Y-67848955D01*
X58669437Y-68079998D01*
X58669437Y-68080001D01*
X58689650Y-68311044D01*
X58689651Y-68311051D01*
X58749678Y-68535074D01*
X58749679Y-68535076D01*
X58749680Y-68535079D01*
X58847699Y-68745282D01*
X58980730Y-68935269D01*
X59144731Y-69099270D01*
X59334718Y-69232301D01*
X59346121Y-69237618D01*
X59398560Y-69283790D01*
X59417712Y-69350984D01*
X59397496Y-69417865D01*
X59346123Y-69462381D01*
X59334720Y-69467698D01*
X59334714Y-69467701D01*
X59144735Y-69600726D01*
X59144729Y-69600731D01*
X58980731Y-69764729D01*
X58980726Y-69764735D01*
X58847701Y-69954714D01*
X58847699Y-69954718D01*
X58749681Y-70164917D01*
X58689651Y-70388948D01*
X58689650Y-70388955D01*
X58669437Y-70619998D01*
X58669437Y-70620001D01*
X58689650Y-70851044D01*
X58689651Y-70851051D01*
X58749678Y-71075074D01*
X58749679Y-71075076D01*
X58749680Y-71075079D01*
X58847699Y-71285282D01*
X58980730Y-71475269D01*
X59144731Y-71639270D01*
X59334718Y-71772301D01*
X59346121Y-71777618D01*
X59398560Y-71823790D01*
X59417712Y-71890984D01*
X59397496Y-71957865D01*
X59346123Y-72002381D01*
X59334720Y-72007698D01*
X59334714Y-72007701D01*
X59144735Y-72140726D01*
X59144729Y-72140731D01*
X58980731Y-72304729D01*
X58980726Y-72304735D01*
X58847701Y-72494714D01*
X58847699Y-72494718D01*
X58749681Y-72704917D01*
X58689651Y-72928948D01*
X58689650Y-72928955D01*
X58669437Y-73159998D01*
X58669437Y-73160001D01*
X58689650Y-73391044D01*
X58689651Y-73391051D01*
X58749678Y-73615074D01*
X58749679Y-73615076D01*
X58749680Y-73615079D01*
X58847699Y-73825282D01*
X58980730Y-74015269D01*
X59144731Y-74179270D01*
X59334718Y-74312301D01*
X59346121Y-74317618D01*
X59398560Y-74363790D01*
X59417712Y-74430984D01*
X59397496Y-74497865D01*
X59346123Y-74542381D01*
X59334720Y-74547698D01*
X59334714Y-74547701D01*
X59144735Y-74680726D01*
X59144729Y-74680731D01*
X58980731Y-74844729D01*
X58980726Y-74844735D01*
X58847701Y-75034714D01*
X58847699Y-75034718D01*
X58749681Y-75244917D01*
X58689651Y-75468948D01*
X58689650Y-75468955D01*
X58669437Y-75699998D01*
X58669437Y-75700001D01*
X27148870Y-75700001D01*
X27148870Y-43535603D01*
X61424435Y-43535603D01*
X61444630Y-43714849D01*
X61444631Y-43714854D01*
X61504211Y-43885123D01*
X61584572Y-44013016D01*
X61600184Y-44037862D01*
X61727738Y-44165416D01*
X61880478Y-44261389D01*
X62050745Y-44320968D01*
X62050750Y-44320969D01*
X62229996Y-44341165D01*
X62230000Y-44341165D01*
X62230004Y-44341165D01*
X62409249Y-44320969D01*
X62409252Y-44320968D01*
X62409255Y-44320968D01*
X62579522Y-44261389D01*
X62732262Y-44165416D01*
X62761759Y-44135919D01*
X62823082Y-44102434D01*
X62849440Y-44099600D01*
X79841280Y-44099600D01*
X79881753Y-44108836D01*
X79882505Y-44106689D01*
X80059337Y-44168566D01*
X80059343Y-44168567D01*
X80059345Y-44168568D01*
X80059346Y-44168568D01*
X80059350Y-44168569D01*
X80238596Y-44188765D01*
X80238600Y-44188765D01*
X80238604Y-44188765D01*
X80417849Y-44168569D01*
X80417852Y-44168568D01*
X80417855Y-44168568D01*
X80588122Y-44108989D01*
X80740862Y-44013016D01*
X80868416Y-43885462D01*
X80964389Y-43732722D01*
X81023968Y-43562455D01*
X81023969Y-43562449D01*
X81044165Y-43383203D01*
X81044165Y-43383196D01*
X81023969Y-43203950D01*
X81023968Y-43203945D01*
X80964388Y-43033676D01*
X80868415Y-42880937D01*
X80740862Y-42753384D01*
X80588123Y-42657411D01*
X80417854Y-42597831D01*
X80417849Y-42597830D01*
X80238604Y-42577635D01*
X80238596Y-42577635D01*
X80059350Y-42597830D01*
X80059345Y-42597831D01*
X79889076Y-42657411D01*
X79736337Y-42753384D01*
X79608784Y-42880937D01*
X79588279Y-42913572D01*
X79535944Y-42959863D01*
X79483285Y-42971600D01*
X62849440Y-42971600D01*
X62782401Y-42951915D01*
X62761759Y-42935281D01*
X62732262Y-42905784D01*
X62579523Y-42809811D01*
X62409254Y-42750231D01*
X62409249Y-42750230D01*
X62230004Y-42730035D01*
X62229996Y-42730035D01*
X62050750Y-42750230D01*
X62050745Y-42750231D01*
X61880476Y-42809811D01*
X61727737Y-42905784D01*
X61600184Y-43033337D01*
X61504211Y-43186076D01*
X61444631Y-43356345D01*
X61444630Y-43356350D01*
X61424435Y-43535596D01*
X61424435Y-43535603D01*
X27148870Y-43535603D01*
X27148870Y-39746717D01*
X27148905Y-39746171D01*
X27148901Y-39738336D01*
X27148902Y-39738334D01*
X27148870Y-39673658D01*
X27148893Y-39671285D01*
X27149303Y-39649883D01*
X27167506Y-38699666D01*
X27167695Y-38694823D01*
X27168804Y-38675867D01*
X27224365Y-37725964D01*
X27224737Y-37721200D01*
X27319407Y-36755253D01*
X27319975Y-36750439D01*
X27322572Y-36731598D01*
X27452493Y-35788966D01*
X27453236Y-35784262D01*
X27560843Y-35180006D01*
X98694700Y-35180006D01*
X98713864Y-35411297D01*
X98713866Y-35411308D01*
X98770842Y-35636300D01*
X98864075Y-35848848D01*
X98991016Y-36043147D01*
X98991019Y-36043151D01*
X98991021Y-36043153D01*
X99148216Y-36213913D01*
X99325819Y-36352146D01*
X99326225Y-36352462D01*
X99367038Y-36409173D01*
X99370713Y-36478946D01*
X99336082Y-36539629D01*
X99326225Y-36548170D01*
X99301201Y-36567646D01*
X99301200Y-36567647D01*
X99890780Y-37157226D01*
X99797412Y-37195901D01*
X99672075Y-37292075D01*
X99575901Y-37417411D01*
X99537226Y-37510780D01*
X98948811Y-36922365D01*
X98864516Y-37051390D01*
X98771317Y-37263864D01*
X98714361Y-37488781D01*
X98695202Y-37719994D01*
X98695202Y-37720005D01*
X98714361Y-37951218D01*
X98771317Y-38176135D01*
X98864515Y-38388606D01*
X98948812Y-38517633D01*
X99537226Y-37929219D01*
X99575901Y-38022588D01*
X99672075Y-38147925D01*
X99797412Y-38244099D01*
X99890779Y-38282772D01*
X99301201Y-38872351D01*
X99331649Y-38896050D01*
X99535697Y-39006476D01*
X99535706Y-39006479D01*
X99755139Y-39081811D01*
X99983993Y-39120000D01*
X100216007Y-39120000D01*
X100444860Y-39081811D01*
X100664293Y-39006479D01*
X100664301Y-39006476D01*
X100868355Y-38896047D01*
X100898797Y-38872351D01*
X100898798Y-38872350D01*
X100309220Y-38282772D01*
X100402588Y-38244099D01*
X100527925Y-38147925D01*
X100624099Y-38022589D01*
X100662773Y-37929220D01*
X101251186Y-38517633D01*
X101335482Y-38388611D01*
X101428682Y-38176135D01*
X101485638Y-37951218D01*
X101504798Y-37720005D01*
X101504798Y-37719994D01*
X101485638Y-37488781D01*
X101428682Y-37263864D01*
X101335484Y-37051393D01*
X101251186Y-36922365D01*
X100662772Y-37510779D01*
X100624099Y-37417412D01*
X100527925Y-37292075D01*
X100402588Y-37195901D01*
X100309219Y-37157226D01*
X100898797Y-36567647D01*
X100898797Y-36567646D01*
X100873773Y-36548169D01*
X100832961Y-36491459D01*
X100829286Y-36421686D01*
X100863918Y-36361003D01*
X100873760Y-36352473D01*
X101051784Y-36213913D01*
X101208979Y-36043153D01*
X101335924Y-35848849D01*
X101429157Y-35636300D01*
X101486134Y-35411305D01*
X101486135Y-35411297D01*
X101505300Y-35180006D01*
X101505300Y-35179993D01*
X101486135Y-34948702D01*
X101486133Y-34948691D01*
X101429157Y-34723699D01*
X101335924Y-34511151D01*
X101208983Y-34316852D01*
X101208980Y-34316849D01*
X101208979Y-34316847D01*
X101051784Y-34146087D01*
X100874180Y-34007853D01*
X100833368Y-33951143D01*
X100829693Y-33881370D01*
X100864324Y-33820687D01*
X100874181Y-33812146D01*
X101051784Y-33673913D01*
X101208979Y-33503153D01*
X101335924Y-33308849D01*
X101429157Y-33096300D01*
X101486134Y-32871305D01*
X101505300Y-32640000D01*
X101505300Y-32639993D01*
X101486135Y-32408702D01*
X101486133Y-32408691D01*
X101429157Y-32183699D01*
X101335924Y-31971151D01*
X101208983Y-31776852D01*
X101208980Y-31776849D01*
X101208979Y-31776847D01*
X101051784Y-31606087D01*
X100874180Y-31467853D01*
X100833368Y-31411143D01*
X100829693Y-31341370D01*
X100864324Y-31280687D01*
X100874181Y-31272146D01*
X101051784Y-31133913D01*
X101208979Y-30963153D01*
X101335924Y-30768849D01*
X101429157Y-30556300D01*
X101486134Y-30331305D01*
X101486135Y-30331297D01*
X101505300Y-30100006D01*
X101505300Y-30099993D01*
X101486135Y-29868702D01*
X101486133Y-29868691D01*
X101429157Y-29643699D01*
X101335924Y-29431151D01*
X101208983Y-29236852D01*
X101208980Y-29236849D01*
X101208979Y-29236847D01*
X101051784Y-29066087D01*
X100874180Y-28927853D01*
X100833368Y-28871143D01*
X100829693Y-28801370D01*
X100864324Y-28740687D01*
X100874181Y-28732146D01*
X101051784Y-28593913D01*
X101208979Y-28423153D01*
X101335924Y-28228849D01*
X101429157Y-28016300D01*
X101486134Y-27791305D01*
X101488548Y-27762172D01*
X101505300Y-27560006D01*
X101505300Y-27559993D01*
X101486135Y-27328702D01*
X101486133Y-27328691D01*
X101429157Y-27103699D01*
X101335924Y-26891151D01*
X101208983Y-26696852D01*
X101208980Y-26696849D01*
X101208979Y-26696847D01*
X101051784Y-26526087D01*
X100874180Y-26387853D01*
X100833368Y-26331143D01*
X100829693Y-26261370D01*
X100864324Y-26200687D01*
X100874181Y-26192146D01*
X101051784Y-26053913D01*
X101208979Y-25883153D01*
X101335924Y-25688849D01*
X101429157Y-25476300D01*
X101486134Y-25251305D01*
X101501142Y-25070184D01*
X101505300Y-25020006D01*
X101505300Y-25019993D01*
X101486135Y-24788702D01*
X101486133Y-24788691D01*
X101429157Y-24563699D01*
X101335924Y-24351151D01*
X101208983Y-24156852D01*
X101208980Y-24156849D01*
X101208979Y-24156847D01*
X101051784Y-23986087D01*
X100874180Y-23847853D01*
X100833368Y-23791143D01*
X100829693Y-23721370D01*
X100864324Y-23660687D01*
X100874181Y-23652146D01*
X100874586Y-23651831D01*
X101051784Y-23513913D01*
X101208979Y-23343153D01*
X101335924Y-23148849D01*
X101429157Y-22936300D01*
X101486134Y-22711305D01*
X101486135Y-22711297D01*
X101505300Y-22480006D01*
X101505300Y-22479993D01*
X101486135Y-22248702D01*
X101486133Y-22248691D01*
X101429157Y-22023699D01*
X101335924Y-21811151D01*
X101208983Y-21616852D01*
X101208980Y-21616849D01*
X101208979Y-21616847D01*
X101051784Y-21446087D01*
X100874180Y-21307853D01*
X100833368Y-21251143D01*
X100829693Y-21181370D01*
X100864324Y-21120687D01*
X100874181Y-21112146D01*
X101051784Y-20973913D01*
X101208979Y-20803153D01*
X101335924Y-20608849D01*
X101429157Y-20396300D01*
X101486134Y-20171305D01*
X101486135Y-20171297D01*
X101505300Y-19940006D01*
X101505300Y-19939993D01*
X101486135Y-19708702D01*
X101486133Y-19708691D01*
X101429157Y-19483699D01*
X101335924Y-19271151D01*
X101208983Y-19076852D01*
X101208980Y-19076849D01*
X101208979Y-19076847D01*
X101114195Y-18973884D01*
X101083275Y-18911232D01*
X101091135Y-18841806D01*
X101135283Y-18787651D01*
X101162095Y-18773722D01*
X101242326Y-18743798D01*
X101242326Y-18743797D01*
X101242331Y-18743796D01*
X101357546Y-18657546D01*
X101443796Y-18542331D01*
X101494091Y-18407483D01*
X101500500Y-18347873D01*
X101500499Y-16452128D01*
X101494091Y-16392517D01*
X101443796Y-16257669D01*
X101443795Y-16257668D01*
X101443793Y-16257664D01*
X101357547Y-16142455D01*
X101357544Y-16142452D01*
X101242335Y-16056206D01*
X101242328Y-16056202D01*
X101107482Y-16005908D01*
X101107483Y-16005908D01*
X101047883Y-15999501D01*
X101047881Y-15999500D01*
X101047873Y-15999500D01*
X101047864Y-15999500D01*
X99152129Y-15999500D01*
X99152123Y-15999501D01*
X99092516Y-16005908D01*
X98957671Y-16056202D01*
X98957664Y-16056206D01*
X98842455Y-16142452D01*
X98842452Y-16142455D01*
X98756206Y-16257664D01*
X98756202Y-16257671D01*
X98705908Y-16392517D01*
X98699501Y-16452116D01*
X98699501Y-16452123D01*
X98699500Y-16452135D01*
X98699500Y-18347870D01*
X98699501Y-18347876D01*
X98705908Y-18407483D01*
X98756202Y-18542328D01*
X98756206Y-18542335D01*
X98842452Y-18657544D01*
X98842455Y-18657547D01*
X98957664Y-18743793D01*
X98957673Y-18743798D01*
X99037904Y-18773722D01*
X99093838Y-18815593D01*
X99118256Y-18881057D01*
X99103405Y-18949330D01*
X99085802Y-18973886D01*
X98991019Y-19076849D01*
X98864075Y-19271151D01*
X98770842Y-19483699D01*
X98713866Y-19708691D01*
X98713864Y-19708702D01*
X98694700Y-19939993D01*
X98694700Y-19940006D01*
X98713864Y-20171297D01*
X98713866Y-20171308D01*
X98770842Y-20396300D01*
X98864075Y-20608848D01*
X98991016Y-20803147D01*
X98991019Y-20803151D01*
X98991021Y-20803153D01*
X99148216Y-20973913D01*
X99148219Y-20973915D01*
X99148222Y-20973918D01*
X99325818Y-21112147D01*
X99366631Y-21168857D01*
X99370306Y-21238630D01*
X99335674Y-21299313D01*
X99325818Y-21307853D01*
X99148222Y-21446081D01*
X99148219Y-21446084D01*
X98991016Y-21616852D01*
X98864075Y-21811151D01*
X98770842Y-22023699D01*
X98713866Y-22248691D01*
X98713864Y-22248702D01*
X98694700Y-22479993D01*
X98694700Y-22480006D01*
X98713864Y-22711297D01*
X98713866Y-22711308D01*
X98770842Y-22936300D01*
X98864075Y-23148848D01*
X98991016Y-23343147D01*
X98991019Y-23343151D01*
X98991021Y-23343153D01*
X99148216Y-23513913D01*
X99148219Y-23513915D01*
X99148222Y-23513918D01*
X99325818Y-23652147D01*
X99366631Y-23708857D01*
X99370306Y-23778630D01*
X99335674Y-23839313D01*
X99325818Y-23847853D01*
X99148222Y-23986081D01*
X99148219Y-23986084D01*
X98991016Y-24156852D01*
X98864075Y-24351151D01*
X98770842Y-24563699D01*
X98713866Y-24788691D01*
X98713864Y-24788702D01*
X98694700Y-25019993D01*
X98694700Y-25020006D01*
X98713864Y-25251297D01*
X98713866Y-25251308D01*
X98770842Y-25476300D01*
X98864075Y-25688848D01*
X98991016Y-25883147D01*
X98991019Y-25883151D01*
X98991021Y-25883153D01*
X99148216Y-26053913D01*
X99148219Y-26053915D01*
X99148222Y-26053918D01*
X99325818Y-26192147D01*
X99366631Y-26248857D01*
X99370306Y-26318630D01*
X99335674Y-26379313D01*
X99325818Y-26387853D01*
X99148222Y-26526081D01*
X99148219Y-26526084D01*
X98991016Y-26696852D01*
X98864075Y-26891151D01*
X98770842Y-27103699D01*
X98713866Y-27328691D01*
X98713864Y-27328702D01*
X98694700Y-27559993D01*
X98694700Y-27560006D01*
X98713864Y-27791297D01*
X98713866Y-27791308D01*
X98770842Y-28016300D01*
X98864075Y-28228848D01*
X98991016Y-28423147D01*
X98991019Y-28423151D01*
X98991021Y-28423153D01*
X99148216Y-28593913D01*
X99148219Y-28593915D01*
X99148222Y-28593918D01*
X99325818Y-28732147D01*
X99366631Y-28788857D01*
X99370306Y-28858630D01*
X99335674Y-28919313D01*
X99325818Y-28927853D01*
X99148222Y-29066081D01*
X99148219Y-29066084D01*
X98991016Y-29236852D01*
X98864075Y-29431151D01*
X98770842Y-29643699D01*
X98713866Y-29868691D01*
X98713864Y-29868702D01*
X98694700Y-30099993D01*
X98694700Y-30100006D01*
X98713864Y-30331297D01*
X98713866Y-30331308D01*
X98770842Y-30556300D01*
X98864075Y-30768848D01*
X98991016Y-30963147D01*
X98991019Y-30963151D01*
X98991021Y-30963153D01*
X99148216Y-31133913D01*
X99148219Y-31133915D01*
X99148222Y-31133918D01*
X99325818Y-31272147D01*
X99366631Y-31328857D01*
X99370306Y-31398630D01*
X99335674Y-31459313D01*
X99325818Y-31467853D01*
X99148222Y-31606081D01*
X99148219Y-31606084D01*
X98991016Y-31776852D01*
X98864075Y-31971151D01*
X98770842Y-32183699D01*
X98713866Y-32408691D01*
X98713864Y-32408702D01*
X98694700Y-32639993D01*
X98694700Y-32640006D01*
X98713864Y-32871297D01*
X98713866Y-32871308D01*
X98770842Y-33096300D01*
X98864075Y-33308848D01*
X98991016Y-33503147D01*
X98991019Y-33503151D01*
X98991021Y-33503153D01*
X99148216Y-33673913D01*
X99148219Y-33673915D01*
X99148222Y-33673918D01*
X99325818Y-33812147D01*
X99366631Y-33868857D01*
X99370306Y-33938630D01*
X99335674Y-33999313D01*
X99325818Y-34007853D01*
X99148222Y-34146081D01*
X99148219Y-34146084D01*
X98991016Y-34316852D01*
X98864075Y-34511151D01*
X98770842Y-34723699D01*
X98713866Y-34948691D01*
X98713864Y-34948702D01*
X98694700Y-35179993D01*
X98694700Y-35180006D01*
X27560843Y-35180006D01*
X27623394Y-34828758D01*
X27624337Y-34824006D01*
X27628411Y-34805397D01*
X27831882Y-33875897D01*
X27833000Y-33871234D01*
X28077603Y-32932020D01*
X28078900Y-32927411D01*
X28360198Y-31998493D01*
X28361695Y-31993882D01*
X28369540Y-31971224D01*
X28679223Y-31076787D01*
X28680885Y-31072275D01*
X29034188Y-30168314D01*
X29036028Y-30163866D01*
X29424552Y-29274466D01*
X29426547Y-29270131D01*
X29849698Y-28396650D01*
X29851885Y-28392352D01*
X30308988Y-27536186D01*
X30311330Y-27532000D01*
X30801692Y-26694440D01*
X30804206Y-26690332D01*
X31327071Y-25872674D01*
X31329745Y-25868668D01*
X31884317Y-25072154D01*
X31887126Y-25068282D01*
X31938763Y-25000000D01*
X34494693Y-25000000D01*
X34513912Y-25415697D01*
X34513912Y-25415702D01*
X34513913Y-25415707D01*
X34571403Y-25827845D01*
X34571405Y-25827853D01*
X34666679Y-26232933D01*
X34798929Y-26627514D01*
X34967010Y-27008177D01*
X34967020Y-27008198D01*
X35169506Y-27371731D01*
X35169509Y-27371735D01*
X35169511Y-27371739D01*
X35404687Y-27715054D01*
X35404689Y-27715056D01*
X35404696Y-27715066D01*
X35647975Y-28008034D01*
X35670538Y-28035206D01*
X35964794Y-28329462D01*
X35964805Y-28329471D01*
X36284933Y-28595303D01*
X36284939Y-28595307D01*
X36284946Y-28595313D01*
X36628261Y-28830489D01*
X36628267Y-28830492D01*
X36628268Y-28830493D01*
X36636729Y-28835206D01*
X36991812Y-29032985D01*
X37182153Y-29117029D01*
X37372485Y-29201070D01*
X37372488Y-29201071D01*
X37372495Y-29201074D01*
X37767064Y-29333320D01*
X38172152Y-29428596D01*
X38584303Y-29486088D01*
X39000000Y-29505307D01*
X39415697Y-29486088D01*
X39827848Y-29428596D01*
X40232936Y-29333320D01*
X40627505Y-29201074D01*
X41008188Y-29032985D01*
X41371739Y-28830489D01*
X41715054Y-28595313D01*
X42035206Y-28329462D01*
X42329462Y-28035206D01*
X42595313Y-27715054D01*
X42830489Y-27371739D01*
X43032985Y-27008188D01*
X43201074Y-26627505D01*
X43333320Y-26232936D01*
X43428596Y-25827848D01*
X43486088Y-25415697D01*
X43505307Y-25000000D01*
X43486088Y-24584303D01*
X43428596Y-24172152D01*
X43333320Y-23767064D01*
X43201074Y-23372495D01*
X43188118Y-23343153D01*
X43074108Y-23084946D01*
X43032985Y-22991812D01*
X42986260Y-22907925D01*
X42830493Y-22628268D01*
X42830492Y-22628267D01*
X42830489Y-22628261D01*
X42595313Y-22284946D01*
X42595307Y-22284939D01*
X42595303Y-22284933D01*
X42329471Y-21964805D01*
X42329462Y-21964794D01*
X42035206Y-21670538D01*
X42035194Y-21670528D01*
X41715066Y-21404696D01*
X41715056Y-21404689D01*
X41715054Y-21404687D01*
X41371739Y-21169511D01*
X41371735Y-21169509D01*
X41371731Y-21169506D01*
X41008198Y-20967020D01*
X41008177Y-20967010D01*
X40627514Y-20798929D01*
X40232933Y-20666679D01*
X39827853Y-20571405D01*
X39827845Y-20571403D01*
X39415707Y-20513913D01*
X39415702Y-20513912D01*
X39415697Y-20513912D01*
X39000000Y-20494693D01*
X38584303Y-20513912D01*
X38584297Y-20513912D01*
X38584292Y-20513913D01*
X38172154Y-20571403D01*
X38172146Y-20571405D01*
X37767066Y-20666679D01*
X37372485Y-20798929D01*
X36991822Y-20967010D01*
X36991801Y-20967020D01*
X36628268Y-21169506D01*
X36628262Y-21169510D01*
X36284943Y-21404689D01*
X36284933Y-21404696D01*
X35964805Y-21670528D01*
X35964785Y-21670546D01*
X35670546Y-21964785D01*
X35670528Y-21964805D01*
X35404696Y-22284933D01*
X35404689Y-22284943D01*
X35169510Y-22628262D01*
X35169506Y-22628268D01*
X34967020Y-22991801D01*
X34967010Y-22991822D01*
X34798929Y-23372485D01*
X34666679Y-23767066D01*
X34571405Y-24172146D01*
X34571403Y-24172154D01*
X34513913Y-24584292D01*
X34513912Y-24584297D01*
X34513912Y-24584303D01*
X34494693Y-25000000D01*
X31938763Y-25000000D01*
X32472563Y-24294127D01*
X32475526Y-24290364D01*
X33090883Y-23539816D01*
X33094013Y-23536150D01*
X33110092Y-23518039D01*
X33512678Y-23064556D01*
X33738331Y-22810375D01*
X33741634Y-22806798D01*
X34413932Y-22106894D01*
X34417341Y-22103481D01*
X35116651Y-21430462D01*
X35120173Y-21427203D01*
X35845365Y-20782158D01*
X35849018Y-20779036D01*
X36598994Y-20162943D01*
X36602745Y-20159984D01*
X37376297Y-19573837D01*
X37380207Y-19570994D01*
X37505329Y-19483700D01*
X37809982Y-19271151D01*
X38176156Y-19015681D01*
X38180203Y-19012974D01*
X38196637Y-19002443D01*
X38997324Y-18489347D01*
X39001431Y-18486828D01*
X39838500Y-17995674D01*
X39842747Y-17993294D01*
X39864499Y-17981654D01*
X40698459Y-17535377D01*
X40702718Y-17533205D01*
X41575818Y-17109203D01*
X41580139Y-17107210D01*
X42469174Y-16717829D01*
X42473573Y-16716004D01*
X43377249Y-16361812D01*
X43381759Y-16360146D01*
X44298566Y-16041732D01*
X44303148Y-16040241D01*
X45231791Y-15758054D01*
X45236382Y-15756757D01*
X46175380Y-15511247D01*
X46180054Y-15510123D01*
X47128001Y-15301660D01*
X47132663Y-15300731D01*
X48088017Y-15129653D01*
X48092804Y-15128892D01*
X49054089Y-14995460D01*
X49058906Y-14994888D01*
X50024758Y-14899291D01*
X50029510Y-14898915D01*
X50998335Y-14841315D01*
X51003170Y-14841122D01*
X51974762Y-14821576D01*
X51977201Y-14821552D01*
X151901716Y-14821552D01*
X151902265Y-14821587D01*
G37*
%TD.AperFunction*%
%TD*%
M02*
