%TF.GenerationSoftware,KiCad,Pcbnew,7.0.10*%
%TF.CreationDate,2024-06-15T10:18:50+01:00*%
%TF.ProjectId,buran,62757261-6e2e-46b6-9963-61645f706362,rev?*%
%TF.SameCoordinates,Original*%
%TF.FileFunction,Drillmap*%
%TF.FilePolarity,Positive*%
%FSLAX45Y45*%
G04 Gerber Fmt 4.5, Leading zero omitted, Abs format (unit mm)*
G04 Created by KiCad (PCBNEW 7.0.10) date 2024-06-15 10:18:50*
%MOMM*%
%LPD*%
G01*
G04 APERTURE LIST*
%ADD10C,0.100000*%
%ADD11C,0.200000*%
%ADD12C,0.105000*%
%ADD13C,0.110000*%
%ADD14C,0.120000*%
%ADD15C,0.202485*%
%ADD16C,0.400000*%
G04 APERTURE END LIST*
D10*
X2000000Y-12000000D02*
G75*
G03*
X5000000Y-15000000I3000000J0D01*
G01*
X5000000Y-2000000D02*
G75*
G03*
X2000000Y-5000000I0J-3000000D01*
G01*
X5000000Y-15000000D02*
X20000000Y-15000000D01*
X20000000Y-15000000D02*
G75*
G03*
X23000000Y-12000000I0J3000000D01*
G01*
X23000000Y-5000000D02*
G75*
G03*
X20000000Y-2000000I-3000000J0D01*
G01*
X2000000Y-12000000D02*
X2000000Y-5000000D01*
X23000000Y-5000000D02*
X23000000Y-12000000D01*
X5000000Y-2000000D02*
X20000000Y-2000000D01*
D11*
D10*
X2474200Y-5776200D02*
X2504200Y-5806200D01*
X2504200Y-5776200D02*
X2474200Y-5806200D01*
X2474200Y-9637000D02*
X2504200Y-9667000D01*
X2504200Y-9637000D02*
X2474200Y-9667000D01*
X2525000Y-4201400D02*
X2555000Y-4231400D01*
X2555000Y-4201400D02*
X2525000Y-4231400D01*
X2525000Y-7605000D02*
X2555000Y-7635000D01*
X2555000Y-7605000D02*
X2525000Y-7635000D01*
X2575800Y-11313400D02*
X2605800Y-11343400D01*
X2605800Y-11313400D02*
X2575800Y-11343400D01*
X2982200Y-3134600D02*
X3012200Y-3164600D01*
X3012200Y-3134600D02*
X2982200Y-3164600D01*
X3744200Y-2626600D02*
X3774200Y-2656600D01*
X3774200Y-2626600D02*
X3744200Y-2656600D01*
X3845800Y-13497800D02*
X3875800Y-13527800D01*
X3875800Y-13497800D02*
X3845800Y-13527800D01*
X6538200Y-2423400D02*
X6568200Y-2453400D01*
X6568200Y-2423400D02*
X6538200Y-2453400D01*
X6792200Y-7097000D02*
X6822200Y-7127000D01*
X6822200Y-7097000D02*
X6792200Y-7127000D01*
X6792200Y-7655800D02*
X6822200Y-7685800D01*
X6822200Y-7655800D02*
X6792200Y-7685800D01*
X6843000Y-14209000D02*
X6873000Y-14239000D01*
X6873000Y-14209000D02*
X6843000Y-14239000D01*
X8417800Y-7655800D02*
X8447800Y-7685800D01*
X8447800Y-7655800D02*
X8417800Y-7685800D01*
X8468600Y-6284200D02*
X8498600Y-6314200D01*
X8498600Y-6284200D02*
X8468600Y-6314200D01*
X8570200Y-6030200D02*
X8600200Y-6060200D01*
X8600200Y-6030200D02*
X8570200Y-6060200D01*
X8671800Y-5623800D02*
X8701800Y-5653800D01*
X8701800Y-5623800D02*
X8671800Y-5653800D01*
X8671800Y-5979400D02*
X8701800Y-6009400D01*
X8701800Y-5979400D02*
X8671800Y-6009400D01*
X8773400Y-9891000D02*
X8803400Y-9921000D01*
X8803400Y-9891000D02*
X8773400Y-9921000D01*
X8824200Y-6335000D02*
X8854200Y-6365000D01*
X8854200Y-6335000D02*
X8824200Y-6365000D01*
X8875000Y-6487400D02*
X8905000Y-6517400D01*
X8905000Y-6487400D02*
X8875000Y-6517400D01*
X8976600Y-6081000D02*
X9006600Y-6111000D01*
X9006600Y-6081000D02*
X8976600Y-6111000D01*
X9078200Y-5420600D02*
X9108200Y-5450600D01*
X9108200Y-5420600D02*
X9078200Y-5450600D01*
X9129000Y-5928600D02*
X9159000Y-5958600D01*
X9159000Y-5928600D02*
X9129000Y-5958600D01*
X9230600Y-5471400D02*
X9260600Y-5501400D01*
X9260600Y-5471400D02*
X9230600Y-5501400D01*
X9433800Y-5979400D02*
X9463800Y-6009400D01*
X9463800Y-5979400D02*
X9433800Y-6009400D01*
X9738600Y-2372600D02*
X9768600Y-2402600D01*
X9768600Y-2372600D02*
X9738600Y-2402600D01*
X9840200Y-5776200D02*
X9870200Y-5806200D01*
X9870200Y-5776200D02*
X9840200Y-5806200D01*
X9840200Y-6131800D02*
X9870200Y-6161800D01*
X9870200Y-6131800D02*
X9840200Y-6161800D01*
X10145000Y-14259800D02*
X10175000Y-14289800D01*
X10175000Y-14259800D02*
X10145000Y-14289800D01*
X10195800Y-5065000D02*
X10225800Y-5095000D01*
X10225800Y-5065000D02*
X10195800Y-5095000D01*
X10195800Y-6487400D02*
X10225800Y-6517400D01*
X10225800Y-6487400D02*
X10195800Y-6517400D01*
X10246600Y-6690600D02*
X10276600Y-6720600D01*
X10276600Y-6690600D02*
X10246600Y-6720600D01*
X10348200Y-6081000D02*
X10378200Y-6111000D01*
X10378200Y-6081000D02*
X10348200Y-6111000D01*
X10500600Y-6182600D02*
X10530600Y-6212600D01*
X10530600Y-6182600D02*
X10500600Y-6212600D01*
X10551400Y-5623800D02*
X10581400Y-5653800D01*
X10581400Y-5623800D02*
X10551400Y-5653800D01*
X10602200Y-9992600D02*
X10632200Y-10022600D01*
X10632200Y-9992600D02*
X10602200Y-10022600D01*
X10653000Y-6944600D02*
X10683000Y-6974600D01*
X10683000Y-6944600D02*
X10653000Y-6974600D01*
X10703800Y-6436600D02*
X10733800Y-6466600D01*
X10733800Y-6436600D02*
X10703800Y-6466600D01*
X10754600Y-5369800D02*
X10784600Y-5399800D01*
X10784600Y-5369800D02*
X10754600Y-5399800D01*
X10856200Y-4760200D02*
X10886200Y-4790200D01*
X10886200Y-4760200D02*
X10856200Y-4790200D01*
X10856200Y-4760200D02*
X10886200Y-4790200D01*
X10886200Y-4760200D02*
X10856200Y-4790200D01*
X10907000Y-8011400D02*
X10937000Y-8041400D01*
X10937000Y-8011400D02*
X10907000Y-8041400D01*
X11059400Y-5928600D02*
X11089400Y-5958600D01*
X11089400Y-5928600D02*
X11059400Y-5958600D01*
X11110200Y-8214600D02*
X11140200Y-8244600D01*
X11140200Y-8214600D02*
X11110200Y-8244600D01*
X11161000Y-5420600D02*
X11191000Y-5450600D01*
X11191000Y-5420600D02*
X11161000Y-5450600D01*
X11171784Y-6569727D02*
X11201784Y-6599727D01*
X11201784Y-6569727D02*
X11171784Y-6599727D01*
X11313400Y-4303000D02*
X11343400Y-4333000D01*
X11343400Y-4303000D02*
X11313400Y-4333000D01*
X11313400Y-4303000D02*
X11343400Y-4333000D01*
X11343400Y-4303000D02*
X11313400Y-4333000D01*
X11364200Y-6385800D02*
X11394200Y-6415800D01*
X11394200Y-6385800D02*
X11364200Y-6415800D01*
X11416731Y-6668098D02*
X11446731Y-6698098D01*
X11446731Y-6668098D02*
X11416731Y-6698098D01*
X11465800Y-6944600D02*
X11495800Y-6974600D01*
X11495800Y-6944600D02*
X11465800Y-6974600D01*
X11516600Y-5928600D02*
X11546600Y-5958600D01*
X11546600Y-5928600D02*
X11516600Y-5958600D01*
X11516600Y-6385800D02*
X11546600Y-6415800D01*
X11546600Y-6385800D02*
X11516600Y-6415800D01*
X11516600Y-7046200D02*
X11546600Y-7076200D01*
X11546600Y-7046200D02*
X11516600Y-7076200D01*
X11518350Y-7131100D02*
X11548350Y-7161100D01*
X11548350Y-7131100D02*
X11518350Y-7161100D01*
X11567400Y-7351000D02*
X11597400Y-7381000D01*
X11597400Y-7351000D02*
X11567400Y-7381000D01*
X11669000Y-6182600D02*
X11699000Y-6212600D01*
X11699000Y-6182600D02*
X11669000Y-6212600D01*
X11669000Y-6335000D02*
X11699000Y-6365000D01*
X11699000Y-6335000D02*
X11669000Y-6365000D01*
X11669000Y-6436600D02*
X11699000Y-6466600D01*
X11699000Y-6436600D02*
X11669000Y-6466600D01*
X11770600Y-5115800D02*
X11800600Y-5145800D01*
X11800600Y-5115800D02*
X11770600Y-5145800D01*
X11872200Y-3642600D02*
X11902200Y-3672600D01*
X11902200Y-3642600D02*
X11872200Y-3672600D01*
X11872200Y-3642600D02*
X11902200Y-3672600D01*
X11902200Y-3642600D02*
X11872200Y-3672600D01*
X11872200Y-4760200D02*
X11902200Y-4790200D01*
X11902200Y-4760200D02*
X11872200Y-4790200D01*
X11872200Y-4861800D02*
X11902200Y-4891800D01*
X11902200Y-4861800D02*
X11872200Y-4891800D01*
X11872200Y-8976600D02*
X11902200Y-9006600D01*
X11902200Y-8976600D02*
X11872200Y-9006600D01*
X11872200Y-9179800D02*
X11902200Y-9209800D01*
X11902200Y-9179800D02*
X11872200Y-9209800D01*
X11923000Y-4399950D02*
X11953000Y-4429950D01*
X11953000Y-4399950D02*
X11923000Y-4429950D01*
X12024450Y-8570200D02*
X12054450Y-8600200D01*
X12054450Y-8570200D02*
X12024450Y-8600200D01*
X12024600Y-8976600D02*
X12054600Y-9006600D01*
X12054600Y-8976600D02*
X12024600Y-9006600D01*
X12024600Y-9179800D02*
X12054600Y-9209800D01*
X12054600Y-9179800D02*
X12024600Y-9209800D01*
X12075400Y-4506200D02*
X12105400Y-4536200D01*
X12105400Y-4506200D02*
X12075400Y-4536200D01*
X12126200Y-9586200D02*
X12156200Y-9616200D01*
X12156200Y-9586200D02*
X12126200Y-9616200D01*
X12278600Y-3388600D02*
X12308600Y-3418600D01*
X12308600Y-3388600D02*
X12278600Y-3418600D01*
X12278600Y-3947400D02*
X12308600Y-3977400D01*
X12308600Y-3947400D02*
X12278600Y-3977400D01*
X12278600Y-3947400D02*
X12308600Y-3977400D01*
X12308600Y-3947400D02*
X12278600Y-3977400D01*
X12278600Y-4099800D02*
X12308600Y-4129800D01*
X12308600Y-4099800D02*
X12278600Y-4129800D01*
X12278600Y-4099800D02*
X12308600Y-4129800D01*
X12308600Y-4099800D02*
X12278600Y-4129800D01*
X12278600Y-7300200D02*
X12308600Y-7330200D01*
X12308600Y-7300200D02*
X12278600Y-7330200D01*
X12329400Y-8417800D02*
X12359400Y-8447800D01*
X12359400Y-8417800D02*
X12329400Y-8447800D01*
X12389484Y-6293484D02*
X12419484Y-6323484D01*
X12419484Y-6293484D02*
X12389484Y-6323484D01*
X12481193Y-5673993D02*
X12511193Y-5703993D01*
X12511193Y-5673993D02*
X12481193Y-5703993D01*
X12487584Y-6284200D02*
X12517584Y-6314200D01*
X12517584Y-6284200D02*
X12487584Y-6314200D01*
X12532600Y-5725400D02*
X12562600Y-5755400D01*
X12562600Y-5725400D02*
X12532600Y-5755400D01*
X12532600Y-6741400D02*
X12562600Y-6771400D01*
X12562600Y-6741400D02*
X12532600Y-6771400D01*
X12532600Y-7300200D02*
X12562600Y-7330200D01*
X12562600Y-7300200D02*
X12532600Y-7330200D01*
X12583400Y-6182600D02*
X12613400Y-6212600D01*
X12613400Y-6182600D02*
X12583400Y-6212600D01*
X12634200Y-6639800D02*
X12664200Y-6669800D01*
X12664200Y-6639800D02*
X12634200Y-6669800D01*
X12685000Y-3388600D02*
X12715000Y-3418600D01*
X12715000Y-3388600D02*
X12685000Y-3418600D01*
X12685000Y-3947400D02*
X12715000Y-3977400D01*
X12715000Y-3947400D02*
X12685000Y-3977400D01*
X12685000Y-4099800D02*
X12715000Y-4129800D01*
X12715000Y-4099800D02*
X12685000Y-4129800D01*
X12685000Y-6182600D02*
X12715000Y-6212600D01*
X12715000Y-6182600D02*
X12685000Y-6212600D01*
X12735800Y-8417800D02*
X12765800Y-8447800D01*
X12765800Y-8417800D02*
X12735800Y-8447800D01*
X12786600Y-9027400D02*
X12816600Y-9057400D01*
X12816600Y-9027400D02*
X12786600Y-9057400D01*
X12786600Y-9179800D02*
X12816600Y-9209800D01*
X12816600Y-9179800D02*
X12786600Y-9209800D01*
X12837400Y-8519400D02*
X12867400Y-8549400D01*
X12867400Y-8519400D02*
X12837400Y-8549400D01*
X12888200Y-4607800D02*
X12918200Y-4637800D01*
X12918200Y-4607800D02*
X12888200Y-4637800D01*
X12900600Y-3096200D02*
X12930600Y-3126200D01*
X12930600Y-3096200D02*
X12900600Y-3126200D01*
X12989800Y-4336550D02*
X13019800Y-4366550D01*
X13019800Y-4336550D02*
X12989800Y-4366550D01*
X12989800Y-4861800D02*
X13019800Y-4891800D01*
X13019800Y-4861800D02*
X12989800Y-4891800D01*
X13040600Y-4455400D02*
X13070600Y-4485400D01*
X13070600Y-4455400D02*
X13040600Y-4485400D01*
X13040600Y-9281400D02*
X13070600Y-9311400D01*
X13070600Y-9281400D02*
X13040600Y-9311400D01*
X13142200Y-5115800D02*
X13172200Y-5145800D01*
X13172200Y-5115800D02*
X13142200Y-5145800D01*
X13142200Y-6487400D02*
X13172200Y-6517400D01*
X13172200Y-6487400D02*
X13142200Y-6517400D01*
X13142200Y-9637000D02*
X13172200Y-9667000D01*
X13172200Y-9637000D02*
X13142200Y-9667000D01*
X13193000Y-4303000D02*
X13223000Y-4333000D01*
X13223000Y-4303000D02*
X13193000Y-4333000D01*
X13193000Y-5014200D02*
X13223000Y-5044200D01*
X13223000Y-5014200D02*
X13193000Y-5044200D01*
X13193000Y-6589000D02*
X13223000Y-6619000D01*
X13223000Y-6589000D02*
X13193000Y-6619000D01*
X13193000Y-6589000D02*
X13223000Y-6619000D01*
X13223000Y-6589000D02*
X13193000Y-6619000D01*
X13243800Y-6233400D02*
X13273800Y-6263400D01*
X13273800Y-6233400D02*
X13243800Y-6263400D01*
X13294600Y-5522200D02*
X13324600Y-5552200D01*
X13324600Y-5522200D02*
X13294600Y-5552200D01*
X13294600Y-6538200D02*
X13324600Y-6568200D01*
X13324600Y-6538200D02*
X13294600Y-6568200D01*
X13294600Y-6741400D02*
X13324600Y-6771400D01*
X13324600Y-6741400D02*
X13294600Y-6771400D01*
X13345400Y-4404600D02*
X13375400Y-4434600D01*
X13375400Y-4404600D02*
X13345400Y-4434600D01*
X13345400Y-6639800D02*
X13375400Y-6669800D01*
X13375400Y-6639800D02*
X13345400Y-6669800D01*
X13396200Y-4557000D02*
X13426200Y-4587000D01*
X13426200Y-4557000D02*
X13396200Y-4587000D01*
X13396200Y-4709400D02*
X13426200Y-4739400D01*
X13426200Y-4709400D02*
X13396200Y-4739400D01*
X13396200Y-4912600D02*
X13426200Y-4942600D01*
X13426200Y-4912600D02*
X13396200Y-4942600D01*
X13447000Y-6131800D02*
X13477000Y-6161800D01*
X13477000Y-6131800D02*
X13447000Y-6161800D01*
X13447000Y-6690600D02*
X13477000Y-6720600D01*
X13477000Y-6690600D02*
X13447000Y-6720600D01*
X13497800Y-5065000D02*
X13527800Y-5095000D01*
X13527800Y-5065000D02*
X13497800Y-5095000D01*
X13548600Y-7605000D02*
X13578600Y-7635000D01*
X13578600Y-7605000D02*
X13548600Y-7635000D01*
X13560763Y-7111929D02*
X13590763Y-7141929D01*
X13590763Y-7111929D02*
X13560763Y-7141929D01*
X13802600Y-5725400D02*
X13832600Y-5755400D01*
X13832600Y-5725400D02*
X13802600Y-5755400D01*
X13853400Y-14259800D02*
X13883400Y-14289800D01*
X13883400Y-14259800D02*
X13853400Y-14289800D01*
X14005800Y-5928600D02*
X14035800Y-5958600D01*
X14035800Y-5928600D02*
X14005800Y-5958600D01*
X14158200Y-10805400D02*
X14188200Y-10835400D01*
X14188200Y-10805400D02*
X14158200Y-10835400D01*
X14209000Y-5979400D02*
X14239000Y-6009400D01*
X14239000Y-5979400D02*
X14209000Y-6009400D01*
X14209000Y-5979400D02*
X14239000Y-6009400D01*
X14239000Y-5979400D02*
X14209000Y-6009400D01*
X14310600Y-5928600D02*
X14340600Y-5958600D01*
X14340600Y-5928600D02*
X14310600Y-5958600D01*
X14310600Y-5928600D02*
X14340600Y-5958600D01*
X14340600Y-5928600D02*
X14310600Y-5958600D01*
X14310600Y-6081000D02*
X14340600Y-6111000D01*
X14340600Y-6081000D02*
X14310600Y-6111000D01*
X14310600Y-6081000D02*
X14340600Y-6111000D01*
X14340600Y-6081000D02*
X14310600Y-6111000D01*
X14412200Y-6538200D02*
X14442200Y-6568200D01*
X14442200Y-6538200D02*
X14412200Y-6568200D01*
X14555316Y-6935316D02*
X14585316Y-6965316D01*
X14585316Y-6935316D02*
X14555316Y-6965316D01*
X14564600Y-9179800D02*
X14594600Y-9209800D01*
X14594600Y-9179800D02*
X14564600Y-9209800D01*
X14675484Y-6801484D02*
X14705484Y-6831484D01*
X14705484Y-6801484D02*
X14675484Y-6831484D01*
X14758516Y-6579716D02*
X14788516Y-6609716D01*
X14788516Y-6579716D02*
X14758516Y-6609716D01*
X14869400Y-6538200D02*
X14899400Y-6568200D01*
X14899400Y-6538200D02*
X14869400Y-6568200D01*
X14920200Y-10754600D02*
X14950200Y-10784600D01*
X14950200Y-10754600D02*
X14920200Y-10784600D01*
X15326600Y-7909800D02*
X15356600Y-7939800D01*
X15356600Y-7909800D02*
X15326600Y-7939800D01*
X15428200Y-2423400D02*
X15458200Y-2453400D01*
X15458200Y-2423400D02*
X15428200Y-2453400D01*
X15428200Y-11211800D02*
X15458200Y-11241800D01*
X15458200Y-11211800D02*
X15428200Y-11241800D01*
X15428200Y-11669000D02*
X15458200Y-11699000D01*
X15458200Y-11669000D02*
X15428200Y-11699000D01*
X15631400Y-10145000D02*
X15661400Y-10175000D01*
X15661400Y-10145000D02*
X15631400Y-10175000D01*
X15834600Y-4049000D02*
X15864600Y-4079000D01*
X15864600Y-4049000D02*
X15834600Y-4079000D01*
X15834600Y-8722600D02*
X15864600Y-8752600D01*
X15864600Y-8722600D02*
X15834600Y-8752600D01*
X16393400Y-8824200D02*
X16423400Y-8854200D01*
X16423400Y-8824200D02*
X16393400Y-8854200D01*
X17155400Y-5674600D02*
X17185400Y-5704600D01*
X17185400Y-5674600D02*
X17155400Y-5704600D01*
X17409400Y-4049000D02*
X17439400Y-4079000D01*
X17439400Y-4049000D02*
X17409400Y-4079000D01*
X17511000Y-2423400D02*
X17541000Y-2453400D01*
X17541000Y-2423400D02*
X17511000Y-2453400D01*
X17815800Y-14310600D02*
X17845800Y-14340600D01*
X17845800Y-14310600D02*
X17815800Y-14340600D01*
X19187400Y-2525000D02*
X19217400Y-2555000D01*
X19217400Y-2525000D02*
X19187400Y-2555000D01*
X19238200Y-8011400D02*
X19268200Y-8041400D01*
X19268200Y-8011400D02*
X19238200Y-8041400D01*
X20254200Y-13294600D02*
X20284200Y-13324600D01*
X20284200Y-13294600D02*
X20254200Y-13324600D01*
X21473400Y-4353800D02*
X21503400Y-4383800D01*
X21503400Y-4353800D02*
X21473400Y-4383800D01*
X21879800Y-6436600D02*
X21909800Y-6466600D01*
X21909800Y-6436600D02*
X21879800Y-6466600D01*
X21879800Y-9281400D02*
X21909800Y-9311400D01*
X21909800Y-9281400D02*
X21879800Y-9311400D01*
X21879800Y-12431000D02*
X21909800Y-12461000D01*
X21909800Y-12431000D02*
X21879800Y-12461000D01*
X12342600Y-2914000D02*
G75*
G03*
X12272600Y-2914000I-35000J0D01*
G01*
X12272600Y-2914000D02*
G75*
G03*
X12342600Y-2914000I35000J0D01*
G01*
X12422600Y-2794000D02*
G75*
G03*
X12352600Y-2794000I-35000J0D01*
G01*
X12352600Y-2794000D02*
G75*
G03*
X12422600Y-2794000I35000J0D01*
G01*
X12502600Y-2914000D02*
G75*
G03*
X12432600Y-2914000I-35000J0D01*
G01*
X12432600Y-2914000D02*
G75*
G03*
X12502600Y-2914000I35000J0D01*
G01*
X12582600Y-2794000D02*
G75*
G03*
X12512600Y-2794000I-35000J0D01*
G01*
X12512600Y-2794000D02*
G75*
G03*
X12582600Y-2794000I35000J0D01*
G01*
X12662600Y-2914000D02*
G75*
G03*
X12592600Y-2914000I-35000J0D01*
G01*
X12592600Y-2914000D02*
G75*
G03*
X12662600Y-2914000I35000J0D01*
G01*
X14601900Y-5842000D02*
G75*
G03*
X14531900Y-5842000I-35000J0D01*
G01*
X14531900Y-5842000D02*
G75*
G03*
X14601900Y-5842000I35000J0D01*
G01*
X14601900Y-5969000D02*
G75*
G03*
X14531900Y-5969000I-35000J0D01*
G01*
X14531900Y-5969000D02*
G75*
G03*
X14601900Y-5969000I35000J0D01*
G01*
X14601900Y-6096000D02*
G75*
G03*
X14531900Y-6096000I-35000J0D01*
G01*
X14531900Y-6096000D02*
G75*
G03*
X14601900Y-6096000I35000J0D01*
G01*
X14601900Y-6223000D02*
G75*
G03*
X14531900Y-6223000I-35000J0D01*
G01*
X14531900Y-6223000D02*
G75*
G03*
X14601900Y-6223000I35000J0D01*
G01*
X14601900Y-6350000D02*
G75*
G03*
X14531900Y-6350000I-35000J0D01*
G01*
X14531900Y-6350000D02*
G75*
G03*
X14601900Y-6350000I35000J0D01*
G01*
X14728900Y-5842000D02*
G75*
G03*
X14658900Y-5842000I-35000J0D01*
G01*
X14658900Y-5842000D02*
G75*
G03*
X14728900Y-5842000I35000J0D01*
G01*
X14728900Y-5969000D02*
G75*
G03*
X14658900Y-5969000I-35000J0D01*
G01*
X14658900Y-5969000D02*
G75*
G03*
X14728900Y-5969000I35000J0D01*
G01*
X14728900Y-6096000D02*
G75*
G03*
X14658900Y-6096000I-35000J0D01*
G01*
X14658900Y-6096000D02*
G75*
G03*
X14728900Y-6096000I35000J0D01*
G01*
X14728900Y-6223000D02*
G75*
G03*
X14658900Y-6223000I-35000J0D01*
G01*
X14658900Y-6223000D02*
G75*
G03*
X14728900Y-6223000I35000J0D01*
G01*
X14728900Y-6350000D02*
G75*
G03*
X14658900Y-6350000I-35000J0D01*
G01*
X14658900Y-6350000D02*
G75*
G03*
X14728900Y-6350000I35000J0D01*
G01*
D12*
X10215600Y-3205100D02*
X10215600Y-3310100D01*
X10163100Y-3257600D02*
X10268100Y-3257600D01*
X10215600Y-4005100D02*
X10215600Y-4110100D01*
X10163100Y-4057600D02*
X10268100Y-4057600D01*
X10815600Y-3205100D02*
X10815600Y-3310100D01*
X10763100Y-3257600D02*
X10868100Y-3257600D01*
X10815600Y-4005100D02*
X10815600Y-4110100D01*
X10763100Y-4057600D02*
X10868100Y-4057600D01*
D13*
X8014491Y-4966491D02*
X8014491Y-4888709D01*
X7936709Y-4888709D01*
X7936709Y-4966491D01*
X8014491Y-4966491D01*
X8014491Y-5220491D02*
X8014491Y-5142709D01*
X7936709Y-5142709D01*
X7936709Y-5220491D01*
X8014491Y-5220491D01*
X8014491Y-5474491D02*
X8014491Y-5396709D01*
X7936709Y-5396709D01*
X7936709Y-5474491D01*
X8014491Y-5474491D01*
X8014491Y-5728491D02*
X8014491Y-5650709D01*
X7936709Y-5650709D01*
X7936709Y-5728491D01*
X8014491Y-5728491D01*
X8014491Y-5982491D02*
X8014491Y-5904709D01*
X7936709Y-5904709D01*
X7936709Y-5982491D01*
X8014491Y-5982491D01*
X8014491Y-6236491D02*
X8014491Y-6158709D01*
X7936709Y-6158709D01*
X7936709Y-6236491D01*
X8014491Y-6236491D01*
X8014491Y-6490491D02*
X8014491Y-6412709D01*
X7936709Y-6412709D01*
X7936709Y-6490491D01*
X8014491Y-6490491D01*
X8014491Y-6744491D02*
X8014491Y-6666709D01*
X7936709Y-6666709D01*
X7936709Y-6744491D01*
X8014491Y-6744491D01*
X8014491Y-6998491D02*
X8014491Y-6920709D01*
X7936709Y-6920709D01*
X7936709Y-6998491D01*
X8014491Y-6998491D01*
X8014491Y-7252491D02*
X8014491Y-7174709D01*
X7936709Y-7174709D01*
X7936709Y-7252491D01*
X8014491Y-7252491D01*
X8268491Y-4966491D02*
X8268491Y-4888709D01*
X8190709Y-4888709D01*
X8190709Y-4966491D01*
X8268491Y-4966491D01*
X8268491Y-5220491D02*
X8268491Y-5142709D01*
X8190709Y-5142709D01*
X8190709Y-5220491D01*
X8268491Y-5220491D01*
X8268491Y-5474491D02*
X8268491Y-5396709D01*
X8190709Y-5396709D01*
X8190709Y-5474491D01*
X8268491Y-5474491D01*
X8268491Y-5728491D02*
X8268491Y-5650709D01*
X8190709Y-5650709D01*
X8190709Y-5728491D01*
X8268491Y-5728491D01*
X8268491Y-5982491D02*
X8268491Y-5904709D01*
X8190709Y-5904709D01*
X8190709Y-5982491D01*
X8268491Y-5982491D01*
X8268491Y-6236491D02*
X8268491Y-6158709D01*
X8190709Y-6158709D01*
X8190709Y-6236491D01*
X8268491Y-6236491D01*
X8268491Y-6490491D02*
X8268491Y-6412709D01*
X8190709Y-6412709D01*
X8190709Y-6490491D01*
X8268491Y-6490491D01*
X8268491Y-6744491D02*
X8268491Y-6666709D01*
X8190709Y-6666709D01*
X8190709Y-6744491D01*
X8268491Y-6744491D01*
X8268491Y-6998491D02*
X8268491Y-6920709D01*
X8190709Y-6920709D01*
X8190709Y-6998491D01*
X8268491Y-6998491D01*
X8268491Y-7252491D02*
X8268491Y-7174709D01*
X8190709Y-7174709D01*
X8190709Y-7252491D01*
X8268491Y-7252491D01*
D14*
X6246000Y-11560000D02*
X6306000Y-11500000D01*
X6246000Y-11440000D01*
X6186000Y-11500000D01*
X6246000Y-11560000D01*
X6246000Y-12068000D02*
X6306000Y-12008000D01*
X6246000Y-11948000D01*
X6186000Y-12008000D01*
X6246000Y-12068000D01*
X6500000Y-11560000D02*
X6560000Y-11500000D01*
X6500000Y-11440000D01*
X6440000Y-11500000D01*
X6500000Y-11560000D01*
X6500000Y-12068000D02*
X6560000Y-12008000D01*
X6500000Y-11948000D01*
X6440000Y-12008000D01*
X6500000Y-12068000D01*
X6881000Y-11306000D02*
X6941000Y-11246000D01*
X6881000Y-11186000D01*
X6821000Y-11246000D01*
X6881000Y-11306000D01*
X6881000Y-11814000D02*
X6941000Y-11754000D01*
X6881000Y-11694000D01*
X6821000Y-11754000D01*
X6881000Y-11814000D01*
X6881000Y-12322000D02*
X6941000Y-12262000D01*
X6881000Y-12202000D01*
X6821000Y-12262000D01*
X6881000Y-12322000D01*
X9500000Y-11552000D02*
X9560000Y-11492000D01*
X9500000Y-11432000D01*
X9440000Y-11492000D01*
X9500000Y-11552000D01*
X9500000Y-12060000D02*
X9560000Y-12000000D01*
X9500000Y-11940000D01*
X9440000Y-12000000D01*
X9500000Y-12060000D01*
X9754000Y-11552000D02*
X9814000Y-11492000D01*
X9754000Y-11432000D01*
X9694000Y-11492000D01*
X9754000Y-11552000D01*
X9754000Y-12060000D02*
X9814000Y-12000000D01*
X9754000Y-11940000D01*
X9694000Y-12000000D01*
X9754000Y-12060000D01*
X10135000Y-11298000D02*
X10195000Y-11238000D01*
X10135000Y-11178000D01*
X10075000Y-11238000D01*
X10135000Y-11298000D01*
X10135000Y-11806000D02*
X10195000Y-11746000D01*
X10135000Y-11686000D01*
X10075000Y-11746000D01*
X10135000Y-11806000D01*
X10135000Y-12314000D02*
X10195000Y-12254000D01*
X10135000Y-12194000D01*
X10075000Y-12254000D01*
X10135000Y-12314000D01*
X15746000Y-11552000D02*
X15806000Y-11492000D01*
X15746000Y-11432000D01*
X15686000Y-11492000D01*
X15746000Y-11552000D01*
X15746000Y-12060000D02*
X15806000Y-12000000D01*
X15746000Y-11940000D01*
X15686000Y-12000000D01*
X15746000Y-12060000D01*
X16000000Y-11552000D02*
X16060000Y-11492000D01*
X16000000Y-11432000D01*
X15940000Y-11492000D01*
X16000000Y-11552000D01*
X16000000Y-12060000D02*
X16060000Y-12000000D01*
X16000000Y-11940000D01*
X15940000Y-12000000D01*
X16000000Y-12060000D01*
X16381000Y-11298000D02*
X16441000Y-11238000D01*
X16381000Y-11178000D01*
X16321000Y-11238000D01*
X16381000Y-11298000D01*
X16381000Y-11806000D02*
X16441000Y-11746000D01*
X16381000Y-11686000D01*
X16321000Y-11746000D01*
X16381000Y-11806000D01*
X16381000Y-12314000D02*
X16441000Y-12254000D01*
X16381000Y-12194000D01*
X16321000Y-12254000D01*
X16381000Y-12314000D01*
X18500000Y-11560000D02*
X18560000Y-11500000D01*
X18500000Y-11440000D01*
X18440000Y-11500000D01*
X18500000Y-11560000D01*
X18500000Y-12068000D02*
X18560000Y-12008000D01*
X18500000Y-11948000D01*
X18440000Y-12008000D01*
X18500000Y-12068000D01*
X18754000Y-11560000D02*
X18814000Y-11500000D01*
X18754000Y-11440000D01*
X18694000Y-11500000D01*
X18754000Y-11560000D01*
X18754000Y-12068000D02*
X18814000Y-12008000D01*
X18754000Y-11948000D01*
X18694000Y-12008000D01*
X18754000Y-12068000D01*
X19135000Y-11306000D02*
X19195000Y-11246000D01*
X19135000Y-11186000D01*
X19075000Y-11246000D01*
X19135000Y-11306000D01*
X19135000Y-11814000D02*
X19195000Y-11754000D01*
X19135000Y-11694000D01*
X19075000Y-11754000D01*
X19135000Y-11814000D01*
X19135000Y-12322000D02*
X19195000Y-12262000D01*
X19135000Y-12202000D01*
X19075000Y-12262000D01*
X19135000Y-12322000D01*
D15*
X12001357Y-2307758D02*
X12203842Y-2510243D01*
X12203842Y-2307758D02*
X12001357Y-2510243D01*
X12203842Y-2409000D02*
G75*
G03*
X12001357Y-2409000I-101243J0D01*
G01*
X12001357Y-2409000D02*
G75*
G03*
X12203842Y-2409000I101243J0D01*
G01*
X12731357Y-2307758D02*
X12933842Y-2510243D01*
X12933842Y-2307758D02*
X12731357Y-2510243D01*
X12933842Y-2409000D02*
G75*
G03*
X12731357Y-2409000I-101243J0D01*
G01*
X12731357Y-2409000D02*
G75*
G03*
X12933842Y-2409000I101243J0D01*
G01*
D16*
X4016400Y-3102000D02*
X4416400Y-3502000D01*
X4416400Y-3102000D02*
X4016400Y-3502000D01*
X4216400Y-3102000D02*
X4216400Y-3502000D01*
X4016400Y-3302000D02*
X4416400Y-3302000D01*
X4016400Y-13973200D02*
X4416400Y-14373200D01*
X4416400Y-13973200D02*
X4016400Y-14373200D01*
X4216400Y-13973200D02*
X4216400Y-14373200D01*
X4016400Y-14173200D02*
X4416400Y-14173200D01*
X20372688Y-3114903D02*
X20772688Y-3514903D01*
X20772688Y-3114903D02*
X20372688Y-3514903D01*
X20572688Y-3114903D02*
X20572688Y-3514903D01*
X20372688Y-3314903D02*
X20772688Y-3314903D01*
X20372688Y-13986103D02*
X20772688Y-14386103D01*
X20772688Y-13986103D02*
X20372688Y-14386103D01*
X20572688Y-13986103D02*
X20572688Y-14386103D01*
X20372688Y-14186103D02*
X20772688Y-14186103D01*
D11*
X2255777Y-15316484D02*
X2255777Y-15116484D01*
X2255777Y-15116484D02*
X2303396Y-15116484D01*
X2303396Y-15116484D02*
X2331967Y-15126008D01*
X2331967Y-15126008D02*
X2351015Y-15145055D01*
X2351015Y-15145055D02*
X2360539Y-15164103D01*
X2360539Y-15164103D02*
X2370063Y-15202198D01*
X2370063Y-15202198D02*
X2370063Y-15230769D01*
X2370063Y-15230769D02*
X2360539Y-15268865D01*
X2360539Y-15268865D02*
X2351015Y-15287912D01*
X2351015Y-15287912D02*
X2331967Y-15306960D01*
X2331967Y-15306960D02*
X2303396Y-15316484D01*
X2303396Y-15316484D02*
X2255777Y-15316484D01*
X2455777Y-15316484D02*
X2455777Y-15183150D01*
X2455777Y-15221246D02*
X2465301Y-15202198D01*
X2465301Y-15202198D02*
X2474824Y-15192674D01*
X2474824Y-15192674D02*
X2493872Y-15183150D01*
X2493872Y-15183150D02*
X2512920Y-15183150D01*
X2579586Y-15316484D02*
X2579586Y-15183150D01*
X2579586Y-15116484D02*
X2570063Y-15126008D01*
X2570063Y-15126008D02*
X2579586Y-15135531D01*
X2579586Y-15135531D02*
X2589110Y-15126008D01*
X2589110Y-15126008D02*
X2579586Y-15116484D01*
X2579586Y-15116484D02*
X2579586Y-15135531D01*
X2703396Y-15316484D02*
X2684348Y-15306960D01*
X2684348Y-15306960D02*
X2674824Y-15287912D01*
X2674824Y-15287912D02*
X2674824Y-15116484D01*
X2808158Y-15316484D02*
X2789110Y-15306960D01*
X2789110Y-15306960D02*
X2779586Y-15287912D01*
X2779586Y-15287912D02*
X2779586Y-15116484D01*
X3036729Y-15316484D02*
X3036729Y-15116484D01*
X3036729Y-15116484D02*
X3103396Y-15259341D01*
X3103396Y-15259341D02*
X3170062Y-15116484D01*
X3170062Y-15116484D02*
X3170062Y-15316484D01*
X3351015Y-15316484D02*
X3351015Y-15211722D01*
X3351015Y-15211722D02*
X3341491Y-15192674D01*
X3341491Y-15192674D02*
X3322443Y-15183150D01*
X3322443Y-15183150D02*
X3284348Y-15183150D01*
X3284348Y-15183150D02*
X3265301Y-15192674D01*
X3351015Y-15306960D02*
X3331967Y-15316484D01*
X3331967Y-15316484D02*
X3284348Y-15316484D01*
X3284348Y-15316484D02*
X3265301Y-15306960D01*
X3265301Y-15306960D02*
X3255777Y-15287912D01*
X3255777Y-15287912D02*
X3255777Y-15268865D01*
X3255777Y-15268865D02*
X3265301Y-15249817D01*
X3265301Y-15249817D02*
X3284348Y-15240293D01*
X3284348Y-15240293D02*
X3331967Y-15240293D01*
X3331967Y-15240293D02*
X3351015Y-15230769D01*
X3446253Y-15183150D02*
X3446253Y-15383150D01*
X3446253Y-15192674D02*
X3465301Y-15183150D01*
X3465301Y-15183150D02*
X3503396Y-15183150D01*
X3503396Y-15183150D02*
X3522443Y-15192674D01*
X3522443Y-15192674D02*
X3531967Y-15202198D01*
X3531967Y-15202198D02*
X3541491Y-15221246D01*
X3541491Y-15221246D02*
X3541491Y-15278388D01*
X3541491Y-15278388D02*
X3531967Y-15297436D01*
X3531967Y-15297436D02*
X3522443Y-15306960D01*
X3522443Y-15306960D02*
X3503396Y-15316484D01*
X3503396Y-15316484D02*
X3465301Y-15316484D01*
X3465301Y-15316484D02*
X3446253Y-15306960D01*
X3627205Y-15297436D02*
X3636729Y-15306960D01*
X3636729Y-15306960D02*
X3627205Y-15316484D01*
X3627205Y-15316484D02*
X3617682Y-15306960D01*
X3617682Y-15306960D02*
X3627205Y-15297436D01*
X3627205Y-15297436D02*
X3627205Y-15316484D01*
X3627205Y-15192674D02*
X3636729Y-15202198D01*
X3636729Y-15202198D02*
X3627205Y-15211722D01*
X3627205Y-15211722D02*
X3617682Y-15202198D01*
X3617682Y-15202198D02*
X3627205Y-15192674D01*
X3627205Y-15192674D02*
X3627205Y-15211722D01*
D10*
X1965000Y-15630000D02*
X1995000Y-15660000D01*
X1995000Y-15630000D02*
X1965000Y-15660000D01*
D11*
X2293872Y-15536484D02*
X2312920Y-15536484D01*
X2312920Y-15536484D02*
X2331967Y-15546008D01*
X2331967Y-15546008D02*
X2341491Y-15555531D01*
X2341491Y-15555531D02*
X2351015Y-15574579D01*
X2351015Y-15574579D02*
X2360539Y-15612674D01*
X2360539Y-15612674D02*
X2360539Y-15660293D01*
X2360539Y-15660293D02*
X2351015Y-15698388D01*
X2351015Y-15698388D02*
X2341491Y-15717436D01*
X2341491Y-15717436D02*
X2331967Y-15726960D01*
X2331967Y-15726960D02*
X2312920Y-15736484D01*
X2312920Y-15736484D02*
X2293872Y-15736484D01*
X2293872Y-15736484D02*
X2274824Y-15726960D01*
X2274824Y-15726960D02*
X2265301Y-15717436D01*
X2265301Y-15717436D02*
X2255777Y-15698388D01*
X2255777Y-15698388D02*
X2246253Y-15660293D01*
X2246253Y-15660293D02*
X2246253Y-15612674D01*
X2246253Y-15612674D02*
X2255777Y-15574579D01*
X2255777Y-15574579D02*
X2265301Y-15555531D01*
X2265301Y-15555531D02*
X2274824Y-15546008D01*
X2274824Y-15546008D02*
X2293872Y-15536484D01*
X2446253Y-15717436D02*
X2455777Y-15726960D01*
X2455777Y-15726960D02*
X2446253Y-15736484D01*
X2446253Y-15736484D02*
X2436729Y-15726960D01*
X2436729Y-15726960D02*
X2446253Y-15717436D01*
X2446253Y-15717436D02*
X2446253Y-15736484D01*
X2522444Y-15536484D02*
X2646253Y-15536484D01*
X2646253Y-15536484D02*
X2579586Y-15612674D01*
X2579586Y-15612674D02*
X2608158Y-15612674D01*
X2608158Y-15612674D02*
X2627205Y-15622198D01*
X2627205Y-15622198D02*
X2636729Y-15631722D01*
X2636729Y-15631722D02*
X2646253Y-15650769D01*
X2646253Y-15650769D02*
X2646253Y-15698388D01*
X2646253Y-15698388D02*
X2636729Y-15717436D01*
X2636729Y-15717436D02*
X2627205Y-15726960D01*
X2627205Y-15726960D02*
X2608158Y-15736484D01*
X2608158Y-15736484D02*
X2551015Y-15736484D01*
X2551015Y-15736484D02*
X2531967Y-15726960D01*
X2531967Y-15726960D02*
X2522444Y-15717436D01*
X2770063Y-15536484D02*
X2789110Y-15536484D01*
X2789110Y-15536484D02*
X2808158Y-15546008D01*
X2808158Y-15546008D02*
X2817682Y-15555531D01*
X2817682Y-15555531D02*
X2827205Y-15574579D01*
X2827205Y-15574579D02*
X2836729Y-15612674D01*
X2836729Y-15612674D02*
X2836729Y-15660293D01*
X2836729Y-15660293D02*
X2827205Y-15698388D01*
X2827205Y-15698388D02*
X2817682Y-15717436D01*
X2817682Y-15717436D02*
X2808158Y-15726960D01*
X2808158Y-15726960D02*
X2789110Y-15736484D01*
X2789110Y-15736484D02*
X2770063Y-15736484D01*
X2770063Y-15736484D02*
X2751015Y-15726960D01*
X2751015Y-15726960D02*
X2741491Y-15717436D01*
X2741491Y-15717436D02*
X2731967Y-15698388D01*
X2731967Y-15698388D02*
X2722444Y-15660293D01*
X2722444Y-15660293D02*
X2722444Y-15612674D01*
X2722444Y-15612674D02*
X2731967Y-15574579D01*
X2731967Y-15574579D02*
X2741491Y-15555531D01*
X2741491Y-15555531D02*
X2751015Y-15546008D01*
X2751015Y-15546008D02*
X2770063Y-15536484D01*
X2960539Y-15536484D02*
X2979586Y-15536484D01*
X2979586Y-15536484D02*
X2998634Y-15546008D01*
X2998634Y-15546008D02*
X3008158Y-15555531D01*
X3008158Y-15555531D02*
X3017682Y-15574579D01*
X3017682Y-15574579D02*
X3027205Y-15612674D01*
X3027205Y-15612674D02*
X3027205Y-15660293D01*
X3027205Y-15660293D02*
X3017682Y-15698388D01*
X3017682Y-15698388D02*
X3008158Y-15717436D01*
X3008158Y-15717436D02*
X2998634Y-15726960D01*
X2998634Y-15726960D02*
X2979586Y-15736484D01*
X2979586Y-15736484D02*
X2960539Y-15736484D01*
X2960539Y-15736484D02*
X2941491Y-15726960D01*
X2941491Y-15726960D02*
X2931967Y-15717436D01*
X2931967Y-15717436D02*
X2922443Y-15698388D01*
X2922443Y-15698388D02*
X2912920Y-15660293D01*
X2912920Y-15660293D02*
X2912920Y-15612674D01*
X2912920Y-15612674D02*
X2922443Y-15574579D01*
X2922443Y-15574579D02*
X2931967Y-15555531D01*
X2931967Y-15555531D02*
X2941491Y-15546008D01*
X2941491Y-15546008D02*
X2960539Y-15536484D01*
X3112920Y-15736484D02*
X3112920Y-15603150D01*
X3112920Y-15622198D02*
X3122443Y-15612674D01*
X3122443Y-15612674D02*
X3141491Y-15603150D01*
X3141491Y-15603150D02*
X3170063Y-15603150D01*
X3170063Y-15603150D02*
X3189110Y-15612674D01*
X3189110Y-15612674D02*
X3198634Y-15631722D01*
X3198634Y-15631722D02*
X3198634Y-15736484D01*
X3198634Y-15631722D02*
X3208158Y-15612674D01*
X3208158Y-15612674D02*
X3227205Y-15603150D01*
X3227205Y-15603150D02*
X3255777Y-15603150D01*
X3255777Y-15603150D02*
X3274824Y-15612674D01*
X3274824Y-15612674D02*
X3284348Y-15631722D01*
X3284348Y-15631722D02*
X3284348Y-15736484D01*
X3379586Y-15736484D02*
X3379586Y-15603150D01*
X3379586Y-15622198D02*
X3389110Y-15612674D01*
X3389110Y-15612674D02*
X3408158Y-15603150D01*
X3408158Y-15603150D02*
X3436729Y-15603150D01*
X3436729Y-15603150D02*
X3455777Y-15612674D01*
X3455777Y-15612674D02*
X3465301Y-15631722D01*
X3465301Y-15631722D02*
X3465301Y-15736484D01*
X3465301Y-15631722D02*
X3474824Y-15612674D01*
X3474824Y-15612674D02*
X3493872Y-15603150D01*
X3493872Y-15603150D02*
X3522443Y-15603150D01*
X3522443Y-15603150D02*
X3541491Y-15612674D01*
X3541491Y-15612674D02*
X3551015Y-15631722D01*
X3551015Y-15631722D02*
X3551015Y-15736484D01*
X3941491Y-15526960D02*
X3770063Y-15784103D01*
X4198634Y-15536484D02*
X4217682Y-15536484D01*
X4217682Y-15536484D02*
X4236729Y-15546008D01*
X4236729Y-15546008D02*
X4246253Y-15555531D01*
X4246253Y-15555531D02*
X4255777Y-15574579D01*
X4255777Y-15574579D02*
X4265301Y-15612674D01*
X4265301Y-15612674D02*
X4265301Y-15660293D01*
X4265301Y-15660293D02*
X4255777Y-15698388D01*
X4255777Y-15698388D02*
X4246253Y-15717436D01*
X4246253Y-15717436D02*
X4236729Y-15726960D01*
X4236729Y-15726960D02*
X4217682Y-15736484D01*
X4217682Y-15736484D02*
X4198634Y-15736484D01*
X4198634Y-15736484D02*
X4179586Y-15726960D01*
X4179586Y-15726960D02*
X4170063Y-15717436D01*
X4170063Y-15717436D02*
X4160539Y-15698388D01*
X4160539Y-15698388D02*
X4151015Y-15660293D01*
X4151015Y-15660293D02*
X4151015Y-15612674D01*
X4151015Y-15612674D02*
X4160539Y-15574579D01*
X4160539Y-15574579D02*
X4170063Y-15555531D01*
X4170063Y-15555531D02*
X4179586Y-15546008D01*
X4179586Y-15546008D02*
X4198634Y-15536484D01*
X4351015Y-15717436D02*
X4360539Y-15726960D01*
X4360539Y-15726960D02*
X4351015Y-15736484D01*
X4351015Y-15736484D02*
X4341491Y-15726960D01*
X4341491Y-15726960D02*
X4351015Y-15717436D01*
X4351015Y-15717436D02*
X4351015Y-15736484D01*
X4484348Y-15536484D02*
X4503396Y-15536484D01*
X4503396Y-15536484D02*
X4522444Y-15546008D01*
X4522444Y-15546008D02*
X4531968Y-15555531D01*
X4531968Y-15555531D02*
X4541491Y-15574579D01*
X4541491Y-15574579D02*
X4551015Y-15612674D01*
X4551015Y-15612674D02*
X4551015Y-15660293D01*
X4551015Y-15660293D02*
X4541491Y-15698388D01*
X4541491Y-15698388D02*
X4531968Y-15717436D01*
X4531968Y-15717436D02*
X4522444Y-15726960D01*
X4522444Y-15726960D02*
X4503396Y-15736484D01*
X4503396Y-15736484D02*
X4484348Y-15736484D01*
X4484348Y-15736484D02*
X4465301Y-15726960D01*
X4465301Y-15726960D02*
X4455777Y-15717436D01*
X4455777Y-15717436D02*
X4446253Y-15698388D01*
X4446253Y-15698388D02*
X4436729Y-15660293D01*
X4436729Y-15660293D02*
X4436729Y-15612674D01*
X4436729Y-15612674D02*
X4446253Y-15574579D01*
X4446253Y-15574579D02*
X4455777Y-15555531D01*
X4455777Y-15555531D02*
X4465301Y-15546008D01*
X4465301Y-15546008D02*
X4484348Y-15536484D01*
X4741491Y-15736484D02*
X4627206Y-15736484D01*
X4684348Y-15736484D02*
X4684348Y-15536484D01*
X4684348Y-15536484D02*
X4665301Y-15565055D01*
X4665301Y-15565055D02*
X4646253Y-15584103D01*
X4646253Y-15584103D02*
X4627206Y-15593627D01*
X4931968Y-15736484D02*
X4817682Y-15736484D01*
X4874825Y-15736484D02*
X4874825Y-15536484D01*
X4874825Y-15536484D02*
X4855777Y-15565055D01*
X4855777Y-15565055D02*
X4836729Y-15584103D01*
X4836729Y-15584103D02*
X4817682Y-15593627D01*
X5046253Y-15622198D02*
X5027206Y-15612674D01*
X5027206Y-15612674D02*
X5017682Y-15603150D01*
X5017682Y-15603150D02*
X5008158Y-15584103D01*
X5008158Y-15584103D02*
X5008158Y-15574579D01*
X5008158Y-15574579D02*
X5017682Y-15555531D01*
X5017682Y-15555531D02*
X5027206Y-15546008D01*
X5027206Y-15546008D02*
X5046253Y-15536484D01*
X5046253Y-15536484D02*
X5084349Y-15536484D01*
X5084349Y-15536484D02*
X5103396Y-15546008D01*
X5103396Y-15546008D02*
X5112920Y-15555531D01*
X5112920Y-15555531D02*
X5122444Y-15574579D01*
X5122444Y-15574579D02*
X5122444Y-15584103D01*
X5122444Y-15584103D02*
X5112920Y-15603150D01*
X5112920Y-15603150D02*
X5103396Y-15612674D01*
X5103396Y-15612674D02*
X5084349Y-15622198D01*
X5084349Y-15622198D02*
X5046253Y-15622198D01*
X5046253Y-15622198D02*
X5027206Y-15631722D01*
X5027206Y-15631722D02*
X5017682Y-15641246D01*
X5017682Y-15641246D02*
X5008158Y-15660293D01*
X5008158Y-15660293D02*
X5008158Y-15698388D01*
X5008158Y-15698388D02*
X5017682Y-15717436D01*
X5017682Y-15717436D02*
X5027206Y-15726960D01*
X5027206Y-15726960D02*
X5046253Y-15736484D01*
X5046253Y-15736484D02*
X5084349Y-15736484D01*
X5084349Y-15736484D02*
X5103396Y-15726960D01*
X5103396Y-15726960D02*
X5112920Y-15717436D01*
X5112920Y-15717436D02*
X5122444Y-15698388D01*
X5122444Y-15698388D02*
X5122444Y-15660293D01*
X5122444Y-15660293D02*
X5112920Y-15641246D01*
X5112920Y-15641246D02*
X5103396Y-15631722D01*
X5103396Y-15631722D02*
X5084349Y-15622198D01*
X5198634Y-15536484D02*
X5198634Y-15574579D01*
X5274825Y-15536484D02*
X5274825Y-15574579D01*
X5570063Y-15812674D02*
X5560539Y-15803150D01*
X5560539Y-15803150D02*
X5541491Y-15774579D01*
X5541491Y-15774579D02*
X5531968Y-15755531D01*
X5531968Y-15755531D02*
X5522444Y-15726960D01*
X5522444Y-15726960D02*
X5512920Y-15679341D01*
X5512920Y-15679341D02*
X5512920Y-15641246D01*
X5512920Y-15641246D02*
X5522444Y-15593627D01*
X5522444Y-15593627D02*
X5531968Y-15565055D01*
X5531968Y-15565055D02*
X5541491Y-15546008D01*
X5541491Y-15546008D02*
X5560539Y-15517436D01*
X5560539Y-15517436D02*
X5570063Y-15507912D01*
X5751015Y-15736484D02*
X5636729Y-15736484D01*
X5693872Y-15736484D02*
X5693872Y-15536484D01*
X5693872Y-15536484D02*
X5674825Y-15565055D01*
X5674825Y-15565055D02*
X5655777Y-15584103D01*
X5655777Y-15584103D02*
X5636729Y-15593627D01*
X5931968Y-15536484D02*
X5836729Y-15536484D01*
X5836729Y-15536484D02*
X5827206Y-15631722D01*
X5827206Y-15631722D02*
X5836729Y-15622198D01*
X5836729Y-15622198D02*
X5855777Y-15612674D01*
X5855777Y-15612674D02*
X5903396Y-15612674D01*
X5903396Y-15612674D02*
X5922444Y-15622198D01*
X5922444Y-15622198D02*
X5931968Y-15631722D01*
X5931968Y-15631722D02*
X5941491Y-15650769D01*
X5941491Y-15650769D02*
X5941491Y-15698388D01*
X5941491Y-15698388D02*
X5931968Y-15717436D01*
X5931968Y-15717436D02*
X5922444Y-15726960D01*
X5922444Y-15726960D02*
X5903396Y-15736484D01*
X5903396Y-15736484D02*
X5855777Y-15736484D01*
X5855777Y-15736484D02*
X5836729Y-15726960D01*
X5836729Y-15726960D02*
X5827206Y-15717436D01*
X6055777Y-15622198D02*
X6036729Y-15612674D01*
X6036729Y-15612674D02*
X6027206Y-15603150D01*
X6027206Y-15603150D02*
X6017682Y-15584103D01*
X6017682Y-15584103D02*
X6017682Y-15574579D01*
X6017682Y-15574579D02*
X6027206Y-15555531D01*
X6027206Y-15555531D02*
X6036729Y-15546008D01*
X6036729Y-15546008D02*
X6055777Y-15536484D01*
X6055777Y-15536484D02*
X6093872Y-15536484D01*
X6093872Y-15536484D02*
X6112920Y-15546008D01*
X6112920Y-15546008D02*
X6122444Y-15555531D01*
X6122444Y-15555531D02*
X6131968Y-15574579D01*
X6131968Y-15574579D02*
X6131968Y-15584103D01*
X6131968Y-15584103D02*
X6122444Y-15603150D01*
X6122444Y-15603150D02*
X6112920Y-15612674D01*
X6112920Y-15612674D02*
X6093872Y-15622198D01*
X6093872Y-15622198D02*
X6055777Y-15622198D01*
X6055777Y-15622198D02*
X6036729Y-15631722D01*
X6036729Y-15631722D02*
X6027206Y-15641246D01*
X6027206Y-15641246D02*
X6017682Y-15660293D01*
X6017682Y-15660293D02*
X6017682Y-15698388D01*
X6017682Y-15698388D02*
X6027206Y-15717436D01*
X6027206Y-15717436D02*
X6036729Y-15726960D01*
X6036729Y-15726960D02*
X6055777Y-15736484D01*
X6055777Y-15736484D02*
X6093872Y-15736484D01*
X6093872Y-15736484D02*
X6112920Y-15726960D01*
X6112920Y-15726960D02*
X6122444Y-15717436D01*
X6122444Y-15717436D02*
X6131968Y-15698388D01*
X6131968Y-15698388D02*
X6131968Y-15660293D01*
X6131968Y-15660293D02*
X6122444Y-15641246D01*
X6122444Y-15641246D02*
X6112920Y-15631722D01*
X6112920Y-15631722D02*
X6093872Y-15622198D01*
X6370063Y-15736484D02*
X6370063Y-15536484D01*
X6455777Y-15736484D02*
X6455777Y-15631722D01*
X6455777Y-15631722D02*
X6446253Y-15612674D01*
X6446253Y-15612674D02*
X6427206Y-15603150D01*
X6427206Y-15603150D02*
X6398634Y-15603150D01*
X6398634Y-15603150D02*
X6379587Y-15612674D01*
X6379587Y-15612674D02*
X6370063Y-15622198D01*
X6579587Y-15736484D02*
X6560539Y-15726960D01*
X6560539Y-15726960D02*
X6551015Y-15717436D01*
X6551015Y-15717436D02*
X6541491Y-15698388D01*
X6541491Y-15698388D02*
X6541491Y-15641246D01*
X6541491Y-15641246D02*
X6551015Y-15622198D01*
X6551015Y-15622198D02*
X6560539Y-15612674D01*
X6560539Y-15612674D02*
X6579587Y-15603150D01*
X6579587Y-15603150D02*
X6608158Y-15603150D01*
X6608158Y-15603150D02*
X6627206Y-15612674D01*
X6627206Y-15612674D02*
X6636730Y-15622198D01*
X6636730Y-15622198D02*
X6646253Y-15641246D01*
X6646253Y-15641246D02*
X6646253Y-15698388D01*
X6646253Y-15698388D02*
X6636730Y-15717436D01*
X6636730Y-15717436D02*
X6627206Y-15726960D01*
X6627206Y-15726960D02*
X6608158Y-15736484D01*
X6608158Y-15736484D02*
X6579587Y-15736484D01*
X6760539Y-15736484D02*
X6741491Y-15726960D01*
X6741491Y-15726960D02*
X6731968Y-15707912D01*
X6731968Y-15707912D02*
X6731968Y-15536484D01*
X6912920Y-15726960D02*
X6893872Y-15736484D01*
X6893872Y-15736484D02*
X6855777Y-15736484D01*
X6855777Y-15736484D02*
X6836730Y-15726960D01*
X6836730Y-15726960D02*
X6827206Y-15707912D01*
X6827206Y-15707912D02*
X6827206Y-15631722D01*
X6827206Y-15631722D02*
X6836730Y-15612674D01*
X6836730Y-15612674D02*
X6855777Y-15603150D01*
X6855777Y-15603150D02*
X6893872Y-15603150D01*
X6893872Y-15603150D02*
X6912920Y-15612674D01*
X6912920Y-15612674D02*
X6922444Y-15631722D01*
X6922444Y-15631722D02*
X6922444Y-15650769D01*
X6922444Y-15650769D02*
X6827206Y-15669817D01*
X6998634Y-15726960D02*
X7017682Y-15736484D01*
X7017682Y-15736484D02*
X7055777Y-15736484D01*
X7055777Y-15736484D02*
X7074825Y-15726960D01*
X7074825Y-15726960D02*
X7084349Y-15707912D01*
X7084349Y-15707912D02*
X7084349Y-15698388D01*
X7084349Y-15698388D02*
X7074825Y-15679341D01*
X7074825Y-15679341D02*
X7055777Y-15669817D01*
X7055777Y-15669817D02*
X7027206Y-15669817D01*
X7027206Y-15669817D02*
X7008158Y-15660293D01*
X7008158Y-15660293D02*
X6998634Y-15641246D01*
X6998634Y-15641246D02*
X6998634Y-15631722D01*
X6998634Y-15631722D02*
X7008158Y-15612674D01*
X7008158Y-15612674D02*
X7027206Y-15603150D01*
X7027206Y-15603150D02*
X7055777Y-15603150D01*
X7055777Y-15603150D02*
X7074825Y-15612674D01*
X7151015Y-15812674D02*
X7160539Y-15803150D01*
X7160539Y-15803150D02*
X7179587Y-15774579D01*
X7179587Y-15774579D02*
X7189111Y-15755531D01*
X7189111Y-15755531D02*
X7198634Y-15726960D01*
X7198634Y-15726960D02*
X7208158Y-15679341D01*
X7208158Y-15679341D02*
X7208158Y-15641246D01*
X7208158Y-15641246D02*
X7198634Y-15593627D01*
X7198634Y-15593627D02*
X7189111Y-15565055D01*
X7189111Y-15565055D02*
X7179587Y-15546008D01*
X7179587Y-15546008D02*
X7160539Y-15517436D01*
X7160539Y-15517436D02*
X7151015Y-15507912D01*
D10*
X1995000Y-15909000D02*
G75*
G03*
X1925000Y-15909000I-35000J0D01*
G01*
X1925000Y-15909000D02*
G75*
G03*
X1995000Y-15909000I35000J0D01*
G01*
D11*
X2293872Y-15800484D02*
X2312920Y-15800484D01*
X2312920Y-15800484D02*
X2331967Y-15810008D01*
X2331967Y-15810008D02*
X2341491Y-15819531D01*
X2341491Y-15819531D02*
X2351015Y-15838579D01*
X2351015Y-15838579D02*
X2360539Y-15876674D01*
X2360539Y-15876674D02*
X2360539Y-15924293D01*
X2360539Y-15924293D02*
X2351015Y-15962388D01*
X2351015Y-15962388D02*
X2341491Y-15981436D01*
X2341491Y-15981436D02*
X2331967Y-15990960D01*
X2331967Y-15990960D02*
X2312920Y-16000484D01*
X2312920Y-16000484D02*
X2293872Y-16000484D01*
X2293872Y-16000484D02*
X2274824Y-15990960D01*
X2274824Y-15990960D02*
X2265301Y-15981436D01*
X2265301Y-15981436D02*
X2255777Y-15962388D01*
X2255777Y-15962388D02*
X2246253Y-15924293D01*
X2246253Y-15924293D02*
X2246253Y-15876674D01*
X2246253Y-15876674D02*
X2255777Y-15838579D01*
X2255777Y-15838579D02*
X2265301Y-15819531D01*
X2265301Y-15819531D02*
X2274824Y-15810008D01*
X2274824Y-15810008D02*
X2293872Y-15800484D01*
X2446253Y-15981436D02*
X2455777Y-15990960D01*
X2455777Y-15990960D02*
X2446253Y-16000484D01*
X2446253Y-16000484D02*
X2436729Y-15990960D01*
X2436729Y-15990960D02*
X2446253Y-15981436D01*
X2446253Y-15981436D02*
X2446253Y-16000484D01*
X2522444Y-15800484D02*
X2655777Y-15800484D01*
X2655777Y-15800484D02*
X2570063Y-16000484D01*
X2770063Y-15800484D02*
X2789110Y-15800484D01*
X2789110Y-15800484D02*
X2808158Y-15810008D01*
X2808158Y-15810008D02*
X2817682Y-15819531D01*
X2817682Y-15819531D02*
X2827205Y-15838579D01*
X2827205Y-15838579D02*
X2836729Y-15876674D01*
X2836729Y-15876674D02*
X2836729Y-15924293D01*
X2836729Y-15924293D02*
X2827205Y-15962388D01*
X2827205Y-15962388D02*
X2817682Y-15981436D01*
X2817682Y-15981436D02*
X2808158Y-15990960D01*
X2808158Y-15990960D02*
X2789110Y-16000484D01*
X2789110Y-16000484D02*
X2770063Y-16000484D01*
X2770063Y-16000484D02*
X2751015Y-15990960D01*
X2751015Y-15990960D02*
X2741491Y-15981436D01*
X2741491Y-15981436D02*
X2731967Y-15962388D01*
X2731967Y-15962388D02*
X2722444Y-15924293D01*
X2722444Y-15924293D02*
X2722444Y-15876674D01*
X2722444Y-15876674D02*
X2731967Y-15838579D01*
X2731967Y-15838579D02*
X2741491Y-15819531D01*
X2741491Y-15819531D02*
X2751015Y-15810008D01*
X2751015Y-15810008D02*
X2770063Y-15800484D01*
X2960539Y-15800484D02*
X2979586Y-15800484D01*
X2979586Y-15800484D02*
X2998634Y-15810008D01*
X2998634Y-15810008D02*
X3008158Y-15819531D01*
X3008158Y-15819531D02*
X3017682Y-15838579D01*
X3017682Y-15838579D02*
X3027205Y-15876674D01*
X3027205Y-15876674D02*
X3027205Y-15924293D01*
X3027205Y-15924293D02*
X3017682Y-15962388D01*
X3017682Y-15962388D02*
X3008158Y-15981436D01*
X3008158Y-15981436D02*
X2998634Y-15990960D01*
X2998634Y-15990960D02*
X2979586Y-16000484D01*
X2979586Y-16000484D02*
X2960539Y-16000484D01*
X2960539Y-16000484D02*
X2941491Y-15990960D01*
X2941491Y-15990960D02*
X2931967Y-15981436D01*
X2931967Y-15981436D02*
X2922443Y-15962388D01*
X2922443Y-15962388D02*
X2912920Y-15924293D01*
X2912920Y-15924293D02*
X2912920Y-15876674D01*
X2912920Y-15876674D02*
X2922443Y-15838579D01*
X2922443Y-15838579D02*
X2931967Y-15819531D01*
X2931967Y-15819531D02*
X2941491Y-15810008D01*
X2941491Y-15810008D02*
X2960539Y-15800484D01*
X3112920Y-16000484D02*
X3112920Y-15867150D01*
X3112920Y-15886198D02*
X3122443Y-15876674D01*
X3122443Y-15876674D02*
X3141491Y-15867150D01*
X3141491Y-15867150D02*
X3170063Y-15867150D01*
X3170063Y-15867150D02*
X3189110Y-15876674D01*
X3189110Y-15876674D02*
X3198634Y-15895722D01*
X3198634Y-15895722D02*
X3198634Y-16000484D01*
X3198634Y-15895722D02*
X3208158Y-15876674D01*
X3208158Y-15876674D02*
X3227205Y-15867150D01*
X3227205Y-15867150D02*
X3255777Y-15867150D01*
X3255777Y-15867150D02*
X3274824Y-15876674D01*
X3274824Y-15876674D02*
X3284348Y-15895722D01*
X3284348Y-15895722D02*
X3284348Y-16000484D01*
X3379586Y-16000484D02*
X3379586Y-15867150D01*
X3379586Y-15886198D02*
X3389110Y-15876674D01*
X3389110Y-15876674D02*
X3408158Y-15867150D01*
X3408158Y-15867150D02*
X3436729Y-15867150D01*
X3436729Y-15867150D02*
X3455777Y-15876674D01*
X3455777Y-15876674D02*
X3465301Y-15895722D01*
X3465301Y-15895722D02*
X3465301Y-16000484D01*
X3465301Y-15895722D02*
X3474824Y-15876674D01*
X3474824Y-15876674D02*
X3493872Y-15867150D01*
X3493872Y-15867150D02*
X3522443Y-15867150D01*
X3522443Y-15867150D02*
X3541491Y-15876674D01*
X3541491Y-15876674D02*
X3551015Y-15895722D01*
X3551015Y-15895722D02*
X3551015Y-16000484D01*
X3941491Y-15790960D02*
X3770063Y-16048103D01*
X4198634Y-15800484D02*
X4217682Y-15800484D01*
X4217682Y-15800484D02*
X4236729Y-15810008D01*
X4236729Y-15810008D02*
X4246253Y-15819531D01*
X4246253Y-15819531D02*
X4255777Y-15838579D01*
X4255777Y-15838579D02*
X4265301Y-15876674D01*
X4265301Y-15876674D02*
X4265301Y-15924293D01*
X4265301Y-15924293D02*
X4255777Y-15962388D01*
X4255777Y-15962388D02*
X4246253Y-15981436D01*
X4246253Y-15981436D02*
X4236729Y-15990960D01*
X4236729Y-15990960D02*
X4217682Y-16000484D01*
X4217682Y-16000484D02*
X4198634Y-16000484D01*
X4198634Y-16000484D02*
X4179586Y-15990960D01*
X4179586Y-15990960D02*
X4170063Y-15981436D01*
X4170063Y-15981436D02*
X4160539Y-15962388D01*
X4160539Y-15962388D02*
X4151015Y-15924293D01*
X4151015Y-15924293D02*
X4151015Y-15876674D01*
X4151015Y-15876674D02*
X4160539Y-15838579D01*
X4160539Y-15838579D02*
X4170063Y-15819531D01*
X4170063Y-15819531D02*
X4179586Y-15810008D01*
X4179586Y-15810008D02*
X4198634Y-15800484D01*
X4351015Y-15981436D02*
X4360539Y-15990960D01*
X4360539Y-15990960D02*
X4351015Y-16000484D01*
X4351015Y-16000484D02*
X4341491Y-15990960D01*
X4341491Y-15990960D02*
X4351015Y-15981436D01*
X4351015Y-15981436D02*
X4351015Y-16000484D01*
X4484348Y-15800484D02*
X4503396Y-15800484D01*
X4503396Y-15800484D02*
X4522444Y-15810008D01*
X4522444Y-15810008D02*
X4531968Y-15819531D01*
X4531968Y-15819531D02*
X4541491Y-15838579D01*
X4541491Y-15838579D02*
X4551015Y-15876674D01*
X4551015Y-15876674D02*
X4551015Y-15924293D01*
X4551015Y-15924293D02*
X4541491Y-15962388D01*
X4541491Y-15962388D02*
X4531968Y-15981436D01*
X4531968Y-15981436D02*
X4522444Y-15990960D01*
X4522444Y-15990960D02*
X4503396Y-16000484D01*
X4503396Y-16000484D02*
X4484348Y-16000484D01*
X4484348Y-16000484D02*
X4465301Y-15990960D01*
X4465301Y-15990960D02*
X4455777Y-15981436D01*
X4455777Y-15981436D02*
X4446253Y-15962388D01*
X4446253Y-15962388D02*
X4436729Y-15924293D01*
X4436729Y-15924293D02*
X4436729Y-15876674D01*
X4436729Y-15876674D02*
X4446253Y-15838579D01*
X4446253Y-15838579D02*
X4455777Y-15819531D01*
X4455777Y-15819531D02*
X4465301Y-15810008D01*
X4465301Y-15810008D02*
X4484348Y-15800484D01*
X4627206Y-15819531D02*
X4636729Y-15810008D01*
X4636729Y-15810008D02*
X4655777Y-15800484D01*
X4655777Y-15800484D02*
X4703396Y-15800484D01*
X4703396Y-15800484D02*
X4722444Y-15810008D01*
X4722444Y-15810008D02*
X4731968Y-15819531D01*
X4731968Y-15819531D02*
X4741491Y-15838579D01*
X4741491Y-15838579D02*
X4741491Y-15857627D01*
X4741491Y-15857627D02*
X4731968Y-15886198D01*
X4731968Y-15886198D02*
X4617682Y-16000484D01*
X4617682Y-16000484D02*
X4741491Y-16000484D01*
X4808158Y-15800484D02*
X4941491Y-15800484D01*
X4941491Y-15800484D02*
X4855777Y-16000484D01*
X5103396Y-15800484D02*
X5065301Y-15800484D01*
X5065301Y-15800484D02*
X5046253Y-15810008D01*
X5046253Y-15810008D02*
X5036729Y-15819531D01*
X5036729Y-15819531D02*
X5017682Y-15848103D01*
X5017682Y-15848103D02*
X5008158Y-15886198D01*
X5008158Y-15886198D02*
X5008158Y-15962388D01*
X5008158Y-15962388D02*
X5017682Y-15981436D01*
X5017682Y-15981436D02*
X5027206Y-15990960D01*
X5027206Y-15990960D02*
X5046253Y-16000484D01*
X5046253Y-16000484D02*
X5084349Y-16000484D01*
X5084349Y-16000484D02*
X5103396Y-15990960D01*
X5103396Y-15990960D02*
X5112920Y-15981436D01*
X5112920Y-15981436D02*
X5122444Y-15962388D01*
X5122444Y-15962388D02*
X5122444Y-15914769D01*
X5122444Y-15914769D02*
X5112920Y-15895722D01*
X5112920Y-15895722D02*
X5103396Y-15886198D01*
X5103396Y-15886198D02*
X5084349Y-15876674D01*
X5084349Y-15876674D02*
X5046253Y-15876674D01*
X5046253Y-15876674D02*
X5027206Y-15886198D01*
X5027206Y-15886198D02*
X5017682Y-15895722D01*
X5017682Y-15895722D02*
X5008158Y-15914769D01*
X5198634Y-15800484D02*
X5198634Y-15838579D01*
X5274825Y-15800484D02*
X5274825Y-15838579D01*
X5570063Y-16076674D02*
X5560539Y-16067150D01*
X5560539Y-16067150D02*
X5541491Y-16038579D01*
X5541491Y-16038579D02*
X5531968Y-16019531D01*
X5531968Y-16019531D02*
X5522444Y-15990960D01*
X5522444Y-15990960D02*
X5512920Y-15943341D01*
X5512920Y-15943341D02*
X5512920Y-15905246D01*
X5512920Y-15905246D02*
X5522444Y-15857627D01*
X5522444Y-15857627D02*
X5531968Y-15829055D01*
X5531968Y-15829055D02*
X5541491Y-15810008D01*
X5541491Y-15810008D02*
X5560539Y-15781436D01*
X5560539Y-15781436D02*
X5570063Y-15771912D01*
X5751015Y-16000484D02*
X5636729Y-16000484D01*
X5693872Y-16000484D02*
X5693872Y-15800484D01*
X5693872Y-15800484D02*
X5674825Y-15829055D01*
X5674825Y-15829055D02*
X5655777Y-15848103D01*
X5655777Y-15848103D02*
X5636729Y-15857627D01*
X5931968Y-15800484D02*
X5836729Y-15800484D01*
X5836729Y-15800484D02*
X5827206Y-15895722D01*
X5827206Y-15895722D02*
X5836729Y-15886198D01*
X5836729Y-15886198D02*
X5855777Y-15876674D01*
X5855777Y-15876674D02*
X5903396Y-15876674D01*
X5903396Y-15876674D02*
X5922444Y-15886198D01*
X5922444Y-15886198D02*
X5931968Y-15895722D01*
X5931968Y-15895722D02*
X5941491Y-15914769D01*
X5941491Y-15914769D02*
X5941491Y-15962388D01*
X5941491Y-15962388D02*
X5931968Y-15981436D01*
X5931968Y-15981436D02*
X5922444Y-15990960D01*
X5922444Y-15990960D02*
X5903396Y-16000484D01*
X5903396Y-16000484D02*
X5855777Y-16000484D01*
X5855777Y-16000484D02*
X5836729Y-15990960D01*
X5836729Y-15990960D02*
X5827206Y-15981436D01*
X6179587Y-16000484D02*
X6179587Y-15800484D01*
X6265301Y-16000484D02*
X6265301Y-15895722D01*
X6265301Y-15895722D02*
X6255777Y-15876674D01*
X6255777Y-15876674D02*
X6236730Y-15867150D01*
X6236730Y-15867150D02*
X6208158Y-15867150D01*
X6208158Y-15867150D02*
X6189110Y-15876674D01*
X6189110Y-15876674D02*
X6179587Y-15886198D01*
X6389110Y-16000484D02*
X6370063Y-15990960D01*
X6370063Y-15990960D02*
X6360539Y-15981436D01*
X6360539Y-15981436D02*
X6351015Y-15962388D01*
X6351015Y-15962388D02*
X6351015Y-15905246D01*
X6351015Y-15905246D02*
X6360539Y-15886198D01*
X6360539Y-15886198D02*
X6370063Y-15876674D01*
X6370063Y-15876674D02*
X6389110Y-15867150D01*
X6389110Y-15867150D02*
X6417682Y-15867150D01*
X6417682Y-15867150D02*
X6436730Y-15876674D01*
X6436730Y-15876674D02*
X6446253Y-15886198D01*
X6446253Y-15886198D02*
X6455777Y-15905246D01*
X6455777Y-15905246D02*
X6455777Y-15962388D01*
X6455777Y-15962388D02*
X6446253Y-15981436D01*
X6446253Y-15981436D02*
X6436730Y-15990960D01*
X6436730Y-15990960D02*
X6417682Y-16000484D01*
X6417682Y-16000484D02*
X6389110Y-16000484D01*
X6570063Y-16000484D02*
X6551015Y-15990960D01*
X6551015Y-15990960D02*
X6541491Y-15971912D01*
X6541491Y-15971912D02*
X6541491Y-15800484D01*
X6722444Y-15990960D02*
X6703396Y-16000484D01*
X6703396Y-16000484D02*
X6665301Y-16000484D01*
X6665301Y-16000484D02*
X6646253Y-15990960D01*
X6646253Y-15990960D02*
X6636730Y-15971912D01*
X6636730Y-15971912D02*
X6636730Y-15895722D01*
X6636730Y-15895722D02*
X6646253Y-15876674D01*
X6646253Y-15876674D02*
X6665301Y-15867150D01*
X6665301Y-15867150D02*
X6703396Y-15867150D01*
X6703396Y-15867150D02*
X6722444Y-15876674D01*
X6722444Y-15876674D02*
X6731968Y-15895722D01*
X6731968Y-15895722D02*
X6731968Y-15914769D01*
X6731968Y-15914769D02*
X6636730Y-15933817D01*
X6808158Y-15990960D02*
X6827206Y-16000484D01*
X6827206Y-16000484D02*
X6865301Y-16000484D01*
X6865301Y-16000484D02*
X6884349Y-15990960D01*
X6884349Y-15990960D02*
X6893872Y-15971912D01*
X6893872Y-15971912D02*
X6893872Y-15962388D01*
X6893872Y-15962388D02*
X6884349Y-15943341D01*
X6884349Y-15943341D02*
X6865301Y-15933817D01*
X6865301Y-15933817D02*
X6836730Y-15933817D01*
X6836730Y-15933817D02*
X6817682Y-15924293D01*
X6817682Y-15924293D02*
X6808158Y-15905246D01*
X6808158Y-15905246D02*
X6808158Y-15895722D01*
X6808158Y-15895722D02*
X6817682Y-15876674D01*
X6817682Y-15876674D02*
X6836730Y-15867150D01*
X6836730Y-15867150D02*
X6865301Y-15867150D01*
X6865301Y-15867150D02*
X6884349Y-15876674D01*
X6960539Y-16076674D02*
X6970063Y-16067150D01*
X6970063Y-16067150D02*
X6989111Y-16038579D01*
X6989111Y-16038579D02*
X6998634Y-16019531D01*
X6998634Y-16019531D02*
X7008158Y-15990960D01*
X7008158Y-15990960D02*
X7017682Y-15943341D01*
X7017682Y-15943341D02*
X7017682Y-15905246D01*
X7017682Y-15905246D02*
X7008158Y-15857627D01*
X7008158Y-15857627D02*
X6998634Y-15829055D01*
X6998634Y-15829055D02*
X6989111Y-15810008D01*
X6989111Y-15810008D02*
X6970063Y-15781436D01*
X6970063Y-15781436D02*
X6960539Y-15771912D01*
D12*
X1942500Y-16120500D02*
X1942500Y-16225500D01*
X1890000Y-16173000D02*
X1995000Y-16173000D01*
D11*
X2360539Y-16264484D02*
X2246253Y-16264484D01*
X2303396Y-16264484D02*
X2303396Y-16064484D01*
X2303396Y-16064484D02*
X2284348Y-16093055D01*
X2284348Y-16093055D02*
X2265301Y-16112103D01*
X2265301Y-16112103D02*
X2246253Y-16121627D01*
X2446253Y-16245436D02*
X2455777Y-16254960D01*
X2455777Y-16254960D02*
X2446253Y-16264484D01*
X2446253Y-16264484D02*
X2436729Y-16254960D01*
X2436729Y-16254960D02*
X2446253Y-16245436D01*
X2446253Y-16245436D02*
X2446253Y-16264484D01*
X2579586Y-16064484D02*
X2598634Y-16064484D01*
X2598634Y-16064484D02*
X2617682Y-16074008D01*
X2617682Y-16074008D02*
X2627205Y-16083531D01*
X2627205Y-16083531D02*
X2636729Y-16102579D01*
X2636729Y-16102579D02*
X2646253Y-16140674D01*
X2646253Y-16140674D02*
X2646253Y-16188293D01*
X2646253Y-16188293D02*
X2636729Y-16226388D01*
X2636729Y-16226388D02*
X2627205Y-16245436D01*
X2627205Y-16245436D02*
X2617682Y-16254960D01*
X2617682Y-16254960D02*
X2598634Y-16264484D01*
X2598634Y-16264484D02*
X2579586Y-16264484D01*
X2579586Y-16264484D02*
X2560539Y-16254960D01*
X2560539Y-16254960D02*
X2551015Y-16245436D01*
X2551015Y-16245436D02*
X2541491Y-16226388D01*
X2541491Y-16226388D02*
X2531967Y-16188293D01*
X2531967Y-16188293D02*
X2531967Y-16140674D01*
X2531967Y-16140674D02*
X2541491Y-16102579D01*
X2541491Y-16102579D02*
X2551015Y-16083531D01*
X2551015Y-16083531D02*
X2560539Y-16074008D01*
X2560539Y-16074008D02*
X2579586Y-16064484D01*
X2827205Y-16064484D02*
X2731967Y-16064484D01*
X2731967Y-16064484D02*
X2722444Y-16159722D01*
X2722444Y-16159722D02*
X2731967Y-16150198D01*
X2731967Y-16150198D02*
X2751015Y-16140674D01*
X2751015Y-16140674D02*
X2798634Y-16140674D01*
X2798634Y-16140674D02*
X2817682Y-16150198D01*
X2817682Y-16150198D02*
X2827205Y-16159722D01*
X2827205Y-16159722D02*
X2836729Y-16178769D01*
X2836729Y-16178769D02*
X2836729Y-16226388D01*
X2836729Y-16226388D02*
X2827205Y-16245436D01*
X2827205Y-16245436D02*
X2817682Y-16254960D01*
X2817682Y-16254960D02*
X2798634Y-16264484D01*
X2798634Y-16264484D02*
X2751015Y-16264484D01*
X2751015Y-16264484D02*
X2731967Y-16254960D01*
X2731967Y-16254960D02*
X2722444Y-16245436D01*
X2960539Y-16064484D02*
X2979586Y-16064484D01*
X2979586Y-16064484D02*
X2998634Y-16074008D01*
X2998634Y-16074008D02*
X3008158Y-16083531D01*
X3008158Y-16083531D02*
X3017682Y-16102579D01*
X3017682Y-16102579D02*
X3027205Y-16140674D01*
X3027205Y-16140674D02*
X3027205Y-16188293D01*
X3027205Y-16188293D02*
X3017682Y-16226388D01*
X3017682Y-16226388D02*
X3008158Y-16245436D01*
X3008158Y-16245436D02*
X2998634Y-16254960D01*
X2998634Y-16254960D02*
X2979586Y-16264484D01*
X2979586Y-16264484D02*
X2960539Y-16264484D01*
X2960539Y-16264484D02*
X2941491Y-16254960D01*
X2941491Y-16254960D02*
X2931967Y-16245436D01*
X2931967Y-16245436D02*
X2922443Y-16226388D01*
X2922443Y-16226388D02*
X2912920Y-16188293D01*
X2912920Y-16188293D02*
X2912920Y-16140674D01*
X2912920Y-16140674D02*
X2922443Y-16102579D01*
X2922443Y-16102579D02*
X2931967Y-16083531D01*
X2931967Y-16083531D02*
X2941491Y-16074008D01*
X2941491Y-16074008D02*
X2960539Y-16064484D01*
X3112920Y-16264484D02*
X3112920Y-16131150D01*
X3112920Y-16150198D02*
X3122443Y-16140674D01*
X3122443Y-16140674D02*
X3141491Y-16131150D01*
X3141491Y-16131150D02*
X3170063Y-16131150D01*
X3170063Y-16131150D02*
X3189110Y-16140674D01*
X3189110Y-16140674D02*
X3198634Y-16159722D01*
X3198634Y-16159722D02*
X3198634Y-16264484D01*
X3198634Y-16159722D02*
X3208158Y-16140674D01*
X3208158Y-16140674D02*
X3227205Y-16131150D01*
X3227205Y-16131150D02*
X3255777Y-16131150D01*
X3255777Y-16131150D02*
X3274824Y-16140674D01*
X3274824Y-16140674D02*
X3284348Y-16159722D01*
X3284348Y-16159722D02*
X3284348Y-16264484D01*
X3379586Y-16264484D02*
X3379586Y-16131150D01*
X3379586Y-16150198D02*
X3389110Y-16140674D01*
X3389110Y-16140674D02*
X3408158Y-16131150D01*
X3408158Y-16131150D02*
X3436729Y-16131150D01*
X3436729Y-16131150D02*
X3455777Y-16140674D01*
X3455777Y-16140674D02*
X3465301Y-16159722D01*
X3465301Y-16159722D02*
X3465301Y-16264484D01*
X3465301Y-16159722D02*
X3474824Y-16140674D01*
X3474824Y-16140674D02*
X3493872Y-16131150D01*
X3493872Y-16131150D02*
X3522443Y-16131150D01*
X3522443Y-16131150D02*
X3541491Y-16140674D01*
X3541491Y-16140674D02*
X3551015Y-16159722D01*
X3551015Y-16159722D02*
X3551015Y-16264484D01*
X3941491Y-16054960D02*
X3770063Y-16312103D01*
X4198634Y-16064484D02*
X4217682Y-16064484D01*
X4217682Y-16064484D02*
X4236729Y-16074008D01*
X4236729Y-16074008D02*
X4246253Y-16083531D01*
X4246253Y-16083531D02*
X4255777Y-16102579D01*
X4255777Y-16102579D02*
X4265301Y-16140674D01*
X4265301Y-16140674D02*
X4265301Y-16188293D01*
X4265301Y-16188293D02*
X4255777Y-16226388D01*
X4255777Y-16226388D02*
X4246253Y-16245436D01*
X4246253Y-16245436D02*
X4236729Y-16254960D01*
X4236729Y-16254960D02*
X4217682Y-16264484D01*
X4217682Y-16264484D02*
X4198634Y-16264484D01*
X4198634Y-16264484D02*
X4179586Y-16254960D01*
X4179586Y-16254960D02*
X4170063Y-16245436D01*
X4170063Y-16245436D02*
X4160539Y-16226388D01*
X4160539Y-16226388D02*
X4151015Y-16188293D01*
X4151015Y-16188293D02*
X4151015Y-16140674D01*
X4151015Y-16140674D02*
X4160539Y-16102579D01*
X4160539Y-16102579D02*
X4170063Y-16083531D01*
X4170063Y-16083531D02*
X4179586Y-16074008D01*
X4179586Y-16074008D02*
X4198634Y-16064484D01*
X4351015Y-16245436D02*
X4360539Y-16254960D01*
X4360539Y-16254960D02*
X4351015Y-16264484D01*
X4351015Y-16264484D02*
X4341491Y-16254960D01*
X4341491Y-16254960D02*
X4351015Y-16245436D01*
X4351015Y-16245436D02*
X4351015Y-16264484D01*
X4484348Y-16064484D02*
X4503396Y-16064484D01*
X4503396Y-16064484D02*
X4522444Y-16074008D01*
X4522444Y-16074008D02*
X4531968Y-16083531D01*
X4531968Y-16083531D02*
X4541491Y-16102579D01*
X4541491Y-16102579D02*
X4551015Y-16140674D01*
X4551015Y-16140674D02*
X4551015Y-16188293D01*
X4551015Y-16188293D02*
X4541491Y-16226388D01*
X4541491Y-16226388D02*
X4531968Y-16245436D01*
X4531968Y-16245436D02*
X4522444Y-16254960D01*
X4522444Y-16254960D02*
X4503396Y-16264484D01*
X4503396Y-16264484D02*
X4484348Y-16264484D01*
X4484348Y-16264484D02*
X4465301Y-16254960D01*
X4465301Y-16254960D02*
X4455777Y-16245436D01*
X4455777Y-16245436D02*
X4446253Y-16226388D01*
X4446253Y-16226388D02*
X4436729Y-16188293D01*
X4436729Y-16188293D02*
X4436729Y-16140674D01*
X4436729Y-16140674D02*
X4446253Y-16102579D01*
X4446253Y-16102579D02*
X4455777Y-16083531D01*
X4455777Y-16083531D02*
X4465301Y-16074008D01*
X4465301Y-16074008D02*
X4484348Y-16064484D01*
X4722444Y-16131150D02*
X4722444Y-16264484D01*
X4674825Y-16054960D02*
X4627206Y-16197817D01*
X4627206Y-16197817D02*
X4751015Y-16197817D01*
X4931968Y-16264484D02*
X4817682Y-16264484D01*
X4874825Y-16264484D02*
X4874825Y-16064484D01*
X4874825Y-16064484D02*
X4855777Y-16093055D01*
X4855777Y-16093055D02*
X4836729Y-16112103D01*
X4836729Y-16112103D02*
X4817682Y-16121627D01*
X4998634Y-16064484D02*
X5122444Y-16064484D01*
X5122444Y-16064484D02*
X5055777Y-16140674D01*
X5055777Y-16140674D02*
X5084349Y-16140674D01*
X5084349Y-16140674D02*
X5103396Y-16150198D01*
X5103396Y-16150198D02*
X5112920Y-16159722D01*
X5112920Y-16159722D02*
X5122444Y-16178769D01*
X5122444Y-16178769D02*
X5122444Y-16226388D01*
X5122444Y-16226388D02*
X5112920Y-16245436D01*
X5112920Y-16245436D02*
X5103396Y-16254960D01*
X5103396Y-16254960D02*
X5084349Y-16264484D01*
X5084349Y-16264484D02*
X5027206Y-16264484D01*
X5027206Y-16264484D02*
X5008158Y-16254960D01*
X5008158Y-16254960D02*
X4998634Y-16245436D01*
X5198634Y-16064484D02*
X5198634Y-16102579D01*
X5274825Y-16064484D02*
X5274825Y-16102579D01*
X5570063Y-16340674D02*
X5560539Y-16331150D01*
X5560539Y-16331150D02*
X5541491Y-16302579D01*
X5541491Y-16302579D02*
X5531968Y-16283531D01*
X5531968Y-16283531D02*
X5522444Y-16254960D01*
X5522444Y-16254960D02*
X5512920Y-16207341D01*
X5512920Y-16207341D02*
X5512920Y-16169246D01*
X5512920Y-16169246D02*
X5522444Y-16121627D01*
X5522444Y-16121627D02*
X5531968Y-16093055D01*
X5531968Y-16093055D02*
X5541491Y-16074008D01*
X5541491Y-16074008D02*
X5560539Y-16045436D01*
X5560539Y-16045436D02*
X5570063Y-16035912D01*
X5731968Y-16131150D02*
X5731968Y-16264484D01*
X5684348Y-16054960D02*
X5636729Y-16197817D01*
X5636729Y-16197817D02*
X5760539Y-16197817D01*
X5989110Y-16264484D02*
X5989110Y-16064484D01*
X6074825Y-16264484D02*
X6074825Y-16159722D01*
X6074825Y-16159722D02*
X6065301Y-16140674D01*
X6065301Y-16140674D02*
X6046253Y-16131150D01*
X6046253Y-16131150D02*
X6017682Y-16131150D01*
X6017682Y-16131150D02*
X5998634Y-16140674D01*
X5998634Y-16140674D02*
X5989110Y-16150198D01*
X6198634Y-16264484D02*
X6179587Y-16254960D01*
X6179587Y-16254960D02*
X6170063Y-16245436D01*
X6170063Y-16245436D02*
X6160539Y-16226388D01*
X6160539Y-16226388D02*
X6160539Y-16169246D01*
X6160539Y-16169246D02*
X6170063Y-16150198D01*
X6170063Y-16150198D02*
X6179587Y-16140674D01*
X6179587Y-16140674D02*
X6198634Y-16131150D01*
X6198634Y-16131150D02*
X6227206Y-16131150D01*
X6227206Y-16131150D02*
X6246253Y-16140674D01*
X6246253Y-16140674D02*
X6255777Y-16150198D01*
X6255777Y-16150198D02*
X6265301Y-16169246D01*
X6265301Y-16169246D02*
X6265301Y-16226388D01*
X6265301Y-16226388D02*
X6255777Y-16245436D01*
X6255777Y-16245436D02*
X6246253Y-16254960D01*
X6246253Y-16254960D02*
X6227206Y-16264484D01*
X6227206Y-16264484D02*
X6198634Y-16264484D01*
X6379587Y-16264484D02*
X6360539Y-16254960D01*
X6360539Y-16254960D02*
X6351015Y-16235912D01*
X6351015Y-16235912D02*
X6351015Y-16064484D01*
X6531968Y-16254960D02*
X6512920Y-16264484D01*
X6512920Y-16264484D02*
X6474825Y-16264484D01*
X6474825Y-16264484D02*
X6455777Y-16254960D01*
X6455777Y-16254960D02*
X6446253Y-16235912D01*
X6446253Y-16235912D02*
X6446253Y-16159722D01*
X6446253Y-16159722D02*
X6455777Y-16140674D01*
X6455777Y-16140674D02*
X6474825Y-16131150D01*
X6474825Y-16131150D02*
X6512920Y-16131150D01*
X6512920Y-16131150D02*
X6531968Y-16140674D01*
X6531968Y-16140674D02*
X6541491Y-16159722D01*
X6541491Y-16159722D02*
X6541491Y-16178769D01*
X6541491Y-16178769D02*
X6446253Y-16197817D01*
X6617682Y-16254960D02*
X6636730Y-16264484D01*
X6636730Y-16264484D02*
X6674825Y-16264484D01*
X6674825Y-16264484D02*
X6693872Y-16254960D01*
X6693872Y-16254960D02*
X6703396Y-16235912D01*
X6703396Y-16235912D02*
X6703396Y-16226388D01*
X6703396Y-16226388D02*
X6693872Y-16207341D01*
X6693872Y-16207341D02*
X6674825Y-16197817D01*
X6674825Y-16197817D02*
X6646253Y-16197817D01*
X6646253Y-16197817D02*
X6627206Y-16188293D01*
X6627206Y-16188293D02*
X6617682Y-16169246D01*
X6617682Y-16169246D02*
X6617682Y-16159722D01*
X6617682Y-16159722D02*
X6627206Y-16140674D01*
X6627206Y-16140674D02*
X6646253Y-16131150D01*
X6646253Y-16131150D02*
X6674825Y-16131150D01*
X6674825Y-16131150D02*
X6693872Y-16140674D01*
X6770063Y-16340674D02*
X6779587Y-16331150D01*
X6779587Y-16331150D02*
X6798634Y-16302579D01*
X6798634Y-16302579D02*
X6808158Y-16283531D01*
X6808158Y-16283531D02*
X6817682Y-16254960D01*
X6817682Y-16254960D02*
X6827206Y-16207341D01*
X6827206Y-16207341D02*
X6827206Y-16169246D01*
X6827206Y-16169246D02*
X6817682Y-16121627D01*
X6817682Y-16121627D02*
X6808158Y-16093055D01*
X6808158Y-16093055D02*
X6798634Y-16074008D01*
X6798634Y-16074008D02*
X6779587Y-16045436D01*
X6779587Y-16045436D02*
X6770063Y-16035912D01*
D13*
X1978891Y-16475891D02*
X1978891Y-16398109D01*
X1901109Y-16398109D01*
X1901109Y-16475891D01*
X1978891Y-16475891D01*
D11*
X2360539Y-16528484D02*
X2246253Y-16528484D01*
X2303396Y-16528484D02*
X2303396Y-16328484D01*
X2303396Y-16328484D02*
X2284348Y-16357055D01*
X2284348Y-16357055D02*
X2265301Y-16376103D01*
X2265301Y-16376103D02*
X2246253Y-16385627D01*
X2446253Y-16509436D02*
X2455777Y-16518960D01*
X2455777Y-16518960D02*
X2446253Y-16528484D01*
X2446253Y-16528484D02*
X2436729Y-16518960D01*
X2436729Y-16518960D02*
X2446253Y-16509436D01*
X2446253Y-16509436D02*
X2446253Y-16528484D01*
X2646253Y-16528484D02*
X2531967Y-16528484D01*
X2589110Y-16528484D02*
X2589110Y-16328484D01*
X2589110Y-16328484D02*
X2570063Y-16357055D01*
X2570063Y-16357055D02*
X2551015Y-16376103D01*
X2551015Y-16376103D02*
X2531967Y-16385627D01*
X2770063Y-16328484D02*
X2789110Y-16328484D01*
X2789110Y-16328484D02*
X2808158Y-16338008D01*
X2808158Y-16338008D02*
X2817682Y-16347531D01*
X2817682Y-16347531D02*
X2827205Y-16366579D01*
X2827205Y-16366579D02*
X2836729Y-16404674D01*
X2836729Y-16404674D02*
X2836729Y-16452293D01*
X2836729Y-16452293D02*
X2827205Y-16490388D01*
X2827205Y-16490388D02*
X2817682Y-16509436D01*
X2817682Y-16509436D02*
X2808158Y-16518960D01*
X2808158Y-16518960D02*
X2789110Y-16528484D01*
X2789110Y-16528484D02*
X2770063Y-16528484D01*
X2770063Y-16528484D02*
X2751015Y-16518960D01*
X2751015Y-16518960D02*
X2741491Y-16509436D01*
X2741491Y-16509436D02*
X2731967Y-16490388D01*
X2731967Y-16490388D02*
X2722444Y-16452293D01*
X2722444Y-16452293D02*
X2722444Y-16404674D01*
X2722444Y-16404674D02*
X2731967Y-16366579D01*
X2731967Y-16366579D02*
X2741491Y-16347531D01*
X2741491Y-16347531D02*
X2751015Y-16338008D01*
X2751015Y-16338008D02*
X2770063Y-16328484D01*
X2960539Y-16328484D02*
X2979586Y-16328484D01*
X2979586Y-16328484D02*
X2998634Y-16338008D01*
X2998634Y-16338008D02*
X3008158Y-16347531D01*
X3008158Y-16347531D02*
X3017682Y-16366579D01*
X3017682Y-16366579D02*
X3027205Y-16404674D01*
X3027205Y-16404674D02*
X3027205Y-16452293D01*
X3027205Y-16452293D02*
X3017682Y-16490388D01*
X3017682Y-16490388D02*
X3008158Y-16509436D01*
X3008158Y-16509436D02*
X2998634Y-16518960D01*
X2998634Y-16518960D02*
X2979586Y-16528484D01*
X2979586Y-16528484D02*
X2960539Y-16528484D01*
X2960539Y-16528484D02*
X2941491Y-16518960D01*
X2941491Y-16518960D02*
X2931967Y-16509436D01*
X2931967Y-16509436D02*
X2922443Y-16490388D01*
X2922443Y-16490388D02*
X2912920Y-16452293D01*
X2912920Y-16452293D02*
X2912920Y-16404674D01*
X2912920Y-16404674D02*
X2922443Y-16366579D01*
X2922443Y-16366579D02*
X2931967Y-16347531D01*
X2931967Y-16347531D02*
X2941491Y-16338008D01*
X2941491Y-16338008D02*
X2960539Y-16328484D01*
X3112920Y-16528484D02*
X3112920Y-16395150D01*
X3112920Y-16414198D02*
X3122443Y-16404674D01*
X3122443Y-16404674D02*
X3141491Y-16395150D01*
X3141491Y-16395150D02*
X3170063Y-16395150D01*
X3170063Y-16395150D02*
X3189110Y-16404674D01*
X3189110Y-16404674D02*
X3198634Y-16423722D01*
X3198634Y-16423722D02*
X3198634Y-16528484D01*
X3198634Y-16423722D02*
X3208158Y-16404674D01*
X3208158Y-16404674D02*
X3227205Y-16395150D01*
X3227205Y-16395150D02*
X3255777Y-16395150D01*
X3255777Y-16395150D02*
X3274824Y-16404674D01*
X3274824Y-16404674D02*
X3284348Y-16423722D01*
X3284348Y-16423722D02*
X3284348Y-16528484D01*
X3379586Y-16528484D02*
X3379586Y-16395150D01*
X3379586Y-16414198D02*
X3389110Y-16404674D01*
X3389110Y-16404674D02*
X3408158Y-16395150D01*
X3408158Y-16395150D02*
X3436729Y-16395150D01*
X3436729Y-16395150D02*
X3455777Y-16404674D01*
X3455777Y-16404674D02*
X3465301Y-16423722D01*
X3465301Y-16423722D02*
X3465301Y-16528484D01*
X3465301Y-16423722D02*
X3474824Y-16404674D01*
X3474824Y-16404674D02*
X3493872Y-16395150D01*
X3493872Y-16395150D02*
X3522443Y-16395150D01*
X3522443Y-16395150D02*
X3541491Y-16404674D01*
X3541491Y-16404674D02*
X3551015Y-16423722D01*
X3551015Y-16423722D02*
X3551015Y-16528484D01*
X3941491Y-16318960D02*
X3770063Y-16576103D01*
X4198634Y-16328484D02*
X4217682Y-16328484D01*
X4217682Y-16328484D02*
X4236729Y-16338008D01*
X4236729Y-16338008D02*
X4246253Y-16347531D01*
X4246253Y-16347531D02*
X4255777Y-16366579D01*
X4255777Y-16366579D02*
X4265301Y-16404674D01*
X4265301Y-16404674D02*
X4265301Y-16452293D01*
X4265301Y-16452293D02*
X4255777Y-16490388D01*
X4255777Y-16490388D02*
X4246253Y-16509436D01*
X4246253Y-16509436D02*
X4236729Y-16518960D01*
X4236729Y-16518960D02*
X4217682Y-16528484D01*
X4217682Y-16528484D02*
X4198634Y-16528484D01*
X4198634Y-16528484D02*
X4179586Y-16518960D01*
X4179586Y-16518960D02*
X4170063Y-16509436D01*
X4170063Y-16509436D02*
X4160539Y-16490388D01*
X4160539Y-16490388D02*
X4151015Y-16452293D01*
X4151015Y-16452293D02*
X4151015Y-16404674D01*
X4151015Y-16404674D02*
X4160539Y-16366579D01*
X4160539Y-16366579D02*
X4170063Y-16347531D01*
X4170063Y-16347531D02*
X4179586Y-16338008D01*
X4179586Y-16338008D02*
X4198634Y-16328484D01*
X4351015Y-16509436D02*
X4360539Y-16518960D01*
X4360539Y-16518960D02*
X4351015Y-16528484D01*
X4351015Y-16528484D02*
X4341491Y-16518960D01*
X4341491Y-16518960D02*
X4351015Y-16509436D01*
X4351015Y-16509436D02*
X4351015Y-16528484D01*
X4484348Y-16328484D02*
X4503396Y-16328484D01*
X4503396Y-16328484D02*
X4522444Y-16338008D01*
X4522444Y-16338008D02*
X4531968Y-16347531D01*
X4531968Y-16347531D02*
X4541491Y-16366579D01*
X4541491Y-16366579D02*
X4551015Y-16404674D01*
X4551015Y-16404674D02*
X4551015Y-16452293D01*
X4551015Y-16452293D02*
X4541491Y-16490388D01*
X4541491Y-16490388D02*
X4531968Y-16509436D01*
X4531968Y-16509436D02*
X4522444Y-16518960D01*
X4522444Y-16518960D02*
X4503396Y-16528484D01*
X4503396Y-16528484D02*
X4484348Y-16528484D01*
X4484348Y-16528484D02*
X4465301Y-16518960D01*
X4465301Y-16518960D02*
X4455777Y-16509436D01*
X4455777Y-16509436D02*
X4446253Y-16490388D01*
X4446253Y-16490388D02*
X4436729Y-16452293D01*
X4436729Y-16452293D02*
X4436729Y-16404674D01*
X4436729Y-16404674D02*
X4446253Y-16366579D01*
X4446253Y-16366579D02*
X4455777Y-16347531D01*
X4455777Y-16347531D02*
X4465301Y-16338008D01*
X4465301Y-16338008D02*
X4484348Y-16328484D01*
X4722444Y-16395150D02*
X4722444Y-16528484D01*
X4674825Y-16318960D02*
X4627206Y-16461817D01*
X4627206Y-16461817D02*
X4751015Y-16461817D01*
X4808158Y-16328484D02*
X4931968Y-16328484D01*
X4931968Y-16328484D02*
X4865301Y-16404674D01*
X4865301Y-16404674D02*
X4893872Y-16404674D01*
X4893872Y-16404674D02*
X4912920Y-16414198D01*
X4912920Y-16414198D02*
X4922444Y-16423722D01*
X4922444Y-16423722D02*
X4931968Y-16442769D01*
X4931968Y-16442769D02*
X4931968Y-16490388D01*
X4931968Y-16490388D02*
X4922444Y-16509436D01*
X4922444Y-16509436D02*
X4912920Y-16518960D01*
X4912920Y-16518960D02*
X4893872Y-16528484D01*
X4893872Y-16528484D02*
X4836729Y-16528484D01*
X4836729Y-16528484D02*
X4817682Y-16518960D01*
X4817682Y-16518960D02*
X4808158Y-16509436D01*
X4998634Y-16328484D02*
X5122444Y-16328484D01*
X5122444Y-16328484D02*
X5055777Y-16404674D01*
X5055777Y-16404674D02*
X5084349Y-16404674D01*
X5084349Y-16404674D02*
X5103396Y-16414198D01*
X5103396Y-16414198D02*
X5112920Y-16423722D01*
X5112920Y-16423722D02*
X5122444Y-16442769D01*
X5122444Y-16442769D02*
X5122444Y-16490388D01*
X5122444Y-16490388D02*
X5112920Y-16509436D01*
X5112920Y-16509436D02*
X5103396Y-16518960D01*
X5103396Y-16518960D02*
X5084349Y-16528484D01*
X5084349Y-16528484D02*
X5027206Y-16528484D01*
X5027206Y-16528484D02*
X5008158Y-16518960D01*
X5008158Y-16518960D02*
X4998634Y-16509436D01*
X5198634Y-16328484D02*
X5198634Y-16366579D01*
X5274825Y-16328484D02*
X5274825Y-16366579D01*
X5570063Y-16604674D02*
X5560539Y-16595150D01*
X5560539Y-16595150D02*
X5541491Y-16566579D01*
X5541491Y-16566579D02*
X5531968Y-16547531D01*
X5531968Y-16547531D02*
X5522444Y-16518960D01*
X5522444Y-16518960D02*
X5512920Y-16471341D01*
X5512920Y-16471341D02*
X5512920Y-16433246D01*
X5512920Y-16433246D02*
X5522444Y-16385627D01*
X5522444Y-16385627D02*
X5531968Y-16357055D01*
X5531968Y-16357055D02*
X5541491Y-16338008D01*
X5541491Y-16338008D02*
X5560539Y-16309436D01*
X5560539Y-16309436D02*
X5570063Y-16299912D01*
X5636729Y-16347531D02*
X5646253Y-16338008D01*
X5646253Y-16338008D02*
X5665301Y-16328484D01*
X5665301Y-16328484D02*
X5712920Y-16328484D01*
X5712920Y-16328484D02*
X5731968Y-16338008D01*
X5731968Y-16338008D02*
X5741491Y-16347531D01*
X5741491Y-16347531D02*
X5751015Y-16366579D01*
X5751015Y-16366579D02*
X5751015Y-16385627D01*
X5751015Y-16385627D02*
X5741491Y-16414198D01*
X5741491Y-16414198D02*
X5627206Y-16528484D01*
X5627206Y-16528484D02*
X5751015Y-16528484D01*
X5874825Y-16328484D02*
X5893872Y-16328484D01*
X5893872Y-16328484D02*
X5912920Y-16338008D01*
X5912920Y-16338008D02*
X5922444Y-16347531D01*
X5922444Y-16347531D02*
X5931968Y-16366579D01*
X5931968Y-16366579D02*
X5941491Y-16404674D01*
X5941491Y-16404674D02*
X5941491Y-16452293D01*
X5941491Y-16452293D02*
X5931968Y-16490388D01*
X5931968Y-16490388D02*
X5922444Y-16509436D01*
X5922444Y-16509436D02*
X5912920Y-16518960D01*
X5912920Y-16518960D02*
X5893872Y-16528484D01*
X5893872Y-16528484D02*
X5874825Y-16528484D01*
X5874825Y-16528484D02*
X5855777Y-16518960D01*
X5855777Y-16518960D02*
X5846253Y-16509436D01*
X5846253Y-16509436D02*
X5836729Y-16490388D01*
X5836729Y-16490388D02*
X5827206Y-16452293D01*
X5827206Y-16452293D02*
X5827206Y-16404674D01*
X5827206Y-16404674D02*
X5836729Y-16366579D01*
X5836729Y-16366579D02*
X5846253Y-16347531D01*
X5846253Y-16347531D02*
X5855777Y-16338008D01*
X5855777Y-16338008D02*
X5874825Y-16328484D01*
X6179587Y-16528484D02*
X6179587Y-16328484D01*
X6265301Y-16528484D02*
X6265301Y-16423722D01*
X6265301Y-16423722D02*
X6255777Y-16404674D01*
X6255777Y-16404674D02*
X6236730Y-16395150D01*
X6236730Y-16395150D02*
X6208158Y-16395150D01*
X6208158Y-16395150D02*
X6189110Y-16404674D01*
X6189110Y-16404674D02*
X6179587Y-16414198D01*
X6389110Y-16528484D02*
X6370063Y-16518960D01*
X6370063Y-16518960D02*
X6360539Y-16509436D01*
X6360539Y-16509436D02*
X6351015Y-16490388D01*
X6351015Y-16490388D02*
X6351015Y-16433246D01*
X6351015Y-16433246D02*
X6360539Y-16414198D01*
X6360539Y-16414198D02*
X6370063Y-16404674D01*
X6370063Y-16404674D02*
X6389110Y-16395150D01*
X6389110Y-16395150D02*
X6417682Y-16395150D01*
X6417682Y-16395150D02*
X6436730Y-16404674D01*
X6436730Y-16404674D02*
X6446253Y-16414198D01*
X6446253Y-16414198D02*
X6455777Y-16433246D01*
X6455777Y-16433246D02*
X6455777Y-16490388D01*
X6455777Y-16490388D02*
X6446253Y-16509436D01*
X6446253Y-16509436D02*
X6436730Y-16518960D01*
X6436730Y-16518960D02*
X6417682Y-16528484D01*
X6417682Y-16528484D02*
X6389110Y-16528484D01*
X6570063Y-16528484D02*
X6551015Y-16518960D01*
X6551015Y-16518960D02*
X6541491Y-16499912D01*
X6541491Y-16499912D02*
X6541491Y-16328484D01*
X6722444Y-16518960D02*
X6703396Y-16528484D01*
X6703396Y-16528484D02*
X6665301Y-16528484D01*
X6665301Y-16528484D02*
X6646253Y-16518960D01*
X6646253Y-16518960D02*
X6636730Y-16499912D01*
X6636730Y-16499912D02*
X6636730Y-16423722D01*
X6636730Y-16423722D02*
X6646253Y-16404674D01*
X6646253Y-16404674D02*
X6665301Y-16395150D01*
X6665301Y-16395150D02*
X6703396Y-16395150D01*
X6703396Y-16395150D02*
X6722444Y-16404674D01*
X6722444Y-16404674D02*
X6731968Y-16423722D01*
X6731968Y-16423722D02*
X6731968Y-16442769D01*
X6731968Y-16442769D02*
X6636730Y-16461817D01*
X6808158Y-16518960D02*
X6827206Y-16528484D01*
X6827206Y-16528484D02*
X6865301Y-16528484D01*
X6865301Y-16528484D02*
X6884349Y-16518960D01*
X6884349Y-16518960D02*
X6893872Y-16499912D01*
X6893872Y-16499912D02*
X6893872Y-16490388D01*
X6893872Y-16490388D02*
X6884349Y-16471341D01*
X6884349Y-16471341D02*
X6865301Y-16461817D01*
X6865301Y-16461817D02*
X6836730Y-16461817D01*
X6836730Y-16461817D02*
X6817682Y-16452293D01*
X6817682Y-16452293D02*
X6808158Y-16433246D01*
X6808158Y-16433246D02*
X6808158Y-16423722D01*
X6808158Y-16423722D02*
X6817682Y-16404674D01*
X6817682Y-16404674D02*
X6836730Y-16395150D01*
X6836730Y-16395150D02*
X6865301Y-16395150D01*
X6865301Y-16395150D02*
X6884349Y-16404674D01*
X6960539Y-16604674D02*
X6970063Y-16595150D01*
X6970063Y-16595150D02*
X6989111Y-16566579D01*
X6989111Y-16566579D02*
X6998634Y-16547531D01*
X6998634Y-16547531D02*
X7008158Y-16518960D01*
X7008158Y-16518960D02*
X7017682Y-16471341D01*
X7017682Y-16471341D02*
X7017682Y-16433246D01*
X7017682Y-16433246D02*
X7008158Y-16385627D01*
X7008158Y-16385627D02*
X6998634Y-16357055D01*
X6998634Y-16357055D02*
X6989111Y-16338008D01*
X6989111Y-16338008D02*
X6970063Y-16309436D01*
X6970063Y-16309436D02*
X6960539Y-16299912D01*
D14*
X1935000Y-16761000D02*
X1995000Y-16701000D01*
X1935000Y-16641000D01*
X1875000Y-16701000D01*
X1935000Y-16761000D01*
D11*
X2360539Y-16792484D02*
X2246253Y-16792484D01*
X2303396Y-16792484D02*
X2303396Y-16592484D01*
X2303396Y-16592484D02*
X2284348Y-16621055D01*
X2284348Y-16621055D02*
X2265301Y-16640103D01*
X2265301Y-16640103D02*
X2246253Y-16649627D01*
X2446253Y-16773436D02*
X2455777Y-16782960D01*
X2455777Y-16782960D02*
X2446253Y-16792484D01*
X2446253Y-16792484D02*
X2436729Y-16782960D01*
X2436729Y-16782960D02*
X2446253Y-16773436D01*
X2446253Y-16773436D02*
X2446253Y-16792484D01*
X2531967Y-16611531D02*
X2541491Y-16602008D01*
X2541491Y-16602008D02*
X2560539Y-16592484D01*
X2560539Y-16592484D02*
X2608158Y-16592484D01*
X2608158Y-16592484D02*
X2627205Y-16602008D01*
X2627205Y-16602008D02*
X2636729Y-16611531D01*
X2636729Y-16611531D02*
X2646253Y-16630579D01*
X2646253Y-16630579D02*
X2646253Y-16649627D01*
X2646253Y-16649627D02*
X2636729Y-16678198D01*
X2636729Y-16678198D02*
X2522444Y-16792484D01*
X2522444Y-16792484D02*
X2646253Y-16792484D01*
X2770063Y-16592484D02*
X2789110Y-16592484D01*
X2789110Y-16592484D02*
X2808158Y-16602008D01*
X2808158Y-16602008D02*
X2817682Y-16611531D01*
X2817682Y-16611531D02*
X2827205Y-16630579D01*
X2827205Y-16630579D02*
X2836729Y-16668674D01*
X2836729Y-16668674D02*
X2836729Y-16716293D01*
X2836729Y-16716293D02*
X2827205Y-16754388D01*
X2827205Y-16754388D02*
X2817682Y-16773436D01*
X2817682Y-16773436D02*
X2808158Y-16782960D01*
X2808158Y-16782960D02*
X2789110Y-16792484D01*
X2789110Y-16792484D02*
X2770063Y-16792484D01*
X2770063Y-16792484D02*
X2751015Y-16782960D01*
X2751015Y-16782960D02*
X2741491Y-16773436D01*
X2741491Y-16773436D02*
X2731967Y-16754388D01*
X2731967Y-16754388D02*
X2722444Y-16716293D01*
X2722444Y-16716293D02*
X2722444Y-16668674D01*
X2722444Y-16668674D02*
X2731967Y-16630579D01*
X2731967Y-16630579D02*
X2741491Y-16611531D01*
X2741491Y-16611531D02*
X2751015Y-16602008D01*
X2751015Y-16602008D02*
X2770063Y-16592484D01*
X2960539Y-16592484D02*
X2979586Y-16592484D01*
X2979586Y-16592484D02*
X2998634Y-16602008D01*
X2998634Y-16602008D02*
X3008158Y-16611531D01*
X3008158Y-16611531D02*
X3017682Y-16630579D01*
X3017682Y-16630579D02*
X3027205Y-16668674D01*
X3027205Y-16668674D02*
X3027205Y-16716293D01*
X3027205Y-16716293D02*
X3017682Y-16754388D01*
X3017682Y-16754388D02*
X3008158Y-16773436D01*
X3008158Y-16773436D02*
X2998634Y-16782960D01*
X2998634Y-16782960D02*
X2979586Y-16792484D01*
X2979586Y-16792484D02*
X2960539Y-16792484D01*
X2960539Y-16792484D02*
X2941491Y-16782960D01*
X2941491Y-16782960D02*
X2931967Y-16773436D01*
X2931967Y-16773436D02*
X2922443Y-16754388D01*
X2922443Y-16754388D02*
X2912920Y-16716293D01*
X2912920Y-16716293D02*
X2912920Y-16668674D01*
X2912920Y-16668674D02*
X2922443Y-16630579D01*
X2922443Y-16630579D02*
X2931967Y-16611531D01*
X2931967Y-16611531D02*
X2941491Y-16602008D01*
X2941491Y-16602008D02*
X2960539Y-16592484D01*
X3112920Y-16792484D02*
X3112920Y-16659150D01*
X3112920Y-16678198D02*
X3122443Y-16668674D01*
X3122443Y-16668674D02*
X3141491Y-16659150D01*
X3141491Y-16659150D02*
X3170063Y-16659150D01*
X3170063Y-16659150D02*
X3189110Y-16668674D01*
X3189110Y-16668674D02*
X3198634Y-16687722D01*
X3198634Y-16687722D02*
X3198634Y-16792484D01*
X3198634Y-16687722D02*
X3208158Y-16668674D01*
X3208158Y-16668674D02*
X3227205Y-16659150D01*
X3227205Y-16659150D02*
X3255777Y-16659150D01*
X3255777Y-16659150D02*
X3274824Y-16668674D01*
X3274824Y-16668674D02*
X3284348Y-16687722D01*
X3284348Y-16687722D02*
X3284348Y-16792484D01*
X3379586Y-16792484D02*
X3379586Y-16659150D01*
X3379586Y-16678198D02*
X3389110Y-16668674D01*
X3389110Y-16668674D02*
X3408158Y-16659150D01*
X3408158Y-16659150D02*
X3436729Y-16659150D01*
X3436729Y-16659150D02*
X3455777Y-16668674D01*
X3455777Y-16668674D02*
X3465301Y-16687722D01*
X3465301Y-16687722D02*
X3465301Y-16792484D01*
X3465301Y-16687722D02*
X3474824Y-16668674D01*
X3474824Y-16668674D02*
X3493872Y-16659150D01*
X3493872Y-16659150D02*
X3522443Y-16659150D01*
X3522443Y-16659150D02*
X3541491Y-16668674D01*
X3541491Y-16668674D02*
X3551015Y-16687722D01*
X3551015Y-16687722D02*
X3551015Y-16792484D01*
X3941491Y-16582960D02*
X3770063Y-16840103D01*
X4198634Y-16592484D02*
X4217682Y-16592484D01*
X4217682Y-16592484D02*
X4236729Y-16602008D01*
X4236729Y-16602008D02*
X4246253Y-16611531D01*
X4246253Y-16611531D02*
X4255777Y-16630579D01*
X4255777Y-16630579D02*
X4265301Y-16668674D01*
X4265301Y-16668674D02*
X4265301Y-16716293D01*
X4265301Y-16716293D02*
X4255777Y-16754388D01*
X4255777Y-16754388D02*
X4246253Y-16773436D01*
X4246253Y-16773436D02*
X4236729Y-16782960D01*
X4236729Y-16782960D02*
X4217682Y-16792484D01*
X4217682Y-16792484D02*
X4198634Y-16792484D01*
X4198634Y-16792484D02*
X4179586Y-16782960D01*
X4179586Y-16782960D02*
X4170063Y-16773436D01*
X4170063Y-16773436D02*
X4160539Y-16754388D01*
X4160539Y-16754388D02*
X4151015Y-16716293D01*
X4151015Y-16716293D02*
X4151015Y-16668674D01*
X4151015Y-16668674D02*
X4160539Y-16630579D01*
X4160539Y-16630579D02*
X4170063Y-16611531D01*
X4170063Y-16611531D02*
X4179586Y-16602008D01*
X4179586Y-16602008D02*
X4198634Y-16592484D01*
X4351015Y-16773436D02*
X4360539Y-16782960D01*
X4360539Y-16782960D02*
X4351015Y-16792484D01*
X4351015Y-16792484D02*
X4341491Y-16782960D01*
X4341491Y-16782960D02*
X4351015Y-16773436D01*
X4351015Y-16773436D02*
X4351015Y-16792484D01*
X4484348Y-16592484D02*
X4503396Y-16592484D01*
X4503396Y-16592484D02*
X4522444Y-16602008D01*
X4522444Y-16602008D02*
X4531968Y-16611531D01*
X4531968Y-16611531D02*
X4541491Y-16630579D01*
X4541491Y-16630579D02*
X4551015Y-16668674D01*
X4551015Y-16668674D02*
X4551015Y-16716293D01*
X4551015Y-16716293D02*
X4541491Y-16754388D01*
X4541491Y-16754388D02*
X4531968Y-16773436D01*
X4531968Y-16773436D02*
X4522444Y-16782960D01*
X4522444Y-16782960D02*
X4503396Y-16792484D01*
X4503396Y-16792484D02*
X4484348Y-16792484D01*
X4484348Y-16792484D02*
X4465301Y-16782960D01*
X4465301Y-16782960D02*
X4455777Y-16773436D01*
X4455777Y-16773436D02*
X4446253Y-16754388D01*
X4446253Y-16754388D02*
X4436729Y-16716293D01*
X4436729Y-16716293D02*
X4436729Y-16668674D01*
X4436729Y-16668674D02*
X4446253Y-16630579D01*
X4446253Y-16630579D02*
X4455777Y-16611531D01*
X4455777Y-16611531D02*
X4465301Y-16602008D01*
X4465301Y-16602008D02*
X4484348Y-16592484D01*
X4722444Y-16659150D02*
X4722444Y-16792484D01*
X4674825Y-16582960D02*
X4627206Y-16725817D01*
X4627206Y-16725817D02*
X4751015Y-16725817D01*
X4808158Y-16592484D02*
X4941491Y-16592484D01*
X4941491Y-16592484D02*
X4855777Y-16792484D01*
X5008158Y-16611531D02*
X5017682Y-16602008D01*
X5017682Y-16602008D02*
X5036729Y-16592484D01*
X5036729Y-16592484D02*
X5084349Y-16592484D01*
X5084349Y-16592484D02*
X5103396Y-16602008D01*
X5103396Y-16602008D02*
X5112920Y-16611531D01*
X5112920Y-16611531D02*
X5122444Y-16630579D01*
X5122444Y-16630579D02*
X5122444Y-16649627D01*
X5122444Y-16649627D02*
X5112920Y-16678198D01*
X5112920Y-16678198D02*
X4998634Y-16792484D01*
X4998634Y-16792484D02*
X5122444Y-16792484D01*
X5198634Y-16592484D02*
X5198634Y-16630579D01*
X5274825Y-16592484D02*
X5274825Y-16630579D01*
X5570063Y-16868674D02*
X5560539Y-16859150D01*
X5560539Y-16859150D02*
X5541491Y-16830579D01*
X5541491Y-16830579D02*
X5531968Y-16811531D01*
X5531968Y-16811531D02*
X5522444Y-16782960D01*
X5522444Y-16782960D02*
X5512920Y-16735341D01*
X5512920Y-16735341D02*
X5512920Y-16697246D01*
X5512920Y-16697246D02*
X5522444Y-16649627D01*
X5522444Y-16649627D02*
X5531968Y-16621055D01*
X5531968Y-16621055D02*
X5541491Y-16602008D01*
X5541491Y-16602008D02*
X5560539Y-16573436D01*
X5560539Y-16573436D02*
X5570063Y-16563912D01*
X5636729Y-16611531D02*
X5646253Y-16602008D01*
X5646253Y-16602008D02*
X5665301Y-16592484D01*
X5665301Y-16592484D02*
X5712920Y-16592484D01*
X5712920Y-16592484D02*
X5731968Y-16602008D01*
X5731968Y-16602008D02*
X5741491Y-16611531D01*
X5741491Y-16611531D02*
X5751015Y-16630579D01*
X5751015Y-16630579D02*
X5751015Y-16649627D01*
X5751015Y-16649627D02*
X5741491Y-16678198D01*
X5741491Y-16678198D02*
X5627206Y-16792484D01*
X5627206Y-16792484D02*
X5751015Y-16792484D01*
X5865301Y-16678198D02*
X5846253Y-16668674D01*
X5846253Y-16668674D02*
X5836729Y-16659150D01*
X5836729Y-16659150D02*
X5827206Y-16640103D01*
X5827206Y-16640103D02*
X5827206Y-16630579D01*
X5827206Y-16630579D02*
X5836729Y-16611531D01*
X5836729Y-16611531D02*
X5846253Y-16602008D01*
X5846253Y-16602008D02*
X5865301Y-16592484D01*
X5865301Y-16592484D02*
X5903396Y-16592484D01*
X5903396Y-16592484D02*
X5922444Y-16602008D01*
X5922444Y-16602008D02*
X5931968Y-16611531D01*
X5931968Y-16611531D02*
X5941491Y-16630579D01*
X5941491Y-16630579D02*
X5941491Y-16640103D01*
X5941491Y-16640103D02*
X5931968Y-16659150D01*
X5931968Y-16659150D02*
X5922444Y-16668674D01*
X5922444Y-16668674D02*
X5903396Y-16678198D01*
X5903396Y-16678198D02*
X5865301Y-16678198D01*
X5865301Y-16678198D02*
X5846253Y-16687722D01*
X5846253Y-16687722D02*
X5836729Y-16697246D01*
X5836729Y-16697246D02*
X5827206Y-16716293D01*
X5827206Y-16716293D02*
X5827206Y-16754388D01*
X5827206Y-16754388D02*
X5836729Y-16773436D01*
X5836729Y-16773436D02*
X5846253Y-16782960D01*
X5846253Y-16782960D02*
X5865301Y-16792484D01*
X5865301Y-16792484D02*
X5903396Y-16792484D01*
X5903396Y-16792484D02*
X5922444Y-16782960D01*
X5922444Y-16782960D02*
X5931968Y-16773436D01*
X5931968Y-16773436D02*
X5941491Y-16754388D01*
X5941491Y-16754388D02*
X5941491Y-16716293D01*
X5941491Y-16716293D02*
X5931968Y-16697246D01*
X5931968Y-16697246D02*
X5922444Y-16687722D01*
X5922444Y-16687722D02*
X5903396Y-16678198D01*
X6179587Y-16792484D02*
X6179587Y-16592484D01*
X6265301Y-16792484D02*
X6265301Y-16687722D01*
X6265301Y-16687722D02*
X6255777Y-16668674D01*
X6255777Y-16668674D02*
X6236730Y-16659150D01*
X6236730Y-16659150D02*
X6208158Y-16659150D01*
X6208158Y-16659150D02*
X6189110Y-16668674D01*
X6189110Y-16668674D02*
X6179587Y-16678198D01*
X6389110Y-16792484D02*
X6370063Y-16782960D01*
X6370063Y-16782960D02*
X6360539Y-16773436D01*
X6360539Y-16773436D02*
X6351015Y-16754388D01*
X6351015Y-16754388D02*
X6351015Y-16697246D01*
X6351015Y-16697246D02*
X6360539Y-16678198D01*
X6360539Y-16678198D02*
X6370063Y-16668674D01*
X6370063Y-16668674D02*
X6389110Y-16659150D01*
X6389110Y-16659150D02*
X6417682Y-16659150D01*
X6417682Y-16659150D02*
X6436730Y-16668674D01*
X6436730Y-16668674D02*
X6446253Y-16678198D01*
X6446253Y-16678198D02*
X6455777Y-16697246D01*
X6455777Y-16697246D02*
X6455777Y-16754388D01*
X6455777Y-16754388D02*
X6446253Y-16773436D01*
X6446253Y-16773436D02*
X6436730Y-16782960D01*
X6436730Y-16782960D02*
X6417682Y-16792484D01*
X6417682Y-16792484D02*
X6389110Y-16792484D01*
X6570063Y-16792484D02*
X6551015Y-16782960D01*
X6551015Y-16782960D02*
X6541491Y-16763912D01*
X6541491Y-16763912D02*
X6541491Y-16592484D01*
X6722444Y-16782960D02*
X6703396Y-16792484D01*
X6703396Y-16792484D02*
X6665301Y-16792484D01*
X6665301Y-16792484D02*
X6646253Y-16782960D01*
X6646253Y-16782960D02*
X6636730Y-16763912D01*
X6636730Y-16763912D02*
X6636730Y-16687722D01*
X6636730Y-16687722D02*
X6646253Y-16668674D01*
X6646253Y-16668674D02*
X6665301Y-16659150D01*
X6665301Y-16659150D02*
X6703396Y-16659150D01*
X6703396Y-16659150D02*
X6722444Y-16668674D01*
X6722444Y-16668674D02*
X6731968Y-16687722D01*
X6731968Y-16687722D02*
X6731968Y-16706769D01*
X6731968Y-16706769D02*
X6636730Y-16725817D01*
X6808158Y-16782960D02*
X6827206Y-16792484D01*
X6827206Y-16792484D02*
X6865301Y-16792484D01*
X6865301Y-16792484D02*
X6884349Y-16782960D01*
X6884349Y-16782960D02*
X6893872Y-16763912D01*
X6893872Y-16763912D02*
X6893872Y-16754388D01*
X6893872Y-16754388D02*
X6884349Y-16735341D01*
X6884349Y-16735341D02*
X6865301Y-16725817D01*
X6865301Y-16725817D02*
X6836730Y-16725817D01*
X6836730Y-16725817D02*
X6817682Y-16716293D01*
X6817682Y-16716293D02*
X6808158Y-16697246D01*
X6808158Y-16697246D02*
X6808158Y-16687722D01*
X6808158Y-16687722D02*
X6817682Y-16668674D01*
X6817682Y-16668674D02*
X6836730Y-16659150D01*
X6836730Y-16659150D02*
X6865301Y-16659150D01*
X6865301Y-16659150D02*
X6884349Y-16668674D01*
X6960539Y-16868674D02*
X6970063Y-16859150D01*
X6970063Y-16859150D02*
X6989111Y-16830579D01*
X6989111Y-16830579D02*
X6998634Y-16811531D01*
X6998634Y-16811531D02*
X7008158Y-16782960D01*
X7008158Y-16782960D02*
X7017682Y-16735341D01*
X7017682Y-16735341D02*
X7017682Y-16697246D01*
X7017682Y-16697246D02*
X7008158Y-16649627D01*
X7008158Y-16649627D02*
X6998634Y-16621055D01*
X6998634Y-16621055D02*
X6989111Y-16602008D01*
X6989111Y-16602008D02*
X6970063Y-16573436D01*
X6970063Y-16573436D02*
X6960539Y-16563912D01*
X1795000Y-16865000D02*
X1995000Y-17065000D01*
X1995000Y-16865000D02*
X1795000Y-17065000D01*
X1995000Y-16965000D02*
G75*
G03*
X1795000Y-16965000I-100000J0D01*
G01*
X1795000Y-16965000D02*
G75*
G03*
X1995000Y-16965000I100000J0D01*
G01*
X2246253Y-16875531D02*
X2255777Y-16866008D01*
X2255777Y-16866008D02*
X2274824Y-16856484D01*
X2274824Y-16856484D02*
X2322444Y-16856484D01*
X2322444Y-16856484D02*
X2341491Y-16866008D01*
X2341491Y-16866008D02*
X2351015Y-16875531D01*
X2351015Y-16875531D02*
X2360539Y-16894579D01*
X2360539Y-16894579D02*
X2360539Y-16913627D01*
X2360539Y-16913627D02*
X2351015Y-16942198D01*
X2351015Y-16942198D02*
X2236729Y-17056484D01*
X2236729Y-17056484D02*
X2360539Y-17056484D01*
X2446253Y-17037436D02*
X2455777Y-17046960D01*
X2455777Y-17046960D02*
X2446253Y-17056484D01*
X2446253Y-17056484D02*
X2436729Y-17046960D01*
X2436729Y-17046960D02*
X2446253Y-17037436D01*
X2446253Y-17037436D02*
X2446253Y-17056484D01*
X2579586Y-16856484D02*
X2598634Y-16856484D01*
X2598634Y-16856484D02*
X2617682Y-16866008D01*
X2617682Y-16866008D02*
X2627205Y-16875531D01*
X2627205Y-16875531D02*
X2636729Y-16894579D01*
X2636729Y-16894579D02*
X2646253Y-16932674D01*
X2646253Y-16932674D02*
X2646253Y-16980293D01*
X2646253Y-16980293D02*
X2636729Y-17018389D01*
X2636729Y-17018389D02*
X2627205Y-17037436D01*
X2627205Y-17037436D02*
X2617682Y-17046960D01*
X2617682Y-17046960D02*
X2598634Y-17056484D01*
X2598634Y-17056484D02*
X2579586Y-17056484D01*
X2579586Y-17056484D02*
X2560539Y-17046960D01*
X2560539Y-17046960D02*
X2551015Y-17037436D01*
X2551015Y-17037436D02*
X2541491Y-17018389D01*
X2541491Y-17018389D02*
X2531967Y-16980293D01*
X2531967Y-16980293D02*
X2531967Y-16932674D01*
X2531967Y-16932674D02*
X2541491Y-16894579D01*
X2541491Y-16894579D02*
X2551015Y-16875531D01*
X2551015Y-16875531D02*
X2560539Y-16866008D01*
X2560539Y-16866008D02*
X2579586Y-16856484D01*
X2722444Y-16875531D02*
X2731967Y-16866008D01*
X2731967Y-16866008D02*
X2751015Y-16856484D01*
X2751015Y-16856484D02*
X2798634Y-16856484D01*
X2798634Y-16856484D02*
X2817682Y-16866008D01*
X2817682Y-16866008D02*
X2827205Y-16875531D01*
X2827205Y-16875531D02*
X2836729Y-16894579D01*
X2836729Y-16894579D02*
X2836729Y-16913627D01*
X2836729Y-16913627D02*
X2827205Y-16942198D01*
X2827205Y-16942198D02*
X2712920Y-17056484D01*
X2712920Y-17056484D02*
X2836729Y-17056484D01*
X3017682Y-16856484D02*
X2922443Y-16856484D01*
X2922443Y-16856484D02*
X2912920Y-16951722D01*
X2912920Y-16951722D02*
X2922443Y-16942198D01*
X2922443Y-16942198D02*
X2941491Y-16932674D01*
X2941491Y-16932674D02*
X2989110Y-16932674D01*
X2989110Y-16932674D02*
X3008158Y-16942198D01*
X3008158Y-16942198D02*
X3017682Y-16951722D01*
X3017682Y-16951722D02*
X3027205Y-16970770D01*
X3027205Y-16970770D02*
X3027205Y-17018389D01*
X3027205Y-17018389D02*
X3017682Y-17037436D01*
X3017682Y-17037436D02*
X3008158Y-17046960D01*
X3008158Y-17046960D02*
X2989110Y-17056484D01*
X2989110Y-17056484D02*
X2941491Y-17056484D01*
X2941491Y-17056484D02*
X2922443Y-17046960D01*
X2922443Y-17046960D02*
X2912920Y-17037436D01*
X3112920Y-17056484D02*
X3112920Y-16923150D01*
X3112920Y-16942198D02*
X3122443Y-16932674D01*
X3122443Y-16932674D02*
X3141491Y-16923150D01*
X3141491Y-16923150D02*
X3170063Y-16923150D01*
X3170063Y-16923150D02*
X3189110Y-16932674D01*
X3189110Y-16932674D02*
X3198634Y-16951722D01*
X3198634Y-16951722D02*
X3198634Y-17056484D01*
X3198634Y-16951722D02*
X3208158Y-16932674D01*
X3208158Y-16932674D02*
X3227205Y-16923150D01*
X3227205Y-16923150D02*
X3255777Y-16923150D01*
X3255777Y-16923150D02*
X3274824Y-16932674D01*
X3274824Y-16932674D02*
X3284348Y-16951722D01*
X3284348Y-16951722D02*
X3284348Y-17056484D01*
X3379586Y-17056484D02*
X3379586Y-16923150D01*
X3379586Y-16942198D02*
X3389110Y-16932674D01*
X3389110Y-16932674D02*
X3408158Y-16923150D01*
X3408158Y-16923150D02*
X3436729Y-16923150D01*
X3436729Y-16923150D02*
X3455777Y-16932674D01*
X3455777Y-16932674D02*
X3465301Y-16951722D01*
X3465301Y-16951722D02*
X3465301Y-17056484D01*
X3465301Y-16951722D02*
X3474824Y-16932674D01*
X3474824Y-16932674D02*
X3493872Y-16923150D01*
X3493872Y-16923150D02*
X3522443Y-16923150D01*
X3522443Y-16923150D02*
X3541491Y-16932674D01*
X3541491Y-16932674D02*
X3551015Y-16951722D01*
X3551015Y-16951722D02*
X3551015Y-17056484D01*
X3941491Y-16846960D02*
X3770063Y-17104103D01*
X4198634Y-16856484D02*
X4217682Y-16856484D01*
X4217682Y-16856484D02*
X4236729Y-16866008D01*
X4236729Y-16866008D02*
X4246253Y-16875531D01*
X4246253Y-16875531D02*
X4255777Y-16894579D01*
X4255777Y-16894579D02*
X4265301Y-16932674D01*
X4265301Y-16932674D02*
X4265301Y-16980293D01*
X4265301Y-16980293D02*
X4255777Y-17018389D01*
X4255777Y-17018389D02*
X4246253Y-17037436D01*
X4246253Y-17037436D02*
X4236729Y-17046960D01*
X4236729Y-17046960D02*
X4217682Y-17056484D01*
X4217682Y-17056484D02*
X4198634Y-17056484D01*
X4198634Y-17056484D02*
X4179586Y-17046960D01*
X4179586Y-17046960D02*
X4170063Y-17037436D01*
X4170063Y-17037436D02*
X4160539Y-17018389D01*
X4160539Y-17018389D02*
X4151015Y-16980293D01*
X4151015Y-16980293D02*
X4151015Y-16932674D01*
X4151015Y-16932674D02*
X4160539Y-16894579D01*
X4160539Y-16894579D02*
X4170063Y-16875531D01*
X4170063Y-16875531D02*
X4179586Y-16866008D01*
X4179586Y-16866008D02*
X4198634Y-16856484D01*
X4351015Y-17037436D02*
X4360539Y-17046960D01*
X4360539Y-17046960D02*
X4351015Y-17056484D01*
X4351015Y-17056484D02*
X4341491Y-17046960D01*
X4341491Y-17046960D02*
X4351015Y-17037436D01*
X4351015Y-17037436D02*
X4351015Y-17056484D01*
X4484348Y-16856484D02*
X4503396Y-16856484D01*
X4503396Y-16856484D02*
X4522444Y-16866008D01*
X4522444Y-16866008D02*
X4531968Y-16875531D01*
X4531968Y-16875531D02*
X4541491Y-16894579D01*
X4541491Y-16894579D02*
X4551015Y-16932674D01*
X4551015Y-16932674D02*
X4551015Y-16980293D01*
X4551015Y-16980293D02*
X4541491Y-17018389D01*
X4541491Y-17018389D02*
X4531968Y-17037436D01*
X4531968Y-17037436D02*
X4522444Y-17046960D01*
X4522444Y-17046960D02*
X4503396Y-17056484D01*
X4503396Y-17056484D02*
X4484348Y-17056484D01*
X4484348Y-17056484D02*
X4465301Y-17046960D01*
X4465301Y-17046960D02*
X4455777Y-17037436D01*
X4455777Y-17037436D02*
X4446253Y-17018389D01*
X4446253Y-17018389D02*
X4436729Y-16980293D01*
X4436729Y-16980293D02*
X4436729Y-16932674D01*
X4436729Y-16932674D02*
X4446253Y-16894579D01*
X4446253Y-16894579D02*
X4455777Y-16875531D01*
X4455777Y-16875531D02*
X4465301Y-16866008D01*
X4465301Y-16866008D02*
X4484348Y-16856484D01*
X4617682Y-16856484D02*
X4751015Y-16856484D01*
X4751015Y-16856484D02*
X4665301Y-17056484D01*
X4836729Y-17056484D02*
X4874825Y-17056484D01*
X4874825Y-17056484D02*
X4893872Y-17046960D01*
X4893872Y-17046960D02*
X4903396Y-17037436D01*
X4903396Y-17037436D02*
X4922444Y-17008865D01*
X4922444Y-17008865D02*
X4931968Y-16970770D01*
X4931968Y-16970770D02*
X4931968Y-16894579D01*
X4931968Y-16894579D02*
X4922444Y-16875531D01*
X4922444Y-16875531D02*
X4912920Y-16866008D01*
X4912920Y-16866008D02*
X4893872Y-16856484D01*
X4893872Y-16856484D02*
X4855777Y-16856484D01*
X4855777Y-16856484D02*
X4836729Y-16866008D01*
X4836729Y-16866008D02*
X4827206Y-16875531D01*
X4827206Y-16875531D02*
X4817682Y-16894579D01*
X4817682Y-16894579D02*
X4817682Y-16942198D01*
X4817682Y-16942198D02*
X4827206Y-16961246D01*
X4827206Y-16961246D02*
X4836729Y-16970770D01*
X4836729Y-16970770D02*
X4855777Y-16980293D01*
X4855777Y-16980293D02*
X4893872Y-16980293D01*
X4893872Y-16980293D02*
X4912920Y-16970770D01*
X4912920Y-16970770D02*
X4922444Y-16961246D01*
X4922444Y-16961246D02*
X4931968Y-16942198D01*
X4998634Y-16856484D02*
X5131968Y-16856484D01*
X5131968Y-16856484D02*
X5046253Y-17056484D01*
X5198634Y-16856484D02*
X5198634Y-16894579D01*
X5274825Y-16856484D02*
X5274825Y-16894579D01*
X5570063Y-17132674D02*
X5560539Y-17123150D01*
X5560539Y-17123150D02*
X5541491Y-17094579D01*
X5541491Y-17094579D02*
X5531968Y-17075531D01*
X5531968Y-17075531D02*
X5522444Y-17046960D01*
X5522444Y-17046960D02*
X5512920Y-16999341D01*
X5512920Y-16999341D02*
X5512920Y-16961246D01*
X5512920Y-16961246D02*
X5522444Y-16913627D01*
X5522444Y-16913627D02*
X5531968Y-16885055D01*
X5531968Y-16885055D02*
X5541491Y-16866008D01*
X5541491Y-16866008D02*
X5560539Y-16837436D01*
X5560539Y-16837436D02*
X5570063Y-16827912D01*
X5636729Y-16875531D02*
X5646253Y-16866008D01*
X5646253Y-16866008D02*
X5665301Y-16856484D01*
X5665301Y-16856484D02*
X5712920Y-16856484D01*
X5712920Y-16856484D02*
X5731968Y-16866008D01*
X5731968Y-16866008D02*
X5741491Y-16875531D01*
X5741491Y-16875531D02*
X5751015Y-16894579D01*
X5751015Y-16894579D02*
X5751015Y-16913627D01*
X5751015Y-16913627D02*
X5741491Y-16942198D01*
X5741491Y-16942198D02*
X5627206Y-17056484D01*
X5627206Y-17056484D02*
X5751015Y-17056484D01*
X5989110Y-17056484D02*
X5989110Y-16856484D01*
X6074825Y-17056484D02*
X6074825Y-16951722D01*
X6074825Y-16951722D02*
X6065301Y-16932674D01*
X6065301Y-16932674D02*
X6046253Y-16923150D01*
X6046253Y-16923150D02*
X6017682Y-16923150D01*
X6017682Y-16923150D02*
X5998634Y-16932674D01*
X5998634Y-16932674D02*
X5989110Y-16942198D01*
X6198634Y-17056484D02*
X6179587Y-17046960D01*
X6179587Y-17046960D02*
X6170063Y-17037436D01*
X6170063Y-17037436D02*
X6160539Y-17018389D01*
X6160539Y-17018389D02*
X6160539Y-16961246D01*
X6160539Y-16961246D02*
X6170063Y-16942198D01*
X6170063Y-16942198D02*
X6179587Y-16932674D01*
X6179587Y-16932674D02*
X6198634Y-16923150D01*
X6198634Y-16923150D02*
X6227206Y-16923150D01*
X6227206Y-16923150D02*
X6246253Y-16932674D01*
X6246253Y-16932674D02*
X6255777Y-16942198D01*
X6255777Y-16942198D02*
X6265301Y-16961246D01*
X6265301Y-16961246D02*
X6265301Y-17018389D01*
X6265301Y-17018389D02*
X6255777Y-17037436D01*
X6255777Y-17037436D02*
X6246253Y-17046960D01*
X6246253Y-17046960D02*
X6227206Y-17056484D01*
X6227206Y-17056484D02*
X6198634Y-17056484D01*
X6379587Y-17056484D02*
X6360539Y-17046960D01*
X6360539Y-17046960D02*
X6351015Y-17027912D01*
X6351015Y-17027912D02*
X6351015Y-16856484D01*
X6531968Y-17046960D02*
X6512920Y-17056484D01*
X6512920Y-17056484D02*
X6474825Y-17056484D01*
X6474825Y-17056484D02*
X6455777Y-17046960D01*
X6455777Y-17046960D02*
X6446253Y-17027912D01*
X6446253Y-17027912D02*
X6446253Y-16951722D01*
X6446253Y-16951722D02*
X6455777Y-16932674D01*
X6455777Y-16932674D02*
X6474825Y-16923150D01*
X6474825Y-16923150D02*
X6512920Y-16923150D01*
X6512920Y-16923150D02*
X6531968Y-16932674D01*
X6531968Y-16932674D02*
X6541491Y-16951722D01*
X6541491Y-16951722D02*
X6541491Y-16970770D01*
X6541491Y-16970770D02*
X6446253Y-16989817D01*
X6617682Y-17046960D02*
X6636730Y-17056484D01*
X6636730Y-17056484D02*
X6674825Y-17056484D01*
X6674825Y-17056484D02*
X6693872Y-17046960D01*
X6693872Y-17046960D02*
X6703396Y-17027912D01*
X6703396Y-17027912D02*
X6703396Y-17018389D01*
X6703396Y-17018389D02*
X6693872Y-16999341D01*
X6693872Y-16999341D02*
X6674825Y-16989817D01*
X6674825Y-16989817D02*
X6646253Y-16989817D01*
X6646253Y-16989817D02*
X6627206Y-16980293D01*
X6627206Y-16980293D02*
X6617682Y-16961246D01*
X6617682Y-16961246D02*
X6617682Y-16951722D01*
X6617682Y-16951722D02*
X6627206Y-16932674D01*
X6627206Y-16932674D02*
X6646253Y-16923150D01*
X6646253Y-16923150D02*
X6674825Y-16923150D01*
X6674825Y-16923150D02*
X6693872Y-16932674D01*
X6770063Y-17132674D02*
X6779587Y-17123150D01*
X6779587Y-17123150D02*
X6798634Y-17094579D01*
X6798634Y-17094579D02*
X6808158Y-17075531D01*
X6808158Y-17075531D02*
X6817682Y-17046960D01*
X6817682Y-17046960D02*
X6827206Y-16999341D01*
X6827206Y-16999341D02*
X6827206Y-16961246D01*
X6827206Y-16961246D02*
X6817682Y-16913627D01*
X6817682Y-16913627D02*
X6808158Y-16885055D01*
X6808158Y-16885055D02*
X6798634Y-16866008D01*
X6798634Y-16866008D02*
X6779587Y-16837436D01*
X6779587Y-16837436D02*
X6770063Y-16827912D01*
X1795000Y-17185000D02*
X1995000Y-17385000D01*
X1995000Y-17185000D02*
X1795000Y-17385000D01*
X1895000Y-17185000D02*
X1895000Y-17385000D01*
X1795000Y-17285000D02*
X1995000Y-17285000D01*
X2341491Y-17243150D02*
X2341491Y-17376484D01*
X2293872Y-17166960D02*
X2246253Y-17309817D01*
X2246253Y-17309817D02*
X2370063Y-17309817D01*
X2446253Y-17357436D02*
X2455777Y-17366960D01*
X2455777Y-17366960D02*
X2446253Y-17376484D01*
X2446253Y-17376484D02*
X2436729Y-17366960D01*
X2436729Y-17366960D02*
X2446253Y-17357436D01*
X2446253Y-17357436D02*
X2446253Y-17376484D01*
X2579586Y-17176484D02*
X2598634Y-17176484D01*
X2598634Y-17176484D02*
X2617682Y-17186008D01*
X2617682Y-17186008D02*
X2627205Y-17195531D01*
X2627205Y-17195531D02*
X2636729Y-17214579D01*
X2636729Y-17214579D02*
X2646253Y-17252674D01*
X2646253Y-17252674D02*
X2646253Y-17300293D01*
X2646253Y-17300293D02*
X2636729Y-17338389D01*
X2636729Y-17338389D02*
X2627205Y-17357436D01*
X2627205Y-17357436D02*
X2617682Y-17366960D01*
X2617682Y-17366960D02*
X2598634Y-17376484D01*
X2598634Y-17376484D02*
X2579586Y-17376484D01*
X2579586Y-17376484D02*
X2560539Y-17366960D01*
X2560539Y-17366960D02*
X2551015Y-17357436D01*
X2551015Y-17357436D02*
X2541491Y-17338389D01*
X2541491Y-17338389D02*
X2531967Y-17300293D01*
X2531967Y-17300293D02*
X2531967Y-17252674D01*
X2531967Y-17252674D02*
X2541491Y-17214579D01*
X2541491Y-17214579D02*
X2551015Y-17195531D01*
X2551015Y-17195531D02*
X2560539Y-17186008D01*
X2560539Y-17186008D02*
X2579586Y-17176484D01*
X2770063Y-17176484D02*
X2789110Y-17176484D01*
X2789110Y-17176484D02*
X2808158Y-17186008D01*
X2808158Y-17186008D02*
X2817682Y-17195531D01*
X2817682Y-17195531D02*
X2827205Y-17214579D01*
X2827205Y-17214579D02*
X2836729Y-17252674D01*
X2836729Y-17252674D02*
X2836729Y-17300293D01*
X2836729Y-17300293D02*
X2827205Y-17338389D01*
X2827205Y-17338389D02*
X2817682Y-17357436D01*
X2817682Y-17357436D02*
X2808158Y-17366960D01*
X2808158Y-17366960D02*
X2789110Y-17376484D01*
X2789110Y-17376484D02*
X2770063Y-17376484D01*
X2770063Y-17376484D02*
X2751015Y-17366960D01*
X2751015Y-17366960D02*
X2741491Y-17357436D01*
X2741491Y-17357436D02*
X2731967Y-17338389D01*
X2731967Y-17338389D02*
X2722444Y-17300293D01*
X2722444Y-17300293D02*
X2722444Y-17252674D01*
X2722444Y-17252674D02*
X2731967Y-17214579D01*
X2731967Y-17214579D02*
X2741491Y-17195531D01*
X2741491Y-17195531D02*
X2751015Y-17186008D01*
X2751015Y-17186008D02*
X2770063Y-17176484D01*
X2960539Y-17176484D02*
X2979586Y-17176484D01*
X2979586Y-17176484D02*
X2998634Y-17186008D01*
X2998634Y-17186008D02*
X3008158Y-17195531D01*
X3008158Y-17195531D02*
X3017682Y-17214579D01*
X3017682Y-17214579D02*
X3027205Y-17252674D01*
X3027205Y-17252674D02*
X3027205Y-17300293D01*
X3027205Y-17300293D02*
X3017682Y-17338389D01*
X3017682Y-17338389D02*
X3008158Y-17357436D01*
X3008158Y-17357436D02*
X2998634Y-17366960D01*
X2998634Y-17366960D02*
X2979586Y-17376484D01*
X2979586Y-17376484D02*
X2960539Y-17376484D01*
X2960539Y-17376484D02*
X2941491Y-17366960D01*
X2941491Y-17366960D02*
X2931967Y-17357436D01*
X2931967Y-17357436D02*
X2922443Y-17338389D01*
X2922443Y-17338389D02*
X2912920Y-17300293D01*
X2912920Y-17300293D02*
X2912920Y-17252674D01*
X2912920Y-17252674D02*
X2922443Y-17214579D01*
X2922443Y-17214579D02*
X2931967Y-17195531D01*
X2931967Y-17195531D02*
X2941491Y-17186008D01*
X2941491Y-17186008D02*
X2960539Y-17176484D01*
X3112920Y-17376484D02*
X3112920Y-17243150D01*
X3112920Y-17262198D02*
X3122443Y-17252674D01*
X3122443Y-17252674D02*
X3141491Y-17243150D01*
X3141491Y-17243150D02*
X3170063Y-17243150D01*
X3170063Y-17243150D02*
X3189110Y-17252674D01*
X3189110Y-17252674D02*
X3198634Y-17271722D01*
X3198634Y-17271722D02*
X3198634Y-17376484D01*
X3198634Y-17271722D02*
X3208158Y-17252674D01*
X3208158Y-17252674D02*
X3227205Y-17243150D01*
X3227205Y-17243150D02*
X3255777Y-17243150D01*
X3255777Y-17243150D02*
X3274824Y-17252674D01*
X3274824Y-17252674D02*
X3284348Y-17271722D01*
X3284348Y-17271722D02*
X3284348Y-17376484D01*
X3379586Y-17376484D02*
X3379586Y-17243150D01*
X3379586Y-17262198D02*
X3389110Y-17252674D01*
X3389110Y-17252674D02*
X3408158Y-17243150D01*
X3408158Y-17243150D02*
X3436729Y-17243150D01*
X3436729Y-17243150D02*
X3455777Y-17252674D01*
X3455777Y-17252674D02*
X3465301Y-17271722D01*
X3465301Y-17271722D02*
X3465301Y-17376484D01*
X3465301Y-17271722D02*
X3474824Y-17252674D01*
X3474824Y-17252674D02*
X3493872Y-17243150D01*
X3493872Y-17243150D02*
X3522443Y-17243150D01*
X3522443Y-17243150D02*
X3541491Y-17252674D01*
X3541491Y-17252674D02*
X3551015Y-17271722D01*
X3551015Y-17271722D02*
X3551015Y-17376484D01*
X3941491Y-17166960D02*
X3770063Y-17424103D01*
X4198634Y-17176484D02*
X4217682Y-17176484D01*
X4217682Y-17176484D02*
X4236729Y-17186008D01*
X4236729Y-17186008D02*
X4246253Y-17195531D01*
X4246253Y-17195531D02*
X4255777Y-17214579D01*
X4255777Y-17214579D02*
X4265301Y-17252674D01*
X4265301Y-17252674D02*
X4265301Y-17300293D01*
X4265301Y-17300293D02*
X4255777Y-17338389D01*
X4255777Y-17338389D02*
X4246253Y-17357436D01*
X4246253Y-17357436D02*
X4236729Y-17366960D01*
X4236729Y-17366960D02*
X4217682Y-17376484D01*
X4217682Y-17376484D02*
X4198634Y-17376484D01*
X4198634Y-17376484D02*
X4179586Y-17366960D01*
X4179586Y-17366960D02*
X4170063Y-17357436D01*
X4170063Y-17357436D02*
X4160539Y-17338389D01*
X4160539Y-17338389D02*
X4151015Y-17300293D01*
X4151015Y-17300293D02*
X4151015Y-17252674D01*
X4151015Y-17252674D02*
X4160539Y-17214579D01*
X4160539Y-17214579D02*
X4170063Y-17195531D01*
X4170063Y-17195531D02*
X4179586Y-17186008D01*
X4179586Y-17186008D02*
X4198634Y-17176484D01*
X4351015Y-17357436D02*
X4360539Y-17366960D01*
X4360539Y-17366960D02*
X4351015Y-17376484D01*
X4351015Y-17376484D02*
X4341491Y-17366960D01*
X4341491Y-17366960D02*
X4351015Y-17357436D01*
X4351015Y-17357436D02*
X4351015Y-17376484D01*
X4551015Y-17376484D02*
X4436729Y-17376484D01*
X4493872Y-17376484D02*
X4493872Y-17176484D01*
X4493872Y-17176484D02*
X4474825Y-17205055D01*
X4474825Y-17205055D02*
X4455777Y-17224103D01*
X4455777Y-17224103D02*
X4436729Y-17233627D01*
X4731968Y-17176484D02*
X4636729Y-17176484D01*
X4636729Y-17176484D02*
X4627206Y-17271722D01*
X4627206Y-17271722D02*
X4636729Y-17262198D01*
X4636729Y-17262198D02*
X4655777Y-17252674D01*
X4655777Y-17252674D02*
X4703396Y-17252674D01*
X4703396Y-17252674D02*
X4722444Y-17262198D01*
X4722444Y-17262198D02*
X4731968Y-17271722D01*
X4731968Y-17271722D02*
X4741491Y-17290770D01*
X4741491Y-17290770D02*
X4741491Y-17338389D01*
X4741491Y-17338389D02*
X4731968Y-17357436D01*
X4731968Y-17357436D02*
X4722444Y-17366960D01*
X4722444Y-17366960D02*
X4703396Y-17376484D01*
X4703396Y-17376484D02*
X4655777Y-17376484D01*
X4655777Y-17376484D02*
X4636729Y-17366960D01*
X4636729Y-17366960D02*
X4627206Y-17357436D01*
X4808158Y-17176484D02*
X4941491Y-17176484D01*
X4941491Y-17176484D02*
X4855777Y-17376484D01*
X5112920Y-17176484D02*
X5017682Y-17176484D01*
X5017682Y-17176484D02*
X5008158Y-17271722D01*
X5008158Y-17271722D02*
X5017682Y-17262198D01*
X5017682Y-17262198D02*
X5036729Y-17252674D01*
X5036729Y-17252674D02*
X5084349Y-17252674D01*
X5084349Y-17252674D02*
X5103396Y-17262198D01*
X5103396Y-17262198D02*
X5112920Y-17271722D01*
X5112920Y-17271722D02*
X5122444Y-17290770D01*
X5122444Y-17290770D02*
X5122444Y-17338389D01*
X5122444Y-17338389D02*
X5112920Y-17357436D01*
X5112920Y-17357436D02*
X5103396Y-17366960D01*
X5103396Y-17366960D02*
X5084349Y-17376484D01*
X5084349Y-17376484D02*
X5036729Y-17376484D01*
X5036729Y-17376484D02*
X5017682Y-17366960D01*
X5017682Y-17366960D02*
X5008158Y-17357436D01*
X5198634Y-17176484D02*
X5198634Y-17214579D01*
X5274825Y-17176484D02*
X5274825Y-17214579D01*
X5570063Y-17452674D02*
X5560539Y-17443150D01*
X5560539Y-17443150D02*
X5541491Y-17414579D01*
X5541491Y-17414579D02*
X5531968Y-17395531D01*
X5531968Y-17395531D02*
X5522444Y-17366960D01*
X5522444Y-17366960D02*
X5512920Y-17319341D01*
X5512920Y-17319341D02*
X5512920Y-17281246D01*
X5512920Y-17281246D02*
X5522444Y-17233627D01*
X5522444Y-17233627D02*
X5531968Y-17205055D01*
X5531968Y-17205055D02*
X5541491Y-17186008D01*
X5541491Y-17186008D02*
X5560539Y-17157436D01*
X5560539Y-17157436D02*
X5570063Y-17147912D01*
X5731968Y-17243150D02*
X5731968Y-17376484D01*
X5684348Y-17166960D02*
X5636729Y-17309817D01*
X5636729Y-17309817D02*
X5760539Y-17309817D01*
X5989110Y-17376484D02*
X5989110Y-17176484D01*
X6074825Y-17376484D02*
X6074825Y-17271722D01*
X6074825Y-17271722D02*
X6065301Y-17252674D01*
X6065301Y-17252674D02*
X6046253Y-17243150D01*
X6046253Y-17243150D02*
X6017682Y-17243150D01*
X6017682Y-17243150D02*
X5998634Y-17252674D01*
X5998634Y-17252674D02*
X5989110Y-17262198D01*
X6198634Y-17376484D02*
X6179587Y-17366960D01*
X6179587Y-17366960D02*
X6170063Y-17357436D01*
X6170063Y-17357436D02*
X6160539Y-17338389D01*
X6160539Y-17338389D02*
X6160539Y-17281246D01*
X6160539Y-17281246D02*
X6170063Y-17262198D01*
X6170063Y-17262198D02*
X6179587Y-17252674D01*
X6179587Y-17252674D02*
X6198634Y-17243150D01*
X6198634Y-17243150D02*
X6227206Y-17243150D01*
X6227206Y-17243150D02*
X6246253Y-17252674D01*
X6246253Y-17252674D02*
X6255777Y-17262198D01*
X6255777Y-17262198D02*
X6265301Y-17281246D01*
X6265301Y-17281246D02*
X6265301Y-17338389D01*
X6265301Y-17338389D02*
X6255777Y-17357436D01*
X6255777Y-17357436D02*
X6246253Y-17366960D01*
X6246253Y-17366960D02*
X6227206Y-17376484D01*
X6227206Y-17376484D02*
X6198634Y-17376484D01*
X6379587Y-17376484D02*
X6360539Y-17366960D01*
X6360539Y-17366960D02*
X6351015Y-17347912D01*
X6351015Y-17347912D02*
X6351015Y-17176484D01*
X6531968Y-17366960D02*
X6512920Y-17376484D01*
X6512920Y-17376484D02*
X6474825Y-17376484D01*
X6474825Y-17376484D02*
X6455777Y-17366960D01*
X6455777Y-17366960D02*
X6446253Y-17347912D01*
X6446253Y-17347912D02*
X6446253Y-17271722D01*
X6446253Y-17271722D02*
X6455777Y-17252674D01*
X6455777Y-17252674D02*
X6474825Y-17243150D01*
X6474825Y-17243150D02*
X6512920Y-17243150D01*
X6512920Y-17243150D02*
X6531968Y-17252674D01*
X6531968Y-17252674D02*
X6541491Y-17271722D01*
X6541491Y-17271722D02*
X6541491Y-17290770D01*
X6541491Y-17290770D02*
X6446253Y-17309817D01*
X6617682Y-17366960D02*
X6636730Y-17376484D01*
X6636730Y-17376484D02*
X6674825Y-17376484D01*
X6674825Y-17376484D02*
X6693872Y-17366960D01*
X6693872Y-17366960D02*
X6703396Y-17347912D01*
X6703396Y-17347912D02*
X6703396Y-17338389D01*
X6703396Y-17338389D02*
X6693872Y-17319341D01*
X6693872Y-17319341D02*
X6674825Y-17309817D01*
X6674825Y-17309817D02*
X6646253Y-17309817D01*
X6646253Y-17309817D02*
X6627206Y-17300293D01*
X6627206Y-17300293D02*
X6617682Y-17281246D01*
X6617682Y-17281246D02*
X6617682Y-17271722D01*
X6617682Y-17271722D02*
X6627206Y-17252674D01*
X6627206Y-17252674D02*
X6646253Y-17243150D01*
X6646253Y-17243150D02*
X6674825Y-17243150D01*
X6674825Y-17243150D02*
X6693872Y-17252674D01*
X6770063Y-17452674D02*
X6779587Y-17443150D01*
X6779587Y-17443150D02*
X6798634Y-17414579D01*
X6798634Y-17414579D02*
X6808158Y-17395531D01*
X6808158Y-17395531D02*
X6817682Y-17366960D01*
X6817682Y-17366960D02*
X6827206Y-17319341D01*
X6827206Y-17319341D02*
X6827206Y-17281246D01*
X6827206Y-17281246D02*
X6817682Y-17233627D01*
X6817682Y-17233627D02*
X6808158Y-17205055D01*
X6808158Y-17205055D02*
X6798634Y-17186008D01*
X6798634Y-17186008D02*
X6779587Y-17157436D01*
X6779587Y-17157436D02*
X6770063Y-17147912D01*
M02*
