M48
; DRILL file {KiCad 7.0.10} date Sun Dec  8 15:27:33 2024
; FORMAT={-:-/ absolute / inch / decimal}
; #@! TF.CreationDate,2024-12-08T15:27:33+00:00
; #@! TF.GenerationSoftware,Kicad,Pcbnew,7.0.10
; #@! TF.FileFunction,Plated,1,2,PTH
FMAT,2
INCH
; #@! TA.AperFunction,Plated,PTH,ViaDrill
T1C0.0118
; #@! TA.AperFunction,Plated,PTH,ComponentDrill
T2C0.0390
; #@! TA.AperFunction,Plated,PTH,ComponentDrill
T3C0.0413
; #@! TA.AperFunction,Plated,PTH,ComponentDrill
T4C0.0433
; #@! TA.AperFunction,Plated,PTH,ComponentDrill
T5C0.0472
; #@! TA.AperFunction,Plated,PTH,ComponentDrill
T6C0.1575
%
G90
G05
T1
X1.31Y-3.75
X1.3386Y-4.5669
X1.62Y-1.226
X1.674Y-1.295
X1.886Y-2.978
X2.101Y-1.24
X2.134Y-1.324
X2.45Y-1.714
X2.5197Y-2.2835
X2.5591Y-2.201
X2.575Y-1.245
X2.583Y-1.379
X2.884Y-2.74
X2.944Y-2.085
X2.945Y-2.474
X2.983Y-2.889
X3.072Y-2.908
X3.0791Y-2.7369
X3.093Y-2.27
X3.1102Y-2.3228
X3.132Y-2.213
X3.159Y-1.708
X3.181Y-2.788
X3.195Y-2.651
X3.3071Y-2.5591
X3.338Y-2.792
X3.358Y-2.437
X3.368Y-1.823
X3.373Y-3.138
X3.3858Y-2.7165
X3.3858Y-3.0709
X3.453Y-1.829
X3.4646Y-2.874
X3.4646Y-3.0315
X3.484Y-2.444
X3.527Y-2.813
X3.621Y-2.511
X3.622Y-2.8346
X3.6457Y-1.3819
X3.695Y-2.601
X3.7087Y-1.4882
X3.7913Y-2.1496
X3.8Y-2.366
X3.802Y-2.691
X3.8228Y-2.1614
X3.8898Y-2.2126
X3.955Y-3.19
X3.9606Y-4.2717
X3.978Y-3.09
X4.0472Y-2.0945
X4.07Y-2.963
X4.115Y-3.138
X4.148Y-2.731
X4.2165Y-0.9291
X4.298Y-2.924
X4.3Y-2.878
X4.325Y-2.904
X4.619Y-3.035
X4.659Y-4.037
X4.861Y-1.344
X4.936Y-2.83
X5.013Y-2.998
X5.062Y-3.084
X5.094Y-2.829
X5.194Y-2.881
X5.562Y-2.522
X5.617Y-4.086
X5.71Y-2.782
X5.859Y-2.092
X6.072Y-3.311
X6.554Y-2.057
T2
X5.6087Y-2.6299
X5.8087Y-2.5899
X5.8087Y-2.6699
T3
X5.4945Y-1.8029
X5.4945Y-2.0391
X5.8095Y-1.8029
X5.8095Y-2.0391
T4
X2.3622Y-2.1803
X2.3622Y-2.2803
X2.3622Y-2.3803
X2.3622Y-2.4803
X2.3622Y-2.5803
X2.3622Y-2.6803
X2.3622Y-2.7803
X2.3622Y-2.8803
X2.3622Y-2.9803
X2.3622Y-3.0803
X2.4622Y-2.1803
X2.4622Y-2.2803
X2.4622Y-2.3803
X2.4622Y-2.4803
X2.4622Y-2.5803
X2.4622Y-2.6803
X2.4622Y-2.7803
X2.4622Y-2.8803
X2.4622Y-2.9803
X2.4622Y-3.0803
T5
X2.0531Y-4.6031
X2.0531Y-4.8031
X2.1531Y-4.6031
X2.1531Y-4.8031
X2.3031Y-4.5031
X2.3031Y-4.7031
X2.3031Y-4.9031
X3.0531Y-4.6031
X3.0531Y-4.8031
X3.1531Y-4.6031
X3.1531Y-4.8031
X3.3031Y-4.5031
X3.3031Y-4.7031
X3.3031Y-4.9031
X3.9409Y-0.685
X3.9409Y-0.785
X3.9409Y-0.885
X3.9409Y-0.985
X3.9409Y-1.085
X3.9409Y-1.185
X3.9409Y-1.285
X3.9409Y-1.385
X3.9409Y-1.485
X4.5512Y-0.685
X4.5512Y-0.785
X4.5512Y-0.885
X4.5512Y-0.985
X4.5512Y-1.085
X4.5512Y-1.185
X4.5512Y-1.285
X4.5512Y-1.385
X4.5512Y-1.485
X4.8531Y-4.6031
X4.8531Y-4.8031
X4.9531Y-4.6031
X4.9531Y-4.8031
X5.1031Y-4.5031
X5.1031Y-4.7031
X5.1031Y-4.9031
X5.8531Y-4.6031
X5.8531Y-4.8031
X5.9531Y-4.6031
X5.9531Y-4.8031
X6.1031Y-4.5031
X6.1031Y-4.7031
X6.1031Y-4.9031
T6
X1.5276Y-4.811
X1.5276Y-4.811
X1.5354Y-0.9843
X6.5354Y-4.8425
X6.5433Y-1.0157
M30
