%TF.GenerationSoftware,KiCad,Pcbnew,7.0.10*%
%TF.CreationDate,2024-01-21T00:45:49+00:00*%
%TF.ProjectId,buran,62757261-6e2e-46b6-9963-61645f706362,rev?*%
%TF.SameCoordinates,Original*%
%TF.FileFunction,Paste,Top*%
%TF.FilePolarity,Positive*%
%FSLAX46Y46*%
G04 Gerber Fmt 4.6, Leading zero omitted, Abs format (unit mm)*
G04 Created by KiCad (PCBNEW 7.0.10) date 2024-01-21 00:45:49*
%MOMM*%
%LPD*%
G01*
G04 APERTURE LIST*
%ADD10R,0.900000X0.650000*%
%ADD11R,1.526000X0.435000*%
%ADD12R,0.450000X1.100000*%
%ADD13R,0.650000X0.900000*%
%ADD14R,1.100000X0.650000*%
%ADD15R,5.750000X2.450000*%
%ADD16R,0.450000X1.475000*%
%ADD17R,0.980000X0.780000*%
%ADD18R,1.925000X0.650000*%
%ADD19R,0.780000X0.980000*%
%ADD20R,0.550000X1.150000*%
%ADD21R,0.600000X0.900000*%
G04 APERTURE END LIST*
D10*
%TO.C,R6*%
X160020000Y-105955000D03*
X160020000Y-107405000D03*
%TD*%
D11*
%TO.C,IC4*%
X122256000Y-44006000D03*
X122256000Y-44640000D03*
X122256000Y-45276000D03*
X122256000Y-45910000D03*
X122256000Y-46546000D03*
X122256000Y-47180000D03*
X122256000Y-47816000D03*
X122256000Y-48450000D03*
X127680000Y-48450000D03*
X127680000Y-47816000D03*
X127680000Y-47180000D03*
X127680000Y-46546000D03*
X127680000Y-45910000D03*
X127680000Y-45276000D03*
X127680000Y-44640000D03*
X127680000Y-44006000D03*
%TD*%
D12*
%TO.C,J2*%
X126300000Y-28435000D03*
X125650000Y-28435000D03*
X125000000Y-28435000D03*
X124350000Y-28435000D03*
X123700000Y-28435000D03*
%TD*%
D13*
%TO.C,R2*%
X179033000Y-35560000D03*
X177583000Y-35560000D03*
%TD*%
D14*
%TO.C,LED_MCU_1*%
X177508000Y-32004000D03*
X179108000Y-32004000D03*
%TD*%
D10*
%TO.C,R7*%
X187452000Y-105955000D03*
X187452000Y-107405000D03*
%TD*%
D15*
%TO.C,IC3*%
X124460000Y-90932000D03*
D16*
X120235000Y-87994000D03*
X120885000Y-87994000D03*
X121535000Y-87994000D03*
X122185000Y-87994000D03*
X122835000Y-87994000D03*
X123485000Y-87994000D03*
X124135000Y-87994000D03*
X124785000Y-87994000D03*
X125435000Y-87994000D03*
X126085000Y-87994000D03*
X126735000Y-87994000D03*
X127385000Y-87994000D03*
X128035000Y-87994000D03*
X128685000Y-87994000D03*
X128685000Y-93870000D03*
X128035000Y-93870000D03*
X127385000Y-93870000D03*
X126735000Y-93870000D03*
X126085000Y-93870000D03*
X125435000Y-93870000D03*
X124785000Y-93870000D03*
X124135000Y-93870000D03*
X123485000Y-93870000D03*
X122835000Y-93870000D03*
X122185000Y-93870000D03*
X121535000Y-93870000D03*
X120885000Y-93870000D03*
X120235000Y-93870000D03*
%TD*%
D10*
%TO.C,R10*%
X123444000Y-35634000D03*
X123444000Y-37084000D03*
%TD*%
D17*
%TO.C,C3*%
X138176000Y-41532000D03*
X138176000Y-40132000D03*
%TD*%
D10*
%TO.C,R5*%
X97536000Y-105230000D03*
X97536000Y-106680000D03*
%TD*%
%TO.C,R4*%
X65024000Y-105447000D03*
X65024000Y-106897000D03*
%TD*%
%TO.C,R9*%
X126492000Y-35634000D03*
X126492000Y-37084000D03*
%TD*%
D18*
%TO.C,IC5*%
X120000000Y-59840000D03*
X120000000Y-61110000D03*
X120000000Y-62380000D03*
X120000000Y-63650000D03*
X120000000Y-64920000D03*
X120000000Y-66190000D03*
X120000000Y-67460000D03*
X120000000Y-68730000D03*
X120000000Y-70000000D03*
X120000000Y-71270000D03*
X129424000Y-71270000D03*
X129424000Y-70000000D03*
X129424000Y-68730000D03*
X129424000Y-67460000D03*
X129424000Y-66190000D03*
X129424000Y-64920000D03*
X129424000Y-63650000D03*
X129424000Y-62380000D03*
X129424000Y-61110000D03*
X129424000Y-59840000D03*
%TD*%
D10*
%TO.C,R11*%
X124460000Y-85561000D03*
X124460000Y-84111000D03*
%TD*%
D17*
%TO.C,C2*%
X143256000Y-35244000D03*
X143256000Y-33844000D03*
%TD*%
%TO.C,C7*%
X115824000Y-87060000D03*
X115824000Y-85660000D03*
%TD*%
D13*
%TO.C,R1*%
X166841000Y-35560000D03*
X165391000Y-35560000D03*
%TD*%
D19*
%TO.C,C4*%
X129032000Y-32512000D03*
X127632000Y-32512000D03*
%TD*%
D13*
%TO.C,R13*%
X111977000Y-67056000D03*
X110527000Y-67056000D03*
%TD*%
%TO.C,R12*%
X111977000Y-64516000D03*
X110527000Y-64516000D03*
%TD*%
%TO.C,R3*%
X191225000Y-35560000D03*
X189775000Y-35560000D03*
%TD*%
%TO.C,R14*%
X103649637Y-47244000D03*
X102199637Y-47244000D03*
%TD*%
D20*
%TO.C,IC2*%
X133970000Y-42656000D03*
X135270000Y-42656000D03*
X134620000Y-40656000D03*
%TD*%
D14*
%TO.C,LED_MCU_2*%
X189700000Y-32004000D03*
X191300000Y-32004000D03*
%TD*%
D13*
%TO.C,R8*%
X114083000Y-93980000D03*
X115533000Y-93980000D03*
%TD*%
D17*
%TO.C,C9*%
X136652000Y-68264000D03*
X136652000Y-66864000D03*
%TD*%
D21*
%TO.C,IC1*%
X140142000Y-31112000D03*
X139192000Y-31112000D03*
X138242000Y-31112000D03*
X138242000Y-33912000D03*
X140142000Y-33912000D03*
%TD*%
D19*
%TO.C,C6*%
X132904000Y-27940000D03*
X134304000Y-27940000D03*
%TD*%
%TO.C,C8*%
X130556000Y-42672000D03*
X129156000Y-42672000D03*
%TD*%
%TO.C,C1*%
X139892000Y-27940000D03*
X138492000Y-27940000D03*
%TD*%
%TO.C,C5*%
X120712000Y-32512000D03*
X122112000Y-32512000D03*
%TD*%
D17*
%TO.C,C10*%
X141224000Y-68264000D03*
X141224000Y-66864000D03*
%TD*%
D14*
%TO.C,LED_POWER1*%
X165316000Y-32004000D03*
X166916000Y-32004000D03*
%TD*%
M02*
