%TF.GenerationSoftware,KiCad,Pcbnew,7.0.10*%
%TF.CreationDate,2024-01-23T19:04:03+00:00*%
%TF.ProjectId,buran,62757261-6e2e-46b6-9963-61645f706362,rev?*%
%TF.SameCoordinates,Original*%
%TF.FileFunction,Legend,Bot*%
%TF.FilePolarity,Positive*%
%FSLAX46Y46*%
G04 Gerber Fmt 4.6, Leading zero omitted, Abs format (unit mm)*
G04 Created by KiCad (PCBNEW 7.0.10) date 2024-01-23 19:04:03*
%MOMM*%
%LPD*%
G01*
G04 APERTURE LIST*
%ADD10C,0.152400*%
G04 APERTURE END LIST*
D10*
X126435279Y-146786851D02*
X126319165Y-146825556D01*
X126319165Y-146825556D02*
X126280460Y-146864260D01*
X126280460Y-146864260D02*
X126241756Y-146941670D01*
X126241756Y-146941670D02*
X126241756Y-147057784D01*
X126241756Y-147057784D02*
X126280460Y-147135194D01*
X126280460Y-147135194D02*
X126319165Y-147173899D01*
X126319165Y-147173899D02*
X126396575Y-147212603D01*
X126396575Y-147212603D02*
X126706213Y-147212603D01*
X126706213Y-147212603D02*
X126706213Y-146399803D01*
X126706213Y-146399803D02*
X126435279Y-146399803D01*
X126435279Y-146399803D02*
X126357870Y-146438508D01*
X126357870Y-146438508D02*
X126319165Y-146477213D01*
X126319165Y-146477213D02*
X126280460Y-146554622D01*
X126280460Y-146554622D02*
X126280460Y-146632032D01*
X126280460Y-146632032D02*
X126319165Y-146709441D01*
X126319165Y-146709441D02*
X126357870Y-146748146D01*
X126357870Y-146748146D02*
X126435279Y-146786851D01*
X126435279Y-146786851D02*
X126706213Y-146786851D01*
X125545070Y-146670737D02*
X125545070Y-147212603D01*
X125893413Y-146670737D02*
X125893413Y-147096489D01*
X125893413Y-147096489D02*
X125854708Y-147173899D01*
X125854708Y-147173899D02*
X125777298Y-147212603D01*
X125777298Y-147212603D02*
X125661184Y-147212603D01*
X125661184Y-147212603D02*
X125583775Y-147173899D01*
X125583775Y-147173899D02*
X125545070Y-147135194D01*
X125158023Y-147212603D02*
X125158023Y-146670737D01*
X125158023Y-146825556D02*
X125119318Y-146748146D01*
X125119318Y-146748146D02*
X125080613Y-146709441D01*
X125080613Y-146709441D02*
X125003204Y-146670737D01*
X125003204Y-146670737D02*
X124925794Y-146670737D01*
X124306518Y-147212603D02*
X124306518Y-146786851D01*
X124306518Y-146786851D02*
X124345223Y-146709441D01*
X124345223Y-146709441D02*
X124422632Y-146670737D01*
X124422632Y-146670737D02*
X124577451Y-146670737D01*
X124577451Y-146670737D02*
X124654861Y-146709441D01*
X124306518Y-147173899D02*
X124383927Y-147212603D01*
X124383927Y-147212603D02*
X124577451Y-147212603D01*
X124577451Y-147212603D02*
X124654861Y-147173899D01*
X124654861Y-147173899D02*
X124693565Y-147096489D01*
X124693565Y-147096489D02*
X124693565Y-147019079D01*
X124693565Y-147019079D02*
X124654861Y-146941670D01*
X124654861Y-146941670D02*
X124577451Y-146902965D01*
X124577451Y-146902965D02*
X124383927Y-146902965D01*
X124383927Y-146902965D02*
X124306518Y-146864260D01*
X123919471Y-146670737D02*
X123919471Y-147212603D01*
X123919471Y-146748146D02*
X123880766Y-146709441D01*
X123880766Y-146709441D02*
X123803356Y-146670737D01*
X123803356Y-146670737D02*
X123687242Y-146670737D01*
X123687242Y-146670737D02*
X123609833Y-146709441D01*
X123609833Y-146709441D02*
X123571128Y-146786851D01*
X123571128Y-146786851D02*
X123571128Y-147212603D01*
X122603509Y-146477213D02*
X122564805Y-146438508D01*
X122564805Y-146438508D02*
X122487395Y-146399803D01*
X122487395Y-146399803D02*
X122293871Y-146399803D01*
X122293871Y-146399803D02*
X122216462Y-146438508D01*
X122216462Y-146438508D02*
X122177757Y-146477213D01*
X122177757Y-146477213D02*
X122139052Y-146554622D01*
X122139052Y-146554622D02*
X122139052Y-146632032D01*
X122139052Y-146632032D02*
X122177757Y-146748146D01*
X122177757Y-146748146D02*
X122642214Y-147212603D01*
X122642214Y-147212603D02*
X122139052Y-147212603D01*
X121635891Y-146399803D02*
X121558481Y-146399803D01*
X121558481Y-146399803D02*
X121481072Y-146438508D01*
X121481072Y-146438508D02*
X121442367Y-146477213D01*
X121442367Y-146477213D02*
X121403662Y-146554622D01*
X121403662Y-146554622D02*
X121364957Y-146709441D01*
X121364957Y-146709441D02*
X121364957Y-146902965D01*
X121364957Y-146902965D02*
X121403662Y-147057784D01*
X121403662Y-147057784D02*
X121442367Y-147135194D01*
X121442367Y-147135194D02*
X121481072Y-147173899D01*
X121481072Y-147173899D02*
X121558481Y-147212603D01*
X121558481Y-147212603D02*
X121635891Y-147212603D01*
X121635891Y-147212603D02*
X121713300Y-147173899D01*
X121713300Y-147173899D02*
X121752005Y-147135194D01*
X121752005Y-147135194D02*
X121790710Y-147057784D01*
X121790710Y-147057784D02*
X121829414Y-146902965D01*
X121829414Y-146902965D02*
X121829414Y-146709441D01*
X121829414Y-146709441D02*
X121790710Y-146554622D01*
X121790710Y-146554622D02*
X121752005Y-146477213D01*
X121752005Y-146477213D02*
X121713300Y-146438508D01*
X121713300Y-146438508D02*
X121635891Y-146399803D01*
X121055319Y-146477213D02*
X121016615Y-146438508D01*
X121016615Y-146438508D02*
X120939205Y-146399803D01*
X120939205Y-146399803D02*
X120745681Y-146399803D01*
X120745681Y-146399803D02*
X120668272Y-146438508D01*
X120668272Y-146438508D02*
X120629567Y-146477213D01*
X120629567Y-146477213D02*
X120590862Y-146554622D01*
X120590862Y-146554622D02*
X120590862Y-146632032D01*
X120590862Y-146632032D02*
X120629567Y-146748146D01*
X120629567Y-146748146D02*
X121094024Y-147212603D01*
X121094024Y-147212603D02*
X120590862Y-147212603D01*
X119894177Y-146670737D02*
X119894177Y-147212603D01*
X120087701Y-146361099D02*
X120281224Y-146941670D01*
X120281224Y-146941670D02*
X119778063Y-146941670D01*
M02*
