%TF.GenerationSoftware,KiCad,Pcbnew,7.0.10*%
%TF.CreationDate,2024-12-08T15:27:32+00:00*%
%TF.ProjectId,buran,62757261-6e2e-46b6-9963-61645f706362,rev?*%
%TF.SameCoordinates,Original*%
%TF.FileFunction,Legend,Top*%
%TF.FilePolarity,Positive*%
%FSLAX46Y46*%
G04 Gerber Fmt 4.6, Leading zero omitted, Abs format (unit mm)*
G04 Created by KiCad (PCBNEW 7.0.10) date 2024-12-08 15:27:32*
%MOMM*%
%LPD*%
G01*
G04 APERTURE LIST*
%ADD10C,0.100000*%
%ADD11C,0.127000*%
%ADD12C,0.254000*%
%ADD13C,0.200000*%
%ADD14C,0.495000*%
%ADD15C,1.650000*%
%ADD16R,1.650000X1.650000*%
%ADD17R,1.800000X1.800000*%
%ADD18C,1.800000*%
%ADD19C,1.575000*%
G04 APERTURE END LIST*
D10*
X45696646Y-65856291D02*
X45696646Y-64332291D01*
X45696646Y-64332291D02*
X46204646Y-65420862D01*
X46204646Y-65420862D02*
X46712646Y-64332291D01*
X46712646Y-64332291D02*
X46712646Y-65856291D01*
X48309217Y-65711148D02*
X48236645Y-65783720D01*
X48236645Y-65783720D02*
X48018931Y-65856291D01*
X48018931Y-65856291D02*
X47873788Y-65856291D01*
X47873788Y-65856291D02*
X47656074Y-65783720D01*
X47656074Y-65783720D02*
X47510931Y-65638577D01*
X47510931Y-65638577D02*
X47438360Y-65493434D01*
X47438360Y-65493434D02*
X47365788Y-65203148D01*
X47365788Y-65203148D02*
X47365788Y-64985434D01*
X47365788Y-64985434D02*
X47438360Y-64695148D01*
X47438360Y-64695148D02*
X47510931Y-64550005D01*
X47510931Y-64550005D02*
X47656074Y-64404862D01*
X47656074Y-64404862D02*
X47873788Y-64332291D01*
X47873788Y-64332291D02*
X48018931Y-64332291D01*
X48018931Y-64332291D02*
X48236645Y-64404862D01*
X48236645Y-64404862D02*
X48309217Y-64477434D01*
X48962360Y-64332291D02*
X48962360Y-65566005D01*
X48962360Y-65566005D02*
X49034931Y-65711148D01*
X49034931Y-65711148D02*
X49107503Y-65783720D01*
X49107503Y-65783720D02*
X49252645Y-65856291D01*
X49252645Y-65856291D02*
X49542931Y-65856291D01*
X49542931Y-65856291D02*
X49688074Y-65783720D01*
X49688074Y-65783720D02*
X49760645Y-65711148D01*
X49760645Y-65711148D02*
X49833217Y-65566005D01*
X49833217Y-65566005D02*
X49833217Y-64332291D01*
X50196074Y-66001434D02*
X51357216Y-66001434D01*
X51720074Y-65856291D02*
X51720074Y-64332291D01*
X51720074Y-64332291D02*
X52082931Y-64332291D01*
X52082931Y-64332291D02*
X52300645Y-64404862D01*
X52300645Y-64404862D02*
X52445788Y-64550005D01*
X52445788Y-64550005D02*
X52518359Y-64695148D01*
X52518359Y-64695148D02*
X52590931Y-64985434D01*
X52590931Y-64985434D02*
X52590931Y-65203148D01*
X52590931Y-65203148D02*
X52518359Y-65493434D01*
X52518359Y-65493434D02*
X52445788Y-65638577D01*
X52445788Y-65638577D02*
X52300645Y-65783720D01*
X52300645Y-65783720D02*
X52082931Y-65856291D01*
X52082931Y-65856291D02*
X51720074Y-65856291D01*
X53752074Y-65058005D02*
X53969788Y-65130577D01*
X53969788Y-65130577D02*
X54042359Y-65203148D01*
X54042359Y-65203148D02*
X54114931Y-65348291D01*
X54114931Y-65348291D02*
X54114931Y-65566005D01*
X54114931Y-65566005D02*
X54042359Y-65711148D01*
X54042359Y-65711148D02*
X53969788Y-65783720D01*
X53969788Y-65783720D02*
X53824645Y-65856291D01*
X53824645Y-65856291D02*
X53244074Y-65856291D01*
X53244074Y-65856291D02*
X53244074Y-64332291D01*
X53244074Y-64332291D02*
X53752074Y-64332291D01*
X53752074Y-64332291D02*
X53897217Y-64404862D01*
X53897217Y-64404862D02*
X53969788Y-64477434D01*
X53969788Y-64477434D02*
X54042359Y-64622577D01*
X54042359Y-64622577D02*
X54042359Y-64767720D01*
X54042359Y-64767720D02*
X53969788Y-64912862D01*
X53969788Y-64912862D02*
X53897217Y-64985434D01*
X53897217Y-64985434D02*
X53752074Y-65058005D01*
X53752074Y-65058005D02*
X53244074Y-65058005D01*
X55566359Y-64404862D02*
X55421217Y-64332291D01*
X55421217Y-64332291D02*
X55203502Y-64332291D01*
X55203502Y-64332291D02*
X54985788Y-64404862D01*
X54985788Y-64404862D02*
X54840645Y-64550005D01*
X54840645Y-64550005D02*
X54768074Y-64695148D01*
X54768074Y-64695148D02*
X54695502Y-64985434D01*
X54695502Y-64985434D02*
X54695502Y-65203148D01*
X54695502Y-65203148D02*
X54768074Y-65493434D01*
X54768074Y-65493434D02*
X54840645Y-65638577D01*
X54840645Y-65638577D02*
X54985788Y-65783720D01*
X54985788Y-65783720D02*
X55203502Y-65856291D01*
X55203502Y-65856291D02*
X55348645Y-65856291D01*
X55348645Y-65856291D02*
X55566359Y-65783720D01*
X55566359Y-65783720D02*
X55638931Y-65711148D01*
X55638931Y-65711148D02*
X55638931Y-65203148D01*
X55638931Y-65203148D02*
X55348645Y-65203148D01*
X55929217Y-66001434D02*
X57090359Y-66001434D01*
X58178931Y-64332291D02*
X57453217Y-64332291D01*
X57453217Y-64332291D02*
X57380645Y-65058005D01*
X57380645Y-65058005D02*
X57453217Y-64985434D01*
X57453217Y-64985434D02*
X57598360Y-64912862D01*
X57598360Y-64912862D02*
X57961217Y-64912862D01*
X57961217Y-64912862D02*
X58106360Y-64985434D01*
X58106360Y-64985434D02*
X58178931Y-65058005D01*
X58178931Y-65058005D02*
X58251502Y-65203148D01*
X58251502Y-65203148D02*
X58251502Y-65566005D01*
X58251502Y-65566005D02*
X58178931Y-65711148D01*
X58178931Y-65711148D02*
X58106360Y-65783720D01*
X58106360Y-65783720D02*
X57961217Y-65856291D01*
X57961217Y-65856291D02*
X57598360Y-65856291D01*
X57598360Y-65856291D02*
X57453217Y-65783720D01*
X57453217Y-65783720D02*
X57380645Y-65711148D01*
X45696646Y-63316291D02*
X45696646Y-61792291D01*
X45696646Y-61792291D02*
X46204646Y-62880862D01*
X46204646Y-62880862D02*
X46712646Y-61792291D01*
X46712646Y-61792291D02*
X46712646Y-63316291D01*
X48309217Y-63171148D02*
X48236645Y-63243720D01*
X48236645Y-63243720D02*
X48018931Y-63316291D01*
X48018931Y-63316291D02*
X47873788Y-63316291D01*
X47873788Y-63316291D02*
X47656074Y-63243720D01*
X47656074Y-63243720D02*
X47510931Y-63098577D01*
X47510931Y-63098577D02*
X47438360Y-62953434D01*
X47438360Y-62953434D02*
X47365788Y-62663148D01*
X47365788Y-62663148D02*
X47365788Y-62445434D01*
X47365788Y-62445434D02*
X47438360Y-62155148D01*
X47438360Y-62155148D02*
X47510931Y-62010005D01*
X47510931Y-62010005D02*
X47656074Y-61864862D01*
X47656074Y-61864862D02*
X47873788Y-61792291D01*
X47873788Y-61792291D02*
X48018931Y-61792291D01*
X48018931Y-61792291D02*
X48236645Y-61864862D01*
X48236645Y-61864862D02*
X48309217Y-61937434D01*
X48962360Y-61792291D02*
X48962360Y-63026005D01*
X48962360Y-63026005D02*
X49034931Y-63171148D01*
X49034931Y-63171148D02*
X49107503Y-63243720D01*
X49107503Y-63243720D02*
X49252645Y-63316291D01*
X49252645Y-63316291D02*
X49542931Y-63316291D01*
X49542931Y-63316291D02*
X49688074Y-63243720D01*
X49688074Y-63243720D02*
X49760645Y-63171148D01*
X49760645Y-63171148D02*
X49833217Y-63026005D01*
X49833217Y-63026005D02*
X49833217Y-61792291D01*
X50196074Y-63461434D02*
X51357216Y-63461434D01*
X51720074Y-63316291D02*
X51720074Y-61792291D01*
X51720074Y-61792291D02*
X52082931Y-61792291D01*
X52082931Y-61792291D02*
X52300645Y-61864862D01*
X52300645Y-61864862D02*
X52445788Y-62010005D01*
X52445788Y-62010005D02*
X52518359Y-62155148D01*
X52518359Y-62155148D02*
X52590931Y-62445434D01*
X52590931Y-62445434D02*
X52590931Y-62663148D01*
X52590931Y-62663148D02*
X52518359Y-62953434D01*
X52518359Y-62953434D02*
X52445788Y-63098577D01*
X52445788Y-63098577D02*
X52300645Y-63243720D01*
X52300645Y-63243720D02*
X52082931Y-63316291D01*
X52082931Y-63316291D02*
X51720074Y-63316291D01*
X53752074Y-62518005D02*
X53969788Y-62590577D01*
X53969788Y-62590577D02*
X54042359Y-62663148D01*
X54042359Y-62663148D02*
X54114931Y-62808291D01*
X54114931Y-62808291D02*
X54114931Y-63026005D01*
X54114931Y-63026005D02*
X54042359Y-63171148D01*
X54042359Y-63171148D02*
X53969788Y-63243720D01*
X53969788Y-63243720D02*
X53824645Y-63316291D01*
X53824645Y-63316291D02*
X53244074Y-63316291D01*
X53244074Y-63316291D02*
X53244074Y-61792291D01*
X53244074Y-61792291D02*
X53752074Y-61792291D01*
X53752074Y-61792291D02*
X53897217Y-61864862D01*
X53897217Y-61864862D02*
X53969788Y-61937434D01*
X53969788Y-61937434D02*
X54042359Y-62082577D01*
X54042359Y-62082577D02*
X54042359Y-62227720D01*
X54042359Y-62227720D02*
X53969788Y-62372862D01*
X53969788Y-62372862D02*
X53897217Y-62445434D01*
X53897217Y-62445434D02*
X53752074Y-62518005D01*
X53752074Y-62518005D02*
X53244074Y-62518005D01*
X55566359Y-61864862D02*
X55421217Y-61792291D01*
X55421217Y-61792291D02*
X55203502Y-61792291D01*
X55203502Y-61792291D02*
X54985788Y-61864862D01*
X54985788Y-61864862D02*
X54840645Y-62010005D01*
X54840645Y-62010005D02*
X54768074Y-62155148D01*
X54768074Y-62155148D02*
X54695502Y-62445434D01*
X54695502Y-62445434D02*
X54695502Y-62663148D01*
X54695502Y-62663148D02*
X54768074Y-62953434D01*
X54768074Y-62953434D02*
X54840645Y-63098577D01*
X54840645Y-63098577D02*
X54985788Y-63243720D01*
X54985788Y-63243720D02*
X55203502Y-63316291D01*
X55203502Y-63316291D02*
X55348645Y-63316291D01*
X55348645Y-63316291D02*
X55566359Y-63243720D01*
X55566359Y-63243720D02*
X55638931Y-63171148D01*
X55638931Y-63171148D02*
X55638931Y-62663148D01*
X55638931Y-62663148D02*
X55348645Y-62663148D01*
X55929217Y-63461434D02*
X57090359Y-63461434D01*
X58106360Y-62300291D02*
X58106360Y-63316291D01*
X57743502Y-61719720D02*
X57380645Y-62808291D01*
X57380645Y-62808291D02*
X58324074Y-62808291D01*
X45696646Y-60776291D02*
X45696646Y-59252291D01*
X45696646Y-59252291D02*
X46204646Y-60340862D01*
X46204646Y-60340862D02*
X46712646Y-59252291D01*
X46712646Y-59252291D02*
X46712646Y-60776291D01*
X48309217Y-60631148D02*
X48236645Y-60703720D01*
X48236645Y-60703720D02*
X48018931Y-60776291D01*
X48018931Y-60776291D02*
X47873788Y-60776291D01*
X47873788Y-60776291D02*
X47656074Y-60703720D01*
X47656074Y-60703720D02*
X47510931Y-60558577D01*
X47510931Y-60558577D02*
X47438360Y-60413434D01*
X47438360Y-60413434D02*
X47365788Y-60123148D01*
X47365788Y-60123148D02*
X47365788Y-59905434D01*
X47365788Y-59905434D02*
X47438360Y-59615148D01*
X47438360Y-59615148D02*
X47510931Y-59470005D01*
X47510931Y-59470005D02*
X47656074Y-59324862D01*
X47656074Y-59324862D02*
X47873788Y-59252291D01*
X47873788Y-59252291D02*
X48018931Y-59252291D01*
X48018931Y-59252291D02*
X48236645Y-59324862D01*
X48236645Y-59324862D02*
X48309217Y-59397434D01*
X48962360Y-59252291D02*
X48962360Y-60486005D01*
X48962360Y-60486005D02*
X49034931Y-60631148D01*
X49034931Y-60631148D02*
X49107503Y-60703720D01*
X49107503Y-60703720D02*
X49252645Y-60776291D01*
X49252645Y-60776291D02*
X49542931Y-60776291D01*
X49542931Y-60776291D02*
X49688074Y-60703720D01*
X49688074Y-60703720D02*
X49760645Y-60631148D01*
X49760645Y-60631148D02*
X49833217Y-60486005D01*
X49833217Y-60486005D02*
X49833217Y-59252291D01*
X50196074Y-60921434D02*
X51357216Y-60921434D01*
X51720074Y-60776291D02*
X51720074Y-59252291D01*
X51720074Y-59252291D02*
X52082931Y-59252291D01*
X52082931Y-59252291D02*
X52300645Y-59324862D01*
X52300645Y-59324862D02*
X52445788Y-59470005D01*
X52445788Y-59470005D02*
X52518359Y-59615148D01*
X52518359Y-59615148D02*
X52590931Y-59905434D01*
X52590931Y-59905434D02*
X52590931Y-60123148D01*
X52590931Y-60123148D02*
X52518359Y-60413434D01*
X52518359Y-60413434D02*
X52445788Y-60558577D01*
X52445788Y-60558577D02*
X52300645Y-60703720D01*
X52300645Y-60703720D02*
X52082931Y-60776291D01*
X52082931Y-60776291D02*
X51720074Y-60776291D01*
X53752074Y-59978005D02*
X53969788Y-60050577D01*
X53969788Y-60050577D02*
X54042359Y-60123148D01*
X54042359Y-60123148D02*
X54114931Y-60268291D01*
X54114931Y-60268291D02*
X54114931Y-60486005D01*
X54114931Y-60486005D02*
X54042359Y-60631148D01*
X54042359Y-60631148D02*
X53969788Y-60703720D01*
X53969788Y-60703720D02*
X53824645Y-60776291D01*
X53824645Y-60776291D02*
X53244074Y-60776291D01*
X53244074Y-60776291D02*
X53244074Y-59252291D01*
X53244074Y-59252291D02*
X53752074Y-59252291D01*
X53752074Y-59252291D02*
X53897217Y-59324862D01*
X53897217Y-59324862D02*
X53969788Y-59397434D01*
X53969788Y-59397434D02*
X54042359Y-59542577D01*
X54042359Y-59542577D02*
X54042359Y-59687720D01*
X54042359Y-59687720D02*
X53969788Y-59832862D01*
X53969788Y-59832862D02*
X53897217Y-59905434D01*
X53897217Y-59905434D02*
X53752074Y-59978005D01*
X53752074Y-59978005D02*
X53244074Y-59978005D01*
X55566359Y-59324862D02*
X55421217Y-59252291D01*
X55421217Y-59252291D02*
X55203502Y-59252291D01*
X55203502Y-59252291D02*
X54985788Y-59324862D01*
X54985788Y-59324862D02*
X54840645Y-59470005D01*
X54840645Y-59470005D02*
X54768074Y-59615148D01*
X54768074Y-59615148D02*
X54695502Y-59905434D01*
X54695502Y-59905434D02*
X54695502Y-60123148D01*
X54695502Y-60123148D02*
X54768074Y-60413434D01*
X54768074Y-60413434D02*
X54840645Y-60558577D01*
X54840645Y-60558577D02*
X54985788Y-60703720D01*
X54985788Y-60703720D02*
X55203502Y-60776291D01*
X55203502Y-60776291D02*
X55348645Y-60776291D01*
X55348645Y-60776291D02*
X55566359Y-60703720D01*
X55566359Y-60703720D02*
X55638931Y-60631148D01*
X55638931Y-60631148D02*
X55638931Y-60123148D01*
X55638931Y-60123148D02*
X55348645Y-60123148D01*
X55929217Y-60921434D02*
X57090359Y-60921434D01*
X57308074Y-59252291D02*
X58251502Y-59252291D01*
X58251502Y-59252291D02*
X57743502Y-59832862D01*
X57743502Y-59832862D02*
X57961217Y-59832862D01*
X57961217Y-59832862D02*
X58106360Y-59905434D01*
X58106360Y-59905434D02*
X58178931Y-59978005D01*
X58178931Y-59978005D02*
X58251502Y-60123148D01*
X58251502Y-60123148D02*
X58251502Y-60486005D01*
X58251502Y-60486005D02*
X58178931Y-60631148D01*
X58178931Y-60631148D02*
X58106360Y-60703720D01*
X58106360Y-60703720D02*
X57961217Y-60776291D01*
X57961217Y-60776291D02*
X57525788Y-60776291D01*
X57525788Y-60776291D02*
X57380645Y-60703720D01*
X57380645Y-60703720D02*
X57308074Y-60631148D01*
X45696646Y-58236291D02*
X45696646Y-56712291D01*
X45696646Y-56712291D02*
X46204646Y-57800862D01*
X46204646Y-57800862D02*
X46712646Y-56712291D01*
X46712646Y-56712291D02*
X46712646Y-58236291D01*
X48309217Y-58091148D02*
X48236645Y-58163720D01*
X48236645Y-58163720D02*
X48018931Y-58236291D01*
X48018931Y-58236291D02*
X47873788Y-58236291D01*
X47873788Y-58236291D02*
X47656074Y-58163720D01*
X47656074Y-58163720D02*
X47510931Y-58018577D01*
X47510931Y-58018577D02*
X47438360Y-57873434D01*
X47438360Y-57873434D02*
X47365788Y-57583148D01*
X47365788Y-57583148D02*
X47365788Y-57365434D01*
X47365788Y-57365434D02*
X47438360Y-57075148D01*
X47438360Y-57075148D02*
X47510931Y-56930005D01*
X47510931Y-56930005D02*
X47656074Y-56784862D01*
X47656074Y-56784862D02*
X47873788Y-56712291D01*
X47873788Y-56712291D02*
X48018931Y-56712291D01*
X48018931Y-56712291D02*
X48236645Y-56784862D01*
X48236645Y-56784862D02*
X48309217Y-56857434D01*
X48962360Y-56712291D02*
X48962360Y-57946005D01*
X48962360Y-57946005D02*
X49034931Y-58091148D01*
X49034931Y-58091148D02*
X49107503Y-58163720D01*
X49107503Y-58163720D02*
X49252645Y-58236291D01*
X49252645Y-58236291D02*
X49542931Y-58236291D01*
X49542931Y-58236291D02*
X49688074Y-58163720D01*
X49688074Y-58163720D02*
X49760645Y-58091148D01*
X49760645Y-58091148D02*
X49833217Y-57946005D01*
X49833217Y-57946005D02*
X49833217Y-56712291D01*
X50196074Y-58381434D02*
X51357216Y-58381434D01*
X51720074Y-58236291D02*
X51720074Y-56712291D01*
X51720074Y-56712291D02*
X52082931Y-56712291D01*
X52082931Y-56712291D02*
X52300645Y-56784862D01*
X52300645Y-56784862D02*
X52445788Y-56930005D01*
X52445788Y-56930005D02*
X52518359Y-57075148D01*
X52518359Y-57075148D02*
X52590931Y-57365434D01*
X52590931Y-57365434D02*
X52590931Y-57583148D01*
X52590931Y-57583148D02*
X52518359Y-57873434D01*
X52518359Y-57873434D02*
X52445788Y-58018577D01*
X52445788Y-58018577D02*
X52300645Y-58163720D01*
X52300645Y-58163720D02*
X52082931Y-58236291D01*
X52082931Y-58236291D02*
X51720074Y-58236291D01*
X53752074Y-57438005D02*
X53969788Y-57510577D01*
X53969788Y-57510577D02*
X54042359Y-57583148D01*
X54042359Y-57583148D02*
X54114931Y-57728291D01*
X54114931Y-57728291D02*
X54114931Y-57946005D01*
X54114931Y-57946005D02*
X54042359Y-58091148D01*
X54042359Y-58091148D02*
X53969788Y-58163720D01*
X53969788Y-58163720D02*
X53824645Y-58236291D01*
X53824645Y-58236291D02*
X53244074Y-58236291D01*
X53244074Y-58236291D02*
X53244074Y-56712291D01*
X53244074Y-56712291D02*
X53752074Y-56712291D01*
X53752074Y-56712291D02*
X53897217Y-56784862D01*
X53897217Y-56784862D02*
X53969788Y-56857434D01*
X53969788Y-56857434D02*
X54042359Y-57002577D01*
X54042359Y-57002577D02*
X54042359Y-57147720D01*
X54042359Y-57147720D02*
X53969788Y-57292862D01*
X53969788Y-57292862D02*
X53897217Y-57365434D01*
X53897217Y-57365434D02*
X53752074Y-57438005D01*
X53752074Y-57438005D02*
X53244074Y-57438005D01*
X55566359Y-56784862D02*
X55421217Y-56712291D01*
X55421217Y-56712291D02*
X55203502Y-56712291D01*
X55203502Y-56712291D02*
X54985788Y-56784862D01*
X54985788Y-56784862D02*
X54840645Y-56930005D01*
X54840645Y-56930005D02*
X54768074Y-57075148D01*
X54768074Y-57075148D02*
X54695502Y-57365434D01*
X54695502Y-57365434D02*
X54695502Y-57583148D01*
X54695502Y-57583148D02*
X54768074Y-57873434D01*
X54768074Y-57873434D02*
X54840645Y-58018577D01*
X54840645Y-58018577D02*
X54985788Y-58163720D01*
X54985788Y-58163720D02*
X55203502Y-58236291D01*
X55203502Y-58236291D02*
X55348645Y-58236291D01*
X55348645Y-58236291D02*
X55566359Y-58163720D01*
X55566359Y-58163720D02*
X55638931Y-58091148D01*
X55638931Y-58091148D02*
X55638931Y-57583148D01*
X55638931Y-57583148D02*
X55348645Y-57583148D01*
X55929217Y-58381434D02*
X57090359Y-58381434D01*
X57380645Y-56857434D02*
X57453217Y-56784862D01*
X57453217Y-56784862D02*
X57598360Y-56712291D01*
X57598360Y-56712291D02*
X57961217Y-56712291D01*
X57961217Y-56712291D02*
X58106360Y-56784862D01*
X58106360Y-56784862D02*
X58178931Y-56857434D01*
X58178931Y-56857434D02*
X58251502Y-57002577D01*
X58251502Y-57002577D02*
X58251502Y-57147720D01*
X58251502Y-57147720D02*
X58178931Y-57365434D01*
X58178931Y-57365434D02*
X57308074Y-58236291D01*
X57308074Y-58236291D02*
X58251502Y-58236291D01*
X45696646Y-55696291D02*
X45696646Y-54172291D01*
X45696646Y-54172291D02*
X46204646Y-55260862D01*
X46204646Y-55260862D02*
X46712646Y-54172291D01*
X46712646Y-54172291D02*
X46712646Y-55696291D01*
X48309217Y-55551148D02*
X48236645Y-55623720D01*
X48236645Y-55623720D02*
X48018931Y-55696291D01*
X48018931Y-55696291D02*
X47873788Y-55696291D01*
X47873788Y-55696291D02*
X47656074Y-55623720D01*
X47656074Y-55623720D02*
X47510931Y-55478577D01*
X47510931Y-55478577D02*
X47438360Y-55333434D01*
X47438360Y-55333434D02*
X47365788Y-55043148D01*
X47365788Y-55043148D02*
X47365788Y-54825434D01*
X47365788Y-54825434D02*
X47438360Y-54535148D01*
X47438360Y-54535148D02*
X47510931Y-54390005D01*
X47510931Y-54390005D02*
X47656074Y-54244862D01*
X47656074Y-54244862D02*
X47873788Y-54172291D01*
X47873788Y-54172291D02*
X48018931Y-54172291D01*
X48018931Y-54172291D02*
X48236645Y-54244862D01*
X48236645Y-54244862D02*
X48309217Y-54317434D01*
X48962360Y-54172291D02*
X48962360Y-55406005D01*
X48962360Y-55406005D02*
X49034931Y-55551148D01*
X49034931Y-55551148D02*
X49107503Y-55623720D01*
X49107503Y-55623720D02*
X49252645Y-55696291D01*
X49252645Y-55696291D02*
X49542931Y-55696291D01*
X49542931Y-55696291D02*
X49688074Y-55623720D01*
X49688074Y-55623720D02*
X49760645Y-55551148D01*
X49760645Y-55551148D02*
X49833217Y-55406005D01*
X49833217Y-55406005D02*
X49833217Y-54172291D01*
X50196074Y-55841434D02*
X51357216Y-55841434D01*
X51720074Y-55696291D02*
X51720074Y-54172291D01*
X51720074Y-54172291D02*
X52082931Y-54172291D01*
X52082931Y-54172291D02*
X52300645Y-54244862D01*
X52300645Y-54244862D02*
X52445788Y-54390005D01*
X52445788Y-54390005D02*
X52518359Y-54535148D01*
X52518359Y-54535148D02*
X52590931Y-54825434D01*
X52590931Y-54825434D02*
X52590931Y-55043148D01*
X52590931Y-55043148D02*
X52518359Y-55333434D01*
X52518359Y-55333434D02*
X52445788Y-55478577D01*
X52445788Y-55478577D02*
X52300645Y-55623720D01*
X52300645Y-55623720D02*
X52082931Y-55696291D01*
X52082931Y-55696291D02*
X51720074Y-55696291D01*
X53752074Y-54898005D02*
X53969788Y-54970577D01*
X53969788Y-54970577D02*
X54042359Y-55043148D01*
X54042359Y-55043148D02*
X54114931Y-55188291D01*
X54114931Y-55188291D02*
X54114931Y-55406005D01*
X54114931Y-55406005D02*
X54042359Y-55551148D01*
X54042359Y-55551148D02*
X53969788Y-55623720D01*
X53969788Y-55623720D02*
X53824645Y-55696291D01*
X53824645Y-55696291D02*
X53244074Y-55696291D01*
X53244074Y-55696291D02*
X53244074Y-54172291D01*
X53244074Y-54172291D02*
X53752074Y-54172291D01*
X53752074Y-54172291D02*
X53897217Y-54244862D01*
X53897217Y-54244862D02*
X53969788Y-54317434D01*
X53969788Y-54317434D02*
X54042359Y-54462577D01*
X54042359Y-54462577D02*
X54042359Y-54607720D01*
X54042359Y-54607720D02*
X53969788Y-54752862D01*
X53969788Y-54752862D02*
X53897217Y-54825434D01*
X53897217Y-54825434D02*
X53752074Y-54898005D01*
X53752074Y-54898005D02*
X53244074Y-54898005D01*
X55566359Y-54244862D02*
X55421217Y-54172291D01*
X55421217Y-54172291D02*
X55203502Y-54172291D01*
X55203502Y-54172291D02*
X54985788Y-54244862D01*
X54985788Y-54244862D02*
X54840645Y-54390005D01*
X54840645Y-54390005D02*
X54768074Y-54535148D01*
X54768074Y-54535148D02*
X54695502Y-54825434D01*
X54695502Y-54825434D02*
X54695502Y-55043148D01*
X54695502Y-55043148D02*
X54768074Y-55333434D01*
X54768074Y-55333434D02*
X54840645Y-55478577D01*
X54840645Y-55478577D02*
X54985788Y-55623720D01*
X54985788Y-55623720D02*
X55203502Y-55696291D01*
X55203502Y-55696291D02*
X55348645Y-55696291D01*
X55348645Y-55696291D02*
X55566359Y-55623720D01*
X55566359Y-55623720D02*
X55638931Y-55551148D01*
X55638931Y-55551148D02*
X55638931Y-55043148D01*
X55638931Y-55043148D02*
X55348645Y-55043148D01*
X55929217Y-55841434D02*
X57090359Y-55841434D01*
X58251502Y-55696291D02*
X57380645Y-55696291D01*
X57816074Y-55696291D02*
X57816074Y-54172291D01*
X57816074Y-54172291D02*
X57670931Y-54390005D01*
X57670931Y-54390005D02*
X57525788Y-54535148D01*
X57525788Y-54535148D02*
X57380645Y-54607720D01*
D11*
X118260694Y-68950887D02*
X117389837Y-68950887D01*
X117825266Y-68950887D02*
X117825266Y-67426887D01*
X117825266Y-67426887D02*
X117680123Y-67644601D01*
X117680123Y-67644601D02*
X117534980Y-67789744D01*
X117534980Y-67789744D02*
X117389837Y-67862316D01*
D10*
X64274931Y-75000291D02*
X64782931Y-76524291D01*
X64782931Y-76524291D02*
X65290931Y-75000291D01*
X65436075Y-76669434D02*
X66597217Y-76669434D01*
X66960075Y-75000291D02*
X66960075Y-76234005D01*
X66960075Y-76234005D02*
X67032646Y-76379148D01*
X67032646Y-76379148D02*
X67105218Y-76451720D01*
X67105218Y-76451720D02*
X67250360Y-76524291D01*
X67250360Y-76524291D02*
X67540646Y-76524291D01*
X67540646Y-76524291D02*
X67685789Y-76451720D01*
X67685789Y-76451720D02*
X67758360Y-76379148D01*
X67758360Y-76379148D02*
X67830932Y-76234005D01*
X67830932Y-76234005D02*
X67830932Y-75000291D01*
X68556646Y-76524291D02*
X68556646Y-75000291D01*
X68556646Y-75000291D02*
X69427503Y-76524291D01*
X69427503Y-76524291D02*
X69427503Y-75000291D01*
X71024074Y-76524291D02*
X70516074Y-75798577D01*
X70153217Y-76524291D02*
X70153217Y-75000291D01*
X70153217Y-75000291D02*
X70733788Y-75000291D01*
X70733788Y-75000291D02*
X70878931Y-75072862D01*
X70878931Y-75072862D02*
X70951502Y-75145434D01*
X70951502Y-75145434D02*
X71024074Y-75290577D01*
X71024074Y-75290577D02*
X71024074Y-75508291D01*
X71024074Y-75508291D02*
X70951502Y-75653434D01*
X70951502Y-75653434D02*
X70878931Y-75726005D01*
X70878931Y-75726005D02*
X70733788Y-75798577D01*
X70733788Y-75798577D02*
X70153217Y-75798577D01*
X71677217Y-75726005D02*
X72185217Y-75726005D01*
X72402931Y-76524291D02*
X71677217Y-76524291D01*
X71677217Y-76524291D02*
X71677217Y-75000291D01*
X71677217Y-75000291D02*
X72402931Y-75000291D01*
X73854359Y-75072862D02*
X73709217Y-75000291D01*
X73709217Y-75000291D02*
X73491502Y-75000291D01*
X73491502Y-75000291D02*
X73273788Y-75072862D01*
X73273788Y-75072862D02*
X73128645Y-75218005D01*
X73128645Y-75218005D02*
X73056074Y-75363148D01*
X73056074Y-75363148D02*
X72983502Y-75653434D01*
X72983502Y-75653434D02*
X72983502Y-75871148D01*
X72983502Y-75871148D02*
X73056074Y-76161434D01*
X73056074Y-76161434D02*
X73128645Y-76306577D01*
X73128645Y-76306577D02*
X73273788Y-76451720D01*
X73273788Y-76451720D02*
X73491502Y-76524291D01*
X73491502Y-76524291D02*
X73636645Y-76524291D01*
X73636645Y-76524291D02*
X73854359Y-76451720D01*
X73854359Y-76451720D02*
X73926931Y-76379148D01*
X73926931Y-76379148D02*
X73926931Y-75871148D01*
X73926931Y-75871148D02*
X73636645Y-75871148D01*
X64492646Y-57220291D02*
X64492646Y-58454005D01*
X64492646Y-58454005D02*
X64565217Y-58599148D01*
X64565217Y-58599148D02*
X64637789Y-58671720D01*
X64637789Y-58671720D02*
X64782931Y-58744291D01*
X64782931Y-58744291D02*
X65073217Y-58744291D01*
X65073217Y-58744291D02*
X65218360Y-58671720D01*
X65218360Y-58671720D02*
X65290931Y-58599148D01*
X65290931Y-58599148D02*
X65363503Y-58454005D01*
X65363503Y-58454005D02*
X65363503Y-57220291D01*
X66016645Y-58671720D02*
X66234360Y-58744291D01*
X66234360Y-58744291D02*
X66597217Y-58744291D01*
X66597217Y-58744291D02*
X66742360Y-58671720D01*
X66742360Y-58671720D02*
X66814931Y-58599148D01*
X66814931Y-58599148D02*
X66887502Y-58454005D01*
X66887502Y-58454005D02*
X66887502Y-58308862D01*
X66887502Y-58308862D02*
X66814931Y-58163720D01*
X66814931Y-58163720D02*
X66742360Y-58091148D01*
X66742360Y-58091148D02*
X66597217Y-58018577D01*
X66597217Y-58018577D02*
X66306931Y-57946005D01*
X66306931Y-57946005D02*
X66161788Y-57873434D01*
X66161788Y-57873434D02*
X66089217Y-57800862D01*
X66089217Y-57800862D02*
X66016645Y-57655720D01*
X66016645Y-57655720D02*
X66016645Y-57510577D01*
X66016645Y-57510577D02*
X66089217Y-57365434D01*
X66089217Y-57365434D02*
X66161788Y-57292862D01*
X66161788Y-57292862D02*
X66306931Y-57220291D01*
X66306931Y-57220291D02*
X66669788Y-57220291D01*
X66669788Y-57220291D02*
X66887502Y-57292862D01*
X67468074Y-58308862D02*
X68193789Y-58308862D01*
X67322931Y-58744291D02*
X67830931Y-57220291D01*
X67830931Y-57220291D02*
X68338931Y-58744291D01*
X69717789Y-58744291D02*
X69209789Y-58018577D01*
X68846932Y-58744291D02*
X68846932Y-57220291D01*
X68846932Y-57220291D02*
X69427503Y-57220291D01*
X69427503Y-57220291D02*
X69572646Y-57292862D01*
X69572646Y-57292862D02*
X69645217Y-57365434D01*
X69645217Y-57365434D02*
X69717789Y-57510577D01*
X69717789Y-57510577D02*
X69717789Y-57728291D01*
X69717789Y-57728291D02*
X69645217Y-57873434D01*
X69645217Y-57873434D02*
X69572646Y-57946005D01*
X69572646Y-57946005D02*
X69427503Y-58018577D01*
X69427503Y-58018577D02*
X68846932Y-58018577D01*
X70153217Y-57220291D02*
X71024075Y-57220291D01*
X70588646Y-58744291D02*
X70588646Y-57220291D01*
X71169218Y-58889434D02*
X72330360Y-58889434D01*
X73564075Y-58744291D02*
X73056075Y-58018577D01*
X72693218Y-58744291D02*
X72693218Y-57220291D01*
X72693218Y-57220291D02*
X73273789Y-57220291D01*
X73273789Y-57220291D02*
X73418932Y-57292862D01*
X73418932Y-57292862D02*
X73491503Y-57365434D01*
X73491503Y-57365434D02*
X73564075Y-57510577D01*
X73564075Y-57510577D02*
X73564075Y-57728291D01*
X73564075Y-57728291D02*
X73491503Y-57873434D01*
X73491503Y-57873434D02*
X73418932Y-57946005D01*
X73418932Y-57946005D02*
X73273789Y-58018577D01*
X73273789Y-58018577D02*
X72693218Y-58018577D01*
X74072075Y-57220291D02*
X75088075Y-58744291D01*
X75088075Y-57220291D02*
X74072075Y-58744291D01*
X64274931Y-77540291D02*
X64782931Y-79064291D01*
X64782931Y-79064291D02*
X65290931Y-77540291D01*
X65798932Y-79064291D02*
X65798932Y-77540291D01*
X65798932Y-77540291D02*
X66161789Y-77540291D01*
X66161789Y-77540291D02*
X66379503Y-77612862D01*
X66379503Y-77612862D02*
X66524646Y-77758005D01*
X66524646Y-77758005D02*
X66597217Y-77903148D01*
X66597217Y-77903148D02*
X66669789Y-78193434D01*
X66669789Y-78193434D02*
X66669789Y-78411148D01*
X66669789Y-78411148D02*
X66597217Y-78701434D01*
X66597217Y-78701434D02*
X66524646Y-78846577D01*
X66524646Y-78846577D02*
X66379503Y-78991720D01*
X66379503Y-78991720D02*
X66161789Y-79064291D01*
X66161789Y-79064291D02*
X65798932Y-79064291D01*
X67322932Y-79064291D02*
X67322932Y-77540291D01*
X67322932Y-77540291D02*
X67685789Y-77540291D01*
X67685789Y-77540291D02*
X67903503Y-77612862D01*
X67903503Y-77612862D02*
X68048646Y-77758005D01*
X68048646Y-77758005D02*
X68121217Y-77903148D01*
X68121217Y-77903148D02*
X68193789Y-78193434D01*
X68193789Y-78193434D02*
X68193789Y-78411148D01*
X68193789Y-78411148D02*
X68121217Y-78701434D01*
X68121217Y-78701434D02*
X68048646Y-78846577D01*
X68048646Y-78846577D02*
X67903503Y-78991720D01*
X67903503Y-78991720D02*
X67685789Y-79064291D01*
X67685789Y-79064291D02*
X67322932Y-79064291D01*
D11*
X142741532Y-42893924D02*
X142470599Y-42506877D01*
X142277075Y-42893924D02*
X142277075Y-42081124D01*
X142277075Y-42081124D02*
X142586713Y-42081124D01*
X142586713Y-42081124D02*
X142664123Y-42119829D01*
X142664123Y-42119829D02*
X142702828Y-42158534D01*
X142702828Y-42158534D02*
X142741532Y-42235943D01*
X142741532Y-42235943D02*
X142741532Y-42352058D01*
X142741532Y-42352058D02*
X142702828Y-42429467D01*
X142702828Y-42429467D02*
X142664123Y-42468172D01*
X142664123Y-42468172D02*
X142586713Y-42506877D01*
X142586713Y-42506877D02*
X142277075Y-42506877D01*
X143089875Y-42468172D02*
X143360809Y-42468172D01*
X143476923Y-42893924D02*
X143089875Y-42893924D01*
X143089875Y-42893924D02*
X143089875Y-42081124D01*
X143089875Y-42081124D02*
X143476923Y-42081124D01*
X143786561Y-42855220D02*
X143902675Y-42893924D01*
X143902675Y-42893924D02*
X144096199Y-42893924D01*
X144096199Y-42893924D02*
X144173608Y-42855220D01*
X144173608Y-42855220D02*
X144212313Y-42816515D01*
X144212313Y-42816515D02*
X144251018Y-42739105D01*
X144251018Y-42739105D02*
X144251018Y-42661696D01*
X144251018Y-42661696D02*
X144212313Y-42584286D01*
X144212313Y-42584286D02*
X144173608Y-42545581D01*
X144173608Y-42545581D02*
X144096199Y-42506877D01*
X144096199Y-42506877D02*
X143941380Y-42468172D01*
X143941380Y-42468172D02*
X143863970Y-42429467D01*
X143863970Y-42429467D02*
X143825265Y-42390762D01*
X143825265Y-42390762D02*
X143786561Y-42313353D01*
X143786561Y-42313353D02*
X143786561Y-42235943D01*
X143786561Y-42235943D02*
X143825265Y-42158534D01*
X143825265Y-42158534D02*
X143863970Y-42119829D01*
X143863970Y-42119829D02*
X143941380Y-42081124D01*
X143941380Y-42081124D02*
X144134903Y-42081124D01*
X144134903Y-42081124D02*
X144251018Y-42119829D01*
X144599360Y-42468172D02*
X144870294Y-42468172D01*
X144986408Y-42893924D02*
X144599360Y-42893924D01*
X144599360Y-42893924D02*
X144599360Y-42081124D01*
X144599360Y-42081124D02*
X144986408Y-42081124D01*
X145218636Y-42081124D02*
X145683093Y-42081124D01*
X145450865Y-42893924D02*
X145450865Y-42081124D01*
D10*
X64492646Y-63316291D02*
X64492646Y-61792291D01*
X64492646Y-61792291D02*
X65363503Y-63316291D01*
X65363503Y-63316291D02*
X65363503Y-61792291D01*
X65726360Y-63461434D02*
X66887502Y-63461434D01*
X68121217Y-63316291D02*
X67613217Y-62590577D01*
X67250360Y-63316291D02*
X67250360Y-61792291D01*
X67250360Y-61792291D02*
X67830931Y-61792291D01*
X67830931Y-61792291D02*
X67976074Y-61864862D01*
X67976074Y-61864862D02*
X68048645Y-61937434D01*
X68048645Y-61937434D02*
X68121217Y-62082577D01*
X68121217Y-62082577D02*
X68121217Y-62300291D01*
X68121217Y-62300291D02*
X68048645Y-62445434D01*
X68048645Y-62445434D02*
X67976074Y-62518005D01*
X67976074Y-62518005D02*
X67830931Y-62590577D01*
X67830931Y-62590577D02*
X67250360Y-62590577D01*
X68774360Y-62518005D02*
X69282360Y-62518005D01*
X69500074Y-63316291D02*
X68774360Y-63316291D01*
X68774360Y-63316291D02*
X68774360Y-61792291D01*
X68774360Y-61792291D02*
X69500074Y-61792291D01*
X70080645Y-63243720D02*
X70298360Y-63316291D01*
X70298360Y-63316291D02*
X70661217Y-63316291D01*
X70661217Y-63316291D02*
X70806360Y-63243720D01*
X70806360Y-63243720D02*
X70878931Y-63171148D01*
X70878931Y-63171148D02*
X70951502Y-63026005D01*
X70951502Y-63026005D02*
X70951502Y-62880862D01*
X70951502Y-62880862D02*
X70878931Y-62735720D01*
X70878931Y-62735720D02*
X70806360Y-62663148D01*
X70806360Y-62663148D02*
X70661217Y-62590577D01*
X70661217Y-62590577D02*
X70370931Y-62518005D01*
X70370931Y-62518005D02*
X70225788Y-62445434D01*
X70225788Y-62445434D02*
X70153217Y-62372862D01*
X70153217Y-62372862D02*
X70080645Y-62227720D01*
X70080645Y-62227720D02*
X70080645Y-62082577D01*
X70080645Y-62082577D02*
X70153217Y-61937434D01*
X70153217Y-61937434D02*
X70225788Y-61864862D01*
X70225788Y-61864862D02*
X70370931Y-61792291D01*
X70370931Y-61792291D02*
X70733788Y-61792291D01*
X70733788Y-61792291D02*
X70951502Y-61864862D01*
X71604646Y-62518005D02*
X72112646Y-62518005D01*
X72330360Y-63316291D02*
X71604646Y-63316291D01*
X71604646Y-63316291D02*
X71604646Y-61792291D01*
X71604646Y-61792291D02*
X72330360Y-61792291D01*
X72765788Y-61792291D02*
X73636646Y-61792291D01*
X73201217Y-63316291D02*
X73201217Y-61792291D01*
X55130931Y-77612862D02*
X54985789Y-77540291D01*
X54985789Y-77540291D02*
X54768074Y-77540291D01*
X54768074Y-77540291D02*
X54550360Y-77612862D01*
X54550360Y-77612862D02*
X54405217Y-77758005D01*
X54405217Y-77758005D02*
X54332646Y-77903148D01*
X54332646Y-77903148D02*
X54260074Y-78193434D01*
X54260074Y-78193434D02*
X54260074Y-78411148D01*
X54260074Y-78411148D02*
X54332646Y-78701434D01*
X54332646Y-78701434D02*
X54405217Y-78846577D01*
X54405217Y-78846577D02*
X54550360Y-78991720D01*
X54550360Y-78991720D02*
X54768074Y-79064291D01*
X54768074Y-79064291D02*
X54913217Y-79064291D01*
X54913217Y-79064291D02*
X55130931Y-78991720D01*
X55130931Y-78991720D02*
X55203503Y-78919148D01*
X55203503Y-78919148D02*
X55203503Y-78411148D01*
X55203503Y-78411148D02*
X54913217Y-78411148D01*
X55856646Y-79064291D02*
X55856646Y-77540291D01*
X55856646Y-77540291D02*
X56727503Y-79064291D01*
X56727503Y-79064291D02*
X56727503Y-77540291D01*
X57453217Y-79064291D02*
X57453217Y-77540291D01*
X57453217Y-77540291D02*
X57816074Y-77540291D01*
X57816074Y-77540291D02*
X58033788Y-77612862D01*
X58033788Y-77612862D02*
X58178931Y-77758005D01*
X58178931Y-77758005D02*
X58251502Y-77903148D01*
X58251502Y-77903148D02*
X58324074Y-78193434D01*
X58324074Y-78193434D02*
X58324074Y-78411148D01*
X58324074Y-78411148D02*
X58251502Y-78701434D01*
X58251502Y-78701434D02*
X58178931Y-78846577D01*
X58178931Y-78846577D02*
X58033788Y-78991720D01*
X58033788Y-78991720D02*
X57816074Y-79064291D01*
X57816074Y-79064291D02*
X57453217Y-79064291D01*
D11*
X63893456Y-80651015D02*
X63322028Y-80651015D01*
X63607742Y-80651015D02*
X63607742Y-79651015D01*
X63607742Y-79651015D02*
X63512504Y-79793872D01*
X63512504Y-79793872D02*
X63417266Y-79889110D01*
X63417266Y-79889110D02*
X63322028Y-79936729D01*
D10*
X64492646Y-54680291D02*
X64492646Y-55914005D01*
X64492646Y-55914005D02*
X64565217Y-56059148D01*
X64565217Y-56059148D02*
X64637789Y-56131720D01*
X64637789Y-56131720D02*
X64782931Y-56204291D01*
X64782931Y-56204291D02*
X65073217Y-56204291D01*
X65073217Y-56204291D02*
X65218360Y-56131720D01*
X65218360Y-56131720D02*
X65290931Y-56059148D01*
X65290931Y-56059148D02*
X65363503Y-55914005D01*
X65363503Y-55914005D02*
X65363503Y-54680291D01*
X66016645Y-56131720D02*
X66234360Y-56204291D01*
X66234360Y-56204291D02*
X66597217Y-56204291D01*
X66597217Y-56204291D02*
X66742360Y-56131720D01*
X66742360Y-56131720D02*
X66814931Y-56059148D01*
X66814931Y-56059148D02*
X66887502Y-55914005D01*
X66887502Y-55914005D02*
X66887502Y-55768862D01*
X66887502Y-55768862D02*
X66814931Y-55623720D01*
X66814931Y-55623720D02*
X66742360Y-55551148D01*
X66742360Y-55551148D02*
X66597217Y-55478577D01*
X66597217Y-55478577D02*
X66306931Y-55406005D01*
X66306931Y-55406005D02*
X66161788Y-55333434D01*
X66161788Y-55333434D02*
X66089217Y-55260862D01*
X66089217Y-55260862D02*
X66016645Y-55115720D01*
X66016645Y-55115720D02*
X66016645Y-54970577D01*
X66016645Y-54970577D02*
X66089217Y-54825434D01*
X66089217Y-54825434D02*
X66161788Y-54752862D01*
X66161788Y-54752862D02*
X66306931Y-54680291D01*
X66306931Y-54680291D02*
X66669788Y-54680291D01*
X66669788Y-54680291D02*
X66887502Y-54752862D01*
X67468074Y-55768862D02*
X68193789Y-55768862D01*
X67322931Y-56204291D02*
X67830931Y-54680291D01*
X67830931Y-54680291D02*
X68338931Y-56204291D01*
X69717789Y-56204291D02*
X69209789Y-55478577D01*
X68846932Y-56204291D02*
X68846932Y-54680291D01*
X68846932Y-54680291D02*
X69427503Y-54680291D01*
X69427503Y-54680291D02*
X69572646Y-54752862D01*
X69572646Y-54752862D02*
X69645217Y-54825434D01*
X69645217Y-54825434D02*
X69717789Y-54970577D01*
X69717789Y-54970577D02*
X69717789Y-55188291D01*
X69717789Y-55188291D02*
X69645217Y-55333434D01*
X69645217Y-55333434D02*
X69572646Y-55406005D01*
X69572646Y-55406005D02*
X69427503Y-55478577D01*
X69427503Y-55478577D02*
X68846932Y-55478577D01*
X70153217Y-54680291D02*
X71024075Y-54680291D01*
X70588646Y-56204291D02*
X70588646Y-54680291D01*
X71169218Y-56349434D02*
X72330360Y-56349434D01*
X72475503Y-54680291D02*
X73346361Y-54680291D01*
X72910932Y-56204291D02*
X72910932Y-54680291D01*
X73709218Y-54680291D02*
X74725218Y-56204291D01*
X74725218Y-54680291D02*
X73709218Y-56204291D01*
D11*
X101760237Y-66937922D02*
X101760237Y-65667922D01*
X103090714Y-66816969D02*
X103030238Y-66877446D01*
X103030238Y-66877446D02*
X102848809Y-66937922D01*
X102848809Y-66937922D02*
X102727857Y-66937922D01*
X102727857Y-66937922D02*
X102546428Y-66877446D01*
X102546428Y-66877446D02*
X102425476Y-66756493D01*
X102425476Y-66756493D02*
X102364999Y-66635541D01*
X102364999Y-66635541D02*
X102304523Y-66393636D01*
X102304523Y-66393636D02*
X102304523Y-66212207D01*
X102304523Y-66212207D02*
X102364999Y-65970303D01*
X102364999Y-65970303D02*
X102425476Y-65849350D01*
X102425476Y-65849350D02*
X102546428Y-65728398D01*
X102546428Y-65728398D02*
X102727857Y-65667922D01*
X102727857Y-65667922D02*
X102848809Y-65667922D01*
X102848809Y-65667922D02*
X103030238Y-65728398D01*
X103030238Y-65728398D02*
X103090714Y-65788874D01*
X104179285Y-66091255D02*
X104179285Y-66937922D01*
X103876904Y-65607446D02*
X103574523Y-66514588D01*
X103574523Y-66514588D02*
X104360714Y-66514588D01*
X137788333Y-126030922D02*
X137364999Y-125426160D01*
X137062618Y-126030922D02*
X137062618Y-124760922D01*
X137062618Y-124760922D02*
X137546428Y-124760922D01*
X137546428Y-124760922D02*
X137667380Y-124821398D01*
X137667380Y-124821398D02*
X137727857Y-124881874D01*
X137727857Y-124881874D02*
X137788333Y-125002826D01*
X137788333Y-125002826D02*
X137788333Y-125184255D01*
X137788333Y-125184255D02*
X137727857Y-125305207D01*
X137727857Y-125305207D02*
X137667380Y-125365684D01*
X137667380Y-125365684D02*
X137546428Y-125426160D01*
X137546428Y-125426160D02*
X137062618Y-125426160D01*
X138514047Y-125305207D02*
X138393095Y-125244731D01*
X138393095Y-125244731D02*
X138332618Y-125184255D01*
X138332618Y-125184255D02*
X138272142Y-125063303D01*
X138272142Y-125063303D02*
X138272142Y-125002826D01*
X138272142Y-125002826D02*
X138332618Y-124881874D01*
X138332618Y-124881874D02*
X138393095Y-124821398D01*
X138393095Y-124821398D02*
X138514047Y-124760922D01*
X138514047Y-124760922D02*
X138755952Y-124760922D01*
X138755952Y-124760922D02*
X138876904Y-124821398D01*
X138876904Y-124821398D02*
X138937380Y-124881874D01*
X138937380Y-124881874D02*
X138997857Y-125002826D01*
X138997857Y-125002826D02*
X138997857Y-125063303D01*
X138997857Y-125063303D02*
X138937380Y-125184255D01*
X138937380Y-125184255D02*
X138876904Y-125244731D01*
X138876904Y-125244731D02*
X138755952Y-125305207D01*
X138755952Y-125305207D02*
X138514047Y-125305207D01*
X138514047Y-125305207D02*
X138393095Y-125365684D01*
X138393095Y-125365684D02*
X138332618Y-125426160D01*
X138332618Y-125426160D02*
X138272142Y-125547112D01*
X138272142Y-125547112D02*
X138272142Y-125789017D01*
X138272142Y-125789017D02*
X138332618Y-125909969D01*
X138332618Y-125909969D02*
X138393095Y-125970446D01*
X138393095Y-125970446D02*
X138514047Y-126030922D01*
X138514047Y-126030922D02*
X138755952Y-126030922D01*
X138755952Y-126030922D02*
X138876904Y-125970446D01*
X138876904Y-125970446D02*
X138937380Y-125909969D01*
X138937380Y-125909969D02*
X138997857Y-125789017D01*
X138997857Y-125789017D02*
X138997857Y-125547112D01*
X138997857Y-125547112D02*
X138937380Y-125426160D01*
X138937380Y-125426160D02*
X138876904Y-125365684D01*
X138876904Y-125365684D02*
X138755952Y-125305207D01*
X137788333Y-117980046D02*
X137364999Y-117375284D01*
X137062618Y-117980046D02*
X137062618Y-116710046D01*
X137062618Y-116710046D02*
X137546428Y-116710046D01*
X137546428Y-116710046D02*
X137667380Y-116770522D01*
X137667380Y-116770522D02*
X137727857Y-116830998D01*
X137727857Y-116830998D02*
X137788333Y-116951950D01*
X137788333Y-116951950D02*
X137788333Y-117133379D01*
X137788333Y-117133379D02*
X137727857Y-117254331D01*
X137727857Y-117254331D02*
X137667380Y-117314808D01*
X137667380Y-117314808D02*
X137546428Y-117375284D01*
X137546428Y-117375284D02*
X137062618Y-117375284D01*
X138211666Y-116710046D02*
X139058333Y-116710046D01*
X139058333Y-116710046D02*
X138514047Y-117980046D01*
X137800558Y-122067388D02*
X137377224Y-121462626D01*
X137074843Y-122067388D02*
X137074843Y-120797388D01*
X137074843Y-120797388D02*
X137558653Y-120797388D01*
X137558653Y-120797388D02*
X137679605Y-120857864D01*
X137679605Y-120857864D02*
X137740082Y-120918340D01*
X137740082Y-120918340D02*
X137800558Y-121039292D01*
X137800558Y-121039292D02*
X137800558Y-121220721D01*
X137800558Y-121220721D02*
X137740082Y-121341673D01*
X137740082Y-121341673D02*
X137679605Y-121402150D01*
X137679605Y-121402150D02*
X137558653Y-121462626D01*
X137558653Y-121462626D02*
X137074843Y-121462626D01*
X138889129Y-120797388D02*
X138647224Y-120797388D01*
X138647224Y-120797388D02*
X138526272Y-120857864D01*
X138526272Y-120857864D02*
X138465796Y-120918340D01*
X138465796Y-120918340D02*
X138344843Y-121099769D01*
X138344843Y-121099769D02*
X138284367Y-121341673D01*
X138284367Y-121341673D02*
X138284367Y-121825483D01*
X138284367Y-121825483D02*
X138344843Y-121946435D01*
X138344843Y-121946435D02*
X138405320Y-122006912D01*
X138405320Y-122006912D02*
X138526272Y-122067388D01*
X138526272Y-122067388D02*
X138768177Y-122067388D01*
X138768177Y-122067388D02*
X138889129Y-122006912D01*
X138889129Y-122006912D02*
X138949605Y-121946435D01*
X138949605Y-121946435D02*
X139010082Y-121825483D01*
X139010082Y-121825483D02*
X139010082Y-121523102D01*
X139010082Y-121523102D02*
X138949605Y-121402150D01*
X138949605Y-121402150D02*
X138889129Y-121341673D01*
X138889129Y-121341673D02*
X138768177Y-121281197D01*
X138768177Y-121281197D02*
X138526272Y-121281197D01*
X138526272Y-121281197D02*
X138405320Y-121341673D01*
X138405320Y-121341673D02*
X138344843Y-121402150D01*
X138344843Y-121402150D02*
X138284367Y-121523102D01*
X144576667Y-70310922D02*
X144576667Y-71218065D01*
X144576667Y-71218065D02*
X144516190Y-71399493D01*
X144516190Y-71399493D02*
X144395238Y-71520446D01*
X144395238Y-71520446D02*
X144213809Y-71580922D01*
X144213809Y-71580922D02*
X144092857Y-71580922D01*
X145725714Y-70734255D02*
X145725714Y-71580922D01*
X145423333Y-70250446D02*
X145120952Y-71157588D01*
X145120952Y-71157588D02*
X145907143Y-71157588D01*
X55705333Y-37104922D02*
X55281999Y-36500160D01*
X54979618Y-37104922D02*
X54979618Y-35834922D01*
X54979618Y-35834922D02*
X55463428Y-35834922D01*
X55463428Y-35834922D02*
X55584380Y-35895398D01*
X55584380Y-35895398D02*
X55644857Y-35955874D01*
X55644857Y-35955874D02*
X55705333Y-36076826D01*
X55705333Y-36076826D02*
X55705333Y-36258255D01*
X55705333Y-36258255D02*
X55644857Y-36379207D01*
X55644857Y-36379207D02*
X55584380Y-36439684D01*
X55584380Y-36439684D02*
X55463428Y-36500160D01*
X55463428Y-36500160D02*
X54979618Y-36500160D01*
X56189142Y-35955874D02*
X56249618Y-35895398D01*
X56249618Y-35895398D02*
X56370571Y-35834922D01*
X56370571Y-35834922D02*
X56672952Y-35834922D01*
X56672952Y-35834922D02*
X56793904Y-35895398D01*
X56793904Y-35895398D02*
X56854380Y-35955874D01*
X56854380Y-35955874D02*
X56914857Y-36076826D01*
X56914857Y-36076826D02*
X56914857Y-36197779D01*
X56914857Y-36197779D02*
X56854380Y-36379207D01*
X56854380Y-36379207D02*
X56128666Y-37104922D01*
X56128666Y-37104922D02*
X56914857Y-37104922D01*
X51405475Y-30500922D02*
X51405475Y-29230922D01*
X51405475Y-29230922D02*
X51828809Y-30138065D01*
X51828809Y-30138065D02*
X52252142Y-29230922D01*
X52252142Y-29230922D02*
X52252142Y-30500922D01*
X53582619Y-30379969D02*
X53522143Y-30440446D01*
X53522143Y-30440446D02*
X53340714Y-30500922D01*
X53340714Y-30500922D02*
X53219762Y-30500922D01*
X53219762Y-30500922D02*
X53038333Y-30440446D01*
X53038333Y-30440446D02*
X52917381Y-30319493D01*
X52917381Y-30319493D02*
X52856904Y-30198541D01*
X52856904Y-30198541D02*
X52796428Y-29956636D01*
X52796428Y-29956636D02*
X52796428Y-29775207D01*
X52796428Y-29775207D02*
X52856904Y-29533303D01*
X52856904Y-29533303D02*
X52917381Y-29412350D01*
X52917381Y-29412350D02*
X53038333Y-29291398D01*
X53038333Y-29291398D02*
X53219762Y-29230922D01*
X53219762Y-29230922D02*
X53340714Y-29230922D01*
X53340714Y-29230922D02*
X53522143Y-29291398D01*
X53522143Y-29291398D02*
X53582619Y-29351874D01*
X54126904Y-29230922D02*
X54126904Y-30259017D01*
X54126904Y-30259017D02*
X54187381Y-30379969D01*
X54187381Y-30379969D02*
X54247857Y-30440446D01*
X54247857Y-30440446D02*
X54368809Y-30500922D01*
X54368809Y-30500922D02*
X54610714Y-30500922D01*
X54610714Y-30500922D02*
X54731666Y-30440446D01*
X54731666Y-30440446D02*
X54792143Y-30379969D01*
X54792143Y-30379969D02*
X54852619Y-30259017D01*
X54852619Y-30259017D02*
X54852619Y-29230922D01*
X57029761Y-30500922D02*
X56424999Y-30500922D01*
X56424999Y-30500922D02*
X56424999Y-29230922D01*
X57453094Y-29835684D02*
X57876428Y-29835684D01*
X58057856Y-30500922D02*
X57453094Y-30500922D01*
X57453094Y-30500922D02*
X57453094Y-29230922D01*
X57453094Y-29230922D02*
X58057856Y-29230922D01*
X58602142Y-30500922D02*
X58602142Y-29230922D01*
X58602142Y-29230922D02*
X58904523Y-29230922D01*
X58904523Y-29230922D02*
X59085952Y-29291398D01*
X59085952Y-29291398D02*
X59206904Y-29412350D01*
X59206904Y-29412350D02*
X59267381Y-29533303D01*
X59267381Y-29533303D02*
X59327857Y-29775207D01*
X59327857Y-29775207D02*
X59327857Y-29956636D01*
X59327857Y-29956636D02*
X59267381Y-30198541D01*
X59267381Y-30198541D02*
X59206904Y-30319493D01*
X59206904Y-30319493D02*
X59085952Y-30440446D01*
X59085952Y-30440446D02*
X58904523Y-30500922D01*
X58904523Y-30500922D02*
X58602142Y-30500922D01*
X61505000Y-30500922D02*
X60779285Y-30500922D01*
X61142142Y-30500922D02*
X61142142Y-29230922D01*
X61142142Y-29230922D02*
X61021190Y-29412350D01*
X61021190Y-29412350D02*
X60900238Y-29533303D01*
X60900238Y-29533303D02*
X60779285Y-29593779D01*
X59068667Y-52150922D02*
X59068667Y-53058065D01*
X59068667Y-53058065D02*
X59008190Y-53239493D01*
X59008190Y-53239493D02*
X58887238Y-53360446D01*
X58887238Y-53360446D02*
X58705809Y-53420922D01*
X58705809Y-53420922D02*
X58584857Y-53420922D01*
X60338667Y-53420922D02*
X59612952Y-53420922D01*
X59975809Y-53420922D02*
X59975809Y-52150922D01*
X59975809Y-52150922D02*
X59854857Y-52332350D01*
X59854857Y-52332350D02*
X59733905Y-52453303D01*
X59733905Y-52453303D02*
X59612952Y-52513779D01*
X88535933Y-44173369D02*
X88475457Y-44233846D01*
X88475457Y-44233846D02*
X88294028Y-44294322D01*
X88294028Y-44294322D02*
X88173076Y-44294322D01*
X88173076Y-44294322D02*
X87991647Y-44233846D01*
X87991647Y-44233846D02*
X87870695Y-44112893D01*
X87870695Y-44112893D02*
X87810218Y-43991941D01*
X87810218Y-43991941D02*
X87749742Y-43750036D01*
X87749742Y-43750036D02*
X87749742Y-43568607D01*
X87749742Y-43568607D02*
X87810218Y-43326703D01*
X87810218Y-43326703D02*
X87870695Y-43205750D01*
X87870695Y-43205750D02*
X87991647Y-43084798D01*
X87991647Y-43084798D02*
X88173076Y-43024322D01*
X88173076Y-43024322D02*
X88294028Y-43024322D01*
X88294028Y-43024322D02*
X88475457Y-43084798D01*
X88475457Y-43084798D02*
X88535933Y-43145274D01*
X88959266Y-43024322D02*
X89745457Y-43024322D01*
X89745457Y-43024322D02*
X89322123Y-43508131D01*
X89322123Y-43508131D02*
X89503552Y-43508131D01*
X89503552Y-43508131D02*
X89624504Y-43568607D01*
X89624504Y-43568607D02*
X89684980Y-43629084D01*
X89684980Y-43629084D02*
X89745457Y-43750036D01*
X89745457Y-43750036D02*
X89745457Y-44052417D01*
X89745457Y-44052417D02*
X89684980Y-44173369D01*
X89684980Y-44173369D02*
X89624504Y-44233846D01*
X89624504Y-44233846D02*
X89503552Y-44294322D01*
X89503552Y-44294322D02*
X89140695Y-44294322D01*
X89140695Y-44294322D02*
X89019742Y-44233846D01*
X89019742Y-44233846D02*
X88959266Y-44173369D01*
X57074922Y-109211666D02*
X56470160Y-109635000D01*
X57074922Y-109937381D02*
X55804922Y-109937381D01*
X55804922Y-109937381D02*
X55804922Y-109453571D01*
X55804922Y-109453571D02*
X55865398Y-109332619D01*
X55865398Y-109332619D02*
X55925874Y-109272142D01*
X55925874Y-109272142D02*
X56046826Y-109211666D01*
X56046826Y-109211666D02*
X56228255Y-109211666D01*
X56228255Y-109211666D02*
X56349207Y-109272142D01*
X56349207Y-109272142D02*
X56409684Y-109332619D01*
X56409684Y-109332619D02*
X56470160Y-109453571D01*
X56470160Y-109453571D02*
X56470160Y-109937381D01*
X56228255Y-108123095D02*
X57074922Y-108123095D01*
X55744446Y-108425476D02*
X56651588Y-108727857D01*
X56651588Y-108727857D02*
X56651588Y-107941666D01*
D12*
X114904318Y-17823332D02*
X115811461Y-17823332D01*
X115811461Y-17823332D02*
X115992889Y-17883809D01*
X115992889Y-17883809D02*
X116113842Y-18004761D01*
X116113842Y-18004761D02*
X116174318Y-18186190D01*
X116174318Y-18186190D02*
X116174318Y-18307142D01*
X114904318Y-17339523D02*
X114904318Y-16553332D01*
X114904318Y-16553332D02*
X115388127Y-16976666D01*
X115388127Y-16976666D02*
X115388127Y-16795237D01*
X115388127Y-16795237D02*
X115448603Y-16674285D01*
X115448603Y-16674285D02*
X115509080Y-16613809D01*
X115509080Y-16613809D02*
X115630032Y-16553332D01*
X115630032Y-16553332D02*
X115932413Y-16553332D01*
X115932413Y-16553332D02*
X116053365Y-16613809D01*
X116053365Y-16613809D02*
X116113842Y-16674285D01*
X116113842Y-16674285D02*
X116174318Y-16795237D01*
X116174318Y-16795237D02*
X116174318Y-17158094D01*
X116174318Y-17158094D02*
X116113842Y-17279047D01*
X116113842Y-17279047D02*
X116053365Y-17339523D01*
D11*
X105807133Y-54519769D02*
X105746657Y-54580246D01*
X105746657Y-54580246D02*
X105565228Y-54640722D01*
X105565228Y-54640722D02*
X105444276Y-54640722D01*
X105444276Y-54640722D02*
X105262847Y-54580246D01*
X105262847Y-54580246D02*
X105141895Y-54459293D01*
X105141895Y-54459293D02*
X105081418Y-54338341D01*
X105081418Y-54338341D02*
X105020942Y-54096436D01*
X105020942Y-54096436D02*
X105020942Y-53915007D01*
X105020942Y-53915007D02*
X105081418Y-53673103D01*
X105081418Y-53673103D02*
X105141895Y-53552150D01*
X105141895Y-53552150D02*
X105262847Y-53431198D01*
X105262847Y-53431198D02*
X105444276Y-53370722D01*
X105444276Y-53370722D02*
X105565228Y-53370722D01*
X105565228Y-53370722D02*
X105746657Y-53431198D01*
X105746657Y-53431198D02*
X105807133Y-53491674D01*
X106290942Y-53491674D02*
X106351418Y-53431198D01*
X106351418Y-53431198D02*
X106472371Y-53370722D01*
X106472371Y-53370722D02*
X106774752Y-53370722D01*
X106774752Y-53370722D02*
X106895704Y-53431198D01*
X106895704Y-53431198D02*
X106956180Y-53491674D01*
X106956180Y-53491674D02*
X107016657Y-53612626D01*
X107016657Y-53612626D02*
X107016657Y-53733579D01*
X107016657Y-53733579D02*
X106956180Y-53915007D01*
X106956180Y-53915007D02*
X106230466Y-54640722D01*
X106230466Y-54640722D02*
X107016657Y-54640722D01*
X43679533Y-37283922D02*
X43256199Y-36679160D01*
X42953818Y-37283922D02*
X42953818Y-36013922D01*
X42953818Y-36013922D02*
X43437628Y-36013922D01*
X43437628Y-36013922D02*
X43558580Y-36074398D01*
X43558580Y-36074398D02*
X43619057Y-36134874D01*
X43619057Y-36134874D02*
X43679533Y-36255826D01*
X43679533Y-36255826D02*
X43679533Y-36437255D01*
X43679533Y-36437255D02*
X43619057Y-36558207D01*
X43619057Y-36558207D02*
X43558580Y-36618684D01*
X43558580Y-36618684D02*
X43437628Y-36679160D01*
X43437628Y-36679160D02*
X42953818Y-36679160D01*
X44889057Y-37283922D02*
X44163342Y-37283922D01*
X44526199Y-37283922D02*
X44526199Y-36013922D01*
X44526199Y-36013922D02*
X44405247Y-36195350D01*
X44405247Y-36195350D02*
X44284295Y-36316303D01*
X44284295Y-36316303D02*
X44163342Y-36376779D01*
X113848333Y-124076922D02*
X113424999Y-123472160D01*
X113122618Y-124076922D02*
X113122618Y-122806922D01*
X113122618Y-122806922D02*
X113606428Y-122806922D01*
X113606428Y-122806922D02*
X113727380Y-122867398D01*
X113727380Y-122867398D02*
X113787857Y-122927874D01*
X113787857Y-122927874D02*
X113848333Y-123048826D01*
X113848333Y-123048826D02*
X113848333Y-123230255D01*
X113848333Y-123230255D02*
X113787857Y-123351207D01*
X113787857Y-123351207D02*
X113727380Y-123411684D01*
X113727380Y-123411684D02*
X113606428Y-123472160D01*
X113606428Y-123472160D02*
X113122618Y-123472160D01*
X114453095Y-124076922D02*
X114694999Y-124076922D01*
X114694999Y-124076922D02*
X114815952Y-124016446D01*
X114815952Y-124016446D02*
X114876428Y-123955969D01*
X114876428Y-123955969D02*
X114997380Y-123774541D01*
X114997380Y-123774541D02*
X115057857Y-123532636D01*
X115057857Y-123532636D02*
X115057857Y-123048826D01*
X115057857Y-123048826D02*
X114997380Y-122927874D01*
X114997380Y-122927874D02*
X114936904Y-122867398D01*
X114936904Y-122867398D02*
X114815952Y-122806922D01*
X114815952Y-122806922D02*
X114574047Y-122806922D01*
X114574047Y-122806922D02*
X114453095Y-122867398D01*
X114453095Y-122867398D02*
X114392618Y-122927874D01*
X114392618Y-122927874D02*
X114332142Y-123048826D01*
X114332142Y-123048826D02*
X114332142Y-123351207D01*
X114332142Y-123351207D02*
X114392618Y-123472160D01*
X114392618Y-123472160D02*
X114453095Y-123532636D01*
X114453095Y-123532636D02*
X114574047Y-123593112D01*
X114574047Y-123593112D02*
X114815952Y-123593112D01*
X114815952Y-123593112D02*
X114936904Y-123532636D01*
X114936904Y-123532636D02*
X114997380Y-123472160D01*
X114997380Y-123472160D02*
X115057857Y-123351207D01*
X80580922Y-109211666D02*
X79976160Y-109635000D01*
X80580922Y-109937381D02*
X79310922Y-109937381D01*
X79310922Y-109937381D02*
X79310922Y-109453571D01*
X79310922Y-109453571D02*
X79371398Y-109332619D01*
X79371398Y-109332619D02*
X79431874Y-109272142D01*
X79431874Y-109272142D02*
X79552826Y-109211666D01*
X79552826Y-109211666D02*
X79734255Y-109211666D01*
X79734255Y-109211666D02*
X79855207Y-109272142D01*
X79855207Y-109272142D02*
X79915684Y-109332619D01*
X79915684Y-109332619D02*
X79976160Y-109453571D01*
X79976160Y-109453571D02*
X79976160Y-109937381D01*
X79310922Y-108062619D02*
X79310922Y-108667381D01*
X79310922Y-108667381D02*
X79915684Y-108727857D01*
X79915684Y-108727857D02*
X79855207Y-108667381D01*
X79855207Y-108667381D02*
X79794731Y-108546428D01*
X79794731Y-108546428D02*
X79794731Y-108244047D01*
X79794731Y-108244047D02*
X79855207Y-108123095D01*
X79855207Y-108123095D02*
X79915684Y-108062619D01*
X79915684Y-108062619D02*
X80036636Y-108002142D01*
X80036636Y-108002142D02*
X80339017Y-108002142D01*
X80339017Y-108002142D02*
X80459969Y-108062619D01*
X80459969Y-108062619D02*
X80520446Y-108123095D01*
X80520446Y-108123095D02*
X80580922Y-108244047D01*
X80580922Y-108244047D02*
X80580922Y-108546428D01*
X80580922Y-108546428D02*
X80520446Y-108667381D01*
X80520446Y-108667381D02*
X80459969Y-108727857D01*
X67897333Y-37104922D02*
X67473999Y-36500160D01*
X67171618Y-37104922D02*
X67171618Y-35834922D01*
X67171618Y-35834922D02*
X67655428Y-35834922D01*
X67655428Y-35834922D02*
X67776380Y-35895398D01*
X67776380Y-35895398D02*
X67836857Y-35955874D01*
X67836857Y-35955874D02*
X67897333Y-36076826D01*
X67897333Y-36076826D02*
X67897333Y-36258255D01*
X67897333Y-36258255D02*
X67836857Y-36379207D01*
X67836857Y-36379207D02*
X67776380Y-36439684D01*
X67776380Y-36439684D02*
X67655428Y-36500160D01*
X67655428Y-36500160D02*
X67171618Y-36500160D01*
X68320666Y-35834922D02*
X69106857Y-35834922D01*
X69106857Y-35834922D02*
X68683523Y-36318731D01*
X68683523Y-36318731D02*
X68864952Y-36318731D01*
X68864952Y-36318731D02*
X68985904Y-36379207D01*
X68985904Y-36379207D02*
X69046380Y-36439684D01*
X69046380Y-36439684D02*
X69106857Y-36560636D01*
X69106857Y-36560636D02*
X69106857Y-36863017D01*
X69106857Y-36863017D02*
X69046380Y-36983969D01*
X69046380Y-36983969D02*
X68985904Y-37044446D01*
X68985904Y-37044446D02*
X68864952Y-37104922D01*
X68864952Y-37104922D02*
X68502095Y-37104922D01*
X68502095Y-37104922D02*
X68381142Y-37044446D01*
X68381142Y-37044446D02*
X68320666Y-36983969D01*
X89099571Y-59632922D02*
X88676237Y-59028160D01*
X88373856Y-59632922D02*
X88373856Y-58362922D01*
X88373856Y-58362922D02*
X88857666Y-58362922D01*
X88857666Y-58362922D02*
X88978618Y-58423398D01*
X88978618Y-58423398D02*
X89039095Y-58483874D01*
X89039095Y-58483874D02*
X89099571Y-58604826D01*
X89099571Y-58604826D02*
X89099571Y-58786255D01*
X89099571Y-58786255D02*
X89039095Y-58907207D01*
X89039095Y-58907207D02*
X88978618Y-58967684D01*
X88978618Y-58967684D02*
X88857666Y-59028160D01*
X88857666Y-59028160D02*
X88373856Y-59028160D01*
X90309095Y-59632922D02*
X89583380Y-59632922D01*
X89946237Y-59632922D02*
X89946237Y-58362922D01*
X89946237Y-58362922D02*
X89825285Y-58544350D01*
X89825285Y-58544350D02*
X89704333Y-58665303D01*
X89704333Y-58665303D02*
X89583380Y-58725779D01*
X91397666Y-58786255D02*
X91397666Y-59632922D01*
X91095285Y-58302446D02*
X90792904Y-59209588D01*
X90792904Y-59209588D02*
X91579095Y-59209588D01*
X81894437Y-42246322D02*
X81894437Y-40976322D01*
X83224914Y-42125369D02*
X83164438Y-42185846D01*
X83164438Y-42185846D02*
X82983009Y-42246322D01*
X82983009Y-42246322D02*
X82862057Y-42246322D01*
X82862057Y-42246322D02*
X82680628Y-42185846D01*
X82680628Y-42185846D02*
X82559676Y-42064893D01*
X82559676Y-42064893D02*
X82499199Y-41943941D01*
X82499199Y-41943941D02*
X82438723Y-41702036D01*
X82438723Y-41702036D02*
X82438723Y-41520607D01*
X82438723Y-41520607D02*
X82499199Y-41278703D01*
X82499199Y-41278703D02*
X82559676Y-41157750D01*
X82559676Y-41157750D02*
X82680628Y-41036798D01*
X82680628Y-41036798D02*
X82862057Y-40976322D01*
X82862057Y-40976322D02*
X82983009Y-40976322D01*
X82983009Y-40976322D02*
X83164438Y-41036798D01*
X83164438Y-41036798D02*
X83224914Y-41097274D01*
X83708723Y-41097274D02*
X83769199Y-41036798D01*
X83769199Y-41036798D02*
X83890152Y-40976322D01*
X83890152Y-40976322D02*
X84192533Y-40976322D01*
X84192533Y-40976322D02*
X84313485Y-41036798D01*
X84313485Y-41036798D02*
X84373961Y-41097274D01*
X84373961Y-41097274D02*
X84434438Y-41218226D01*
X84434438Y-41218226D02*
X84434438Y-41339179D01*
X84434438Y-41339179D02*
X84373961Y-41520607D01*
X84373961Y-41520607D02*
X83648247Y-42246322D01*
X83648247Y-42246322D02*
X84434438Y-42246322D01*
X63089475Y-30500922D02*
X63089475Y-29230922D01*
X63089475Y-29230922D02*
X63512809Y-30138065D01*
X63512809Y-30138065D02*
X63936142Y-29230922D01*
X63936142Y-29230922D02*
X63936142Y-30500922D01*
X65266619Y-30379969D02*
X65206143Y-30440446D01*
X65206143Y-30440446D02*
X65024714Y-30500922D01*
X65024714Y-30500922D02*
X64903762Y-30500922D01*
X64903762Y-30500922D02*
X64722333Y-30440446D01*
X64722333Y-30440446D02*
X64601381Y-30319493D01*
X64601381Y-30319493D02*
X64540904Y-30198541D01*
X64540904Y-30198541D02*
X64480428Y-29956636D01*
X64480428Y-29956636D02*
X64480428Y-29775207D01*
X64480428Y-29775207D02*
X64540904Y-29533303D01*
X64540904Y-29533303D02*
X64601381Y-29412350D01*
X64601381Y-29412350D02*
X64722333Y-29291398D01*
X64722333Y-29291398D02*
X64903762Y-29230922D01*
X64903762Y-29230922D02*
X65024714Y-29230922D01*
X65024714Y-29230922D02*
X65206143Y-29291398D01*
X65206143Y-29291398D02*
X65266619Y-29351874D01*
X65810904Y-29230922D02*
X65810904Y-30259017D01*
X65810904Y-30259017D02*
X65871381Y-30379969D01*
X65871381Y-30379969D02*
X65931857Y-30440446D01*
X65931857Y-30440446D02*
X66052809Y-30500922D01*
X66052809Y-30500922D02*
X66294714Y-30500922D01*
X66294714Y-30500922D02*
X66415666Y-30440446D01*
X66415666Y-30440446D02*
X66476143Y-30379969D01*
X66476143Y-30379969D02*
X66536619Y-30259017D01*
X66536619Y-30259017D02*
X66536619Y-29230922D01*
X68713761Y-30500922D02*
X68108999Y-30500922D01*
X68108999Y-30500922D02*
X68108999Y-29230922D01*
X69137094Y-29835684D02*
X69560428Y-29835684D01*
X69741856Y-30500922D02*
X69137094Y-30500922D01*
X69137094Y-30500922D02*
X69137094Y-29230922D01*
X69137094Y-29230922D02*
X69741856Y-29230922D01*
X70286142Y-30500922D02*
X70286142Y-29230922D01*
X70286142Y-29230922D02*
X70588523Y-29230922D01*
X70588523Y-29230922D02*
X70769952Y-29291398D01*
X70769952Y-29291398D02*
X70890904Y-29412350D01*
X70890904Y-29412350D02*
X70951381Y-29533303D01*
X70951381Y-29533303D02*
X71011857Y-29775207D01*
X71011857Y-29775207D02*
X71011857Y-29956636D01*
X71011857Y-29956636D02*
X70951381Y-30198541D01*
X70951381Y-30198541D02*
X70890904Y-30319493D01*
X70890904Y-30319493D02*
X70769952Y-30440446D01*
X70769952Y-30440446D02*
X70588523Y-30500922D01*
X70588523Y-30500922D02*
X70286142Y-30500922D01*
X72463285Y-29351874D02*
X72523761Y-29291398D01*
X72523761Y-29291398D02*
X72644714Y-29230922D01*
X72644714Y-29230922D02*
X72947095Y-29230922D01*
X72947095Y-29230922D02*
X73068047Y-29291398D01*
X73068047Y-29291398D02*
X73128523Y-29351874D01*
X73128523Y-29351874D02*
X73189000Y-29472826D01*
X73189000Y-29472826D02*
X73189000Y-29593779D01*
X73189000Y-29593779D02*
X73128523Y-29775207D01*
X73128523Y-29775207D02*
X72402809Y-30500922D01*
X72402809Y-30500922D02*
X73189000Y-30500922D01*
D12*
X99404318Y-17823332D02*
X100311461Y-17823332D01*
X100311461Y-17823332D02*
X100492889Y-17883809D01*
X100492889Y-17883809D02*
X100613842Y-18004761D01*
X100613842Y-18004761D02*
X100674318Y-18186190D01*
X100674318Y-18186190D02*
X100674318Y-18307142D01*
X99525270Y-17279047D02*
X99464794Y-17218571D01*
X99464794Y-17218571D02*
X99404318Y-17097618D01*
X99404318Y-17097618D02*
X99404318Y-16795237D01*
X99404318Y-16795237D02*
X99464794Y-16674285D01*
X99464794Y-16674285D02*
X99525270Y-16613809D01*
X99525270Y-16613809D02*
X99646222Y-16553332D01*
X99646222Y-16553332D02*
X99767175Y-16553332D01*
X99767175Y-16553332D02*
X99948603Y-16613809D01*
X99948603Y-16613809D02*
X100674318Y-17339523D01*
X100674318Y-17339523D02*
X100674318Y-16553332D01*
D11*
X114725969Y-72911666D02*
X114786446Y-72972142D01*
X114786446Y-72972142D02*
X114846922Y-73153571D01*
X114846922Y-73153571D02*
X114846922Y-73274523D01*
X114846922Y-73274523D02*
X114786446Y-73455952D01*
X114786446Y-73455952D02*
X114665493Y-73576904D01*
X114665493Y-73576904D02*
X114544541Y-73637381D01*
X114544541Y-73637381D02*
X114302636Y-73697857D01*
X114302636Y-73697857D02*
X114121207Y-73697857D01*
X114121207Y-73697857D02*
X113879303Y-73637381D01*
X113879303Y-73637381D02*
X113758350Y-73576904D01*
X113758350Y-73576904D02*
X113637398Y-73455952D01*
X113637398Y-73455952D02*
X113576922Y-73274523D01*
X113576922Y-73274523D02*
X113576922Y-73153571D01*
X113576922Y-73153571D02*
X113637398Y-72972142D01*
X113637398Y-72972142D02*
X113697874Y-72911666D01*
X113576922Y-71762619D02*
X113576922Y-72367381D01*
X113576922Y-72367381D02*
X114181684Y-72427857D01*
X114181684Y-72427857D02*
X114121207Y-72367381D01*
X114121207Y-72367381D02*
X114060731Y-72246428D01*
X114060731Y-72246428D02*
X114060731Y-71944047D01*
X114060731Y-71944047D02*
X114121207Y-71823095D01*
X114121207Y-71823095D02*
X114181684Y-71762619D01*
X114181684Y-71762619D02*
X114302636Y-71702142D01*
X114302636Y-71702142D02*
X114605017Y-71702142D01*
X114605017Y-71702142D02*
X114725969Y-71762619D01*
X114725969Y-71762619D02*
X114786446Y-71823095D01*
X114786446Y-71823095D02*
X114846922Y-71944047D01*
X114846922Y-71944047D02*
X114846922Y-72246428D01*
X114846922Y-72246428D02*
X114786446Y-72367381D01*
X114786446Y-72367381D02*
X114725969Y-72427857D01*
X105553922Y-58425362D02*
X104283922Y-58425362D01*
X105432969Y-57094885D02*
X105493446Y-57155361D01*
X105493446Y-57155361D02*
X105553922Y-57336790D01*
X105553922Y-57336790D02*
X105553922Y-57457742D01*
X105553922Y-57457742D02*
X105493446Y-57639171D01*
X105493446Y-57639171D02*
X105372493Y-57760123D01*
X105372493Y-57760123D02*
X105251541Y-57820600D01*
X105251541Y-57820600D02*
X105009636Y-57881076D01*
X105009636Y-57881076D02*
X104828207Y-57881076D01*
X104828207Y-57881076D02*
X104586303Y-57820600D01*
X104586303Y-57820600D02*
X104465350Y-57760123D01*
X104465350Y-57760123D02*
X104344398Y-57639171D01*
X104344398Y-57639171D02*
X104283922Y-57457742D01*
X104283922Y-57457742D02*
X104283922Y-57336790D01*
X104283922Y-57336790D02*
X104344398Y-57155361D01*
X104344398Y-57155361D02*
X104404874Y-57094885D01*
X105553922Y-55885361D02*
X105553922Y-56611076D01*
X105553922Y-56248219D02*
X104283922Y-56248219D01*
X104283922Y-56248219D02*
X104465350Y-56369171D01*
X104465350Y-56369171D02*
X104586303Y-56490123D01*
X104586303Y-56490123D02*
X104646779Y-56611076D01*
X96087969Y-57397266D02*
X96148446Y-57457742D01*
X96148446Y-57457742D02*
X96208922Y-57639171D01*
X96208922Y-57639171D02*
X96208922Y-57760123D01*
X96208922Y-57760123D02*
X96148446Y-57941552D01*
X96148446Y-57941552D02*
X96027493Y-58062504D01*
X96027493Y-58062504D02*
X95906541Y-58122981D01*
X95906541Y-58122981D02*
X95664636Y-58183457D01*
X95664636Y-58183457D02*
X95483207Y-58183457D01*
X95483207Y-58183457D02*
X95241303Y-58122981D01*
X95241303Y-58122981D02*
X95120350Y-58062504D01*
X95120350Y-58062504D02*
X94999398Y-57941552D01*
X94999398Y-57941552D02*
X94938922Y-57760123D01*
X94938922Y-57760123D02*
X94938922Y-57639171D01*
X94938922Y-57639171D02*
X94999398Y-57457742D01*
X94999398Y-57457742D02*
X95059874Y-57397266D01*
X96208922Y-56187742D02*
X96208922Y-56913457D01*
X96208922Y-56550600D02*
X94938922Y-56550600D01*
X94938922Y-56550600D02*
X95120350Y-56671552D01*
X95120350Y-56671552D02*
X95241303Y-56792504D01*
X95241303Y-56792504D02*
X95301779Y-56913457D01*
X119507969Y-72911666D02*
X119568446Y-72972142D01*
X119568446Y-72972142D02*
X119628922Y-73153571D01*
X119628922Y-73153571D02*
X119628922Y-73274523D01*
X119628922Y-73274523D02*
X119568446Y-73455952D01*
X119568446Y-73455952D02*
X119447493Y-73576904D01*
X119447493Y-73576904D02*
X119326541Y-73637381D01*
X119326541Y-73637381D02*
X119084636Y-73697857D01*
X119084636Y-73697857D02*
X118903207Y-73697857D01*
X118903207Y-73697857D02*
X118661303Y-73637381D01*
X118661303Y-73637381D02*
X118540350Y-73576904D01*
X118540350Y-73576904D02*
X118419398Y-73455952D01*
X118419398Y-73455952D02*
X118358922Y-73274523D01*
X118358922Y-73274523D02*
X118358922Y-73153571D01*
X118358922Y-73153571D02*
X118419398Y-72972142D01*
X118419398Y-72972142D02*
X118479874Y-72911666D01*
X118358922Y-71823095D02*
X118358922Y-72065000D01*
X118358922Y-72065000D02*
X118419398Y-72185952D01*
X118419398Y-72185952D02*
X118479874Y-72246428D01*
X118479874Y-72246428D02*
X118661303Y-72367381D01*
X118661303Y-72367381D02*
X118903207Y-72427857D01*
X118903207Y-72427857D02*
X119387017Y-72427857D01*
X119387017Y-72427857D02*
X119507969Y-72367381D01*
X119507969Y-72367381D02*
X119568446Y-72306904D01*
X119568446Y-72306904D02*
X119628922Y-72185952D01*
X119628922Y-72185952D02*
X119628922Y-71944047D01*
X119628922Y-71944047D02*
X119568446Y-71823095D01*
X119568446Y-71823095D02*
X119507969Y-71762619D01*
X119507969Y-71762619D02*
X119387017Y-71702142D01*
X119387017Y-71702142D02*
X119084636Y-71702142D01*
X119084636Y-71702142D02*
X118963684Y-71762619D01*
X118963684Y-71762619D02*
X118903207Y-71823095D01*
X118903207Y-71823095D02*
X118842731Y-71944047D01*
X118842731Y-71944047D02*
X118842731Y-72185952D01*
X118842731Y-72185952D02*
X118903207Y-72306904D01*
X118903207Y-72306904D02*
X118963684Y-72367381D01*
X118963684Y-72367381D02*
X119084636Y-72427857D01*
X142529180Y-54393846D02*
X142710609Y-54454322D01*
X142710609Y-54454322D02*
X143012990Y-54454322D01*
X143012990Y-54454322D02*
X143133942Y-54393846D01*
X143133942Y-54393846D02*
X143194418Y-54333369D01*
X143194418Y-54333369D02*
X143254895Y-54212417D01*
X143254895Y-54212417D02*
X143254895Y-54091465D01*
X143254895Y-54091465D02*
X143194418Y-53970512D01*
X143194418Y-53970512D02*
X143133942Y-53910036D01*
X143133942Y-53910036D02*
X143012990Y-53849560D01*
X143012990Y-53849560D02*
X142771085Y-53789084D01*
X142771085Y-53789084D02*
X142650133Y-53728607D01*
X142650133Y-53728607D02*
X142589656Y-53668131D01*
X142589656Y-53668131D02*
X142529180Y-53547179D01*
X142529180Y-53547179D02*
X142529180Y-53426226D01*
X142529180Y-53426226D02*
X142589656Y-53305274D01*
X142589656Y-53305274D02*
X142650133Y-53244798D01*
X142650133Y-53244798D02*
X142771085Y-53184322D01*
X142771085Y-53184322D02*
X143073466Y-53184322D01*
X143073466Y-53184322D02*
X143254895Y-53244798D01*
X144403942Y-53184322D02*
X143799180Y-53184322D01*
X143799180Y-53184322D02*
X143738704Y-53789084D01*
X143738704Y-53789084D02*
X143799180Y-53728607D01*
X143799180Y-53728607D02*
X143920133Y-53668131D01*
X143920133Y-53668131D02*
X144222514Y-53668131D01*
X144222514Y-53668131D02*
X144343466Y-53728607D01*
X144343466Y-53728607D02*
X144403942Y-53789084D01*
X144403942Y-53789084D02*
X144464419Y-53910036D01*
X144464419Y-53910036D02*
X144464419Y-54212417D01*
X144464419Y-54212417D02*
X144403942Y-54333369D01*
X144403942Y-54333369D02*
X144343466Y-54393846D01*
X144343466Y-54393846D02*
X144222514Y-54454322D01*
X144222514Y-54454322D02*
X143920133Y-54454322D01*
X143920133Y-54454322D02*
X143799180Y-54393846D01*
X143799180Y-54393846D02*
X143738704Y-54333369D01*
X40499694Y-30527522D02*
X40499694Y-29257522D01*
X40499694Y-29257522D02*
X40983504Y-29257522D01*
X40983504Y-29257522D02*
X41104456Y-29317998D01*
X41104456Y-29317998D02*
X41164933Y-29378474D01*
X41164933Y-29378474D02*
X41225409Y-29499426D01*
X41225409Y-29499426D02*
X41225409Y-29680855D01*
X41225409Y-29680855D02*
X41164933Y-29801807D01*
X41164933Y-29801807D02*
X41104456Y-29862284D01*
X41104456Y-29862284D02*
X40983504Y-29922760D01*
X40983504Y-29922760D02*
X40499694Y-29922760D01*
X42011599Y-29257522D02*
X42253504Y-29257522D01*
X42253504Y-29257522D02*
X42374456Y-29317998D01*
X42374456Y-29317998D02*
X42495409Y-29438950D01*
X42495409Y-29438950D02*
X42555885Y-29680855D01*
X42555885Y-29680855D02*
X42555885Y-30104188D01*
X42555885Y-30104188D02*
X42495409Y-30346093D01*
X42495409Y-30346093D02*
X42374456Y-30467046D01*
X42374456Y-30467046D02*
X42253504Y-30527522D01*
X42253504Y-30527522D02*
X42011599Y-30527522D01*
X42011599Y-30527522D02*
X41890647Y-30467046D01*
X41890647Y-30467046D02*
X41769694Y-30346093D01*
X41769694Y-30346093D02*
X41709218Y-30104188D01*
X41709218Y-30104188D02*
X41709218Y-29680855D01*
X41709218Y-29680855D02*
X41769694Y-29438950D01*
X41769694Y-29438950D02*
X41890647Y-29317998D01*
X41890647Y-29317998D02*
X42011599Y-29257522D01*
X42979218Y-29257522D02*
X43281599Y-30527522D01*
X43281599Y-30527522D02*
X43523504Y-29620379D01*
X43523504Y-29620379D02*
X43765409Y-30527522D01*
X43765409Y-30527522D02*
X44067790Y-29257522D01*
X44551599Y-29862284D02*
X44974933Y-29862284D01*
X45156361Y-30527522D02*
X44551599Y-30527522D01*
X44551599Y-30527522D02*
X44551599Y-29257522D01*
X44551599Y-29257522D02*
X45156361Y-29257522D01*
X46426362Y-30527522D02*
X46003028Y-29922760D01*
X45700647Y-30527522D02*
X45700647Y-29257522D01*
X45700647Y-29257522D02*
X46184457Y-29257522D01*
X46184457Y-29257522D02*
X46305409Y-29317998D01*
X46305409Y-29317998D02*
X46365886Y-29378474D01*
X46365886Y-29378474D02*
X46426362Y-29499426D01*
X46426362Y-29499426D02*
X46426362Y-29680855D01*
X46426362Y-29680855D02*
X46365886Y-29801807D01*
X46365886Y-29801807D02*
X46305409Y-29862284D01*
X46305409Y-29862284D02*
X46184457Y-29922760D01*
X46184457Y-29922760D02*
X45700647Y-29922760D01*
D13*
%TO.C,IC4*%
X97325000Y-67610000D02*
X99250000Y-67610000D01*
X99600000Y-67600000D02*
X106400000Y-67600000D01*
X99600000Y-80400000D02*
X99600000Y-67600000D01*
X106400000Y-67600000D02*
X106400000Y-80400000D01*
X106400000Y-80400000D02*
X99600000Y-80400000D01*
D10*
%TO.C,R8*%
X136700000Y-124050000D02*
G75*
G03*
X136700000Y-123950000I0J50000D01*
G01*
X136700000Y-123950000D02*
G75*
G03*
X136700000Y-124050000I0J-50000D01*
G01*
X136700000Y-124050000D02*
X136700000Y-124050000D01*
X136700000Y-123950000D02*
X136700000Y-123950000D01*
%TO.C,R7*%
X136700000Y-116050000D02*
G75*
G03*
X136700000Y-115950000I0J50000D01*
G01*
X136700000Y-115950000D02*
G75*
G03*
X136700000Y-116050000I0J-50000D01*
G01*
X136700000Y-116050000D02*
X136700000Y-116050000D01*
X136700000Y-115950000D02*
X136700000Y-115950000D01*
%TO.C,R6*%
X136700000Y-120050000D02*
G75*
G03*
X136700000Y-119950000I0J50000D01*
G01*
X136700000Y-119950000D02*
G75*
G03*
X136700000Y-120050000I0J-50000D01*
G01*
X136700000Y-120050000D02*
X136700000Y-120050000D01*
X136700000Y-119950000D02*
X136700000Y-119950000D01*
%TO.C,J4*%
X140047000Y-63751000D02*
X149953000Y-63751000D01*
X140047000Y-69847000D02*
X140047000Y-63751000D01*
X143700000Y-70199000D02*
X143700000Y-70199000D01*
X143800000Y-70199000D02*
X143800000Y-70199000D01*
X149953000Y-63751000D02*
X149953000Y-69847000D01*
X149953000Y-69847000D02*
X140047000Y-69847000D01*
X143800000Y-70199000D02*
G75*
G03*
X143700000Y-70199000I-50000J0D01*
G01*
X143700000Y-70199000D02*
G75*
G03*
X143800000Y-70199000I50000J0D01*
G01*
%TO.C,R2*%
X57217000Y-35050000D02*
X57217000Y-35050000D01*
X57217000Y-34950000D02*
X57217000Y-34950000D01*
X57217000Y-34950000D02*
G75*
G03*
X57217000Y-35050000I0J-50000D01*
G01*
X57217000Y-35050000D02*
G75*
G03*
X57217000Y-34950000I0J50000D01*
G01*
D13*
%TO.C,MCU LED 1*%
X55117000Y-31744000D02*
X56717000Y-31744000D01*
X56717000Y-31144000D02*
X54792000Y-31144000D01*
%TO.C,J1*%
X63810000Y-53935000D02*
X58730000Y-53935000D01*
X58730000Y-53935000D02*
X58730000Y-78240000D01*
X63810000Y-79685000D02*
X63810000Y-53935000D01*
X62540000Y-79685000D02*
X63810000Y-79685000D01*
D12*
%TO.C,S2*%
X86320000Y-126960000D02*
X86320000Y-111960000D01*
X71320000Y-126960000D02*
X86320000Y-126960000D01*
X71320000Y-126960000D02*
X71320000Y-111960000D01*
X71320000Y-111960000D02*
X86320000Y-111960000D01*
D10*
%TO.C,R4*%
X55050000Y-107700000D02*
X55050000Y-107700000D01*
X54950000Y-107700000D02*
X54950000Y-107700000D01*
X54950000Y-107700000D02*
G75*
G03*
X55050000Y-107700000I50000J0D01*
G01*
X55050000Y-107700000D02*
G75*
G03*
X54950000Y-107700000I-50000J0D01*
G01*
D12*
%TO.C,S3*%
X132040000Y-126960000D02*
X132040000Y-111960000D01*
X117040000Y-126960000D02*
X132040000Y-126960000D01*
X117040000Y-126960000D02*
X117040000Y-111960000D01*
X117040000Y-111960000D02*
X132040000Y-111960000D01*
D13*
%TO.C,J3*%
X116850000Y-15930000D02*
X115600000Y-15930000D01*
X114350000Y-17400000D02*
X114350000Y-39540000D01*
X116850000Y-39540000D02*
X116850000Y-15930000D01*
X114350000Y-39540000D02*
X116850000Y-39540000D01*
D10*
%TO.C,R1*%
X45191200Y-35229000D02*
X45191200Y-35229000D01*
X45191200Y-35129000D02*
X45191200Y-35129000D01*
X45191200Y-35129000D02*
G75*
G03*
X45191200Y-35229000I0J-50000D01*
G01*
X45191200Y-35229000D02*
G75*
G03*
X45191200Y-35129000I0J50000D01*
G01*
%TO.C,R9*%
X112700000Y-121950000D02*
X112700000Y-121950000D01*
X112700000Y-122050000D02*
X112700000Y-122050000D01*
X112700000Y-122050000D02*
G75*
G03*
X112700000Y-121950000I0J50000D01*
G01*
X112700000Y-121950000D02*
G75*
G03*
X112700000Y-122050000I0J-50000D01*
G01*
%TO.C,R5*%
X78050000Y-107700000D02*
X78050000Y-107700000D01*
X77950000Y-107700000D02*
X77950000Y-107700000D01*
X77950000Y-107700000D02*
G75*
G03*
X78050000Y-107700000I50000J0D01*
G01*
X78050000Y-107700000D02*
G75*
G03*
X77950000Y-107700000I-50000J0D01*
G01*
%TO.C,R3*%
X69409000Y-35050000D02*
X69409000Y-35050000D01*
X69409000Y-34950000D02*
X69409000Y-34950000D01*
X69409000Y-34950000D02*
G75*
G03*
X69409000Y-35050000I0J-50000D01*
G01*
X69409000Y-35050000D02*
G75*
G03*
X69409000Y-34950000I0J50000D01*
G01*
D12*
%TO.C,S1*%
X45920000Y-111960000D02*
X60920000Y-111960000D01*
X45920000Y-126960000D02*
X45920000Y-111960000D01*
X45920000Y-126960000D02*
X60920000Y-126960000D01*
X60920000Y-126960000D02*
X60920000Y-111960000D01*
D10*
%TO.C,R14*%
X88616000Y-60910000D02*
X88616000Y-60910000D01*
X88616000Y-61010000D02*
X88616000Y-61010000D01*
X88616000Y-61010000D02*
G75*
G03*
X88616000Y-60910000I0J50000D01*
G01*
X88616000Y-60910000D02*
G75*
G03*
X88616000Y-61010000I0J-50000D01*
G01*
D13*
%TO.C,IC2*%
X81959200Y-45780400D02*
X81959200Y-44630400D01*
X82134200Y-44280400D02*
X82134200Y-44130400D01*
X84134200Y-44280400D02*
X82134200Y-44280400D01*
X82134200Y-44130400D02*
X84134200Y-44130400D01*
X84134200Y-44130400D02*
X84134200Y-44280400D01*
%TO.C,MCU LED 2*%
X67309000Y-31744000D02*
X68909000Y-31744000D01*
X68909000Y-31144000D02*
X66984000Y-31144000D01*
%TO.C,J2*%
X101350000Y-15930000D02*
X100100000Y-15930000D01*
X98850000Y-17400000D02*
X98850000Y-39540000D01*
X101350000Y-39540000D02*
X101350000Y-15930000D01*
X98850000Y-39540000D02*
X101350000Y-39540000D01*
%TO.C,IC1*%
X99874000Y-55685600D02*
X100774000Y-55685600D01*
X101124000Y-55735600D02*
X102324000Y-55735600D01*
X101124000Y-58635600D02*
X101124000Y-55735600D01*
X102324000Y-55735600D02*
X102324000Y-58635600D01*
X102324000Y-58635600D02*
X101124000Y-58635600D01*
D12*
%TO.C,S4*%
X157440000Y-126960000D02*
X157440000Y-111960000D01*
X142440000Y-126960000D02*
X157440000Y-126960000D01*
X142440000Y-126960000D02*
X142440000Y-111960000D01*
X142440000Y-111960000D02*
X157440000Y-111960000D01*
D13*
%TO.C,S5*%
X148960800Y-51793400D02*
X148960800Y-51793400D01*
X148760800Y-51793400D02*
X148760800Y-51793400D01*
D10*
X147460800Y-50293400D02*
X147460800Y-47293400D01*
X146560800Y-52743400D02*
X140560800Y-52743400D01*
X146560800Y-44843400D02*
X140560800Y-44843400D01*
X139660800Y-47293400D02*
X139660800Y-50293400D01*
D13*
X148760800Y-51793400D02*
G75*
G03*
X148960800Y-51793400I100000J0D01*
G01*
X148960800Y-51793400D02*
G75*
G03*
X148760800Y-51793400I-100000J0D01*
G01*
%TO.C,POWER *%
X42925000Y-31744000D02*
X44525000Y-31744000D01*
X44525000Y-31144000D02*
X42600000Y-31144000D01*
%TD*%
D14*
%TO.C,J4*%
X142460000Y-66799000D03*
X147540000Y-65783000D03*
X147540000Y-67815000D03*
%TD*%
D15*
%TO.C,J1*%
X60000000Y-55380000D03*
X62540000Y-55380000D03*
X60000000Y-57920000D03*
X62540000Y-57920000D03*
X60000000Y-60460000D03*
X62540000Y-60460000D03*
X60000000Y-63000000D03*
X62540000Y-63000000D03*
X60000000Y-65540000D03*
X62540000Y-65540000D03*
X60000000Y-68080000D03*
X62540000Y-68080000D03*
X60000000Y-70620000D03*
X62540000Y-70620000D03*
X60000000Y-73160000D03*
X62540000Y-73160000D03*
X60000000Y-75700000D03*
X62540000Y-75700000D03*
X60000000Y-78240000D03*
D16*
X62540000Y-78240000D03*
%TD*%
D17*
%TO.C,J3*%
X115600000Y-17400000D03*
D18*
X115600000Y-19940000D03*
X115600000Y-22480000D03*
X115600000Y-25020000D03*
X115600000Y-27560000D03*
X115600000Y-30100000D03*
X115600000Y-32640000D03*
X115600000Y-35180000D03*
X115600000Y-37720000D03*
%TD*%
D17*
%TO.C,J2*%
X100100000Y-17400000D03*
D18*
X100100000Y-19940000D03*
X100100000Y-22480000D03*
X100100000Y-25020000D03*
X100100000Y-27560000D03*
X100100000Y-30100000D03*
X100100000Y-32640000D03*
X100100000Y-35180000D03*
X100100000Y-37720000D03*
%TD*%
D19*
%TO.C,S5*%
X147560800Y-51793400D03*
X147560800Y-45793400D03*
X139560800Y-51793400D03*
X139560800Y-45793400D03*
%TD*%
M02*
