%TF.GenerationSoftware,KiCad,Pcbnew,7.0.10*%
%TF.CreationDate,2024-12-08T15:27:32+00:00*%
%TF.ProjectId,buran,62757261-6e2e-46b6-9963-61645f706362,rev?*%
%TF.SameCoordinates,Original*%
%TF.FileFunction,Legend,Bot*%
%TF.FilePolarity,Positive*%
%FSLAX46Y46*%
G04 Gerber Fmt 4.6, Leading zero omitted, Abs format (unit mm)*
G04 Created by KiCad (PCBNEW 7.0.10) date 2024-12-08 15:27:32*
%MOMM*%
%LPD*%
G01*
G04 APERTURE LIST*
%ADD10C,0.203200*%
%ADD11C,0.152400*%
G04 APERTURE END LIST*
D10*
X113723458Y-127697052D02*
X113437744Y-127792290D01*
X113437744Y-127792290D02*
X113342506Y-127887528D01*
X113342506Y-127887528D02*
X113247268Y-128078004D01*
X113247268Y-128078004D02*
X113247268Y-128363718D01*
X113247268Y-128363718D02*
X113342506Y-128554194D01*
X113342506Y-128554194D02*
X113437744Y-128649433D01*
X113437744Y-128649433D02*
X113628220Y-128744671D01*
X113628220Y-128744671D02*
X114390125Y-128744671D01*
X114390125Y-128744671D02*
X114390125Y-126744671D01*
X114390125Y-126744671D02*
X113723458Y-126744671D01*
X113723458Y-126744671D02*
X113532982Y-126839909D01*
X113532982Y-126839909D02*
X113437744Y-126935147D01*
X113437744Y-126935147D02*
X113342506Y-127125623D01*
X113342506Y-127125623D02*
X113342506Y-127316099D01*
X113342506Y-127316099D02*
X113437744Y-127506575D01*
X113437744Y-127506575D02*
X113532982Y-127601813D01*
X113532982Y-127601813D02*
X113723458Y-127697052D01*
X113723458Y-127697052D02*
X114390125Y-127697052D01*
X111532982Y-127411337D02*
X111532982Y-128744671D01*
X112390125Y-127411337D02*
X112390125Y-128458956D01*
X112390125Y-128458956D02*
X112294887Y-128649433D01*
X112294887Y-128649433D02*
X112104411Y-128744671D01*
X112104411Y-128744671D02*
X111818696Y-128744671D01*
X111818696Y-128744671D02*
X111628220Y-128649433D01*
X111628220Y-128649433D02*
X111532982Y-128554194D01*
X110580601Y-128744671D02*
X110580601Y-127411337D01*
X110580601Y-127792290D02*
X110485363Y-127601813D01*
X110485363Y-127601813D02*
X110390125Y-127506575D01*
X110390125Y-127506575D02*
X110199649Y-127411337D01*
X110199649Y-127411337D02*
X110009172Y-127411337D01*
X108485363Y-128744671D02*
X108485363Y-127697052D01*
X108485363Y-127697052D02*
X108580601Y-127506575D01*
X108580601Y-127506575D02*
X108771077Y-127411337D01*
X108771077Y-127411337D02*
X109152030Y-127411337D01*
X109152030Y-127411337D02*
X109342506Y-127506575D01*
X108485363Y-128649433D02*
X108675839Y-128744671D01*
X108675839Y-128744671D02*
X109152030Y-128744671D01*
X109152030Y-128744671D02*
X109342506Y-128649433D01*
X109342506Y-128649433D02*
X109437744Y-128458956D01*
X109437744Y-128458956D02*
X109437744Y-128268480D01*
X109437744Y-128268480D02*
X109342506Y-128078004D01*
X109342506Y-128078004D02*
X109152030Y-127982766D01*
X109152030Y-127982766D02*
X108675839Y-127982766D01*
X108675839Y-127982766D02*
X108485363Y-127887528D01*
X107532982Y-127411337D02*
X107532982Y-128744671D01*
X107532982Y-127601813D02*
X107437744Y-127506575D01*
X107437744Y-127506575D02*
X107247268Y-127411337D01*
X107247268Y-127411337D02*
X106961553Y-127411337D01*
X106961553Y-127411337D02*
X106771077Y-127506575D01*
X106771077Y-127506575D02*
X106675839Y-127697052D01*
X106675839Y-127697052D02*
X106675839Y-128744671D01*
X104199648Y-127982766D02*
X102675839Y-127982766D01*
X100294886Y-126935147D02*
X100199648Y-126839909D01*
X100199648Y-126839909D02*
X100009172Y-126744671D01*
X100009172Y-126744671D02*
X99532981Y-126744671D01*
X99532981Y-126744671D02*
X99342505Y-126839909D01*
X99342505Y-126839909D02*
X99247267Y-126935147D01*
X99247267Y-126935147D02*
X99152029Y-127125623D01*
X99152029Y-127125623D02*
X99152029Y-127316099D01*
X99152029Y-127316099D02*
X99247267Y-127601813D01*
X99247267Y-127601813D02*
X100390124Y-128744671D01*
X100390124Y-128744671D02*
X99152029Y-128744671D01*
X97913934Y-126744671D02*
X97723457Y-126744671D01*
X97723457Y-126744671D02*
X97532981Y-126839909D01*
X97532981Y-126839909D02*
X97437743Y-126935147D01*
X97437743Y-126935147D02*
X97342505Y-127125623D01*
X97342505Y-127125623D02*
X97247267Y-127506575D01*
X97247267Y-127506575D02*
X97247267Y-127982766D01*
X97247267Y-127982766D02*
X97342505Y-128363718D01*
X97342505Y-128363718D02*
X97437743Y-128554194D01*
X97437743Y-128554194D02*
X97532981Y-128649433D01*
X97532981Y-128649433D02*
X97723457Y-128744671D01*
X97723457Y-128744671D02*
X97913934Y-128744671D01*
X97913934Y-128744671D02*
X98104410Y-128649433D01*
X98104410Y-128649433D02*
X98199648Y-128554194D01*
X98199648Y-128554194D02*
X98294886Y-128363718D01*
X98294886Y-128363718D02*
X98390124Y-127982766D01*
X98390124Y-127982766D02*
X98390124Y-127506575D01*
X98390124Y-127506575D02*
X98294886Y-127125623D01*
X98294886Y-127125623D02*
X98199648Y-126935147D01*
X98199648Y-126935147D02*
X98104410Y-126839909D01*
X98104410Y-126839909D02*
X97913934Y-126744671D01*
X96485362Y-126935147D02*
X96390124Y-126839909D01*
X96390124Y-126839909D02*
X96199648Y-126744671D01*
X96199648Y-126744671D02*
X95723457Y-126744671D01*
X95723457Y-126744671D02*
X95532981Y-126839909D01*
X95532981Y-126839909D02*
X95437743Y-126935147D01*
X95437743Y-126935147D02*
X95342505Y-127125623D01*
X95342505Y-127125623D02*
X95342505Y-127316099D01*
X95342505Y-127316099D02*
X95437743Y-127601813D01*
X95437743Y-127601813D02*
X96580600Y-128744671D01*
X96580600Y-128744671D02*
X95342505Y-128744671D01*
X93628219Y-127411337D02*
X93628219Y-128744671D01*
X94104410Y-126649433D02*
X94580600Y-128078004D01*
X94580600Y-128078004D02*
X93342505Y-128078004D01*
D11*
X135186594Y-145834789D02*
X134972308Y-145906217D01*
X134972308Y-145906217D02*
X134900879Y-145977646D01*
X134900879Y-145977646D02*
X134829451Y-146120503D01*
X134829451Y-146120503D02*
X134829451Y-146334789D01*
X134829451Y-146334789D02*
X134900879Y-146477646D01*
X134900879Y-146477646D02*
X134972308Y-146549075D01*
X134972308Y-146549075D02*
X135115165Y-146620503D01*
X135115165Y-146620503D02*
X135686594Y-146620503D01*
X135686594Y-146620503D02*
X135686594Y-145120503D01*
X135686594Y-145120503D02*
X135186594Y-145120503D01*
X135186594Y-145120503D02*
X135043737Y-145191932D01*
X135043737Y-145191932D02*
X134972308Y-145263360D01*
X134972308Y-145263360D02*
X134900879Y-145406217D01*
X134900879Y-145406217D02*
X134900879Y-145549075D01*
X134900879Y-145549075D02*
X134972308Y-145691932D01*
X134972308Y-145691932D02*
X135043737Y-145763360D01*
X135043737Y-145763360D02*
X135186594Y-145834789D01*
X135186594Y-145834789D02*
X135686594Y-145834789D01*
X133543737Y-145620503D02*
X133543737Y-146620503D01*
X134186594Y-145620503D02*
X134186594Y-146406217D01*
X134186594Y-146406217D02*
X134115165Y-146549075D01*
X134115165Y-146549075D02*
X133972308Y-146620503D01*
X133972308Y-146620503D02*
X133758022Y-146620503D01*
X133758022Y-146620503D02*
X133615165Y-146549075D01*
X133615165Y-146549075D02*
X133543737Y-146477646D01*
X132829451Y-146620503D02*
X132829451Y-145620503D01*
X132829451Y-145906217D02*
X132758022Y-145763360D01*
X132758022Y-145763360D02*
X132686594Y-145691932D01*
X132686594Y-145691932D02*
X132543736Y-145620503D01*
X132543736Y-145620503D02*
X132400879Y-145620503D01*
X131258023Y-146620503D02*
X131258023Y-145834789D01*
X131258023Y-145834789D02*
X131329451Y-145691932D01*
X131329451Y-145691932D02*
X131472308Y-145620503D01*
X131472308Y-145620503D02*
X131758023Y-145620503D01*
X131758023Y-145620503D02*
X131900880Y-145691932D01*
X131258023Y-146549075D02*
X131400880Y-146620503D01*
X131400880Y-146620503D02*
X131758023Y-146620503D01*
X131758023Y-146620503D02*
X131900880Y-146549075D01*
X131900880Y-146549075D02*
X131972308Y-146406217D01*
X131972308Y-146406217D02*
X131972308Y-146263360D01*
X131972308Y-146263360D02*
X131900880Y-146120503D01*
X131900880Y-146120503D02*
X131758023Y-146049075D01*
X131758023Y-146049075D02*
X131400880Y-146049075D01*
X131400880Y-146049075D02*
X131258023Y-145977646D01*
X130543737Y-145620503D02*
X130543737Y-146620503D01*
X130543737Y-145763360D02*
X130472308Y-145691932D01*
X130472308Y-145691932D02*
X130329451Y-145620503D01*
X130329451Y-145620503D02*
X130115165Y-145620503D01*
X130115165Y-145620503D02*
X129972308Y-145691932D01*
X129972308Y-145691932D02*
X129900880Y-145834789D01*
X129900880Y-145834789D02*
X129900880Y-146620503D01*
X128115165Y-145263360D02*
X128043737Y-145191932D01*
X128043737Y-145191932D02*
X127900880Y-145120503D01*
X127900880Y-145120503D02*
X127543737Y-145120503D01*
X127543737Y-145120503D02*
X127400880Y-145191932D01*
X127400880Y-145191932D02*
X127329451Y-145263360D01*
X127329451Y-145263360D02*
X127258022Y-145406217D01*
X127258022Y-145406217D02*
X127258022Y-145549075D01*
X127258022Y-145549075D02*
X127329451Y-145763360D01*
X127329451Y-145763360D02*
X128186594Y-146620503D01*
X128186594Y-146620503D02*
X127258022Y-146620503D01*
X126329451Y-145120503D02*
X126186594Y-145120503D01*
X126186594Y-145120503D02*
X126043737Y-145191932D01*
X126043737Y-145191932D02*
X125972309Y-145263360D01*
X125972309Y-145263360D02*
X125900880Y-145406217D01*
X125900880Y-145406217D02*
X125829451Y-145691932D01*
X125829451Y-145691932D02*
X125829451Y-146049075D01*
X125829451Y-146049075D02*
X125900880Y-146334789D01*
X125900880Y-146334789D02*
X125972309Y-146477646D01*
X125972309Y-146477646D02*
X126043737Y-146549075D01*
X126043737Y-146549075D02*
X126186594Y-146620503D01*
X126186594Y-146620503D02*
X126329451Y-146620503D01*
X126329451Y-146620503D02*
X126472309Y-146549075D01*
X126472309Y-146549075D02*
X126543737Y-146477646D01*
X126543737Y-146477646D02*
X126615166Y-146334789D01*
X126615166Y-146334789D02*
X126686594Y-146049075D01*
X126686594Y-146049075D02*
X126686594Y-145691932D01*
X126686594Y-145691932D02*
X126615166Y-145406217D01*
X126615166Y-145406217D02*
X126543737Y-145263360D01*
X126543737Y-145263360D02*
X126472309Y-145191932D01*
X126472309Y-145191932D02*
X126329451Y-145120503D01*
X125258023Y-145263360D02*
X125186595Y-145191932D01*
X125186595Y-145191932D02*
X125043738Y-145120503D01*
X125043738Y-145120503D02*
X124686595Y-145120503D01*
X124686595Y-145120503D02*
X124543738Y-145191932D01*
X124543738Y-145191932D02*
X124472309Y-145263360D01*
X124472309Y-145263360D02*
X124400880Y-145406217D01*
X124400880Y-145406217D02*
X124400880Y-145549075D01*
X124400880Y-145549075D02*
X124472309Y-145763360D01*
X124472309Y-145763360D02*
X125329452Y-146620503D01*
X125329452Y-146620503D02*
X124400880Y-146620503D01*
X123115167Y-145620503D02*
X123115167Y-146620503D01*
X123472309Y-145049075D02*
X123829452Y-146120503D01*
X123829452Y-146120503D02*
X122900881Y-146120503D01*
X121186596Y-146049075D02*
X120043739Y-146049075D01*
X117329453Y-146620503D02*
X117829453Y-145906217D01*
X118186596Y-146620503D02*
X118186596Y-145120503D01*
X118186596Y-145120503D02*
X117615167Y-145120503D01*
X117615167Y-145120503D02*
X117472310Y-145191932D01*
X117472310Y-145191932D02*
X117400881Y-145263360D01*
X117400881Y-145263360D02*
X117329453Y-145406217D01*
X117329453Y-145406217D02*
X117329453Y-145620503D01*
X117329453Y-145620503D02*
X117400881Y-145763360D01*
X117400881Y-145763360D02*
X117472310Y-145834789D01*
X117472310Y-145834789D02*
X117615167Y-145906217D01*
X117615167Y-145906217D02*
X118186596Y-145906217D01*
X116115167Y-146549075D02*
X116258024Y-146620503D01*
X116258024Y-146620503D02*
X116543739Y-146620503D01*
X116543739Y-146620503D02*
X116686596Y-146549075D01*
X116686596Y-146549075D02*
X116758024Y-146406217D01*
X116758024Y-146406217D02*
X116758024Y-145834789D01*
X116758024Y-145834789D02*
X116686596Y-145691932D01*
X116686596Y-145691932D02*
X116543739Y-145620503D01*
X116543739Y-145620503D02*
X116258024Y-145620503D01*
X116258024Y-145620503D02*
X116115167Y-145691932D01*
X116115167Y-145691932D02*
X116043739Y-145834789D01*
X116043739Y-145834789D02*
X116043739Y-145977646D01*
X116043739Y-145977646D02*
X116758024Y-146120503D01*
X115543739Y-145620503D02*
X115186596Y-146620503D01*
X115186596Y-146620503D02*
X114829453Y-145620503D01*
X113186596Y-145263360D02*
X113115168Y-145191932D01*
X113115168Y-145191932D02*
X112972311Y-145120503D01*
X112972311Y-145120503D02*
X112615168Y-145120503D01*
X112615168Y-145120503D02*
X112472311Y-145191932D01*
X112472311Y-145191932D02*
X112400882Y-145263360D01*
X112400882Y-145263360D02*
X112329453Y-145406217D01*
X112329453Y-145406217D02*
X112329453Y-145549075D01*
X112329453Y-145549075D02*
X112400882Y-145763360D01*
X112400882Y-145763360D02*
X113258025Y-146620503D01*
X113258025Y-146620503D02*
X112329453Y-146620503D01*
M02*
