%TF.GenerationSoftware,KiCad,Pcbnew,7.0.10*%
%TF.CreationDate,2024-01-23T19:04:03+00:00*%
%TF.ProjectId,buran,62757261-6e2e-46b6-9963-61645f706362,rev?*%
%TF.SameCoordinates,Original*%
%TF.FileFunction,Legend,Top*%
%TF.FilePolarity,Positive*%
%FSLAX46Y46*%
G04 Gerber Fmt 4.6, Leading zero omitted, Abs format (unit mm)*
G04 Created by KiCad (PCBNEW 7.0.10) date 2024-01-23 19:04:03*
%MOMM*%
%LPD*%
G01*
G04 APERTURE LIST*
%ADD10C,0.127000*%
%ADD11C,0.100000*%
%ADD12C,0.200000*%
%ADD13C,0.254000*%
%ADD14C,2.850000*%
%ADD15R,1.650000X1.650000*%
%ADD16C,1.650000*%
%ADD17R,1.100000X1.100000*%
%ADD18C,1.100000*%
%ADD19C,1.575000*%
G04 APERTURE END LIST*
D10*
X138912694Y-63814887D02*
X138041837Y-63814887D01*
X138477266Y-63814887D02*
X138477266Y-62290887D01*
X138477266Y-62290887D02*
X138332123Y-62508601D01*
X138332123Y-62508601D02*
X138186980Y-62653744D01*
X138186980Y-62653744D02*
X138041837Y-62726316D01*
X103865532Y-30373924D02*
X103594599Y-29986877D01*
X103401075Y-30373924D02*
X103401075Y-29561124D01*
X103401075Y-29561124D02*
X103710713Y-29561124D01*
X103710713Y-29561124D02*
X103788123Y-29599829D01*
X103788123Y-29599829D02*
X103826828Y-29638534D01*
X103826828Y-29638534D02*
X103865532Y-29715943D01*
X103865532Y-29715943D02*
X103865532Y-29832058D01*
X103865532Y-29832058D02*
X103826828Y-29909467D01*
X103826828Y-29909467D02*
X103788123Y-29948172D01*
X103788123Y-29948172D02*
X103710713Y-29986877D01*
X103710713Y-29986877D02*
X103401075Y-29986877D01*
X104213875Y-29948172D02*
X104484809Y-29948172D01*
X104600923Y-30373924D02*
X104213875Y-30373924D01*
X104213875Y-30373924D02*
X104213875Y-29561124D01*
X104213875Y-29561124D02*
X104600923Y-29561124D01*
X104910561Y-30335220D02*
X105026675Y-30373924D01*
X105026675Y-30373924D02*
X105220199Y-30373924D01*
X105220199Y-30373924D02*
X105297608Y-30335220D01*
X105297608Y-30335220D02*
X105336313Y-30296515D01*
X105336313Y-30296515D02*
X105375018Y-30219105D01*
X105375018Y-30219105D02*
X105375018Y-30141696D01*
X105375018Y-30141696D02*
X105336313Y-30064286D01*
X105336313Y-30064286D02*
X105297608Y-30025581D01*
X105297608Y-30025581D02*
X105220199Y-29986877D01*
X105220199Y-29986877D02*
X105065380Y-29948172D01*
X105065380Y-29948172D02*
X104987970Y-29909467D01*
X104987970Y-29909467D02*
X104949265Y-29870762D01*
X104949265Y-29870762D02*
X104910561Y-29793353D01*
X104910561Y-29793353D02*
X104910561Y-29715943D01*
X104910561Y-29715943D02*
X104949265Y-29638534D01*
X104949265Y-29638534D02*
X104987970Y-29599829D01*
X104987970Y-29599829D02*
X105065380Y-29561124D01*
X105065380Y-29561124D02*
X105258903Y-29561124D01*
X105258903Y-29561124D02*
X105375018Y-29599829D01*
X105723360Y-29948172D02*
X105994294Y-29948172D01*
X106110408Y-30373924D02*
X105723360Y-30373924D01*
X105723360Y-30373924D02*
X105723360Y-29561124D01*
X105723360Y-29561124D02*
X106110408Y-29561124D01*
X106342636Y-29561124D02*
X106807093Y-29561124D01*
X106574865Y-30373924D02*
X106574865Y-29561124D01*
X84665456Y-72515015D02*
X84094028Y-72515015D01*
X84379742Y-72515015D02*
X84379742Y-71515015D01*
X84379742Y-71515015D02*
X84284504Y-71657872D01*
X84284504Y-71657872D02*
X84189266Y-71753110D01*
X84189266Y-71753110D02*
X84094028Y-71800729D01*
X162124922Y-106891666D02*
X161520160Y-107315000D01*
X162124922Y-107617381D02*
X160854922Y-107617381D01*
X160854922Y-107617381D02*
X160854922Y-107133571D01*
X160854922Y-107133571D02*
X160915398Y-107012619D01*
X160915398Y-107012619D02*
X160975874Y-106952142D01*
X160975874Y-106952142D02*
X161096826Y-106891666D01*
X161096826Y-106891666D02*
X161278255Y-106891666D01*
X161278255Y-106891666D02*
X161399207Y-106952142D01*
X161399207Y-106952142D02*
X161459684Y-107012619D01*
X161459684Y-107012619D02*
X161520160Y-107133571D01*
X161520160Y-107133571D02*
X161520160Y-107617381D01*
X160854922Y-105803095D02*
X160854922Y-106045000D01*
X160854922Y-106045000D02*
X160915398Y-106165952D01*
X160915398Y-106165952D02*
X160975874Y-106226428D01*
X160975874Y-106226428D02*
X161157303Y-106347381D01*
X161157303Y-106347381D02*
X161399207Y-106407857D01*
X161399207Y-106407857D02*
X161883017Y-106407857D01*
X161883017Y-106407857D02*
X162003969Y-106347381D01*
X162003969Y-106347381D02*
X162064446Y-106286904D01*
X162064446Y-106286904D02*
X162124922Y-106165952D01*
X162124922Y-106165952D02*
X162124922Y-105924047D01*
X162124922Y-105924047D02*
X162064446Y-105803095D01*
X162064446Y-105803095D02*
X162003969Y-105742619D01*
X162003969Y-105742619D02*
X161883017Y-105682142D01*
X161883017Y-105682142D02*
X161580636Y-105682142D01*
X161580636Y-105682142D02*
X161459684Y-105742619D01*
X161459684Y-105742619D02*
X161399207Y-105803095D01*
X161399207Y-105803095D02*
X161338731Y-105924047D01*
X161338731Y-105924047D02*
X161338731Y-106165952D01*
X161338731Y-106165952D02*
X161399207Y-106286904D01*
X161399207Y-106286904D02*
X161459684Y-106347381D01*
X161459684Y-106347381D02*
X161580636Y-106407857D01*
X123728237Y-43464922D02*
X123728237Y-42194922D01*
X125058714Y-43343969D02*
X124998238Y-43404446D01*
X124998238Y-43404446D02*
X124816809Y-43464922D01*
X124816809Y-43464922D02*
X124695857Y-43464922D01*
X124695857Y-43464922D02*
X124514428Y-43404446D01*
X124514428Y-43404446D02*
X124393476Y-43283493D01*
X124393476Y-43283493D02*
X124332999Y-43162541D01*
X124332999Y-43162541D02*
X124272523Y-42920636D01*
X124272523Y-42920636D02*
X124272523Y-42739207D01*
X124272523Y-42739207D02*
X124332999Y-42497303D01*
X124332999Y-42497303D02*
X124393476Y-42376350D01*
X124393476Y-42376350D02*
X124514428Y-42255398D01*
X124514428Y-42255398D02*
X124695857Y-42194922D01*
X124695857Y-42194922D02*
X124816809Y-42194922D01*
X124816809Y-42194922D02*
X124998238Y-42255398D01*
X124998238Y-42255398D02*
X125058714Y-42315874D01*
X126147285Y-42618255D02*
X126147285Y-43464922D01*
X125844904Y-42134446D02*
X125542523Y-43041588D01*
X125542523Y-43041588D02*
X126328714Y-43041588D01*
X124576667Y-24748922D02*
X124576667Y-25656065D01*
X124576667Y-25656065D02*
X124516190Y-25837493D01*
X124516190Y-25837493D02*
X124395238Y-25958446D01*
X124395238Y-25958446D02*
X124213809Y-26018922D01*
X124213809Y-26018922D02*
X124092857Y-26018922D01*
X125120952Y-24869874D02*
X125181428Y-24809398D01*
X125181428Y-24809398D02*
X125302381Y-24748922D01*
X125302381Y-24748922D02*
X125604762Y-24748922D01*
X125604762Y-24748922D02*
X125725714Y-24809398D01*
X125725714Y-24809398D02*
X125786190Y-24869874D01*
X125786190Y-24869874D02*
X125846667Y-24990826D01*
X125846667Y-24990826D02*
X125846667Y-25111779D01*
X125846667Y-25111779D02*
X125786190Y-25293207D01*
X125786190Y-25293207D02*
X125060476Y-26018922D01*
X125060476Y-26018922D02*
X125846667Y-26018922D01*
X178096333Y-37664922D02*
X177672999Y-37060160D01*
X177370618Y-37664922D02*
X177370618Y-36394922D01*
X177370618Y-36394922D02*
X177854428Y-36394922D01*
X177854428Y-36394922D02*
X177975380Y-36455398D01*
X177975380Y-36455398D02*
X178035857Y-36515874D01*
X178035857Y-36515874D02*
X178096333Y-36636826D01*
X178096333Y-36636826D02*
X178096333Y-36818255D01*
X178096333Y-36818255D02*
X178035857Y-36939207D01*
X178035857Y-36939207D02*
X177975380Y-36999684D01*
X177975380Y-36999684D02*
X177854428Y-37060160D01*
X177854428Y-37060160D02*
X177370618Y-37060160D01*
X178580142Y-36515874D02*
X178640618Y-36455398D01*
X178640618Y-36455398D02*
X178761571Y-36394922D01*
X178761571Y-36394922D02*
X179063952Y-36394922D01*
X179063952Y-36394922D02*
X179184904Y-36455398D01*
X179184904Y-36455398D02*
X179245380Y-36515874D01*
X179245380Y-36515874D02*
X179305857Y-36636826D01*
X179305857Y-36636826D02*
X179305857Y-36757779D01*
X179305857Y-36757779D02*
X179245380Y-36939207D01*
X179245380Y-36939207D02*
X178519666Y-37664922D01*
X178519666Y-37664922D02*
X179305857Y-37664922D01*
X174401237Y-31060922D02*
X173796475Y-31060922D01*
X173796475Y-31060922D02*
X173796475Y-29790922D01*
X174824570Y-30395684D02*
X175247904Y-30395684D01*
X175429332Y-31060922D02*
X174824570Y-31060922D01*
X174824570Y-31060922D02*
X174824570Y-29790922D01*
X174824570Y-29790922D02*
X175429332Y-29790922D01*
X175973618Y-31060922D02*
X175973618Y-29790922D01*
X175973618Y-29790922D02*
X176275999Y-29790922D01*
X176275999Y-29790922D02*
X176457428Y-29851398D01*
X176457428Y-29851398D02*
X176578380Y-29972350D01*
X176578380Y-29972350D02*
X176638857Y-30093303D01*
X176638857Y-30093303D02*
X176699333Y-30335207D01*
X176699333Y-30335207D02*
X176699333Y-30516636D01*
X176699333Y-30516636D02*
X176638857Y-30758541D01*
X176638857Y-30758541D02*
X176578380Y-30879493D01*
X176578380Y-30879493D02*
X176457428Y-31000446D01*
X176457428Y-31000446D02*
X176275999Y-31060922D01*
X176275999Y-31060922D02*
X175973618Y-31060922D01*
X176941238Y-31181874D02*
X177908857Y-31181874D01*
X178211237Y-31060922D02*
X178211237Y-29790922D01*
X178211237Y-29790922D02*
X178634571Y-30698065D01*
X178634571Y-30698065D02*
X179057904Y-29790922D01*
X179057904Y-29790922D02*
X179057904Y-31060922D01*
X180388381Y-30939969D02*
X180327905Y-31000446D01*
X180327905Y-31000446D02*
X180146476Y-31060922D01*
X180146476Y-31060922D02*
X180025524Y-31060922D01*
X180025524Y-31060922D02*
X179844095Y-31000446D01*
X179844095Y-31000446D02*
X179723143Y-30879493D01*
X179723143Y-30879493D02*
X179662666Y-30758541D01*
X179662666Y-30758541D02*
X179602190Y-30516636D01*
X179602190Y-30516636D02*
X179602190Y-30335207D01*
X179602190Y-30335207D02*
X179662666Y-30093303D01*
X179662666Y-30093303D02*
X179723143Y-29972350D01*
X179723143Y-29972350D02*
X179844095Y-29851398D01*
X179844095Y-29851398D02*
X180025524Y-29790922D01*
X180025524Y-29790922D02*
X180146476Y-29790922D01*
X180146476Y-29790922D02*
X180327905Y-29851398D01*
X180327905Y-29851398D02*
X180388381Y-29911874D01*
X180932666Y-29790922D02*
X180932666Y-30819017D01*
X180932666Y-30819017D02*
X180993143Y-30939969D01*
X180993143Y-30939969D02*
X181053619Y-31000446D01*
X181053619Y-31000446D02*
X181174571Y-31060922D01*
X181174571Y-31060922D02*
X181416476Y-31060922D01*
X181416476Y-31060922D02*
X181537428Y-31000446D01*
X181537428Y-31000446D02*
X181597905Y-30939969D01*
X181597905Y-30939969D02*
X181658381Y-30819017D01*
X181658381Y-30819017D02*
X181658381Y-29790922D01*
X181960762Y-31181874D02*
X182928381Y-31181874D01*
X183896000Y-31060922D02*
X183170285Y-31060922D01*
X183533142Y-31060922D02*
X183533142Y-29790922D01*
X183533142Y-29790922D02*
X183412190Y-29972350D01*
X183412190Y-29972350D02*
X183291238Y-30093303D01*
X183291238Y-30093303D02*
X183170285Y-30153779D01*
X189556922Y-106891666D02*
X188952160Y-107315000D01*
X189556922Y-107617381D02*
X188286922Y-107617381D01*
X188286922Y-107617381D02*
X188286922Y-107133571D01*
X188286922Y-107133571D02*
X188347398Y-107012619D01*
X188347398Y-107012619D02*
X188407874Y-106952142D01*
X188407874Y-106952142D02*
X188528826Y-106891666D01*
X188528826Y-106891666D02*
X188710255Y-106891666D01*
X188710255Y-106891666D02*
X188831207Y-106952142D01*
X188831207Y-106952142D02*
X188891684Y-107012619D01*
X188891684Y-107012619D02*
X188952160Y-107133571D01*
X188952160Y-107133571D02*
X188952160Y-107617381D01*
X188286922Y-106468333D02*
X188286922Y-105621666D01*
X188286922Y-105621666D02*
X189556922Y-106165952D01*
X131136922Y-92171762D02*
X129866922Y-92171762D01*
X131015969Y-90841285D02*
X131076446Y-90901761D01*
X131076446Y-90901761D02*
X131136922Y-91083190D01*
X131136922Y-91083190D02*
X131136922Y-91204142D01*
X131136922Y-91204142D02*
X131076446Y-91385571D01*
X131076446Y-91385571D02*
X130955493Y-91506523D01*
X130955493Y-91506523D02*
X130834541Y-91567000D01*
X130834541Y-91567000D02*
X130592636Y-91627476D01*
X130592636Y-91627476D02*
X130411207Y-91627476D01*
X130411207Y-91627476D02*
X130169303Y-91567000D01*
X130169303Y-91567000D02*
X130048350Y-91506523D01*
X130048350Y-91506523D02*
X129927398Y-91385571D01*
X129927398Y-91385571D02*
X129866922Y-91204142D01*
X129866922Y-91204142D02*
X129866922Y-91083190D01*
X129866922Y-91083190D02*
X129927398Y-90901761D01*
X129927398Y-90901761D02*
X129987874Y-90841285D01*
X129866922Y-90417952D02*
X129866922Y-89631761D01*
X129866922Y-89631761D02*
X130350731Y-90055095D01*
X130350731Y-90055095D02*
X130350731Y-89873666D01*
X130350731Y-89873666D02*
X130411207Y-89752714D01*
X130411207Y-89752714D02*
X130471684Y-89692238D01*
X130471684Y-89692238D02*
X130592636Y-89631761D01*
X130592636Y-89631761D02*
X130895017Y-89631761D01*
X130895017Y-89631761D02*
X131015969Y-89692238D01*
X131015969Y-89692238D02*
X131076446Y-89752714D01*
X131076446Y-89752714D02*
X131136922Y-89873666D01*
X131136922Y-89873666D02*
X131136922Y-90236523D01*
X131136922Y-90236523D02*
X131076446Y-90357476D01*
X131076446Y-90357476D02*
X131015969Y-90417952D01*
X77034922Y-49191332D02*
X77942065Y-49191332D01*
X77942065Y-49191332D02*
X78123493Y-49251809D01*
X78123493Y-49251809D02*
X78244446Y-49372761D01*
X78244446Y-49372761D02*
X78304922Y-49554190D01*
X78304922Y-49554190D02*
X78304922Y-49675142D01*
X78304922Y-47921332D02*
X78304922Y-48647047D01*
X78304922Y-48284190D02*
X77034922Y-48284190D01*
X77034922Y-48284190D02*
X77216350Y-48405142D01*
X77216350Y-48405142D02*
X77337303Y-48526094D01*
X77337303Y-48526094D02*
X77397779Y-48647047D01*
X122500922Y-37175428D02*
X121896160Y-37598762D01*
X122500922Y-37901143D02*
X121230922Y-37901143D01*
X121230922Y-37901143D02*
X121230922Y-37417333D01*
X121230922Y-37417333D02*
X121291398Y-37296381D01*
X121291398Y-37296381D02*
X121351874Y-37235904D01*
X121351874Y-37235904D02*
X121472826Y-37175428D01*
X121472826Y-37175428D02*
X121654255Y-37175428D01*
X121654255Y-37175428D02*
X121775207Y-37235904D01*
X121775207Y-37235904D02*
X121835684Y-37296381D01*
X121835684Y-37296381D02*
X121896160Y-37417333D01*
X121896160Y-37417333D02*
X121896160Y-37901143D01*
X122500922Y-35965904D02*
X122500922Y-36691619D01*
X122500922Y-36328762D02*
X121230922Y-36328762D01*
X121230922Y-36328762D02*
X121412350Y-36449714D01*
X121412350Y-36449714D02*
X121533303Y-36570666D01*
X121533303Y-36570666D02*
X121593779Y-36691619D01*
X121230922Y-35179714D02*
X121230922Y-35058761D01*
X121230922Y-35058761D02*
X121291398Y-34937809D01*
X121291398Y-34937809D02*
X121351874Y-34877333D01*
X121351874Y-34877333D02*
X121472826Y-34816857D01*
X121472826Y-34816857D02*
X121714731Y-34756380D01*
X121714731Y-34756380D02*
X122017112Y-34756380D01*
X122017112Y-34756380D02*
X122259017Y-34816857D01*
X122259017Y-34816857D02*
X122379969Y-34877333D01*
X122379969Y-34877333D02*
X122440446Y-34937809D01*
X122440446Y-34937809D02*
X122500922Y-35058761D01*
X122500922Y-35058761D02*
X122500922Y-35179714D01*
X122500922Y-35179714D02*
X122440446Y-35300666D01*
X122440446Y-35300666D02*
X122379969Y-35361142D01*
X122379969Y-35361142D02*
X122259017Y-35421619D01*
X122259017Y-35421619D02*
X122017112Y-35482095D01*
X122017112Y-35482095D02*
X121714731Y-35482095D01*
X121714731Y-35482095D02*
X121472826Y-35421619D01*
X121472826Y-35421619D02*
X121351874Y-35361142D01*
X121351874Y-35361142D02*
X121291398Y-35300666D01*
X121291398Y-35300666D02*
X121230922Y-35179714D01*
X139996333Y-41099969D02*
X139935857Y-41160446D01*
X139935857Y-41160446D02*
X139754428Y-41220922D01*
X139754428Y-41220922D02*
X139633476Y-41220922D01*
X139633476Y-41220922D02*
X139452047Y-41160446D01*
X139452047Y-41160446D02*
X139331095Y-41039493D01*
X139331095Y-41039493D02*
X139270618Y-40918541D01*
X139270618Y-40918541D02*
X139210142Y-40676636D01*
X139210142Y-40676636D02*
X139210142Y-40495207D01*
X139210142Y-40495207D02*
X139270618Y-40253303D01*
X139270618Y-40253303D02*
X139331095Y-40132350D01*
X139331095Y-40132350D02*
X139452047Y-40011398D01*
X139452047Y-40011398D02*
X139633476Y-39950922D01*
X139633476Y-39950922D02*
X139754428Y-39950922D01*
X139754428Y-39950922D02*
X139935857Y-40011398D01*
X139935857Y-40011398D02*
X139996333Y-40071874D01*
X140419666Y-39950922D02*
X141205857Y-39950922D01*
X141205857Y-39950922D02*
X140782523Y-40434731D01*
X140782523Y-40434731D02*
X140963952Y-40434731D01*
X140963952Y-40434731D02*
X141084904Y-40495207D01*
X141084904Y-40495207D02*
X141145380Y-40555684D01*
X141145380Y-40555684D02*
X141205857Y-40676636D01*
X141205857Y-40676636D02*
X141205857Y-40979017D01*
X141205857Y-40979017D02*
X141145380Y-41099969D01*
X141145380Y-41099969D02*
X141084904Y-41160446D01*
X141084904Y-41160446D02*
X140963952Y-41220922D01*
X140963952Y-41220922D02*
X140601095Y-41220922D01*
X140601095Y-41220922D02*
X140480142Y-41160446D01*
X140480142Y-41160446D02*
X140419666Y-41099969D01*
X99620922Y-106166666D02*
X99016160Y-106590000D01*
X99620922Y-106892381D02*
X98350922Y-106892381D01*
X98350922Y-106892381D02*
X98350922Y-106408571D01*
X98350922Y-106408571D02*
X98411398Y-106287619D01*
X98411398Y-106287619D02*
X98471874Y-106227142D01*
X98471874Y-106227142D02*
X98592826Y-106166666D01*
X98592826Y-106166666D02*
X98774255Y-106166666D01*
X98774255Y-106166666D02*
X98895207Y-106227142D01*
X98895207Y-106227142D02*
X98955684Y-106287619D01*
X98955684Y-106287619D02*
X99016160Y-106408571D01*
X99016160Y-106408571D02*
X99016160Y-106892381D01*
X98350922Y-105017619D02*
X98350922Y-105622381D01*
X98350922Y-105622381D02*
X98955684Y-105682857D01*
X98955684Y-105682857D02*
X98895207Y-105622381D01*
X98895207Y-105622381D02*
X98834731Y-105501428D01*
X98834731Y-105501428D02*
X98834731Y-105199047D01*
X98834731Y-105199047D02*
X98895207Y-105078095D01*
X98895207Y-105078095D02*
X98955684Y-105017619D01*
X98955684Y-105017619D02*
X99076636Y-104957142D01*
X99076636Y-104957142D02*
X99379017Y-104957142D01*
X99379017Y-104957142D02*
X99499969Y-105017619D01*
X99499969Y-105017619D02*
X99560446Y-105078095D01*
X99560446Y-105078095D02*
X99620922Y-105199047D01*
X99620922Y-105199047D02*
X99620922Y-105501428D01*
X99620922Y-105501428D02*
X99560446Y-105622381D01*
X99560446Y-105622381D02*
X99499969Y-105682857D01*
X67098922Y-106383666D02*
X66494160Y-106807000D01*
X67098922Y-107109381D02*
X65828922Y-107109381D01*
X65828922Y-107109381D02*
X65828922Y-106625571D01*
X65828922Y-106625571D02*
X65889398Y-106504619D01*
X65889398Y-106504619D02*
X65949874Y-106444142D01*
X65949874Y-106444142D02*
X66070826Y-106383666D01*
X66070826Y-106383666D02*
X66252255Y-106383666D01*
X66252255Y-106383666D02*
X66373207Y-106444142D01*
X66373207Y-106444142D02*
X66433684Y-106504619D01*
X66433684Y-106504619D02*
X66494160Y-106625571D01*
X66494160Y-106625571D02*
X66494160Y-107109381D01*
X66252255Y-105295095D02*
X67098922Y-105295095D01*
X65768446Y-105597476D02*
X66675588Y-105899857D01*
X66675588Y-105899857D02*
X66675588Y-105113666D01*
X148497922Y-63923332D02*
X149405065Y-63923332D01*
X149405065Y-63923332D02*
X149586493Y-63983809D01*
X149586493Y-63983809D02*
X149707446Y-64104761D01*
X149707446Y-64104761D02*
X149767922Y-64286190D01*
X149767922Y-64286190D02*
X149767922Y-64407142D01*
X148497922Y-63439523D02*
X148497922Y-62653332D01*
X148497922Y-62653332D02*
X148981731Y-63076666D01*
X148981731Y-63076666D02*
X148981731Y-62895237D01*
X148981731Y-62895237D02*
X149042207Y-62774285D01*
X149042207Y-62774285D02*
X149102684Y-62713809D01*
X149102684Y-62713809D02*
X149223636Y-62653332D01*
X149223636Y-62653332D02*
X149526017Y-62653332D01*
X149526017Y-62653332D02*
X149646969Y-62713809D01*
X149646969Y-62713809D02*
X149707446Y-62774285D01*
X149707446Y-62774285D02*
X149767922Y-62895237D01*
X149767922Y-62895237D02*
X149767922Y-63258094D01*
X149767922Y-63258094D02*
X149707446Y-63379047D01*
X149707446Y-63379047D02*
X149646969Y-63439523D01*
X128596922Y-36787666D02*
X127992160Y-37211000D01*
X128596922Y-37513381D02*
X127326922Y-37513381D01*
X127326922Y-37513381D02*
X127326922Y-37029571D01*
X127326922Y-37029571D02*
X127387398Y-36908619D01*
X127387398Y-36908619D02*
X127447874Y-36848142D01*
X127447874Y-36848142D02*
X127568826Y-36787666D01*
X127568826Y-36787666D02*
X127750255Y-36787666D01*
X127750255Y-36787666D02*
X127871207Y-36848142D01*
X127871207Y-36848142D02*
X127931684Y-36908619D01*
X127931684Y-36908619D02*
X127992160Y-37029571D01*
X127992160Y-37029571D02*
X127992160Y-37513381D01*
X128596922Y-36182904D02*
X128596922Y-35941000D01*
X128596922Y-35941000D02*
X128536446Y-35820047D01*
X128536446Y-35820047D02*
X128475969Y-35759571D01*
X128475969Y-35759571D02*
X128294541Y-35638619D01*
X128294541Y-35638619D02*
X128052636Y-35578142D01*
X128052636Y-35578142D02*
X127568826Y-35578142D01*
X127568826Y-35578142D02*
X127447874Y-35638619D01*
X127447874Y-35638619D02*
X127387398Y-35699095D01*
X127387398Y-35699095D02*
X127326922Y-35820047D01*
X127326922Y-35820047D02*
X127326922Y-36061952D01*
X127326922Y-36061952D02*
X127387398Y-36182904D01*
X127387398Y-36182904D02*
X127447874Y-36243381D01*
X127447874Y-36243381D02*
X127568826Y-36303857D01*
X127568826Y-36303857D02*
X127871207Y-36303857D01*
X127871207Y-36303857D02*
X127992160Y-36243381D01*
X127992160Y-36243381D02*
X128052636Y-36182904D01*
X128052636Y-36182904D02*
X128113112Y-36061952D01*
X128113112Y-36061952D02*
X128113112Y-35820047D01*
X128113112Y-35820047D02*
X128052636Y-35699095D01*
X128052636Y-35699095D02*
X127992160Y-35638619D01*
X127992160Y-35638619D02*
X127871207Y-35578142D01*
X123472237Y-58492922D02*
X123472237Y-57222922D01*
X124802714Y-58371969D02*
X124742238Y-58432446D01*
X124742238Y-58432446D02*
X124560809Y-58492922D01*
X124560809Y-58492922D02*
X124439857Y-58492922D01*
X124439857Y-58492922D02*
X124258428Y-58432446D01*
X124258428Y-58432446D02*
X124137476Y-58311493D01*
X124137476Y-58311493D02*
X124076999Y-58190541D01*
X124076999Y-58190541D02*
X124016523Y-57948636D01*
X124016523Y-57948636D02*
X124016523Y-57767207D01*
X124016523Y-57767207D02*
X124076999Y-57525303D01*
X124076999Y-57525303D02*
X124137476Y-57404350D01*
X124137476Y-57404350D02*
X124258428Y-57283398D01*
X124258428Y-57283398D02*
X124439857Y-57222922D01*
X124439857Y-57222922D02*
X124560809Y-57222922D01*
X124560809Y-57222922D02*
X124742238Y-57283398D01*
X124742238Y-57283398D02*
X124802714Y-57343874D01*
X125951761Y-57222922D02*
X125346999Y-57222922D01*
X125346999Y-57222922D02*
X125286523Y-57827684D01*
X125286523Y-57827684D02*
X125346999Y-57767207D01*
X125346999Y-57767207D02*
X125467952Y-57706731D01*
X125467952Y-57706731D02*
X125770333Y-57706731D01*
X125770333Y-57706731D02*
X125891285Y-57767207D01*
X125891285Y-57767207D02*
X125951761Y-57827684D01*
X125951761Y-57827684D02*
X126012238Y-57948636D01*
X126012238Y-57948636D02*
X126012238Y-58251017D01*
X126012238Y-58251017D02*
X125951761Y-58371969D01*
X125951761Y-58371969D02*
X125891285Y-58432446D01*
X125891285Y-58432446D02*
X125770333Y-58492922D01*
X125770333Y-58492922D02*
X125467952Y-58492922D01*
X125467952Y-58492922D02*
X125346999Y-58432446D01*
X125346999Y-58432446D02*
X125286523Y-58371969D01*
X123643571Y-82876922D02*
X123220237Y-82272160D01*
X122917856Y-82876922D02*
X122917856Y-81606922D01*
X122917856Y-81606922D02*
X123401666Y-81606922D01*
X123401666Y-81606922D02*
X123522618Y-81667398D01*
X123522618Y-81667398D02*
X123583095Y-81727874D01*
X123583095Y-81727874D02*
X123643571Y-81848826D01*
X123643571Y-81848826D02*
X123643571Y-82030255D01*
X123643571Y-82030255D02*
X123583095Y-82151207D01*
X123583095Y-82151207D02*
X123522618Y-82211684D01*
X123522618Y-82211684D02*
X123401666Y-82272160D01*
X123401666Y-82272160D02*
X122917856Y-82272160D01*
X124853095Y-82876922D02*
X124127380Y-82876922D01*
X124490237Y-82876922D02*
X124490237Y-81606922D01*
X124490237Y-81606922D02*
X124369285Y-81788350D01*
X124369285Y-81788350D02*
X124248333Y-81909303D01*
X124248333Y-81909303D02*
X124127380Y-81969779D01*
X126062619Y-82876922D02*
X125336904Y-82876922D01*
X125699761Y-82876922D02*
X125699761Y-81606922D01*
X125699761Y-81606922D02*
X125578809Y-81788350D01*
X125578809Y-81788350D02*
X125457857Y-81909303D01*
X125457857Y-81909303D02*
X125336904Y-81969779D01*
X143044333Y-32971969D02*
X142983857Y-33032446D01*
X142983857Y-33032446D02*
X142802428Y-33092922D01*
X142802428Y-33092922D02*
X142681476Y-33092922D01*
X142681476Y-33092922D02*
X142500047Y-33032446D01*
X142500047Y-33032446D02*
X142379095Y-32911493D01*
X142379095Y-32911493D02*
X142318618Y-32790541D01*
X142318618Y-32790541D02*
X142258142Y-32548636D01*
X142258142Y-32548636D02*
X142258142Y-32367207D01*
X142258142Y-32367207D02*
X142318618Y-32125303D01*
X142318618Y-32125303D02*
X142379095Y-32004350D01*
X142379095Y-32004350D02*
X142500047Y-31883398D01*
X142500047Y-31883398D02*
X142681476Y-31822922D01*
X142681476Y-31822922D02*
X142802428Y-31822922D01*
X142802428Y-31822922D02*
X142983857Y-31883398D01*
X142983857Y-31883398D02*
X143044333Y-31943874D01*
X143528142Y-31943874D02*
X143588618Y-31883398D01*
X143588618Y-31883398D02*
X143709571Y-31822922D01*
X143709571Y-31822922D02*
X144011952Y-31822922D01*
X144011952Y-31822922D02*
X144132904Y-31883398D01*
X144132904Y-31883398D02*
X144193380Y-31943874D01*
X144193380Y-31943874D02*
X144253857Y-32064826D01*
X144253857Y-32064826D02*
X144253857Y-32185779D01*
X144253857Y-32185779D02*
X144193380Y-32367207D01*
X144193380Y-32367207D02*
X143467666Y-33092922D01*
X143467666Y-33092922D02*
X144253857Y-33092922D01*
X114759969Y-86571666D02*
X114820446Y-86632142D01*
X114820446Y-86632142D02*
X114880922Y-86813571D01*
X114880922Y-86813571D02*
X114880922Y-86934523D01*
X114880922Y-86934523D02*
X114820446Y-87115952D01*
X114820446Y-87115952D02*
X114699493Y-87236904D01*
X114699493Y-87236904D02*
X114578541Y-87297381D01*
X114578541Y-87297381D02*
X114336636Y-87357857D01*
X114336636Y-87357857D02*
X114155207Y-87357857D01*
X114155207Y-87357857D02*
X113913303Y-87297381D01*
X113913303Y-87297381D02*
X113792350Y-87236904D01*
X113792350Y-87236904D02*
X113671398Y-87115952D01*
X113671398Y-87115952D02*
X113610922Y-86934523D01*
X113610922Y-86934523D02*
X113610922Y-86813571D01*
X113610922Y-86813571D02*
X113671398Y-86632142D01*
X113671398Y-86632142D02*
X113731874Y-86571666D01*
X113610922Y-86148333D02*
X113610922Y-85301666D01*
X113610922Y-85301666D02*
X114880922Y-85845952D01*
X165904333Y-37664922D02*
X165480999Y-37060160D01*
X165178618Y-37664922D02*
X165178618Y-36394922D01*
X165178618Y-36394922D02*
X165662428Y-36394922D01*
X165662428Y-36394922D02*
X165783380Y-36455398D01*
X165783380Y-36455398D02*
X165843857Y-36515874D01*
X165843857Y-36515874D02*
X165904333Y-36636826D01*
X165904333Y-36636826D02*
X165904333Y-36818255D01*
X165904333Y-36818255D02*
X165843857Y-36939207D01*
X165843857Y-36939207D02*
X165783380Y-36999684D01*
X165783380Y-36999684D02*
X165662428Y-37060160D01*
X165662428Y-37060160D02*
X165178618Y-37060160D01*
X167113857Y-37664922D02*
X166388142Y-37664922D01*
X166750999Y-37664922D02*
X166750999Y-36394922D01*
X166750999Y-36394922D02*
X166630047Y-36576350D01*
X166630047Y-36576350D02*
X166509095Y-36697303D01*
X166509095Y-36697303D02*
X166388142Y-36757779D01*
X130852333Y-32971969D02*
X130791857Y-33032446D01*
X130791857Y-33032446D02*
X130610428Y-33092922D01*
X130610428Y-33092922D02*
X130489476Y-33092922D01*
X130489476Y-33092922D02*
X130308047Y-33032446D01*
X130308047Y-33032446D02*
X130187095Y-32911493D01*
X130187095Y-32911493D02*
X130126618Y-32790541D01*
X130126618Y-32790541D02*
X130066142Y-32548636D01*
X130066142Y-32548636D02*
X130066142Y-32367207D01*
X130066142Y-32367207D02*
X130126618Y-32125303D01*
X130126618Y-32125303D02*
X130187095Y-32004350D01*
X130187095Y-32004350D02*
X130308047Y-31883398D01*
X130308047Y-31883398D02*
X130489476Y-31822922D01*
X130489476Y-31822922D02*
X130610428Y-31822922D01*
X130610428Y-31822922D02*
X130791857Y-31883398D01*
X130791857Y-31883398D02*
X130852333Y-31943874D01*
X131940904Y-32246255D02*
X131940904Y-33092922D01*
X131638523Y-31762446D02*
X131336142Y-32669588D01*
X131336142Y-32669588D02*
X132122333Y-32669588D01*
X110435571Y-69160922D02*
X110012237Y-68556160D01*
X109709856Y-69160922D02*
X109709856Y-67890922D01*
X109709856Y-67890922D02*
X110193666Y-67890922D01*
X110193666Y-67890922D02*
X110314618Y-67951398D01*
X110314618Y-67951398D02*
X110375095Y-68011874D01*
X110375095Y-68011874D02*
X110435571Y-68132826D01*
X110435571Y-68132826D02*
X110435571Y-68314255D01*
X110435571Y-68314255D02*
X110375095Y-68435207D01*
X110375095Y-68435207D02*
X110314618Y-68495684D01*
X110314618Y-68495684D02*
X110193666Y-68556160D01*
X110193666Y-68556160D02*
X109709856Y-68556160D01*
X111645095Y-69160922D02*
X110919380Y-69160922D01*
X111282237Y-69160922D02*
X111282237Y-67890922D01*
X111282237Y-67890922D02*
X111161285Y-68072350D01*
X111161285Y-68072350D02*
X111040333Y-68193303D01*
X111040333Y-68193303D02*
X110919380Y-68253779D01*
X112068428Y-67890922D02*
X112854619Y-67890922D01*
X112854619Y-67890922D02*
X112431285Y-68374731D01*
X112431285Y-68374731D02*
X112612714Y-68374731D01*
X112612714Y-68374731D02*
X112733666Y-68435207D01*
X112733666Y-68435207D02*
X112794142Y-68495684D01*
X112794142Y-68495684D02*
X112854619Y-68616636D01*
X112854619Y-68616636D02*
X112854619Y-68919017D01*
X112854619Y-68919017D02*
X112794142Y-69039969D01*
X112794142Y-69039969D02*
X112733666Y-69100446D01*
X112733666Y-69100446D02*
X112612714Y-69160922D01*
X112612714Y-69160922D02*
X112249857Y-69160922D01*
X112249857Y-69160922D02*
X112128904Y-69100446D01*
X112128904Y-69100446D02*
X112068428Y-69039969D01*
X110435571Y-63572922D02*
X110012237Y-62968160D01*
X109709856Y-63572922D02*
X109709856Y-62302922D01*
X109709856Y-62302922D02*
X110193666Y-62302922D01*
X110193666Y-62302922D02*
X110314618Y-62363398D01*
X110314618Y-62363398D02*
X110375095Y-62423874D01*
X110375095Y-62423874D02*
X110435571Y-62544826D01*
X110435571Y-62544826D02*
X110435571Y-62726255D01*
X110435571Y-62726255D02*
X110375095Y-62847207D01*
X110375095Y-62847207D02*
X110314618Y-62907684D01*
X110314618Y-62907684D02*
X110193666Y-62968160D01*
X110193666Y-62968160D02*
X109709856Y-62968160D01*
X111645095Y-63572922D02*
X110919380Y-63572922D01*
X111282237Y-63572922D02*
X111282237Y-62302922D01*
X111282237Y-62302922D02*
X111161285Y-62484350D01*
X111161285Y-62484350D02*
X111040333Y-62605303D01*
X111040333Y-62605303D02*
X110919380Y-62665779D01*
X112128904Y-62423874D02*
X112189380Y-62363398D01*
X112189380Y-62363398D02*
X112310333Y-62302922D01*
X112310333Y-62302922D02*
X112612714Y-62302922D01*
X112612714Y-62302922D02*
X112733666Y-62363398D01*
X112733666Y-62363398D02*
X112794142Y-62423874D01*
X112794142Y-62423874D02*
X112854619Y-62544826D01*
X112854619Y-62544826D02*
X112854619Y-62665779D01*
X112854619Y-62665779D02*
X112794142Y-62847207D01*
X112794142Y-62847207D02*
X112068428Y-63572922D01*
X112068428Y-63572922D02*
X112854619Y-63572922D01*
X190288333Y-37664922D02*
X189864999Y-37060160D01*
X189562618Y-37664922D02*
X189562618Y-36394922D01*
X189562618Y-36394922D02*
X190046428Y-36394922D01*
X190046428Y-36394922D02*
X190167380Y-36455398D01*
X190167380Y-36455398D02*
X190227857Y-36515874D01*
X190227857Y-36515874D02*
X190288333Y-36636826D01*
X190288333Y-36636826D02*
X190288333Y-36818255D01*
X190288333Y-36818255D02*
X190227857Y-36939207D01*
X190227857Y-36939207D02*
X190167380Y-36999684D01*
X190167380Y-36999684D02*
X190046428Y-37060160D01*
X190046428Y-37060160D02*
X189562618Y-37060160D01*
X190711666Y-36394922D02*
X191497857Y-36394922D01*
X191497857Y-36394922D02*
X191074523Y-36878731D01*
X191074523Y-36878731D02*
X191255952Y-36878731D01*
X191255952Y-36878731D02*
X191376904Y-36939207D01*
X191376904Y-36939207D02*
X191437380Y-36999684D01*
X191437380Y-36999684D02*
X191497857Y-37120636D01*
X191497857Y-37120636D02*
X191497857Y-37423017D01*
X191497857Y-37423017D02*
X191437380Y-37543969D01*
X191437380Y-37543969D02*
X191376904Y-37604446D01*
X191376904Y-37604446D02*
X191255952Y-37664922D01*
X191255952Y-37664922D02*
X190893095Y-37664922D01*
X190893095Y-37664922D02*
X190772142Y-37604446D01*
X190772142Y-37604446D02*
X190711666Y-37543969D01*
X102108208Y-45916922D02*
X101684874Y-45312160D01*
X101382493Y-45916922D02*
X101382493Y-44646922D01*
X101382493Y-44646922D02*
X101866303Y-44646922D01*
X101866303Y-44646922D02*
X101987255Y-44707398D01*
X101987255Y-44707398D02*
X102047732Y-44767874D01*
X102047732Y-44767874D02*
X102108208Y-44888826D01*
X102108208Y-44888826D02*
X102108208Y-45070255D01*
X102108208Y-45070255D02*
X102047732Y-45191207D01*
X102047732Y-45191207D02*
X101987255Y-45251684D01*
X101987255Y-45251684D02*
X101866303Y-45312160D01*
X101866303Y-45312160D02*
X101382493Y-45312160D01*
X103317732Y-45916922D02*
X102592017Y-45916922D01*
X102954874Y-45916922D02*
X102954874Y-44646922D01*
X102954874Y-44646922D02*
X102833922Y-44828350D01*
X102833922Y-44828350D02*
X102712970Y-44949303D01*
X102712970Y-44949303D02*
X102592017Y-45009779D01*
X104406303Y-45070255D02*
X104406303Y-45916922D01*
X104103922Y-44586446D02*
X103801541Y-45493588D01*
X103801541Y-45493588D02*
X104587732Y-45493588D01*
X133380237Y-39696922D02*
X133380237Y-38426922D01*
X134710714Y-39575969D02*
X134650238Y-39636446D01*
X134650238Y-39636446D02*
X134468809Y-39696922D01*
X134468809Y-39696922D02*
X134347857Y-39696922D01*
X134347857Y-39696922D02*
X134166428Y-39636446D01*
X134166428Y-39636446D02*
X134045476Y-39515493D01*
X134045476Y-39515493D02*
X133984999Y-39394541D01*
X133984999Y-39394541D02*
X133924523Y-39152636D01*
X133924523Y-39152636D02*
X133924523Y-38971207D01*
X133924523Y-38971207D02*
X133984999Y-38729303D01*
X133984999Y-38729303D02*
X134045476Y-38608350D01*
X134045476Y-38608350D02*
X134166428Y-38487398D01*
X134166428Y-38487398D02*
X134347857Y-38426922D01*
X134347857Y-38426922D02*
X134468809Y-38426922D01*
X134468809Y-38426922D02*
X134650238Y-38487398D01*
X134650238Y-38487398D02*
X134710714Y-38547874D01*
X135194523Y-38547874D02*
X135254999Y-38487398D01*
X135254999Y-38487398D02*
X135375952Y-38426922D01*
X135375952Y-38426922D02*
X135678333Y-38426922D01*
X135678333Y-38426922D02*
X135799285Y-38487398D01*
X135799285Y-38487398D02*
X135859761Y-38547874D01*
X135859761Y-38547874D02*
X135920238Y-38668826D01*
X135920238Y-38668826D02*
X135920238Y-38789779D01*
X135920238Y-38789779D02*
X135859761Y-38971207D01*
X135859761Y-38971207D02*
X135134047Y-39696922D01*
X135134047Y-39696922D02*
X135920238Y-39696922D01*
X186085237Y-31060922D02*
X185480475Y-31060922D01*
X185480475Y-31060922D02*
X185480475Y-29790922D01*
X186508570Y-30395684D02*
X186931904Y-30395684D01*
X187113332Y-31060922D02*
X186508570Y-31060922D01*
X186508570Y-31060922D02*
X186508570Y-29790922D01*
X186508570Y-29790922D02*
X187113332Y-29790922D01*
X187657618Y-31060922D02*
X187657618Y-29790922D01*
X187657618Y-29790922D02*
X187959999Y-29790922D01*
X187959999Y-29790922D02*
X188141428Y-29851398D01*
X188141428Y-29851398D02*
X188262380Y-29972350D01*
X188262380Y-29972350D02*
X188322857Y-30093303D01*
X188322857Y-30093303D02*
X188383333Y-30335207D01*
X188383333Y-30335207D02*
X188383333Y-30516636D01*
X188383333Y-30516636D02*
X188322857Y-30758541D01*
X188322857Y-30758541D02*
X188262380Y-30879493D01*
X188262380Y-30879493D02*
X188141428Y-31000446D01*
X188141428Y-31000446D02*
X187959999Y-31060922D01*
X187959999Y-31060922D02*
X187657618Y-31060922D01*
X188625238Y-31181874D02*
X189592857Y-31181874D01*
X189895237Y-31060922D02*
X189895237Y-29790922D01*
X189895237Y-29790922D02*
X190318571Y-30698065D01*
X190318571Y-30698065D02*
X190741904Y-29790922D01*
X190741904Y-29790922D02*
X190741904Y-31060922D01*
X192072381Y-30939969D02*
X192011905Y-31000446D01*
X192011905Y-31000446D02*
X191830476Y-31060922D01*
X191830476Y-31060922D02*
X191709524Y-31060922D01*
X191709524Y-31060922D02*
X191528095Y-31000446D01*
X191528095Y-31000446D02*
X191407143Y-30879493D01*
X191407143Y-30879493D02*
X191346666Y-30758541D01*
X191346666Y-30758541D02*
X191286190Y-30516636D01*
X191286190Y-30516636D02*
X191286190Y-30335207D01*
X191286190Y-30335207D02*
X191346666Y-30093303D01*
X191346666Y-30093303D02*
X191407143Y-29972350D01*
X191407143Y-29972350D02*
X191528095Y-29851398D01*
X191528095Y-29851398D02*
X191709524Y-29790922D01*
X191709524Y-29790922D02*
X191830476Y-29790922D01*
X191830476Y-29790922D02*
X192011905Y-29851398D01*
X192011905Y-29851398D02*
X192072381Y-29911874D01*
X192616666Y-29790922D02*
X192616666Y-30819017D01*
X192616666Y-30819017D02*
X192677143Y-30939969D01*
X192677143Y-30939969D02*
X192737619Y-31000446D01*
X192737619Y-31000446D02*
X192858571Y-31060922D01*
X192858571Y-31060922D02*
X193100476Y-31060922D01*
X193100476Y-31060922D02*
X193221428Y-31000446D01*
X193221428Y-31000446D02*
X193281905Y-30939969D01*
X193281905Y-30939969D02*
X193342381Y-30819017D01*
X193342381Y-30819017D02*
X193342381Y-29790922D01*
X193644762Y-31181874D02*
X194612381Y-31181874D01*
X194854285Y-29911874D02*
X194914761Y-29851398D01*
X194914761Y-29851398D02*
X195035714Y-29790922D01*
X195035714Y-29790922D02*
X195338095Y-29790922D01*
X195338095Y-29790922D02*
X195459047Y-29851398D01*
X195459047Y-29851398D02*
X195519523Y-29911874D01*
X195519523Y-29911874D02*
X195580000Y-30032826D01*
X195580000Y-30032826D02*
X195580000Y-30153779D01*
X195580000Y-30153779D02*
X195519523Y-30335207D01*
X195519523Y-30335207D02*
X194793809Y-31060922D01*
X194793809Y-31060922D02*
X195580000Y-31060922D01*
X114596333Y-92948922D02*
X114172999Y-92344160D01*
X113870618Y-92948922D02*
X113870618Y-91678922D01*
X113870618Y-91678922D02*
X114354428Y-91678922D01*
X114354428Y-91678922D02*
X114475380Y-91739398D01*
X114475380Y-91739398D02*
X114535857Y-91799874D01*
X114535857Y-91799874D02*
X114596333Y-91920826D01*
X114596333Y-91920826D02*
X114596333Y-92102255D01*
X114596333Y-92102255D02*
X114535857Y-92223207D01*
X114535857Y-92223207D02*
X114475380Y-92283684D01*
X114475380Y-92283684D02*
X114354428Y-92344160D01*
X114354428Y-92344160D02*
X113870618Y-92344160D01*
X115322047Y-92223207D02*
X115201095Y-92162731D01*
X115201095Y-92162731D02*
X115140618Y-92102255D01*
X115140618Y-92102255D02*
X115080142Y-91981303D01*
X115080142Y-91981303D02*
X115080142Y-91920826D01*
X115080142Y-91920826D02*
X115140618Y-91799874D01*
X115140618Y-91799874D02*
X115201095Y-91739398D01*
X115201095Y-91739398D02*
X115322047Y-91678922D01*
X115322047Y-91678922D02*
X115563952Y-91678922D01*
X115563952Y-91678922D02*
X115684904Y-91739398D01*
X115684904Y-91739398D02*
X115745380Y-91799874D01*
X115745380Y-91799874D02*
X115805857Y-91920826D01*
X115805857Y-91920826D02*
X115805857Y-91981303D01*
X115805857Y-91981303D02*
X115745380Y-92102255D01*
X115745380Y-92102255D02*
X115684904Y-92162731D01*
X115684904Y-92162731D02*
X115563952Y-92223207D01*
X115563952Y-92223207D02*
X115322047Y-92223207D01*
X115322047Y-92223207D02*
X115201095Y-92283684D01*
X115201095Y-92283684D02*
X115140618Y-92344160D01*
X115140618Y-92344160D02*
X115080142Y-92465112D01*
X115080142Y-92465112D02*
X115080142Y-92707017D01*
X115080142Y-92707017D02*
X115140618Y-92827969D01*
X115140618Y-92827969D02*
X115201095Y-92888446D01*
X115201095Y-92888446D02*
X115322047Y-92948922D01*
X115322047Y-92948922D02*
X115563952Y-92948922D01*
X115563952Y-92948922D02*
X115684904Y-92888446D01*
X115684904Y-92888446D02*
X115745380Y-92827969D01*
X115745380Y-92827969D02*
X115805857Y-92707017D01*
X115805857Y-92707017D02*
X115805857Y-92465112D01*
X115805857Y-92465112D02*
X115745380Y-92344160D01*
X115745380Y-92344160D02*
X115684904Y-92283684D01*
X115684904Y-92283684D02*
X115563952Y-92223207D01*
X135377969Y-67775666D02*
X135438446Y-67836142D01*
X135438446Y-67836142D02*
X135498922Y-68017571D01*
X135498922Y-68017571D02*
X135498922Y-68138523D01*
X135498922Y-68138523D02*
X135438446Y-68319952D01*
X135438446Y-68319952D02*
X135317493Y-68440904D01*
X135317493Y-68440904D02*
X135196541Y-68501381D01*
X135196541Y-68501381D02*
X134954636Y-68561857D01*
X134954636Y-68561857D02*
X134773207Y-68561857D01*
X134773207Y-68561857D02*
X134531303Y-68501381D01*
X134531303Y-68501381D02*
X134410350Y-68440904D01*
X134410350Y-68440904D02*
X134289398Y-68319952D01*
X134289398Y-68319952D02*
X134228922Y-68138523D01*
X134228922Y-68138523D02*
X134228922Y-68017571D01*
X134228922Y-68017571D02*
X134289398Y-67836142D01*
X134289398Y-67836142D02*
X134349874Y-67775666D01*
X135498922Y-67170904D02*
X135498922Y-66929000D01*
X135498922Y-66929000D02*
X135438446Y-66808047D01*
X135438446Y-66808047D02*
X135377969Y-66747571D01*
X135377969Y-66747571D02*
X135196541Y-66626619D01*
X135196541Y-66626619D02*
X134954636Y-66566142D01*
X134954636Y-66566142D02*
X134470826Y-66566142D01*
X134470826Y-66566142D02*
X134349874Y-66626619D01*
X134349874Y-66626619D02*
X134289398Y-66687095D01*
X134289398Y-66687095D02*
X134228922Y-66808047D01*
X134228922Y-66808047D02*
X134228922Y-67049952D01*
X134228922Y-67049952D02*
X134289398Y-67170904D01*
X134289398Y-67170904D02*
X134349874Y-67231381D01*
X134349874Y-67231381D02*
X134470826Y-67291857D01*
X134470826Y-67291857D02*
X134773207Y-67291857D01*
X134773207Y-67291857D02*
X134894160Y-67231381D01*
X134894160Y-67231381D02*
X134954636Y-67170904D01*
X134954636Y-67170904D02*
X135015112Y-67049952D01*
X135015112Y-67049952D02*
X135015112Y-66808047D01*
X135015112Y-66808047D02*
X134954636Y-66687095D01*
X134954636Y-66687095D02*
X134894160Y-66626619D01*
X134894160Y-66626619D02*
X134773207Y-66566142D01*
X137952237Y-36341922D02*
X137952237Y-35071922D01*
X139282714Y-36220969D02*
X139222238Y-36281446D01*
X139222238Y-36281446D02*
X139040809Y-36341922D01*
X139040809Y-36341922D02*
X138919857Y-36341922D01*
X138919857Y-36341922D02*
X138738428Y-36281446D01*
X138738428Y-36281446D02*
X138617476Y-36160493D01*
X138617476Y-36160493D02*
X138556999Y-36039541D01*
X138556999Y-36039541D02*
X138496523Y-35797636D01*
X138496523Y-35797636D02*
X138496523Y-35616207D01*
X138496523Y-35616207D02*
X138556999Y-35374303D01*
X138556999Y-35374303D02*
X138617476Y-35253350D01*
X138617476Y-35253350D02*
X138738428Y-35132398D01*
X138738428Y-35132398D02*
X138919857Y-35071922D01*
X138919857Y-35071922D02*
X139040809Y-35071922D01*
X139040809Y-35071922D02*
X139222238Y-35132398D01*
X139222238Y-35132398D02*
X139282714Y-35192874D01*
X140492238Y-36341922D02*
X139766523Y-36341922D01*
X140129380Y-36341922D02*
X140129380Y-35071922D01*
X140129380Y-35071922D02*
X140008428Y-35253350D01*
X140008428Y-35253350D02*
X139887476Y-35374303D01*
X139887476Y-35374303D02*
X139766523Y-35434779D01*
X133392333Y-26787969D02*
X133331857Y-26848446D01*
X133331857Y-26848446D02*
X133150428Y-26908922D01*
X133150428Y-26908922D02*
X133029476Y-26908922D01*
X133029476Y-26908922D02*
X132848047Y-26848446D01*
X132848047Y-26848446D02*
X132727095Y-26727493D01*
X132727095Y-26727493D02*
X132666618Y-26606541D01*
X132666618Y-26606541D02*
X132606142Y-26364636D01*
X132606142Y-26364636D02*
X132606142Y-26183207D01*
X132606142Y-26183207D02*
X132666618Y-25941303D01*
X132666618Y-25941303D02*
X132727095Y-25820350D01*
X132727095Y-25820350D02*
X132848047Y-25699398D01*
X132848047Y-25699398D02*
X133029476Y-25638922D01*
X133029476Y-25638922D02*
X133150428Y-25638922D01*
X133150428Y-25638922D02*
X133331857Y-25699398D01*
X133331857Y-25699398D02*
X133392333Y-25759874D01*
X134480904Y-25638922D02*
X134238999Y-25638922D01*
X134238999Y-25638922D02*
X134118047Y-25699398D01*
X134118047Y-25699398D02*
X134057571Y-25759874D01*
X134057571Y-25759874D02*
X133936618Y-25941303D01*
X133936618Y-25941303D02*
X133876142Y-26183207D01*
X133876142Y-26183207D02*
X133876142Y-26667017D01*
X133876142Y-26667017D02*
X133936618Y-26787969D01*
X133936618Y-26787969D02*
X133997095Y-26848446D01*
X133997095Y-26848446D02*
X134118047Y-26908922D01*
X134118047Y-26908922D02*
X134359952Y-26908922D01*
X134359952Y-26908922D02*
X134480904Y-26848446D01*
X134480904Y-26848446D02*
X134541380Y-26787969D01*
X134541380Y-26787969D02*
X134601857Y-26667017D01*
X134601857Y-26667017D02*
X134601857Y-26364636D01*
X134601857Y-26364636D02*
X134541380Y-26243684D01*
X134541380Y-26243684D02*
X134480904Y-26183207D01*
X134480904Y-26183207D02*
X134359952Y-26122731D01*
X134359952Y-26122731D02*
X134118047Y-26122731D01*
X134118047Y-26122731D02*
X133997095Y-26183207D01*
X133997095Y-26183207D02*
X133936618Y-26243684D01*
X133936618Y-26243684D02*
X133876142Y-26364636D01*
X129644333Y-41607969D02*
X129583857Y-41668446D01*
X129583857Y-41668446D02*
X129402428Y-41728922D01*
X129402428Y-41728922D02*
X129281476Y-41728922D01*
X129281476Y-41728922D02*
X129100047Y-41668446D01*
X129100047Y-41668446D02*
X128979095Y-41547493D01*
X128979095Y-41547493D02*
X128918618Y-41426541D01*
X128918618Y-41426541D02*
X128858142Y-41184636D01*
X128858142Y-41184636D02*
X128858142Y-41003207D01*
X128858142Y-41003207D02*
X128918618Y-40761303D01*
X128918618Y-40761303D02*
X128979095Y-40640350D01*
X128979095Y-40640350D02*
X129100047Y-40519398D01*
X129100047Y-40519398D02*
X129281476Y-40458922D01*
X129281476Y-40458922D02*
X129402428Y-40458922D01*
X129402428Y-40458922D02*
X129583857Y-40519398D01*
X129583857Y-40519398D02*
X129644333Y-40579874D01*
X130370047Y-41003207D02*
X130249095Y-40942731D01*
X130249095Y-40942731D02*
X130188618Y-40882255D01*
X130188618Y-40882255D02*
X130128142Y-40761303D01*
X130128142Y-40761303D02*
X130128142Y-40700826D01*
X130128142Y-40700826D02*
X130188618Y-40579874D01*
X130188618Y-40579874D02*
X130249095Y-40519398D01*
X130249095Y-40519398D02*
X130370047Y-40458922D01*
X130370047Y-40458922D02*
X130611952Y-40458922D01*
X130611952Y-40458922D02*
X130732904Y-40519398D01*
X130732904Y-40519398D02*
X130793380Y-40579874D01*
X130793380Y-40579874D02*
X130853857Y-40700826D01*
X130853857Y-40700826D02*
X130853857Y-40761303D01*
X130853857Y-40761303D02*
X130793380Y-40882255D01*
X130793380Y-40882255D02*
X130732904Y-40942731D01*
X130732904Y-40942731D02*
X130611952Y-41003207D01*
X130611952Y-41003207D02*
X130370047Y-41003207D01*
X130370047Y-41003207D02*
X130249095Y-41063684D01*
X130249095Y-41063684D02*
X130188618Y-41124160D01*
X130188618Y-41124160D02*
X130128142Y-41245112D01*
X130128142Y-41245112D02*
X130128142Y-41487017D01*
X130128142Y-41487017D02*
X130188618Y-41607969D01*
X130188618Y-41607969D02*
X130249095Y-41668446D01*
X130249095Y-41668446D02*
X130370047Y-41728922D01*
X130370047Y-41728922D02*
X130611952Y-41728922D01*
X130611952Y-41728922D02*
X130732904Y-41668446D01*
X130732904Y-41668446D02*
X130793380Y-41607969D01*
X130793380Y-41607969D02*
X130853857Y-41487017D01*
X130853857Y-41487017D02*
X130853857Y-41245112D01*
X130853857Y-41245112D02*
X130793380Y-41124160D01*
X130793380Y-41124160D02*
X130732904Y-41063684D01*
X130732904Y-41063684D02*
X130611952Y-41003207D01*
X138980333Y-26875969D02*
X138919857Y-26936446D01*
X138919857Y-26936446D02*
X138738428Y-26996922D01*
X138738428Y-26996922D02*
X138617476Y-26996922D01*
X138617476Y-26996922D02*
X138436047Y-26936446D01*
X138436047Y-26936446D02*
X138315095Y-26815493D01*
X138315095Y-26815493D02*
X138254618Y-26694541D01*
X138254618Y-26694541D02*
X138194142Y-26452636D01*
X138194142Y-26452636D02*
X138194142Y-26271207D01*
X138194142Y-26271207D02*
X138254618Y-26029303D01*
X138254618Y-26029303D02*
X138315095Y-25908350D01*
X138315095Y-25908350D02*
X138436047Y-25787398D01*
X138436047Y-25787398D02*
X138617476Y-25726922D01*
X138617476Y-25726922D02*
X138738428Y-25726922D01*
X138738428Y-25726922D02*
X138919857Y-25787398D01*
X138919857Y-25787398D02*
X138980333Y-25847874D01*
X140189857Y-26996922D02*
X139464142Y-26996922D01*
X139826999Y-26996922D02*
X139826999Y-25726922D01*
X139826999Y-25726922D02*
X139706047Y-25908350D01*
X139706047Y-25908350D02*
X139585095Y-26029303D01*
X139585095Y-26029303D02*
X139464142Y-26089779D01*
X118468333Y-32971969D02*
X118407857Y-33032446D01*
X118407857Y-33032446D02*
X118226428Y-33092922D01*
X118226428Y-33092922D02*
X118105476Y-33092922D01*
X118105476Y-33092922D02*
X117924047Y-33032446D01*
X117924047Y-33032446D02*
X117803095Y-32911493D01*
X117803095Y-32911493D02*
X117742618Y-32790541D01*
X117742618Y-32790541D02*
X117682142Y-32548636D01*
X117682142Y-32548636D02*
X117682142Y-32367207D01*
X117682142Y-32367207D02*
X117742618Y-32125303D01*
X117742618Y-32125303D02*
X117803095Y-32004350D01*
X117803095Y-32004350D02*
X117924047Y-31883398D01*
X117924047Y-31883398D02*
X118105476Y-31822922D01*
X118105476Y-31822922D02*
X118226428Y-31822922D01*
X118226428Y-31822922D02*
X118407857Y-31883398D01*
X118407857Y-31883398D02*
X118468333Y-31943874D01*
X119617380Y-31822922D02*
X119012618Y-31822922D01*
X119012618Y-31822922D02*
X118952142Y-32427684D01*
X118952142Y-32427684D02*
X119012618Y-32367207D01*
X119012618Y-32367207D02*
X119133571Y-32306731D01*
X119133571Y-32306731D02*
X119435952Y-32306731D01*
X119435952Y-32306731D02*
X119556904Y-32367207D01*
X119556904Y-32367207D02*
X119617380Y-32427684D01*
X119617380Y-32427684D02*
X119677857Y-32548636D01*
X119677857Y-32548636D02*
X119677857Y-32851017D01*
X119677857Y-32851017D02*
X119617380Y-32971969D01*
X119617380Y-32971969D02*
X119556904Y-33032446D01*
X119556904Y-33032446D02*
X119435952Y-33092922D01*
X119435952Y-33092922D02*
X119133571Y-33092922D01*
X119133571Y-33092922D02*
X119012618Y-33032446D01*
X119012618Y-33032446D02*
X118952142Y-32971969D01*
X140159969Y-68380428D02*
X140220446Y-68440904D01*
X140220446Y-68440904D02*
X140280922Y-68622333D01*
X140280922Y-68622333D02*
X140280922Y-68743285D01*
X140280922Y-68743285D02*
X140220446Y-68924714D01*
X140220446Y-68924714D02*
X140099493Y-69045666D01*
X140099493Y-69045666D02*
X139978541Y-69106143D01*
X139978541Y-69106143D02*
X139736636Y-69166619D01*
X139736636Y-69166619D02*
X139555207Y-69166619D01*
X139555207Y-69166619D02*
X139313303Y-69106143D01*
X139313303Y-69106143D02*
X139192350Y-69045666D01*
X139192350Y-69045666D02*
X139071398Y-68924714D01*
X139071398Y-68924714D02*
X139010922Y-68743285D01*
X139010922Y-68743285D02*
X139010922Y-68622333D01*
X139010922Y-68622333D02*
X139071398Y-68440904D01*
X139071398Y-68440904D02*
X139131874Y-68380428D01*
X140280922Y-67170904D02*
X140280922Y-67896619D01*
X140280922Y-67533762D02*
X139010922Y-67533762D01*
X139010922Y-67533762D02*
X139192350Y-67654714D01*
X139192350Y-67654714D02*
X139313303Y-67775666D01*
X139313303Y-67775666D02*
X139373779Y-67896619D01*
X139010922Y-66384714D02*
X139010922Y-66263761D01*
X139010922Y-66263761D02*
X139071398Y-66142809D01*
X139071398Y-66142809D02*
X139131874Y-66082333D01*
X139131874Y-66082333D02*
X139252826Y-66021857D01*
X139252826Y-66021857D02*
X139494731Y-65961380D01*
X139494731Y-65961380D02*
X139797112Y-65961380D01*
X139797112Y-65961380D02*
X140039017Y-66021857D01*
X140039017Y-66021857D02*
X140159969Y-66082333D01*
X140159969Y-66082333D02*
X140220446Y-66142809D01*
X140220446Y-66142809D02*
X140280922Y-66263761D01*
X140280922Y-66263761D02*
X140280922Y-66384714D01*
X140280922Y-66384714D02*
X140220446Y-66505666D01*
X140220446Y-66505666D02*
X140159969Y-66566142D01*
X140159969Y-66566142D02*
X140039017Y-66626619D01*
X140039017Y-66626619D02*
X139797112Y-66687095D01*
X139797112Y-66687095D02*
X139494731Y-66687095D01*
X139494731Y-66687095D02*
X139252826Y-66626619D01*
X139252826Y-66626619D02*
X139131874Y-66566142D01*
X139131874Y-66566142D02*
X139071398Y-66505666D01*
X139071398Y-66505666D02*
X139010922Y-66384714D01*
X100596446Y-37479619D02*
X100656922Y-37298190D01*
X100656922Y-37298190D02*
X100656922Y-36995809D01*
X100656922Y-36995809D02*
X100596446Y-36874857D01*
X100596446Y-36874857D02*
X100535969Y-36814381D01*
X100535969Y-36814381D02*
X100415017Y-36753904D01*
X100415017Y-36753904D02*
X100294065Y-36753904D01*
X100294065Y-36753904D02*
X100173112Y-36814381D01*
X100173112Y-36814381D02*
X100112636Y-36874857D01*
X100112636Y-36874857D02*
X100052160Y-36995809D01*
X100052160Y-36995809D02*
X99991684Y-37237714D01*
X99991684Y-37237714D02*
X99931207Y-37358666D01*
X99931207Y-37358666D02*
X99870731Y-37419143D01*
X99870731Y-37419143D02*
X99749779Y-37479619D01*
X99749779Y-37479619D02*
X99628826Y-37479619D01*
X99628826Y-37479619D02*
X99507874Y-37419143D01*
X99507874Y-37419143D02*
X99447398Y-37358666D01*
X99447398Y-37358666D02*
X99386922Y-37237714D01*
X99386922Y-37237714D02*
X99386922Y-36935333D01*
X99386922Y-36935333D02*
X99447398Y-36753904D01*
X99386922Y-35604857D02*
X99386922Y-36209619D01*
X99386922Y-36209619D02*
X99991684Y-36270095D01*
X99991684Y-36270095D02*
X99931207Y-36209619D01*
X99931207Y-36209619D02*
X99870731Y-36088666D01*
X99870731Y-36088666D02*
X99870731Y-35786285D01*
X99870731Y-35786285D02*
X99931207Y-35665333D01*
X99931207Y-35665333D02*
X99991684Y-35604857D01*
X99991684Y-35604857D02*
X100112636Y-35544380D01*
X100112636Y-35544380D02*
X100415017Y-35544380D01*
X100415017Y-35544380D02*
X100535969Y-35604857D01*
X100535969Y-35604857D02*
X100596446Y-35665333D01*
X100596446Y-35665333D02*
X100656922Y-35786285D01*
X100656922Y-35786285D02*
X100656922Y-36088666D01*
X100656922Y-36088666D02*
X100596446Y-36209619D01*
X100596446Y-36209619D02*
X100535969Y-36270095D01*
X160683523Y-31060922D02*
X160078761Y-31060922D01*
X160078761Y-31060922D02*
X160078761Y-29790922D01*
X161106856Y-30395684D02*
X161530190Y-30395684D01*
X161711618Y-31060922D02*
X161106856Y-31060922D01*
X161106856Y-31060922D02*
X161106856Y-29790922D01*
X161106856Y-29790922D02*
X161711618Y-29790922D01*
X162255904Y-31060922D02*
X162255904Y-29790922D01*
X162255904Y-29790922D02*
X162558285Y-29790922D01*
X162558285Y-29790922D02*
X162739714Y-29851398D01*
X162739714Y-29851398D02*
X162860666Y-29972350D01*
X162860666Y-29972350D02*
X162921143Y-30093303D01*
X162921143Y-30093303D02*
X162981619Y-30335207D01*
X162981619Y-30335207D02*
X162981619Y-30516636D01*
X162981619Y-30516636D02*
X162921143Y-30758541D01*
X162921143Y-30758541D02*
X162860666Y-30879493D01*
X162860666Y-30879493D02*
X162739714Y-31000446D01*
X162739714Y-31000446D02*
X162558285Y-31060922D01*
X162558285Y-31060922D02*
X162255904Y-31060922D01*
X163223524Y-31181874D02*
X164191143Y-31181874D01*
X164493523Y-31060922D02*
X164493523Y-29790922D01*
X164493523Y-29790922D02*
X164977333Y-29790922D01*
X164977333Y-29790922D02*
X165098285Y-29851398D01*
X165098285Y-29851398D02*
X165158762Y-29911874D01*
X165158762Y-29911874D02*
X165219238Y-30032826D01*
X165219238Y-30032826D02*
X165219238Y-30214255D01*
X165219238Y-30214255D02*
X165158762Y-30335207D01*
X165158762Y-30335207D02*
X165098285Y-30395684D01*
X165098285Y-30395684D02*
X164977333Y-30456160D01*
X164977333Y-30456160D02*
X164493523Y-30456160D01*
X166005428Y-29790922D02*
X166247333Y-29790922D01*
X166247333Y-29790922D02*
X166368285Y-29851398D01*
X166368285Y-29851398D02*
X166489238Y-29972350D01*
X166489238Y-29972350D02*
X166549714Y-30214255D01*
X166549714Y-30214255D02*
X166549714Y-30637588D01*
X166549714Y-30637588D02*
X166489238Y-30879493D01*
X166489238Y-30879493D02*
X166368285Y-31000446D01*
X166368285Y-31000446D02*
X166247333Y-31060922D01*
X166247333Y-31060922D02*
X166005428Y-31060922D01*
X166005428Y-31060922D02*
X165884476Y-31000446D01*
X165884476Y-31000446D02*
X165763523Y-30879493D01*
X165763523Y-30879493D02*
X165703047Y-30637588D01*
X165703047Y-30637588D02*
X165703047Y-30214255D01*
X165703047Y-30214255D02*
X165763523Y-29972350D01*
X165763523Y-29972350D02*
X165884476Y-29851398D01*
X165884476Y-29851398D02*
X166005428Y-29790922D01*
X166973047Y-29790922D02*
X167275428Y-31060922D01*
X167275428Y-31060922D02*
X167517333Y-30153779D01*
X167517333Y-30153779D02*
X167759238Y-31060922D01*
X167759238Y-31060922D02*
X168061619Y-29790922D01*
X168545428Y-30395684D02*
X168968762Y-30395684D01*
X169150190Y-31060922D02*
X168545428Y-31060922D01*
X168545428Y-31060922D02*
X168545428Y-29790922D01*
X168545428Y-29790922D02*
X169150190Y-29790922D01*
X170420191Y-31060922D02*
X169996857Y-30456160D01*
X169694476Y-31060922D02*
X169694476Y-29790922D01*
X169694476Y-29790922D02*
X170178286Y-29790922D01*
X170178286Y-29790922D02*
X170299238Y-29851398D01*
X170299238Y-29851398D02*
X170359715Y-29911874D01*
X170359715Y-29911874D02*
X170420191Y-30032826D01*
X170420191Y-30032826D02*
X170420191Y-30214255D01*
X170420191Y-30214255D02*
X170359715Y-30335207D01*
X170359715Y-30335207D02*
X170299238Y-30395684D01*
X170299238Y-30395684D02*
X170178286Y-30456160D01*
X170178286Y-30456160D02*
X169694476Y-30456160D01*
X171629715Y-31060922D02*
X170904000Y-31060922D01*
X171266857Y-31060922D02*
X171266857Y-29790922D01*
X171266857Y-29790922D02*
X171145905Y-29972350D01*
X171145905Y-29972350D02*
X171024953Y-30093303D01*
X171024953Y-30093303D02*
X170904000Y-30153779D01*
D11*
%TO.C,R6*%
X160070000Y-105380000D02*
X160070000Y-105380000D01*
X159970000Y-105380000D02*
X159970000Y-105380000D01*
X159970000Y-105380000D02*
G75*
G03*
X160070000Y-105380000I50000J0D01*
G01*
X160070000Y-105380000D02*
G75*
G03*
X159970000Y-105380000I-50000J0D01*
G01*
D12*
%TO.C,IC4*%
X121493000Y-43438000D02*
X123018000Y-43438000D01*
X123368000Y-43777000D02*
X126568000Y-43777000D01*
X123368000Y-48679000D02*
X123368000Y-43777000D01*
X126568000Y-43777000D02*
X126568000Y-48679000D01*
X126568000Y-48679000D02*
X123368000Y-48679000D01*
%TO.C,J2*%
X129000000Y-26365000D02*
X129000000Y-25565000D01*
X129000000Y-22365000D02*
X129000000Y-21535000D01*
X129000000Y-21535000D02*
X121000000Y-21535000D01*
X128200000Y-28465000D02*
X127000000Y-28465000D01*
D11*
X126300000Y-29700000D02*
X126300000Y-29700000D01*
X126300000Y-29600000D02*
X126300000Y-29600000D01*
D12*
X121800000Y-28465000D02*
X123000000Y-28465000D01*
X121000000Y-26365000D02*
X121000000Y-25565000D01*
X121000000Y-21535000D02*
X121000000Y-22365000D01*
D11*
X126300000Y-29600000D02*
G75*
G03*
X126300000Y-29700000I0J-50000D01*
G01*
X126300000Y-29700000D02*
G75*
G03*
X126300000Y-29600000I0J50000D01*
G01*
%TO.C,R2*%
X179608000Y-35610000D02*
X179608000Y-35610000D01*
X179608000Y-35510000D02*
X179608000Y-35510000D01*
X179608000Y-35510000D02*
G75*
G03*
X179608000Y-35610000I0J-50000D01*
G01*
X179608000Y-35610000D02*
G75*
G03*
X179608000Y-35510000I0J50000D01*
G01*
D12*
%TO.C,LED_MCU_1*%
X177508000Y-32304000D02*
X179108000Y-32304000D01*
X179108000Y-31704000D02*
X177183000Y-31704000D01*
D11*
%TO.C,R7*%
X187502000Y-105380000D02*
X187502000Y-105380000D01*
X187402000Y-105380000D02*
X187402000Y-105380000D01*
X187402000Y-105380000D02*
G75*
G03*
X187502000Y-105380000I50000J0D01*
G01*
X187502000Y-105380000D02*
G75*
G03*
X187402000Y-105380000I-50000J0D01*
G01*
D12*
%TO.C,IC3*%
X119660000Y-94607000D02*
X119660000Y-93132000D01*
%TO.C,J1*%
X82296000Y-73581000D02*
X83566000Y-73581000D01*
X83566000Y-73581000D02*
X83566000Y-47831000D01*
X78486000Y-47831000D02*
X78486000Y-72136000D01*
X83566000Y-47831000D02*
X78486000Y-47831000D01*
D11*
%TO.C,R10*%
X123494000Y-35059000D02*
X123494000Y-35059000D01*
X123394000Y-35059000D02*
X123394000Y-35059000D01*
X123394000Y-35059000D02*
G75*
G03*
X123494000Y-35059000I50000J0D01*
G01*
X123494000Y-35059000D02*
G75*
G03*
X123394000Y-35059000I-50000J0D01*
G01*
D13*
%TO.C,S2*%
X88770000Y-109960000D02*
X103770000Y-109960000D01*
X88770000Y-124960000D02*
X88770000Y-109960000D01*
X88770000Y-124960000D02*
X103770000Y-124960000D01*
X103770000Y-124960000D02*
X103770000Y-109960000D01*
D11*
%TO.C,R5*%
X97586000Y-104655000D02*
X97586000Y-104655000D01*
X97486000Y-104655000D02*
X97486000Y-104655000D01*
X97486000Y-104655000D02*
G75*
G03*
X97586000Y-104655000I50000J0D01*
G01*
X97586000Y-104655000D02*
G75*
G03*
X97486000Y-104655000I-50000J0D01*
G01*
%TO.C,R4*%
X65074000Y-104872000D02*
X65074000Y-104872000D01*
X64974000Y-104872000D02*
X64974000Y-104872000D01*
X64974000Y-104872000D02*
G75*
G03*
X65074000Y-104872000I50000J0D01*
G01*
X65074000Y-104872000D02*
G75*
G03*
X64974000Y-104872000I-50000J0D01*
G01*
%TO.C,J3*%
X148079000Y-57635000D02*
X148079000Y-64285000D01*
X144529000Y-57635000D02*
X148079000Y-57635000D01*
X148079000Y-64285000D02*
X144529000Y-64285000D01*
X144529000Y-64285000D02*
X144529000Y-57635000D01*
%TO.C,R9*%
X126542000Y-35059000D02*
X126542000Y-35059000D01*
X126442000Y-35059000D02*
X126442000Y-35059000D01*
X126442000Y-35059000D02*
G75*
G03*
X126542000Y-35059000I50000J0D01*
G01*
X126542000Y-35059000D02*
G75*
G03*
X126442000Y-35059000I-50000J0D01*
G01*
D12*
%TO.C,IC5*%
X119037000Y-59165000D02*
X120962000Y-59165000D01*
X121312000Y-59155000D02*
X128112000Y-59155000D01*
X121312000Y-71955000D02*
X121312000Y-59155000D01*
X128112000Y-59155000D02*
X128112000Y-71955000D01*
X128112000Y-71955000D02*
X121312000Y-71955000D01*
D13*
%TO.C,S3*%
X151230000Y-109960000D02*
X166230000Y-109960000D01*
X151230000Y-124960000D02*
X151230000Y-109960000D01*
X151230000Y-124960000D02*
X166230000Y-124960000D01*
X166230000Y-124960000D02*
X166230000Y-109960000D01*
D11*
%TO.C,R11*%
X124410000Y-86136000D02*
X124410000Y-86136000D01*
X124510000Y-86136000D02*
X124510000Y-86136000D01*
X124510000Y-86136000D02*
G75*
G03*
X124410000Y-86136000I-50000J0D01*
G01*
X124410000Y-86136000D02*
G75*
G03*
X124510000Y-86136000I50000J0D01*
G01*
%TO.C,R1*%
X167416000Y-35610000D02*
X167416000Y-35610000D01*
X167416000Y-35510000D02*
X167416000Y-35510000D01*
X167416000Y-35510000D02*
G75*
G03*
X167416000Y-35610000I0J-50000D01*
G01*
X167416000Y-35610000D02*
G75*
G03*
X167416000Y-35510000I0J50000D01*
G01*
%TO.C,R13*%
X112552000Y-67106000D02*
X112552000Y-67106000D01*
X112552000Y-67006000D02*
X112552000Y-67006000D01*
X112552000Y-67006000D02*
G75*
G03*
X112552000Y-67106000I0J-50000D01*
G01*
X112552000Y-67106000D02*
G75*
G03*
X112552000Y-67006000I0J50000D01*
G01*
%TO.C,R12*%
X112552000Y-64566000D02*
X112552000Y-64566000D01*
X112552000Y-64466000D02*
X112552000Y-64466000D01*
X112552000Y-64466000D02*
G75*
G03*
X112552000Y-64566000I0J-50000D01*
G01*
X112552000Y-64566000D02*
G75*
G03*
X112552000Y-64466000I0J50000D01*
G01*
%TO.C,R3*%
X191800000Y-35610000D02*
X191800000Y-35610000D01*
X191800000Y-35510000D02*
X191800000Y-35510000D01*
X191800000Y-35510000D02*
G75*
G03*
X191800000Y-35610000I0J-50000D01*
G01*
X191800000Y-35610000D02*
G75*
G03*
X191800000Y-35510000I0J50000D01*
G01*
D13*
%TO.C,S1*%
X56230000Y-110040000D02*
X71230000Y-110040000D01*
X56230000Y-125040000D02*
X56230000Y-110040000D01*
X56230000Y-125040000D02*
X71230000Y-125040000D01*
X71230000Y-125040000D02*
X71230000Y-110040000D01*
D11*
%TO.C,R14*%
X101624637Y-47194000D02*
X101624637Y-47194000D01*
X101624637Y-47294000D02*
X101624637Y-47294000D01*
X101624637Y-47294000D02*
G75*
G03*
X101624637Y-47194000I0J50000D01*
G01*
X101624637Y-47194000D02*
G75*
G03*
X101624637Y-47294000I0J-50000D01*
G01*
D12*
%TO.C,IC2*%
X133445000Y-43231000D02*
X133445000Y-42081000D01*
X133620000Y-41731000D02*
X133620000Y-41581000D01*
X135620000Y-41731000D02*
X133620000Y-41731000D01*
X133620000Y-41581000D02*
X135620000Y-41581000D01*
X135620000Y-41581000D02*
X135620000Y-41731000D01*
%TO.C,LED_MCU_2*%
X189700000Y-32304000D02*
X191300000Y-32304000D01*
X191300000Y-31704000D02*
X189375000Y-31704000D01*
D11*
%TO.C,R8*%
X113508000Y-93930000D02*
X113508000Y-93930000D01*
X113508000Y-94030000D02*
X113508000Y-94030000D01*
X113508000Y-94030000D02*
G75*
G03*
X113508000Y-93930000I0J50000D01*
G01*
X113508000Y-93930000D02*
G75*
G03*
X113508000Y-94030000I0J-50000D01*
G01*
D12*
%TO.C,IC1*%
X140692000Y-30662000D02*
X140692000Y-31562000D01*
X140642000Y-31912000D02*
X140642000Y-33112000D01*
X137742000Y-31912000D02*
X140642000Y-31912000D01*
X140642000Y-33112000D02*
X137742000Y-33112000D01*
X137742000Y-33112000D02*
X137742000Y-31912000D01*
D13*
%TO.C,S4*%
X178770000Y-110040000D02*
X193770000Y-110040000D01*
X178770000Y-125040000D02*
X178770000Y-110040000D01*
X178770000Y-125040000D02*
X193770000Y-125040000D01*
X193770000Y-125040000D02*
X193770000Y-110040000D01*
D12*
%TO.C,S5*%
X102156000Y-41976000D02*
X102156000Y-41976000D01*
X102156000Y-41776000D02*
X102156000Y-41776000D01*
D11*
X103656000Y-40476000D02*
X106656000Y-40476000D01*
X101206000Y-39576000D02*
X101206000Y-33576000D01*
X109106000Y-39576000D02*
X109106000Y-33576000D01*
X106656000Y-32676000D02*
X103656000Y-32676000D01*
D12*
X102156000Y-41776000D02*
G75*
G03*
X102156000Y-41976000I0J-100000D01*
G01*
X102156000Y-41976000D02*
G75*
G03*
X102156000Y-41776000I0J100000D01*
G01*
%TO.C,LED_POWER1*%
X165316000Y-32304000D02*
X166916000Y-32304000D01*
X166916000Y-31704000D02*
X164991000Y-31704000D01*
%TD*%
D14*
%TO.C,J2*%
X129950000Y-27915000D03*
X129950000Y-23915000D03*
X120050000Y-23915000D03*
X120050000Y-27915000D03*
%TD*%
D15*
%TO.C,J1*%
X82296000Y-72136000D03*
D16*
X79756000Y-72136000D03*
X82296000Y-69596000D03*
X79756000Y-69596000D03*
X82296000Y-67056000D03*
X79756000Y-67056000D03*
X82296000Y-64516000D03*
X79756000Y-64516000D03*
X82296000Y-61976000D03*
X79756000Y-61976000D03*
X82296000Y-59436000D03*
X79756000Y-59436000D03*
X82296000Y-56896000D03*
X79756000Y-56896000D03*
X82296000Y-54356000D03*
X79756000Y-54356000D03*
X82296000Y-51816000D03*
X79756000Y-51816000D03*
X82296000Y-49276000D03*
X79756000Y-49276000D03*
%TD*%
D17*
%TO.C,J3*%
X145669000Y-58420000D03*
D18*
X146939000Y-58420000D03*
X145669000Y-59690000D03*
X146939000Y-59690000D03*
X145669000Y-60960000D03*
X146939000Y-60960000D03*
X145669000Y-62230000D03*
X146939000Y-62230000D03*
X145669000Y-63500000D03*
X146939000Y-63500000D03*
%TD*%
D19*
%TO.C,S5*%
X102156000Y-40576000D03*
X108156000Y-40576000D03*
X102156000Y-32576000D03*
X108156000Y-32576000D03*
%TD*%
M02*
