M48
; DRILL file {KiCad 7.0.10} date Sun Jan 21 00:45:59 2024
; FORMAT={-:-/ absolute / inch / decimal}
; #@! TF.CreationDate,2024-01-21T00:45:59+00:00
; #@! TF.GenerationSoftware,Kicad,Pcbnew,7.0.10
; #@! TF.FileFunction,Plated,1,4,PTH
FMAT,2
INCH
; #@! TA.AperFunction,Plated,PTH,ViaDrill
T1C0.0118
; #@! TA.AperFunction,Plated,PTH,ComponentDrill
T2C0.0276
; #@! TA.AperFunction,Plated,PTH,ComponentDrill
T3C0.0413
; #@! TA.AperFunction,Plated,PTH,ComponentDrill
T4C0.0433
; #@! TA.AperFunction,Plated,PTH,ComponentDrill
T5C0.0472
; #@! TA.AperFunction,Plated,PTH,ComponentDrill
T6C0.0748
; #@! TA.AperFunction,Plated,PTH,ComponentDrill
T7C0.0984
%
G90
G05
T1
X0.98Y-2.28
X0.98Y-3.8
X1.0Y-1.66
X1.0Y-3.0
X1.02Y-4.46
X1.18Y-1.24
X1.48Y-1.04
X1.52Y-5.32
X2.58Y-0.96
X2.7Y-5.6
X3.34Y-2.48
X3.46Y-3.9
X3.48Y-2.5
X3.84Y-0.94
X4.0Y-5.62
X4.02Y-2.0
X4.08Y-2.4
X4.18Y-3.94
X4.22Y-2.54
X4.4042Y-2.5924
X4.48Y-2.52
X4.5007Y-2.6311
X4.56Y-2.9
X4.64Y-2.02
X4.68Y-1.88
X4.68Y-1.92
X4.7Y-1.7382
X4.7399Y-3.38
X4.76Y-1.78
X4.78Y-3.78
X4.84Y-2.88
X4.86Y-3.32
X4.8837Y-2.4837
X4.9198Y-2.2398
X4.9223Y-2.48
X4.94Y-1.02
X4.94Y-2.26
X4.94Y-2.66
X4.94Y-2.88
X4.96Y-2.44
X4.98Y-2.62
X5.0Y-2.44
X5.02Y-3.32
X5.06Y-3.36
X5.08Y-1.82
X5.12Y-1.7132
X5.12Y-1.92
X5.14Y-1.76
X5.14Y-3.66
X5.18Y-2.02
X5.18Y-2.56
X5.18Y-3.8
X5.2Y-1.7
X5.2Y-1.98
X5.2Y-2.6
X5.2Y-2.6
X5.22Y-2.46
X5.24Y-2.18
X5.24Y-2.58
X5.24Y-2.66
X5.26Y-1.74
X5.26Y-2.62
X5.28Y-1.8
X5.28Y-1.86
X5.28Y-1.94
X5.3Y-2.42
X5.3Y-2.64
X5.32Y-2.0
X5.3448Y-2.8059
X5.44Y-2.26
X5.46Y-5.62
X5.52Y-2.34
X5.58Y-4.26
X5.6Y-2.36
X5.6Y-2.36
X5.64Y-2.34
X5.64Y-2.34
X5.64Y-2.4
X5.64Y-2.4
X5.68Y-2.58
X5.7363Y-2.7363
X5.7837Y-2.6837
X5.8163Y-2.5963
X5.86Y-2.58
X6.08Y-0.96
X6.08Y-4.6
X6.24Y-1.6
X6.24Y-3.44
X6.46Y-3.48
X6.86Y-1.6
X6.9Y-0.96
X7.02Y-5.64
X8.02Y-1.04
X8.08Y-5.48
X8.46Y-1.72
X8.62Y-2.54
X8.62Y-3.66
X8.62Y-4.9
T2
X5.735Y-2.3
X5.735Y-2.35
X5.735Y-2.4
X5.735Y-2.45
X5.735Y-2.5
X5.785Y-2.3
X5.785Y-2.35
X5.785Y-2.4
X5.785Y-2.45
X5.785Y-2.5
T3
X4.0219Y-1.2825
X4.0219Y-1.5975
X4.2581Y-1.2825
X4.2581Y-1.5975
T4
X3.14Y-1.94
X3.14Y-2.04
X3.14Y-2.14
X3.14Y-2.24
X3.14Y-2.34
X3.14Y-2.44
X3.14Y-2.54
X3.14Y-2.64
X3.14Y-2.74
X3.14Y-2.84
X3.24Y-1.94
X3.24Y-2.04
X3.24Y-2.14
X3.24Y-2.24
X3.24Y-2.34
X3.24Y-2.44
X3.24Y-2.54
X3.24Y-2.64
X3.24Y-2.74
X3.24Y-2.84
T5
X2.4591Y-4.5276
X2.4591Y-4.7276
X2.5591Y-4.5276
X2.5591Y-4.7276
X2.7091Y-4.4276
X2.7091Y-4.6276
X2.7091Y-4.8276
X3.7402Y-4.5244
X3.7402Y-4.7244
X3.8402Y-4.5244
X3.8402Y-4.7244
X3.9902Y-4.4244
X3.9902Y-4.6244
X3.9902Y-4.8244
X6.1992Y-4.5244
X6.1992Y-4.7244
X6.2992Y-4.5244
X6.2992Y-4.7244
X6.4492Y-4.4244
X6.4492Y-4.6244
X6.4492Y-4.8244
X7.2835Y-4.5276
X7.2835Y-4.7276
X7.3835Y-4.5276
X7.3835Y-4.7276
X7.5335Y-4.4276
X7.5335Y-4.6276
X7.5335Y-4.8276
T6
X4.7264Y-0.9415
X4.7264Y-1.099
X5.1161Y-0.9415
X5.1161Y-1.099
T7
X1.6Y-1.2
X1.6Y-5.6
X8.2Y-1.2
X8.2Y-5.6
M30
