M48
;Layer_Color=9474304
;FILE_FORMAT=2:5
INCH,LZ
;TYPE=PLATED
T1F00S00C0.01618
T2F00S00C0.02165
T3F00S00C0.03150
T4F00S00C0.04331
T5F00S00C0.09055
;TYPE=NON_PLATED
T6F00S00C0.05118
%
T01
X0117028Y0115748
X0158563Y0081595
X0169291Y0080905
X0174409Y0073524
X0179331
X0173071Y0093898
X0209449Y0101181
X0214469
X021434Y0071862
X021934
T02
X0189764Y0053248
X0194095
T03
X0041558Y0043307
X0047464
Y0059055
X0041558
X0053409Y0068898
X0023409
X0095236
X0113386Y0059055
X0119291
Y0043307
X0113386
X0125236Y0068898
X0272402
X0290551Y0059055
X0296457
Y0043307
X0290551
X0302402Y0068898
X0341828Y0069097
X0359978Y0059254
X0365883
Y0043507
X0359978
X0371828Y0069097
T04
X0029055Y0151417
X0039055
X0049055
X0059055
X0069055
Y0161417
X0059055
X0049055
X0039055
X0029055
T05
X0170984Y0152441
X0222716Y0152441
T06
X0013409Y0026181
Y0076181
X0063409
X0085236
Y0026181
X0063409
X0135236
Y0076181
X0262402
Y0026181
X0312402
Y0076181
X0331828Y007638
X0381828
Y0026381
X0331828
M30
