M48
;Layer_Color=9474304
;FILE_FORMAT=2:5
INCH,LZ
;TYPE=PLATED
T1F00S00C0.01618
T2F00S00C0.02756
T3F00S00C0.04331
T4F00S00C0.04724
T5F00S00C0.15748
%
T01
X012126Y004685
X0116535Y0078347
Y0111181
X0141455Y009252
X0112851Y0152067
X0048383Y0136516
X0156398Y0155217
X0205906Y014252
X02098Y0146358
X0212441Y0134235
X0213965Y0122733
X0216651Y011993
X0218701Y0112992
X0213779
X0206884Y0122344
X0202362Y0106693
X0186614Y0112205
X0189831Y0088395
X0181747
X0188189Y0072638
X0190008Y0061716
X0186024Y0052854
X0197095Y004847
X0210039Y0048031
X0223819Y0059351
Y0067716
X0237359Y0067712
X0247244Y0066535
X0247736Y005857
X0253642Y0046797
X0243504Y004252
X0239173Y0046161
X0267028Y0057898
X0262669Y0072315
X0258661Y0068898
X0287457Y0068307
X028937Y0088976
X0277154Y0097244
X0262795Y010138
X0258711Y0111331
X0253711
X0254717Y0117499
X0243721Y0117717
Y0103742
X0229817Y0115285
X0224757Y0133328
X0233807Y0151537
X0248819Y014065
X0253839
X0278346Y0134646
X0277165Y0154331
X0297035Y0153939
X0291732Y0122441
X0272835Y0112697
X0235827Y0083385
X0232653Y0080915
X0229789Y0083613
X0222815Y0091988
X0208512Y0072205
X0168701Y0102559
X0322799Y0108811
X0335269Y0122933
X0318268Y0140223
X0326772Y0153543
X0368406Y0155315
X0384406Y0133858
X0382991Y0113687
X0361167Y0089592
X0350787Y0045669
X0323622Y0064173
X0422835Y0091339
X0379823Y0157087
X0425591Y0197638
X0299213Y0228346
X0292107Y016538
X0240569Y0182842
X0129823Y0169587
X0099152Y0173339
X0047244Y019685
X0137795Y0228346
T02
X0074646Y019252
Y019752
X0079646
Y019252
X0084646
Y019752
X0089646
Y019252
X0094646
Y019752
T03
X0213465Y0193307
X0223465
X0233465
X0243465
X0253465
Y0203307
X0243465
X0233465
X0223465
X0213465
T04
X0073858Y0081181
X0083858
Y0101181
X0073858
X0098858Y0091181
Y0071181
Y0111181
X0137244Y0101181
X0147244
Y0081181
X0137244
X0162244Y0091181
Y0071181
Y0111181
X0309291Y0101181
Y0081181
X0319291
Y0101181
X0334291Y0091181
Y0071181
Y0111181
X0379528Y0101181
X0389528
Y0081181
X0379528
X0404528Y0091181
Y0071181
Y0111181
T05
X0059055Y0043307
X0413386
Y022441
X0059055
M30
