M48
;Layer_Color=9474304
;FILE_FORMAT=2:5
INCH,LZ
;TYPE=PLATED
T1F00S00C0.01618
T2F00S00C0.02165
T3F00S00C0.02756
T4F00S00C0.03150
T5F00S00C0.09055
;TYPE=NON_PLATED
T6F00S00C0.05118
%
T01
X0009209Y0013386
X0031453Y0007382
X0064173Y000748
X0099213Y0007087
X0137064Y0007283
X0146653Y0013484
X0150638Y0022345
X0148819Y0033268
X0150461Y0047486
X0142377Y0049006
X0154975Y0062766
X015Y0074592
X0155096Y0083858
X0142651Y0106569
X014252Y0114567
X013937Y0130709
X0146085Y0130875
X0150379Y0141732
X015173Y0155417
X0120141Y0152788
X0120866Y0139567
X0129921Y0137402
X0130503Y0129981
X0125591Y0118504
X0117028Y0115847
X0118461Y0098327
X0090491Y0102518
X0073481Y0112697
X0078892Y0129833
X0090453Y0130217
X0098176Y0133212
X0088155Y0141776
X0080814Y0140786
X0067006Y0140087
X0059782Y0133969
X0051509Y0141718
X0043799Y0142224
X0008324Y0140847
X0009013Y0097146
X0009209Y0054429
X0098817Y0153662
X010935Y0146752
X0159252Y0150394
X0160039Y0155217
X0159702Y0141732
X0160827Y0134055
X0170094Y0134606
X0170984Y0141339
X0186713Y0128609
X0186618Y0122663
X0192913Y0122146
X0192126Y0127657
X0202756Y0128609
X0203248Y0124138
X0208028Y0124213
X0207283Y0119095
X0207087Y0113878
X0219403Y0114341
X0227812Y0117421
X0237795Y0114961
X0247595Y0115256
X0252756Y011063
X0257665Y0114569
X0259997Y0122146
X0252737Y012601
X0277123Y0120965
X0278898Y0100853
X0269685Y0095669
X025587Y0096198
X0238976Y0095276
X0233465Y0073327
X0244094Y0070866
X0248031Y0062797
X0251969Y0055118
X0244094
X0237784Y0057874
Y0047155
X0248087Y0028937
X0262402Y0036516
X0274374Y0034021
X0284252Y0024803
X0294446Y0033957
X0310549Y0059252
X02959Y0083563
X0302615Y0099213
X0296611Y0112303
X0309813Y0121793
X0284252Y015
X0232776Y0148819
X0232972Y0154134
X0198327Y0156028
X0196063Y0117028
X0194437Y0112167
X0209449Y0101279
X0214469
X0211139Y0093933
X0215347Y0078129
X021434Y0071961
X021934
X0223622Y0066142
X0221939Y0061789
X021434
X020435Y0064372
X0206693Y0074311
X0203071Y0075492
X0198425Y007874
X0193071Y0075492
X0189676Y0077495
X0187303Y0074606
X0179331Y0073622
X0174409
X0177281Y008056
X0174595Y0083363
X0167514Y0082974
X0173071Y0094865
X0185387Y0093958
X017043Y0106988
X0166535Y010315
X015689Y0073646
X0163189Y0060138
X0181299Y0059768
X0183445Y0052618
X0190419Y0044243
X0193283Y0041545
X0196457Y0044015
X0201299Y0054092
X020315Y0027559
X0207874Y0027165
X0208366Y00192
X0202362Y0020472
X0199063Y0018893
X0199016Y0024016
X0197989Y0028342
X0194339Y0026767
X0193898Y0022441
X0189567Y0019981
X0184449
X0187252Y0024011
X018937Y0028346
X0184449
X0169142Y0032835
X0170669Y0008661
X0164813Y0009453
X0157725Y00091
X0199803Y0006791
X0203277Y0005217
X0214272Y0007427
X0218504Y0007406
X0215354Y0011417
X0226969Y0012622
X0227658Y0018528
X0227461Y002276
X0224803Y0026772
X0223299Y0032945
X0217815Y0033193
X0219291Y0029528
X0237457Y0006299
X0273481Y0006201
X0311417Y0006299
X0279409Y0077113
X0215784Y0122441
X0329035Y0115945
X0340453Y0117717
X0345036Y0094488
X0348232Y0057956
X0323149Y0059842
X0383465Y0051968
X0386965Y0087303
X0386614Y012126
X0382144Y0007144
X0341887Y0006988
X0353501Y0159547
X0386221Y0158268
X038667Y0187894
X0341198Y0189075
X0298383Y018937
X0283858Y0183858
X0276772Y0157874
X0293504Y0156299
X0246519Y0169327
X0236221Y0161417
X0230806Y0165354
X0223862Y0161417
X0222716Y0169291
X0202354Y0167811
X0192027Y0167642
X0175984Y0175197
X016482Y0189764
X0201926Y0189567
X0249564Y0189469
X0147244Y0173622
X012791Y0189764
X0089524
X0092816Y0163508
X004685Y0190945
X0007831Y0189961
T02
X0189764Y0054331
X0194095
T03
X0035276Y015315
X0040276
X0045276
X0050276
X0055276
Y015815
X0050276
X0045276
X0040276
X0035276
T04
X0041558Y0043406
X0047464
Y0059153
X0041558
X0053409Y0068996
X0023409
X0095236
X0113386Y0059153
X0119291
Y0043406
X0113386
X0125236Y0068996
X0272402
X0290551Y0059153
X0296457
Y0043406
X0290551
X0302402Y0068996
X0341828Y0069195
X0359978Y0059353
X0365883
Y0043605
X0359978
X0371828Y0069195
T05
X0170984Y0152539
X0222716Y0152539
T06
X0013409Y002628
X0063409
X0085236
Y0076279
X0063409
X0013409
X0135236
Y002628
X0262402
Y0076279
X0312402
Y002628
X0331828Y0026479
Y0076479
X0381828
Y0026479
M30
