G04*
G04 #@! TF.GenerationSoftware,Altium Limited,Altium Designer,21.2.2 (38)*
G04*
G04 Layer_Color=16711935*
%FSLAX25Y25*%
%MOIN*%
G70*
G04*
G04 #@! TF.SameCoordinates,A8DC1787-E1FC-4306-BF81-433DAE83029F*
G04*
G04*
G04 #@! TF.FilePolarity,Positive*
G04*
G01*
G75*
%ADD10C,0.00394*%
%ADD12C,0.00787*%
D10*
X171653Y71949D02*
Y101476D01*
X222047D01*
Y71949D02*
Y101476D01*
X171653Y71949D02*
X222047D01*
X171653Y76949D02*
X176654Y71949D01*
X181496Y15121D02*
Y32444D01*
X212205D01*
Y15121D02*
Y32444D01*
X181496Y15121D02*
X212205D01*
X181496Y17680D02*
X184055Y15121D01*
X327301Y21951D02*
Y81006D01*
Y21951D02*
X386356D01*
Y81006D01*
X327301D02*
X386356D01*
X168898Y14272D02*
Y20768D01*
X172638Y14272D02*
Y20768D01*
X168898Y14272D02*
X172638D01*
X168898Y20768D02*
X172638D01*
X8881Y80807D02*
X67936D01*
Y21752D02*
Y80807D01*
X8881Y21752D02*
X67936D01*
X8881D02*
Y80807D01*
X349902Y125394D02*
Y129134D01*
X356398Y125394D02*
Y129134D01*
X349902D02*
X356398D01*
X349902Y125394D02*
X356398D01*
X327264D02*
Y129134D01*
X320768Y125394D02*
Y129134D01*
Y125394D02*
X327264D01*
X320768Y129134D02*
X327264D01*
X298130Y125394D02*
Y129134D01*
X291634Y125394D02*
Y129134D01*
Y125394D02*
X298130D01*
X291634Y129134D02*
X298130D01*
X244882Y131791D02*
X251181D01*
Y120374D02*
Y131791D01*
X244882Y120374D02*
X251181D01*
X244882D02*
Y131791D01*
Y128051D02*
X248622Y131791D01*
X59744Y114567D02*
X64665D01*
X59744D02*
Y122441D01*
X64665D01*
Y114567D02*
Y122441D01*
X62106Y114567D02*
X64665Y117126D01*
X24055Y166516D02*
X74055D01*
Y146516D02*
Y166516D01*
X24055Y146516D02*
X74055D01*
X24055D02*
Y166516D01*
X230512Y100591D02*
X237008D01*
X230512Y104331D02*
X237008D01*
Y100591D02*
Y104331D01*
X230512Y100591D02*
Y104331D01*
X231386Y62010D02*
Y68506D01*
X227646Y62010D02*
Y68506D01*
X231386D01*
X227646Y62010D02*
X231386D01*
X239654D02*
Y68506D01*
X235914Y62010D02*
Y68506D01*
X239654D01*
X235914Y62010D02*
X239654D01*
X257874Y21752D02*
Y80807D01*
Y21752D02*
X316929D01*
Y80807D01*
X257874D02*
X316929D01*
X80709Y21752D02*
Y80807D01*
Y21752D02*
X139764D01*
Y80807D01*
X80709D02*
X139764D01*
X102362Y133957D02*
Y157579D01*
X125984Y133957D02*
Y157579D01*
X102362D02*
X125984D01*
X102362Y133957D02*
X125984D01*
D12*
X191929Y48032D02*
G03*
X191929Y60630I0J6299D01*
G01*
D02*
G03*
X191929Y48032I0J-6299D01*
G01*
X291535Y135728D02*
X298228D01*
X291535D02*
Y139272D01*
X298228D01*
Y135728D02*
Y139272D01*
X159843Y15650D02*
X162992D01*
Y21949D01*
X159843D02*
X162992D01*
X159843Y15650D02*
Y21949D01*
X349803Y135728D02*
Y139272D01*
Y135728D02*
X356496D01*
Y139272D01*
X349803D02*
X356496D01*
X320669Y135728D02*
Y139272D01*
Y135728D02*
X327362D01*
Y139272D01*
X320669D02*
X327362D01*
X264173Y130413D02*
Y136713D01*
X267323D01*
Y130413D02*
Y136713D01*
X264173Y130413D02*
X267323D01*
X242520Y143012D02*
Y149311D01*
X245669D01*
Y143012D02*
Y149311D01*
X242520Y143012D02*
X245669D01*
X220276Y12894D02*
Y19193D01*
X223425D01*
Y12894D02*
Y19193D01*
X220276Y12894D02*
X223425D01*
X172480Y123721D02*
X178779D01*
Y120571D02*
Y123721D01*
X172480Y120571D02*
X178779D01*
X172480D02*
Y123721D01*
X156686Y120571D02*
Y123721D01*
X150386D02*
X156686D01*
X150386Y120571D02*
Y123721D01*
Y120571D02*
X156686D01*
X167441Y193012D02*
X226260D01*
X167441Y137894D02*
Y193012D01*
Y137894D02*
X226260D01*
Y193012D01*
X44882Y121653D02*
X48031D01*
X44882Y115354D02*
Y121653D01*
Y115354D02*
X48031D01*
Y121653D01*
M02*
