G04*
G04 #@! TF.GenerationSoftware,Altium Limited,Altium Designer,21.2.2 (38)*
G04*
G04 Layer_Color=255*
%FSLAX25Y25*%
%MOIN*%
G70*
G04*
G04 #@! TF.SameCoordinates,A8DC1787-E1FC-4306-BF81-433DAE83029F*
G04*
G04*
G04 #@! TF.FilePolarity,Positive*
G04*
G01*
G75*
%ADD15R,0.02559X0.07579*%
%ADD16R,0.03150X0.03150*%
%ADD17R,0.01772X0.05807*%
%ADD18R,0.03985X0.04758*%
%ADD19R,0.03740X0.03150*%
%ADD20R,0.03150X0.03740*%
%ADD21R,0.04724X0.02362*%
%ADD22R,0.04528X0.02165*%
%ADD23R,0.04758X0.03985*%
%ADD24R,0.04921X0.11811*%
%ADD25R,0.05512X0.08268*%
%ADD38C,0.13780*%
%ADD44C,0.03583*%
%ADD45C,0.05118*%
%ADD46C,0.04724*%
%ADD47C,0.06496*%
%ADD48R,0.06496X0.06496*%
D15*
X174350Y68161D02*
D03*
X179350D02*
D03*
X184350D02*
D03*
X189350D02*
D03*
X194350D02*
D03*
X199350D02*
D03*
X204350D02*
D03*
X209350D02*
D03*
X214350D02*
D03*
X219350D02*
D03*
Y105264D02*
D03*
X214350D02*
D03*
X209350D02*
D03*
X204350D02*
D03*
X199350D02*
D03*
X194350D02*
D03*
X189350D02*
D03*
X184350D02*
D03*
X179350D02*
D03*
X174350D02*
D03*
D16*
X297835Y137500D02*
D03*
X291929D02*
D03*
X356102Y137500D02*
D03*
X350197D02*
D03*
X326969D02*
D03*
X321063D02*
D03*
D17*
X182776Y12216D02*
D03*
X185335D02*
D03*
X187894D02*
D03*
X190453D02*
D03*
X193012D02*
D03*
X195571D02*
D03*
X198130D02*
D03*
X200689D02*
D03*
X203248D02*
D03*
X205807D02*
D03*
X208366D02*
D03*
X210925D02*
D03*
Y35349D02*
D03*
X208366D02*
D03*
X205807D02*
D03*
X203248D02*
D03*
X200689D02*
D03*
X198130D02*
D03*
X195571D02*
D03*
X193012D02*
D03*
X190453D02*
D03*
X187894D02*
D03*
X185335D02*
D03*
X182776D02*
D03*
D18*
X161417Y21956D02*
D03*
Y15642D02*
D03*
X265748Y130406D02*
D03*
Y136720D02*
D03*
X244094Y143005D02*
D03*
Y149318D02*
D03*
X221850Y12886D02*
D03*
Y19200D02*
D03*
X46457Y115347D02*
D03*
Y121661D02*
D03*
D19*
X170768Y15059D02*
D03*
Y19981D02*
D03*
X229516Y67718D02*
D03*
Y62797D02*
D03*
X237784Y67718D02*
D03*
Y62797D02*
D03*
D20*
X350689Y127264D02*
D03*
X355610D02*
D03*
X326476D02*
D03*
X321555D02*
D03*
X297342D02*
D03*
X292421D02*
D03*
X236221Y102461D02*
D03*
X231299D02*
D03*
D21*
X243110Y129823D02*
D03*
Y126083D02*
D03*
Y122343D02*
D03*
X252953D02*
D03*
Y129823D02*
D03*
D22*
X66142Y115945D02*
D03*
Y121063D02*
D03*
X58268Y118504D02*
D03*
D23*
X172473Y122146D02*
D03*
X178787D02*
D03*
X150379D02*
D03*
X156693D02*
D03*
D24*
X192913Y138051D02*
D03*
X200787D02*
D03*
X183071D02*
D03*
X210630D02*
D03*
D25*
X123031Y127854D02*
D03*
Y163681D02*
D03*
X105315Y127854D02*
D03*
Y163681D02*
D03*
D38*
X170984Y152539D02*
D03*
X222716Y152539D02*
D03*
D44*
X189764Y54331D02*
D03*
X194095D02*
D03*
D45*
X371828Y69195D02*
D03*
X341828D02*
D03*
X381828Y26479D02*
D03*
X331828D02*
D03*
X381828Y76479D02*
D03*
X331828D02*
D03*
X13409Y76279D02*
D03*
X63409D02*
D03*
X13409Y26280D02*
D03*
X63409D02*
D03*
X23409Y68996D02*
D03*
X53409D02*
D03*
X302402D02*
D03*
X272402D02*
D03*
X312402Y26280D02*
D03*
X262402D02*
D03*
X312402Y76279D02*
D03*
X262402D02*
D03*
X125236Y68996D02*
D03*
X95236D02*
D03*
X135236Y26280D02*
D03*
X85236D02*
D03*
X135236Y76279D02*
D03*
X85236D02*
D03*
D46*
X359978Y59353D02*
D03*
Y43605D02*
D03*
X365883D02*
D03*
Y59353D02*
D03*
X47464Y59153D02*
D03*
X41558Y43406D02*
D03*
X47464D02*
D03*
X41558Y59153D02*
D03*
X290551D02*
D03*
Y43406D02*
D03*
X296457D02*
D03*
Y59153D02*
D03*
X113386D02*
D03*
Y43406D02*
D03*
X119291D02*
D03*
Y59153D02*
D03*
D47*
X69055Y161516D02*
D03*
X59055D02*
D03*
X69055Y151516D02*
D03*
X59055D02*
D03*
X49055Y161516D02*
D03*
Y151516D02*
D03*
X29055Y161516D02*
D03*
X39055Y151516D02*
D03*
Y161516D02*
D03*
D48*
X29055Y151516D02*
D03*
M02*
