G04*
G04 #@! TF.GenerationSoftware,Altium Limited,Altium Designer,21.2.2 (38)*
G04*
G04 Layer_Color=16711935*
%FSLAX25Y25*%
%MOIN*%
G70*
G04*
G04 #@! TF.SameCoordinates,A8DC1787-E1FC-4306-BF81-433DAE83029F*
G04*
G04*
G04 #@! TF.FilePolarity,Positive*
G04*
G01*
G75*
%ADD12C,0.00787*%
G36*
X294882Y135721D02*
X293943D01*
X293916Y135724D01*
X293883D01*
X293850Y135727D01*
X293776Y135730D01*
X293703Y135738D01*
X293629Y135746D01*
X293596Y135754D01*
X293566Y135759D01*
X293563D01*
X293555Y135762D01*
X293544Y135765D01*
X293531Y135770D01*
X293511Y135776D01*
X293490Y135781D01*
X293438Y135801D01*
X293380Y135825D01*
X293320Y135855D01*
X293257Y135893D01*
X293197Y135940D01*
X293195Y135942D01*
X293189Y135948D01*
X293178Y135956D01*
X293165Y135970D01*
X293148Y135986D01*
X293129Y136008D01*
X293107Y136030D01*
X293086Y136057D01*
X293061Y136087D01*
X293036Y136120D01*
X293012Y136155D01*
X292987Y136194D01*
X292941Y136278D01*
X292900Y136371D01*
Y136374D01*
X292894Y136382D01*
X292892Y136398D01*
X292883Y136417D01*
X292875Y136442D01*
X292867Y136472D01*
X292859Y136505D01*
X292848Y136543D01*
X292840Y136587D01*
X292832Y136633D01*
X292824Y136682D01*
X292815Y136734D01*
X292807Y136789D01*
X292804Y136846D01*
X292799Y136969D01*
Y136972D01*
Y136983D01*
Y136996D01*
Y137018D01*
X292802Y137043D01*
Y137073D01*
X292804Y137105D01*
X292807Y137141D01*
X292815Y137220D01*
X292829Y137305D01*
X292845Y137392D01*
X292867Y137479D01*
Y137482D01*
X292870Y137490D01*
X292875Y137501D01*
X292878Y137515D01*
X292886Y137534D01*
X292894Y137556D01*
X292914Y137608D01*
X292938Y137665D01*
X292968Y137728D01*
X293001Y137788D01*
X293039Y137845D01*
Y137848D01*
X293045Y137851D01*
X293050Y137859D01*
X293058Y137870D01*
X293077Y137894D01*
X293107Y137927D01*
X293140Y137965D01*
X293178Y138004D01*
X293222Y138039D01*
X293268Y138075D01*
X293271D01*
X293274Y138077D01*
X293290Y138088D01*
X293318Y138102D01*
X293353Y138121D01*
X293397Y138140D01*
X293449Y138162D01*
X293509Y138181D01*
X293571Y138200D01*
X293574D01*
X293580Y138203D01*
X293588D01*
X293601Y138206D01*
X293618Y138208D01*
X293640Y138214D01*
X293662Y138216D01*
X293686Y138219D01*
X293746Y138227D01*
X293814Y138236D01*
X293891Y138238D01*
X293973Y138241D01*
X294882D01*
Y135721D01*
D02*
G37*
G36*
X291609Y136273D02*
X291614Y136278D01*
X291628Y136292D01*
X291652Y136311D01*
X291688Y136338D01*
X291729Y136371D01*
X291781Y136407D01*
X291838Y136445D01*
X291903Y136486D01*
X291906D01*
X291912Y136491D01*
X291920Y136497D01*
X291933Y136502D01*
X291950Y136513D01*
X291969Y136521D01*
X292013Y136546D01*
X292062Y136570D01*
X292116Y136598D01*
X292174Y136622D01*
X292228Y136644D01*
Y136346D01*
X292226Y136344D01*
X292217Y136341D01*
X292204Y136333D01*
X292185Y136325D01*
X292163Y136314D01*
X292136Y136297D01*
X292106Y136281D01*
X292075Y136265D01*
X292004Y136221D01*
X291928Y136169D01*
X291849Y136114D01*
X291775Y136052D01*
X291772Y136049D01*
X291767Y136044D01*
X291756Y136035D01*
X291742Y136022D01*
X291729Y136005D01*
X291710Y135989D01*
X291669Y135942D01*
X291622Y135893D01*
X291576Y135836D01*
X291535Y135776D01*
X291499Y135713D01*
X291300D01*
Y138241D01*
X291609D01*
Y136273D01*
D02*
G37*
G36*
X159135Y22960D02*
X159143Y22952D01*
X159160Y22938D01*
X159179Y22921D01*
X159206Y22900D01*
X159236Y22872D01*
X159272Y22845D01*
X159312Y22812D01*
X159359Y22777D01*
X159411Y22738D01*
X159468Y22698D01*
X159528Y22657D01*
X159591Y22616D01*
X159662Y22572D01*
X159736Y22526D01*
X159812Y22482D01*
X159818Y22479D01*
X159831Y22471D01*
X159853Y22460D01*
X159886Y22444D01*
X159924Y22425D01*
X159970Y22400D01*
X160022Y22376D01*
X160080Y22348D01*
X160143Y22321D01*
X160211Y22291D01*
X160284Y22261D01*
X160358Y22231D01*
X160437Y22201D01*
X160519Y22171D01*
X160686Y22119D01*
X160688D01*
X160699Y22116D01*
X160719Y22111D01*
X160740Y22105D01*
X160770Y22097D01*
X160806Y22089D01*
X160847Y22078D01*
X160890Y22070D01*
X160940Y22059D01*
X160994Y22051D01*
X161051Y22040D01*
X161112Y22031D01*
X161174Y22021D01*
X161240Y22012D01*
X161376Y22001D01*
Y21685D01*
X161374D01*
X161363D01*
X161346D01*
X161325Y21688D01*
X161294Y21690D01*
X161262Y21693D01*
X161221Y21696D01*
X161177Y21701D01*
X161125Y21707D01*
X161073Y21715D01*
X161013Y21723D01*
X160951Y21734D01*
X160882Y21748D01*
X160811Y21761D01*
X160738Y21780D01*
X160661Y21799D01*
X160656Y21802D01*
X160642Y21805D01*
X160620Y21810D01*
X160590Y21821D01*
X160552Y21832D01*
X160505Y21846D01*
X160456Y21862D01*
X160402Y21881D01*
X160342Y21903D01*
X160276Y21928D01*
X160208Y21952D01*
X160140Y21982D01*
X159995Y22045D01*
X159848Y22119D01*
X159842Y22122D01*
X159831Y22130D01*
X159809Y22141D01*
X159782Y22154D01*
X159749Y22176D01*
X159711Y22198D01*
X159667Y22225D01*
X159618Y22253D01*
X159569Y22285D01*
X159515Y22321D01*
X159405Y22397D01*
X159293Y22479D01*
X159239Y22523D01*
X159187Y22567D01*
Y21333D01*
X158889D01*
Y22962D01*
X159132D01*
X159135Y22960D01*
D02*
G37*
G36*
X160596Y21021D02*
X160615Y21016D01*
X160645Y21005D01*
X160678Y20994D01*
X160719Y20978D01*
X160762Y20961D01*
X160809Y20940D01*
X160860Y20915D01*
X160910Y20888D01*
X160964Y20858D01*
X161016Y20822D01*
X161065Y20784D01*
X161114Y20743D01*
X161161Y20696D01*
X161204Y20647D01*
X161207Y20645D01*
X161213Y20634D01*
X161223Y20620D01*
X161237Y20598D01*
X161254Y20574D01*
X161273Y20541D01*
X161292Y20505D01*
X161311Y20462D01*
X161330Y20415D01*
X161349Y20366D01*
X161368Y20312D01*
X161385Y20252D01*
X161398Y20189D01*
X161409Y20123D01*
X161415Y20055D01*
X161417Y19981D01*
Y19943D01*
X161415Y19913D01*
X161412Y19880D01*
X161409Y19839D01*
X161404Y19796D01*
X161396Y19747D01*
X161387Y19695D01*
X161376Y19640D01*
X161363Y19585D01*
X161349Y19531D01*
X161330Y19474D01*
X161308Y19419D01*
X161284Y19367D01*
X161254Y19318D01*
X161251Y19315D01*
X161245Y19307D01*
X161237Y19293D01*
X161223Y19277D01*
X161204Y19255D01*
X161185Y19230D01*
X161161Y19203D01*
X161131Y19173D01*
X161098Y19143D01*
X161063Y19110D01*
X161024Y19080D01*
X160981Y19048D01*
X160934Y19015D01*
X160885Y18985D01*
X160830Y18958D01*
X160773Y18930D01*
X160770Y18927D01*
X160759Y18925D01*
X160740Y18919D01*
X160719Y18911D01*
X160688Y18900D01*
X160656Y18889D01*
X160615Y18878D01*
X160571Y18865D01*
X160522Y18854D01*
X160470Y18840D01*
X160415Y18829D01*
X160355Y18821D01*
X160230Y18805D01*
X160164Y18802D01*
X160099Y18799D01*
X160093D01*
X160082D01*
X160061D01*
X160033Y18802D01*
X159998Y18805D01*
X159957Y18807D01*
X159913Y18813D01*
X159864Y18818D01*
X159812Y18826D01*
X159757Y18835D01*
X159640Y18862D01*
X159583Y18881D01*
X159526Y18900D01*
X159465Y18922D01*
X159411Y18949D01*
X159408Y18952D01*
X159397Y18958D01*
X159383Y18966D01*
X159362Y18977D01*
X159337Y18993D01*
X159310Y19012D01*
X159280Y19034D01*
X159244Y19059D01*
X159212Y19089D01*
X159173Y19119D01*
X159138Y19154D01*
X159100Y19192D01*
X159064Y19233D01*
X159029Y19277D01*
X158996Y19326D01*
X158966Y19375D01*
X158963Y19378D01*
X158960Y19389D01*
X158952Y19402D01*
X158941Y19424D01*
X158930Y19449D01*
X158917Y19482D01*
X158903Y19517D01*
X158889Y19555D01*
X158876Y19599D01*
X158862Y19648D01*
X158848Y19697D01*
X158837Y19752D01*
X158818Y19864D01*
X158816Y19924D01*
X158813Y19987D01*
Y20022D01*
X158816Y20050D01*
X158818Y20082D01*
X158824Y20121D01*
X158829Y20161D01*
X158837Y20208D01*
X158848Y20257D01*
X158859Y20309D01*
X158876Y20361D01*
X158895Y20415D01*
X158917Y20470D01*
X158944Y20522D01*
X158971Y20574D01*
X159007Y20623D01*
X159010Y20626D01*
X159015Y20634D01*
X159026Y20647D01*
X159042Y20664D01*
X159061Y20686D01*
X159086Y20710D01*
X159113Y20735D01*
X159146Y20765D01*
X159181Y20795D01*
X159222Y20825D01*
X159266Y20855D01*
X159315Y20882D01*
X159367Y20912D01*
X159424Y20937D01*
X159485Y20961D01*
X159547Y20983D01*
X159624Y20655D01*
X159621D01*
X159613Y20650D01*
X159597Y20647D01*
X159577Y20639D01*
X159555Y20631D01*
X159531Y20617D01*
X159471Y20590D01*
X159405Y20554D01*
X159337Y20508D01*
X159274Y20459D01*
X159247Y20429D01*
X159222Y20399D01*
X159220Y20396D01*
X159217Y20391D01*
X159212Y20383D01*
X159203Y20369D01*
X159192Y20353D01*
X159181Y20333D01*
X159171Y20312D01*
X159160Y20284D01*
X159149Y20254D01*
X159138Y20224D01*
X159116Y20153D01*
X159102Y20071D01*
X159097Y20028D01*
Y19954D01*
X159100Y19932D01*
X159102Y19907D01*
X159105Y19877D01*
X159108Y19845D01*
X159113Y19812D01*
X159132Y19733D01*
X159157Y19651D01*
X159173Y19610D01*
X159192Y19569D01*
X159214Y19531D01*
X159239Y19493D01*
X159242Y19490D01*
X159244Y19484D01*
X159253Y19474D01*
X159263Y19460D01*
X159277Y19446D01*
X159296Y19427D01*
X159315Y19408D01*
X159337Y19386D01*
X159364Y19364D01*
X159392Y19340D01*
X159455Y19296D01*
X159528Y19255D01*
X159613Y19220D01*
X159616D01*
X159624Y19217D01*
X159637Y19211D01*
X159654Y19209D01*
X159676Y19203D01*
X159700Y19195D01*
X159730Y19189D01*
X159760Y19181D01*
X159796Y19173D01*
X159834Y19168D01*
X159916Y19154D01*
X160003Y19146D01*
X160096Y19143D01*
X160099D01*
X160110D01*
X160126D01*
X160151Y19146D01*
X160178D01*
X160211Y19149D01*
X160246Y19151D01*
X160287Y19154D01*
X160331Y19160D01*
X160374Y19165D01*
X160470Y19181D01*
X160566Y19206D01*
X160658Y19236D01*
X160661D01*
X160669Y19241D01*
X160680Y19247D01*
X160697Y19252D01*
X160719Y19263D01*
X160740Y19277D01*
X160792Y19307D01*
X160852Y19348D01*
X160910Y19397D01*
X160967Y19457D01*
X160992Y19490D01*
X161016Y19525D01*
Y19528D01*
X161021Y19534D01*
X161027Y19544D01*
X161035Y19561D01*
X161043Y19580D01*
X161054Y19602D01*
X161063Y19626D01*
X161073Y19654D01*
X161095Y19716D01*
X161114Y19790D01*
X161128Y19869D01*
X161131Y19910D01*
X161133Y19954D01*
Y19981D01*
X161131Y20000D01*
X161128Y20025D01*
X161125Y20052D01*
X161120Y20085D01*
X161114Y20118D01*
X161095Y20194D01*
X161082Y20232D01*
X161065Y20273D01*
X161046Y20314D01*
X161024Y20353D01*
X161000Y20391D01*
X160972Y20429D01*
X160970Y20432D01*
X160964Y20437D01*
X160956Y20448D01*
X160942Y20462D01*
X160926Y20475D01*
X160904Y20494D01*
X160880Y20514D01*
X160852Y20535D01*
X160819Y20557D01*
X160784Y20579D01*
X160746Y20601D01*
X160702Y20623D01*
X160656Y20642D01*
X160604Y20661D01*
X160549Y20680D01*
X160492Y20694D01*
X160576Y21027D01*
X160582D01*
X160596Y21021D01*
D02*
G37*
G36*
X356409Y139328D02*
X356428Y139325D01*
X356480Y139320D01*
X356538Y139309D01*
X356603Y139292D01*
X356669Y139270D01*
X356734Y139241D01*
X356737D01*
X356742Y139238D01*
X356750Y139232D01*
X356764Y139224D01*
X356794Y139205D01*
X356832Y139178D01*
X356876Y139142D01*
X356920Y139101D01*
X356963Y139055D01*
X357002Y139000D01*
Y138997D01*
X357004Y138995D01*
X357010Y138984D01*
X357015Y138973D01*
X357024Y138959D01*
X357032Y138943D01*
X357048Y138902D01*
X357064Y138853D01*
X357081Y138798D01*
X357092Y138738D01*
X357095Y138675D01*
Y138673D01*
Y138667D01*
Y138659D01*
Y138648D01*
X357089Y138615D01*
X357084Y138577D01*
X357073Y138531D01*
X357056Y138481D01*
X357034Y138430D01*
X357004Y138378D01*
Y138375D01*
X357002Y138372D01*
X356988Y138356D01*
X356969Y138331D01*
X356939Y138301D01*
X356903Y138266D01*
X356857Y138230D01*
X356805Y138198D01*
X356745Y138165D01*
X356748D01*
X356756Y138162D01*
X356767Y138159D01*
X356783Y138154D01*
X356800Y138148D01*
X356821Y138140D01*
X356873Y138118D01*
X356928Y138088D01*
X356985Y138053D01*
X357043Y138006D01*
X357092Y137949D01*
X357095Y137946D01*
X357097Y137941D01*
X357103Y137933D01*
X357111Y137919D01*
X357122Y137906D01*
X357133Y137886D01*
X357144Y137864D01*
X357154Y137837D01*
X357165Y137810D01*
X357176Y137780D01*
X357198Y137712D01*
X357212Y137633D01*
X357217Y137589D01*
Y137545D01*
Y137542D01*
Y137531D01*
X357215Y137512D01*
Y137490D01*
X357209Y137460D01*
X357204Y137428D01*
X357198Y137392D01*
X357187Y137351D01*
X357174Y137308D01*
X357157Y137264D01*
X357138Y137217D01*
X357114Y137171D01*
X357086Y137122D01*
X357053Y137076D01*
X357018Y137029D01*
X356974Y136986D01*
X356972Y136983D01*
X356963Y136975D01*
X356950Y136964D01*
X356931Y136950D01*
X356909Y136934D01*
X356879Y136915D01*
X356846Y136893D01*
X356808Y136873D01*
X356767Y136852D01*
X356720Y136830D01*
X356671Y136811D01*
X356617Y136794D01*
X356559Y136781D01*
X356499Y136770D01*
X356436Y136762D01*
X356368Y136759D01*
X356355D01*
X356335Y136762D01*
X356314D01*
X356284Y136764D01*
X356251Y136770D01*
X356215Y136775D01*
X356174Y136783D01*
X356131Y136794D01*
X356087Y136808D01*
X356041Y136822D01*
X355994Y136841D01*
X355948Y136865D01*
X355904Y136890D01*
X355858Y136920D01*
X355817Y136955D01*
X355814Y136958D01*
X355809Y136964D01*
X355798Y136975D01*
X355781Y136991D01*
X355765Y137010D01*
X355746Y137035D01*
X355727Y137062D01*
X355705Y137095D01*
X355683Y137127D01*
X355661Y137168D01*
X355639Y137209D01*
X355620Y137256D01*
X355604Y137305D01*
X355588Y137357D01*
X355577Y137411D01*
X355568Y137469D01*
X355877Y137510D01*
Y137507D01*
X355880Y137499D01*
X355882Y137485D01*
X355888Y137466D01*
X355893Y137444D01*
X355899Y137419D01*
X355918Y137362D01*
X355942Y137299D01*
X355972Y137237D01*
X356011Y137179D01*
X356032Y137155D01*
X356054Y137130D01*
X356057D01*
X356060Y137125D01*
X356068Y137119D01*
X356076Y137111D01*
X356103Y137095D01*
X356142Y137073D01*
X356188Y137051D01*
X356240Y137035D01*
X356303Y137021D01*
X356368Y137015D01*
X356390D01*
X356406Y137018D01*
X356423Y137021D01*
X356447Y137024D01*
X356497Y137035D01*
X356557Y137051D01*
X356619Y137078D01*
X356649Y137097D01*
X356680Y137117D01*
X356710Y137138D01*
X356740Y137166D01*
X356742Y137168D01*
X356745Y137174D01*
X356753Y137182D01*
X356764Y137193D01*
X356775Y137207D01*
X356786Y137226D01*
X356800Y137245D01*
X356816Y137269D01*
X356843Y137324D01*
X356865Y137387D01*
X356884Y137460D01*
X356887Y137499D01*
X356890Y137540D01*
Y137542D01*
Y137548D01*
Y137562D01*
X356887Y137575D01*
X356884Y137594D01*
X356881Y137613D01*
X356873Y137662D01*
X356854Y137720D01*
X356830Y137777D01*
X356813Y137807D01*
X356794Y137835D01*
X356772Y137862D01*
X356748Y137889D01*
X356745Y137892D01*
X356742Y137895D01*
X356734Y137903D01*
X356723Y137911D01*
X356710Y137922D01*
X356693Y137933D01*
X356652Y137960D01*
X356600Y137985D01*
X356540Y138006D01*
X356472Y138023D01*
X356434Y138026D01*
X356396Y138028D01*
X356379D01*
X356360Y138026D01*
X356335D01*
X356303Y138020D01*
X356267Y138015D01*
X356224Y138006D01*
X356177Y137996D01*
X356210Y138266D01*
X356215D01*
X356229Y138263D01*
X356245Y138260D01*
X356281D01*
X356295Y138263D01*
X356314D01*
X356333Y138266D01*
X356379Y138274D01*
X356434Y138285D01*
X356494Y138304D01*
X356557Y138329D01*
X356617Y138364D01*
X356619D01*
X356625Y138370D01*
X356630Y138375D01*
X356641Y138383D01*
X356669Y138408D01*
X356699Y138443D01*
X356726Y138487D01*
X356753Y138542D01*
X356764Y138572D01*
X356770Y138607D01*
X356775Y138643D01*
X356778Y138681D01*
Y138683D01*
Y138689D01*
Y138697D01*
X356775Y138711D01*
X356772Y138741D01*
X356764Y138782D01*
X356750Y138826D01*
X356729Y138872D01*
X356699Y138921D01*
X356682Y138943D01*
X356660Y138965D01*
X356655Y138970D01*
X356639Y138981D01*
X356614Y139000D01*
X356581Y139022D01*
X356538Y139041D01*
X356486Y139060D01*
X356428Y139071D01*
X356363Y139077D01*
X356346D01*
X356333Y139074D01*
X356316D01*
X356300Y139071D01*
X356256Y139063D01*
X356210Y139049D01*
X356158Y139028D01*
X356109Y139000D01*
X356060Y138962D01*
X356054Y138956D01*
X356041Y138940D01*
X356019Y138916D01*
X355997Y138877D01*
X355970Y138831D01*
X355945Y138771D01*
X355923Y138703D01*
X355907Y138623D01*
X355598Y138678D01*
Y138681D01*
X355601Y138692D01*
X355604Y138708D01*
X355609Y138730D01*
X355617Y138754D01*
X355626Y138785D01*
X355637Y138817D01*
X355650Y138853D01*
X355686Y138932D01*
X355705Y138970D01*
X355730Y139011D01*
X355757Y139049D01*
X355787Y139088D01*
X355820Y139126D01*
X355855Y139158D01*
X355858Y139161D01*
X355863Y139167D01*
X355877Y139175D01*
X355890Y139186D01*
X355912Y139199D01*
X355934Y139213D01*
X355961Y139230D01*
X355994Y139246D01*
X356027Y139260D01*
X356065Y139276D01*
X356106Y139290D01*
X356150Y139303D01*
X356199Y139314D01*
X356248Y139322D01*
X356300Y139328D01*
X356355Y139330D01*
X356390D01*
X356409Y139328D01*
D02*
G37*
G36*
X354116Y139320D02*
X354149D01*
X354182Y139317D01*
X354255Y139314D01*
X354329Y139306D01*
X354403Y139298D01*
X354435Y139290D01*
X354466Y139284D01*
X354468D01*
X354476Y139281D01*
X354487Y139279D01*
X354501Y139273D01*
X354520Y139268D01*
X354542Y139262D01*
X354594Y139243D01*
X354651Y139219D01*
X354711Y139189D01*
X354774Y139150D01*
X354834Y139104D01*
X354837Y139101D01*
X354842Y139096D01*
X354853Y139088D01*
X354867Y139074D01*
X354883Y139058D01*
X354902Y139036D01*
X354924Y139014D01*
X354946Y138987D01*
X354971Y138956D01*
X354995Y138924D01*
X355020Y138888D01*
X355044Y138850D01*
X355091Y138765D01*
X355132Y138673D01*
Y138670D01*
X355137Y138662D01*
X355140Y138645D01*
X355148Y138626D01*
X355156Y138602D01*
X355164Y138572D01*
X355172Y138539D01*
X355184Y138501D01*
X355192Y138457D01*
X355200Y138410D01*
X355208Y138361D01*
X355216Y138310D01*
X355224Y138255D01*
X355227Y138198D01*
X355233Y138075D01*
Y138072D01*
Y138061D01*
Y138047D01*
Y138026D01*
X355230Y138001D01*
Y137971D01*
X355227Y137938D01*
X355224Y137903D01*
X355216Y137824D01*
X355203Y137739D01*
X355186Y137652D01*
X355164Y137564D01*
Y137562D01*
X355162Y137553D01*
X355156Y137542D01*
X355153Y137529D01*
X355145Y137510D01*
X355137Y137488D01*
X355118Y137436D01*
X355093Y137379D01*
X355063Y137316D01*
X355031Y137256D01*
X354992Y137198D01*
Y137196D01*
X354987Y137193D01*
X354981Y137185D01*
X354973Y137174D01*
X354954Y137149D01*
X354924Y137117D01*
X354891Y137078D01*
X354853Y137040D01*
X354809Y137005D01*
X354763Y136969D01*
X354760D01*
X354758Y136966D01*
X354741Y136955D01*
X354714Y136942D01*
X354678Y136923D01*
X354635Y136904D01*
X354583Y136882D01*
X354523Y136863D01*
X354460Y136844D01*
X354457D01*
X354452Y136841D01*
X354444D01*
X354430Y136838D01*
X354414Y136835D01*
X354392Y136830D01*
X354370Y136827D01*
X354345Y136824D01*
X354285Y136816D01*
X354217Y136808D01*
X354141Y136805D01*
X354059Y136803D01*
X353150D01*
Y139322D01*
X354089D01*
X354116Y139320D01*
D02*
G37*
G36*
X327327Y139284D02*
X327357Y139281D01*
X327393Y139276D01*
X327434Y139270D01*
X327475Y139262D01*
X327521Y139251D01*
X327568Y139238D01*
X327617Y139221D01*
X327663Y139202D01*
X327712Y139178D01*
X327759Y139150D01*
X327802Y139120D01*
X327843Y139085D01*
X327846Y139082D01*
X327851Y139077D01*
X327862Y139063D01*
X327876Y139049D01*
X327892Y139030D01*
X327911Y139006D01*
X327931Y138978D01*
X327950Y138946D01*
X327969Y138913D01*
X327988Y138875D01*
X328007Y138834D01*
X328023Y138790D01*
X328037Y138741D01*
X328048Y138692D01*
X328053Y138640D01*
X328056Y138585D01*
Y138583D01*
Y138580D01*
Y138572D01*
Y138561D01*
X328053Y138531D01*
X328048Y138492D01*
X328040Y138446D01*
X328029Y138397D01*
X328015Y138342D01*
X327993Y138288D01*
Y138285D01*
X327991Y138282D01*
X327988Y138274D01*
X327982Y138263D01*
X327966Y138233D01*
X327944Y138195D01*
X327914Y138148D01*
X327879Y138097D01*
X327838Y138042D01*
X327786Y137982D01*
X327783Y137979D01*
X327780Y137974D01*
X327769Y137966D01*
X327759Y137952D01*
X327742Y137935D01*
X327723Y137916D01*
X327701Y137892D01*
X327674Y137867D01*
X327641Y137837D01*
X327606Y137804D01*
X327568Y137766D01*
X327524Y137728D01*
X327477Y137684D01*
X327426Y137641D01*
X327368Y137592D01*
X327308Y137540D01*
X327305Y137537D01*
X327297Y137529D01*
X327281Y137518D01*
X327264Y137501D01*
X327240Y137482D01*
X327215Y137460D01*
X327158Y137411D01*
X327098Y137359D01*
X327041Y137305D01*
X327013Y137280D01*
X326989Y137259D01*
X326967Y137237D01*
X326951Y137220D01*
X326948Y137217D01*
X326937Y137207D01*
X326923Y137190D01*
X326904Y137168D01*
X326882Y137144D01*
X326860Y137117D01*
X326817Y137056D01*
X328059D01*
Y136759D01*
X326391D01*
Y136764D01*
Y136778D01*
Y136800D01*
X326394Y136827D01*
X326396Y136860D01*
X326405Y136895D01*
X326413Y136934D01*
X326426Y136972D01*
Y136975D01*
X326429Y136980D01*
X326432Y136988D01*
X326437Y137002D01*
X326445Y137015D01*
X326454Y137035D01*
X326476Y137078D01*
X326503Y137130D01*
X326538Y137188D01*
X326579Y137248D01*
X326628Y137308D01*
X326631Y137310D01*
X326634Y137316D01*
X326642Y137324D01*
X326656Y137338D01*
X326669Y137351D01*
X326688Y137370D01*
X326708Y137392D01*
X326732Y137417D01*
X326759Y137444D01*
X326789Y137471D01*
X326822Y137504D01*
X326860Y137537D01*
X326899Y137572D01*
X326942Y137608D01*
X326986Y137646D01*
X327035Y137687D01*
X327041Y137690D01*
X327054Y137704D01*
X327073Y137720D01*
X327101Y137744D01*
X327133Y137772D01*
X327172Y137804D01*
X327215Y137840D01*
X327259Y137881D01*
X327352Y137966D01*
X327442Y138056D01*
X327486Y138099D01*
X327526Y138143D01*
X327562Y138184D01*
X327592Y138222D01*
X327595Y138225D01*
X327597Y138230D01*
X327606Y138241D01*
X327614Y138255D01*
X327627Y138274D01*
X327639Y138293D01*
X327666Y138342D01*
X327693Y138400D01*
X327718Y138462D01*
X327734Y138528D01*
X327737Y138561D01*
X327740Y138593D01*
Y138596D01*
Y138602D01*
Y138613D01*
X327737Y138623D01*
Y138640D01*
X327731Y138659D01*
X327723Y138700D01*
X327707Y138749D01*
X327682Y138801D01*
X327668Y138828D01*
X327649Y138853D01*
X327630Y138877D01*
X327606Y138902D01*
X327603Y138905D01*
X327600Y138907D01*
X327592Y138913D01*
X327581Y138921D01*
X327568Y138932D01*
X327551Y138943D01*
X327513Y138968D01*
X327461Y138989D01*
X327404Y139011D01*
X327335Y139025D01*
X327297Y139030D01*
X327237D01*
X327221Y139028D01*
X327202D01*
X327180Y139022D01*
X327131Y139014D01*
X327073Y138997D01*
X327013Y138973D01*
X326983Y138956D01*
X326953Y138940D01*
X326926Y138918D01*
X326899Y138894D01*
X326896Y138891D01*
X326893Y138888D01*
X326888Y138880D01*
X326877Y138869D01*
X326869Y138856D01*
X326858Y138839D01*
X326844Y138820D01*
X326833Y138798D01*
X326819Y138774D01*
X326809Y138746D01*
X326787Y138681D01*
X326770Y138610D01*
X326768Y138569D01*
X326765Y138525D01*
X326448Y138558D01*
Y138563D01*
X326451Y138574D01*
X326454Y138591D01*
X326456Y138615D01*
X326462Y138645D01*
X326470Y138681D01*
X326478Y138719D01*
X326492Y138760D01*
X326505Y138801D01*
X326522Y138847D01*
X326544Y138891D01*
X326566Y138935D01*
X326593Y138981D01*
X326623Y139022D01*
X326656Y139063D01*
X326694Y139099D01*
X326697Y139101D01*
X326705Y139107D01*
X326716Y139115D01*
X326732Y139128D01*
X326754Y139142D01*
X326781Y139158D01*
X326811Y139175D01*
X326847Y139194D01*
X326885Y139210D01*
X326929Y139227D01*
X326975Y139243D01*
X327027Y139257D01*
X327081Y139270D01*
X327139Y139279D01*
X327202Y139284D01*
X327267Y139287D01*
X327303D01*
X327327Y139284D01*
D02*
G37*
G36*
X324982Y139276D02*
X325015D01*
X325048Y139273D01*
X325121Y139270D01*
X325195Y139262D01*
X325269Y139254D01*
X325302Y139246D01*
X325332Y139241D01*
X325334D01*
X325342Y139238D01*
X325354Y139235D01*
X325367Y139230D01*
X325386Y139224D01*
X325408Y139219D01*
X325460Y139199D01*
X325517Y139175D01*
X325577Y139145D01*
X325640Y139107D01*
X325700Y139060D01*
X325703Y139058D01*
X325708Y139052D01*
X325719Y139044D01*
X325733Y139030D01*
X325749Y139014D01*
X325768Y138992D01*
X325790Y138970D01*
X325812Y138943D01*
X325837Y138913D01*
X325861Y138880D01*
X325886Y138845D01*
X325910Y138806D01*
X325957Y138722D01*
X325998Y138629D01*
Y138626D01*
X326003Y138618D01*
X326006Y138602D01*
X326014Y138583D01*
X326022Y138558D01*
X326030Y138528D01*
X326039Y138495D01*
X326050Y138457D01*
X326058Y138413D01*
X326066Y138367D01*
X326074Y138318D01*
X326082Y138266D01*
X326091Y138211D01*
X326093Y138154D01*
X326099Y138031D01*
Y138028D01*
Y138017D01*
Y138004D01*
Y137982D01*
X326096Y137957D01*
Y137927D01*
X326093Y137895D01*
X326091Y137859D01*
X326082Y137780D01*
X326069Y137695D01*
X326052Y137608D01*
X326030Y137521D01*
Y137518D01*
X326028Y137510D01*
X326022Y137499D01*
X326020Y137485D01*
X326011Y137466D01*
X326003Y137444D01*
X325984Y137392D01*
X325959Y137335D01*
X325929Y137272D01*
X325897Y137212D01*
X325858Y137155D01*
Y137152D01*
X325853Y137149D01*
X325848Y137141D01*
X325839Y137130D01*
X325820Y137106D01*
X325790Y137073D01*
X325758Y137035D01*
X325719Y136996D01*
X325676Y136961D01*
X325629Y136925D01*
X325626D01*
X325624Y136923D01*
X325607Y136912D01*
X325580Y136898D01*
X325545Y136879D01*
X325501Y136860D01*
X325449Y136838D01*
X325389Y136819D01*
X325326Y136800D01*
X325323D01*
X325318Y136797D01*
X325310D01*
X325296Y136794D01*
X325280Y136792D01*
X325258Y136786D01*
X325236Y136783D01*
X325212Y136781D01*
X325151Y136773D01*
X325083Y136764D01*
X325007Y136762D01*
X324925Y136759D01*
X324016D01*
Y139279D01*
X324955D01*
X324982Y139276D01*
D02*
G37*
G36*
X264995Y137724D02*
X265016D01*
X265047Y137718D01*
X265079Y137713D01*
X265115Y137707D01*
X265156Y137696D01*
X265199Y137682D01*
X265243Y137666D01*
X265289Y137647D01*
X265336Y137622D01*
X265385Y137595D01*
X265431Y137562D01*
X265478Y137527D01*
X265522Y137483D01*
X265524Y137480D01*
X265532Y137472D01*
X265543Y137459D01*
X265557Y137440D01*
X265573Y137418D01*
X265593Y137388D01*
X265614Y137355D01*
X265633Y137317D01*
X265655Y137276D01*
X265677Y137229D01*
X265696Y137180D01*
X265713Y137126D01*
X265726Y137068D01*
X265737Y137008D01*
X265745Y136945D01*
X265748Y136877D01*
Y136864D01*
X265745Y136844D01*
Y136823D01*
X265743Y136793D01*
X265737Y136760D01*
X265732Y136724D01*
X265723Y136683D01*
X265713Y136640D01*
X265699Y136596D01*
X265685Y136550D01*
X265666Y136503D01*
X265642Y136457D01*
X265617Y136413D01*
X265587Y136367D01*
X265551Y136326D01*
X265549Y136323D01*
X265543Y136318D01*
X265532Y136307D01*
X265516Y136290D01*
X265497Y136274D01*
X265472Y136255D01*
X265445Y136236D01*
X265412Y136214D01*
X265380Y136192D01*
X265339Y136170D01*
X265298Y136148D01*
X265251Y136129D01*
X265202Y136113D01*
X265150Y136096D01*
X265096Y136085D01*
X265038Y136077D01*
X264997Y136386D01*
X265000D01*
X265008Y136389D01*
X265022Y136391D01*
X265041Y136397D01*
X265063Y136402D01*
X265087Y136408D01*
X265145Y136427D01*
X265208Y136451D01*
X265270Y136481D01*
X265328Y136520D01*
X265352Y136541D01*
X265377Y136563D01*
Y136566D01*
X265382Y136569D01*
X265388Y136577D01*
X265396Y136585D01*
X265412Y136612D01*
X265434Y136651D01*
X265456Y136697D01*
X265472Y136749D01*
X265486Y136812D01*
X265492Y136877D01*
Y136899D01*
X265489Y136915D01*
X265486Y136932D01*
X265483Y136956D01*
X265472Y137005D01*
X265456Y137065D01*
X265429Y137128D01*
X265410Y137158D01*
X265390Y137188D01*
X265369Y137218D01*
X265341Y137249D01*
X265339Y137251D01*
X265333Y137254D01*
X265325Y137262D01*
X265314Y137273D01*
X265300Y137284D01*
X265281Y137295D01*
X265262Y137309D01*
X265238Y137325D01*
X265183Y137352D01*
X265120Y137374D01*
X265047Y137393D01*
X265008Y137396D01*
X264967Y137399D01*
X264965D01*
X264959D01*
X264946D01*
X264932Y137396D01*
X264913Y137393D01*
X264894Y137390D01*
X264844Y137382D01*
X264787Y137363D01*
X264730Y137338D01*
X264700Y137322D01*
X264672Y137303D01*
X264645Y137281D01*
X264618Y137257D01*
X264615Y137254D01*
X264612Y137251D01*
X264604Y137243D01*
X264596Y137232D01*
X264585Y137218D01*
X264574Y137202D01*
X264547Y137161D01*
X264522Y137109D01*
X264500Y137049D01*
X264484Y136981D01*
X264481Y136943D01*
X264479Y136905D01*
Y136888D01*
X264481Y136869D01*
Y136844D01*
X264487Y136812D01*
X264492Y136776D01*
X264500Y136732D01*
X264511Y136686D01*
X264241Y136719D01*
Y136724D01*
X264244Y136738D01*
X264247Y136754D01*
Y136790D01*
X264244Y136803D01*
Y136823D01*
X264241Y136842D01*
X264233Y136888D01*
X264222Y136943D01*
X264203Y137003D01*
X264178Y137065D01*
X264143Y137126D01*
Y137128D01*
X264137Y137134D01*
X264132Y137139D01*
X264124Y137150D01*
X264099Y137178D01*
X264064Y137207D01*
X264020Y137235D01*
X263965Y137262D01*
X263935Y137273D01*
X263900Y137278D01*
X263864Y137284D01*
X263826Y137287D01*
X263823D01*
X263818D01*
X263810D01*
X263796Y137284D01*
X263766Y137281D01*
X263725Y137273D01*
X263682Y137259D01*
X263635Y137238D01*
X263586Y137207D01*
X263564Y137191D01*
X263542Y137169D01*
X263537Y137164D01*
X263526Y137147D01*
X263507Y137123D01*
X263485Y137090D01*
X263466Y137046D01*
X263447Y136995D01*
X263436Y136937D01*
X263430Y136872D01*
Y136855D01*
X263433Y136842D01*
Y136825D01*
X263436Y136809D01*
X263444Y136765D01*
X263458Y136719D01*
X263479Y136667D01*
X263507Y136618D01*
X263545Y136569D01*
X263550Y136563D01*
X263567Y136550D01*
X263591Y136528D01*
X263630Y136506D01*
X263676Y136479D01*
X263736Y136454D01*
X263804Y136432D01*
X263883Y136416D01*
X263829Y136107D01*
X263826D01*
X263815Y136110D01*
X263799Y136113D01*
X263777Y136118D01*
X263753Y136126D01*
X263722Y136135D01*
X263690Y136145D01*
X263654Y136159D01*
X263575Y136195D01*
X263537Y136214D01*
X263496Y136238D01*
X263458Y136266D01*
X263419Y136296D01*
X263381Y136328D01*
X263348Y136364D01*
X263346Y136367D01*
X263340Y136372D01*
X263332Y136386D01*
X263321Y136399D01*
X263307Y136421D01*
X263294Y136443D01*
X263277Y136470D01*
X263261Y136503D01*
X263247Y136536D01*
X263231Y136574D01*
X263217Y136615D01*
X263204Y136659D01*
X263193Y136708D01*
X263185Y136757D01*
X263179Y136809D01*
X263176Y136864D01*
Y136899D01*
X263179Y136918D01*
X263182Y136937D01*
X263187Y136989D01*
X263198Y137046D01*
X263215Y137112D01*
X263236Y137178D01*
X263266Y137243D01*
Y137246D01*
X263269Y137251D01*
X263275Y137259D01*
X263283Y137273D01*
X263302Y137303D01*
X263329Y137341D01*
X263365Y137385D01*
X263406Y137429D01*
X263452Y137472D01*
X263507Y137511D01*
X263509D01*
X263512Y137513D01*
X263523Y137519D01*
X263534Y137524D01*
X263548Y137532D01*
X263564Y137541D01*
X263605Y137557D01*
X263654Y137573D01*
X263709Y137590D01*
X263769Y137601D01*
X263832Y137603D01*
X263834D01*
X263840D01*
X263848D01*
X263859D01*
X263892Y137598D01*
X263930Y137592D01*
X263976Y137582D01*
X264025Y137565D01*
X264077Y137543D01*
X264129Y137513D01*
X264132D01*
X264135Y137511D01*
X264151Y137497D01*
X264176Y137478D01*
X264206Y137448D01*
X264241Y137412D01*
X264277Y137366D01*
X264309Y137314D01*
X264342Y137254D01*
Y137257D01*
X264345Y137265D01*
X264348Y137276D01*
X264353Y137292D01*
X264358Y137309D01*
X264367Y137330D01*
X264388Y137382D01*
X264419Y137437D01*
X264454Y137494D01*
X264500Y137551D01*
X264558Y137601D01*
X264561Y137603D01*
X264566Y137606D01*
X264574Y137611D01*
X264588Y137620D01*
X264601Y137631D01*
X264621Y137642D01*
X264642Y137653D01*
X264670Y137663D01*
X264697Y137674D01*
X264727Y137685D01*
X264795Y137707D01*
X264875Y137721D01*
X264918Y137726D01*
X264962D01*
X264965D01*
X264976D01*
X264995Y137724D01*
D02*
G37*
G36*
X264924Y135785D02*
X264943Y135780D01*
X264973Y135769D01*
X265005Y135758D01*
X265047Y135741D01*
X265090Y135725D01*
X265137Y135703D01*
X265188Y135679D01*
X265238Y135651D01*
X265292Y135621D01*
X265344Y135586D01*
X265393Y135548D01*
X265442Y135507D01*
X265489Y135460D01*
X265532Y135411D01*
X265535Y135408D01*
X265541Y135398D01*
X265551Y135384D01*
X265565Y135362D01*
X265582Y135337D01*
X265601Y135305D01*
X265620Y135269D01*
X265639Y135225D01*
X265658Y135179D01*
X265677Y135130D01*
X265696Y135075D01*
X265713Y135015D01*
X265726Y134952D01*
X265737Y134887D01*
X265743Y134819D01*
X265745Y134745D01*
Y134707D01*
X265743Y134677D01*
X265740Y134644D01*
X265737Y134603D01*
X265732Y134559D01*
X265723Y134510D01*
X265715Y134458D01*
X265704Y134404D01*
X265691Y134349D01*
X265677Y134295D01*
X265658Y134237D01*
X265636Y134183D01*
X265612Y134131D01*
X265582Y134082D01*
X265579Y134079D01*
X265573Y134071D01*
X265565Y134057D01*
X265551Y134041D01*
X265532Y134019D01*
X265513Y133994D01*
X265489Y133967D01*
X265459Y133937D01*
X265426Y133907D01*
X265390Y133874D01*
X265352Y133844D01*
X265309Y133811D01*
X265262Y133779D01*
X265213Y133749D01*
X265158Y133721D01*
X265101Y133694D01*
X265098Y133691D01*
X265087Y133688D01*
X265068Y133683D01*
X265047Y133675D01*
X265016Y133664D01*
X264984Y133653D01*
X264943Y133642D01*
X264899Y133628D01*
X264850Y133618D01*
X264798Y133604D01*
X264743Y133593D01*
X264683Y133585D01*
X264558Y133568D01*
X264492Y133566D01*
X264427Y133563D01*
X264421D01*
X264410D01*
X264388D01*
X264361Y133566D01*
X264326Y133568D01*
X264285Y133571D01*
X264241Y133577D01*
X264192Y133582D01*
X264140Y133590D01*
X264086Y133598D01*
X263968Y133626D01*
X263911Y133645D01*
X263854Y133664D01*
X263793Y133686D01*
X263739Y133713D01*
X263736Y133716D01*
X263725Y133721D01*
X263712Y133730D01*
X263690Y133740D01*
X263665Y133757D01*
X263638Y133776D01*
X263608Y133798D01*
X263572Y133822D01*
X263540Y133852D01*
X263501Y133882D01*
X263466Y133918D01*
X263428Y133956D01*
X263392Y133997D01*
X263357Y134041D01*
X263324Y134090D01*
X263294Y134139D01*
X263291Y134142D01*
X263288Y134153D01*
X263280Y134166D01*
X263269Y134188D01*
X263258Y134213D01*
X263245Y134246D01*
X263231Y134281D01*
X263217Y134319D01*
X263204Y134363D01*
X263190Y134412D01*
X263176Y134461D01*
X263165Y134516D01*
X263146Y134628D01*
X263144Y134688D01*
X263141Y134750D01*
Y134786D01*
X263144Y134813D01*
X263146Y134846D01*
X263152Y134884D01*
X263157Y134925D01*
X263165Y134972D01*
X263176Y135021D01*
X263187Y135073D01*
X263204Y135125D01*
X263223Y135179D01*
X263245Y135234D01*
X263272Y135286D01*
X263299Y135337D01*
X263335Y135387D01*
X263337Y135389D01*
X263343Y135398D01*
X263354Y135411D01*
X263370Y135427D01*
X263389Y135449D01*
X263414Y135474D01*
X263441Y135498D01*
X263474Y135529D01*
X263509Y135559D01*
X263550Y135589D01*
X263594Y135619D01*
X263643Y135646D01*
X263695Y135676D01*
X263753Y135701D01*
X263812Y135725D01*
X263875Y135747D01*
X263952Y135419D01*
X263949D01*
X263941Y135414D01*
X263924Y135411D01*
X263905Y135403D01*
X263883Y135395D01*
X263859Y135381D01*
X263799Y135354D01*
X263733Y135318D01*
X263665Y135272D01*
X263602Y135223D01*
X263575Y135193D01*
X263550Y135163D01*
X263548Y135160D01*
X263545Y135154D01*
X263540Y135146D01*
X263531Y135133D01*
X263520Y135116D01*
X263509Y135097D01*
X263499Y135075D01*
X263488Y135048D01*
X263477Y135018D01*
X263466Y134988D01*
X263444Y134917D01*
X263430Y134835D01*
X263425Y134792D01*
Y134718D01*
X263428Y134696D01*
X263430Y134671D01*
X263433Y134641D01*
X263436Y134608D01*
X263441Y134576D01*
X263460Y134497D01*
X263485Y134415D01*
X263501Y134374D01*
X263520Y134333D01*
X263542Y134295D01*
X263567Y134256D01*
X263569Y134254D01*
X263572Y134248D01*
X263580Y134237D01*
X263591Y134224D01*
X263605Y134210D01*
X263624Y134191D01*
X263643Y134172D01*
X263665Y134150D01*
X263692Y134128D01*
X263720Y134104D01*
X263783Y134060D01*
X263856Y134019D01*
X263941Y133983D01*
X263944D01*
X263952Y133981D01*
X263965Y133975D01*
X263982Y133973D01*
X264004Y133967D01*
X264028Y133959D01*
X264058Y133953D01*
X264088Y133945D01*
X264124Y133937D01*
X264162Y133932D01*
X264244Y133918D01*
X264331Y133910D01*
X264424Y133907D01*
X264427D01*
X264438D01*
X264454D01*
X264479Y133910D01*
X264506D01*
X264539Y133912D01*
X264574Y133915D01*
X264615Y133918D01*
X264659Y133923D01*
X264703Y133929D01*
X264798Y133945D01*
X264894Y133970D01*
X264986Y134000D01*
X264989D01*
X264997Y134005D01*
X265008Y134011D01*
X265025Y134016D01*
X265047Y134027D01*
X265068Y134041D01*
X265120Y134071D01*
X265180Y134112D01*
X265238Y134161D01*
X265295Y134221D01*
X265319Y134254D01*
X265344Y134289D01*
Y134292D01*
X265350Y134297D01*
X265355Y134308D01*
X265363Y134325D01*
X265371Y134344D01*
X265382Y134366D01*
X265390Y134390D01*
X265401Y134417D01*
X265423Y134480D01*
X265442Y134554D01*
X265456Y134633D01*
X265459Y134674D01*
X265461Y134718D01*
Y134745D01*
X265459Y134764D01*
X265456Y134789D01*
X265453Y134816D01*
X265448Y134849D01*
X265442Y134881D01*
X265423Y134958D01*
X265410Y134996D01*
X265393Y135037D01*
X265374Y135078D01*
X265352Y135116D01*
X265328Y135154D01*
X265300Y135193D01*
X265298Y135196D01*
X265292Y135201D01*
X265284Y135212D01*
X265270Y135225D01*
X265254Y135239D01*
X265232Y135258D01*
X265208Y135277D01*
X265180Y135299D01*
X265147Y135321D01*
X265112Y135343D01*
X265074Y135365D01*
X265030Y135387D01*
X264984Y135406D01*
X264932Y135425D01*
X264877Y135444D01*
X264820Y135458D01*
X264904Y135791D01*
X264910D01*
X264924Y135785D01*
D02*
G37*
G36*
X244054Y148632D02*
X244048D01*
X244035D01*
X244013D01*
X243985Y148635D01*
X243953Y148637D01*
X243917Y148646D01*
X243879Y148654D01*
X243841Y148668D01*
X243838D01*
X243832Y148670D01*
X243824Y148673D01*
X243811Y148678D01*
X243797Y148687D01*
X243778Y148695D01*
X243734Y148717D01*
X243682Y148744D01*
X243625Y148779D01*
X243565Y148820D01*
X243505Y148870D01*
X243502Y148872D01*
X243497Y148875D01*
X243489Y148883D01*
X243475Y148897D01*
X243461Y148910D01*
X243442Y148930D01*
X243420Y148949D01*
X243396Y148973D01*
X243368Y149001D01*
X243341Y149031D01*
X243308Y149063D01*
X243275Y149102D01*
X243240Y149140D01*
X243205Y149183D01*
X243166Y149227D01*
X243125Y149276D01*
X243123Y149282D01*
X243109Y149295D01*
X243093Y149314D01*
X243068Y149342D01*
X243041Y149375D01*
X243008Y149413D01*
X242972Y149457D01*
X242932Y149500D01*
X242847Y149593D01*
X242757Y149683D01*
X242713Y149727D01*
X242670Y149768D01*
X242629Y149803D01*
X242590Y149833D01*
X242588Y149836D01*
X242582Y149839D01*
X242571Y149847D01*
X242558Y149855D01*
X242538Y149869D01*
X242519Y149880D01*
X242470Y149907D01*
X242413Y149934D01*
X242350Y149959D01*
X242284Y149975D01*
X242252Y149978D01*
X242219Y149981D01*
X242216D01*
X242211D01*
X242200D01*
X242189Y149978D01*
X242173D01*
X242154Y149972D01*
X242113Y149964D01*
X242063Y149948D01*
X242011Y149923D01*
X241984Y149910D01*
X241960Y149890D01*
X241935Y149871D01*
X241911Y149847D01*
X241908Y149844D01*
X241905Y149841D01*
X241900Y149833D01*
X241891Y149822D01*
X241880Y149809D01*
X241870Y149792D01*
X241845Y149754D01*
X241823Y149702D01*
X241801Y149645D01*
X241788Y149577D01*
X241782Y149538D01*
Y149478D01*
X241785Y149462D01*
Y149443D01*
X241790Y149421D01*
X241799Y149372D01*
X241815Y149314D01*
X241840Y149254D01*
X241856Y149224D01*
X241872Y149194D01*
X241894Y149167D01*
X241919Y149140D01*
X241921Y149137D01*
X241924Y149134D01*
X241932Y149129D01*
X241943Y149118D01*
X241957Y149110D01*
X241973Y149099D01*
X241992Y149085D01*
X242014Y149074D01*
X242039Y149061D01*
X242066Y149050D01*
X242132Y149028D01*
X242203Y149012D01*
X242244Y149009D01*
X242287Y149006D01*
X242254Y148689D01*
X242249D01*
X242238Y148692D01*
X242222Y148695D01*
X242197Y148697D01*
X242167Y148703D01*
X242132Y148711D01*
X242093Y148719D01*
X242053Y148733D01*
X242011Y148747D01*
X241965Y148763D01*
X241921Y148785D01*
X241878Y148807D01*
X241831Y148834D01*
X241790Y148864D01*
X241750Y148897D01*
X241714Y148935D01*
X241711Y148938D01*
X241706Y148946D01*
X241698Y148957D01*
X241684Y148973D01*
X241670Y148995D01*
X241654Y149022D01*
X241637Y149052D01*
X241618Y149088D01*
X241602Y149126D01*
X241586Y149170D01*
X241569Y149216D01*
X241556Y149268D01*
X241542Y149323D01*
X241534Y149380D01*
X241528Y149443D01*
X241526Y149508D01*
Y149544D01*
X241528Y149568D01*
X241531Y149598D01*
X241536Y149634D01*
X241542Y149675D01*
X241550Y149716D01*
X241561Y149762D01*
X241575Y149809D01*
X241591Y149858D01*
X241610Y149904D01*
X241635Y149953D01*
X241662Y150000D01*
X241692Y150043D01*
X241728Y150084D01*
X241730Y150087D01*
X241736Y150093D01*
X241750Y150103D01*
X241763Y150117D01*
X241782Y150134D01*
X241807Y150153D01*
X241834Y150172D01*
X241867Y150191D01*
X241900Y150210D01*
X241938Y150229D01*
X241979Y150248D01*
X242022Y150265D01*
X242072Y150278D01*
X242121Y150289D01*
X242173Y150295D01*
X242227Y150297D01*
X242230D01*
X242233D01*
X242241D01*
X242252D01*
X242282Y150295D01*
X242320Y150289D01*
X242366Y150281D01*
X242416Y150270D01*
X242470Y150256D01*
X242525Y150234D01*
X242528D01*
X242530Y150232D01*
X242538Y150229D01*
X242549Y150224D01*
X242579Y150207D01*
X242618Y150185D01*
X242664Y150155D01*
X242716Y150120D01*
X242771Y150079D01*
X242830Y150027D01*
X242833Y150024D01*
X242839Y150022D01*
X242847Y150011D01*
X242861Y150000D01*
X242877Y149983D01*
X242896Y149964D01*
X242921Y149942D01*
X242945Y149915D01*
X242975Y149882D01*
X243008Y149847D01*
X243046Y149809D01*
X243084Y149765D01*
X243128Y149719D01*
X243172Y149667D01*
X243221Y149609D01*
X243273Y149549D01*
X243275Y149547D01*
X243284Y149538D01*
X243295Y149522D01*
X243311Y149506D01*
X243330Y149481D01*
X243352Y149457D01*
X243401Y149399D01*
X243453Y149339D01*
X243508Y149282D01*
X243532Y149254D01*
X243554Y149230D01*
X243576Y149208D01*
X243592Y149192D01*
X243595Y149189D01*
X243606Y149178D01*
X243622Y149164D01*
X243644Y149145D01*
X243669Y149123D01*
X243696Y149102D01*
X243756Y149058D01*
Y150300D01*
X244054D01*
Y148632D01*
D02*
G37*
G36*
X243273Y148384D02*
X243292Y148378D01*
X243322Y148367D01*
X243355Y148356D01*
X243396Y148340D01*
X243439Y148324D01*
X243486Y148302D01*
X243538Y148277D01*
X243587Y148250D01*
X243641Y148220D01*
X243693Y148184D01*
X243742Y148146D01*
X243792Y148105D01*
X243838Y148059D01*
X243882Y148010D01*
X243884Y148007D01*
X243890Y147996D01*
X243901Y147982D01*
X243914Y147960D01*
X243931Y147936D01*
X243950Y147903D01*
X243969Y147868D01*
X243988Y147824D01*
X244007Y147777D01*
X244026Y147728D01*
X244045Y147674D01*
X244062Y147614D01*
X244075Y147551D01*
X244086Y147485D01*
X244092Y147417D01*
X244094Y147344D01*
Y147305D01*
X244092Y147275D01*
X244089Y147242D01*
X244086Y147202D01*
X244081Y147158D01*
X244073Y147109D01*
X244064Y147057D01*
X244054Y147002D01*
X244040Y146948D01*
X244026Y146893D01*
X244007Y146836D01*
X243985Y146781D01*
X243961Y146729D01*
X243931Y146680D01*
X243928Y146677D01*
X243922Y146669D01*
X243914Y146655D01*
X243901Y146639D01*
X243882Y146617D01*
X243863Y146593D01*
X243838Y146565D01*
X243808Y146535D01*
X243775Y146505D01*
X243740Y146473D01*
X243701Y146443D01*
X243658Y146410D01*
X243611Y146377D01*
X243562Y146347D01*
X243508Y146320D01*
X243450Y146292D01*
X243447Y146290D01*
X243437Y146287D01*
X243418Y146282D01*
X243396Y146273D01*
X243366Y146262D01*
X243333Y146251D01*
X243292Y146240D01*
X243248Y146227D01*
X243199Y146216D01*
X243147Y146202D01*
X243093Y146191D01*
X243033Y146183D01*
X242907Y146167D01*
X242842Y146164D01*
X242776Y146161D01*
X242771D01*
X242760D01*
X242738D01*
X242710Y146164D01*
X242675Y146167D01*
X242634Y146170D01*
X242590Y146175D01*
X242541Y146180D01*
X242489Y146189D01*
X242435Y146197D01*
X242317Y146224D01*
X242260Y146243D01*
X242203Y146262D01*
X242143Y146284D01*
X242088Y146311D01*
X242085Y146314D01*
X242074Y146320D01*
X242061Y146328D01*
X242039Y146339D01*
X242014Y146355D01*
X241987Y146374D01*
X241957Y146396D01*
X241921Y146421D01*
X241889Y146451D01*
X241850Y146481D01*
X241815Y146516D01*
X241777Y146555D01*
X241741Y146595D01*
X241706Y146639D01*
X241673Y146688D01*
X241643Y146737D01*
X241640Y146740D01*
X241637Y146751D01*
X241629Y146765D01*
X241618Y146786D01*
X241607Y146811D01*
X241594Y146844D01*
X241580Y146879D01*
X241567Y146918D01*
X241553Y146961D01*
X241539Y147010D01*
X241526Y147060D01*
X241515Y147114D01*
X241496Y147226D01*
X241493Y147286D01*
X241490Y147349D01*
Y147384D01*
X241493Y147412D01*
X241496Y147444D01*
X241501Y147483D01*
X241507Y147524D01*
X241515Y147570D01*
X241526Y147619D01*
X241536Y147671D01*
X241553Y147723D01*
X241572Y147777D01*
X241594Y147832D01*
X241621Y147884D01*
X241649Y147936D01*
X241684Y147985D01*
X241687Y147988D01*
X241692Y147996D01*
X241703Y148010D01*
X241719Y148026D01*
X241739Y148048D01*
X241763Y148072D01*
X241790Y148097D01*
X241823Y148127D01*
X241859Y148157D01*
X241900Y148187D01*
X241943Y148217D01*
X241992Y148244D01*
X242044Y148274D01*
X242102Y148299D01*
X242162Y148324D01*
X242225Y148345D01*
X242301Y148018D01*
X242298D01*
X242290Y148012D01*
X242274Y148010D01*
X242254Y148001D01*
X242233Y147993D01*
X242208Y147979D01*
X242148Y147952D01*
X242083Y147917D01*
X242014Y147870D01*
X241951Y147821D01*
X241924Y147791D01*
X241900Y147761D01*
X241897Y147758D01*
X241894Y147753D01*
X241889Y147745D01*
X241880Y147731D01*
X241870Y147715D01*
X241859Y147696D01*
X241848Y147674D01*
X241837Y147646D01*
X241826Y147617D01*
X241815Y147586D01*
X241793Y147515D01*
X241779Y147433D01*
X241774Y147390D01*
Y147316D01*
X241777Y147294D01*
X241779Y147270D01*
X241782Y147240D01*
X241785Y147207D01*
X241790Y147174D01*
X241810Y147095D01*
X241834Y147013D01*
X241850Y146972D01*
X241870Y146931D01*
X241891Y146893D01*
X241916Y146855D01*
X241919Y146852D01*
X241921Y146847D01*
X241930Y146836D01*
X241941Y146822D01*
X241954Y146808D01*
X241973Y146789D01*
X241992Y146770D01*
X242014Y146748D01*
X242042Y146727D01*
X242069Y146702D01*
X242132Y146658D01*
X242205Y146617D01*
X242290Y146582D01*
X242293D01*
X242301Y146579D01*
X242315Y146574D01*
X242331Y146571D01*
X242353Y146565D01*
X242377Y146557D01*
X242407Y146552D01*
X242437Y146544D01*
X242473Y146535D01*
X242511Y146530D01*
X242593Y146516D01*
X242680Y146508D01*
X242773Y146505D01*
X242776D01*
X242787D01*
X242803D01*
X242828Y146508D01*
X242855D01*
X242888Y146511D01*
X242923Y146513D01*
X242964Y146516D01*
X243008Y146522D01*
X243052Y146527D01*
X243147Y146544D01*
X243243Y146568D01*
X243336Y146598D01*
X243338D01*
X243347Y146604D01*
X243357Y146609D01*
X243374Y146615D01*
X243396Y146625D01*
X243418Y146639D01*
X243469Y146669D01*
X243529Y146710D01*
X243587Y146759D01*
X243644Y146819D01*
X243669Y146852D01*
X243693Y146888D01*
Y146890D01*
X243699Y146896D01*
X243704Y146907D01*
X243712Y146923D01*
X243721Y146942D01*
X243731Y146964D01*
X243740Y146989D01*
X243751Y147016D01*
X243772Y147079D01*
X243792Y147152D01*
X243805Y147231D01*
X243808Y147273D01*
X243811Y147316D01*
Y147344D01*
X243808Y147363D01*
X243805Y147387D01*
X243802Y147414D01*
X243797Y147447D01*
X243792Y147480D01*
X243772Y147556D01*
X243759Y147595D01*
X243742Y147636D01*
X243723Y147677D01*
X243701Y147715D01*
X243677Y147753D01*
X243650Y147791D01*
X243647Y147794D01*
X243641Y147799D01*
X243633Y147810D01*
X243619Y147824D01*
X243603Y147838D01*
X243581Y147857D01*
X243557Y147876D01*
X243529Y147898D01*
X243497Y147919D01*
X243461Y147941D01*
X243423Y147963D01*
X243379Y147985D01*
X243333Y148004D01*
X243281Y148023D01*
X243226Y148042D01*
X243169Y148056D01*
X243254Y148389D01*
X243259D01*
X243273Y148384D01*
D02*
G37*
G36*
X221810Y19412D02*
X219841D01*
X219847Y19407D01*
X219860Y19393D01*
X219879Y19368D01*
X219907Y19333D01*
X219939Y19292D01*
X219975Y19240D01*
X220013Y19183D01*
X220054Y19117D01*
Y19115D01*
X220059Y19109D01*
X220065Y19101D01*
X220071Y19087D01*
X220081Y19071D01*
X220090Y19052D01*
X220114Y19008D01*
X220139Y18959D01*
X220166Y18904D01*
X220191Y18847D01*
X220212Y18792D01*
X219915D01*
X219912Y18795D01*
X219909Y18803D01*
X219901Y18817D01*
X219893Y18836D01*
X219882Y18858D01*
X219866Y18885D01*
X219849Y18915D01*
X219833Y18945D01*
X219789Y19016D01*
X219737Y19093D01*
X219683Y19172D01*
X219620Y19245D01*
X219617Y19248D01*
X219612Y19254D01*
X219604Y19265D01*
X219590Y19278D01*
X219574Y19292D01*
X219557Y19311D01*
X219511Y19352D01*
X219462Y19398D01*
X219404Y19445D01*
X219344Y19486D01*
X219282Y19521D01*
Y19721D01*
X221810D01*
Y19412D01*
D02*
G37*
G36*
X221029Y18266D02*
X221048Y18260D01*
X221078Y18249D01*
X221111Y18238D01*
X221151Y18222D01*
X221195Y18205D01*
X221242Y18184D01*
X221293Y18159D01*
X221343Y18132D01*
X221397Y18102D01*
X221449Y18066D01*
X221498Y18028D01*
X221547Y17987D01*
X221594Y17941D01*
X221638Y17891D01*
X221640Y17889D01*
X221646Y17878D01*
X221657Y17864D01*
X221670Y17842D01*
X221687Y17818D01*
X221706Y17785D01*
X221725Y17750D01*
X221744Y17706D01*
X221763Y17659D01*
X221782Y17610D01*
X221801Y17556D01*
X221818Y17496D01*
X221831Y17433D01*
X221842Y17367D01*
X221848Y17299D01*
X221850Y17225D01*
Y17187D01*
X221848Y17157D01*
X221845Y17124D01*
X221842Y17083D01*
X221837Y17040D01*
X221829Y16991D01*
X221820Y16939D01*
X221810Y16884D01*
X221796Y16829D01*
X221782Y16775D01*
X221763Y16718D01*
X221741Y16663D01*
X221717Y16611D01*
X221687Y16562D01*
X221684Y16559D01*
X221678Y16551D01*
X221670Y16537D01*
X221657Y16521D01*
X221638Y16499D01*
X221618Y16475D01*
X221594Y16447D01*
X221564Y16417D01*
X221531Y16387D01*
X221496Y16354D01*
X221457Y16324D01*
X221414Y16292D01*
X221367Y16259D01*
X221318Y16229D01*
X221264Y16202D01*
X221206Y16174D01*
X221203Y16172D01*
X221193Y16169D01*
X221173Y16163D01*
X221151Y16155D01*
X221122Y16144D01*
X221089Y16133D01*
X221048Y16122D01*
X221004Y16109D01*
X220955Y16098D01*
X220903Y16084D01*
X220848Y16073D01*
X220789Y16065D01*
X220663Y16049D01*
X220597Y16046D01*
X220532Y16043D01*
X220526D01*
X220515D01*
X220494D01*
X220466Y16046D01*
X220431Y16049D01*
X220390Y16051D01*
X220346Y16057D01*
X220297Y16062D01*
X220245Y16071D01*
X220191Y16079D01*
X220073Y16106D01*
X220016Y16125D01*
X219958Y16144D01*
X219899Y16166D01*
X219844Y16193D01*
X219841Y16196D01*
X219830Y16202D01*
X219817Y16210D01*
X219795Y16221D01*
X219770Y16237D01*
X219743Y16256D01*
X219713Y16278D01*
X219677Y16303D01*
X219645Y16333D01*
X219606Y16363D01*
X219571Y16398D01*
X219533Y16436D01*
X219497Y16477D01*
X219462Y16521D01*
X219429Y16570D01*
X219399Y16619D01*
X219396Y16622D01*
X219393Y16633D01*
X219385Y16647D01*
X219374Y16668D01*
X219363Y16693D01*
X219350Y16726D01*
X219336Y16761D01*
X219322Y16800D01*
X219309Y16843D01*
X219295Y16892D01*
X219282Y16941D01*
X219271Y16996D01*
X219251Y17108D01*
X219249Y17168D01*
X219246Y17231D01*
Y17266D01*
X219249Y17294D01*
X219251Y17326D01*
X219257Y17365D01*
X219262Y17405D01*
X219271Y17452D01*
X219282Y17501D01*
X219292Y17553D01*
X219309Y17605D01*
X219328Y17659D01*
X219350Y17714D01*
X219377Y17766D01*
X219404Y17818D01*
X219440Y17867D01*
X219443Y17870D01*
X219448Y17878D01*
X219459Y17891D01*
X219475Y17908D01*
X219494Y17930D01*
X219519Y17954D01*
X219546Y17979D01*
X219579Y18009D01*
X219615Y18039D01*
X219655Y18069D01*
X219699Y18099D01*
X219748Y18126D01*
X219800Y18156D01*
X219858Y18181D01*
X219918Y18205D01*
X219980Y18227D01*
X220057Y17900D01*
X220054D01*
X220046Y17894D01*
X220029Y17891D01*
X220010Y17883D01*
X219989Y17875D01*
X219964Y17861D01*
X219904Y17834D01*
X219838Y17799D01*
X219770Y17752D01*
X219707Y17703D01*
X219680Y17673D01*
X219655Y17643D01*
X219653Y17640D01*
X219650Y17635D01*
X219645Y17627D01*
X219636Y17613D01*
X219625Y17597D01*
X219615Y17578D01*
X219604Y17556D01*
X219593Y17528D01*
X219582Y17498D01*
X219571Y17468D01*
X219549Y17397D01*
X219535Y17315D01*
X219530Y17272D01*
Y17198D01*
X219533Y17176D01*
X219535Y17152D01*
X219538Y17122D01*
X219541Y17089D01*
X219546Y17056D01*
X219565Y16977D01*
X219590Y16895D01*
X219606Y16854D01*
X219625Y16813D01*
X219647Y16775D01*
X219672Y16737D01*
X219675Y16734D01*
X219677Y16728D01*
X219686Y16718D01*
X219696Y16704D01*
X219710Y16690D01*
X219729Y16671D01*
X219748Y16652D01*
X219770Y16630D01*
X219797Y16608D01*
X219825Y16584D01*
X219888Y16540D01*
X219961Y16499D01*
X220046Y16464D01*
X220049D01*
X220057Y16461D01*
X220071Y16455D01*
X220087Y16453D01*
X220109Y16447D01*
X220133Y16439D01*
X220163Y16434D01*
X220193Y16425D01*
X220229Y16417D01*
X220267Y16412D01*
X220349Y16398D01*
X220436Y16390D01*
X220529Y16387D01*
X220532D01*
X220543D01*
X220559D01*
X220584Y16390D01*
X220611D01*
X220644Y16393D01*
X220679Y16395D01*
X220720Y16398D01*
X220764Y16404D01*
X220808Y16409D01*
X220903Y16425D01*
X220999Y16450D01*
X221092Y16480D01*
X221094D01*
X221102Y16486D01*
X221113Y16491D01*
X221130Y16496D01*
X221151Y16507D01*
X221173Y16521D01*
X221225Y16551D01*
X221285Y16592D01*
X221343Y16641D01*
X221400Y16701D01*
X221425Y16734D01*
X221449Y16769D01*
Y16772D01*
X221455Y16778D01*
X221460Y16789D01*
X221468Y16805D01*
X221476Y16824D01*
X221487Y16846D01*
X221496Y16870D01*
X221506Y16898D01*
X221528Y16961D01*
X221547Y17034D01*
X221561Y17113D01*
X221564Y17154D01*
X221567Y17198D01*
Y17225D01*
X221564Y17244D01*
X221561Y17269D01*
X221558Y17296D01*
X221553Y17329D01*
X221547Y17362D01*
X221528Y17438D01*
X221515Y17477D01*
X221498Y17517D01*
X221479Y17558D01*
X221457Y17597D01*
X221433Y17635D01*
X221405Y17673D01*
X221403Y17676D01*
X221397Y17681D01*
X221389Y17692D01*
X221375Y17706D01*
X221359Y17719D01*
X221337Y17739D01*
X221313Y17758D01*
X221285Y17779D01*
X221253Y17801D01*
X221217Y17823D01*
X221179Y17845D01*
X221135Y17867D01*
X221089Y17886D01*
X221037Y17905D01*
X220982Y17924D01*
X220925Y17938D01*
X221010Y18271D01*
X221015D01*
X221029Y18266D01*
D02*
G37*
G36*
X176880Y124747D02*
X176913Y124745D01*
X176951Y124739D01*
X176992Y124734D01*
X177039Y124725D01*
X177088Y124715D01*
X177140Y124704D01*
X177191Y124687D01*
X177246Y124668D01*
X177301Y124646D01*
X177352Y124619D01*
X177404Y124592D01*
X177453Y124556D01*
X177456Y124554D01*
X177464Y124548D01*
X177478Y124537D01*
X177495Y124521D01*
X177516Y124502D01*
X177541Y124477D01*
X177566Y124450D01*
X177595Y124417D01*
X177626Y124381D01*
X177655Y124340D01*
X177686Y124297D01*
X177713Y124248D01*
X177743Y124196D01*
X177768Y124138D01*
X177792Y124079D01*
X177814Y124016D01*
X177486Y123939D01*
Y123942D01*
X177481Y123950D01*
X177478Y123967D01*
X177470Y123986D01*
X177462Y124007D01*
X177448Y124032D01*
X177421Y124092D01*
X177385Y124158D01*
X177339Y124226D01*
X177290Y124289D01*
X177260Y124316D01*
X177230Y124340D01*
X177227Y124343D01*
X177222Y124346D01*
X177213Y124352D01*
X177200Y124360D01*
X177183Y124371D01*
X177164Y124381D01*
X177142Y124392D01*
X177115Y124403D01*
X177085Y124414D01*
X177055Y124425D01*
X176984Y124447D01*
X176902Y124461D01*
X176858Y124466D01*
X176785D01*
X176763Y124463D01*
X176738Y124461D01*
X176708Y124458D01*
X176675Y124455D01*
X176643Y124450D01*
X176564Y124431D01*
X176482Y124406D01*
X176441Y124390D01*
X176400Y124371D01*
X176362Y124349D01*
X176323Y124324D01*
X176321Y124321D01*
X176315Y124319D01*
X176304Y124311D01*
X176291Y124300D01*
X176277Y124286D01*
X176258Y124267D01*
X176239Y124248D01*
X176217Y124226D01*
X176195Y124199D01*
X176170Y124171D01*
X176127Y124109D01*
X176086Y124035D01*
X176050Y123950D01*
Y123947D01*
X176048Y123939D01*
X176042Y123926D01*
X176039Y123909D01*
X176034Y123887D01*
X176026Y123863D01*
X176020Y123833D01*
X176012Y123803D01*
X176004Y123767D01*
X175998Y123729D01*
X175985Y123647D01*
X175977Y123560D01*
X175974Y123467D01*
Y123464D01*
Y123453D01*
Y123437D01*
X175977Y123412D01*
Y123385D01*
X175979Y123352D01*
X175982Y123317D01*
X175985Y123276D01*
X175990Y123232D01*
X175996Y123188D01*
X176012Y123093D01*
X176037Y122997D01*
X176067Y122905D01*
Y122902D01*
X176072Y122894D01*
X176078Y122883D01*
X176083Y122866D01*
X176094Y122845D01*
X176108Y122823D01*
X176138Y122771D01*
X176179Y122711D01*
X176228Y122653D01*
X176288Y122596D01*
X176321Y122572D01*
X176356Y122547D01*
X176359D01*
X176364Y122541D01*
X176375Y122536D01*
X176392Y122528D01*
X176411Y122520D01*
X176433Y122509D01*
X176457Y122501D01*
X176484Y122490D01*
X176547Y122468D01*
X176621Y122449D01*
X176700Y122435D01*
X176741Y122432D01*
X176785Y122430D01*
X176812D01*
X176831Y122432D01*
X176856Y122435D01*
X176883Y122438D01*
X176916Y122443D01*
X176948Y122449D01*
X177025Y122468D01*
X177063Y122481D01*
X177104Y122498D01*
X177145Y122517D01*
X177183Y122539D01*
X177222Y122563D01*
X177260Y122591D01*
X177262Y122593D01*
X177268Y122599D01*
X177279Y122607D01*
X177293Y122621D01*
X177306Y122637D01*
X177325Y122659D01*
X177344Y122683D01*
X177366Y122711D01*
X177388Y122743D01*
X177410Y122779D01*
X177432Y122817D01*
X177453Y122861D01*
X177473Y122907D01*
X177492Y122959D01*
X177511Y123014D01*
X177524Y123071D01*
X177858Y122986D01*
Y122981D01*
X177852Y122967D01*
X177847Y122948D01*
X177836Y122918D01*
X177825Y122885D01*
X177808Y122845D01*
X177792Y122801D01*
X177770Y122754D01*
X177746Y122703D01*
X177718Y122653D01*
X177688Y122599D01*
X177653Y122547D01*
X177615Y122498D01*
X177574Y122449D01*
X177527Y122402D01*
X177478Y122359D01*
X177475Y122356D01*
X177464Y122350D01*
X177451Y122339D01*
X177429Y122326D01*
X177404Y122309D01*
X177372Y122290D01*
X177336Y122271D01*
X177293Y122252D01*
X177246Y122233D01*
X177197Y122214D01*
X177142Y122195D01*
X177082Y122178D01*
X177020Y122165D01*
X176954Y122154D01*
X176886Y122148D01*
X176812Y122146D01*
X176774D01*
X176744Y122148D01*
X176711Y122151D01*
X176670Y122154D01*
X176626Y122159D01*
X176577Y122168D01*
X176525Y122176D01*
X176471Y122187D01*
X176416Y122200D01*
X176362Y122214D01*
X176304Y122233D01*
X176250Y122255D01*
X176198Y122279D01*
X176149Y122309D01*
X176146Y122312D01*
X176138Y122318D01*
X176124Y122326D01*
X176108Y122339D01*
X176086Y122359D01*
X176061Y122378D01*
X176034Y122402D01*
X176004Y122432D01*
X175974Y122465D01*
X175941Y122501D01*
X175911Y122539D01*
X175878Y122582D01*
X175846Y122629D01*
X175815Y122678D01*
X175788Y122733D01*
X175761Y122790D01*
X175758Y122793D01*
X175756Y122803D01*
X175750Y122823D01*
X175742Y122845D01*
X175731Y122874D01*
X175720Y122907D01*
X175709Y122948D01*
X175695Y122992D01*
X175684Y123041D01*
X175671Y123093D01*
X175660Y123147D01*
X175652Y123208D01*
X175635Y123333D01*
X175633Y123399D01*
X175630Y123464D01*
Y123470D01*
Y123481D01*
Y123502D01*
X175633Y123530D01*
X175635Y123565D01*
X175638Y123606D01*
X175644Y123650D01*
X175649Y123699D01*
X175657Y123751D01*
X175665Y123805D01*
X175693Y123923D01*
X175712Y123980D01*
X175731Y124038D01*
X175753Y124098D01*
X175780Y124152D01*
X175783Y124155D01*
X175788Y124166D01*
X175796Y124179D01*
X175807Y124201D01*
X175824Y124226D01*
X175843Y124253D01*
X175865Y124283D01*
X175889Y124319D01*
X175919Y124352D01*
X175949Y124390D01*
X175985Y124425D01*
X176023Y124463D01*
X176064Y124499D01*
X176108Y124534D01*
X176157Y124567D01*
X176206Y124597D01*
X176209Y124600D01*
X176220Y124603D01*
X176233Y124611D01*
X176255Y124622D01*
X176280Y124633D01*
X176312Y124646D01*
X176348Y124660D01*
X176386Y124674D01*
X176430Y124687D01*
X176479Y124701D01*
X176528Y124715D01*
X176583Y124725D01*
X176695Y124745D01*
X176755Y124747D01*
X176817Y124750D01*
X176853D01*
X176880Y124747D01*
D02*
G37*
G36*
X179695Y124379D02*
X178688D01*
X178554Y123702D01*
X178556Y123704D01*
X178565Y123710D01*
X178576Y123715D01*
X178592Y123726D01*
X178614Y123737D01*
X178638Y123751D01*
X178666Y123767D01*
X178698Y123781D01*
X178731Y123794D01*
X178769Y123811D01*
X178849Y123836D01*
X178892Y123846D01*
X178936Y123855D01*
X178982Y123857D01*
X179029Y123860D01*
X179042D01*
X179061Y123857D01*
X179083D01*
X179111Y123852D01*
X179143Y123849D01*
X179182Y123841D01*
X179220Y123833D01*
X179263Y123819D01*
X179307Y123805D01*
X179354Y123786D01*
X179400Y123765D01*
X179446Y123737D01*
X179493Y123707D01*
X179539Y123672D01*
X179583Y123631D01*
X179586Y123628D01*
X179594Y123620D01*
X179605Y123606D01*
X179618Y123590D01*
X179638Y123568D01*
X179657Y123538D01*
X179676Y123508D01*
X179698Y123472D01*
X179719Y123431D01*
X179738Y123385D01*
X179760Y123339D01*
X179777Y123284D01*
X179790Y123229D01*
X179801Y123169D01*
X179809Y123107D01*
X179812Y123041D01*
Y123038D01*
Y123025D01*
Y123008D01*
X179809Y122984D01*
X179807Y122954D01*
X179801Y122921D01*
X179796Y122883D01*
X179788Y122839D01*
X179777Y122795D01*
X179763Y122746D01*
X179747Y122697D01*
X179728Y122648D01*
X179706Y122599D01*
X179678Y122547D01*
X179648Y122498D01*
X179613Y122451D01*
X179610Y122449D01*
X179602Y122438D01*
X179588Y122424D01*
X179569Y122405D01*
X179545Y122380D01*
X179515Y122356D01*
X179479Y122326D01*
X179438Y122299D01*
X179395Y122271D01*
X179345Y122241D01*
X179291Y122217D01*
X179231Y122195D01*
X179168Y122173D01*
X179100Y122159D01*
X179029Y122148D01*
X178952Y122146D01*
X178919D01*
X178895Y122148D01*
X178865Y122151D01*
X178832Y122157D01*
X178794Y122162D01*
X178753Y122170D01*
X178709Y122178D01*
X178663Y122192D01*
X178616Y122208D01*
X178570Y122228D01*
X178524Y122249D01*
X178477Y122274D01*
X178434Y122304D01*
X178390Y122337D01*
X178387Y122339D01*
X178382Y122345D01*
X178371Y122356D01*
X178357Y122372D01*
X178338Y122391D01*
X178319Y122413D01*
X178300Y122441D01*
X178278Y122473D01*
X178256Y122506D01*
X178234Y122544D01*
X178215Y122588D01*
X178196Y122632D01*
X178177Y122681D01*
X178163Y122733D01*
X178152Y122790D01*
X178144Y122847D01*
X178469Y122872D01*
Y122869D01*
X178472Y122861D01*
X178474Y122850D01*
X178477Y122834D01*
X178480Y122815D01*
X178488Y122790D01*
X178502Y122738D01*
X178524Y122681D01*
X178554Y122621D01*
X178589Y122566D01*
X178611Y122541D01*
X178633Y122517D01*
X178636D01*
X178638Y122511D01*
X178647Y122506D01*
X178657Y122498D01*
X178685Y122479D01*
X178723Y122460D01*
X178769Y122438D01*
X178824Y122419D01*
X178884Y122405D01*
X178917Y122402D01*
X178952Y122399D01*
X178974D01*
X178990Y122402D01*
X179010Y122405D01*
X179032Y122408D01*
X179083Y122421D01*
X179143Y122441D01*
X179173Y122454D01*
X179206Y122470D01*
X179239Y122490D01*
X179269Y122511D01*
X179299Y122536D01*
X179329Y122566D01*
X179332Y122569D01*
X179334Y122574D01*
X179343Y122582D01*
X179354Y122596D01*
X179365Y122615D01*
X179378Y122634D01*
X179392Y122659D01*
X179408Y122686D01*
X179422Y122716D01*
X179436Y122749D01*
X179449Y122787D01*
X179460Y122825D01*
X179471Y122869D01*
X179479Y122915D01*
X179482Y122962D01*
X179485Y123014D01*
Y123017D01*
Y123025D01*
Y123038D01*
X179482Y123057D01*
X179479Y123079D01*
X179476Y123107D01*
X179471Y123134D01*
X179465Y123167D01*
X179449Y123232D01*
X179422Y123303D01*
X179405Y123336D01*
X179384Y123369D01*
X179362Y123401D01*
X179334Y123431D01*
X179332Y123434D01*
X179329Y123437D01*
X179318Y123445D01*
X179307Y123456D01*
X179294Y123467D01*
X179274Y123481D01*
X179255Y123494D01*
X179231Y123511D01*
X179203Y123524D01*
X179176Y123538D01*
X179108Y123563D01*
X179072Y123573D01*
X179032Y123582D01*
X178990Y123584D01*
X178947Y123587D01*
X178922D01*
X178892Y123584D01*
X178857Y123579D01*
X178813Y123571D01*
X178767Y123557D01*
X178720Y123541D01*
X178674Y123516D01*
X178668Y123513D01*
X178655Y123505D01*
X178633Y123489D01*
X178606Y123470D01*
X178578Y123442D01*
X178545Y123412D01*
X178516Y123377D01*
X178488Y123339D01*
X178199Y123380D01*
X178442Y124674D01*
X179695D01*
Y124379D01*
D02*
G37*
G36*
X150203Y122143D02*
X150230Y122140D01*
X150263Y122137D01*
X150301Y122129D01*
X150342Y122121D01*
X150388Y122110D01*
X150437Y122094D01*
X150489Y122078D01*
X150541Y122053D01*
X150593Y122026D01*
X150648Y121993D01*
X150697Y121955D01*
X150749Y121911D01*
X150795Y121862D01*
X150798Y121859D01*
X150806Y121848D01*
X150817Y121832D01*
X150833Y121807D01*
X150852Y121777D01*
X150872Y121739D01*
X150893Y121693D01*
X150915Y121638D01*
X150940Y121578D01*
X150962Y121510D01*
X150981Y121433D01*
X151000Y121349D01*
X151016Y121256D01*
X151027Y121155D01*
X151035Y121045D01*
X151038Y120928D01*
Y120925D01*
Y120920D01*
Y120909D01*
Y120895D01*
Y120879D01*
X151035Y120857D01*
Y120835D01*
X151033Y120808D01*
X151030Y120748D01*
X151024Y120680D01*
X151016Y120603D01*
X151005Y120521D01*
X150989Y120434D01*
X150972Y120347D01*
X150951Y120259D01*
X150923Y120172D01*
X150893Y120087D01*
X150858Y120005D01*
X150814Y119932D01*
X150768Y119866D01*
X150765Y119863D01*
X150757Y119852D01*
X150743Y119839D01*
X150724Y119820D01*
X150702Y119798D01*
X150672Y119773D01*
X150639Y119749D01*
X150601Y119721D01*
X150558Y119694D01*
X150508Y119670D01*
X150457Y119645D01*
X150399Y119623D01*
X150339Y119604D01*
X150274Y119590D01*
X150205Y119580D01*
X150132Y119577D01*
X150102D01*
X150083Y119580D01*
X150058Y119582D01*
X150028Y119585D01*
X149995Y119590D01*
X149960Y119599D01*
X149881Y119618D01*
X149842Y119631D01*
X149799Y119648D01*
X149758Y119667D01*
X149720Y119692D01*
X149681Y119716D01*
X149643Y119746D01*
X149640Y119749D01*
X149635Y119754D01*
X149624Y119762D01*
X149613Y119776D01*
X149597Y119792D01*
X149580Y119814D01*
X149561Y119839D01*
X149542Y119866D01*
X149523Y119896D01*
X149504Y119932D01*
X149485Y119970D01*
X149466Y120011D01*
X149449Y120054D01*
X149435Y120101D01*
X149422Y120150D01*
X149414Y120205D01*
X149722Y120229D01*
Y120227D01*
X149725Y120221D01*
X149728Y120213D01*
X149730Y120199D01*
X149739Y120167D01*
X149752Y120128D01*
X149769Y120085D01*
X149791Y120041D01*
X149812Y120000D01*
X149840Y119965D01*
X149842Y119962D01*
X149845Y119959D01*
X149853Y119951D01*
X149861Y119943D01*
X149889Y119921D01*
X149927Y119896D01*
X149971Y119872D01*
X150025Y119852D01*
X150085Y119836D01*
X150118Y119833D01*
X150151Y119831D01*
X150175D01*
X150205Y119836D01*
X150241Y119842D01*
X150282Y119852D01*
X150326Y119866D01*
X150369Y119888D01*
X150413Y119915D01*
X150416D01*
X150418Y119921D01*
X150426Y119926D01*
X150437Y119934D01*
X150462Y119959D01*
X150495Y119994D01*
X150533Y120038D01*
X150571Y120093D01*
X150607Y120156D01*
X150642Y120227D01*
Y120229D01*
X150645Y120235D01*
X150650Y120248D01*
X150656Y120265D01*
X150661Y120284D01*
X150670Y120311D01*
X150678Y120341D01*
X150686Y120374D01*
X150694Y120412D01*
X150699Y120456D01*
X150708Y120505D01*
X150716Y120557D01*
X150721Y120612D01*
X150724Y120671D01*
X150727Y120737D01*
X150730Y120802D01*
X150730Y120803D01*
Y120805D01*
X150730Y120802D01*
X150724Y120797D01*
X150719Y120789D01*
X150710Y120778D01*
X150686Y120748D01*
X150656Y120710D01*
X150615Y120669D01*
X150568Y120628D01*
X150517Y120590D01*
X150459Y120554D01*
X150457D01*
X150451Y120551D01*
X150443Y120546D01*
X150432Y120540D01*
X150416Y120535D01*
X150399Y120527D01*
X150356Y120510D01*
X150304Y120497D01*
X150246Y120483D01*
X150184Y120472D01*
X150118Y120469D01*
X150104D01*
X150088Y120472D01*
X150066D01*
X150039Y120478D01*
X150009Y120480D01*
X149973Y120489D01*
X149935Y120497D01*
X149897Y120510D01*
X149853Y120524D01*
X149810Y120543D01*
X149766Y120565D01*
X149720Y120592D01*
X149676Y120622D01*
X149632Y120658D01*
X149591Y120699D01*
X149588Y120702D01*
X149583Y120710D01*
X149572Y120721D01*
X149556Y120740D01*
X149539Y120762D01*
X149523Y120789D01*
X149501Y120822D01*
X149482Y120857D01*
X149463Y120898D01*
X149441Y120942D01*
X149425Y120991D01*
X149406Y121043D01*
X149392Y121097D01*
X149381Y121158D01*
X149375Y121220D01*
X149373Y121286D01*
Y121289D01*
Y121297D01*
Y121308D01*
X149375Y121327D01*
Y121346D01*
X149378Y121370D01*
X149381Y121400D01*
X149386Y121431D01*
X149397Y121499D01*
X149416Y121572D01*
X149441Y121649D01*
X149477Y121728D01*
Y121731D01*
X149482Y121736D01*
X149487Y121747D01*
X149496Y121761D01*
X149506Y121777D01*
X149518Y121796D01*
X149550Y121843D01*
X149588Y121892D01*
X149638Y121944D01*
X149695Y121996D01*
X149758Y122039D01*
X149760D01*
X149766Y122045D01*
X149777Y122050D01*
X149791Y122056D01*
X149807Y122064D01*
X149826Y122072D01*
X149850Y122083D01*
X149875Y122091D01*
X149935Y122113D01*
X150006Y122129D01*
X150083Y122140D01*
X150164Y122146D01*
X150181D01*
X150203Y122143D01*
D02*
G37*
G36*
X152422D02*
X152455Y122140D01*
X152496Y122137D01*
X152540Y122132D01*
X152589Y122124D01*
X152641Y122116D01*
X152695Y122105D01*
X152750Y122091D01*
X152804Y122078D01*
X152862Y122058D01*
X152916Y122037D01*
X152968Y122012D01*
X153017Y121982D01*
X153020Y121979D01*
X153028Y121974D01*
X153042Y121966D01*
X153058Y121952D01*
X153080Y121933D01*
X153105Y121914D01*
X153132Y121889D01*
X153162Y121859D01*
X153192Y121826D01*
X153225Y121791D01*
X153255Y121753D01*
X153288Y121709D01*
X153320Y121662D01*
X153350Y121613D01*
X153378Y121559D01*
X153405Y121501D01*
X153408Y121499D01*
X153410Y121488D01*
X153416Y121469D01*
X153424Y121447D01*
X153435Y121417D01*
X153446Y121384D01*
X153457Y121343D01*
X153471Y121299D01*
X153481Y121250D01*
X153495Y121198D01*
X153506Y121144D01*
X153514Y121084D01*
X153531Y120958D01*
X153533Y120893D01*
X153536Y120827D01*
Y120822D01*
Y120811D01*
Y120789D01*
X153533Y120762D01*
X153531Y120726D01*
X153528Y120685D01*
X153522Y120642D01*
X153517Y120592D01*
X153509Y120540D01*
X153500Y120486D01*
X153473Y120369D01*
X153454Y120311D01*
X153435Y120254D01*
X153413Y120194D01*
X153386Y120139D01*
X153383Y120136D01*
X153378Y120125D01*
X153369Y120112D01*
X153359Y120090D01*
X153342Y120065D01*
X153323Y120038D01*
X153301Y120008D01*
X153277Y119973D01*
X153247Y119940D01*
X153217Y119902D01*
X153181Y119866D01*
X153143Y119828D01*
X153102Y119792D01*
X153058Y119757D01*
X153009Y119724D01*
X152960Y119694D01*
X152957Y119692D01*
X152946Y119689D01*
X152933Y119681D01*
X152911Y119670D01*
X152886Y119659D01*
X152854Y119645D01*
X152818Y119631D01*
X152780Y119618D01*
X152736Y119604D01*
X152687Y119590D01*
X152638Y119577D01*
X152583Y119566D01*
X152471Y119547D01*
X152411Y119544D01*
X152348Y119541D01*
X152313D01*
X152286Y119544D01*
X152253Y119547D01*
X152215Y119552D01*
X152174Y119558D01*
X152127Y119566D01*
X152078Y119577D01*
X152026Y119588D01*
X151974Y119604D01*
X151920Y119623D01*
X151865Y119645D01*
X151813Y119672D01*
X151761Y119700D01*
X151712Y119735D01*
X151710Y119738D01*
X151701Y119743D01*
X151688Y119754D01*
X151671Y119771D01*
X151650Y119790D01*
X151625Y119814D01*
X151600Y119842D01*
X151570Y119874D01*
X151540Y119910D01*
X151510Y119951D01*
X151480Y119994D01*
X151453Y120044D01*
X151423Y120096D01*
X151398Y120153D01*
X151374Y120213D01*
X151352Y120276D01*
X151680Y120352D01*
Y120349D01*
X151685Y120341D01*
X151688Y120325D01*
X151696Y120306D01*
X151704Y120284D01*
X151718Y120259D01*
X151745Y120199D01*
X151781Y120134D01*
X151827Y120065D01*
X151876Y120003D01*
X151906Y119975D01*
X151936Y119951D01*
X151939Y119948D01*
X151944Y119945D01*
X151953Y119940D01*
X151966Y119932D01*
X151983Y119921D01*
X152002Y119910D01*
X152024Y119899D01*
X152051Y119888D01*
X152081Y119877D01*
X152111Y119866D01*
X152182Y119844D01*
X152264Y119831D01*
X152307Y119825D01*
X152381D01*
X152403Y119828D01*
X152428Y119831D01*
X152458Y119833D01*
X152490Y119836D01*
X152523Y119842D01*
X152602Y119861D01*
X152684Y119885D01*
X152725Y119902D01*
X152766Y119921D01*
X152804Y119943D01*
X152843Y119967D01*
X152845Y119970D01*
X152851Y119973D01*
X152862Y119981D01*
X152875Y119992D01*
X152889Y120005D01*
X152908Y120025D01*
X152927Y120044D01*
X152949Y120065D01*
X152971Y120093D01*
X152996Y120120D01*
X153039Y120183D01*
X153080Y120257D01*
X153116Y120341D01*
Y120344D01*
X153118Y120352D01*
X153124Y120366D01*
X153127Y120382D01*
X153132Y120404D01*
X153140Y120429D01*
X153146Y120459D01*
X153154Y120489D01*
X153162Y120524D01*
X153167Y120562D01*
X153181Y120644D01*
X153189Y120732D01*
X153192Y120824D01*
Y120827D01*
Y120838D01*
Y120854D01*
X153189Y120879D01*
Y120906D01*
X153187Y120939D01*
X153184Y120975D01*
X153181Y121016D01*
X153176Y121059D01*
X153170Y121103D01*
X153154Y121198D01*
X153129Y121294D01*
X153099Y121387D01*
Y121389D01*
X153094Y121398D01*
X153088Y121409D01*
X153083Y121425D01*
X153072Y121447D01*
X153058Y121469D01*
X153028Y121521D01*
X152987Y121581D01*
X152938Y121638D01*
X152878Y121695D01*
X152845Y121720D01*
X152810Y121744D01*
X152807D01*
X152802Y121750D01*
X152791Y121755D01*
X152774Y121764D01*
X152755Y121772D01*
X152733Y121783D01*
X152709Y121791D01*
X152682Y121802D01*
X152619Y121824D01*
X152545Y121843D01*
X152466Y121856D01*
X152425Y121859D01*
X152381Y121862D01*
X152354D01*
X152335Y121859D01*
X152310Y121856D01*
X152283Y121854D01*
X152250Y121848D01*
X152217Y121843D01*
X152141Y121824D01*
X152103Y121810D01*
X152062Y121794D01*
X152021Y121774D01*
X151983Y121753D01*
X151944Y121728D01*
X151906Y121701D01*
X151903Y121698D01*
X151898Y121693D01*
X151887Y121684D01*
X151873Y121671D01*
X151860Y121654D01*
X151841Y121633D01*
X151822Y121608D01*
X151800Y121581D01*
X151778Y121548D01*
X151756Y121512D01*
X151734Y121474D01*
X151712Y121431D01*
X151693Y121384D01*
X151674Y121332D01*
X151655Y121278D01*
X151641Y121220D01*
X151308Y121305D01*
Y121310D01*
X151314Y121324D01*
X151319Y121343D01*
X151330Y121373D01*
X151341Y121406D01*
X151357Y121447D01*
X151374Y121491D01*
X151396Y121537D01*
X151420Y121589D01*
X151448Y121638D01*
X151478Y121693D01*
X151513Y121744D01*
X151551Y121794D01*
X151592Y121843D01*
X151639Y121889D01*
X151688Y121933D01*
X151690Y121935D01*
X151701Y121941D01*
X151715Y121952D01*
X151737Y121966D01*
X151761Y121982D01*
X151794Y122001D01*
X151830Y122020D01*
X151873Y122039D01*
X151920Y122058D01*
X151969Y122078D01*
X152024Y122097D01*
X152084Y122113D01*
X152146Y122127D01*
X152212Y122137D01*
X152280Y122143D01*
X152354Y122146D01*
X152392D01*
X152422Y122143D01*
D02*
G37*
G36*
X196906Y162278D02*
X196904D01*
X196893D01*
X196879Y162276D01*
X196860D01*
X196835Y162273D01*
X196808Y162270D01*
X196748Y162262D01*
X196683Y162248D01*
X196617Y162229D01*
X196587Y162218D01*
X196557Y162205D01*
X196532Y162188D01*
X196511Y162172D01*
X196505Y162167D01*
X196494Y162153D01*
X196478Y162131D01*
X196459Y162101D01*
X196440Y162063D01*
X196423Y162016D01*
X196412Y161964D01*
X196407Y161904D01*
Y161883D01*
X196410Y161861D01*
X196415Y161831D01*
X196421Y161795D01*
X196431Y161760D01*
X196445Y161724D01*
X196464Y161689D01*
X196467Y161683D01*
X196475Y161672D01*
X196489Y161659D01*
X196505Y161637D01*
X196527Y161618D01*
X196554Y161596D01*
X196584Y161577D01*
X196620Y161560D01*
X196625Y161558D01*
X196639Y161555D01*
X196663Y161549D01*
X196696Y161541D01*
X196740Y161536D01*
X196794Y161530D01*
X196857Y161528D01*
X196896Y161525D01*
X196934D01*
X198670D01*
Y161192D01*
X196953D01*
X196950D01*
X196939D01*
X196923D01*
X196901D01*
X196874Y161195D01*
X196844D01*
X196808Y161197D01*
X196773Y161203D01*
X196694Y161211D01*
X196612Y161225D01*
X196532Y161244D01*
X196497Y161257D01*
X196461Y161271D01*
X196459D01*
X196453Y161274D01*
X196445Y161279D01*
X196434Y161285D01*
X196401Y161304D01*
X196363Y161331D01*
X196322Y161364D01*
X196279Y161405D01*
X196238Y161457D01*
X196199Y161514D01*
Y161517D01*
X196197Y161522D01*
X196191Y161530D01*
X196186Y161544D01*
X196177Y161558D01*
X196172Y161577D01*
X196164Y161599D01*
X196156Y161623D01*
X196137Y161681D01*
X196123Y161746D01*
X196112Y161820D01*
X196109Y161902D01*
Y161934D01*
X196112Y161956D01*
X196115Y161984D01*
X196120Y162016D01*
X196126Y162052D01*
X196134Y162090D01*
X196142Y162131D01*
X196156Y162172D01*
X196169Y162216D01*
X196188Y162257D01*
X196210Y162300D01*
X196235Y162338D01*
X196265Y162377D01*
X196298Y162412D01*
X196300Y162415D01*
X196306Y162420D01*
X196317Y162429D01*
X196333Y162440D01*
X196352Y162453D01*
X196377Y162467D01*
X196407Y162483D01*
X196440Y162500D01*
X196478Y162513D01*
X196519Y162530D01*
X196565Y162543D01*
X196617Y162557D01*
X196672Y162565D01*
X196732Y162573D01*
X196794Y162579D01*
X196863D01*
X196906Y162278D01*
D02*
G37*
G36*
X198048Y160534D02*
X198050Y160526D01*
X198058Y160512D01*
X198067Y160493D01*
X198078Y160471D01*
X198094Y160444D01*
X198110Y160414D01*
X198127Y160384D01*
X198170Y160313D01*
X198222Y160236D01*
X198277Y160157D01*
X198340Y160083D01*
X198342Y160081D01*
X198348Y160075D01*
X198356Y160064D01*
X198370Y160051D01*
X198386Y160037D01*
X198403Y160018D01*
X198449Y159977D01*
X198498Y159931D01*
X198555Y159884D01*
X198615Y159843D01*
X198678Y159808D01*
Y159608D01*
X196150D01*
Y159917D01*
X198119D01*
X198113Y159923D01*
X198100Y159936D01*
X198080Y159961D01*
X198053Y159996D01*
X198020Y160037D01*
X197985Y160089D01*
X197947Y160146D01*
X197906Y160212D01*
Y160215D01*
X197900Y160220D01*
X197895Y160228D01*
X197889Y160242D01*
X197878Y160258D01*
X197870Y160277D01*
X197846Y160321D01*
X197821Y160370D01*
X197794Y160425D01*
X197769Y160482D01*
X197747Y160537D01*
X198045D01*
X198048Y160534D01*
D02*
G37*
G36*
X47841Y118501D02*
X47876Y118499D01*
X47917Y118496D01*
X47961Y118490D01*
X48010Y118485D01*
X48062Y118477D01*
X48116Y118468D01*
X48234Y118441D01*
X48291Y118422D01*
X48349Y118403D01*
X48409Y118381D01*
X48463Y118354D01*
X48466Y118351D01*
X48477Y118346D01*
X48491Y118337D01*
X48512Y118326D01*
X48537Y118310D01*
X48564Y118291D01*
X48594Y118269D01*
X48630Y118245D01*
X48662Y118215D01*
X48701Y118185D01*
X48736Y118149D01*
X48774Y118111D01*
X48810Y118070D01*
X48845Y118026D01*
X48878Y117977D01*
X48908Y117928D01*
X48911Y117925D01*
X48914Y117914D01*
X48922Y117901D01*
X48933Y117879D01*
X48944Y117854D01*
X48957Y117822D01*
X48971Y117786D01*
X48985Y117748D01*
X48998Y117704D01*
X49012Y117655D01*
X49026Y117606D01*
X49036Y117551D01*
X49056Y117439D01*
X49058Y117379D01*
X49061Y117316D01*
Y117281D01*
X49058Y117254D01*
X49056Y117221D01*
X49050Y117183D01*
X49045Y117142D01*
X49036Y117095D01*
X49026Y117046D01*
X49015Y116994D01*
X48998Y116942D01*
X48979Y116888D01*
X48957Y116833D01*
X48930Y116781D01*
X48903Y116729D01*
X48867Y116680D01*
X48864Y116678D01*
X48859Y116669D01*
X48848Y116656D01*
X48832Y116639D01*
X48813Y116618D01*
X48788Y116593D01*
X48761Y116568D01*
X48728Y116538D01*
X48693Y116508D01*
X48652Y116478D01*
X48608Y116448D01*
X48559Y116421D01*
X48507Y116391D01*
X48450Y116366D01*
X48390Y116342D01*
X48327Y116320D01*
X48250Y116648D01*
X48253D01*
X48261Y116653D01*
X48278Y116656D01*
X48297Y116664D01*
X48318Y116672D01*
X48343Y116686D01*
X48403Y116713D01*
X48469Y116749D01*
X48537Y116795D01*
X48600Y116844D01*
X48627Y116874D01*
X48652Y116904D01*
X48654Y116907D01*
X48657Y116912D01*
X48662Y116921D01*
X48671Y116934D01*
X48682Y116951D01*
X48693Y116970D01*
X48703Y116992D01*
X48714Y117019D01*
X48725Y117049D01*
X48736Y117079D01*
X48758Y117150D01*
X48772Y117232D01*
X48777Y117276D01*
Y117349D01*
X48774Y117371D01*
X48772Y117396D01*
X48769Y117426D01*
X48766Y117458D01*
X48761Y117491D01*
X48742Y117570D01*
X48717Y117652D01*
X48701Y117693D01*
X48682Y117734D01*
X48660Y117772D01*
X48635Y117811D01*
X48632Y117813D01*
X48630Y117819D01*
X48621Y117830D01*
X48611Y117843D01*
X48597Y117857D01*
X48578Y117876D01*
X48559Y117895D01*
X48537Y117917D01*
X48510Y117939D01*
X48482Y117963D01*
X48419Y118007D01*
X48346Y118048D01*
X48261Y118084D01*
X48258D01*
X48250Y118086D01*
X48237Y118092D01*
X48220Y118095D01*
X48198Y118100D01*
X48174Y118108D01*
X48144Y118114D01*
X48114Y118122D01*
X48078Y118130D01*
X48040Y118135D01*
X47958Y118149D01*
X47871Y118157D01*
X47778Y118160D01*
X47775D01*
X47764D01*
X47748D01*
X47723Y118157D01*
X47696D01*
X47663Y118155D01*
X47628Y118152D01*
X47587Y118149D01*
X47543Y118144D01*
X47499Y118138D01*
X47404Y118122D01*
X47308Y118097D01*
X47216Y118067D01*
X47213D01*
X47205Y118062D01*
X47194Y118056D01*
X47177Y118051D01*
X47155Y118040D01*
X47134Y118026D01*
X47082Y117996D01*
X47022Y117955D01*
X46964Y117906D01*
X46907Y117846D01*
X46883Y117813D01*
X46858Y117778D01*
Y117775D01*
X46852Y117770D01*
X46847Y117759D01*
X46839Y117742D01*
X46831Y117723D01*
X46820Y117701D01*
X46812Y117677D01*
X46801Y117649D01*
X46779Y117587D01*
X46760Y117513D01*
X46746Y117434D01*
X46743Y117393D01*
X46741Y117349D01*
Y117322D01*
X46743Y117303D01*
X46746Y117278D01*
X46749Y117251D01*
X46754Y117218D01*
X46760Y117185D01*
X46779Y117109D01*
X46792Y117071D01*
X46809Y117030D01*
X46828Y116989D01*
X46850Y116951D01*
X46874Y116912D01*
X46902Y116874D01*
X46904Y116871D01*
X46910Y116866D01*
X46918Y116855D01*
X46932Y116841D01*
X46948Y116828D01*
X46970Y116809D01*
X46995Y116789D01*
X47022Y116768D01*
X47054Y116746D01*
X47090Y116724D01*
X47128Y116702D01*
X47172Y116680D01*
X47218Y116661D01*
X47270Y116642D01*
X47325Y116623D01*
X47382Y116609D01*
X47297Y116276D01*
X47292D01*
X47278Y116282D01*
X47259Y116287D01*
X47229Y116298D01*
X47196Y116309D01*
X47155Y116325D01*
X47112Y116342D01*
X47065Y116364D01*
X47014Y116388D01*
X46964Y116416D01*
X46910Y116446D01*
X46858Y116481D01*
X46809Y116519D01*
X46760Y116560D01*
X46713Y116607D01*
X46670Y116656D01*
X46667Y116658D01*
X46661Y116669D01*
X46650Y116683D01*
X46637Y116705D01*
X46620Y116729D01*
X46601Y116762D01*
X46582Y116798D01*
X46563Y116841D01*
X46544Y116888D01*
X46525Y116937D01*
X46506Y116992D01*
X46489Y117052D01*
X46476Y117114D01*
X46465Y117180D01*
X46459Y117248D01*
X46457Y117322D01*
Y117360D01*
X46459Y117390D01*
X46462Y117423D01*
X46465Y117464D01*
X46470Y117508D01*
X46479Y117557D01*
X46487Y117608D01*
X46498Y117663D01*
X46511Y117718D01*
X46525Y117772D01*
X46544Y117830D01*
X46566Y117884D01*
X46590Y117936D01*
X46620Y117985D01*
X46623Y117988D01*
X46629Y117996D01*
X46637Y118010D01*
X46650Y118026D01*
X46670Y118048D01*
X46689Y118073D01*
X46713Y118100D01*
X46743Y118130D01*
X46776Y118160D01*
X46812Y118193D01*
X46850Y118223D01*
X46894Y118255D01*
X46940Y118288D01*
X46989Y118318D01*
X47044Y118346D01*
X47101Y118373D01*
X47104Y118376D01*
X47115Y118378D01*
X47134Y118384D01*
X47155Y118392D01*
X47186Y118403D01*
X47218Y118414D01*
X47259Y118425D01*
X47303Y118438D01*
X47352Y118449D01*
X47404Y118463D01*
X47459Y118474D01*
X47519Y118482D01*
X47644Y118499D01*
X47710Y118501D01*
X47775Y118504D01*
X47781D01*
X47792D01*
X47813D01*
X47841Y118501D01*
D02*
G37*
G36*
X49017Y114944D02*
Y114690D01*
X47385D01*
Y114349D01*
X47101D01*
Y114690D01*
X46498D01*
Y114999D01*
X47101D01*
Y116096D01*
X47385D01*
X49017Y114944D01*
D02*
G37*
%LPC*%
G36*
X294549Y137943D02*
X293970D01*
X293948Y137941D01*
X293924D01*
X293869Y137938D01*
X293806Y137933D01*
X293741Y137924D01*
X293678Y137914D01*
X293621Y137900D01*
X293618D01*
X293615Y137897D01*
X293607Y137894D01*
X293596Y137892D01*
X293571Y137881D01*
X293539Y137867D01*
X293503Y137848D01*
X293465Y137826D01*
X293427Y137799D01*
X293394Y137769D01*
X293391Y137766D01*
X293389Y137763D01*
X293375Y137747D01*
X293353Y137720D01*
X293326Y137684D01*
X293299Y137638D01*
X293268Y137583D01*
X293238Y137520D01*
X293211Y137449D01*
Y137447D01*
X293208Y137441D01*
X293206Y137430D01*
X293200Y137414D01*
X293195Y137395D01*
X293189Y137370D01*
X293184Y137343D01*
X293176Y137313D01*
X293170Y137280D01*
X293165Y137242D01*
X293159Y137204D01*
X293154Y137160D01*
X293146Y137067D01*
X293143Y136963D01*
Y136958D01*
Y136947D01*
Y136925D01*
X293146Y136898D01*
Y136865D01*
X293148Y136827D01*
X293154Y136786D01*
X293159Y136740D01*
X293176Y136641D01*
X293197Y136540D01*
X293230Y136445D01*
X293252Y136398D01*
X293274Y136357D01*
X293277Y136355D01*
X293279Y136349D01*
X293288Y136338D01*
X293299Y136322D01*
X293309Y136305D01*
X293326Y136286D01*
X293361Y136243D01*
X293408Y136194D01*
X293462Y136147D01*
X293522Y136103D01*
X293555Y136087D01*
X293591Y136071D01*
X293593D01*
X293596Y136068D01*
X293604Y136065D01*
X293615Y136063D01*
X293632Y136060D01*
X293648Y136054D01*
X293670Y136049D01*
X293694Y136044D01*
X293722Y136041D01*
X293754Y136035D01*
X293790Y136030D01*
X293828Y136027D01*
X293872Y136024D01*
X293918Y136022D01*
X293967Y136019D01*
X294549D01*
Y137943D01*
D02*
G37*
G36*
X354064Y139025D02*
X353483D01*
Y137100D01*
X354061D01*
X354083Y137103D01*
X354108D01*
X354162Y137106D01*
X354225Y137111D01*
X354291Y137119D01*
X354353Y137130D01*
X354411Y137144D01*
X354414D01*
X354416Y137146D01*
X354425Y137149D01*
X354435Y137152D01*
X354460Y137163D01*
X354493Y137177D01*
X354528Y137196D01*
X354567Y137217D01*
X354605Y137245D01*
X354638Y137275D01*
X354640Y137278D01*
X354643Y137280D01*
X354657Y137297D01*
X354678Y137324D01*
X354706Y137359D01*
X354733Y137406D01*
X354763Y137460D01*
X354793Y137523D01*
X354820Y137594D01*
Y137597D01*
X354823Y137602D01*
X354826Y137613D01*
X354831Y137630D01*
X354837Y137649D01*
X354842Y137673D01*
X354848Y137701D01*
X354856Y137731D01*
X354861Y137764D01*
X354867Y137802D01*
X354872Y137840D01*
X354878Y137884D01*
X354886Y137977D01*
X354889Y138080D01*
Y138086D01*
Y138097D01*
Y138118D01*
X354886Y138146D01*
Y138179D01*
X354883Y138217D01*
X354878Y138258D01*
X354872Y138304D01*
X354856Y138402D01*
X354834Y138503D01*
X354801Y138599D01*
X354779Y138645D01*
X354758Y138686D01*
X354755Y138689D01*
X354752Y138695D01*
X354744Y138705D01*
X354733Y138722D01*
X354722Y138738D01*
X354706Y138757D01*
X354670Y138801D01*
X354624Y138850D01*
X354569Y138897D01*
X354509Y138940D01*
X354476Y138956D01*
X354441Y138973D01*
X354438D01*
X354435Y138976D01*
X354427Y138978D01*
X354416Y138981D01*
X354400Y138984D01*
X354384Y138989D01*
X354362Y138995D01*
X354337Y139000D01*
X354310Y139003D01*
X354277Y139008D01*
X354242Y139014D01*
X354203Y139017D01*
X354160Y139019D01*
X354113Y139022D01*
X354064Y139025D01*
D02*
G37*
G36*
X324930Y138981D02*
X324349D01*
Y137056D01*
X324928D01*
X324949Y137059D01*
X324974D01*
X325029Y137062D01*
X325091Y137067D01*
X325157Y137076D01*
X325220Y137086D01*
X325277Y137100D01*
X325280D01*
X325283Y137103D01*
X325291Y137106D01*
X325302Y137108D01*
X325326Y137119D01*
X325359Y137133D01*
X325394Y137152D01*
X325433Y137174D01*
X325471Y137201D01*
X325504Y137231D01*
X325506Y137234D01*
X325509Y137237D01*
X325523Y137253D01*
X325545Y137280D01*
X325572Y137316D01*
X325599Y137362D01*
X325629Y137417D01*
X325659Y137480D01*
X325687Y137551D01*
Y137553D01*
X325689Y137559D01*
X325692Y137570D01*
X325697Y137586D01*
X325703Y137605D01*
X325708Y137630D01*
X325714Y137657D01*
X325722Y137687D01*
X325728Y137720D01*
X325733Y137758D01*
X325738Y137796D01*
X325744Y137840D01*
X325752Y137933D01*
X325755Y138037D01*
Y138042D01*
Y138053D01*
Y138075D01*
X325752Y138102D01*
Y138135D01*
X325749Y138173D01*
X325744Y138214D01*
X325738Y138260D01*
X325722Y138359D01*
X325700Y138460D01*
X325667Y138555D01*
X325646Y138602D01*
X325624Y138643D01*
X325621Y138645D01*
X325618Y138651D01*
X325610Y138662D01*
X325599Y138678D01*
X325588Y138695D01*
X325572Y138714D01*
X325536Y138757D01*
X325490Y138806D01*
X325435Y138853D01*
X325375Y138897D01*
X325342Y138913D01*
X325307Y138929D01*
X325304D01*
X325302Y138932D01*
X325293Y138935D01*
X325283Y138937D01*
X325266Y138940D01*
X325250Y138946D01*
X325228Y138951D01*
X325203Y138956D01*
X325176Y138959D01*
X325143Y138965D01*
X325108Y138970D01*
X325069Y138973D01*
X325026Y138976D01*
X324979Y138978D01*
X324930Y138981D01*
D02*
G37*
G36*
X150170Y121892D02*
X150151D01*
X150137Y121889D01*
X150118Y121886D01*
X150099Y121884D01*
X150052Y121873D01*
X150001Y121854D01*
X149971Y121840D01*
X149943Y121826D01*
X149913Y121807D01*
X149886Y121788D01*
X149859Y121764D01*
X149831Y121736D01*
X149829Y121733D01*
X149826Y121728D01*
X149818Y121720D01*
X149810Y121706D01*
X149799Y121690D01*
X149788Y121671D01*
X149774Y121649D01*
X149760Y121622D01*
X149747Y121594D01*
X149733Y121562D01*
X149722Y121526D01*
X149711Y121488D01*
X149703Y121447D01*
X149695Y121400D01*
X149692Y121354D01*
X149689Y121305D01*
Y121302D01*
Y121294D01*
Y121280D01*
X149692Y121261D01*
X149695Y121239D01*
X149698Y121215D01*
X149700Y121187D01*
X149706Y121158D01*
X149722Y121092D01*
X149747Y121024D01*
X149763Y120988D01*
X149782Y120955D01*
X149804Y120925D01*
X149829Y120895D01*
X149831Y120893D01*
X149834Y120890D01*
X149842Y120882D01*
X149853Y120871D01*
X149867Y120860D01*
X149883Y120846D01*
X149924Y120819D01*
X149976Y120792D01*
X150036Y120767D01*
X150104Y120748D01*
X150143Y120745D01*
X150181Y120742D01*
X150200D01*
X150216Y120745D01*
X150233Y120748D01*
X150254Y120751D01*
X150304Y120762D01*
X150361Y120781D01*
X150421Y120808D01*
X150451Y120824D01*
X150481Y120844D01*
X150511Y120868D01*
X150539Y120895D01*
X150541Y120898D01*
X150544Y120904D01*
X150552Y120912D01*
X150560Y120923D01*
X150571Y120936D01*
X150585Y120955D01*
X150599Y120977D01*
X150609Y121002D01*
X150623Y121026D01*
X150637Y121056D01*
X150661Y121125D01*
X150678Y121201D01*
X150680Y121245D01*
X150683Y121289D01*
Y121291D01*
Y121297D01*
Y121305D01*
Y121316D01*
X150680Y121329D01*
Y121346D01*
X150675Y121387D01*
X150667Y121433D01*
X150656Y121485D01*
X150639Y121540D01*
X150618Y121594D01*
Y121597D01*
X150615Y121600D01*
X150609Y121608D01*
X150604Y121619D01*
X150590Y121643D01*
X150568Y121676D01*
X150541Y121712D01*
X150508Y121747D01*
X150473Y121783D01*
X150429Y121815D01*
X150426D01*
X150424Y121818D01*
X150407Y121826D01*
X150383Y121840D01*
X150350Y121854D01*
X150312Y121867D01*
X150268Y121881D01*
X150219Y121889D01*
X150170Y121892D01*
D02*
G37*
G36*
X47385Y115793D02*
Y114999D01*
X48520D01*
X47385Y115793D01*
D02*
G37*
%LPD*%
D12*
X289961Y135335D02*
X299803D01*
X289961D02*
Y139665D01*
X299803D01*
Y135335D02*
Y139665D01*
X157456Y11295D02*
X165378D01*
Y26303D01*
X157456D02*
X165378D01*
X157456Y11295D02*
Y26303D01*
X348228Y135335D02*
Y139665D01*
Y135335D02*
X358071D01*
Y139665D01*
X348228D02*
X358071D01*
X319094Y135335D02*
Y139665D01*
Y135335D02*
X328937D01*
Y139665D01*
X319094D02*
X328937D01*
X261787Y126059D02*
Y141067D01*
X269709D01*
Y126059D02*
Y141067D01*
X261787Y126059D02*
X269709D01*
X240134Y138657D02*
Y153666D01*
X248055D01*
Y138657D02*
Y153666D01*
X240134Y138657D02*
X248055D01*
X217889Y8539D02*
Y23548D01*
X225811D01*
Y8539D02*
Y23548D01*
X217889Y8539D02*
X225811D01*
X168126Y126107D02*
X183134D01*
Y118185D02*
Y126107D01*
X168126Y118185D02*
X183134D01*
X168126D02*
Y126107D01*
X161040Y118185D02*
Y126107D01*
X146032D02*
X161040D01*
X146032Y118185D02*
Y126107D01*
Y118185D02*
X161040D01*
X163701Y193405D02*
X230000D01*
X163701Y131752D02*
Y193405D01*
Y131752D02*
X230000D01*
Y193405D01*
X42496Y126008D02*
X50418D01*
X42496Y111000D02*
Y126008D01*
Y111000D02*
X50418D01*
Y126008D01*
M02*
