G04*
G04 #@! TF.GenerationSoftware,Altium Limited,Altium Designer,21.2.2 (38)*
G04*
G04 Layer_Color=16711935*
%FSLAX25Y25*%
%MOIN*%
G70*
G04*
G04 #@! TF.SameCoordinates,A8DC1787-E1FC-4306-BF81-433DAE83029F*
G04*
G04*
G04 #@! TF.FilePolarity,Negative*
G04*
G01*
G75*
%ADD33C,0.04173*%
%ADD34C,0.05709*%
%ADD35C,0.05315*%
%ADD36C,0.07087*%
%ADD37R,0.07087X0.07087*%
%ADD38C,0.13780*%
%ADD39C,0.03740*%
D33*
X189764Y54331D02*
D03*
X194095D02*
D03*
D34*
X371828Y69195D02*
D03*
X341828D02*
D03*
X381828Y26479D02*
D03*
X331828D02*
D03*
X381828Y76479D02*
D03*
X331828D02*
D03*
X13409Y76279D02*
D03*
X63409D02*
D03*
X13409Y26280D02*
D03*
X63409D02*
D03*
X23409Y68996D02*
D03*
X53409D02*
D03*
X302402D02*
D03*
X272402D02*
D03*
X312402Y26280D02*
D03*
X262402D02*
D03*
X312402Y76279D02*
D03*
X262402D02*
D03*
X125236Y68996D02*
D03*
X95236D02*
D03*
X135236Y26280D02*
D03*
X85236D02*
D03*
X135236Y76279D02*
D03*
X85236D02*
D03*
D35*
X359978Y59353D02*
D03*
Y43605D02*
D03*
X365883D02*
D03*
Y59353D02*
D03*
X47464Y59153D02*
D03*
X41558Y43406D02*
D03*
X47464D02*
D03*
X41558Y59153D02*
D03*
X290551D02*
D03*
Y43406D02*
D03*
X296457D02*
D03*
Y59153D02*
D03*
X113386D02*
D03*
Y43406D02*
D03*
X119291D02*
D03*
Y59153D02*
D03*
D36*
X69055Y161516D02*
D03*
X59055D02*
D03*
X69055Y151516D02*
D03*
X59055D02*
D03*
X49055Y161516D02*
D03*
Y151516D02*
D03*
X29055Y161516D02*
D03*
X39055Y151516D02*
D03*
Y161516D02*
D03*
D37*
X29055Y151516D02*
D03*
D38*
X170984Y152539D02*
D03*
X222716Y152539D02*
D03*
D39*
X173071Y93996D02*
D03*
X179331Y73622D02*
D03*
X177281Y80560D02*
D03*
X167514Y82974D02*
D03*
X204350Y64372D02*
D03*
X174409Y73622D02*
D03*
X158563Y81693D02*
D03*
X168855Y141831D02*
D03*
X159252Y150394D02*
D03*
X160039Y155217D02*
D03*
X197237Y178030D02*
D03*
X198327Y156028D02*
D03*
X202354Y167811D02*
D03*
X192027Y167642D02*
D03*
X150000Y74592D02*
D03*
X194437Y112167D02*
D03*
X207283Y119095D02*
D03*
X203248Y124138D02*
D03*
X202756Y128609D02*
D03*
X207087Y113878D02*
D03*
X196063Y117028D02*
D03*
X192913Y122146D02*
D03*
X192126Y127657D02*
D03*
X146653Y13484D02*
D03*
X187303Y74606D02*
D03*
X213071Y77461D02*
D03*
X198425Y78740D02*
D03*
X190419Y44243D02*
D03*
X163189Y60138D02*
D03*
X189676Y77495D02*
D03*
X193071Y75492D02*
D03*
X150461Y47486D02*
D03*
X170430Y106988D02*
D03*
X166931Y102263D02*
D03*
X299843Y83563D02*
D03*
X345036Y94488D02*
D03*
X348232Y57956D02*
D03*
X326926Y59252D02*
D03*
X310549Y59252D02*
D03*
X302615Y99213D02*
D03*
X236813Y125857D02*
D03*
X231552Y126181D02*
D03*
X271414Y93799D02*
D03*
X242182Y93898D02*
D03*
X294446Y33957D02*
D03*
X248087Y28937D02*
D03*
X284308Y23031D02*
D03*
X274374Y34021D02*
D03*
X257697Y37356D02*
D03*
X142651Y106569D02*
D03*
X118461Y98327D02*
D03*
X90491Y102518D02*
D03*
X73481Y112697D02*
D03*
X353501Y159547D02*
D03*
X295472Y157579D02*
D03*
X285630Y175787D02*
D03*
X246519Y169327D02*
D03*
X278839Y162500D02*
D03*
X284547Y146260D02*
D03*
X309813Y121793D02*
D03*
X296611Y112303D02*
D03*
X277123Y120965D02*
D03*
X257665Y114569D02*
D03*
X259997Y122146D02*
D03*
X255666Y108169D02*
D03*
X247595Y115256D02*
D03*
X227812Y117421D02*
D03*
X235390Y110335D02*
D03*
X219403Y114341D02*
D03*
X215784Y122441D02*
D03*
X208028Y124213D02*
D03*
X385981Y172343D02*
D03*
X386276Y152067D02*
D03*
X386572Y131791D02*
D03*
X386337Y106925D02*
D03*
X386965Y87303D02*
D03*
X386670Y60532D02*
D03*
X386769Y43602D02*
D03*
X386276Y17028D02*
D03*
X382144Y7144D02*
D03*
X361473Y6890D02*
D03*
X341887Y6988D02*
D03*
X314721Y6496D02*
D03*
X293363Y6299D02*
D03*
X273481Y6201D02*
D03*
X253796D02*
D03*
X237457Y6299D02*
D03*
X137064Y7283D02*
D03*
X117772Y7087D02*
D03*
X97005D02*
D03*
X76828Y7185D02*
D03*
X55863D02*
D03*
X31453Y7382D02*
D03*
X9209Y13386D02*
D03*
X8422Y45374D02*
D03*
X8816Y64961D02*
D03*
X9013Y97146D02*
D03*
X8520Y118405D02*
D03*
X8324Y140847D02*
D03*
X7831Y165748D02*
D03*
X386670Y187894D02*
D03*
X363442Y188091D02*
D03*
X341198Y189075D02*
D03*
X319741Y189272D02*
D03*
X298383Y189370D02*
D03*
X275843Y189469D02*
D03*
X249564D02*
D03*
X223973Y189370D02*
D03*
X201926Y189567D02*
D03*
X182536Y189469D02*
D03*
X164820Y189764D02*
D03*
X146217Y189862D02*
D03*
X127910Y189764D02*
D03*
X107142D02*
D03*
X89524D02*
D03*
X70135Y189665D02*
D03*
X50843D02*
D03*
X34997Y189862D02*
D03*
X21203Y189906D02*
D03*
X7831Y189961D02*
D03*
X214340Y71961D02*
D03*
X142377Y49006D02*
D03*
X186618Y122663D02*
D03*
X183127Y130512D02*
D03*
X174195Y131507D02*
D03*
X126713Y137929D02*
D03*
X130503Y129981D02*
D03*
X125942Y122441D02*
D03*
X146085Y130875D02*
D03*
X144663Y123664D02*
D03*
X145036Y118405D02*
D03*
X156890Y73646D02*
D03*
X154975Y62766D02*
D03*
X181299Y59768D02*
D03*
X206693Y74311D02*
D03*
X203071Y75492D02*
D03*
X226969Y12622D02*
D03*
X218504Y7406D02*
D03*
X214499Y9728D02*
D03*
X217126Y13114D02*
D03*
X217843Y21503D02*
D03*
X227658Y18528D02*
D03*
X217815Y33193D02*
D03*
X224016Y26992D02*
D03*
X218996Y27583D02*
D03*
X227461Y22760D02*
D03*
X203277Y5217D02*
D03*
X193283Y41545D02*
D03*
X196457Y44015D02*
D03*
X120141Y152788D02*
D03*
X120866Y139567D02*
D03*
X109350Y146752D02*
D03*
X98817Y153662D02*
D03*
X92816Y163508D02*
D03*
X98176Y133212D02*
D03*
X88155Y141776D02*
D03*
X90453Y130217D02*
D03*
X80814Y140786D02*
D03*
X78892Y129833D02*
D03*
X67006Y140087D02*
D03*
X59782Y133969D02*
D03*
X51509Y141718D02*
D03*
X43799Y142224D02*
D03*
X223862Y161417D02*
D03*
X236221D02*
D03*
X230806Y165354D02*
D03*
X222716Y169291D02*
D03*
X160039Y165354D02*
D03*
X151730Y155417D02*
D03*
X150379Y141732D02*
D03*
X160827Y134055D02*
D03*
X159702Y141732D02*
D03*
X188827Y21945D02*
D03*
X186679Y27381D02*
D03*
X193898Y23622D02*
D03*
X208366Y19200D02*
D03*
X200893Y21414D02*
D03*
X204921Y23622D02*
D03*
Y27559D02*
D03*
X200231Y27328D02*
D03*
X195669Y27559D02*
D03*
X251969Y55118D02*
D03*
X237784Y47155D02*
D03*
X244094Y55118D02*
D03*
X248031Y62797D02*
D03*
X244094Y70866D02*
D03*
X214340Y61789D02*
D03*
X221939D02*
D03*
X224410Y66144D02*
D03*
X225479Y71961D02*
D03*
X181890Y18021D02*
D03*
X199803Y6791D02*
D03*
X340453Y117717D02*
D03*
X329035Y115945D02*
D03*
X223299Y32945D02*
D03*
X232776Y148819D02*
D03*
X232972Y154134D02*
D03*
X219340Y71961D02*
D03*
X198035Y30390D02*
D03*
X185236Y18406D02*
D03*
X187894Y16634D02*
D03*
X195571Y16508D02*
D03*
X221850Y21579D02*
D03*
X148819Y33268D02*
D03*
X170669Y8661D02*
D03*
X237784Y61222D02*
D03*
X214469Y101279D02*
D03*
X209449D02*
D03*
X117028Y115847D02*
D03*
M02*
