G04*
G04 #@! TF.GenerationSoftware,Altium Limited,Altium Designer,21.3.2 (30)*
G04*
G04 Layer_Color=65535*
%FSLAX25Y25*%
%MOIN*%
G70*
G04*
G04 #@! TF.SameCoordinates,75D106E2-5011-445C-8AED-ED28EDA0CE08*
G04*
G04*
G04 #@! TF.FilePolarity,Positive*
G04*
G01*
G75*
%ADD10C,0.00394*%
%ADD11C,0.00984*%
%ADD12C,0.00787*%
%ADD13C,0.01000*%
G36*
X36547Y188119D02*
X36577Y188114D01*
X36611Y188094D01*
X36645Y188069D01*
X36685Y188030D01*
X36714Y187971D01*
X36724Y187936D01*
X36734Y187897D01*
Y187887D01*
X36739Y187863D01*
X36749Y187818D01*
X36759Y187759D01*
X36764Y187686D01*
X36773Y187602D01*
X36778Y187508D01*
Y187400D01*
Y187395D01*
Y187385D01*
X36773Y187366D01*
Y187341D01*
X36754Y187282D01*
X36739Y187253D01*
X36719Y187223D01*
X36714Y187218D01*
X36709Y187208D01*
X36695Y187194D01*
X36670Y187179D01*
X36645Y187159D01*
X36616Y187144D01*
X36577Y187135D01*
X36532Y187130D01*
X36527D01*
X36508Y187135D01*
X36478Y187139D01*
X36444Y187154D01*
X36404Y187174D01*
X36365Y187208D01*
X36331Y187253D01*
X36296Y187312D01*
X36291Y187317D01*
X36286Y187336D01*
X36272Y187366D01*
X36252Y187395D01*
X36232Y187430D01*
X36208Y187464D01*
X36188Y187489D01*
X36163Y187508D01*
X36153Y187513D01*
X36139Y187518D01*
X36114Y187523D01*
X36080Y187528D01*
X36035Y187533D01*
X35976Y187538D01*
X35893D01*
X35873Y187533D01*
X35843Y187528D01*
X35809Y187523D01*
X35770Y187508D01*
X35725Y187494D01*
X35671Y187469D01*
X35617Y187440D01*
X35553Y187400D01*
X35489Y187356D01*
X35420Y187302D01*
X35346Y187238D01*
X35273Y187164D01*
X35194Y187080D01*
X35110Y186982D01*
X35105Y186972D01*
X35086Y186948D01*
X35056Y186908D01*
X35017Y186854D01*
X34973Y186790D01*
X34923Y186711D01*
X34869Y186628D01*
X34815Y186529D01*
X34756Y186426D01*
X34702Y186318D01*
X34653Y186200D01*
X34609Y186082D01*
X34569Y185954D01*
X34540Y185831D01*
X34520Y185703D01*
X34515Y185580D01*
Y185575D01*
Y185565D01*
Y185550D01*
X34520Y185526D01*
Y185501D01*
X34525Y185467D01*
X34540Y185393D01*
X34564Y185304D01*
X34599Y185211D01*
X34648Y185117D01*
X34717Y185029D01*
X34722Y185024D01*
X34727Y185019D01*
X34756Y184994D01*
X34800Y184955D01*
X34859Y184911D01*
X34933Y184866D01*
X35022Y184832D01*
X35120Y184802D01*
X35174Y184798D01*
X35228Y184793D01*
X35273D01*
X35322Y184798D01*
X35386Y184807D01*
X35465Y184822D01*
X35548Y184847D01*
X35642Y184876D01*
X35740Y184921D01*
X35745Y184925D01*
X35770Y184935D01*
X35799Y184955D01*
X35848Y184984D01*
X35912Y185024D01*
X35986Y185073D01*
X36075Y185137D01*
X36178Y185211D01*
X36183Y185216D01*
X36203Y185225D01*
X36227Y185245D01*
X36257Y185265D01*
X36296Y185285D01*
X36331Y185304D01*
X36365Y185314D01*
X36395Y185319D01*
X36414D01*
X36429Y185314D01*
X36454Y185309D01*
X36483Y185299D01*
X36513Y185285D01*
X36542Y185265D01*
X36572Y185235D01*
X36577Y185230D01*
X36581Y185221D01*
X36596Y185206D01*
X36611Y185186D01*
X36636Y185127D01*
X36641Y185093D01*
X36645Y185058D01*
Y185053D01*
Y185039D01*
X36641Y185019D01*
X36636Y184989D01*
X36621Y184960D01*
X36606Y184925D01*
X36581Y184896D01*
X36547Y184861D01*
X36542Y184856D01*
X36518Y184837D01*
X36483Y184807D01*
X36434Y184773D01*
X36375Y184729D01*
X36306Y184679D01*
X36227Y184625D01*
X36139Y184576D01*
X36040Y184522D01*
X35937Y184468D01*
X35829Y184419D01*
X35711Y184374D01*
X35592Y184340D01*
X35474Y184310D01*
X35346Y184291D01*
X35223Y184286D01*
X35199D01*
X35174Y184291D01*
X35140D01*
X35096Y184296D01*
X35041Y184306D01*
X34987Y184320D01*
X34923Y184335D01*
X34859Y184355D01*
X34786Y184384D01*
X34717Y184414D01*
X34643Y184453D01*
X34569Y184497D01*
X34495Y184552D01*
X34427Y184610D01*
X34358Y184679D01*
X34353Y184684D01*
X34343Y184699D01*
X34328Y184719D01*
X34304Y184748D01*
X34279Y184783D01*
X34249Y184827D01*
X34220Y184876D01*
X34190Y184935D01*
X34156Y184999D01*
X34126Y185068D01*
X34097Y185142D01*
X34072Y185221D01*
X34048Y185304D01*
X34033Y185393D01*
X34023Y185486D01*
X34018Y185580D01*
Y185585D01*
Y185590D01*
Y185619D01*
X34023Y185663D01*
X34028Y185727D01*
X34038Y185801D01*
X34058Y185895D01*
X34077Y185998D01*
X34107Y186111D01*
X34141Y186239D01*
X34190Y186372D01*
X34244Y186515D01*
X34313Y186662D01*
X34397Y186820D01*
X34490Y186977D01*
X34599Y187139D01*
X34722Y187307D01*
X34727Y187317D01*
X34746Y187336D01*
X34781Y187376D01*
X34825Y187420D01*
X34874Y187479D01*
X34938Y187538D01*
X35012Y187607D01*
X35091Y187676D01*
X35174Y187745D01*
X35268Y187813D01*
X35366Y187873D01*
X35469Y187932D01*
X35573Y187976D01*
X35686Y188015D01*
X35794Y188035D01*
X35907Y188045D01*
X35981D01*
X36050Y188040D01*
X36124Y188030D01*
X36139D01*
X36158Y188025D01*
X36183Y188020D01*
X36237Y188010D01*
X36296Y187996D01*
X36301Y188000D01*
X36311Y188015D01*
X36331Y188035D01*
X36355Y188059D01*
X36390Y188084D01*
X36429Y188104D01*
X36473Y188119D01*
X36522Y188123D01*
X36532D01*
X36547Y188119D01*
D02*
G37*
G36*
X33487D02*
X33516Y188114D01*
X33551Y188094D01*
X33585Y188069D01*
X33625Y188030D01*
X33654Y187971D01*
X33664Y187936D01*
X33674Y187897D01*
Y187887D01*
X33679Y187863D01*
X33689Y187818D01*
X33698Y187759D01*
X33703Y187686D01*
X33713Y187602D01*
X33718Y187508D01*
Y187400D01*
Y187395D01*
Y187385D01*
X33713Y187366D01*
Y187341D01*
X33693Y187282D01*
X33679Y187253D01*
X33659Y187223D01*
X33654Y187218D01*
X33649Y187208D01*
X33634Y187194D01*
X33610Y187179D01*
X33585Y187159D01*
X33556Y187144D01*
X33516Y187135D01*
X33472Y187130D01*
X33467D01*
X33447Y187135D01*
X33418Y187139D01*
X33383Y187154D01*
X33344Y187174D01*
X33305Y187208D01*
X33270Y187253D01*
X33236Y187312D01*
X33231Y187317D01*
X33226Y187336D01*
X33211Y187366D01*
X33192Y187395D01*
X33172Y187430D01*
X33147Y187464D01*
X33128Y187489D01*
X33103Y187508D01*
X33093Y187513D01*
X33078Y187518D01*
X33054Y187523D01*
X33019Y187528D01*
X32975Y187533D01*
X32916Y187538D01*
X32832D01*
X32813Y187533D01*
X32783Y187528D01*
X32749Y187523D01*
X32709Y187508D01*
X32665Y187494D01*
X32611Y187469D01*
X32557Y187440D01*
X32493Y187400D01*
X32429Y187356D01*
X32360Y187302D01*
X32286Y187238D01*
X32212Y187164D01*
X32134Y187080D01*
X32050Y186982D01*
X32045Y186972D01*
X32026Y186948D01*
X31996Y186908D01*
X31957Y186854D01*
X31912Y186790D01*
X31863Y186711D01*
X31809Y186628D01*
X31755Y186529D01*
X31696Y186426D01*
X31642Y186318D01*
X31593Y186200D01*
X31548Y186082D01*
X31509Y185954D01*
X31479Y185831D01*
X31460Y185703D01*
X31455Y185580D01*
Y185575D01*
Y185565D01*
Y185550D01*
X31460Y185526D01*
Y185501D01*
X31465Y185467D01*
X31479Y185393D01*
X31504Y185304D01*
X31538Y185211D01*
X31588Y185117D01*
X31657Y185029D01*
X31661Y185024D01*
X31666Y185019D01*
X31696Y184994D01*
X31740Y184955D01*
X31799Y184911D01*
X31873Y184866D01*
X31962Y184832D01*
X32060Y184802D01*
X32114Y184798D01*
X32168Y184793D01*
X32212D01*
X32262Y184798D01*
X32326Y184807D01*
X32404Y184822D01*
X32488Y184847D01*
X32581Y184876D01*
X32680Y184921D01*
X32685Y184925D01*
X32709Y184935D01*
X32739Y184955D01*
X32788Y184984D01*
X32852Y185024D01*
X32926Y185073D01*
X33014Y185137D01*
X33118Y185211D01*
X33123Y185216D01*
X33142Y185225D01*
X33167Y185245D01*
X33196Y185265D01*
X33236Y185285D01*
X33270Y185304D01*
X33305Y185314D01*
X33334Y185319D01*
X33354D01*
X33369Y185314D01*
X33393Y185309D01*
X33423Y185299D01*
X33452Y185285D01*
X33482Y185265D01*
X33511Y185235D01*
X33516Y185230D01*
X33521Y185221D01*
X33536Y185206D01*
X33551Y185186D01*
X33575Y185127D01*
X33580Y185093D01*
X33585Y185058D01*
Y185053D01*
Y185039D01*
X33580Y185019D01*
X33575Y184989D01*
X33561Y184960D01*
X33546Y184925D01*
X33521Y184896D01*
X33487Y184861D01*
X33482Y184856D01*
X33457Y184837D01*
X33423Y184807D01*
X33374Y184773D01*
X33315Y184729D01*
X33246Y184679D01*
X33167Y184625D01*
X33078Y184576D01*
X32980Y184522D01*
X32877Y184468D01*
X32768Y184419D01*
X32650Y184374D01*
X32532Y184340D01*
X32414Y184310D01*
X32286Y184291D01*
X32163Y184286D01*
X32139D01*
X32114Y184291D01*
X32080D01*
X32035Y184296D01*
X31981Y184306D01*
X31927Y184320D01*
X31863Y184335D01*
X31799Y184355D01*
X31725Y184384D01*
X31657Y184414D01*
X31583Y184453D01*
X31509Y184497D01*
X31435Y184552D01*
X31366Y184610D01*
X31297Y184679D01*
X31292Y184684D01*
X31283Y184699D01*
X31268Y184719D01*
X31243Y184748D01*
X31219Y184783D01*
X31189Y184827D01*
X31160Y184876D01*
X31130Y184935D01*
X31096Y184999D01*
X31066Y185068D01*
X31037Y185142D01*
X31012Y185221D01*
X30987Y185304D01*
X30973Y185393D01*
X30963Y185486D01*
X30958Y185580D01*
Y185585D01*
Y185590D01*
Y185619D01*
X30963Y185663D01*
X30968Y185727D01*
X30978Y185801D01*
X30997Y185895D01*
X31017Y185998D01*
X31046Y186111D01*
X31081Y186239D01*
X31130Y186372D01*
X31184Y186515D01*
X31253Y186662D01*
X31337Y186820D01*
X31430Y186977D01*
X31538Y187139D01*
X31661Y187307D01*
X31666Y187317D01*
X31686Y187336D01*
X31721Y187376D01*
X31765Y187420D01*
X31814Y187479D01*
X31878Y187538D01*
X31952Y187607D01*
X32030Y187676D01*
X32114Y187745D01*
X32208Y187813D01*
X32306Y187873D01*
X32409Y187932D01*
X32513Y187976D01*
X32626Y188015D01*
X32734Y188035D01*
X32847Y188045D01*
X32921D01*
X32990Y188040D01*
X33064Y188030D01*
X33078D01*
X33098Y188025D01*
X33123Y188020D01*
X33177Y188010D01*
X33236Y187996D01*
X33241Y188000D01*
X33251Y188015D01*
X33270Y188035D01*
X33295Y188059D01*
X33329Y188084D01*
X33369Y188104D01*
X33413Y188119D01*
X33462Y188123D01*
X33472D01*
X33487Y188119D01*
D02*
G37*
G36*
X26668Y187139D02*
X26712Y187120D01*
X26737Y187110D01*
X26761Y187090D01*
X26786Y187066D01*
X26810Y187041D01*
X26835Y187002D01*
X26855Y186962D01*
X26874Y186913D01*
X26889Y186854D01*
X26894Y186790D01*
X26899Y186711D01*
Y186706D01*
Y186692D01*
X26894Y186672D01*
X26889Y186647D01*
X26879Y186618D01*
X26869Y186588D01*
X26850Y186559D01*
X26825Y186529D01*
X26820Y186524D01*
X26810Y186520D01*
X26796Y186510D01*
X26776Y186495D01*
X26751Y186480D01*
X26722Y186470D01*
X26682Y186465D01*
X26643Y186460D01*
X26623D01*
X26604Y186465D01*
X26579Y186470D01*
X26515Y186490D01*
X26486Y186505D01*
X26456Y186529D01*
X26451Y186534D01*
X26446Y186544D01*
X26436Y186559D01*
X26422Y186579D01*
X26407Y186608D01*
X26397Y186638D01*
X26392Y186672D01*
X26387Y186711D01*
Y186716D01*
Y186736D01*
X26382Y186761D01*
X26377Y186800D01*
Y186805D01*
Y186810D01*
X26372Y186834D01*
X26368Y186869D01*
Y186898D01*
Y186903D01*
Y186918D01*
X26372Y186933D01*
X26377Y186957D01*
X26387Y186987D01*
X26397Y187016D01*
X26417Y187046D01*
X26441Y187071D01*
X26446Y187075D01*
X26456Y187080D01*
X26471Y187095D01*
X26491Y187110D01*
X26520Y187120D01*
X26550Y187135D01*
X26584Y187139D01*
X26623Y187144D01*
X26633D01*
X26668Y187139D01*
D02*
G37*
G36*
X30505Y188148D02*
X30530Y188143D01*
X30559Y188133D01*
X30589Y188119D01*
X30618Y188099D01*
X30648Y188074D01*
X30653Y188069D01*
X30663Y188059D01*
X30672Y188045D01*
X30687Y188025D01*
X30702Y187996D01*
X30717Y187966D01*
X30722Y187932D01*
X30727Y187892D01*
Y187887D01*
Y187877D01*
X30722Y187863D01*
Y187848D01*
X30702Y187799D01*
X30692Y187774D01*
X30672Y187745D01*
Y187740D01*
X30668Y187735D01*
X30648Y187705D01*
X30618Y187656D01*
X30584Y187597D01*
X30545Y187523D01*
X30500Y187444D01*
X30461Y187356D01*
X30422Y187262D01*
X30235Y186716D01*
X29566Y184916D01*
Y184911D01*
X29561Y184901D01*
X29556Y184886D01*
X29546Y184861D01*
X29536Y184832D01*
X29521Y184798D01*
X29492Y184719D01*
X29447Y184625D01*
X29403Y184522D01*
X29354Y184414D01*
X29295Y184301D01*
X29290Y184296D01*
X29280Y184276D01*
X29261Y184251D01*
X29236Y184227D01*
X29206Y184197D01*
X29167Y184173D01*
X29123Y184153D01*
X29069Y184148D01*
X29059D01*
X29039Y184153D01*
X29005Y184158D01*
X28965Y184173D01*
X28921Y184197D01*
X28877Y184227D01*
X28837Y184276D01*
X28803Y184340D01*
X28798Y184350D01*
X28788Y184374D01*
X28773Y184419D01*
X28749Y184478D01*
X28724Y184556D01*
X28690Y184655D01*
X28650Y184763D01*
X28606Y184896D01*
X28557Y185039D01*
X28508Y185201D01*
X28454Y185378D01*
X28394Y185575D01*
X28331Y185782D01*
X28267Y186008D01*
X28203Y186254D01*
X28134Y186510D01*
X27937Y187189D01*
Y187194D01*
X27932Y187213D01*
X27922Y187238D01*
X27917Y187272D01*
X27903Y187312D01*
X27893Y187361D01*
X27868Y187469D01*
X27839Y187582D01*
X27819Y187695D01*
X27809Y187745D01*
X27799Y187794D01*
X27794Y187833D01*
Y187868D01*
Y187873D01*
Y187887D01*
X27799Y187907D01*
X27804Y187932D01*
X27814Y187961D01*
X27829Y187991D01*
X27848Y188020D01*
X27873Y188050D01*
X27878Y188055D01*
X27888Y188059D01*
X27903Y188069D01*
X27922Y188084D01*
X27976Y188109D01*
X28006Y188114D01*
X28045Y188119D01*
X28055D01*
X28075Y188114D01*
X28109Y188109D01*
X28144Y188094D01*
X28188Y188069D01*
X28227Y188030D01*
X28262Y187981D01*
X28286Y187912D01*
X28380Y187479D01*
X28621Y186638D01*
Y186633D01*
X28626Y186628D01*
Y186613D01*
X28631Y186598D01*
X28646Y186549D01*
X28660Y186485D01*
X28685Y186401D01*
X28709Y186308D01*
X28734Y186205D01*
X28769Y186091D01*
X28803Y185968D01*
X28837Y185845D01*
X28916Y185575D01*
X29000Y185309D01*
X29039Y185176D01*
X29083Y185048D01*
X29098Y185088D01*
X29762Y186889D01*
X29974Y187494D01*
Y187499D01*
X29979Y187508D01*
X29989Y187528D01*
X29998Y187553D01*
X30013Y187587D01*
X30028Y187622D01*
X30067Y187700D01*
X30112Y187794D01*
X30161Y187882D01*
X30215Y187971D01*
X30274Y188050D01*
X30279Y188055D01*
X30289Y188064D01*
X30308Y188084D01*
X30328Y188104D01*
X30358Y188119D01*
X30392Y188138D01*
X30431Y188148D01*
X30471Y188153D01*
X30486D01*
X30505Y188148D01*
D02*
G37*
G36*
X25059Y188207D02*
X25088Y188202D01*
X25118Y188187D01*
X25147Y188168D01*
X25177Y188133D01*
X25196Y188084D01*
X25201Y188020D01*
Y188015D01*
Y188010D01*
Y187996D01*
Y187976D01*
X25196Y187951D01*
X25192Y187922D01*
X25187Y187887D01*
X25182Y187848D01*
Y187843D01*
Y187828D01*
X25177Y187809D01*
Y187784D01*
X25172Y187730D01*
X25167Y187705D01*
Y187681D01*
Y187676D01*
Y187666D01*
Y187646D01*
Y187617D01*
X25172Y187582D01*
Y187538D01*
Y187489D01*
X25177Y187430D01*
Y187425D01*
Y187400D01*
X25182Y187371D01*
Y187336D01*
X25187Y187258D01*
Y187218D01*
Y187184D01*
Y187179D01*
Y187169D01*
Y187154D01*
Y187130D01*
Y187100D01*
X25182Y187066D01*
Y187021D01*
Y186972D01*
X25177Y186913D01*
X25172Y186854D01*
X25167Y186780D01*
X25162Y186706D01*
X25157Y186623D01*
X25147Y186534D01*
X25137Y186441D01*
X25128Y186337D01*
Y186332D01*
Y186313D01*
X25123Y186283D01*
X25118Y186244D01*
X25113Y186200D01*
X25108Y186146D01*
X25103Y186086D01*
X25098Y186023D01*
X25088Y185885D01*
X25078Y185747D01*
X25074Y185614D01*
X25069Y185550D01*
Y185496D01*
Y185491D01*
Y185471D01*
Y185442D01*
X25074Y185398D01*
Y185348D01*
X25078Y185290D01*
X25083Y185221D01*
X25088Y185147D01*
Y185137D01*
X25093Y185112D01*
Y185073D01*
X25098Y185029D01*
X25103Y184975D01*
X25108Y184921D01*
X25113Y184861D01*
Y184812D01*
X25374Y184817D01*
X25393D01*
X25408Y184812D01*
X25433Y184807D01*
X25492Y184788D01*
X25521Y184773D01*
X25546Y184748D01*
X25551Y184743D01*
X25556Y184738D01*
X25565Y184719D01*
X25580Y184699D01*
X25605Y184645D01*
X25610Y184615D01*
X25615Y184576D01*
Y184571D01*
Y184561D01*
X25610Y184542D01*
X25605Y184517D01*
X25585Y184458D01*
X25570Y184433D01*
X25546Y184404D01*
X25541Y184399D01*
X25536Y184394D01*
X25516Y184384D01*
X25497Y184374D01*
X25472Y184360D01*
X25442Y184350D01*
X25408Y184345D01*
X25369Y184340D01*
X24877D01*
X24385Y184345D01*
X24326D01*
X24286Y184350D01*
X24208Y184355D01*
X24168Y184360D01*
X24139Y184364D01*
X24134D01*
X24119Y184374D01*
X24099Y184384D01*
X24080Y184404D01*
X24055Y184429D01*
X24035Y184463D01*
X24021Y184502D01*
X24016Y184552D01*
Y184556D01*
Y184561D01*
X24021Y184591D01*
X24035Y184630D01*
X24065Y184679D01*
X24085Y184699D01*
X24109Y184724D01*
X24144Y184743D01*
X24178Y184763D01*
X24222Y184778D01*
X24276Y184793D01*
X24336Y184798D01*
X24404Y184802D01*
X24527D01*
X24631Y184798D01*
Y184802D01*
Y184822D01*
Y184847D01*
X24626Y184886D01*
Y184935D01*
X24621Y184994D01*
X24616Y185063D01*
X24606Y185147D01*
Y185152D01*
Y185157D01*
X24601Y185186D01*
Y185225D01*
X24596Y185280D01*
X24591Y185334D01*
Y185393D01*
X24587Y185447D01*
Y185496D01*
Y185501D01*
Y185511D01*
Y185531D01*
Y185555D01*
Y185590D01*
X24591Y185629D01*
Y185678D01*
Y185732D01*
X24596Y185796D01*
X24601Y185870D01*
X24606Y185949D01*
X24611Y186032D01*
X24616Y186126D01*
X24621Y186229D01*
X24631Y186337D01*
X24641Y186456D01*
Y186460D01*
X24645Y186485D01*
Y186515D01*
X24650Y186559D01*
X24655Y186613D01*
X24660Y186672D01*
X24665Y186741D01*
X24670Y186815D01*
X24680Y186972D01*
X24685Y187130D01*
X24695Y187282D01*
Y187356D01*
Y187420D01*
X24690Y187415D01*
X24680Y187410D01*
X24665Y187395D01*
X24641Y187381D01*
X24587Y187341D01*
X24518Y187292D01*
X24444Y187243D01*
X24375Y187203D01*
X24311Y187174D01*
X24286Y187169D01*
X24267Y187164D01*
X24252D01*
X24232Y187169D01*
X24208Y187174D01*
X24183Y187184D01*
X24153Y187194D01*
X24124Y187213D01*
X24094Y187238D01*
X24090Y187243D01*
X24085Y187253D01*
X24075Y187267D01*
X24060Y187287D01*
X24035Y187341D01*
X24031Y187371D01*
X24026Y187405D01*
Y187410D01*
X24031Y187425D01*
X24035Y187449D01*
X24050Y187484D01*
X24080Y187528D01*
X24114Y187577D01*
X24168Y187631D01*
X24198Y187661D01*
X24237Y187690D01*
X24242Y187695D01*
X24262Y187710D01*
X24291Y187730D01*
X24336Y187764D01*
X24390Y187804D01*
X24454Y187858D01*
X24527Y187917D01*
X24616Y187991D01*
X24621Y187996D01*
X24626Y188000D01*
X24655Y188025D01*
X24695Y188059D01*
X24749Y188104D01*
X24813Y188143D01*
X24882Y188178D01*
X24960Y188202D01*
X24995Y188212D01*
X25039D01*
X25059Y188207D01*
D02*
G37*
G36*
X26687Y185417D02*
X26707Y185413D01*
X26751Y185393D01*
X26776Y185378D01*
X26805Y185358D01*
X26830Y185329D01*
X26855Y185294D01*
X26879Y185255D01*
X26899Y185206D01*
X26919Y185147D01*
X26933Y185078D01*
X26938Y184999D01*
X26943Y184906D01*
Y184901D01*
Y184886D01*
X26938Y184866D01*
X26933Y184842D01*
X26923Y184812D01*
X26914Y184778D01*
X26894Y184748D01*
X26869Y184719D01*
X26864Y184714D01*
X26855Y184709D01*
X26840Y184699D01*
X26820Y184684D01*
X26791Y184670D01*
X26761Y184660D01*
X26727Y184655D01*
X26687Y184650D01*
X26668D01*
X26648Y184655D01*
X26623Y184660D01*
X26564Y184679D01*
X26535Y184694D01*
X26505Y184719D01*
X26500Y184724D01*
X26495Y184733D01*
X26481Y184748D01*
X26471Y184768D01*
X26456Y184798D01*
X26441Y184827D01*
X26436Y184866D01*
X26432Y184906D01*
Y184916D01*
Y184940D01*
X26427Y184979D01*
X26417Y185039D01*
Y185044D01*
Y185053D01*
X26412Y185073D01*
Y185093D01*
X26407Y185137D01*
X26402Y185176D01*
Y185181D01*
Y185196D01*
X26407Y185211D01*
X26412Y185235D01*
X26422Y185265D01*
X26432Y185294D01*
X26451Y185324D01*
X26476Y185348D01*
X26481Y185353D01*
X26491Y185358D01*
X26505Y185373D01*
X26530Y185388D01*
X26555Y185398D01*
X26589Y185413D01*
X26623Y185417D01*
X26663Y185422D01*
X26673D01*
X26687Y185417D01*
D02*
G37*
G36*
X65117Y183203D02*
X65147Y183198D01*
X65181Y183179D01*
X65216Y183154D01*
X65255Y183115D01*
X65285Y183056D01*
X65295Y183021D01*
X65304Y182982D01*
Y182972D01*
X65309Y182948D01*
X65319Y182903D01*
X65329Y182844D01*
X65334Y182770D01*
X65344Y182687D01*
X65349Y182593D01*
Y182485D01*
Y182480D01*
Y182470D01*
X65344Y182451D01*
Y182426D01*
X65324Y182367D01*
X65309Y182337D01*
X65290Y182308D01*
X65285Y182303D01*
X65280Y182293D01*
X65265Y182278D01*
X65240Y182264D01*
X65216Y182244D01*
X65186Y182229D01*
X65147Y182219D01*
X65103Y182214D01*
X65098D01*
X65078Y182219D01*
X65049Y182224D01*
X65014Y182239D01*
X64975Y182259D01*
X64935Y182293D01*
X64901Y182337D01*
X64867Y182396D01*
X64862Y182401D01*
X64857Y182421D01*
X64842Y182451D01*
X64822Y182480D01*
X64802Y182515D01*
X64778Y182549D01*
X64758Y182574D01*
X64734Y182593D01*
X64724Y182598D01*
X64709Y182603D01*
X64684Y182608D01*
X64650Y182613D01*
X64606Y182618D01*
X64547Y182623D01*
X64463D01*
X64443Y182618D01*
X64414Y182613D01*
X64379Y182608D01*
X64340Y182593D01*
X64296Y182579D01*
X64242Y182554D01*
X64188Y182524D01*
X64124Y182485D01*
X64060Y182441D01*
X63991Y182387D01*
X63917Y182323D01*
X63843Y182249D01*
X63764Y182165D01*
X63681Y182067D01*
X63676Y182057D01*
X63656Y182032D01*
X63627Y181993D01*
X63587Y181939D01*
X63543Y181875D01*
X63494Y181796D01*
X63440Y181713D01*
X63386Y181614D01*
X63327Y181511D01*
X63272Y181403D01*
X63223Y181285D01*
X63179Y181167D01*
X63140Y181039D01*
X63110Y180916D01*
X63090Y180788D01*
X63086Y180665D01*
Y180660D01*
Y180650D01*
Y180635D01*
X63090Y180611D01*
Y180586D01*
X63095Y180552D01*
X63110Y180478D01*
X63135Y180389D01*
X63169Y180296D01*
X63218Y180202D01*
X63287Y180114D01*
X63292Y180109D01*
X63297Y180104D01*
X63327Y180079D01*
X63371Y180040D01*
X63430Y179996D01*
X63504Y179951D01*
X63592Y179917D01*
X63691Y179887D01*
X63745Y179882D01*
X63799Y179877D01*
X63843D01*
X63892Y179882D01*
X63956Y179892D01*
X64035Y179907D01*
X64119Y179932D01*
X64212Y179961D01*
X64311Y180005D01*
X64315Y180010D01*
X64340Y180020D01*
X64370Y180040D01*
X64419Y180069D01*
X64483Y180109D01*
X64557Y180158D01*
X64645Y180222D01*
X64748Y180296D01*
X64753Y180301D01*
X64773Y180310D01*
X64798Y180330D01*
X64827Y180350D01*
X64867Y180369D01*
X64901Y180389D01*
X64935Y180399D01*
X64965Y180404D01*
X64985D01*
X64999Y180399D01*
X65024Y180394D01*
X65053Y180384D01*
X65083Y180369D01*
X65113Y180350D01*
X65142Y180320D01*
X65147Y180315D01*
X65152Y180306D01*
X65167Y180291D01*
X65181Y180271D01*
X65206Y180212D01*
X65211Y180178D01*
X65216Y180143D01*
Y180138D01*
Y180123D01*
X65211Y180104D01*
X65206Y180074D01*
X65191Y180045D01*
X65176Y180010D01*
X65152Y179981D01*
X65117Y179946D01*
X65113Y179941D01*
X65088Y179922D01*
X65053Y179892D01*
X65004Y179858D01*
X64945Y179814D01*
X64876Y179764D01*
X64798Y179710D01*
X64709Y179661D01*
X64611Y179607D01*
X64507Y179553D01*
X64399Y179504D01*
X64281Y179459D01*
X64163Y179425D01*
X64045Y179395D01*
X63917Y179376D01*
X63794Y179371D01*
X63769D01*
X63745Y179376D01*
X63710D01*
X63666Y179381D01*
X63612Y179390D01*
X63558Y179405D01*
X63494Y179420D01*
X63430Y179440D01*
X63356Y179469D01*
X63287Y179499D01*
X63213Y179538D01*
X63140Y179582D01*
X63066Y179636D01*
X62997Y179695D01*
X62928Y179764D01*
X62923Y179769D01*
X62913Y179784D01*
X62898Y179804D01*
X62874Y179833D01*
X62849Y179868D01*
X62820Y179912D01*
X62790Y179961D01*
X62761Y180020D01*
X62726Y180084D01*
X62697Y180153D01*
X62667Y180227D01*
X62643Y180306D01*
X62618Y180389D01*
X62603Y180478D01*
X62594Y180571D01*
X62589Y180665D01*
Y180670D01*
Y180675D01*
Y180704D01*
X62594Y180748D01*
X62598Y180812D01*
X62608Y180886D01*
X62628Y180980D01*
X62648Y181083D01*
X62677Y181196D01*
X62712Y181324D01*
X62761Y181457D01*
X62815Y181599D01*
X62884Y181747D01*
X62967Y181904D01*
X63061Y182062D01*
X63169Y182224D01*
X63292Y182392D01*
X63297Y182401D01*
X63317Y182421D01*
X63351Y182460D01*
X63395Y182505D01*
X63445Y182564D01*
X63509Y182623D01*
X63582Y182692D01*
X63661Y182761D01*
X63745Y182829D01*
X63838Y182898D01*
X63937Y182957D01*
X64040Y183016D01*
X64143Y183061D01*
X64256Y183100D01*
X64365Y183120D01*
X64478Y183130D01*
X64552D01*
X64621Y183125D01*
X64694Y183115D01*
X64709D01*
X64729Y183110D01*
X64753Y183105D01*
X64807Y183095D01*
X64867Y183080D01*
X64871Y183085D01*
X64881Y183100D01*
X64901Y183120D01*
X64925Y183144D01*
X64960Y183169D01*
X64999Y183189D01*
X65044Y183203D01*
X65093Y183208D01*
X65103D01*
X65117Y183203D01*
D02*
G37*
G36*
X46515Y183134D02*
X46574D01*
X46638Y183130D01*
X46717Y183125D01*
X46800Y183120D01*
X46899Y183115D01*
X46997Y183105D01*
X47110Y183095D01*
X47223Y183080D01*
X47351Y183066D01*
X47479Y183051D01*
X47617Y183031D01*
X47627D01*
X47651Y183021D01*
X47686Y183007D01*
X47730Y182987D01*
X47769Y182952D01*
X47804Y182903D01*
X47829Y182844D01*
X47838Y182805D01*
Y182765D01*
Y182761D01*
Y182746D01*
X47833Y182726D01*
X47829Y182697D01*
X47819Y182667D01*
X47799Y182638D01*
X47779Y182608D01*
X47750Y182579D01*
X47745D01*
X47735Y182569D01*
X47720Y182559D01*
X47701Y182549D01*
X47646Y182529D01*
X47617Y182524D01*
X47583Y182519D01*
X47519D01*
X47469Y182524D01*
X47415Y182529D01*
X47346Y182534D01*
X47268Y182544D01*
X47179Y182554D01*
X46781Y182608D01*
Y182598D01*
Y182574D01*
X46776Y182539D01*
X46771Y182485D01*
X46766Y182421D01*
Y182342D01*
X46761Y182259D01*
X46756Y182165D01*
X46751Y182062D01*
X46746Y181954D01*
X46741Y181841D01*
X46736Y181718D01*
X46731Y181476D01*
X46727Y181226D01*
Y181216D01*
Y181196D01*
Y181157D01*
Y181107D01*
X46731Y181044D01*
Y180975D01*
Y180891D01*
X46736Y180798D01*
Y180793D01*
Y180788D01*
Y180773D01*
Y180753D01*
X46741Y180709D01*
Y180650D01*
Y180581D01*
X46746Y180507D01*
Y180438D01*
Y180369D01*
Y180365D01*
Y180360D01*
Y180330D01*
Y180286D01*
Y180227D01*
X46741Y180163D01*
X46736Y180094D01*
X46727Y179946D01*
X47509Y179956D01*
X47528D01*
X47543Y179951D01*
X47568Y179946D01*
X47597Y179937D01*
X47627Y179927D01*
X47656Y179907D01*
X47681Y179882D01*
X47686Y179877D01*
X47691Y179868D01*
X47706Y179853D01*
X47720Y179833D01*
X47730Y179804D01*
X47745Y179774D01*
X47750Y179740D01*
X47755Y179700D01*
Y179695D01*
Y179681D01*
X47750Y179661D01*
X47745Y179636D01*
X47735Y179607D01*
X47725Y179572D01*
X47706Y179543D01*
X47681Y179513D01*
X47676Y179508D01*
X47671Y179504D01*
X47651Y179494D01*
X47632Y179479D01*
X47578Y179454D01*
X47548Y179449D01*
X47509Y179445D01*
X47273D01*
X47184Y179440D01*
X46933D01*
X46864Y179435D01*
X46604D01*
X46549Y179430D01*
X46481Y179425D01*
X46397Y179415D01*
X46298Y179405D01*
X46180Y179390D01*
X46166D01*
X46151Y179385D01*
X46126D01*
X46067Y179376D01*
X45998Y179371D01*
X45920Y179361D01*
X45836Y179351D01*
X45757Y179346D01*
X45674D01*
X45654Y179351D01*
X45629Y179356D01*
X45600Y179366D01*
X45570Y179376D01*
X45546Y179395D01*
X45516Y179420D01*
X45511Y179425D01*
X45506Y179435D01*
X45496Y179449D01*
X45482Y179469D01*
X45467Y179494D01*
X45457Y179523D01*
X45452Y179558D01*
X45447Y179597D01*
Y179602D01*
Y179617D01*
X45452Y179631D01*
X45457Y179656D01*
X45477Y179715D01*
X45492Y179745D01*
X45516Y179774D01*
X45521Y179779D01*
X45531Y179784D01*
X45546Y179799D01*
X45565Y179814D01*
X45619Y179838D01*
X45649Y179843D01*
X45688Y179848D01*
X45718D01*
X45757Y179853D01*
X45816D01*
X45890Y179863D01*
X45984Y179873D01*
X46097Y179882D01*
X46156Y179892D01*
X46225Y179902D01*
Y179912D01*
X46230Y179937D01*
X46235Y179976D01*
X46239Y180035D01*
Y180099D01*
X46244Y180178D01*
X46249Y180266D01*
Y180360D01*
Y180369D01*
Y180389D01*
Y180429D01*
Y180478D01*
X46244Y180537D01*
Y180611D01*
X46239Y180689D01*
X46235Y180778D01*
Y180783D01*
Y180788D01*
Y180817D01*
X46230Y180866D01*
Y180921D01*
X46225Y180989D01*
Y181058D01*
X46220Y181127D01*
Y181191D01*
Y181196D01*
Y181216D01*
Y181250D01*
Y181294D01*
Y181353D01*
X46225Y181417D01*
Y181496D01*
X46230Y181585D01*
X46235Y181688D01*
Y181796D01*
X46244Y181914D01*
X46249Y182042D01*
X46259Y182175D01*
X46264Y182318D01*
X46279Y182470D01*
X46289Y182628D01*
X45964Y182613D01*
X45639Y182608D01*
X45624D01*
X45605Y182613D01*
X45580Y182618D01*
X45521Y182638D01*
X45492Y182652D01*
X45462Y182677D01*
X45457Y182682D01*
X45452Y182692D01*
X45442Y182706D01*
X45428Y182726D01*
X45413Y182756D01*
X45403Y182785D01*
X45398Y182825D01*
X45393Y182864D01*
Y182869D01*
Y182874D01*
X45398Y182898D01*
X45408Y182938D01*
X45423Y182982D01*
X45452Y183026D01*
X45492Y183066D01*
X45551Y183100D01*
X45585Y183110D01*
X45624Y183115D01*
X45649D01*
X45664Y183120D01*
X45688D01*
X45718Y183125D01*
X45752D01*
X45797Y183130D01*
X45895D01*
X45959Y183134D01*
X46028D01*
X46102Y183139D01*
X46466D01*
X46515Y183134D01*
D02*
G37*
G36*
X55794Y183066D02*
X55858Y183061D01*
X55942Y183051D01*
X56035Y183036D01*
X56134Y183016D01*
X56247Y182987D01*
X56252D01*
X56266Y182982D01*
X56286Y182977D01*
X56311Y182967D01*
X56375Y182943D01*
X56448Y182913D01*
X56522Y182874D01*
X56586Y182829D01*
X56611Y182800D01*
X56635Y182775D01*
X56645Y182746D01*
X56650Y182716D01*
Y182706D01*
X56645Y182682D01*
X56640Y182647D01*
X56621Y182608D01*
X56596Y182569D01*
X56557Y182534D01*
X56498Y182510D01*
X56463Y182505D01*
X56424Y182500D01*
X56404D01*
X56379Y182505D01*
X56345D01*
X56296Y182510D01*
X56237Y182519D01*
X56163Y182534D01*
X56075Y182549D01*
X56070D01*
X56065Y182554D01*
X56035Y182559D01*
X55991Y182569D01*
X55937Y182579D01*
X55873Y182588D01*
X55809Y182593D01*
X55745Y182603D01*
X55651D01*
X55627Y182598D01*
X55592Y182593D01*
X55553Y182588D01*
X55464Y182574D01*
X55361Y182554D01*
X55253Y182519D01*
X55145Y182470D01*
X55036Y182411D01*
X55031D01*
X55027Y182401D01*
X54992Y182377D01*
X54948Y182337D01*
X54899Y182283D01*
X54849Y182214D01*
X54805Y182136D01*
X54771Y182042D01*
X54766Y181993D01*
X54761Y181944D01*
Y181934D01*
X54766Y181909D01*
X54781Y181875D01*
X54805Y181831D01*
X54825Y181806D01*
X54849Y181781D01*
X54879Y181757D01*
X54913Y181732D01*
X54958Y181713D01*
X55007Y181688D01*
X55061Y181668D01*
X55125Y181654D01*
X55130D01*
X55154Y181649D01*
X55189Y181644D01*
X55243Y181634D01*
X55277Y181629D01*
X55317Y181624D01*
X55361Y181619D01*
X55405Y181614D01*
X55459Y181609D01*
X55519Y181604D01*
X55587Y181599D01*
X55656Y181595D01*
X55681D01*
X55710Y181590D01*
X55750Y181585D01*
X55799Y181575D01*
X55853Y181565D01*
X55912Y181550D01*
X55981Y181535D01*
X56124Y181486D01*
X56193Y181457D01*
X56266Y181422D01*
X56340Y181388D01*
X56414Y181344D01*
X56478Y181290D01*
X56542Y181235D01*
X56547Y181230D01*
X56557Y181221D01*
X56571Y181206D01*
X56586Y181186D01*
X56611Y181157D01*
X56635Y181122D01*
X56660Y181083D01*
X56690Y181039D01*
X56744Y180935D01*
X56793Y180817D01*
X56808Y180748D01*
X56822Y180679D01*
X56832Y180606D01*
X56837Y180532D01*
Y180527D01*
Y180507D01*
X56832Y180473D01*
X56827Y180433D01*
X56822Y180384D01*
X56808Y180325D01*
X56793Y180261D01*
X56768Y180192D01*
X56739Y180119D01*
X56704Y180045D01*
X56660Y179966D01*
X56606Y179887D01*
X56542Y179809D01*
X56468Y179735D01*
X56384Y179661D01*
X56286Y179592D01*
X56281Y179587D01*
X56266Y179577D01*
X56237Y179563D01*
X56202Y179543D01*
X56158Y179523D01*
X56104Y179494D01*
X56040Y179469D01*
X55971Y179440D01*
X55892Y179410D01*
X55809Y179385D01*
X55720Y179356D01*
X55622Y179336D01*
X55523Y179317D01*
X55415Y179302D01*
X55302Y179292D01*
X55189Y179287D01*
X55145D01*
X55110Y179292D01*
X55071D01*
X55027Y179297D01*
X54972Y179302D01*
X54913Y179307D01*
X54785Y179331D01*
X54648Y179361D01*
X54500Y179400D01*
X54357Y179459D01*
X54352Y179464D01*
X54338Y179469D01*
X54313Y179484D01*
X54284Y179499D01*
X54249Y179518D01*
X54210Y179548D01*
X54126Y179612D01*
X54043Y179695D01*
X54003Y179745D01*
X53964Y179794D01*
X53934Y179853D01*
X53910Y179912D01*
X53895Y179976D01*
X53890Y180045D01*
Y180050D01*
Y180064D01*
X53895Y180079D01*
Y180104D01*
X53905Y180133D01*
X53920Y180158D01*
X53934Y180187D01*
X53959Y180212D01*
X53964Y180217D01*
X53974Y180222D01*
X53988Y180232D01*
X54008Y180246D01*
X54067Y180271D01*
X54097Y180276D01*
X54136Y180281D01*
X54156D01*
X54180Y180276D01*
X54210Y180261D01*
X54244Y180246D01*
X54279Y180222D01*
X54318Y180187D01*
X54352Y180138D01*
X54357Y180128D01*
X54372Y180109D01*
X54397Y180074D01*
X54426Y180035D01*
X54500Y179951D01*
X54535Y179917D01*
X54574Y179887D01*
X54579D01*
X54584Y179882D01*
X54613Y179868D01*
X54662Y179843D01*
X54731Y179818D01*
X54815Y179794D01*
X54923Y179769D01*
X55046Y179754D01*
X55189Y179750D01*
X55228D01*
X55253Y179754D01*
X55287D01*
X55327Y179759D01*
X55371Y179764D01*
X55425Y179769D01*
X55533Y179789D01*
X55656Y179818D01*
X55779Y179858D01*
X55907Y179912D01*
X55912Y179917D01*
X55927Y179922D01*
X55947Y179937D01*
X55971Y179951D01*
X56006Y179976D01*
X56040Y180000D01*
X56119Y180069D01*
X56198Y180153D01*
X56232Y180202D01*
X56266Y180256D01*
X56291Y180310D01*
X56311Y180374D01*
X56325Y180438D01*
X56330Y180507D01*
Y180512D01*
Y180522D01*
Y180537D01*
X56325Y180556D01*
X56311Y180615D01*
X56286Y180684D01*
X56266Y180724D01*
X56242Y180763D01*
X56212Y180802D01*
X56178Y180847D01*
X56138Y180886D01*
X56089Y180925D01*
X56035Y180965D01*
X55971Y180999D01*
X55966D01*
X55956Y181004D01*
X55942Y181014D01*
X55917Y181024D01*
X55888Y181039D01*
X55853Y181048D01*
X55814Y181063D01*
X55765Y181078D01*
X55715Y181098D01*
X55661Y181112D01*
X55533Y181137D01*
X55391Y181162D01*
X55233Y181171D01*
X55213D01*
X55194Y181176D01*
X55169D01*
X55135Y181181D01*
X55095Y181186D01*
X55002Y181196D01*
X54899Y181221D01*
X54785Y181250D01*
X54672Y181290D01*
X54564Y181339D01*
X54559Y181344D01*
X54549Y181349D01*
X54530Y181358D01*
X54510Y181378D01*
X54456Y181422D01*
X54392Y181486D01*
X54323Y181570D01*
X54269Y181668D01*
X54249Y181722D01*
X54229Y181781D01*
X54220Y181845D01*
X54215Y181914D01*
Y181919D01*
Y181934D01*
X54220Y181959D01*
X54224Y181988D01*
X54229Y182027D01*
X54239Y182072D01*
X54254Y182126D01*
X54279Y182180D01*
X54303Y182244D01*
X54338Y182308D01*
X54377Y182372D01*
X54426Y182441D01*
X54480Y182510D01*
X54549Y182583D01*
X54623Y182652D01*
X54712Y182721D01*
X54716Y182726D01*
X54731Y182736D01*
X54761Y182756D01*
X54795Y182775D01*
X54839Y182800D01*
X54889Y182829D01*
X54953Y182864D01*
X55017Y182898D01*
X55090Y182928D01*
X55164Y182962D01*
X55332Y183016D01*
X55420Y183036D01*
X55514Y183056D01*
X55607Y183066D01*
X55700Y183071D01*
X55745D01*
X55794Y183066D01*
D02*
G37*
G36*
X34968D02*
X35032Y183061D01*
X35115Y183051D01*
X35209Y183036D01*
X35307Y183016D01*
X35420Y182987D01*
X35425D01*
X35440Y182982D01*
X35460Y182977D01*
X35484Y182967D01*
X35548Y182943D01*
X35622Y182913D01*
X35696Y182874D01*
X35760Y182829D01*
X35784Y182800D01*
X35809Y182775D01*
X35819Y182746D01*
X35824Y182716D01*
Y182706D01*
X35819Y182682D01*
X35814Y182647D01*
X35794Y182608D01*
X35770Y182569D01*
X35730Y182534D01*
X35671Y182510D01*
X35637Y182505D01*
X35597Y182500D01*
X35578D01*
X35553Y182505D01*
X35519D01*
X35469Y182510D01*
X35410Y182519D01*
X35337Y182534D01*
X35248Y182549D01*
X35243D01*
X35238Y182554D01*
X35209Y182559D01*
X35164Y182569D01*
X35110Y182579D01*
X35046Y182588D01*
X34982Y182593D01*
X34918Y182603D01*
X34825D01*
X34800Y182598D01*
X34766Y182593D01*
X34727Y182588D01*
X34638Y182574D01*
X34535Y182554D01*
X34427Y182519D01*
X34318Y182470D01*
X34210Y182411D01*
X34205D01*
X34200Y182401D01*
X34166Y182377D01*
X34121Y182337D01*
X34072Y182283D01*
X34023Y182214D01*
X33979Y182136D01*
X33944Y182042D01*
X33939Y181993D01*
X33935Y181944D01*
Y181934D01*
X33939Y181909D01*
X33954Y181875D01*
X33979Y181831D01*
X33998Y181806D01*
X34023Y181781D01*
X34053Y181757D01*
X34087Y181732D01*
X34131Y181713D01*
X34181Y181688D01*
X34235Y181668D01*
X34299Y181654D01*
X34304D01*
X34328Y181649D01*
X34363Y181644D01*
X34417Y181634D01*
X34451Y181629D01*
X34490Y181624D01*
X34535Y181619D01*
X34579Y181614D01*
X34633Y181609D01*
X34692Y181604D01*
X34761Y181599D01*
X34830Y181595D01*
X34855D01*
X34884Y181590D01*
X34923Y181585D01*
X34973Y181575D01*
X35027Y181565D01*
X35086Y181550D01*
X35155Y181535D01*
X35297Y181486D01*
X35366Y181457D01*
X35440Y181422D01*
X35514Y181388D01*
X35588Y181344D01*
X35651Y181290D01*
X35715Y181235D01*
X35720Y181230D01*
X35730Y181221D01*
X35745Y181206D01*
X35760Y181186D01*
X35784Y181157D01*
X35809Y181122D01*
X35834Y181083D01*
X35863Y181039D01*
X35917Y180935D01*
X35966Y180817D01*
X35981Y180748D01*
X35996Y180679D01*
X36006Y180606D01*
X36011Y180532D01*
Y180527D01*
Y180507D01*
X36006Y180473D01*
X36001Y180433D01*
X35996Y180384D01*
X35981Y180325D01*
X35966Y180261D01*
X35942Y180192D01*
X35912Y180119D01*
X35878Y180045D01*
X35834Y179966D01*
X35780Y179887D01*
X35715Y179809D01*
X35642Y179735D01*
X35558Y179661D01*
X35460Y179592D01*
X35455Y179587D01*
X35440Y179577D01*
X35410Y179563D01*
X35376Y179543D01*
X35332Y179523D01*
X35278Y179494D01*
X35214Y179469D01*
X35145Y179440D01*
X35066Y179410D01*
X34982Y179385D01*
X34894Y179356D01*
X34795Y179336D01*
X34697Y179317D01*
X34589Y179302D01*
X34476Y179292D01*
X34363Y179287D01*
X34318D01*
X34284Y179292D01*
X34244D01*
X34200Y179297D01*
X34146Y179302D01*
X34087Y179307D01*
X33959Y179331D01*
X33821Y179361D01*
X33674Y179400D01*
X33531Y179459D01*
X33526Y179464D01*
X33511Y179469D01*
X33487Y179484D01*
X33457Y179499D01*
X33423Y179518D01*
X33383Y179548D01*
X33300Y179612D01*
X33216Y179695D01*
X33177Y179745D01*
X33137Y179794D01*
X33108Y179853D01*
X33083Y179912D01*
X33068Y179976D01*
X33064Y180045D01*
Y180050D01*
Y180064D01*
X33068Y180079D01*
Y180104D01*
X33078Y180133D01*
X33093Y180158D01*
X33108Y180187D01*
X33132Y180212D01*
X33137Y180217D01*
X33147Y180222D01*
X33162Y180232D01*
X33182Y180246D01*
X33241Y180271D01*
X33270Y180276D01*
X33310Y180281D01*
X33329D01*
X33354Y180276D01*
X33383Y180261D01*
X33418Y180246D01*
X33452Y180222D01*
X33492Y180187D01*
X33526Y180138D01*
X33531Y180128D01*
X33546Y180109D01*
X33570Y180074D01*
X33600Y180035D01*
X33674Y179951D01*
X33708Y179917D01*
X33748Y179887D01*
X33752D01*
X33757Y179882D01*
X33787Y179868D01*
X33836Y179843D01*
X33905Y179818D01*
X33989Y179794D01*
X34097Y179769D01*
X34220Y179754D01*
X34363Y179750D01*
X34402D01*
X34427Y179754D01*
X34461D01*
X34500Y179759D01*
X34545Y179764D01*
X34599Y179769D01*
X34707Y179789D01*
X34830Y179818D01*
X34953Y179858D01*
X35081Y179912D01*
X35086Y179917D01*
X35100Y179922D01*
X35120Y179937D01*
X35145Y179951D01*
X35179Y179976D01*
X35214Y180000D01*
X35292Y180069D01*
X35371Y180153D01*
X35405Y180202D01*
X35440Y180256D01*
X35465Y180310D01*
X35484Y180374D01*
X35499Y180438D01*
X35504Y180507D01*
Y180512D01*
Y180522D01*
Y180537D01*
X35499Y180556D01*
X35484Y180615D01*
X35460Y180684D01*
X35440Y180724D01*
X35415Y180763D01*
X35386Y180802D01*
X35351Y180847D01*
X35312Y180886D01*
X35263Y180925D01*
X35209Y180965D01*
X35145Y180999D01*
X35140D01*
X35130Y181004D01*
X35115Y181014D01*
X35091Y181024D01*
X35061Y181039D01*
X35027Y181048D01*
X34987Y181063D01*
X34938Y181078D01*
X34889Y181098D01*
X34835Y181112D01*
X34707Y181137D01*
X34564Y181162D01*
X34407Y181171D01*
X34387D01*
X34367Y181176D01*
X34343D01*
X34308Y181181D01*
X34269Y181186D01*
X34176Y181196D01*
X34072Y181221D01*
X33959Y181250D01*
X33846Y181290D01*
X33738Y181339D01*
X33733Y181344D01*
X33723Y181349D01*
X33703Y181358D01*
X33684Y181378D01*
X33629Y181422D01*
X33566Y181486D01*
X33497Y181570D01*
X33443Y181668D01*
X33423Y181722D01*
X33403Y181781D01*
X33393Y181845D01*
X33388Y181914D01*
Y181919D01*
Y181934D01*
X33393Y181959D01*
X33398Y181988D01*
X33403Y182027D01*
X33413Y182072D01*
X33428Y182126D01*
X33452Y182180D01*
X33477Y182244D01*
X33511Y182308D01*
X33551Y182372D01*
X33600Y182441D01*
X33654Y182510D01*
X33723Y182583D01*
X33797Y182652D01*
X33885Y182721D01*
X33890Y182726D01*
X33905Y182736D01*
X33935Y182756D01*
X33969Y182775D01*
X34013Y182800D01*
X34062Y182829D01*
X34126Y182864D01*
X34190Y182898D01*
X34264Y182928D01*
X34338Y182962D01*
X34505Y183016D01*
X34594Y183036D01*
X34687Y183056D01*
X34781Y183066D01*
X34874Y183071D01*
X34918D01*
X34968Y183066D01*
D02*
G37*
G36*
X52793Y182224D02*
X52837Y182205D01*
X52862Y182195D01*
X52886Y182175D01*
X52911Y182150D01*
X52935Y182126D01*
X52960Y182087D01*
X52980Y182047D01*
X53000Y181998D01*
X53014Y181939D01*
X53019Y181875D01*
X53024Y181796D01*
Y181791D01*
Y181777D01*
X53019Y181757D01*
X53014Y181732D01*
X53004Y181703D01*
X52995Y181673D01*
X52975Y181644D01*
X52950Y181614D01*
X52945Y181609D01*
X52935Y181604D01*
X52921Y181595D01*
X52901Y181580D01*
X52877Y181565D01*
X52847Y181555D01*
X52808Y181550D01*
X52768Y181545D01*
X52749D01*
X52729Y181550D01*
X52704Y181555D01*
X52640Y181575D01*
X52611Y181590D01*
X52581Y181614D01*
X52576Y181619D01*
X52571Y181629D01*
X52562Y181644D01*
X52547Y181663D01*
X52532Y181693D01*
X52522Y181722D01*
X52517Y181757D01*
X52512Y181796D01*
Y181801D01*
Y181821D01*
X52508Y181845D01*
X52503Y181885D01*
Y181890D01*
Y181895D01*
X52498Y181919D01*
X52493Y181954D01*
Y181983D01*
Y181988D01*
Y182003D01*
X52498Y182018D01*
X52503Y182042D01*
X52512Y182072D01*
X52522Y182101D01*
X52542Y182131D01*
X52566Y182155D01*
X52571Y182160D01*
X52581Y182165D01*
X52596Y182180D01*
X52616Y182195D01*
X52645Y182205D01*
X52675Y182219D01*
X52709Y182224D01*
X52749Y182229D01*
X52758D01*
X52793Y182224D01*
D02*
G37*
G36*
X31967D02*
X32011Y182205D01*
X32035Y182195D01*
X32060Y182175D01*
X32085Y182150D01*
X32109Y182126D01*
X32134Y182087D01*
X32153Y182047D01*
X32173Y181998D01*
X32188Y181939D01*
X32193Y181875D01*
X32198Y181796D01*
Y181791D01*
Y181777D01*
X32193Y181757D01*
X32188Y181732D01*
X32178Y181703D01*
X32168Y181673D01*
X32149Y181644D01*
X32124Y181614D01*
X32119Y181609D01*
X32109Y181604D01*
X32094Y181595D01*
X32075Y181580D01*
X32050Y181565D01*
X32021Y181555D01*
X31981Y181550D01*
X31942Y181545D01*
X31922D01*
X31903Y181550D01*
X31878Y181555D01*
X31814Y181575D01*
X31784Y181590D01*
X31755Y181614D01*
X31750Y181619D01*
X31745Y181629D01*
X31735Y181644D01*
X31721Y181663D01*
X31706Y181693D01*
X31696Y181722D01*
X31691Y181757D01*
X31686Y181796D01*
Y181801D01*
Y181821D01*
X31681Y181845D01*
X31676Y181885D01*
Y181890D01*
Y181895D01*
X31671Y181919D01*
X31666Y181954D01*
Y181983D01*
Y181988D01*
Y182003D01*
X31671Y182018D01*
X31676Y182042D01*
X31686Y182072D01*
X31696Y182101D01*
X31716Y182131D01*
X31740Y182155D01*
X31745Y182160D01*
X31755Y182165D01*
X31770Y182180D01*
X31789Y182195D01*
X31819Y182205D01*
X31848Y182219D01*
X31883Y182224D01*
X31922Y182229D01*
X31932D01*
X31967Y182224D01*
D02*
G37*
G36*
X30274Y183297D02*
X30318Y183287D01*
X30372Y183272D01*
X30422Y183243D01*
X30466Y183198D01*
X30486Y183169D01*
X30500Y183139D01*
X30505Y183100D01*
X30510Y183056D01*
Y180994D01*
X30653D01*
X30682Y180989D01*
X30717D01*
X30751Y180980D01*
X30840Y180965D01*
X30923Y180935D01*
X30958Y180916D01*
X30997Y180891D01*
X31022Y180861D01*
X31046Y180832D01*
X31061Y180793D01*
X31066Y180748D01*
Y180738D01*
X31061Y180719D01*
X31056Y180689D01*
X31041Y180655D01*
X31022Y180615D01*
X30987Y180576D01*
X30938Y180547D01*
X30874Y180522D01*
X30869D01*
X30855Y180517D01*
X30835D01*
X30795Y180512D01*
X30746Y180507D01*
X30609D01*
X30510Y180512D01*
Y179592D01*
Y179582D01*
X30505Y179558D01*
X30500Y179518D01*
X30481Y179479D01*
X30456Y179440D01*
X30417Y179400D01*
X30358Y179376D01*
X30323Y179371D01*
X30284Y179366D01*
X30274D01*
X30244Y179371D01*
X30200Y179385D01*
X30151Y179410D01*
X30126Y179430D01*
X30102Y179454D01*
X30082Y179484D01*
X30057Y179518D01*
X30043Y179558D01*
X30028Y179607D01*
X30023Y179661D01*
X30018Y179725D01*
Y179735D01*
Y179759D01*
Y179794D01*
X30023Y179848D01*
Y179853D01*
Y179863D01*
X30028Y179892D01*
Y179932D01*
Y179946D01*
Y179961D01*
Y180527D01*
X28931Y180552D01*
X28818D01*
X28744Y180556D01*
X28665D01*
X28586Y180561D01*
X28517Y180566D01*
X28458Y180576D01*
X28449D01*
X28424Y180586D01*
X28390Y180596D01*
X28350Y180611D01*
X28306Y180635D01*
X28272Y180665D01*
X28247Y180699D01*
X28242Y180724D01*
X28237Y180748D01*
Y180753D01*
Y180768D01*
X28242Y180793D01*
X28252Y180827D01*
X28272Y180866D01*
X28291Y180916D01*
X28326Y180970D01*
X28370Y181034D01*
X28586Y181285D01*
X29807Y183071D01*
Y183075D01*
X29816Y183080D01*
X29836Y183105D01*
X29875Y183144D01*
X29925Y183189D01*
X29984Y183228D01*
X30057Y183267D01*
X30136Y183292D01*
X30180Y183302D01*
X30254D01*
X30274Y183297D01*
D02*
G37*
G36*
X52812Y180502D02*
X52832Y180497D01*
X52877Y180478D01*
X52901Y180463D01*
X52931Y180443D01*
X52955Y180414D01*
X52980Y180379D01*
X53004Y180340D01*
X53024Y180291D01*
X53044Y180232D01*
X53058Y180163D01*
X53063Y180084D01*
X53068Y179991D01*
Y179986D01*
Y179971D01*
X53063Y179951D01*
X53058Y179927D01*
X53049Y179897D01*
X53039Y179863D01*
X53019Y179833D01*
X52995Y179804D01*
X52990Y179799D01*
X52980Y179794D01*
X52965Y179784D01*
X52945Y179769D01*
X52916Y179754D01*
X52886Y179745D01*
X52852Y179740D01*
X52812Y179735D01*
X52793D01*
X52773Y179740D01*
X52749Y179745D01*
X52689Y179764D01*
X52660Y179779D01*
X52631Y179804D01*
X52626Y179809D01*
X52621Y179818D01*
X52606Y179833D01*
X52596Y179853D01*
X52581Y179882D01*
X52566Y179912D01*
X52562Y179951D01*
X52557Y179991D01*
Y180000D01*
Y180025D01*
X52552Y180064D01*
X52542Y180123D01*
Y180128D01*
Y180138D01*
X52537Y180158D01*
Y180178D01*
X52532Y180222D01*
X52527Y180261D01*
Y180266D01*
Y180281D01*
X52532Y180296D01*
X52537Y180320D01*
X52547Y180350D01*
X52557Y180379D01*
X52576Y180409D01*
X52601Y180433D01*
X52606Y180438D01*
X52616Y180443D01*
X52631Y180458D01*
X52655Y180473D01*
X52680Y180483D01*
X52714Y180497D01*
X52749Y180502D01*
X52788Y180507D01*
X52798D01*
X52812Y180502D01*
D02*
G37*
G36*
X31986D02*
X32006Y180497D01*
X32050Y180478D01*
X32075Y180463D01*
X32104Y180443D01*
X32129Y180414D01*
X32153Y180379D01*
X32178Y180340D01*
X32198Y180291D01*
X32217Y180232D01*
X32232Y180163D01*
X32237Y180084D01*
X32242Y179991D01*
Y179986D01*
Y179971D01*
X32237Y179951D01*
X32232Y179927D01*
X32222Y179897D01*
X32212Y179863D01*
X32193Y179833D01*
X32168Y179804D01*
X32163Y179799D01*
X32153Y179794D01*
X32139Y179784D01*
X32119Y179769D01*
X32089Y179754D01*
X32060Y179745D01*
X32026Y179740D01*
X31986Y179735D01*
X31967D01*
X31947Y179740D01*
X31922Y179745D01*
X31863Y179764D01*
X31834Y179779D01*
X31804Y179804D01*
X31799Y179809D01*
X31794Y179818D01*
X31780Y179833D01*
X31770Y179853D01*
X31755Y179882D01*
X31740Y179912D01*
X31735Y179951D01*
X31730Y179991D01*
Y180000D01*
Y180025D01*
X31725Y180064D01*
X31716Y180123D01*
Y180128D01*
Y180138D01*
X31711Y180158D01*
Y180178D01*
X31706Y180222D01*
X31701Y180261D01*
Y180266D01*
Y180281D01*
X31706Y180296D01*
X31711Y180320D01*
X31721Y180350D01*
X31730Y180379D01*
X31750Y180409D01*
X31775Y180433D01*
X31780Y180438D01*
X31789Y180443D01*
X31804Y180458D01*
X31829Y180473D01*
X31853Y180483D01*
X31888Y180497D01*
X31922Y180502D01*
X31962Y180507D01*
X31971D01*
X31986Y180502D01*
D02*
G37*
G36*
X25300Y183238D02*
X25334D01*
X25374Y183233D01*
X25423Y183223D01*
X25472Y183213D01*
X25585Y183189D01*
X25703Y183149D01*
X25826Y183095D01*
X25890Y183061D01*
X25949Y183021D01*
X25954Y183016D01*
X25964Y183011D01*
X25984Y182997D01*
X26003Y182977D01*
X26033Y182952D01*
X26063Y182923D01*
X26126Y182849D01*
X26190Y182761D01*
X26249Y182652D01*
X26269Y182593D01*
X26289Y182529D01*
X26299Y182460D01*
X26304Y182392D01*
Y182387D01*
Y182382D01*
Y182367D01*
Y182347D01*
X26299Y182298D01*
X26294Y182239D01*
X26284Y182165D01*
X26274Y182087D01*
X26254Y182003D01*
X26230Y181919D01*
X26225Y181909D01*
X26215Y181885D01*
X26200Y181845D01*
X26176Y181791D01*
X26141Y181732D01*
X26107Y181668D01*
X26063Y181599D01*
X26008Y181531D01*
X25998Y181521D01*
X25974Y181491D01*
X25954Y181472D01*
X25930Y181447D01*
X25895Y181417D01*
X25861Y181388D01*
X25821Y181349D01*
X25777Y181314D01*
X25723Y181270D01*
X25664Y181226D01*
X25605Y181181D01*
X25536Y181132D01*
X25457Y181083D01*
X25379Y181034D01*
X25374Y181029D01*
X25359Y181019D01*
X25334Y181004D01*
X25305Y180984D01*
X25265Y180960D01*
X25221Y180930D01*
X25128Y180866D01*
X25024Y180793D01*
X24926Y180719D01*
X24877Y180684D01*
X24837Y180650D01*
X24798Y180615D01*
X24769Y180586D01*
X24764Y180581D01*
X24759Y180571D01*
X24744Y180556D01*
X24724Y180537D01*
X24705Y180507D01*
X24680Y180473D01*
X24655Y180438D01*
X24631Y180394D01*
X24581Y180291D01*
X24537Y180178D01*
X24518Y180109D01*
X24508Y180045D01*
X24498Y179971D01*
Y179897D01*
X25005Y179941D01*
X25029D01*
X25054Y179946D01*
X25088D01*
X25133Y179951D01*
X25182D01*
X25236Y179956D01*
X25295Y179961D01*
X25418Y179966D01*
X25546Y179971D01*
X25659Y179976D01*
X25792D01*
X25826Y179971D01*
X25875Y179966D01*
X25930Y179961D01*
X25989Y179946D01*
X26053Y179932D01*
X26117Y179907D01*
X26122D01*
X26126Y179902D01*
X26151Y179892D01*
X26190Y179873D01*
X26230Y179848D01*
X26269Y179814D01*
X26309Y179774D01*
X26333Y179725D01*
X26343Y179700D01*
Y179671D01*
Y179666D01*
Y179656D01*
X26338Y179636D01*
X26333Y179612D01*
X26313Y179558D01*
X26299Y179528D01*
X26274Y179499D01*
X26269Y179494D01*
X26264Y179489D01*
X26249Y179474D01*
X26230Y179464D01*
X26176Y179435D01*
X26141Y179430D01*
X26107Y179425D01*
X26082D01*
X26063Y179430D01*
X26038Y179435D01*
X26008Y179440D01*
X25974Y179449D01*
X25935Y179464D01*
X25930D01*
X25915Y179469D01*
X25895Y179479D01*
X25871Y179484D01*
X25817Y179499D01*
X25787Y179504D01*
X25669D01*
X25615Y179499D01*
X25546Y179494D01*
X25467Y179489D01*
X25379Y179484D01*
X25339D01*
X25295Y179479D01*
X25236D01*
X25177Y179474D01*
X25113D01*
X25054Y179469D01*
X24960D01*
X24926Y179464D01*
X24887D01*
X24837Y179459D01*
X24778Y179454D01*
X24710Y179445D01*
X24700D01*
X24680Y179440D01*
X24645Y179435D01*
X24606D01*
X24513Y179425D01*
X24464Y179420D01*
X24404D01*
X24380Y179425D01*
X24345Y179430D01*
X24336D01*
X24316Y179435D01*
X24291Y179440D01*
X24262D01*
X24237Y179445D01*
X24208Y179449D01*
X24173Y179459D01*
X24139Y179479D01*
X24099Y179508D01*
X24070Y179548D01*
X24045Y179602D01*
Y179607D01*
X24040Y179622D01*
X24035Y179641D01*
X24031Y179671D01*
X24026Y179715D01*
X24021Y179764D01*
X24016Y179828D01*
Y179902D01*
Y179907D01*
Y179927D01*
Y179956D01*
X24021Y180000D01*
X24026Y180050D01*
X24031Y180104D01*
X24040Y180168D01*
X24055Y180237D01*
X24094Y180384D01*
X24119Y180463D01*
X24149Y180542D01*
X24183Y180615D01*
X24227Y180694D01*
X24276Y180763D01*
X24331Y180832D01*
X24340Y180842D01*
X24350Y180852D01*
X24365Y180866D01*
X24385Y180881D01*
X24409Y180906D01*
X24444Y180935D01*
X24483Y180970D01*
X24527Y181004D01*
X24581Y181048D01*
X24645Y181098D01*
X24719Y181152D01*
X24803Y181211D01*
X24892Y181280D01*
X24995Y181349D01*
X25108Y181427D01*
X25113Y181432D01*
X25123Y181437D01*
X25142Y181452D01*
X25167Y181467D01*
X25226Y181511D01*
X25300Y181570D01*
X25379Y181629D01*
X25457Y181693D01*
X25526Y181757D01*
X25556Y181786D01*
X25580Y181811D01*
X25585Y181816D01*
X25590Y181821D01*
X25600Y181836D01*
X25615Y181855D01*
X25649Y181904D01*
X25688Y181968D01*
X25728Y182052D01*
X25762Y182146D01*
X25787Y182254D01*
X25797Y182308D01*
Y182367D01*
Y182372D01*
X25792Y182396D01*
X25787Y182426D01*
X25772Y182465D01*
X25748Y182510D01*
X25708Y182554D01*
X25659Y182603D01*
X25590Y182652D01*
X25580Y182657D01*
X25561Y182672D01*
X25521Y182687D01*
X25477Y182711D01*
X25423Y182731D01*
X25364Y182746D01*
X25300Y182761D01*
X25236Y182765D01*
X25196D01*
X25152Y182761D01*
X25093Y182751D01*
X25029Y182731D01*
X24956Y182711D01*
X24877Y182677D01*
X24798Y182633D01*
X24444Y182357D01*
X24439Y182352D01*
X24429Y182342D01*
X24409Y182333D01*
X24385Y182318D01*
X24326Y182288D01*
X24301Y182278D01*
X24272Y182273D01*
X24262D01*
X24232Y182278D01*
X24193Y182283D01*
X24149Y182298D01*
X24099Y182323D01*
X24060Y182357D01*
X24031Y182406D01*
X24026Y182441D01*
X24021Y182475D01*
Y182480D01*
Y182495D01*
X24026Y182519D01*
X24031Y182544D01*
X24045Y182579D01*
X24060Y182608D01*
X24085Y182642D01*
X24114Y182677D01*
X24119Y182682D01*
X24129Y182687D01*
X24144Y182702D01*
X24163Y182721D01*
X24217Y182770D01*
X24286Y182829D01*
X24365Y182893D01*
X24449Y182957D01*
X24532Y183016D01*
X24616Y183071D01*
X24621D01*
X24631Y183080D01*
X24645Y183085D01*
X24670Y183100D01*
X24695Y183110D01*
X24729Y183125D01*
X24808Y183159D01*
X24896Y183189D01*
X25005Y183218D01*
X25113Y183238D01*
X25231Y183243D01*
X25270D01*
X25300Y183238D01*
D02*
G37*
G36*
X69108Y183223D02*
X69132Y183218D01*
X69157Y183208D01*
X69191Y183194D01*
X69216Y183174D01*
X69245Y183149D01*
X69250Y183144D01*
X69255Y183134D01*
X69270Y183120D01*
X69285Y183100D01*
X69309Y183046D01*
X69314Y183011D01*
X69319Y182972D01*
Y182967D01*
Y182962D01*
Y182948D01*
Y182928D01*
Y182898D01*
Y182869D01*
Y182829D01*
X69314Y182790D01*
Y182736D01*
Y182682D01*
X69309Y182623D01*
Y182554D01*
X69304Y182480D01*
X69299Y182396D01*
X69295Y182313D01*
X69290Y182219D01*
Y182214D01*
Y182200D01*
X69285Y182175D01*
Y182141D01*
Y182096D01*
X69280Y182052D01*
Y181998D01*
X69275Y181944D01*
X69270Y181821D01*
X69265Y181698D01*
Y181580D01*
Y181521D01*
Y181472D01*
X69270Y181476D01*
X69280Y181486D01*
X69299Y181506D01*
X69324Y181531D01*
X69353Y181560D01*
X69393Y181595D01*
X69432Y181639D01*
X69481Y181688D01*
X69536Y181742D01*
X69595Y181801D01*
X69654Y181870D01*
X69718Y181939D01*
X69860Y182091D01*
X70013Y182264D01*
X70726Y183090D01*
X70731Y183095D01*
X70741Y183105D01*
X70761Y183120D01*
X70780Y183139D01*
X70839Y183174D01*
X70874Y183184D01*
X70913Y183189D01*
X70928D01*
X70948Y183184D01*
X70972Y183179D01*
X71002Y183169D01*
X71031Y183154D01*
X71061Y183134D01*
X71090Y183110D01*
X71095Y183105D01*
X71105Y183095D01*
X71115Y183080D01*
X71130Y183061D01*
X71159Y183007D01*
X71164Y182972D01*
X71169Y182933D01*
Y182923D01*
X71164Y182913D01*
X71159Y182893D01*
X71149Y182874D01*
X71135Y182844D01*
X71115Y182805D01*
X71090Y182761D01*
X71056Y182706D01*
X71012Y182647D01*
X70957Y182574D01*
X70898Y182495D01*
X70825Y182401D01*
X70736Y182298D01*
X70638Y182185D01*
X70525Y182057D01*
X70520Y182052D01*
X70505Y182037D01*
X70480Y182008D01*
X70451Y181973D01*
X70406Y181929D01*
X70362Y181880D01*
X70308Y181821D01*
X70249Y181757D01*
X70180Y181688D01*
X70111Y181609D01*
X69954Y181452D01*
X69791Y181280D01*
X69614Y181107D01*
X69619Y181103D01*
X69629Y181093D01*
X69649Y181073D01*
X69673Y181048D01*
X69703Y181019D01*
X69742Y180980D01*
X69791Y180930D01*
X69846Y180876D01*
X69905Y180817D01*
X69973Y180748D01*
X70052Y180675D01*
X70136Y180596D01*
X70229Y180507D01*
X70328Y180414D01*
X70436Y180315D01*
X70549Y180207D01*
X70810Y179991D01*
X70815Y179986D01*
X70834Y179971D01*
X70864Y179951D01*
X70898Y179932D01*
X70943Y179902D01*
X70997Y179877D01*
X71056Y179853D01*
X71115Y179828D01*
X71125Y179823D01*
X71144Y179814D01*
X71179Y179799D01*
X71213Y179774D01*
X71248Y179740D01*
X71282Y179695D01*
X71302Y179646D01*
X71312Y179582D01*
Y179577D01*
Y179568D01*
X71307Y179553D01*
Y179528D01*
X71287Y179479D01*
X71277Y179449D01*
X71258Y179425D01*
X71253Y179420D01*
X71248Y179410D01*
X71233Y179395D01*
X71213Y179376D01*
X71189Y179356D01*
X71159Y179341D01*
X71125Y179331D01*
X71085Y179326D01*
X71066D01*
X71046Y179331D01*
X71017Y179336D01*
X70977Y179346D01*
X70928Y179361D01*
X70874Y179381D01*
X70810Y179410D01*
X70736Y179445D01*
X70657Y179489D01*
X70569Y179543D01*
X70470Y179607D01*
X70367Y179681D01*
X70254Y179769D01*
X70136Y179868D01*
X70008Y179986D01*
X69270Y180738D01*
Y180699D01*
Y179405D01*
Y179400D01*
Y179395D01*
X69265Y179366D01*
X69260Y179326D01*
X69245Y179282D01*
X69216Y179238D01*
X69176Y179199D01*
X69127Y179169D01*
X69093Y179164D01*
X69053Y179159D01*
X69029D01*
X69004Y179164D01*
X68970Y179174D01*
X68935Y179189D01*
X68896Y179213D01*
X68862Y179243D01*
X68827Y179287D01*
X68822Y179292D01*
X68817Y179307D01*
X68807Y179326D01*
X68793Y179351D01*
X68778Y179385D01*
X68768Y179420D01*
X68763Y179459D01*
X68758Y179504D01*
Y179508D01*
Y179533D01*
Y179563D01*
Y179612D01*
Y179671D01*
Y179745D01*
X68763Y179833D01*
Y179937D01*
Y180050D01*
X68768Y180178D01*
Y180320D01*
X68773Y180478D01*
X68778Y180645D01*
X68783Y180827D01*
X68788Y181024D01*
X68793Y181235D01*
Y181240D01*
Y181250D01*
Y181265D01*
Y181285D01*
Y181314D01*
X68798Y181344D01*
Y181427D01*
X68802Y181521D01*
Y181634D01*
X68807Y181752D01*
X68812Y181885D01*
Y182023D01*
X68817Y182165D01*
X68822Y182456D01*
Y182598D01*
X68827Y182731D01*
Y182859D01*
Y182972D01*
Y182977D01*
Y182992D01*
X68832Y183007D01*
X68837Y183031D01*
X68857Y183090D01*
X68871Y183120D01*
X68896Y183149D01*
X68901Y183154D01*
X68911Y183164D01*
X68925Y183174D01*
X68945Y183189D01*
X68999Y183218D01*
X69029Y183223D01*
X69068Y183228D01*
X69088D01*
X69108Y183223D01*
D02*
G37*
G36*
X50328Y183184D02*
X50397Y183179D01*
X50476Y183169D01*
X50559Y183159D01*
X50653Y183144D01*
X50751Y183125D01*
X50849Y183100D01*
X50953Y183071D01*
X51051Y183031D01*
X51149Y182992D01*
X51238Y182943D01*
X51327Y182884D01*
X51405Y182820D01*
X51410Y182815D01*
X51425Y182800D01*
X51445Y182780D01*
X51469Y182746D01*
X51504Y182706D01*
X51538Y182657D01*
X51578Y182593D01*
X51617Y182524D01*
X51651Y182446D01*
X51691Y182357D01*
X51725Y182259D01*
X51760Y182150D01*
X51784Y182032D01*
X51804Y181904D01*
X51819Y181762D01*
X51824Y181614D01*
Y181604D01*
Y181575D01*
X51819Y181531D01*
Y181472D01*
X51809Y181393D01*
X51799Y181304D01*
X51784Y181206D01*
X51765Y181098D01*
X51740Y180980D01*
X51710Y180857D01*
X51671Y180729D01*
X51627Y180596D01*
X51573Y180463D01*
X51509Y180330D01*
X51440Y180197D01*
X51356Y180064D01*
X51351Y180055D01*
X51332Y180030D01*
X51302Y179991D01*
X51258Y179941D01*
X51204Y179882D01*
X51140Y179814D01*
X51066Y179745D01*
X50982Y179671D01*
X50889Y179597D01*
X50780Y179528D01*
X50667Y179459D01*
X50544Y179400D01*
X50411Y179351D01*
X50274Y179312D01*
X50126Y179287D01*
X49969Y179277D01*
X49939D01*
X49900Y179282D01*
X49851D01*
X49792Y179292D01*
X49723Y179302D01*
X49644Y179312D01*
X49560Y179331D01*
X49467Y179351D01*
X49373Y179381D01*
X49275Y179415D01*
X49172Y179454D01*
X49073Y179504D01*
X48975Y179558D01*
X48877Y179622D01*
X48783Y179695D01*
X48778Y179700D01*
X48763Y179715D01*
X48734Y179740D01*
X48704Y179774D01*
X48665Y179823D01*
X48621Y179873D01*
X48576Y179937D01*
X48527Y180005D01*
X48478Y180084D01*
X48434Y180173D01*
X48389Y180266D01*
X48350Y180369D01*
X48320Y180478D01*
X48296Y180596D01*
X48276Y180719D01*
X48271Y180847D01*
Y180852D01*
Y180857D01*
Y180886D01*
X48276Y180930D01*
X48281Y180989D01*
X48286Y181068D01*
X48296Y181157D01*
X48316Y181255D01*
X48335Y181363D01*
X48360Y181481D01*
X48394Y181604D01*
X48439Y181732D01*
X48483Y181865D01*
X48542Y182003D01*
X48611Y182136D01*
X48690Y182273D01*
X48778Y182406D01*
X48783Y182416D01*
X48803Y182441D01*
X48837Y182480D01*
X48881Y182529D01*
X48936Y182588D01*
X49004Y182652D01*
X49078Y182726D01*
X49167Y182800D01*
X49265Y182869D01*
X49373Y182943D01*
X49492Y183007D01*
X49615Y183066D01*
X49747Y183115D01*
X49890Y183154D01*
X50038Y183179D01*
X50195Y183189D01*
X50274D01*
X50328Y183184D01*
D02*
G37*
G36*
X66072Y183253D02*
X66097Y183248D01*
X66121Y183238D01*
X66156Y183223D01*
X66180Y183203D01*
X66210Y183179D01*
X66215Y183174D01*
X66220Y183164D01*
X66234Y183149D01*
X66249Y183130D01*
X66274Y183075D01*
X66278Y183041D01*
X66284Y183002D01*
Y182997D01*
Y182987D01*
Y182967D01*
Y182938D01*
Y182903D01*
Y182864D01*
Y182820D01*
Y182765D01*
Y182706D01*
Y182642D01*
X66278Y182569D01*
Y182495D01*
Y182333D01*
X66274Y182155D01*
Y181964D01*
X66269Y181757D01*
X66259Y181545D01*
X66254Y181329D01*
X66239Y180886D01*
X66224Y180660D01*
X66215Y180443D01*
X66185Y180069D01*
Y180060D01*
X66180Y180035D01*
Y179996D01*
X66175Y179946D01*
Y179892D01*
X66170Y179828D01*
Y179705D01*
X66234D01*
X66288Y179710D01*
X66352D01*
X66426Y179720D01*
X66515Y179725D01*
X66618Y179740D01*
X66731Y179754D01*
X66854Y179774D01*
X66987Y179799D01*
X67130Y179828D01*
X67287Y179863D01*
X67449Y179902D01*
X67622Y179951D01*
X67804Y180005D01*
X67814Y180010D01*
X67833Y180015D01*
X67858Y180020D01*
X67907D01*
X67922Y180015D01*
X67946Y180010D01*
X67976Y180000D01*
X68006Y179981D01*
X68035Y179961D01*
X68064Y179932D01*
X68069Y179927D01*
X68074Y179917D01*
X68084Y179902D01*
X68099Y179882D01*
X68119Y179828D01*
X68124Y179794D01*
X68129Y179759D01*
Y179754D01*
Y179735D01*
X68119Y179705D01*
X68109Y179671D01*
X68089Y179631D01*
X68060Y179597D01*
X68020Y179558D01*
X67966Y179528D01*
X67961D01*
X67951Y179523D01*
X67937Y179513D01*
X67912Y179508D01*
X67883Y179494D01*
X67848Y179484D01*
X67804Y179469D01*
X67750Y179449D01*
X67695Y179435D01*
X67627Y179415D01*
X67558Y179395D01*
X67474Y179376D01*
X67391Y179356D01*
X67297Y179336D01*
X67194Y179317D01*
X67085Y179297D01*
X67080D01*
X67061Y179292D01*
X67031Y179287D01*
X66992Y179282D01*
X66948Y179272D01*
X66894Y179267D01*
X66834Y179258D01*
X66766Y179248D01*
X66623Y179228D01*
X66475Y179213D01*
X66323Y179203D01*
X66185Y179199D01*
X66146D01*
X66101Y179203D01*
X66047Y179208D01*
X65988Y179218D01*
X65929Y179233D01*
X65870Y179253D01*
X65826Y179277D01*
X65821Y179282D01*
X65801Y179297D01*
X65782Y179326D01*
X65752Y179366D01*
X65728Y179415D01*
X65703Y179479D01*
X65683Y179563D01*
X65678Y179656D01*
X65728Y180478D01*
Y180483D01*
Y180492D01*
Y180507D01*
X65732Y180532D01*
Y180556D01*
Y180591D01*
X65737Y180630D01*
Y180679D01*
X65742Y180729D01*
Y180783D01*
X65747Y180847D01*
Y180911D01*
X65752Y181058D01*
X65762Y181221D01*
X65767Y181398D01*
X65772Y181595D01*
X65777Y181801D01*
X65782Y182023D01*
X65786Y182254D01*
Y182495D01*
X65791Y182746D01*
Y183002D01*
Y183007D01*
Y183021D01*
X65796Y183036D01*
X65801Y183061D01*
X65821Y183120D01*
X65836Y183149D01*
X65860Y183179D01*
X65865Y183184D01*
X65875Y183194D01*
X65890Y183203D01*
X65910Y183218D01*
X65964Y183248D01*
X65993Y183253D01*
X66033Y183257D01*
X66052D01*
X66072Y183253D01*
D02*
G37*
G36*
X57708Y183213D02*
X57737Y183208D01*
X57777Y183198D01*
X57816Y183174D01*
X57855Y183144D01*
X57900Y183100D01*
X57934Y183041D01*
Y183036D01*
X57944Y183021D01*
X57954Y182992D01*
X57964Y182967D01*
X57974Y182943D01*
X57983Y182913D01*
X57998Y182874D01*
X58013Y182834D01*
X58028Y182785D01*
X58047Y182731D01*
X58067Y182672D01*
X58092Y182603D01*
X58116Y182524D01*
Y182519D01*
X58121Y182505D01*
X58131Y182480D01*
X58141Y182446D01*
X58156Y182401D01*
X58170Y182347D01*
X58185Y182288D01*
X58205Y182219D01*
X58229Y182146D01*
X58249Y182062D01*
X58274Y181973D01*
X58298Y181880D01*
X58323Y181777D01*
X58352Y181673D01*
X58377Y181560D01*
X58407Y181442D01*
X58648Y180345D01*
X58653Y180350D01*
X58657Y180374D01*
X58672Y180409D01*
X58692Y180453D01*
X58716Y180517D01*
X58746Y180586D01*
X58780Y180670D01*
X58815Y180763D01*
X58854Y180866D01*
X58894Y180980D01*
X58938Y181107D01*
X58982Y181235D01*
X59031Y181378D01*
X59081Y181526D01*
X59130Y181683D01*
X59179Y181845D01*
Y181850D01*
X59184Y181870D01*
X59194Y181895D01*
X59204Y181934D01*
X59218Y181978D01*
X59233Y182027D01*
X59253Y182082D01*
X59268Y182141D01*
X59307Y182264D01*
X59351Y182392D01*
X59371Y182446D01*
X59390Y182500D01*
X59410Y182549D01*
X59425Y182593D01*
X59430Y182598D01*
X59435Y182618D01*
X59445Y182642D01*
X59464Y182682D01*
X59484Y182721D01*
X59509Y182765D01*
X59563Y182869D01*
X59627Y182972D01*
X59666Y183016D01*
X59701Y183061D01*
X59740Y183095D01*
X59779Y183120D01*
X59819Y183139D01*
X59858Y183144D01*
X59868D01*
X59887Y183139D01*
X59917Y183134D01*
X59951Y183125D01*
X59996Y183100D01*
X60035Y183071D01*
X60074Y183026D01*
X60104Y182967D01*
Y182962D01*
X60109Y182957D01*
X60114Y182943D01*
X60119Y182923D01*
X60128Y182893D01*
X60138Y182859D01*
X60148Y182810D01*
X60158Y182761D01*
X60173Y182697D01*
X60188Y182623D01*
X60202Y182539D01*
X60217Y182446D01*
X60237Y182342D01*
X60251Y182224D01*
X60266Y182091D01*
X60286Y181949D01*
Y181944D01*
X60291Y181929D01*
Y181909D01*
X60296Y181875D01*
X60301Y181836D01*
X60306Y181791D01*
X60316Y181737D01*
X60325Y181673D01*
X60335Y181604D01*
X60350Y181531D01*
X60365Y181452D01*
X60379Y181363D01*
X60394Y181270D01*
X60414Y181176D01*
X60453Y180970D01*
X60670Y179996D01*
X60675Y180005D01*
X60685Y180035D01*
X60704Y180079D01*
X60729Y180143D01*
X60763Y180222D01*
X60803Y180320D01*
X60847Y180433D01*
X60896Y180566D01*
X60955Y180709D01*
X61019Y180871D01*
X61088Y181048D01*
X61162Y181245D01*
X61241Y181452D01*
X61319Y181673D01*
X61408Y181904D01*
X61501Y182155D01*
Y182160D01*
X61506Y182175D01*
X61516Y182200D01*
X61526Y182244D01*
X61536Y182269D01*
X61541Y182303D01*
X61550Y182342D01*
X61565Y182387D01*
X61575Y182436D01*
X61590Y182495D01*
X61604Y182559D01*
X61624Y182628D01*
Y182633D01*
X61629Y182642D01*
Y182657D01*
X61639Y182677D01*
X61654Y182726D01*
X61673Y182795D01*
X61698Y182864D01*
X61727Y182938D01*
X61757Y183011D01*
X61796Y183075D01*
X61801Y183080D01*
X61811Y183095D01*
X61836Y183120D01*
X61860Y183144D01*
X61895Y183169D01*
X61934Y183194D01*
X61983Y183208D01*
X62033Y183213D01*
X62042D01*
X62072Y183208D01*
X62111Y183198D01*
X62160Y183184D01*
X62205Y183154D01*
X62244Y183110D01*
X62259Y183080D01*
X62274Y183046D01*
X62279Y183007D01*
X62283Y182962D01*
Y182952D01*
X62279Y182938D01*
X62274Y182918D01*
X62264Y182884D01*
X62249Y182844D01*
X62229Y182785D01*
X62200Y182716D01*
X62102Y182451D01*
X61969Y182008D01*
X61231Y180212D01*
Y180207D01*
X61226Y180197D01*
X61221Y180183D01*
X61211Y180158D01*
X61201Y180128D01*
X61186Y180089D01*
X61172Y180045D01*
X61152Y179996D01*
X61127Y179937D01*
X61103Y179873D01*
X61073Y179804D01*
X61044Y179725D01*
X61009Y179641D01*
X60970Y179553D01*
X60926Y179459D01*
X60881Y179356D01*
X60876Y179351D01*
X60866Y179331D01*
X60842Y179302D01*
X60817Y179272D01*
X60778Y179243D01*
X60734Y179213D01*
X60680Y179194D01*
X60616Y179189D01*
X60596D01*
X60576Y179194D01*
X60547Y179199D01*
X60483Y179218D01*
X60448Y179233D01*
X60414Y179258D01*
X60409Y179262D01*
X60399Y179272D01*
X60384Y179287D01*
X60365Y179307D01*
X60345Y179336D01*
X60330Y179366D01*
X60320Y179400D01*
X60316Y179440D01*
Y179445D01*
X60311Y179454D01*
X60306Y179469D01*
X60296Y179489D01*
X60276Y179543D01*
X60251Y179612D01*
X60227Y179691D01*
X60202Y179774D01*
X60183Y179853D01*
X60168Y179927D01*
Y179932D01*
Y179937D01*
X60163Y179951D01*
Y179971D01*
X60158Y179996D01*
X60148Y180030D01*
X60143Y180074D01*
X60133Y180128D01*
X60119Y180192D01*
X60109Y180271D01*
X60089Y180355D01*
X60074Y180458D01*
X60050Y180571D01*
X60030Y180694D01*
X60001Y180837D01*
X59971Y180994D01*
Y181004D01*
X59966Y181024D01*
X59961Y181058D01*
X59951Y181107D01*
X59942Y181162D01*
X59932Y181226D01*
X59917Y181299D01*
X59902Y181378D01*
X59878Y181550D01*
X59848Y181727D01*
X59824Y181904D01*
X59814Y181988D01*
X59804Y182067D01*
Y182057D01*
X59794Y182032D01*
X59784Y181988D01*
X59764Y181929D01*
X59745Y181860D01*
X59720Y181777D01*
X59691Y181688D01*
X59661Y181590D01*
X59627Y181481D01*
X59592Y181368D01*
X59509Y181137D01*
X59420Y180901D01*
X59376Y180788D01*
X59327Y180679D01*
X59322Y180675D01*
X59312Y180650D01*
X59297Y180615D01*
X59282Y180571D01*
X59258Y180517D01*
X59228Y180453D01*
X59204Y180384D01*
X59169Y180306D01*
X59105Y180143D01*
X59046Y179971D01*
X58992Y179804D01*
X58967Y179725D01*
X58948Y179651D01*
Y179646D01*
X58953Y179641D01*
X58963Y179617D01*
X58972Y179577D01*
X58977Y179538D01*
Y179533D01*
Y179518D01*
X58972Y179499D01*
X58967Y179474D01*
X58953Y179445D01*
X58938Y179415D01*
X58913Y179385D01*
X58879Y179356D01*
X58874Y179351D01*
X58864Y179346D01*
X58844Y179336D01*
X58820Y179322D01*
X58790Y179307D01*
X58756Y179297D01*
X58716Y179292D01*
X58677Y179287D01*
X58648D01*
X58623Y179292D01*
X58574Y179302D01*
X58510Y179326D01*
X58451Y179361D01*
X58421Y179385D01*
X58397Y179415D01*
X58372Y179449D01*
X58357Y179489D01*
X58347Y179533D01*
X58343Y179587D01*
X58264Y179902D01*
X57993Y181122D01*
Y181127D01*
X57983Y181152D01*
X57974Y181186D01*
X57964Y181235D01*
X57944Y181299D01*
X57920Y181378D01*
X57895Y181467D01*
X57865Y181575D01*
X57826Y181693D01*
X57787Y181826D01*
X57742Y181968D01*
X57693Y182126D01*
X57639Y182298D01*
X57580Y182480D01*
X57511Y182677D01*
X57442Y182888D01*
Y182893D01*
Y182898D01*
X57437Y182923D01*
X57432Y182952D01*
X57428Y182987D01*
Y182992D01*
Y182997D01*
X57432Y183021D01*
X57442Y183061D01*
X57462Y183105D01*
X57491Y183144D01*
X57536Y183184D01*
X57565Y183198D01*
X57600Y183208D01*
X57639Y183218D01*
X57688D01*
X57708Y183213D01*
D02*
G37*
G36*
X36882D02*
X36911Y183208D01*
X36950Y183198D01*
X36990Y183174D01*
X37029Y183144D01*
X37073Y183100D01*
X37108Y183041D01*
Y183036D01*
X37118Y183021D01*
X37128Y182992D01*
X37137Y182967D01*
X37147Y182943D01*
X37157Y182913D01*
X37172Y182874D01*
X37187Y182834D01*
X37201Y182785D01*
X37221Y182731D01*
X37241Y182672D01*
X37265Y182603D01*
X37290Y182524D01*
Y182519D01*
X37295Y182505D01*
X37305Y182480D01*
X37315Y182446D01*
X37329Y182401D01*
X37344Y182347D01*
X37359Y182288D01*
X37378Y182219D01*
X37403Y182146D01*
X37423Y182062D01*
X37447Y181973D01*
X37472Y181880D01*
X37497Y181777D01*
X37526Y181673D01*
X37551Y181560D01*
X37580Y181442D01*
X37821Y180345D01*
X37826Y180350D01*
X37831Y180374D01*
X37846Y180409D01*
X37866Y180453D01*
X37890Y180517D01*
X37920Y180586D01*
X37954Y180670D01*
X37988Y180763D01*
X38028Y180866D01*
X38067Y180980D01*
X38111Y181107D01*
X38156Y181235D01*
X38205Y181378D01*
X38254Y181526D01*
X38303Y181683D01*
X38353Y181845D01*
Y181850D01*
X38357Y181870D01*
X38367Y181895D01*
X38377Y181934D01*
X38392Y181978D01*
X38407Y182027D01*
X38426Y182082D01*
X38441Y182141D01*
X38480Y182264D01*
X38525Y182392D01*
X38544Y182446D01*
X38564Y182500D01*
X38584Y182549D01*
X38599Y182593D01*
X38604Y182598D01*
X38609Y182618D01*
X38618Y182642D01*
X38638Y182682D01*
X38658Y182721D01*
X38682Y182765D01*
X38736Y182869D01*
X38800Y182972D01*
X38840Y183016D01*
X38874Y183061D01*
X38914Y183095D01*
X38953Y183120D01*
X38992Y183139D01*
X39032Y183144D01*
X39041D01*
X39061Y183139D01*
X39091Y183134D01*
X39125Y183125D01*
X39169Y183100D01*
X39209Y183071D01*
X39248Y183026D01*
X39278Y182967D01*
Y182962D01*
X39283Y182957D01*
X39287Y182943D01*
X39292Y182923D01*
X39302Y182893D01*
X39312Y182859D01*
X39322Y182810D01*
X39332Y182761D01*
X39347Y182697D01*
X39361Y182623D01*
X39376Y182539D01*
X39391Y182446D01*
X39410Y182342D01*
X39425Y182224D01*
X39440Y182091D01*
X39460Y181949D01*
Y181944D01*
X39465Y181929D01*
Y181909D01*
X39470Y181875D01*
X39474Y181836D01*
X39479Y181791D01*
X39489Y181737D01*
X39499Y181673D01*
X39509Y181604D01*
X39524Y181531D01*
X39538Y181452D01*
X39553Y181363D01*
X39568Y181270D01*
X39588Y181176D01*
X39627Y180970D01*
X39843Y179996D01*
X39848Y180005D01*
X39858Y180035D01*
X39878Y180079D01*
X39902Y180143D01*
X39937Y180222D01*
X39976Y180320D01*
X40020Y180433D01*
X40070Y180566D01*
X40129Y180709D01*
X40193Y180871D01*
X40262Y181048D01*
X40335Y181245D01*
X40414Y181452D01*
X40493Y181673D01*
X40581Y181904D01*
X40675Y182155D01*
Y182160D01*
X40680Y182175D01*
X40690Y182200D01*
X40699Y182244D01*
X40709Y182269D01*
X40714Y182303D01*
X40724Y182342D01*
X40739Y182387D01*
X40749Y182436D01*
X40763Y182495D01*
X40778Y182559D01*
X40798Y182628D01*
Y182633D01*
X40803Y182642D01*
Y182657D01*
X40813Y182677D01*
X40827Y182726D01*
X40847Y182795D01*
X40872Y182864D01*
X40901Y182938D01*
X40931Y183011D01*
X40970Y183075D01*
X40975Y183080D01*
X40985Y183095D01*
X41009Y183120D01*
X41034Y183144D01*
X41069Y183169D01*
X41108Y183194D01*
X41157Y183208D01*
X41206Y183213D01*
X41216D01*
X41246Y183208D01*
X41285Y183198D01*
X41334Y183184D01*
X41378Y183154D01*
X41418Y183110D01*
X41432Y183080D01*
X41447Y183046D01*
X41452Y183007D01*
X41457Y182962D01*
Y182952D01*
X41452Y182938D01*
X41447Y182918D01*
X41438Y182884D01*
X41423Y182844D01*
X41403Y182785D01*
X41374Y182716D01*
X41275Y182451D01*
X41142Y182008D01*
X40404Y180212D01*
Y180207D01*
X40399Y180197D01*
X40394Y180183D01*
X40385Y180158D01*
X40375Y180128D01*
X40360Y180089D01*
X40345Y180045D01*
X40325Y179996D01*
X40301Y179937D01*
X40276Y179873D01*
X40247Y179804D01*
X40217Y179725D01*
X40183Y179641D01*
X40143Y179553D01*
X40099Y179459D01*
X40055Y179356D01*
X40050Y179351D01*
X40040Y179331D01*
X40016Y179302D01*
X39991Y179272D01*
X39952Y179243D01*
X39907Y179213D01*
X39853Y179194D01*
X39789Y179189D01*
X39770D01*
X39750Y179194D01*
X39720Y179199D01*
X39656Y179218D01*
X39622Y179233D01*
X39588Y179258D01*
X39583Y179262D01*
X39573Y179272D01*
X39558Y179287D01*
X39538Y179307D01*
X39519Y179336D01*
X39504Y179366D01*
X39494Y179400D01*
X39489Y179440D01*
Y179445D01*
X39484Y179454D01*
X39479Y179469D01*
X39470Y179489D01*
X39450Y179543D01*
X39425Y179612D01*
X39401Y179691D01*
X39376Y179774D01*
X39356Y179853D01*
X39342Y179927D01*
Y179932D01*
Y179937D01*
X39337Y179951D01*
Y179971D01*
X39332Y179996D01*
X39322Y180030D01*
X39317Y180074D01*
X39307Y180128D01*
X39292Y180192D01*
X39283Y180271D01*
X39263Y180355D01*
X39248Y180458D01*
X39224Y180571D01*
X39204Y180694D01*
X39174Y180837D01*
X39145Y180994D01*
Y181004D01*
X39140Y181024D01*
X39135Y181058D01*
X39125Y181107D01*
X39115Y181162D01*
X39105Y181226D01*
X39091Y181299D01*
X39076Y181378D01*
X39051Y181550D01*
X39022Y181727D01*
X38997Y181904D01*
X38987Y181988D01*
X38978Y182067D01*
Y182057D01*
X38968Y182032D01*
X38958Y181988D01*
X38938Y181929D01*
X38918Y181860D01*
X38894Y181777D01*
X38864Y181688D01*
X38835Y181590D01*
X38800Y181481D01*
X38766Y181368D01*
X38682Y181137D01*
X38594Y180901D01*
X38549Y180788D01*
X38500Y180679D01*
X38495Y180675D01*
X38486Y180650D01*
X38471Y180615D01*
X38456Y180571D01*
X38431Y180517D01*
X38402Y180453D01*
X38377Y180384D01*
X38343Y180306D01*
X38279Y180143D01*
X38220Y179971D01*
X38166Y179804D01*
X38141Y179725D01*
X38121Y179651D01*
Y179646D01*
X38126Y179641D01*
X38136Y179617D01*
X38146Y179577D01*
X38151Y179538D01*
Y179533D01*
Y179518D01*
X38146Y179499D01*
X38141Y179474D01*
X38126Y179445D01*
X38111Y179415D01*
X38087Y179385D01*
X38052Y179356D01*
X38048Y179351D01*
X38038Y179346D01*
X38018Y179336D01*
X37993Y179322D01*
X37964Y179307D01*
X37929Y179297D01*
X37890Y179292D01*
X37851Y179287D01*
X37821D01*
X37797Y179292D01*
X37747Y179302D01*
X37683Y179326D01*
X37624Y179361D01*
X37595Y179385D01*
X37570Y179415D01*
X37546Y179449D01*
X37531Y179489D01*
X37521Y179533D01*
X37516Y179587D01*
X37437Y179902D01*
X37167Y181122D01*
Y181127D01*
X37157Y181152D01*
X37147Y181186D01*
X37137Y181235D01*
X37118Y181299D01*
X37093Y181378D01*
X37069Y181467D01*
X37039Y181575D01*
X37000Y181693D01*
X36960Y181826D01*
X36916Y181968D01*
X36867Y182126D01*
X36813Y182298D01*
X36754Y182480D01*
X36685Y182677D01*
X36616Y182888D01*
Y182893D01*
Y182898D01*
X36611Y182923D01*
X36606Y182952D01*
X36601Y182987D01*
Y182992D01*
Y182997D01*
X36606Y183021D01*
X36616Y183061D01*
X36636Y183105D01*
X36665Y183144D01*
X36709Y183184D01*
X36739Y183198D01*
X36773Y183208D01*
X36813Y183218D01*
X36862D01*
X36882Y183213D01*
D02*
G37*
G36*
X42362Y183282D02*
X42402Y183272D01*
X42451Y183253D01*
X42485Y183238D01*
X42520Y183223D01*
X42564Y183203D01*
X42613Y183179D01*
X42667Y183154D01*
X42726Y183125D01*
X42731D01*
X42741Y183115D01*
X42761Y183105D01*
X42786Y183095D01*
X42849Y183066D01*
X42928Y183031D01*
X43002Y182992D01*
X43076Y182957D01*
X43105Y182943D01*
X43135Y182933D01*
X43155Y182923D01*
X43169Y182918D01*
X43179Y182913D01*
X43199Y182908D01*
X43238Y182893D01*
X43287Y182874D01*
X43346Y182849D01*
X43420Y182815D01*
X43499Y182780D01*
X43583Y182736D01*
X43676Y182687D01*
X43769Y182633D01*
X43873Y182569D01*
X43971Y182505D01*
X44075Y182431D01*
X44178Y182352D01*
X44276Y182269D01*
X44370Y182175D01*
X44375Y182170D01*
X44394Y182150D01*
X44424Y182116D01*
X44463Y182072D01*
X44508Y182018D01*
X44557Y181954D01*
X44606Y181880D01*
X44665Y181796D01*
X44719Y181703D01*
X44768Y181604D01*
X44818Y181496D01*
X44862Y181383D01*
X44901Y181265D01*
X44931Y181142D01*
X44950Y181019D01*
X44955Y180886D01*
Y180881D01*
Y180866D01*
Y180842D01*
X44950Y180812D01*
Y180773D01*
X44945Y180729D01*
X44941Y180679D01*
X44931Y180625D01*
X44906Y180497D01*
X44872Y180360D01*
X44822Y180217D01*
X44754Y180069D01*
Y180064D01*
X44744Y180055D01*
X44734Y180030D01*
X44719Y180005D01*
X44695Y179971D01*
X44670Y179937D01*
X44611Y179848D01*
X44532Y179745D01*
X44439Y179641D01*
X44330Y179538D01*
X44207Y179445D01*
X44203Y179440D01*
X44188Y179435D01*
X44168Y179420D01*
X44139Y179405D01*
X44094Y179385D01*
X44050Y179361D01*
X43991Y179336D01*
X43927Y179317D01*
X43853Y179292D01*
X43769Y179267D01*
X43681Y179243D01*
X43583Y179223D01*
X43474Y179208D01*
X43361Y179194D01*
X43238Y179189D01*
X43105Y179184D01*
X43076D01*
X43036Y179189D01*
X42987Y179194D01*
X42923Y179199D01*
X42854Y179208D01*
X42771Y179223D01*
X42687Y179243D01*
X42682D01*
X42677Y179248D01*
X42663D01*
X42643Y179258D01*
X42594Y179272D01*
X42530Y179292D01*
X42461Y179317D01*
X42392Y179346D01*
X42328Y179376D01*
X42269Y179415D01*
X42225D01*
X42205Y179420D01*
X42180Y179425D01*
X42151Y179435D01*
X42121Y179445D01*
X42092Y179464D01*
X42062Y179489D01*
X42057Y179494D01*
X42053Y179504D01*
X42043Y179518D01*
X42028Y179538D01*
X42003Y179597D01*
X41998Y179627D01*
X41993Y179666D01*
Y179671D01*
Y179681D01*
Y179695D01*
Y179715D01*
Y179745D01*
Y179774D01*
Y179814D01*
X41998Y179863D01*
Y179912D01*
Y179971D01*
X42003Y180035D01*
Y180104D01*
X42008Y180183D01*
Y180266D01*
X42013Y180355D01*
X42018Y180448D01*
Y180453D01*
Y180473D01*
Y180497D01*
X42023Y180532D01*
Y180576D01*
X42028Y180625D01*
Y180684D01*
X42033Y180743D01*
Y180866D01*
X42038Y180999D01*
X42043Y181122D01*
Y181181D01*
Y181230D01*
Y181235D01*
Y181245D01*
Y181260D01*
Y181285D01*
Y181314D01*
Y181353D01*
Y181398D01*
Y181447D01*
X42038Y181506D01*
Y181570D01*
Y181639D01*
Y181718D01*
X42033Y181801D01*
Y181895D01*
Y181993D01*
X42028Y182096D01*
Y182101D01*
Y182121D01*
Y182150D01*
Y182190D01*
Y182239D01*
X42023Y182293D01*
Y182357D01*
Y182421D01*
Y182559D01*
X42018Y182706D01*
Y182844D01*
Y182903D01*
Y182962D01*
Y182967D01*
Y182982D01*
X42023Y183002D01*
X42033Y183026D01*
X42043Y183061D01*
X42062Y183095D01*
X42087Y183139D01*
X42121Y183179D01*
X42126Y183184D01*
X42141Y183198D01*
X42161Y183213D01*
X42185Y183238D01*
X42220Y183257D01*
X42254Y183272D01*
X42289Y183287D01*
X42328Y183292D01*
X42343D01*
X42362Y183282D01*
D02*
G37*
G36*
X27760Y179779D02*
X27784Y179774D01*
X27834Y179754D01*
X27858Y179740D01*
X27883Y179715D01*
X27888Y179710D01*
X27893Y179705D01*
X27903Y179691D01*
X27917Y179671D01*
X27937Y179622D01*
X27942Y179592D01*
X27947Y179558D01*
Y179553D01*
Y179548D01*
X27942Y179538D01*
X27937Y179518D01*
X27927Y179499D01*
X27917Y179469D01*
X27903Y179430D01*
X27883Y179385D01*
X27858Y179326D01*
X27834Y179258D01*
X27799Y179179D01*
X27755Y179085D01*
X27711Y178977D01*
X27656Y178854D01*
X27593Y178716D01*
X27588Y178711D01*
X27583Y178697D01*
X27568Y178672D01*
X27548Y178647D01*
X27524Y178623D01*
X27489Y178598D01*
X27455Y178584D01*
X27411Y178579D01*
X27396D01*
X27381Y178584D01*
X27361Y178588D01*
X27312Y178608D01*
X27288Y178623D01*
X27263Y178647D01*
X27258Y178652D01*
X27253Y178657D01*
X27243Y178672D01*
X27233Y178692D01*
X27209Y178741D01*
X27204Y178770D01*
X27199Y178800D01*
Y178805D01*
X27204Y178820D01*
X27209Y178844D01*
X27219Y178884D01*
X27238Y178938D01*
X27248Y178972D01*
X27263Y179012D01*
X27283Y179056D01*
X27302Y179110D01*
X27327Y179164D01*
X27351Y179228D01*
Y179233D01*
X27356Y179243D01*
X27366Y179258D01*
X27371Y179277D01*
X27396Y179331D01*
X27425Y179395D01*
X27460Y179469D01*
X27494Y179538D01*
X27529Y179607D01*
X27558Y179661D01*
X27563Y179666D01*
X27568Y179681D01*
X27583Y179700D01*
X27602Y179725D01*
X27627Y179745D01*
X27656Y179764D01*
X27691Y179779D01*
X27730Y179784D01*
X27745D01*
X27760Y179779D01*
D02*
G37*
G36*
X30682Y178239D02*
X30702Y178234D01*
X30731Y178224D01*
X30756Y178215D01*
X30786Y178195D01*
X30815Y178170D01*
X30820Y178165D01*
X30830Y178160D01*
X30840Y178146D01*
X30855Y178126D01*
X30884Y178072D01*
X30889Y178042D01*
X30894Y178008D01*
Y178003D01*
Y177998D01*
X30889Y177983D01*
X30884Y177964D01*
X30874Y177944D01*
X30864Y177919D01*
X30845Y177895D01*
X30820Y177870D01*
X30791Y177841D01*
X30751Y177816D01*
X30702Y177791D01*
X30643Y177772D01*
X30579Y177752D01*
X30500Y177737D01*
X30407Y177732D01*
X30303Y177727D01*
X30185D01*
X30107Y177732D01*
X30087D01*
X30067Y177737D01*
X30048D01*
X30003Y177742D01*
X29969D01*
X29546Y177732D01*
X29128Y177718D01*
Y177713D01*
Y177703D01*
Y177688D01*
X29123Y177673D01*
Y177644D01*
X29118Y177614D01*
Y177575D01*
X29113Y177526D01*
X29103Y177472D01*
X29098Y177403D01*
X29088Y177324D01*
X29078Y177235D01*
X29064Y177137D01*
X29049Y177024D01*
X29034Y176896D01*
X29039Y176901D01*
X29049Y176906D01*
X29069Y176921D01*
X29098Y176940D01*
X29133Y176960D01*
X29172Y176980D01*
X29221Y177004D01*
X29275Y177034D01*
X29339Y177058D01*
X29408Y177083D01*
X29482Y177103D01*
X29566Y177122D01*
X29649Y177142D01*
X29743Y177157D01*
X29841Y177162D01*
X29944Y177167D01*
X29969D01*
X29998Y177162D01*
X30033D01*
X30082Y177152D01*
X30131Y177142D01*
X30190Y177132D01*
X30254Y177112D01*
X30318Y177093D01*
X30387Y177063D01*
X30456Y177029D01*
X30525Y176985D01*
X30594Y176935D01*
X30658Y176881D01*
X30722Y176812D01*
X30776Y176739D01*
X30781Y176734D01*
X30786Y176724D01*
X30800Y176699D01*
X30815Y176675D01*
X30835Y176635D01*
X30855Y176596D01*
X30874Y176542D01*
X30899Y176488D01*
X30923Y176424D01*
X30943Y176355D01*
X30963Y176276D01*
X30983Y176197D01*
X30997Y176109D01*
X31012Y176015D01*
X31017Y175917D01*
X31022Y175814D01*
Y175804D01*
Y175784D01*
Y175750D01*
X31017Y175700D01*
X31012Y175646D01*
X31002Y175577D01*
X30987Y175504D01*
X30973Y175425D01*
X30953Y175341D01*
X30928Y175248D01*
X30894Y175159D01*
X30855Y175066D01*
X30810Y174972D01*
X30756Y174879D01*
X30697Y174790D01*
X30628Y174707D01*
X30623Y174702D01*
X30609Y174687D01*
X30584Y174667D01*
X30554Y174638D01*
X30515Y174603D01*
X30466Y174564D01*
X30407Y174524D01*
X30343Y174485D01*
X30269Y174441D01*
X30185Y174401D01*
X30097Y174362D01*
X30003Y174328D01*
X29900Y174298D01*
X29787Y174278D01*
X29674Y174264D01*
X29551Y174259D01*
X29521D01*
X29482Y174264D01*
X29438Y174269D01*
X29379Y174274D01*
X29310Y174288D01*
X29236Y174303D01*
X29157Y174323D01*
X29074Y174352D01*
X28990Y174387D01*
X28901Y174426D01*
X28818Y174480D01*
X28734Y174539D01*
X28655Y174608D01*
X28582Y174687D01*
X28517Y174780D01*
Y174785D01*
X28513Y174790D01*
X28498Y174825D01*
X28478Y174869D01*
X28473Y174918D01*
Y174923D01*
Y174933D01*
X28478Y174953D01*
X28483Y174977D01*
X28493Y175002D01*
X28503Y175031D01*
X28523Y175061D01*
X28547Y175085D01*
X28552Y175090D01*
X28562Y175095D01*
X28577Y175110D01*
X28596Y175125D01*
X28655Y175149D01*
X28685Y175154D01*
X28719Y175159D01*
X28739D01*
X28759Y175154D01*
X28783Y175144D01*
X28813Y175130D01*
X28847Y175110D01*
X28882Y175085D01*
X28916Y175046D01*
X28921Y175041D01*
X28936Y175021D01*
X28960Y174992D01*
X28990Y174962D01*
X29054Y174893D01*
X29088Y174864D01*
X29113Y174844D01*
X29123Y174839D01*
X29142Y174830D01*
X29177Y174810D01*
X29231Y174790D01*
X29295Y174770D01*
X29369Y174751D01*
X29457Y174741D01*
X29556Y174736D01*
X29595D01*
X29629Y174741D01*
X29664Y174746D01*
X29708Y174756D01*
X29752Y174766D01*
X29807Y174775D01*
X29915Y174815D01*
X29974Y174839D01*
X30033Y174874D01*
X30097Y174908D01*
X30151Y174953D01*
X30210Y175002D01*
X30264Y175061D01*
X30269Y175066D01*
X30274Y175076D01*
X30289Y175095D01*
X30308Y175115D01*
X30328Y175149D01*
X30353Y175184D01*
X30377Y175228D01*
X30402Y175272D01*
X30426Y175327D01*
X30451Y175385D01*
X30495Y175513D01*
X30530Y175656D01*
X30535Y175735D01*
X30540Y175814D01*
Y175819D01*
Y175828D01*
Y175848D01*
Y175873D01*
X30535Y175907D01*
Y175942D01*
X30525Y176025D01*
X30510Y176119D01*
X30486Y176212D01*
X30456Y176311D01*
X30417Y176399D01*
Y176404D01*
X30412Y176414D01*
X30402Y176424D01*
X30387Y176443D01*
X30353Y176493D01*
X30299Y176547D01*
X30235Y176596D01*
X30151Y176645D01*
X30107Y176665D01*
X30057Y176675D01*
X30003Y176684D01*
X29944Y176689D01*
X29900D01*
X29851Y176684D01*
X29792Y176680D01*
X29723Y176670D01*
X29649Y176660D01*
X29575Y176640D01*
X29506Y176616D01*
X29502Y176611D01*
X29482Y176606D01*
X29457Y176591D01*
X29423Y176571D01*
X29384Y176542D01*
X29334Y176507D01*
X29285Y176468D01*
X29236Y176419D01*
X28965Y176123D01*
X28960Y176119D01*
X28946Y176109D01*
X28926Y176089D01*
X28896Y176069D01*
X28862Y176050D01*
X28828Y176030D01*
X28788Y176020D01*
X28744Y176015D01*
X28729D01*
X28709Y176020D01*
X28685Y176025D01*
X28631Y176045D01*
X28606Y176060D01*
X28577Y176084D01*
X28572Y176089D01*
X28567Y176099D01*
X28557Y176114D01*
X28542Y176133D01*
X28517Y176183D01*
X28513Y176217D01*
X28508Y176251D01*
Y176256D01*
Y176266D01*
Y176286D01*
X28513Y176325D01*
Y176350D01*
X28517Y176379D01*
X28523Y176419D01*
Y176458D01*
X28527Y176507D01*
X28532Y176561D01*
X28542Y176625D01*
X28547Y176694D01*
Y176704D01*
X28552Y176729D01*
X28557Y176768D01*
X28562Y176822D01*
X28567Y176881D01*
X28572Y176955D01*
X28582Y177034D01*
X28591Y177117D01*
X28606Y177290D01*
X28616Y177457D01*
X28621Y177536D01*
X28626Y177609D01*
X28631Y177668D01*
Y177723D01*
Y177727D01*
Y177737D01*
Y177757D01*
X28626Y177777D01*
X28611Y177836D01*
X28586Y177910D01*
Y177914D01*
X28582Y177924D01*
X28572Y177944D01*
X28567Y177969D01*
X28547Y178018D01*
X28542Y178042D01*
Y178062D01*
Y178067D01*
X28547Y178087D01*
X28557Y178111D01*
X28577Y178141D01*
X28606Y178165D01*
X28650Y178190D01*
X28680Y178200D01*
X28719Y178210D01*
X28759Y178215D01*
X28842D01*
X28887Y178210D01*
X28951Y178205D01*
X28965D01*
X28985Y178200D01*
X29010D01*
X29059Y178195D01*
X29211D01*
X29270Y178200D01*
X29433D01*
X29531Y178205D01*
X29561D01*
X29580Y178210D01*
X29629D01*
X29693Y178215D01*
X29767D01*
X29836Y178219D01*
X30048D01*
X30082Y178215D01*
X30121D01*
X30171Y178210D01*
X30249D01*
X30318Y178205D01*
X30387D01*
X30412Y178210D01*
X30451Y178215D01*
X30510Y178224D01*
X30515D01*
X30525Y178229D01*
X30540D01*
X30559Y178234D01*
X30604Y178239D01*
X30648Y178244D01*
X30663D01*
X30682Y178239D01*
D02*
G37*
G36*
X34825Y178303D02*
X34889Y178293D01*
X34977Y178274D01*
X35076Y178249D01*
X35194Y178210D01*
X35327Y178160D01*
X35332D01*
X35346Y178151D01*
X35371Y178141D01*
X35396Y178131D01*
X35430Y178111D01*
X35469Y178092D01*
X35553Y178047D01*
X35637Y177988D01*
X35676Y177954D01*
X35711Y177919D01*
X35740Y177885D01*
X35760Y177846D01*
X35774Y177806D01*
X35780Y177767D01*
Y177762D01*
Y177752D01*
X35774Y177732D01*
X35770Y177708D01*
X35760Y177678D01*
X35745Y177649D01*
X35725Y177614D01*
X35701Y177585D01*
X35696Y177580D01*
X35686Y177575D01*
X35671Y177560D01*
X35651Y177545D01*
X35597Y177521D01*
X35563Y177511D01*
X35524Y177506D01*
X35514D01*
X35484Y177516D01*
X35435Y177531D01*
X35405Y177545D01*
X35371Y177565D01*
X35366Y177570D01*
X35356Y177575D01*
X35337Y177585D01*
X35307Y177604D01*
X35278Y177619D01*
X35238Y177639D01*
X35150Y177683D01*
X35046Y177727D01*
X34943Y177767D01*
X34835Y177791D01*
X34781Y177796D01*
X34732Y177801D01*
X34722D01*
X34697Y177796D01*
X34663Y177791D01*
X34613Y177777D01*
X34554Y177752D01*
X34490Y177718D01*
X34417Y177668D01*
X34343Y177604D01*
X34338Y177600D01*
X34323Y177585D01*
X34299Y177560D01*
X34269Y177526D01*
X34225Y177477D01*
X34176Y177418D01*
X34117Y177344D01*
X34048Y177255D01*
X34043Y177245D01*
X34023Y177221D01*
X33994Y177181D01*
X33959Y177122D01*
X33915Y177053D01*
X33866Y176965D01*
X33816Y176871D01*
X33762Y176763D01*
X33708Y176645D01*
X33659Y176517D01*
X33610Y176379D01*
X33566Y176237D01*
X33531Y176089D01*
X33501Y175932D01*
X33482Y175769D01*
X33477Y175607D01*
Y175602D01*
Y175587D01*
Y175563D01*
Y175533D01*
X33482Y175494D01*
X33487Y175450D01*
X33497Y175351D01*
X33511Y175243D01*
X33536Y175135D01*
X33570Y175036D01*
X33595Y174992D01*
X33620Y174953D01*
X33629Y174943D01*
X33649Y174923D01*
X33693Y174889D01*
X33752Y174854D01*
X33787Y174835D01*
X33831Y174815D01*
X33875Y174800D01*
X33930Y174780D01*
X33989Y174770D01*
X34053Y174761D01*
X34121Y174751D01*
X34240D01*
X34269Y174756D01*
X34308Y174761D01*
X34353Y174766D01*
X34402Y174775D01*
X34456Y174785D01*
X34579Y174820D01*
X34643Y174844D01*
X34707Y174869D01*
X34776Y174903D01*
X34840Y174938D01*
X34904Y174982D01*
X34968Y175031D01*
X34973Y175036D01*
X34982Y175046D01*
X35002Y175061D01*
X35022Y175085D01*
X35051Y175115D01*
X35086Y175154D01*
X35120Y175199D01*
X35160Y175248D01*
X35199Y175307D01*
X35238Y175371D01*
X35278Y175440D01*
X35317Y175513D01*
X35356Y175597D01*
X35391Y175686D01*
X35420Y175779D01*
X35450Y175882D01*
X35420D01*
X35381Y175877D01*
X35337Y175873D01*
X35278Y175868D01*
X35204Y175858D01*
X35130Y175848D01*
X35046Y175838D01*
X34953Y175823D01*
X34859Y175804D01*
X34663Y175754D01*
X34461Y175696D01*
X34269Y175617D01*
X34264D01*
X34259Y175612D01*
X34235Y175607D01*
X34195Y175597D01*
X34156Y175592D01*
X34136D01*
X34117Y175597D01*
X34092Y175602D01*
X34062Y175612D01*
X34033Y175627D01*
X34003Y175646D01*
X33974Y175676D01*
X33969Y175681D01*
X33964Y175691D01*
X33954Y175705D01*
X33944Y175725D01*
X33920Y175784D01*
X33915Y175814D01*
X33910Y175853D01*
Y175858D01*
Y175877D01*
X33915Y175902D01*
X33925Y175932D01*
X33939Y175966D01*
X33964Y176005D01*
X33994Y176040D01*
X34038Y176074D01*
X34043Y176079D01*
X34062Y176089D01*
X34097Y176104D01*
X34141Y176123D01*
X34200Y176148D01*
X34279Y176178D01*
X34367Y176207D01*
X34471Y176237D01*
X34589Y176266D01*
X34727Y176296D01*
X34879Y176325D01*
X35046Y176350D01*
X35233Y176370D01*
X35435Y176384D01*
X35656Y176394D01*
X35893Y176399D01*
X35912D01*
X35927Y176394D01*
X35952Y176389D01*
X35981Y176379D01*
X36011Y176370D01*
X36040Y176350D01*
X36070Y176325D01*
X36075Y176320D01*
X36080Y176311D01*
X36094Y176296D01*
X36109Y176276D01*
X36119Y176247D01*
X36134Y176217D01*
X36139Y176183D01*
X36143Y176143D01*
Y176138D01*
Y176119D01*
X36139Y176089D01*
X36129Y176055D01*
X36109Y176015D01*
X36084Y175976D01*
X36050Y175942D01*
X36006Y175912D01*
Y175902D01*
X35996Y175877D01*
X35986Y175838D01*
X35971Y175784D01*
X35957Y175720D01*
X35932Y175646D01*
X35903Y175563D01*
X35868Y175474D01*
X35824Y175381D01*
X35780Y175282D01*
X35725Y175179D01*
X35666Y175076D01*
X35597Y174977D01*
X35524Y174879D01*
X35445Y174785D01*
X35356Y174697D01*
X35351Y174692D01*
X35332Y174677D01*
X35307Y174657D01*
X35268Y174628D01*
X35223Y174593D01*
X35164Y174554D01*
X35100Y174515D01*
X35027Y174470D01*
X34948Y174426D01*
X34855Y174387D01*
X34761Y174347D01*
X34658Y174313D01*
X34549Y174288D01*
X34436Y174264D01*
X34318Y174249D01*
X34195Y174244D01*
X34136D01*
X34097Y174249D01*
X34043Y174254D01*
X33989Y174264D01*
X33920Y174274D01*
X33851Y174288D01*
X33777Y174303D01*
X33703Y174328D01*
X33629Y174352D01*
X33551Y174387D01*
X33477Y174426D01*
X33408Y174470D01*
X33339Y174524D01*
X33280Y174584D01*
X33275Y174589D01*
X33265Y174598D01*
X33251Y174618D01*
X33231Y174647D01*
X33211Y174682D01*
X33182Y174726D01*
X33157Y174780D01*
X33128Y174839D01*
X33098Y174908D01*
X33073Y174982D01*
X33044Y175066D01*
X33024Y175159D01*
X33005Y175258D01*
X32990Y175366D01*
X32980Y175484D01*
X32975Y175607D01*
Y175617D01*
Y175636D01*
Y175671D01*
X32980Y175720D01*
X32985Y175774D01*
X32990Y175843D01*
X33000Y175922D01*
X33014Y176010D01*
X33029Y176109D01*
X33049Y176212D01*
X33073Y176320D01*
X33103Y176434D01*
X33137Y176552D01*
X33177Y176675D01*
X33221Y176798D01*
X33275Y176926D01*
X33280Y176935D01*
X33290Y176955D01*
X33305Y176989D01*
X33329Y177039D01*
X33359Y177098D01*
X33398Y177167D01*
X33437Y177240D01*
X33487Y177319D01*
X33541Y177408D01*
X33600Y177496D01*
X33664Y177590D01*
X33733Y177683D01*
X33885Y177865D01*
X33969Y177949D01*
X34058Y178033D01*
X34062Y178037D01*
X34072Y178042D01*
X34092Y178057D01*
X34112Y178077D01*
X34141Y178096D01*
X34176Y178121D01*
X34215Y178146D01*
X34264Y178175D01*
X34363Y178224D01*
X34476Y178269D01*
X34540Y178288D01*
X34599Y178303D01*
X34668Y178308D01*
X34732Y178313D01*
X34771D01*
X34825Y178303D01*
D02*
G37*
G36*
X32011Y177211D02*
X32055Y177191D01*
X32080Y177181D01*
X32104Y177162D01*
X32129Y177137D01*
X32153Y177112D01*
X32178Y177073D01*
X32198Y177034D01*
X32217Y176985D01*
X32232Y176926D01*
X32237Y176862D01*
X32242Y176783D01*
Y176778D01*
Y176763D01*
X32237Y176743D01*
X32232Y176719D01*
X32222Y176689D01*
X32212Y176660D01*
X32193Y176630D01*
X32168Y176601D01*
X32163Y176596D01*
X32153Y176591D01*
X32139Y176581D01*
X32119Y176566D01*
X32094Y176552D01*
X32065Y176542D01*
X32026Y176537D01*
X31986Y176532D01*
X31967D01*
X31947Y176537D01*
X31922Y176542D01*
X31858Y176561D01*
X31829Y176576D01*
X31799Y176601D01*
X31794Y176606D01*
X31789Y176616D01*
X31780Y176630D01*
X31765Y176650D01*
X31750Y176680D01*
X31740Y176709D01*
X31735Y176743D01*
X31730Y176783D01*
Y176788D01*
Y176807D01*
X31725Y176832D01*
X31721Y176871D01*
Y176876D01*
Y176881D01*
X31716Y176906D01*
X31711Y176940D01*
Y176970D01*
Y176975D01*
Y176989D01*
X31716Y177004D01*
X31721Y177029D01*
X31730Y177058D01*
X31740Y177088D01*
X31760Y177117D01*
X31784Y177142D01*
X31789Y177147D01*
X31799Y177152D01*
X31814Y177167D01*
X31834Y177181D01*
X31863Y177191D01*
X31893Y177206D01*
X31927Y177211D01*
X31967Y177216D01*
X31976D01*
X32011Y177211D01*
D02*
G37*
G36*
X25157Y178200D02*
X25201D01*
X25256Y178195D01*
X25315Y178185D01*
X25374Y178175D01*
X25511Y178146D01*
X25654Y178106D01*
X25792Y178047D01*
X25856Y178008D01*
X25915Y177969D01*
X25920Y177964D01*
X25930Y177959D01*
X25944Y177944D01*
X25969Y177919D01*
X25994Y177895D01*
X26023Y177865D01*
X26053Y177826D01*
X26087Y177782D01*
X26117Y177732D01*
X26146Y177678D01*
X26176Y177619D01*
X26200Y177555D01*
X26225Y177486D01*
X26240Y177413D01*
X26249Y177329D01*
X26254Y177245D01*
Y177240D01*
Y177221D01*
X26249Y177191D01*
Y177152D01*
X26240Y177103D01*
X26230Y177049D01*
X26215Y176989D01*
X26195Y176930D01*
X26171Y176866D01*
X26141Y176798D01*
X26102Y176734D01*
X26057Y176675D01*
X26003Y176616D01*
X25940Y176561D01*
X25866Y176512D01*
X25782Y176473D01*
X25772D01*
X25752Y176463D01*
X25723Y176453D01*
X25684Y176438D01*
X25688D01*
X25698Y176434D01*
X25713Y176424D01*
X25738Y176414D01*
X25797Y176389D01*
X25871Y176345D01*
X25949Y176296D01*
X26028Y176232D01*
X26107Y176158D01*
X26176Y176074D01*
Y176069D01*
X26180Y176065D01*
X26190Y176050D01*
X26200Y176030D01*
X26215Y176005D01*
X26230Y175981D01*
X26259Y175907D01*
X26289Y175819D01*
X26318Y175715D01*
X26338Y175602D01*
X26343Y175469D01*
Y175464D01*
Y175450D01*
Y175420D01*
X26338Y175385D01*
X26333Y175346D01*
X26323Y175297D01*
X26313Y175243D01*
X26299Y175184D01*
X26279Y175120D01*
X26259Y175056D01*
X26230Y174987D01*
X26195Y174913D01*
X26156Y174844D01*
X26107Y174775D01*
X26057Y174707D01*
X25994Y174643D01*
X25989Y174638D01*
X25979Y174628D01*
X25959Y174613D01*
X25935Y174589D01*
X25900Y174564D01*
X25861Y174534D01*
X25811Y174505D01*
X25757Y174475D01*
X25703Y174441D01*
X25639Y174411D01*
X25565Y174382D01*
X25492Y174357D01*
X25413Y174333D01*
X25329Y174318D01*
X25246Y174308D01*
X25152Y174303D01*
X25118D01*
X25088Y174308D01*
X25059D01*
X25019Y174313D01*
X24926Y174323D01*
X24823Y174343D01*
X24710Y174367D01*
X24591Y174406D01*
X24478Y174456D01*
X24473D01*
X24464Y174466D01*
X24449Y174475D01*
X24424Y174490D01*
X24365Y174529D01*
X24296Y174589D01*
X24222Y174662D01*
X24149Y174751D01*
X24085Y174849D01*
X24055Y174908D01*
X24031Y174967D01*
Y174977D01*
X24026Y174997D01*
X24021Y175021D01*
X24016Y175056D01*
Y175061D01*
Y175071D01*
X24021Y175090D01*
X24026Y175115D01*
X24035Y175139D01*
X24045Y175164D01*
X24065Y175194D01*
X24090Y175218D01*
X24094Y175223D01*
X24104Y175228D01*
X24119Y175238D01*
X24139Y175253D01*
X24193Y175277D01*
X24227Y175282D01*
X24262Y175287D01*
X24281D01*
X24296Y175282D01*
X24321Y175277D01*
X24350Y175262D01*
X24380Y175248D01*
X24409Y175223D01*
X24434Y175194D01*
X24552Y175021D01*
X24557Y175016D01*
X24567Y175002D01*
X24587Y174977D01*
X24616Y174953D01*
X24650Y174923D01*
X24690Y174893D01*
X24734Y174864D01*
X24788Y174839D01*
X24793D01*
X24818Y174830D01*
X24847Y174820D01*
X24892Y174810D01*
X24946Y174800D01*
X25005Y174790D01*
X25078Y174785D01*
X25152Y174780D01*
X25177D01*
X25196Y174785D01*
X25251Y174790D01*
X25315Y174800D01*
X25388Y174820D01*
X25467Y174849D01*
X25551Y174893D01*
X25629Y174948D01*
X25634D01*
X25639Y174958D01*
X25664Y174977D01*
X25698Y175016D01*
X25738Y175071D01*
X25777Y175135D01*
X25811Y175208D01*
X25836Y175292D01*
X25846Y175336D01*
Y175385D01*
Y175390D01*
Y175400D01*
Y175420D01*
X25841Y175450D01*
X25836Y175479D01*
X25831Y175513D01*
X25811Y175602D01*
X25777Y175696D01*
X25728Y175794D01*
X25698Y175843D01*
X25664Y175892D01*
X25620Y175937D01*
X25570Y175981D01*
X25565D01*
X25561Y175991D01*
X25546Y176000D01*
X25526Y176010D01*
X25502Y176025D01*
X25472Y176045D01*
X25438Y176065D01*
X25398Y176084D01*
X25305Y176123D01*
X25192Y176163D01*
X25064Y176192D01*
X24921Y176217D01*
X24911D01*
X24877Y176222D01*
X24837Y176237D01*
X24788Y176256D01*
X24734Y176281D01*
X24695Y176320D01*
X24660Y176374D01*
X24655Y176404D01*
X24650Y176438D01*
Y176443D01*
X24655Y176463D01*
X24660Y176488D01*
X24675Y176522D01*
X24705Y176557D01*
X24739Y176596D01*
X24793Y176630D01*
X24823Y176650D01*
X24862Y176665D01*
X25457Y176807D01*
X25467Y176812D01*
X25487Y176817D01*
X25516Y176832D01*
X25556Y176852D01*
X25639Y176906D01*
X25679Y176940D01*
X25713Y176975D01*
X25718Y176980D01*
X25728Y176994D01*
X25743Y177019D01*
X25757Y177049D01*
X25777Y177088D01*
X25792Y177132D01*
X25802Y177181D01*
X25807Y177235D01*
Y177240D01*
Y177245D01*
Y177270D01*
X25797Y177309D01*
X25787Y177358D01*
X25767Y177418D01*
X25738Y177477D01*
X25694Y177531D01*
X25634Y177585D01*
X25625Y177590D01*
X25600Y177609D01*
X25561Y177629D01*
X25502Y177659D01*
X25433Y177683D01*
X25344Y177708D01*
X25241Y177723D01*
X25128Y177727D01*
X25098D01*
X25064Y177723D01*
X25024Y177718D01*
X24970Y177708D01*
X24916Y177693D01*
X24857Y177673D01*
X24798Y177644D01*
X24518Y177467D01*
X24513D01*
X24503Y177457D01*
X24488Y177452D01*
X24473Y177442D01*
X24429Y177427D01*
X24385Y177418D01*
X24370D01*
X24350Y177422D01*
X24326Y177427D01*
X24301Y177437D01*
X24272Y177447D01*
X24247Y177467D01*
X24217Y177491D01*
X24213Y177496D01*
X24208Y177506D01*
X24198Y177521D01*
X24183Y177541D01*
X24158Y177595D01*
X24153Y177629D01*
X24149Y177664D01*
Y177673D01*
X24153Y177698D01*
X24168Y177737D01*
X24198Y177787D01*
X24217Y177811D01*
X24242Y177841D01*
X24272Y177875D01*
X24311Y177905D01*
X24350Y177939D01*
X24404Y177973D01*
X24459Y178008D01*
X24527Y178042D01*
X24532D01*
X24542Y178047D01*
X24557Y178057D01*
X24581Y178067D01*
X24611Y178082D01*
X24641Y178092D01*
X24719Y178126D01*
X24803Y178156D01*
X24896Y178180D01*
X24985Y178200D01*
X25069Y178205D01*
X25123D01*
X25157Y178200D01*
D02*
G37*
G36*
X32030Y175489D02*
X32050Y175484D01*
X32094Y175464D01*
X32119Y175450D01*
X32149Y175430D01*
X32173Y175400D01*
X32198Y175366D01*
X32222Y175327D01*
X32242Y175277D01*
X32262Y175218D01*
X32276Y175149D01*
X32281Y175071D01*
X32286Y174977D01*
Y174972D01*
Y174958D01*
X32281Y174938D01*
X32276Y174913D01*
X32267Y174884D01*
X32257Y174849D01*
X32237Y174820D01*
X32212Y174790D01*
X32208Y174785D01*
X32198Y174780D01*
X32183Y174770D01*
X32163Y174756D01*
X32134Y174741D01*
X32104Y174731D01*
X32070Y174726D01*
X32030Y174721D01*
X32011D01*
X31991Y174726D01*
X31967Y174731D01*
X31907Y174751D01*
X31878Y174766D01*
X31848Y174790D01*
X31844Y174795D01*
X31839Y174805D01*
X31824Y174820D01*
X31814Y174839D01*
X31799Y174869D01*
X31784Y174898D01*
X31780Y174938D01*
X31775Y174977D01*
Y174987D01*
Y175012D01*
X31770Y175051D01*
X31760Y175110D01*
Y175115D01*
Y175125D01*
X31755Y175144D01*
Y175164D01*
X31750Y175208D01*
X31745Y175248D01*
Y175253D01*
Y175267D01*
X31750Y175282D01*
X31755Y175307D01*
X31765Y175336D01*
X31775Y175366D01*
X31794Y175395D01*
X31819Y175420D01*
X31824Y175425D01*
X31834Y175430D01*
X31848Y175445D01*
X31873Y175459D01*
X31898Y175469D01*
X31932Y175484D01*
X31967Y175489D01*
X32006Y175494D01*
X32016D01*
X32030Y175489D01*
D02*
G37*
G36*
X36877Y178259D02*
X36906Y178249D01*
X36941Y178229D01*
X36990Y178195D01*
X37014Y178170D01*
X37044Y178141D01*
X37073Y178106D01*
X37108Y178072D01*
X37142Y178023D01*
X37177Y177973D01*
Y177969D01*
X37182Y177964D01*
X37192Y177949D01*
X37206Y177934D01*
X37236Y177885D01*
X37280Y177821D01*
X37334Y177742D01*
X37398Y177649D01*
X37472Y177545D01*
X37551Y177432D01*
X37634Y177314D01*
X37723Y177191D01*
X37910Y176935D01*
X38102Y176675D01*
X38195Y176552D01*
X38289Y176434D01*
X38294Y176424D01*
X38313Y176399D01*
X38348Y176360D01*
X38392Y176311D01*
X38446Y176247D01*
X38515Y176168D01*
X38589Y176084D01*
X38672Y175986D01*
X38766Y175882D01*
X38864Y175774D01*
X38973Y175661D01*
X39086Y175543D01*
X39204Y175420D01*
X39327Y175297D01*
X39583Y175046D01*
Y175051D01*
Y175066D01*
X39588Y175090D01*
Y175125D01*
Y175169D01*
Y175223D01*
Y175287D01*
X39583Y175361D01*
X39573Y175676D01*
Y175681D01*
Y175691D01*
Y175705D01*
Y175725D01*
Y175750D01*
Y175779D01*
Y175858D01*
Y175946D01*
X39568Y176055D01*
Y176173D01*
X39563Y176301D01*
X39558Y176434D01*
X39553Y176576D01*
X39538Y176866D01*
X39529Y177009D01*
X39519Y177147D01*
X39504Y177280D01*
X39489Y177408D01*
Y177413D01*
Y177422D01*
X39484Y177442D01*
X39479Y177467D01*
X39470Y177501D01*
X39460Y177545D01*
X39445Y177604D01*
X39425Y177668D01*
Y177678D01*
X39415Y177698D01*
X39410Y177727D01*
X39401Y177767D01*
X39386Y177855D01*
X39376Y177895D01*
Y177934D01*
Y177939D01*
Y177949D01*
Y177959D01*
X39381Y177978D01*
X39391Y178028D01*
X39410Y178082D01*
X39440Y178131D01*
X39484Y178180D01*
X39514Y178200D01*
X39553Y178210D01*
X39592Y178219D01*
X39637Y178224D01*
X39642D01*
X39656Y178219D01*
X39676Y178215D01*
X39706Y178200D01*
X39735Y178175D01*
X39775Y178141D01*
X39814Y178092D01*
X39853Y178023D01*
X39873Y177983D01*
X39893Y177939D01*
X39912Y177885D01*
X39932Y177831D01*
X39952Y177767D01*
X39971Y177698D01*
X39986Y177624D01*
X40001Y177545D01*
X40016Y177457D01*
X40030Y177358D01*
X40040Y177255D01*
X40050Y177142D01*
X40060Y177024D01*
X40065Y176896D01*
X40070Y176758D01*
Y176611D01*
Y176606D01*
Y176596D01*
Y176581D01*
Y176561D01*
Y176532D01*
Y176493D01*
Y176453D01*
Y176404D01*
Y176350D01*
Y176286D01*
X40065Y176222D01*
Y176148D01*
Y176065D01*
Y175976D01*
X40060Y175882D01*
Y175784D01*
Y175779D01*
Y175759D01*
Y175730D01*
Y175696D01*
Y175651D01*
Y175597D01*
Y175538D01*
Y175479D01*
X40055Y175341D01*
Y175208D01*
Y175076D01*
Y175016D01*
Y174962D01*
Y174958D01*
Y174938D01*
Y174908D01*
X40050Y174869D01*
X40045Y174815D01*
X40035Y174746D01*
X40025Y174662D01*
X40011Y174564D01*
Y174559D01*
Y174554D01*
X40001Y174524D01*
X39986Y174485D01*
X39961Y174441D01*
X39932Y174397D01*
X39883Y174357D01*
X39824Y174328D01*
X39789Y174323D01*
X39750Y174318D01*
X39745D01*
X39725Y174323D01*
X39696Y174328D01*
X39656Y174343D01*
X39612Y174362D01*
X39553Y174392D01*
X39494Y174436D01*
X39425Y174495D01*
X39420Y174500D01*
X39415Y174505D01*
X39401Y174520D01*
X39381Y174539D01*
X39356Y174564D01*
X39322Y174593D01*
X39287Y174633D01*
X39248Y174672D01*
X39199Y174721D01*
X39150Y174770D01*
X39096Y174830D01*
X39037Y174893D01*
X38973Y174962D01*
X38904Y175036D01*
X38830Y175115D01*
X38756Y175199D01*
X38677Y175287D01*
X38589Y175381D01*
X38505Y175484D01*
X38412Y175587D01*
X38318Y175696D01*
X38220Y175814D01*
X38121Y175937D01*
X38018Y176060D01*
X37910Y176192D01*
X37802Y176325D01*
X37693Y176468D01*
X37580Y176616D01*
X37462Y176768D01*
X37344Y176921D01*
X37226Y177083D01*
X37103Y177250D01*
X37093Y176689D01*
X37083Y176123D01*
Y176114D01*
Y176084D01*
Y176035D01*
Y175971D01*
X37088Y175882D01*
Y175774D01*
Y175651D01*
X37093Y175504D01*
Y175499D01*
Y175484D01*
Y175464D01*
Y175435D01*
Y175400D01*
X37098Y175366D01*
Y175272D01*
Y175174D01*
X37103Y175071D01*
Y174972D01*
Y174884D01*
Y174879D01*
Y174854D01*
Y174825D01*
X37098Y174780D01*
X37093Y174731D01*
X37088Y174672D01*
X37069Y174554D01*
X37039Y174431D01*
X37019Y174372D01*
X36995Y174323D01*
X36965Y174278D01*
X36931Y174249D01*
X36887Y174229D01*
X36842Y174220D01*
X36823D01*
X36798Y174224D01*
X36768Y174229D01*
X36734Y174239D01*
X36700Y174259D01*
X36660Y174278D01*
X36631Y174308D01*
X36626Y174313D01*
X36621Y174323D01*
X36606Y174338D01*
X36596Y174362D01*
X36567Y174416D01*
X36562Y174451D01*
X36557Y174485D01*
Y174490D01*
Y174505D01*
Y174529D01*
Y174564D01*
X36562Y174608D01*
Y174662D01*
X36567Y174726D01*
X36572Y174800D01*
Y174805D01*
Y174810D01*
X36577Y174835D01*
Y174874D01*
X36581Y174918D01*
Y174972D01*
X36586Y175026D01*
Y175076D01*
Y175120D01*
Y175125D01*
Y175149D01*
Y175184D01*
Y175233D01*
X36591Y175297D01*
Y175376D01*
Y175469D01*
X36596Y175577D01*
Y175582D01*
Y175592D01*
Y175607D01*
X36601Y175627D01*
Y175681D01*
X36606Y175750D01*
Y175823D01*
X36611Y175902D01*
Y175976D01*
Y176040D01*
Y176050D01*
Y176069D01*
Y176109D01*
Y176163D01*
Y176232D01*
X36606Y176315D01*
Y176414D01*
X36601Y176532D01*
Y176537D01*
Y176547D01*
Y176566D01*
Y176586D01*
X36596Y176645D01*
Y176719D01*
Y176803D01*
X36591Y176881D01*
Y176960D01*
Y177029D01*
Y177039D01*
Y177058D01*
Y177093D01*
X36586Y177147D01*
Y177211D01*
X36581Y177290D01*
X36572Y177383D01*
X36562Y177491D01*
Y177496D01*
Y177506D01*
X36557Y177521D01*
Y177541D01*
X36552Y177600D01*
X36547Y177668D01*
X36542Y177742D01*
X36537Y177821D01*
X36532Y177895D01*
Y177959D01*
Y177964D01*
Y177978D01*
X36537Y177998D01*
X36547Y178028D01*
X36557Y178057D01*
X36572Y178092D01*
X36596Y178131D01*
X36631Y178165D01*
X36636Y178170D01*
X36650Y178180D01*
X36670Y178195D01*
X36695Y178215D01*
X36729Y178234D01*
X36764Y178249D01*
X36808Y178259D01*
X36852Y178264D01*
X36857D01*
X36877Y178259D01*
D02*
G37*
G36*
X41103Y178269D02*
X41142Y178259D01*
X41192Y178239D01*
X41226Y178224D01*
X41260Y178210D01*
X41305Y178190D01*
X41354Y178165D01*
X41408Y178141D01*
X41467Y178111D01*
X41472D01*
X41482Y178101D01*
X41501Y178092D01*
X41526Y178082D01*
X41590Y178052D01*
X41669Y178018D01*
X41743Y177978D01*
X41816Y177944D01*
X41846Y177929D01*
X41875Y177919D01*
X41895Y177910D01*
X41910Y177905D01*
X41920Y177900D01*
X41939Y177895D01*
X41979Y177880D01*
X42028Y177860D01*
X42087Y177836D01*
X42161Y177801D01*
X42239Y177767D01*
X42323Y177723D01*
X42417Y177673D01*
X42510Y177619D01*
X42613Y177555D01*
X42712Y177491D01*
X42815Y177418D01*
X42918Y177339D01*
X43017Y177255D01*
X43110Y177162D01*
X43115Y177157D01*
X43135Y177137D01*
X43164Y177103D01*
X43204Y177058D01*
X43248Y177004D01*
X43297Y176940D01*
X43346Y176866D01*
X43406Y176783D01*
X43460Y176689D01*
X43509Y176591D01*
X43558Y176483D01*
X43602Y176370D01*
X43642Y176251D01*
X43671Y176128D01*
X43691Y176005D01*
X43696Y175873D01*
Y175868D01*
Y175853D01*
Y175828D01*
X43691Y175799D01*
Y175759D01*
X43686Y175715D01*
X43681Y175666D01*
X43671Y175612D01*
X43647Y175484D01*
X43612Y175346D01*
X43563Y175204D01*
X43494Y175056D01*
Y175051D01*
X43484Y175041D01*
X43474Y175016D01*
X43460Y174992D01*
X43435Y174958D01*
X43410Y174923D01*
X43351Y174835D01*
X43273Y174731D01*
X43179Y174628D01*
X43071Y174524D01*
X42948Y174431D01*
X42943Y174426D01*
X42928Y174421D01*
X42909Y174406D01*
X42879Y174392D01*
X42835Y174372D01*
X42790Y174347D01*
X42731Y174323D01*
X42667Y174303D01*
X42594Y174278D01*
X42510Y174254D01*
X42421Y174229D01*
X42323Y174210D01*
X42215Y174195D01*
X42102Y174180D01*
X41979Y174175D01*
X41846Y174170D01*
X41816D01*
X41777Y174175D01*
X41728Y174180D01*
X41664Y174185D01*
X41595Y174195D01*
X41511Y174210D01*
X41428Y174229D01*
X41423D01*
X41418Y174234D01*
X41403D01*
X41383Y174244D01*
X41334Y174259D01*
X41270Y174278D01*
X41201Y174303D01*
X41132Y174333D01*
X41069Y174362D01*
X41009Y174401D01*
X40965D01*
X40946Y174406D01*
X40921Y174411D01*
X40891Y174421D01*
X40862Y174431D01*
X40832Y174451D01*
X40803Y174475D01*
X40798Y174480D01*
X40793Y174490D01*
X40783Y174505D01*
X40768Y174524D01*
X40744Y174584D01*
X40739Y174613D01*
X40734Y174652D01*
Y174657D01*
Y174667D01*
Y174682D01*
Y174702D01*
Y174731D01*
Y174761D01*
Y174800D01*
X40739Y174849D01*
Y174898D01*
Y174958D01*
X40744Y175021D01*
Y175090D01*
X40749Y175169D01*
Y175253D01*
X40754Y175341D01*
X40758Y175435D01*
Y175440D01*
Y175459D01*
Y175484D01*
X40763Y175518D01*
Y175563D01*
X40768Y175612D01*
Y175671D01*
X40773Y175730D01*
Y175853D01*
X40778Y175986D01*
X40783Y176109D01*
Y176168D01*
Y176217D01*
Y176222D01*
Y176232D01*
Y176247D01*
Y176271D01*
Y176301D01*
Y176340D01*
Y176384D01*
Y176434D01*
X40778Y176493D01*
Y176557D01*
Y176625D01*
Y176704D01*
X40773Y176788D01*
Y176881D01*
Y176980D01*
X40768Y177083D01*
Y177088D01*
Y177108D01*
Y177137D01*
Y177176D01*
Y177226D01*
X40763Y177280D01*
Y177344D01*
Y177408D01*
Y177545D01*
X40758Y177693D01*
Y177831D01*
Y177890D01*
Y177949D01*
Y177954D01*
Y177969D01*
X40763Y177988D01*
X40773Y178013D01*
X40783Y178047D01*
X40803Y178082D01*
X40827Y178126D01*
X40862Y178165D01*
X40867Y178170D01*
X40881Y178185D01*
X40901Y178200D01*
X40926Y178224D01*
X40960Y178244D01*
X40995Y178259D01*
X41029Y178274D01*
X41069Y178279D01*
X41083D01*
X41103Y178269D01*
D02*
G37*
G36*
X27804Y174766D02*
X27829Y174761D01*
X27878Y174741D01*
X27903Y174726D01*
X27927Y174702D01*
X27932Y174697D01*
X27937Y174692D01*
X27947Y174677D01*
X27962Y174657D01*
X27981Y174608D01*
X27986Y174579D01*
X27991Y174544D01*
Y174539D01*
Y174534D01*
X27986Y174524D01*
X27981Y174505D01*
X27971Y174485D01*
X27962Y174456D01*
X27947Y174416D01*
X27927Y174372D01*
X27903Y174313D01*
X27878Y174244D01*
X27843Y174165D01*
X27799Y174072D01*
X27755Y173964D01*
X27701Y173841D01*
X27637Y173703D01*
X27632Y173698D01*
X27627Y173683D01*
X27612Y173659D01*
X27593Y173634D01*
X27568Y173609D01*
X27534Y173585D01*
X27499Y173570D01*
X27455Y173565D01*
X27440D01*
X27425Y173570D01*
X27406Y173575D01*
X27356Y173595D01*
X27332Y173609D01*
X27307Y173634D01*
X27302Y173639D01*
X27297Y173644D01*
X27288Y173659D01*
X27278Y173678D01*
X27253Y173728D01*
X27248Y173757D01*
X27243Y173786D01*
Y173791D01*
X27248Y173806D01*
X27253Y173831D01*
X27263Y173870D01*
X27283Y173924D01*
X27292Y173959D01*
X27307Y173998D01*
X27327Y174042D01*
X27347Y174097D01*
X27371Y174151D01*
X27396Y174215D01*
Y174220D01*
X27401Y174229D01*
X27411Y174244D01*
X27415Y174264D01*
X27440Y174318D01*
X27470Y174382D01*
X27504Y174456D01*
X27538Y174524D01*
X27573Y174593D01*
X27602Y174647D01*
X27607Y174652D01*
X27612Y174667D01*
X27627Y174687D01*
X27647Y174712D01*
X27671Y174731D01*
X27701Y174751D01*
X27735Y174766D01*
X27775Y174770D01*
X27789D01*
X27804Y174766D01*
D02*
G37*
G36*
X45059Y173270D02*
X45118Y173265D01*
X45182D01*
X45255Y173255D01*
X45408Y173240D01*
X45570Y173211D01*
X45728Y173176D01*
X45801Y173152D01*
X45870Y173127D01*
X45875Y173122D01*
X45895Y173112D01*
X45924Y173098D01*
X45954Y173073D01*
X45984Y173044D01*
X46013Y172999D01*
X46033Y172950D01*
X46038Y172891D01*
Y172886D01*
Y172876D01*
X46033Y172857D01*
X46028Y172832D01*
X46008Y172778D01*
X45993Y172748D01*
X45969Y172719D01*
X45964Y172714D01*
X45959Y172704D01*
X45939Y172694D01*
X45920Y172679D01*
X45895Y172660D01*
X45865Y172650D01*
X45831Y172640D01*
X45792Y172635D01*
X45767D01*
X45742Y172640D01*
X45713Y172645D01*
X45708D01*
X45693Y172650D01*
X45674Y172655D01*
X45644Y172665D01*
X45605Y172675D01*
X45560Y172684D01*
X45511Y172694D01*
X45457Y172704D01*
X45334Y172724D01*
X45196Y172743D01*
X45054Y172758D01*
X44906Y172763D01*
X44827D01*
X44773Y172758D01*
X44709Y172753D01*
X44635Y172748D01*
X44552Y172739D01*
X44463Y172724D01*
X44453D01*
X44439Y172719D01*
X44424D01*
X44375Y172709D01*
X44311Y172699D01*
X44232Y172684D01*
X44144Y172665D01*
X44050Y172640D01*
X43947Y172616D01*
Y172611D01*
X43952Y172591D01*
X43957Y172561D01*
X43961Y172522D01*
X43966Y172438D01*
X43971Y172394D01*
Y172355D01*
Y172350D01*
Y172340D01*
Y172320D01*
Y172291D01*
Y172256D01*
Y172212D01*
X43966Y172163D01*
Y172109D01*
X43961Y172045D01*
Y171971D01*
X43957Y171892D01*
X43952Y171809D01*
X43947Y171720D01*
X43942Y171622D01*
X43937Y171513D01*
X43927Y171405D01*
X45009Y171509D01*
X45029D01*
X45054Y171513D01*
X45088Y171518D01*
X45123D01*
X45167Y171523D01*
X45265Y171533D01*
X45364Y171543D01*
X45462Y171548D01*
X45506Y171553D01*
X45546Y171558D01*
X45619D01*
X45639Y171553D01*
X45664Y171548D01*
X45693Y171538D01*
X45723Y171528D01*
X45752Y171509D01*
X45782Y171484D01*
X45787Y171479D01*
X45797Y171469D01*
X45806Y171454D01*
X45821Y171435D01*
X45836Y171410D01*
X45851Y171381D01*
X45856Y171341D01*
X45861Y171302D01*
Y171292D01*
X45856Y171267D01*
X45851Y171228D01*
X45831Y171184D01*
X45806Y171140D01*
X45762Y171100D01*
X45708Y171071D01*
X45669Y171056D01*
X45629Y171051D01*
X45039Y170997D01*
X43898Y170894D01*
Y170884D01*
Y170864D01*
X43892Y170830D01*
X43888Y170785D01*
Y170736D01*
X43883Y170677D01*
X43878Y170559D01*
Y170554D01*
Y170534D01*
Y170500D01*
Y170466D01*
X43873Y170416D01*
Y170367D01*
Y170264D01*
Y170259D01*
Y170239D01*
Y170215D01*
Y170175D01*
X43878Y170131D01*
Y170087D01*
X43883Y169978D01*
X43892Y169865D01*
X43907Y169762D01*
X43917Y169713D01*
X43927Y169673D01*
X43937Y169644D01*
X43952Y169619D01*
X43957Y169614D01*
X43966Y169609D01*
X43986Y169600D01*
X44021Y169585D01*
X44075Y169570D01*
X44104Y169565D01*
X44139Y169560D01*
X44183Y169555D01*
X44227D01*
X44281Y169550D01*
X44453D01*
X44517Y169555D01*
X44690D01*
X44798Y169560D01*
X44847D01*
X44906Y169565D01*
X45049D01*
X45127Y169570D01*
X45305D01*
X45349Y169575D01*
X45413Y169585D01*
X45418D01*
X45428Y169590D01*
X45447D01*
X45467Y169595D01*
X45516Y169600D01*
X45536Y169605D01*
X45565D01*
X45595Y169600D01*
X45639Y169590D01*
X45688Y169570D01*
X45737Y169541D01*
X45782Y169496D01*
X45797Y169467D01*
X45811Y169432D01*
X45816Y169388D01*
X45821Y169344D01*
Y169334D01*
X45816Y169309D01*
X45811Y169275D01*
X45797Y169236D01*
X45772Y169191D01*
X45733Y169152D01*
X45678Y169117D01*
X45649Y169103D01*
X45610Y169093D01*
X45600D01*
X45585Y169088D01*
X45560Y169083D01*
X45531D01*
X45496Y169078D01*
X45447Y169073D01*
X45393Y169068D01*
X45334Y169063D01*
X45260Y169058D01*
X45177Y169053D01*
X45083D01*
X44980Y169049D01*
X44867Y169044D01*
X44527D01*
X44478Y169049D01*
X44414D01*
X44345Y169053D01*
X44267Y169063D01*
X44188Y169068D01*
X44021Y169093D01*
X43937Y169113D01*
X43858Y169132D01*
X43784Y169157D01*
X43715Y169181D01*
X43661Y169216D01*
X43612Y169250D01*
X43607Y169255D01*
X43602Y169260D01*
X43592Y169275D01*
X43578Y169295D01*
X43558Y169324D01*
X43538Y169359D01*
X43519Y169403D01*
X43494Y169457D01*
X43474Y169521D01*
X43450Y169595D01*
X43430Y169673D01*
X43415Y169772D01*
X43396Y169875D01*
X43386Y169993D01*
X43381Y170121D01*
X43376Y170264D01*
Y170269D01*
Y170293D01*
Y170323D01*
Y170367D01*
Y170416D01*
Y170475D01*
X43381Y170539D01*
Y170608D01*
Y170618D01*
Y170643D01*
X43386Y170682D01*
Y170731D01*
X43391Y170790D01*
X43396Y170864D01*
X43400Y170938D01*
X43406Y171017D01*
Y171021D01*
X43400Y171026D01*
X43391Y171056D01*
X43381Y171095D01*
X43376Y171140D01*
Y171144D01*
Y171154D01*
X43381Y171169D01*
Y171189D01*
X43396Y171238D01*
X43425Y171292D01*
Y171302D01*
Y171322D01*
X43430Y171361D01*
X43435Y171410D01*
Y171469D01*
X43440Y171538D01*
X43445Y171612D01*
X43450Y171691D01*
X43460Y171863D01*
X43464Y172040D01*
X43469Y172124D01*
X43474Y172207D01*
Y172281D01*
Y172350D01*
Y172355D01*
Y172370D01*
Y172389D01*
X43469Y172419D01*
Y172458D01*
X43464Y172502D01*
X43460Y172556D01*
X43450Y172620D01*
Y172630D01*
X43445Y172650D01*
X43440Y172679D01*
Y172719D01*
X43430Y172807D01*
X43425Y172852D01*
Y172886D01*
Y172891D01*
Y172901D01*
Y172916D01*
X43430Y172935D01*
X43440Y172980D01*
X43455Y173039D01*
X43484Y173093D01*
X43529Y173142D01*
X43558Y173157D01*
X43592Y173171D01*
X43627Y173181D01*
X43671Y173186D01*
X43691D01*
X43706Y173181D01*
X43730Y173176D01*
X43760Y173167D01*
X43789Y173157D01*
X43819Y173137D01*
X43848Y173112D01*
X43853D01*
X43863Y173117D01*
X43878Y173122D01*
X43898Y173127D01*
X43927Y173132D01*
X43957Y173142D01*
X44030Y173157D01*
X44119Y173176D01*
X44212Y173196D01*
X44409Y173231D01*
X44419D01*
X44434Y173235D01*
X44453D01*
X44508Y173245D01*
X44572Y173255D01*
X44645Y173260D01*
X44729Y173270D01*
X44906Y173275D01*
X45004D01*
X45059Y173270D01*
D02*
G37*
G36*
X38363D02*
X38421Y173265D01*
X38486D01*
X38559Y173255D01*
X38712Y173240D01*
X38874Y173211D01*
X39032Y173176D01*
X39105Y173152D01*
X39174Y173127D01*
X39179Y173122D01*
X39199Y173112D01*
X39228Y173098D01*
X39258Y173073D01*
X39287Y173044D01*
X39317Y172999D01*
X39337Y172950D01*
X39342Y172891D01*
Y172886D01*
Y172876D01*
X39337Y172857D01*
X39332Y172832D01*
X39312Y172778D01*
X39297Y172748D01*
X39273Y172719D01*
X39268Y172714D01*
X39263Y172704D01*
X39243Y172694D01*
X39224Y172679D01*
X39199Y172660D01*
X39169Y172650D01*
X39135Y172640D01*
X39096Y172635D01*
X39071D01*
X39046Y172640D01*
X39017Y172645D01*
X39012D01*
X38997Y172650D01*
X38978Y172655D01*
X38948Y172665D01*
X38909Y172675D01*
X38864Y172684D01*
X38815Y172694D01*
X38761Y172704D01*
X38638Y172724D01*
X38500Y172743D01*
X38357Y172758D01*
X38210Y172763D01*
X38131D01*
X38077Y172758D01*
X38013Y172753D01*
X37939Y172748D01*
X37856Y172739D01*
X37767Y172724D01*
X37757D01*
X37742Y172719D01*
X37728D01*
X37679Y172709D01*
X37615Y172699D01*
X37536Y172684D01*
X37447Y172665D01*
X37354Y172640D01*
X37251Y172616D01*
Y172611D01*
X37255Y172591D01*
X37260Y172561D01*
X37265Y172522D01*
X37270Y172438D01*
X37275Y172394D01*
Y172355D01*
Y172350D01*
Y172340D01*
Y172320D01*
Y172291D01*
Y172256D01*
Y172212D01*
X37270Y172163D01*
Y172109D01*
X37265Y172045D01*
Y171971D01*
X37260Y171892D01*
X37255Y171809D01*
X37251Y171720D01*
X37246Y171622D01*
X37241Y171513D01*
X37231Y171405D01*
X38313Y171509D01*
X38333D01*
X38357Y171513D01*
X38392Y171518D01*
X38426D01*
X38471Y171523D01*
X38569Y171533D01*
X38668Y171543D01*
X38766Y171548D01*
X38810Y171553D01*
X38849Y171558D01*
X38923D01*
X38943Y171553D01*
X38968Y171548D01*
X38997Y171538D01*
X39027Y171528D01*
X39056Y171509D01*
X39086Y171484D01*
X39091Y171479D01*
X39101Y171469D01*
X39110Y171454D01*
X39125Y171435D01*
X39140Y171410D01*
X39155Y171381D01*
X39160Y171341D01*
X39164Y171302D01*
Y171292D01*
X39160Y171267D01*
X39155Y171228D01*
X39135Y171184D01*
X39110Y171140D01*
X39066Y171100D01*
X39012Y171071D01*
X38973Y171056D01*
X38933Y171051D01*
X38343Y170997D01*
X37201Y170894D01*
Y170884D01*
Y170864D01*
X37196Y170830D01*
X37192Y170785D01*
Y170736D01*
X37187Y170677D01*
X37182Y170559D01*
Y170554D01*
Y170534D01*
Y170500D01*
Y170466D01*
X37177Y170416D01*
Y170367D01*
Y170264D01*
Y170259D01*
Y170239D01*
Y170215D01*
Y170175D01*
X37182Y170131D01*
Y170087D01*
X37187Y169978D01*
X37196Y169865D01*
X37211Y169762D01*
X37221Y169713D01*
X37231Y169673D01*
X37241Y169644D01*
X37255Y169619D01*
X37260Y169614D01*
X37270Y169609D01*
X37290Y169600D01*
X37324Y169585D01*
X37378Y169570D01*
X37408Y169565D01*
X37442Y169560D01*
X37487Y169555D01*
X37531D01*
X37585Y169550D01*
X37757D01*
X37821Y169555D01*
X37993D01*
X38102Y169560D01*
X38151D01*
X38210Y169565D01*
X38353D01*
X38431Y169570D01*
X38609D01*
X38653Y169575D01*
X38717Y169585D01*
X38722D01*
X38732Y169590D01*
X38751D01*
X38771Y169595D01*
X38820Y169600D01*
X38840Y169605D01*
X38869D01*
X38899Y169600D01*
X38943Y169590D01*
X38992Y169570D01*
X39041Y169541D01*
X39086Y169496D01*
X39101Y169467D01*
X39115Y169432D01*
X39120Y169388D01*
X39125Y169344D01*
Y169334D01*
X39120Y169309D01*
X39115Y169275D01*
X39101Y169236D01*
X39076Y169191D01*
X39037Y169152D01*
X38982Y169117D01*
X38953Y169103D01*
X38914Y169093D01*
X38904D01*
X38889Y169088D01*
X38864Y169083D01*
X38835D01*
X38800Y169078D01*
X38751Y169073D01*
X38697Y169068D01*
X38638Y169063D01*
X38564Y169058D01*
X38480Y169053D01*
X38387D01*
X38284Y169049D01*
X38171Y169044D01*
X37831D01*
X37782Y169049D01*
X37718D01*
X37649Y169053D01*
X37570Y169063D01*
X37492Y169068D01*
X37324Y169093D01*
X37241Y169113D01*
X37162Y169132D01*
X37088Y169157D01*
X37019Y169181D01*
X36965Y169216D01*
X36916Y169250D01*
X36911Y169255D01*
X36906Y169260D01*
X36896Y169275D01*
X36882Y169295D01*
X36862Y169324D01*
X36842Y169359D01*
X36823Y169403D01*
X36798Y169457D01*
X36778Y169521D01*
X36754Y169595D01*
X36734Y169673D01*
X36719Y169772D01*
X36700Y169875D01*
X36690Y169993D01*
X36685Y170121D01*
X36680Y170264D01*
Y170269D01*
Y170293D01*
Y170323D01*
Y170367D01*
Y170416D01*
Y170475D01*
X36685Y170539D01*
Y170608D01*
Y170618D01*
Y170643D01*
X36690Y170682D01*
Y170731D01*
X36695Y170790D01*
X36700Y170864D01*
X36704Y170938D01*
X36709Y171017D01*
Y171021D01*
X36704Y171026D01*
X36695Y171056D01*
X36685Y171095D01*
X36680Y171140D01*
Y171144D01*
Y171154D01*
X36685Y171169D01*
Y171189D01*
X36700Y171238D01*
X36729Y171292D01*
Y171302D01*
Y171322D01*
X36734Y171361D01*
X36739Y171410D01*
Y171469D01*
X36744Y171538D01*
X36749Y171612D01*
X36754Y171691D01*
X36764Y171863D01*
X36768Y172040D01*
X36773Y172124D01*
X36778Y172207D01*
Y172281D01*
Y172350D01*
Y172355D01*
Y172370D01*
Y172389D01*
X36773Y172419D01*
Y172458D01*
X36768Y172502D01*
X36764Y172556D01*
X36754Y172620D01*
Y172630D01*
X36749Y172650D01*
X36744Y172679D01*
Y172719D01*
X36734Y172807D01*
X36729Y172852D01*
Y172886D01*
Y172891D01*
Y172901D01*
Y172916D01*
X36734Y172935D01*
X36744Y172980D01*
X36759Y173039D01*
X36788Y173093D01*
X36832Y173142D01*
X36862Y173157D01*
X36896Y173171D01*
X36931Y173181D01*
X36975Y173186D01*
X36995D01*
X37010Y173181D01*
X37034Y173176D01*
X37064Y173167D01*
X37093Y173157D01*
X37123Y173137D01*
X37152Y173112D01*
X37157D01*
X37167Y173117D01*
X37182Y173122D01*
X37201Y173127D01*
X37231Y173132D01*
X37260Y173142D01*
X37334Y173157D01*
X37423Y173176D01*
X37516Y173196D01*
X37713Y173231D01*
X37723D01*
X37738Y173235D01*
X37757D01*
X37811Y173245D01*
X37875Y173255D01*
X37949Y173260D01*
X38033Y173270D01*
X38210Y173275D01*
X38308D01*
X38363Y173270D01*
D02*
G37*
G36*
X46786Y173044D02*
X46825D01*
X46879Y173034D01*
X46948Y173029D01*
X47032Y173019D01*
X47086Y173009D01*
X47140Y173004D01*
X47150D01*
X47179Y172999D01*
X47223Y172994D01*
X47282Y172989D01*
X47346Y172985D01*
X47410Y172980D01*
X47479Y172975D01*
X47794D01*
X47888Y172980D01*
X48040D01*
X48094Y172985D01*
X48232D01*
X48311Y172989D01*
X48522D01*
X48586Y172985D01*
X48665D01*
X48758Y172980D01*
X48872Y172970D01*
X49004Y172960D01*
X49019D01*
X49039Y172955D01*
X49098D01*
X49132Y172950D01*
X49216Y172945D01*
X49310Y172940D01*
X49403Y172935D01*
X49496Y172930D01*
X49595D01*
X49610Y172925D01*
X49634Y172921D01*
X49664Y172911D01*
X49693Y172901D01*
X49723Y172881D01*
X49752Y172857D01*
X49757Y172852D01*
X49762Y172847D01*
X49777Y172827D01*
X49792Y172807D01*
X49801Y172783D01*
X49816Y172753D01*
X49821Y172719D01*
X49826Y172679D01*
Y172675D01*
Y172660D01*
X49821Y172640D01*
X49816Y172616D01*
X49806Y172586D01*
X49797Y172556D01*
X49777Y172527D01*
X49752Y172497D01*
X49747Y172493D01*
X49738Y172488D01*
X49723Y172473D01*
X49703Y172463D01*
X49649Y172433D01*
X49615Y172429D01*
X49575Y172424D01*
X49496D01*
X49433Y172429D01*
X49354D01*
X49255Y172438D01*
X49142Y172443D01*
X49009Y172453D01*
X48995D01*
X48975Y172458D01*
X48916D01*
X48881Y172463D01*
X48798Y172468D01*
X48709Y172473D01*
X48611Y172478D01*
X48522Y172483D01*
X48271D01*
Y172478D01*
Y172468D01*
Y172448D01*
Y172419D01*
X48276Y172379D01*
Y172335D01*
Y172276D01*
X48281Y172212D01*
X48286Y172143D01*
X48291Y172060D01*
X48296Y171966D01*
X48301Y171868D01*
X48306Y171755D01*
X48316Y171636D01*
X48325Y171504D01*
X48335Y171366D01*
Y171356D01*
X48340Y171336D01*
Y171297D01*
X48345Y171248D01*
X48350Y171189D01*
X48355Y171120D01*
X48360Y171041D01*
X48365Y170958D01*
X48375Y170775D01*
X48380Y170593D01*
X48389Y170411D01*
Y170328D01*
Y170249D01*
Y170244D01*
Y170234D01*
Y170215D01*
Y170185D01*
X48394Y170151D01*
Y170106D01*
X48399Y170052D01*
X48404Y169988D01*
Y169978D01*
X48409Y169959D01*
Y169929D01*
X48414Y169890D01*
X48419Y169801D01*
X48424Y169762D01*
Y169723D01*
Y169718D01*
Y169693D01*
X48419Y169664D01*
Y169624D01*
X48409Y169580D01*
X48399Y169531D01*
X48384Y169482D01*
X48365Y169432D01*
X48360Y169427D01*
X48350Y169408D01*
X48335Y169383D01*
X48311Y169354D01*
X48281Y169319D01*
X48247Y169295D01*
X48202Y169275D01*
X48153Y169270D01*
X48138D01*
X48119Y169275D01*
X48094Y169280D01*
X48035Y169299D01*
X48006Y169314D01*
X47976Y169339D01*
X47971Y169344D01*
X47966Y169354D01*
X47951Y169368D01*
X47937Y169388D01*
X47922Y169413D01*
X47912Y169442D01*
X47902Y169477D01*
X47897Y169516D01*
Y169526D01*
Y169545D01*
X47902Y169580D01*
X47907Y169629D01*
Y169634D01*
X47912Y169639D01*
X47917Y169668D01*
X47922Y169708D01*
Y169737D01*
Y169742D01*
Y169762D01*
Y169791D01*
Y169831D01*
X47917Y169880D01*
X47912Y169944D01*
X47907Y170018D01*
X47902Y170101D01*
Y170106D01*
Y170111D01*
Y170141D01*
X47897Y170185D01*
Y170239D01*
X47892Y170298D01*
Y170362D01*
X47888Y170421D01*
Y170470D01*
Y170475D01*
Y170485D01*
Y170510D01*
Y170534D01*
Y170574D01*
X47883Y170618D01*
Y170672D01*
Y170731D01*
X47878Y170795D01*
X47873Y170874D01*
X47868Y170953D01*
X47863Y171041D01*
X47858Y171140D01*
X47853Y171243D01*
X47843Y171351D01*
X47833Y171469D01*
Y171479D01*
Y171499D01*
X47829Y171538D01*
X47824Y171582D01*
X47819Y171641D01*
X47814Y171705D01*
X47809Y171779D01*
X47804Y171858D01*
X47794Y172020D01*
X47779Y172187D01*
Y172266D01*
X47774Y172340D01*
X47769Y172414D01*
Y172473D01*
X47543Y172468D01*
X47455D01*
X47405Y172473D01*
X47297D01*
X47233Y172478D01*
X47096Y172488D01*
X46953Y172502D01*
X46815Y172522D01*
X46746Y172532D01*
X46687Y172547D01*
X46677Y172552D01*
X46658Y172556D01*
X46623Y172576D01*
X46589Y172596D01*
X46554Y172630D01*
X46520Y172675D01*
X46500Y172729D01*
X46490Y172793D01*
Y172798D01*
Y172807D01*
X46495Y172827D01*
X46500Y172852D01*
X46520Y172911D01*
X46535Y172940D01*
X46554Y172970D01*
X46559Y172975D01*
X46569Y172985D01*
X46584Y172999D01*
X46604Y173014D01*
X46633Y173029D01*
X46663Y173039D01*
X46702Y173048D01*
X46761D01*
X46786Y173044D01*
D02*
G37*
G36*
X41738Y172925D02*
X41802Y172921D01*
X41885Y172911D01*
X41979Y172896D01*
X42077Y172876D01*
X42190Y172847D01*
X42195D01*
X42210Y172842D01*
X42230Y172837D01*
X42254Y172827D01*
X42318Y172802D01*
X42392Y172773D01*
X42466Y172734D01*
X42530Y172689D01*
X42554Y172660D01*
X42579Y172635D01*
X42589Y172606D01*
X42594Y172576D01*
Y172566D01*
X42589Y172542D01*
X42584Y172507D01*
X42564Y172468D01*
X42540Y172429D01*
X42500Y172394D01*
X42441Y172370D01*
X42407Y172365D01*
X42367Y172360D01*
X42348D01*
X42323Y172365D01*
X42289D01*
X42239Y172370D01*
X42180Y172379D01*
X42107Y172394D01*
X42018Y172409D01*
X42013D01*
X42008Y172414D01*
X41979Y172419D01*
X41934Y172429D01*
X41880Y172438D01*
X41816Y172448D01*
X41752Y172453D01*
X41688Y172463D01*
X41595D01*
X41570Y172458D01*
X41536Y172453D01*
X41497Y172448D01*
X41408Y172433D01*
X41305Y172414D01*
X41196Y172379D01*
X41088Y172330D01*
X40980Y172271D01*
X40975D01*
X40970Y172261D01*
X40936Y172237D01*
X40891Y172197D01*
X40842Y172143D01*
X40793Y172074D01*
X40749Y171996D01*
X40714Y171902D01*
X40709Y171853D01*
X40704Y171804D01*
Y171794D01*
X40709Y171769D01*
X40724Y171735D01*
X40749Y171691D01*
X40768Y171666D01*
X40793Y171641D01*
X40822Y171617D01*
X40857Y171592D01*
X40901Y171572D01*
X40950Y171548D01*
X41004Y171528D01*
X41069Y171513D01*
X41073D01*
X41098Y171509D01*
X41132Y171504D01*
X41186Y171494D01*
X41221Y171489D01*
X41260Y171484D01*
X41305Y171479D01*
X41349Y171474D01*
X41403Y171469D01*
X41462Y171464D01*
X41531Y171459D01*
X41600Y171454D01*
X41624D01*
X41654Y171449D01*
X41693Y171445D01*
X41743Y171435D01*
X41797Y171425D01*
X41856Y171410D01*
X41925Y171395D01*
X42067Y171346D01*
X42136Y171317D01*
X42210Y171282D01*
X42284Y171248D01*
X42358Y171203D01*
X42421Y171149D01*
X42485Y171095D01*
X42490Y171090D01*
X42500Y171081D01*
X42515Y171066D01*
X42530Y171046D01*
X42554Y171017D01*
X42579Y170982D01*
X42603Y170943D01*
X42633Y170898D01*
X42687Y170795D01*
X42736Y170677D01*
X42751Y170608D01*
X42766Y170539D01*
X42776Y170466D01*
X42781Y170392D01*
Y170387D01*
Y170367D01*
X42776Y170333D01*
X42771Y170293D01*
X42766Y170244D01*
X42751Y170185D01*
X42736Y170121D01*
X42712Y170052D01*
X42682Y169978D01*
X42648Y169905D01*
X42603Y169826D01*
X42549Y169747D01*
X42485Y169668D01*
X42412Y169595D01*
X42328Y169521D01*
X42230Y169452D01*
X42225Y169447D01*
X42210Y169437D01*
X42180Y169422D01*
X42146Y169403D01*
X42102Y169383D01*
X42048Y169354D01*
X41984Y169329D01*
X41915Y169299D01*
X41836Y169270D01*
X41752Y169245D01*
X41664Y169216D01*
X41565Y169196D01*
X41467Y169176D01*
X41359Y169162D01*
X41246Y169152D01*
X41132Y169147D01*
X41088D01*
X41054Y169152D01*
X41014D01*
X40970Y169157D01*
X40916Y169162D01*
X40857Y169167D01*
X40729Y169191D01*
X40591Y169221D01*
X40444Y169260D01*
X40301Y169319D01*
X40296Y169324D01*
X40281Y169329D01*
X40257Y169344D01*
X40227Y169359D01*
X40193Y169378D01*
X40153Y169408D01*
X40070Y169472D01*
X39986Y169555D01*
X39947Y169605D01*
X39907Y169654D01*
X39878Y169713D01*
X39853Y169772D01*
X39838Y169836D01*
X39834Y169905D01*
Y169910D01*
Y169924D01*
X39838Y169939D01*
Y169964D01*
X39848Y169993D01*
X39863Y170018D01*
X39878Y170047D01*
X39902Y170072D01*
X39907Y170077D01*
X39917Y170082D01*
X39932Y170092D01*
X39952Y170106D01*
X40011Y170131D01*
X40040Y170136D01*
X40080Y170141D01*
X40099D01*
X40124Y170136D01*
X40153Y170121D01*
X40188Y170106D01*
X40222Y170082D01*
X40262Y170047D01*
X40296Y169998D01*
X40301Y169988D01*
X40316Y169969D01*
X40340Y169934D01*
X40370Y169895D01*
X40444Y169811D01*
X40478Y169777D01*
X40517Y169747D01*
X40522D01*
X40527Y169742D01*
X40557Y169728D01*
X40606Y169703D01*
X40675Y169678D01*
X40758Y169654D01*
X40867Y169629D01*
X40990Y169614D01*
X41132Y169609D01*
X41172D01*
X41196Y169614D01*
X41231D01*
X41270Y169619D01*
X41315Y169624D01*
X41369Y169629D01*
X41477Y169649D01*
X41600Y169678D01*
X41723Y169718D01*
X41851Y169772D01*
X41856Y169777D01*
X41870Y169782D01*
X41890Y169796D01*
X41915Y169811D01*
X41949Y169836D01*
X41984Y169860D01*
X42062Y169929D01*
X42141Y170013D01*
X42175Y170062D01*
X42210Y170116D01*
X42235Y170170D01*
X42254Y170234D01*
X42269Y170298D01*
X42274Y170367D01*
Y170372D01*
Y170382D01*
Y170397D01*
X42269Y170416D01*
X42254Y170475D01*
X42230Y170544D01*
X42210Y170584D01*
X42185Y170623D01*
X42156Y170662D01*
X42121Y170707D01*
X42082Y170746D01*
X42033Y170785D01*
X41979Y170825D01*
X41915Y170859D01*
X41910D01*
X41900Y170864D01*
X41885Y170874D01*
X41861Y170884D01*
X41831Y170898D01*
X41797Y170908D01*
X41757Y170923D01*
X41708Y170938D01*
X41659Y170958D01*
X41605Y170972D01*
X41477Y170997D01*
X41334Y171021D01*
X41177Y171031D01*
X41157D01*
X41137Y171036D01*
X41113D01*
X41078Y171041D01*
X41039Y171046D01*
X40946Y171056D01*
X40842Y171081D01*
X40729Y171110D01*
X40616Y171149D01*
X40508Y171199D01*
X40503Y171203D01*
X40493Y171208D01*
X40473Y171218D01*
X40453Y171238D01*
X40399Y171282D01*
X40335Y171346D01*
X40266Y171430D01*
X40212Y171528D01*
X40193Y171582D01*
X40173Y171641D01*
X40163Y171705D01*
X40158Y171774D01*
Y171779D01*
Y171794D01*
X40163Y171818D01*
X40168Y171848D01*
X40173Y171887D01*
X40183Y171932D01*
X40198Y171986D01*
X40222Y172040D01*
X40247Y172104D01*
X40281Y172168D01*
X40321Y172232D01*
X40370Y172301D01*
X40424Y172370D01*
X40493Y172443D01*
X40567Y172512D01*
X40655Y172581D01*
X40660Y172586D01*
X40675Y172596D01*
X40704Y172616D01*
X40739Y172635D01*
X40783Y172660D01*
X40832Y172689D01*
X40896Y172724D01*
X40960Y172758D01*
X41034Y172788D01*
X41108Y172822D01*
X41275Y172876D01*
X41364Y172896D01*
X41457Y172916D01*
X41551Y172925D01*
X41644Y172930D01*
X41688D01*
X41738Y172925D01*
D02*
G37*
G36*
X29767Y172084D02*
X29811Y172064D01*
X29836Y172055D01*
X29861Y172035D01*
X29885Y172010D01*
X29910Y171986D01*
X29934Y171946D01*
X29954Y171907D01*
X29974Y171858D01*
X29989Y171799D01*
X29994Y171735D01*
X29998Y171656D01*
Y171651D01*
Y171636D01*
X29994Y171617D01*
X29989Y171592D01*
X29979Y171563D01*
X29969Y171533D01*
X29949Y171504D01*
X29925Y171474D01*
X29920Y171469D01*
X29910Y171464D01*
X29895Y171454D01*
X29875Y171440D01*
X29851Y171425D01*
X29821Y171415D01*
X29782Y171410D01*
X29743Y171405D01*
X29723D01*
X29703Y171410D01*
X29679Y171415D01*
X29615Y171435D01*
X29585Y171449D01*
X29556Y171474D01*
X29551Y171479D01*
X29546Y171489D01*
X29536Y171504D01*
X29521Y171523D01*
X29506Y171553D01*
X29497Y171582D01*
X29492Y171617D01*
X29487Y171656D01*
Y171661D01*
Y171681D01*
X29482Y171705D01*
X29477Y171745D01*
Y171750D01*
Y171755D01*
X29472Y171779D01*
X29467Y171814D01*
Y171843D01*
Y171848D01*
Y171863D01*
X29472Y171878D01*
X29477Y171902D01*
X29487Y171932D01*
X29497Y171961D01*
X29516Y171991D01*
X29541Y172015D01*
X29546Y172020D01*
X29556Y172025D01*
X29570Y172040D01*
X29590Y172055D01*
X29620Y172064D01*
X29649Y172079D01*
X29684Y172084D01*
X29723Y172089D01*
X29733D01*
X29767Y172084D01*
D02*
G37*
G36*
X25059Y173152D02*
X25088Y173147D01*
X25118Y173132D01*
X25147Y173112D01*
X25177Y173078D01*
X25196Y173029D01*
X25201Y172965D01*
Y172960D01*
Y172955D01*
Y172940D01*
Y172921D01*
X25196Y172896D01*
X25192Y172866D01*
X25187Y172832D01*
X25182Y172793D01*
Y172788D01*
Y172773D01*
X25177Y172753D01*
Y172729D01*
X25172Y172675D01*
X25167Y172650D01*
Y172625D01*
Y172620D01*
Y172611D01*
Y172591D01*
Y172561D01*
X25172Y172527D01*
Y172483D01*
Y172433D01*
X25177Y172374D01*
Y172370D01*
Y172345D01*
X25182Y172315D01*
Y172281D01*
X25187Y172202D01*
Y172163D01*
Y172128D01*
Y172124D01*
Y172114D01*
Y172099D01*
Y172074D01*
Y172045D01*
X25182Y172010D01*
Y171966D01*
Y171917D01*
X25177Y171858D01*
X25172Y171799D01*
X25167Y171725D01*
X25162Y171651D01*
X25157Y171568D01*
X25147Y171479D01*
X25137Y171386D01*
X25128Y171282D01*
Y171277D01*
Y171258D01*
X25123Y171228D01*
X25118Y171189D01*
X25113Y171144D01*
X25108Y171090D01*
X25103Y171031D01*
X25098Y170967D01*
X25088Y170830D01*
X25078Y170692D01*
X25074Y170559D01*
X25069Y170495D01*
Y170441D01*
Y170436D01*
Y170416D01*
Y170387D01*
X25074Y170343D01*
Y170293D01*
X25078Y170234D01*
X25083Y170165D01*
X25088Y170092D01*
Y170082D01*
X25093Y170057D01*
Y170018D01*
X25098Y169974D01*
X25103Y169919D01*
X25108Y169865D01*
X25113Y169806D01*
Y169757D01*
X25374Y169762D01*
X25393D01*
X25408Y169757D01*
X25433Y169752D01*
X25492Y169732D01*
X25521Y169718D01*
X25546Y169693D01*
X25551Y169688D01*
X25556Y169683D01*
X25565Y169664D01*
X25580Y169644D01*
X25605Y169590D01*
X25610Y169560D01*
X25615Y169521D01*
Y169516D01*
Y169506D01*
X25610Y169486D01*
X25605Y169462D01*
X25585Y169403D01*
X25570Y169378D01*
X25546Y169349D01*
X25541Y169344D01*
X25536Y169339D01*
X25516Y169329D01*
X25497Y169319D01*
X25472Y169304D01*
X25442Y169295D01*
X25408Y169290D01*
X25369Y169285D01*
X24877D01*
X24385Y169290D01*
X24326D01*
X24286Y169295D01*
X24208Y169299D01*
X24168Y169304D01*
X24139Y169309D01*
X24134D01*
X24119Y169319D01*
X24099Y169329D01*
X24080Y169349D01*
X24055Y169373D01*
X24035Y169408D01*
X24021Y169447D01*
X24016Y169496D01*
Y169501D01*
Y169506D01*
X24021Y169536D01*
X24035Y169575D01*
X24065Y169624D01*
X24085Y169644D01*
X24109Y169668D01*
X24144Y169688D01*
X24178Y169708D01*
X24222Y169723D01*
X24276Y169737D01*
X24336Y169742D01*
X24404Y169747D01*
X24527D01*
X24631Y169742D01*
Y169747D01*
Y169767D01*
Y169791D01*
X24626Y169831D01*
Y169880D01*
X24621Y169939D01*
X24616Y170008D01*
X24606Y170092D01*
Y170097D01*
Y170101D01*
X24601Y170131D01*
Y170170D01*
X24596Y170224D01*
X24591Y170279D01*
Y170338D01*
X24587Y170392D01*
Y170441D01*
Y170446D01*
Y170456D01*
Y170475D01*
Y170500D01*
Y170534D01*
X24591Y170574D01*
Y170623D01*
Y170677D01*
X24596Y170741D01*
X24601Y170815D01*
X24606Y170894D01*
X24611Y170977D01*
X24616Y171071D01*
X24621Y171174D01*
X24631Y171282D01*
X24641Y171400D01*
Y171405D01*
X24645Y171430D01*
Y171459D01*
X24650Y171504D01*
X24655Y171558D01*
X24660Y171617D01*
X24665Y171686D01*
X24670Y171759D01*
X24680Y171917D01*
X24685Y172074D01*
X24695Y172227D01*
Y172301D01*
Y172365D01*
X24690Y172360D01*
X24680Y172355D01*
X24665Y172340D01*
X24641Y172325D01*
X24587Y172286D01*
X24518Y172237D01*
X24444Y172187D01*
X24375Y172148D01*
X24311Y172119D01*
X24286Y172114D01*
X24267Y172109D01*
X24252D01*
X24232Y172114D01*
X24208Y172119D01*
X24183Y172128D01*
X24153Y172138D01*
X24124Y172158D01*
X24094Y172183D01*
X24090Y172187D01*
X24085Y172197D01*
X24075Y172212D01*
X24060Y172232D01*
X24035Y172286D01*
X24031Y172315D01*
X24026Y172350D01*
Y172355D01*
X24031Y172370D01*
X24035Y172394D01*
X24050Y172429D01*
X24080Y172473D01*
X24114Y172522D01*
X24168Y172576D01*
X24198Y172606D01*
X24237Y172635D01*
X24242Y172640D01*
X24262Y172655D01*
X24291Y172675D01*
X24336Y172709D01*
X24390Y172748D01*
X24454Y172802D01*
X24527Y172862D01*
X24616Y172935D01*
X24621Y172940D01*
X24626Y172945D01*
X24655Y172970D01*
X24695Y173004D01*
X24749Y173048D01*
X24813Y173088D01*
X24882Y173122D01*
X24960Y173147D01*
X24995Y173157D01*
X25039D01*
X25059Y173152D01*
D02*
G37*
G36*
X29787Y170362D02*
X29807Y170357D01*
X29851Y170338D01*
X29875Y170323D01*
X29905Y170303D01*
X29930Y170274D01*
X29954Y170239D01*
X29979Y170200D01*
X29998Y170151D01*
X30018Y170092D01*
X30033Y170023D01*
X30038Y169944D01*
X30043Y169851D01*
Y169846D01*
Y169831D01*
X30038Y169811D01*
X30033Y169787D01*
X30023Y169757D01*
X30013Y169723D01*
X29994Y169693D01*
X29969Y169664D01*
X29964Y169659D01*
X29954Y169654D01*
X29939Y169644D01*
X29920Y169629D01*
X29890Y169614D01*
X29861Y169605D01*
X29826Y169600D01*
X29787Y169595D01*
X29767D01*
X29748Y169600D01*
X29723Y169605D01*
X29664Y169624D01*
X29634Y169639D01*
X29605Y169664D01*
X29600Y169668D01*
X29595Y169678D01*
X29580Y169693D01*
X29570Y169713D01*
X29556Y169742D01*
X29541Y169772D01*
X29536Y169811D01*
X29531Y169851D01*
Y169860D01*
Y169885D01*
X29526Y169924D01*
X29516Y169983D01*
Y169988D01*
Y169998D01*
X29511Y170018D01*
Y170037D01*
X29506Y170082D01*
X29502Y170121D01*
Y170126D01*
Y170141D01*
X29506Y170156D01*
X29511Y170180D01*
X29521Y170210D01*
X29531Y170239D01*
X29551Y170269D01*
X29575Y170293D01*
X29580Y170298D01*
X29590Y170303D01*
X29605Y170318D01*
X29629Y170333D01*
X29654Y170343D01*
X29689Y170357D01*
X29723Y170362D01*
X29762Y170367D01*
X29772D01*
X29787Y170362D01*
D02*
G37*
G36*
X34417Y173053D02*
X34431D01*
X34451Y173048D01*
X34476Y173044D01*
X34500Y173039D01*
X34535Y173034D01*
X34613Y173014D01*
X34707Y172994D01*
X34800Y172965D01*
X34899Y172930D01*
X34987Y172886D01*
X34992D01*
X34997Y172881D01*
X35012Y172871D01*
X35032Y172862D01*
X35081Y172832D01*
X35145Y172793D01*
X35223Y172739D01*
X35307Y172679D01*
X35396Y172606D01*
X35494Y172522D01*
X35588Y172433D01*
X35676Y172335D01*
X35760Y172227D01*
X35838Y172114D01*
X35903Y171991D01*
X35952Y171858D01*
X35971Y171794D01*
X35986Y171725D01*
X35991Y171656D01*
X35996Y171582D01*
Y171577D01*
Y171568D01*
Y171548D01*
X35991Y171518D01*
X35986Y171484D01*
X35976Y171449D01*
X35952Y171356D01*
X35937Y171307D01*
X35912Y171253D01*
X35883Y171199D01*
X35853Y171140D01*
X35809Y171081D01*
X35765Y171026D01*
X35711Y170967D01*
X35651Y170913D01*
X35647Y170908D01*
X35637Y170903D01*
X35622Y170894D01*
X35602Y170874D01*
X35578Y170854D01*
X35543Y170835D01*
X35504Y170810D01*
X35465Y170780D01*
X35361Y170726D01*
X35248Y170667D01*
X35115Y170608D01*
X34968Y170559D01*
X34977Y170554D01*
X35002Y170539D01*
X35041Y170520D01*
X35096Y170485D01*
X35160Y170451D01*
X35228Y170402D01*
X35312Y170352D01*
X35401Y170293D01*
X35489Y170229D01*
X35583Y170165D01*
X35774Y170018D01*
X35868Y169934D01*
X35957Y169855D01*
X36040Y169772D01*
X36114Y169683D01*
X36119Y169678D01*
X36124Y169668D01*
X36134Y169654D01*
X36149Y169634D01*
X36173Y169580D01*
X36178Y169550D01*
X36183Y169516D01*
Y169511D01*
Y169501D01*
X36178Y169482D01*
X36173Y169457D01*
X36163Y169427D01*
X36149Y169398D01*
X36129Y169363D01*
X36104Y169334D01*
X36099Y169329D01*
X36089Y169324D01*
X36075Y169309D01*
X36055Y169299D01*
X36001Y169270D01*
X35966Y169265D01*
X35927Y169260D01*
X35912D01*
X35893Y169265D01*
X35868Y169270D01*
X35843Y169280D01*
X35814Y169295D01*
X35780Y169314D01*
X35750Y169339D01*
X35740Y169349D01*
X35711Y169373D01*
X35666Y169418D01*
X35607Y169472D01*
X35529Y169536D01*
X35435Y169609D01*
X35332Y169693D01*
X35214Y169782D01*
X35081Y169870D01*
X34938Y169964D01*
X34791Y170052D01*
X34628Y170141D01*
X34461Y170224D01*
X34289Y170303D01*
X34107Y170372D01*
X33920Y170431D01*
X33944Y169944D01*
X33959Y169457D01*
Y169452D01*
Y169437D01*
X33954Y169418D01*
X33949Y169393D01*
X33939Y169363D01*
X33930Y169334D01*
X33910Y169304D01*
X33885Y169275D01*
X33880Y169270D01*
X33875Y169265D01*
X33856Y169250D01*
X33836Y169240D01*
X33782Y169211D01*
X33752Y169206D01*
X33713Y169201D01*
X33693D01*
X33674Y169206D01*
X33649Y169211D01*
X33625Y169221D01*
X33595Y169231D01*
X33566Y169250D01*
X33536Y169275D01*
X33531Y169280D01*
X33526Y169290D01*
X33516Y169304D01*
X33501Y169324D01*
X33487Y169349D01*
X33477Y169378D01*
X33472Y169413D01*
X33467Y169452D01*
Y169462D01*
Y169491D01*
Y169536D01*
Y169600D01*
X33462Y169683D01*
X33457Y169782D01*
X33452Y169900D01*
X33447Y170037D01*
Y170042D01*
Y170057D01*
Y170077D01*
X33443Y170101D01*
Y170136D01*
Y170170D01*
X33437Y170259D01*
X33433Y170352D01*
Y170451D01*
X33428Y170539D01*
Y170623D01*
Y170628D01*
Y170633D01*
Y170648D01*
Y170667D01*
Y170692D01*
X33433Y170721D01*
Y170756D01*
Y170795D01*
X33437Y170839D01*
Y170889D01*
X33443Y170948D01*
X33447Y171007D01*
X33452Y171076D01*
X33462Y171144D01*
X33467Y171218D01*
X33477Y171302D01*
Y171307D01*
X33482Y171322D01*
Y171346D01*
X33487Y171376D01*
X33492Y171415D01*
X33497Y171459D01*
X33506Y171558D01*
X33516Y171666D01*
X33521Y171779D01*
X33531Y171887D01*
Y171937D01*
Y171981D01*
Y171986D01*
Y172005D01*
Y172035D01*
X33526Y172074D01*
Y172128D01*
X33521Y172192D01*
X33516Y172266D01*
X33506Y172355D01*
Y172360D01*
Y172365D01*
X33501Y172394D01*
X33497Y172443D01*
Y172497D01*
X33492Y172556D01*
X33487Y172620D01*
X33482Y172679D01*
Y172734D01*
Y172739D01*
Y172758D01*
X33487Y172783D01*
X33492Y172817D01*
X33501Y172857D01*
X33516Y172896D01*
X33536Y172940D01*
X33561Y172980D01*
X33566Y172985D01*
X33580Y172999D01*
X33600Y173019D01*
X33629Y173044D01*
X33664Y173068D01*
X33708Y173088D01*
X33762Y173103D01*
X33821D01*
X34417Y173053D01*
D02*
G37*
G36*
X27573Y173142D02*
X27617Y173137D01*
X27671Y173132D01*
X27735Y173117D01*
X27804Y173103D01*
X27878Y173078D01*
X27962Y173048D01*
X28040Y173009D01*
X28124Y172965D01*
X28212Y172911D01*
X28296Y172847D01*
X28375Y172773D01*
X28454Y172689D01*
X28523Y172591D01*
X28527Y172586D01*
X28537Y172571D01*
X28552Y172542D01*
X28572Y172507D01*
X28596Y172458D01*
X28626Y172404D01*
X28650Y172335D01*
X28685Y172261D01*
X28714Y172183D01*
X28739Y172094D01*
X28769Y171996D01*
X28793Y171892D01*
X28813Y171779D01*
X28828Y171666D01*
X28837Y171543D01*
X28842Y171415D01*
Y171410D01*
Y171400D01*
Y171386D01*
Y171366D01*
Y171341D01*
Y171307D01*
X28837Y171233D01*
X28832Y171140D01*
X28823Y171036D01*
X28813Y170918D01*
X28798Y170790D01*
X28778Y170657D01*
X28754Y170520D01*
X28729Y170382D01*
X28695Y170244D01*
X28650Y170106D01*
X28606Y169978D01*
X28552Y169855D01*
X28488Y169747D01*
X28483Y169742D01*
X28473Y169723D01*
X28449Y169698D01*
X28424Y169659D01*
X28385Y169619D01*
X28340Y169570D01*
X28286Y169521D01*
X28222Y169472D01*
X28153Y169418D01*
X28075Y169368D01*
X27986Y169319D01*
X27893Y169280D01*
X27789Y169240D01*
X27676Y169216D01*
X27558Y169196D01*
X27430Y169191D01*
X27396D01*
X27356Y169196D01*
X27307Y169201D01*
X27243Y169211D01*
X27174Y169226D01*
X27096Y169250D01*
X27012Y169280D01*
X26923Y169314D01*
X26830Y169359D01*
X26737Y169418D01*
X26648Y169482D01*
X26559Y169560D01*
X26476Y169654D01*
X26397Y169757D01*
X26328Y169880D01*
X26323Y169885D01*
X26318Y169905D01*
X26304Y169934D01*
X26289Y169978D01*
X26269Y170028D01*
X26245Y170092D01*
X26220Y170165D01*
X26200Y170254D01*
X26176Y170347D01*
X26151Y170451D01*
X26126Y170564D01*
X26107Y170687D01*
X26092Y170820D01*
X26077Y170958D01*
X26072Y171105D01*
X26067Y171263D01*
Y171272D01*
Y171297D01*
Y171331D01*
X26072Y171386D01*
X26077Y171445D01*
X26087Y171518D01*
X26097Y171602D01*
X26112Y171691D01*
X26126Y171784D01*
X26151Y171882D01*
X26176Y171991D01*
X26210Y172094D01*
X26249Y172202D01*
X26294Y172310D01*
X26348Y172414D01*
X26407Y172517D01*
X26412Y172522D01*
X26427Y172547D01*
X26451Y172576D01*
X26481Y172616D01*
X26520Y172665D01*
X26569Y172719D01*
X26628Y172773D01*
X26697Y172832D01*
X26771Y172891D01*
X26855Y172950D01*
X26943Y172999D01*
X27042Y173048D01*
X27150Y173088D01*
X27263Y173122D01*
X27381Y173142D01*
X27509Y173147D01*
X27538D01*
X27573Y173142D01*
D02*
G37*
G36*
X32739Y173319D02*
X32763Y173314D01*
X32813Y173299D01*
X32842Y173280D01*
X32867Y173260D01*
X32872Y173255D01*
X32877Y173250D01*
X32891Y173235D01*
X32906Y173216D01*
X32931Y173167D01*
X32936Y173142D01*
X32941Y173108D01*
Y173103D01*
Y173098D01*
X32936Y173068D01*
X32931Y173024D01*
X32911Y172970D01*
X32636Y172296D01*
Y172291D01*
X32626Y172276D01*
X32616Y172251D01*
X32606Y172212D01*
X32586Y172173D01*
X32567Y172119D01*
X32542Y172060D01*
X32513Y171991D01*
X32483Y171917D01*
X32444Y171833D01*
X32404Y171745D01*
X32365Y171651D01*
X32316Y171553D01*
X32267Y171449D01*
X32158Y171233D01*
X31617Y170210D01*
X31169Y169216D01*
X31165Y169211D01*
X31160Y169191D01*
X31140Y169172D01*
X31120Y169142D01*
X31091Y169117D01*
X31056Y169093D01*
X31017Y169073D01*
X30968Y169068D01*
X30953D01*
X30938Y169073D01*
X30914Y169078D01*
X30864Y169098D01*
X30835Y169113D01*
X30810Y169132D01*
X30805Y169137D01*
X30800Y169142D01*
X30791Y169157D01*
X30776Y169176D01*
X30751Y169226D01*
X30746Y169255D01*
X30741Y169285D01*
Y169290D01*
Y169309D01*
X30746Y169334D01*
X30756Y169368D01*
Y169373D01*
X30766Y169393D01*
X30776Y169422D01*
X30795Y169467D01*
X30815Y169521D01*
X30845Y169590D01*
X30879Y169668D01*
X30918Y169762D01*
X30968Y169860D01*
X31017Y169978D01*
X31076Y170101D01*
X31145Y170239D01*
X31219Y170387D01*
X31297Y170549D01*
X31386Y170721D01*
X31484Y170903D01*
Y170908D01*
X31489Y170913D01*
X31499Y170928D01*
X31509Y170948D01*
X31534Y171002D01*
X31573Y171071D01*
X31617Y171154D01*
X31666Y171248D01*
X31721Y171356D01*
X31780Y171474D01*
X31839Y171592D01*
X31898Y171720D01*
X32021Y171976D01*
X32075Y172104D01*
X32129Y172222D01*
X32178Y172340D01*
X32217Y172443D01*
Y172448D01*
X32222Y172453D01*
X32232Y172483D01*
X32247Y172527D01*
X32272Y172581D01*
X32296Y172650D01*
X32331Y172724D01*
X32365Y172802D01*
X32399Y172886D01*
X32439Y172970D01*
X32478Y173048D01*
X32522Y173122D01*
X32562Y173191D01*
X32601Y173245D01*
X32640Y173290D01*
X32675Y173314D01*
X32695Y173324D01*
X32724D01*
X32739Y173319D01*
D02*
G37*
%LPC*%
G36*
X30028Y182608D02*
X30018Y182603D01*
X30013Y182588D01*
X29998Y182569D01*
X29984Y182544D01*
X29964Y182510D01*
X29920Y182441D01*
X29861Y182352D01*
X29797Y182249D01*
X29728Y182141D01*
X29649Y182018D01*
X29570Y181890D01*
X29482Y181762D01*
X29310Y181496D01*
X29226Y181368D01*
X29147Y181250D01*
X29069Y181132D01*
X28995Y181029D01*
X30028Y181004D01*
Y182608D01*
D02*
G37*
G36*
X50303Y182682D02*
X50170D01*
X50136Y182677D01*
X50092Y182672D01*
X50042Y182662D01*
X49979Y182647D01*
X49910Y182633D01*
X49836Y182608D01*
X49757Y182574D01*
X49679Y182534D01*
X49590Y182485D01*
X49506Y182426D01*
X49418Y182357D01*
X49329Y182273D01*
X49246Y182180D01*
X49167Y182072D01*
X49162Y182067D01*
X49152Y182047D01*
X49132Y182018D01*
X49108Y181973D01*
X49078Y181924D01*
X49044Y181860D01*
X49009Y181791D01*
X48975Y181713D01*
X48936Y181624D01*
X48901Y181531D01*
X48867Y181427D01*
X48837Y181319D01*
X48812Y181211D01*
X48793Y181093D01*
X48783Y180970D01*
X48778Y180847D01*
Y180842D01*
Y180827D01*
X48783Y180802D01*
Y180768D01*
X48788Y180724D01*
X48798Y180679D01*
X48808Y180625D01*
X48822Y180566D01*
X48842Y180507D01*
X48867Y180443D01*
X48891Y180379D01*
X48926Y180315D01*
X48970Y180246D01*
X49014Y180183D01*
X49068Y180123D01*
X49132Y180064D01*
X49137Y180060D01*
X49147Y180055D01*
X49167Y180040D01*
X49191Y180020D01*
X49226Y180000D01*
X49265Y179976D01*
X49314Y179951D01*
X49364Y179927D01*
X49423Y179897D01*
X49487Y179873D01*
X49556Y179848D01*
X49629Y179828D01*
X49708Y179809D01*
X49792Y179794D01*
X49875Y179789D01*
X49969Y179784D01*
X49993D01*
X50028Y179789D01*
X50067Y179794D01*
X50121Y179804D01*
X50180Y179818D01*
X50249Y179833D01*
X50318Y179858D01*
X50397Y179892D01*
X50476Y179932D01*
X50559Y179981D01*
X50643Y180040D01*
X50726Y180109D01*
X50810Y180187D01*
X50889Y180281D01*
X50963Y180389D01*
X50968Y180394D01*
X50977Y180414D01*
X50997Y180443D01*
X51017Y180488D01*
X51046Y180537D01*
X51076Y180596D01*
X51105Y180670D01*
X51140Y180748D01*
X51174Y180832D01*
X51204Y180930D01*
X51233Y181029D01*
X51263Y181137D01*
X51282Y181250D01*
X51302Y181368D01*
X51312Y181486D01*
X51317Y181614D01*
Y181619D01*
Y181639D01*
Y181673D01*
X51312Y181713D01*
X51307Y181762D01*
X51302Y181816D01*
X51297Y181875D01*
X51282Y181944D01*
X51253Y182082D01*
X51204Y182219D01*
X51174Y182283D01*
X51140Y182347D01*
X51100Y182401D01*
X51051Y182451D01*
X51046Y182456D01*
X51041Y182460D01*
X51022Y182470D01*
X51002Y182485D01*
X50972Y182505D01*
X50938Y182524D01*
X50899Y182544D01*
X50849Y182569D01*
X50790Y182588D01*
X50731Y182608D01*
X50657Y182628D01*
X50584Y182647D01*
X50495Y182662D01*
X50407Y182672D01*
X50303Y182682D01*
D02*
G37*
G36*
X42520Y182642D02*
X42530Y181924D01*
X42540Y181211D01*
X42500Y179858D01*
X42505D01*
X42510Y179848D01*
X42530Y179838D01*
X42549Y179823D01*
X42554D01*
X42559Y179818D01*
X42589Y179804D01*
X42638Y179779D01*
X42702Y179754D01*
X42781Y179725D01*
X42874Y179705D01*
X42982Y179686D01*
X43100Y179681D01*
X43155D01*
X43194Y179686D01*
X43238D01*
X43292Y179691D01*
X43351Y179695D01*
X43415Y179700D01*
X43553Y179725D01*
X43686Y179754D01*
X43819Y179794D01*
X43873Y179823D01*
X43927Y179853D01*
X43932D01*
X43937Y179863D01*
X43966Y179882D01*
X44011Y179917D01*
X44065Y179971D01*
X44124Y180030D01*
X44188Y180109D01*
X44247Y180192D01*
X44306Y180291D01*
Y180296D01*
X44311Y180306D01*
X44321Y180320D01*
X44330Y180340D01*
X44340Y180365D01*
X44355Y180394D01*
X44380Y180468D01*
X44409Y180556D01*
X44429Y180655D01*
X44449Y180758D01*
X44453Y180871D01*
Y180881D01*
Y180901D01*
X44449Y180940D01*
X44444Y180989D01*
X44429Y181048D01*
X44414Y181117D01*
X44390Y181196D01*
X44360Y181285D01*
X44316Y181373D01*
X44267Y181472D01*
X44203Y181570D01*
X44129Y181668D01*
X44040Y181772D01*
X43942Y181875D01*
X43819Y181973D01*
X43686Y182067D01*
X43681D01*
X43671Y182077D01*
X43656Y182087D01*
X43632Y182101D01*
X43602Y182116D01*
X43558Y182141D01*
X43509Y182170D01*
X43445Y182200D01*
X43376Y182239D01*
X43292Y182283D01*
X43194Y182328D01*
X43091Y182382D01*
X42968Y182436D01*
X42835Y182500D01*
X42682Y182569D01*
X42520Y182642D01*
D02*
G37*
G36*
X41260Y177629D02*
X41270Y176911D01*
X41280Y176197D01*
X41241Y174844D01*
X41246D01*
X41251Y174835D01*
X41270Y174825D01*
X41290Y174810D01*
X41295D01*
X41300Y174805D01*
X41329Y174790D01*
X41378Y174766D01*
X41442Y174741D01*
X41521Y174712D01*
X41615Y174692D01*
X41723Y174672D01*
X41841Y174667D01*
X41895D01*
X41934Y174672D01*
X41979D01*
X42033Y174677D01*
X42092Y174682D01*
X42156Y174687D01*
X42294Y174712D01*
X42426Y174741D01*
X42559Y174780D01*
X42613Y174810D01*
X42667Y174839D01*
X42672D01*
X42677Y174849D01*
X42707Y174869D01*
X42751Y174903D01*
X42805Y174958D01*
X42864Y175016D01*
X42928Y175095D01*
X42987Y175179D01*
X43046Y175277D01*
Y175282D01*
X43051Y175292D01*
X43061Y175307D01*
X43071Y175327D01*
X43081Y175351D01*
X43095Y175381D01*
X43120Y175454D01*
X43150Y175543D01*
X43169Y175641D01*
X43189Y175745D01*
X43194Y175858D01*
Y175868D01*
Y175887D01*
X43189Y175927D01*
X43184Y175976D01*
X43169Y176035D01*
X43155Y176104D01*
X43130Y176183D01*
X43100Y176271D01*
X43056Y176360D01*
X43007Y176458D01*
X42943Y176557D01*
X42869Y176655D01*
X42781Y176758D01*
X42682Y176862D01*
X42559Y176960D01*
X42426Y177053D01*
X42421D01*
X42412Y177063D01*
X42397Y177073D01*
X42372Y177088D01*
X42343Y177103D01*
X42298Y177127D01*
X42249Y177157D01*
X42185Y177186D01*
X42116Y177226D01*
X42033Y177270D01*
X41934Y177314D01*
X41831Y177368D01*
X41708Y177422D01*
X41575Y177486D01*
X41423Y177555D01*
X41260Y177629D01*
D02*
G37*
G36*
X33984Y172576D02*
X34008Y172271D01*
Y172261D01*
X34013Y172242D01*
Y172207D01*
X34018Y172168D01*
X34023Y172119D01*
Y172069D01*
X34028Y172020D01*
Y171971D01*
Y171961D01*
Y171937D01*
Y171892D01*
X34023Y171838D01*
X34018Y171764D01*
X34013Y171681D01*
X34003Y171587D01*
X33989Y171479D01*
X33935Y170987D01*
X33994D01*
X34043Y170982D01*
X34210D01*
X34254Y170987D01*
X34308D01*
X34367Y170992D01*
X34436Y170997D01*
X34510Y171002D01*
X34663Y171021D01*
X34820Y171051D01*
X34973Y171095D01*
X35041Y171120D01*
X35105Y171149D01*
X35110Y171154D01*
X35130Y171164D01*
X35155Y171179D01*
X35189Y171203D01*
X35228Y171233D01*
X35273Y171267D01*
X35322Y171307D01*
X35366Y171351D01*
X35371Y171356D01*
X35386Y171376D01*
X35410Y171400D01*
X35435Y171435D01*
X35455Y171469D01*
X35479Y171509D01*
X35494Y171548D01*
X35499Y171587D01*
Y171592D01*
Y171602D01*
Y171622D01*
X35494Y171646D01*
X35489Y171676D01*
X35479Y171710D01*
X35450Y171799D01*
X35430Y171843D01*
X35405Y171897D01*
X35371Y171946D01*
X35332Y172001D01*
X35287Y172060D01*
X35233Y172114D01*
X35174Y172173D01*
X35105Y172227D01*
X35100Y172232D01*
X35091Y172237D01*
X35071Y172251D01*
X35041Y172271D01*
X35012Y172291D01*
X34973Y172315D01*
X34928Y172340D01*
X34874Y172370D01*
X34761Y172424D01*
X34633Y172478D01*
X34495Y172517D01*
X34422Y172532D01*
X34348Y172542D01*
X33984Y172576D01*
D02*
G37*
G36*
X27504Y172670D02*
X27484D01*
X27460Y172665D01*
X27425D01*
X27391Y172655D01*
X27342Y172645D01*
X27292Y172630D01*
X27238Y172611D01*
X27179Y172586D01*
X27120Y172556D01*
X27061Y172517D01*
X27002Y172473D01*
X26938Y172419D01*
X26879Y172355D01*
X26825Y172281D01*
X26771Y172197D01*
Y172192D01*
X26761Y172178D01*
X26751Y172158D01*
X26737Y172128D01*
X26722Y172089D01*
X26702Y172045D01*
X26682Y171996D01*
X26663Y171937D01*
X26638Y171873D01*
X26618Y171804D01*
X26599Y171730D01*
X26584Y171656D01*
X26559Y171484D01*
X26555Y171395D01*
X26550Y171302D01*
Y171292D01*
Y171267D01*
Y171223D01*
X26555Y171169D01*
Y171100D01*
X26559Y171021D01*
X26569Y170938D01*
X26579Y170844D01*
X26604Y170643D01*
X26643Y170441D01*
X26668Y170343D01*
X26697Y170249D01*
X26727Y170160D01*
X26766Y170077D01*
X26771Y170072D01*
X26776Y170057D01*
X26791Y170037D01*
X26805Y170013D01*
X26830Y169983D01*
X26860Y169949D01*
X26894Y169910D01*
X26933Y169875D01*
X26978Y169836D01*
X27027Y169796D01*
X27081Y169762D01*
X27140Y169732D01*
X27204Y169708D01*
X27273Y169688D01*
X27351Y169673D01*
X27430Y169668D01*
X27455D01*
X27479Y169673D01*
X27514Y169678D01*
X27558Y169688D01*
X27607Y169698D01*
X27661Y169718D01*
X27720Y169742D01*
X27784Y169777D01*
X27843Y169816D01*
X27907Y169865D01*
X27971Y169924D01*
X28030Y169988D01*
X28085Y170072D01*
X28139Y170165D01*
X28183Y170269D01*
Y170274D01*
X28188Y170288D01*
X28198Y170313D01*
X28208Y170343D01*
X28222Y170387D01*
X28232Y170436D01*
X28247Y170490D01*
X28267Y170554D01*
X28281Y170628D01*
X28296Y170707D01*
X28306Y170795D01*
X28321Y170889D01*
X28331Y170992D01*
X28340Y171095D01*
X28345Y171208D01*
Y171326D01*
Y171336D01*
Y171356D01*
Y171390D01*
X28340Y171435D01*
Y171494D01*
X28335Y171558D01*
X28326Y171627D01*
X28321Y171705D01*
X28296Y171868D01*
X28257Y172030D01*
X28203Y172192D01*
X28173Y172266D01*
X28134Y172330D01*
Y172335D01*
X28124Y172345D01*
X28114Y172360D01*
X28094Y172384D01*
X28070Y172409D01*
X28045Y172438D01*
X27976Y172502D01*
X27888Y172561D01*
X27780Y172616D01*
X27716Y172640D01*
X27652Y172655D01*
X27578Y172665D01*
X27504Y172670D01*
D02*
G37*
%LPD*%
D10*
X191929Y48032D02*
G03*
X191929Y60630I0J6299D01*
G01*
D02*
G03*
X191929Y48032I0J-6299D01*
G01*
X23122Y168004D02*
X74803D01*
X23122Y189083D02*
X74803D01*
Y168004D02*
Y189083D01*
X23122Y168004D02*
Y189083D01*
X32185Y162638D02*
X58366D01*
Y148661D02*
Y162638D01*
X32185Y148661D02*
X58366D01*
X32185D02*
Y162638D01*
X62709Y113883D02*
X68771Y113880D01*
X240748Y131988D02*
X245472D01*
X26903Y162283D02*
X25591D01*
X26247D01*
Y159003D01*
X25591Y158347D01*
X24935D01*
X24279Y159003D01*
X30839Y158347D02*
X28215D01*
X30839Y160971D01*
Y161627D01*
X30183Y162283D01*
X28871D01*
X28215Y161627D01*
X176477Y9116D02*
Y10100D01*
Y9608D01*
X179429D01*
Y9116D01*
Y10100D01*
X176969Y13544D02*
X176477Y13052D01*
Y12068D01*
X176969Y11576D01*
X178937D01*
X179429Y12068D01*
Y13052D01*
X178937Y13544D01*
X179429Y14528D02*
Y15512D01*
Y15020D01*
X176477D01*
X176969Y14528D01*
X160925Y29035D02*
X160433Y29527D01*
X159450D01*
X158958Y29035D01*
Y27067D01*
X159450Y26575D01*
X160433D01*
X160925Y27067D01*
X161909Y29527D02*
X163877D01*
Y29035D01*
X161909Y27067D01*
Y26575D01*
X358925Y125296D02*
Y129232D01*
X360893D01*
X361549Y128576D01*
Y127264D01*
X360893Y126608D01*
X358925D01*
X360237D02*
X361549Y125296D01*
X362861Y129232D02*
X365484D01*
Y128576D01*
X362861Y125952D01*
Y125296D01*
X329791D02*
Y129232D01*
X331759D01*
X332415Y128576D01*
Y127264D01*
X331759Y126608D01*
X329791D01*
X331103D02*
X332415Y125296D01*
X336351Y129232D02*
X335039Y128576D01*
X333727Y127264D01*
Y125952D01*
X334383Y125296D01*
X335695D01*
X336351Y125952D01*
Y126608D01*
X335695Y127264D01*
X333727D01*
X300657Y125591D02*
Y129527D01*
X302625D01*
X303281Y128871D01*
Y127559D01*
X302625Y126903D01*
X300657D01*
X301969D02*
X303281Y125591D01*
X307217Y129527D02*
X304593D01*
Y127559D01*
X305905Y128215D01*
X306561D01*
X307217Y127559D01*
Y126247D01*
X306561Y125591D01*
X305249D01*
X304593Y126247D01*
X349870Y145767D02*
Y141831D01*
X351838D01*
X352494Y142487D01*
Y145111D01*
X351838Y145767D01*
X349870D01*
X353806Y145111D02*
X354462Y145767D01*
X355773D01*
X356429Y145111D01*
Y144455D01*
X355773Y143799D01*
X355118D01*
X355773D01*
X356429Y143143D01*
Y142487D01*
X355773Y141831D01*
X354462D01*
X353806Y142487D01*
X320736Y145767D02*
Y141831D01*
X322704D01*
X323360Y142487D01*
Y145111D01*
X322704Y145767D01*
X320736D01*
X327295Y141831D02*
X324672D01*
X327295Y144455D01*
Y145111D01*
X326640Y145767D01*
X325328D01*
X324672Y145111D01*
X292258Y146161D02*
Y142225D01*
X294226D01*
X294882Y142881D01*
Y145505D01*
X294226Y146161D01*
X292258D01*
X296194Y142225D02*
X297506D01*
X296850D01*
Y146161D01*
X296194Y145505D01*
X179528Y48459D02*
X180184D01*
X181496Y49771D01*
X180184Y51083D01*
X179528D01*
X181496Y49771D02*
X183464D01*
Y52395D02*
Y53707D01*
Y53051D01*
X179528D01*
X180184Y52395D01*
X141995Y121490D02*
X141339Y120834D01*
Y119522D01*
X141995Y118866D01*
X144619D01*
X145275Y119522D01*
Y120834D01*
X144619Y121490D01*
X141339Y125426D02*
X141995Y124114D01*
X143307Y122802D01*
X144619D01*
X145275Y123458D01*
Y124769D01*
X144619Y125426D01*
X143963D01*
X143307Y124769D01*
Y122802D01*
X102424Y173978D02*
X101768Y174634D01*
X100456D01*
X99800Y173978D01*
Y173322D01*
X100456Y172666D01*
X101768D01*
X102424Y172010D01*
Y171354D01*
X101768Y170698D01*
X100456D01*
X99800Y171354D01*
X103736Y174634D02*
Y170698D01*
X105048Y172010D01*
X106360Y170698D01*
Y174634D01*
X107671Y170698D02*
X108983D01*
X108327D01*
Y174634D01*
X107671Y173978D01*
X11549Y85564D02*
X10893Y86220D01*
X9581D01*
X8925Y85564D01*
Y84908D01*
X9581Y84252D01*
X10893D01*
X11549Y83596D01*
Y82940D01*
X10893Y82284D01*
X9581D01*
X8925Y82940D01*
X14829Y82284D02*
Y86220D01*
X12861Y84252D01*
X15484D01*
X75328Y80151D02*
X74672Y80806D01*
X73360D01*
X72704Y80151D01*
Y79495D01*
X73360Y78839D01*
X74672D01*
X75328Y78183D01*
Y77527D01*
X74672Y76871D01*
X73360D01*
X72704Y77527D01*
X76640Y80151D02*
X77296Y80806D01*
X78608D01*
X79264Y80151D01*
Y79495D01*
X78608Y78839D01*
X77952D01*
X78608D01*
X79264Y78183D01*
Y77527D01*
X78608Y76871D01*
X77296D01*
X76640Y77527D01*
X252494Y80151D02*
X251838Y80806D01*
X250526D01*
X249870Y80151D01*
Y79495D01*
X250526Y78839D01*
X251838D01*
X252494Y78183D01*
Y77527D01*
X251838Y76871D01*
X250526D01*
X249870Y77527D01*
X256429Y76871D02*
X253806D01*
X256429Y79495D01*
Y80151D01*
X255773Y80806D01*
X254462D01*
X253806Y80151D01*
X323622D02*
X322966Y80806D01*
X321654D01*
X320998Y80151D01*
Y79495D01*
X321654Y78839D01*
X322966D01*
X323622Y78183D01*
Y77527D01*
X322966Y76871D01*
X321654D01*
X320998Y77527D01*
X324934Y76871D02*
X326246D01*
X325590D01*
Y80806D01*
X324934Y80151D01*
X168800Y23721D02*
Y26673D01*
X170276D01*
X170768Y26181D01*
Y25197D01*
X170276Y24705D01*
X168800D01*
X169784D02*
X170768Y23721D01*
X171752D02*
X172736D01*
X172244D01*
Y26673D01*
X171752Y26181D01*
X230972Y106300D02*
Y110236D01*
X232940D01*
X233596Y109580D01*
Y108268D01*
X232940Y107612D01*
X230972D01*
X232284D02*
X233596Y106300D01*
X236876D02*
Y110236D01*
X234908Y108268D01*
X237532D01*
X241044Y67814D02*
X243996D01*
Y66338D01*
X243504Y65846D01*
X242520D01*
X242028Y66338D01*
Y67814D01*
Y66830D02*
X241044Y65846D01*
X243504Y64862D02*
X243996Y64370D01*
Y63386D01*
X243504Y62894D01*
X243012D01*
X242520Y63386D01*
Y63878D01*
Y63386D01*
X242028Y62894D01*
X241536D01*
X241044Y63386D01*
Y64370D01*
X241536Y64862D01*
X225099Y70571D02*
Y73523D01*
X226575D01*
X227067Y73031D01*
Y72047D01*
X226575Y71555D01*
X225099D01*
X226083D02*
X227067Y70571D01*
X230019D02*
X228051D01*
X230019Y72539D01*
Y73031D01*
X229527Y73523D01*
X228543D01*
X228051Y73031D01*
X240215Y133855D02*
Y137790D01*
X242183D01*
X242839Y137134D01*
Y135822D01*
X242183Y135167D01*
X240215D01*
X246775Y137134D02*
X246119Y137790D01*
X244807D01*
X244151Y137134D01*
Y136478D01*
X244807Y135822D01*
X246119D01*
X246775Y135167D01*
Y134511D01*
X246119Y133855D01*
X244807D01*
X244151Y134511D01*
X248087Y133855D02*
X249399D01*
X248743D01*
Y137790D01*
X248087Y137134D01*
X158661Y191338D02*
X157350D01*
X158005D01*
Y188058D01*
X157350Y187402D01*
X156694D01*
X156038Y188058D01*
X159973Y187402D02*
X161285D01*
X160629D01*
Y191338D01*
X159973Y190682D01*
X61665Y126673D02*
X62648D01*
X62156D01*
Y123721D01*
X61665D01*
X62648D01*
X66092Y126181D02*
X65600Y126673D01*
X64616D01*
X64124Y126181D01*
Y124213D01*
X64616Y123721D01*
X65600D01*
X66092Y124213D01*
X69044Y123721D02*
X67076D01*
X69044Y125689D01*
Y126181D01*
X68552Y126673D01*
X67568D01*
X67076Y126181D01*
X159647Y97637D02*
X160959D01*
X160303D01*
Y93701D01*
X159647D01*
X160959D01*
X165551Y96981D02*
X164895Y97637D01*
X163583D01*
X162927Y96981D01*
Y94357D01*
X163583Y93701D01*
X164895D01*
X165551Y94357D01*
X166863Y96981D02*
X167519Y97637D01*
X168831D01*
X169487Y96981D01*
Y96325D01*
X168831Y95669D01*
X168175D01*
X168831D01*
X169487Y95013D01*
Y94357D01*
X168831Y93701D01*
X167519D01*
X166863Y94357D01*
X266144Y145650D02*
X265489Y146306D01*
X264177D01*
X263521Y145650D01*
Y143027D01*
X264177Y142371D01*
X265489D01*
X266144Y143027D01*
X267456Y145650D02*
X268112Y146306D01*
X269424D01*
X270080Y145650D01*
Y144994D01*
X269424Y144339D01*
X268768D01*
X269424D01*
X270080Y143683D01*
Y143027D01*
X269424Y142371D01*
X268112D01*
X267456Y143027D01*
X244226Y157710D02*
X243570Y158365D01*
X242258D01*
X241602Y157710D01*
Y155086D01*
X242258Y154430D01*
X243570D01*
X244226Y155086D01*
X248162Y154430D02*
X245538D01*
X248162Y157054D01*
Y157710D01*
X247506Y158365D01*
X246194D01*
X245538Y157710D01*
X219858Y26082D02*
X219366Y26574D01*
X218382D01*
X217890Y26082D01*
Y24114D01*
X218382Y23622D01*
X219366D01*
X219858Y24114D01*
X220842Y23622D02*
X221826D01*
X221334D01*
Y26574D01*
X220842Y26082D01*
X39173Y115256D02*
X38682Y114764D01*
Y113780D01*
X39173Y113288D01*
X41141D01*
X41633Y113780D01*
Y114764D01*
X41141Y115256D01*
X41633Y117716D02*
X38682D01*
X40157Y116240D01*
Y118208D01*
X172415Y130052D02*
X171759Y130708D01*
X170447D01*
X169791Y130052D01*
Y127428D01*
X170447Y126772D01*
X171759D01*
X172415Y127428D01*
X176351Y130708D02*
X173727D01*
Y128740D01*
X175039Y129396D01*
X175695D01*
X176351Y128740D01*
Y127428D01*
X175695Y126772D01*
X174383D01*
X173727Y127428D01*
D11*
X302461Y137500D02*
G03*
X302461Y137500I-492J0D01*
G01*
X346555Y137500D02*
G03*
X346555Y137500I-492J0D01*
G01*
X317421D02*
G03*
X317421Y137500I-492J0D01*
G01*
X211122Y129921D02*
G03*
X211122Y129921I-492J0D01*
G01*
X100886Y127854D02*
G03*
X100886Y127854I-492J0D01*
G01*
D12*
X42889Y112968D02*
Y124040D01*
X50024Y112968D02*
Y124040D01*
X62500Y114567D02*
Y122441D01*
X61909D02*
X62500D01*
X61909Y114567D02*
Y122441D01*
Y114567D02*
X62500D01*
X8881Y21752D02*
Y80807D01*
Y21752D02*
X67936D01*
Y80807D01*
X8881D02*
X67936D01*
X80709D02*
X139764D01*
Y21752D02*
Y80807D01*
X80709Y21752D02*
X139764D01*
X80709D02*
Y80807D01*
X327301Y81006D02*
X386356D01*
Y21951D02*
Y81006D01*
X327301Y21951D02*
X386356D01*
X327301D02*
Y81006D01*
X257874Y80807D02*
X316929D01*
Y21752D02*
Y80807D01*
X257874Y21752D02*
X316929D01*
X257874D02*
Y80807D01*
X171653Y73327D02*
Y100098D01*
X222047D01*
Y73327D02*
Y100098D01*
X171653Y73327D02*
X222047D01*
X171693Y64370D02*
Y71949D01*
X291535Y134153D02*
X298228D01*
X291535Y140847D02*
X298228D01*
X181496Y16499D02*
Y31066D01*
X212205D01*
Y16499D02*
Y31066D01*
X181496Y16499D02*
X212205D01*
X180512Y9314D02*
Y15121D01*
X157850Y13263D02*
Y24335D01*
X164985Y13263D02*
Y24335D01*
X349803Y134153D02*
X356496D01*
X349803Y140847D02*
X356496D01*
X320669Y134153D02*
X327362D01*
X320669Y140847D02*
X327362D01*
X246850Y131791D02*
X249213D01*
Y120374D02*
Y131791D01*
X246850Y120374D02*
X249213D01*
X246850D02*
Y131791D01*
X269315Y128027D02*
Y139099D01*
X262181Y128027D02*
Y139099D01*
X247662Y140626D02*
Y151697D01*
X240527Y140626D02*
Y151697D01*
X225418Y10508D02*
Y21579D01*
X218283Y10508D02*
Y21579D01*
X170094Y118579D02*
X181166D01*
X170094Y125713D02*
X181166D01*
X148000Y118579D02*
X159072D01*
X148000Y125713D02*
X159072D01*
X167441Y137894D02*
Y144173D01*
X214567Y137894D02*
X226260D01*
X204724D02*
X206693D01*
X187008D02*
X188976D01*
X167441D02*
X179134D01*
X226260D02*
Y144173D01*
X102362Y133957D02*
X125984D01*
X102362Y157579D02*
X125984D01*
Y133957D02*
Y157579D01*
X102362Y133957D02*
Y157579D01*
D13*
X299188Y181987D02*
Y185986D01*
X301187Y187985D01*
X303187Y185986D01*
Y181987D01*
Y184986D01*
X299188D01*
X305186Y181987D02*
Y185986D01*
X308185D01*
X309185Y184986D01*
Y181987D01*
X312184Y186985D02*
Y185986D01*
X311184D01*
X313183D01*
X312184D01*
Y182986D01*
X313183Y181987D01*
X317182D02*
X319181D01*
X320181Y182986D01*
Y184986D01*
X319181Y185986D01*
X317182D01*
X316182Y184986D01*
Y182986D01*
X317182Y181987D01*
X322181D02*
Y185986D01*
X325180D01*
X326179Y184986D01*
Y181987D01*
X334177Y184986D02*
X338175D01*
X350171Y181987D02*
X346173D01*
X350171Y185986D01*
Y186985D01*
X349172Y187985D01*
X347172D01*
X346173Y186985D01*
X352171D02*
X353170Y187985D01*
X355170D01*
X356170Y186985D01*
Y182986D01*
X355170Y181987D01*
X353170D01*
X352171Y182986D01*
Y186985D01*
X362168Y181987D02*
X358169D01*
X362168Y185986D01*
Y186985D01*
X361168Y187985D01*
X359169D01*
X358169Y186985D01*
X364167Y181987D02*
X366166D01*
X365167D01*
Y187985D01*
X364167Y186985D01*
X281194Y172389D02*
Y178387D01*
X284193D01*
X285192Y177387D01*
Y175388D01*
X284193Y174389D01*
X281194D01*
X287192Y176388D02*
Y172389D01*
Y174389D01*
X288192Y175388D01*
X289191Y176388D01*
X290191D01*
X294190Y172389D02*
X296189D01*
X297189Y173389D01*
Y175388D01*
X296189Y176388D01*
X294190D01*
X293190Y175388D01*
Y173389D01*
X294190Y172389D01*
X299188Y170390D02*
X300188D01*
X301187Y171389D01*
Y176388D01*
X308185Y172389D02*
X306186D01*
X305186Y173389D01*
Y175388D01*
X306186Y176388D01*
X308185D01*
X309185Y175388D01*
Y174389D01*
X305186D01*
X315183Y176388D02*
X312184D01*
X311184Y175388D01*
Y173389D01*
X312184Y172389D01*
X315183D01*
X318182Y177387D02*
Y176388D01*
X317182D01*
X319181D01*
X318182D01*
Y173389D01*
X319181Y172389D01*
X328179Y178387D02*
Y172389D01*
X331178D01*
X332177Y173389D01*
Y174389D01*
X331178Y175388D01*
X328179D01*
X331178D01*
X332177Y176388D01*
Y177387D01*
X331178Y178387D01*
X328179D01*
X334177Y176388D02*
Y173389D01*
X335176Y172389D01*
X338175D01*
Y176388D01*
X340175D02*
Y172389D01*
Y174389D01*
X341174Y175388D01*
X342174Y176388D01*
X343174D01*
X347172D02*
X349172D01*
X350171Y175388D01*
Y172389D01*
X347172D01*
X346173Y173389D01*
X347172Y174389D01*
X350171D01*
X352171Y172389D02*
Y176388D01*
X355170D01*
X356170Y175388D01*
Y172389D01*
X364167Y176388D02*
X366166Y172389D01*
X368166Y176388D01*
X370165Y172389D02*
X372164D01*
X371165D01*
Y178387D01*
X370165Y177387D01*
X375163Y172389D02*
Y173389D01*
X376163D01*
Y172389D01*
X375163D01*
X384160D02*
X380162D01*
X384160Y176388D01*
Y177387D01*
X383161Y178387D01*
X381161D01*
X380162Y177387D01*
M02*
