G04*
G04 #@! TF.GenerationSoftware,Altium Limited,Altium Designer,22.3.1 (43)*
G04*
G04 Layer_Color=255*
%FSLAX25Y25*%
%MOIN*%
G70*
G04*
G04 #@! TF.SameCoordinates,8ED6FF1A-C223-48F4-A418-E12A0B0AD757*
G04*
G04*
G04 #@! TF.FilePolarity,Positive*
G04*
G01*
G75*
%ADD14R,0.02559X0.07579*%
%ADD15R,0.03985X0.04758*%
%ADD16R,0.04528X0.02165*%
%ADD17R,0.03150X0.03150*%
%ADD18R,0.01772X0.05807*%
%ADD19R,0.03740X0.03150*%
%ADD20R,0.03150X0.03740*%
%ADD21R,0.04724X0.02362*%
%ADD22R,0.04758X0.03985*%
%ADD23R,0.05512X0.08268*%
%ADD44C,0.31496*%
%ADD45C,0.07087*%
%ADD46R,0.06496X0.06496*%
%ADD47C,0.06496*%
%ADD48R,0.04331X0.04331*%
%ADD49C,0.04331*%
D14*
X213720Y144634D02*
D03*
X218721D02*
D03*
X223721D02*
D03*
X228720D02*
D03*
X233720D02*
D03*
X238720D02*
D03*
X243721D02*
D03*
X248721D02*
D03*
X253720D02*
D03*
X258720D02*
D03*
Y107531D02*
D03*
X253720D02*
D03*
X248721D02*
D03*
X243721D02*
D03*
X238720D02*
D03*
X233720D02*
D03*
X228720D02*
D03*
X223721D02*
D03*
X218721D02*
D03*
X213720D02*
D03*
D15*
X85827Y161031D02*
D03*
Y154717D02*
D03*
X200787Y61326D02*
D03*
Y55012D02*
D03*
X305118Y169776D02*
D03*
Y176090D02*
D03*
X283465Y182375D02*
D03*
Y188689D02*
D03*
X261221Y52256D02*
D03*
Y58570D02*
D03*
D16*
X97638Y157874D02*
D03*
X105512Y160433D02*
D03*
Y155315D02*
D03*
D17*
X337205Y176870D02*
D03*
X331299D02*
D03*
X395472Y176870D02*
D03*
X389567D02*
D03*
X366339D02*
D03*
X360433D02*
D03*
D18*
X222146Y51586D02*
D03*
X224705D02*
D03*
X227264D02*
D03*
X229823D02*
D03*
X232382D02*
D03*
X234941D02*
D03*
X237500D02*
D03*
X240059D02*
D03*
X242618D02*
D03*
X245177D02*
D03*
X247736D02*
D03*
X250295D02*
D03*
Y74720D02*
D03*
X247736D02*
D03*
X245177D02*
D03*
X242618D02*
D03*
X240059D02*
D03*
X237500D02*
D03*
X234941D02*
D03*
X232382D02*
D03*
X229823D02*
D03*
X227264D02*
D03*
X224705D02*
D03*
X222146D02*
D03*
D19*
X210138Y54429D02*
D03*
Y59351D02*
D03*
X268886Y107089D02*
D03*
Y102167D02*
D03*
X277154Y107089D02*
D03*
Y102167D02*
D03*
D20*
X390059Y166634D02*
D03*
X394980D02*
D03*
X365846D02*
D03*
X360925D02*
D03*
X336713D02*
D03*
X331791D02*
D03*
X275590Y141831D02*
D03*
X270669D02*
D03*
D21*
X282480Y169193D02*
D03*
Y165453D02*
D03*
Y161713D02*
D03*
X292323D02*
D03*
Y169193D02*
D03*
D22*
X211843Y161516D02*
D03*
X218157D02*
D03*
X189749D02*
D03*
X196063D02*
D03*
D23*
X162402Y167224D02*
D03*
Y203051D02*
D03*
X144685Y167224D02*
D03*
Y203051D02*
D03*
D44*
X413386Y43307D02*
D03*
X59055D02*
D03*
X413386Y224410D02*
D03*
X59055D02*
D03*
D45*
X83858Y81181D02*
D03*
X73858D02*
D03*
Y101181D02*
D03*
X83858D02*
D03*
X98858Y91181D02*
D03*
Y71181D02*
D03*
Y111181D02*
D03*
X147244Y81181D02*
D03*
X137244D02*
D03*
Y101181D02*
D03*
X147244D02*
D03*
X162244Y91181D02*
D03*
Y71181D02*
D03*
Y111181D02*
D03*
X319291Y81181D02*
D03*
X309291D02*
D03*
Y101181D02*
D03*
X319291D02*
D03*
X334291Y91181D02*
D03*
Y71181D02*
D03*
Y111181D02*
D03*
X389528Y81181D02*
D03*
X379528D02*
D03*
Y101181D02*
D03*
X389528D02*
D03*
X404528Y91181D02*
D03*
Y71181D02*
D03*
Y111181D02*
D03*
D46*
X253465Y203307D02*
D03*
D47*
Y193307D02*
D03*
X243465Y203307D02*
D03*
Y193307D02*
D03*
X233465Y203307D02*
D03*
Y193307D02*
D03*
X223465Y203307D02*
D03*
Y193307D02*
D03*
X213465Y203307D02*
D03*
Y193307D02*
D03*
D48*
X74646Y192520D02*
D03*
D49*
Y197520D02*
D03*
X79646Y192520D02*
D03*
Y197520D02*
D03*
X84646Y192520D02*
D03*
Y197520D02*
D03*
X89646Y192520D02*
D03*
Y197520D02*
D03*
X94646Y192520D02*
D03*
Y197520D02*
D03*
M02*
