G04*
G04 #@! TF.GenerationSoftware,Altium Limited,Altium Designer,21.2.1 (34)*
G04*
G04 Layer_Physical_Order=1*
G04 Layer_Color=255*
%FSLAX25Y25*%
%MOIN*%
G70*
G04*
G04 #@! TF.SameCoordinates,376BEF27-1B36-4492-BBE4-843C7A460007*
G04*
G04*
G04 #@! TF.FilePolarity,Positive*
G04*
G01*
G75*
%ADD13C,0.01000*%
%ADD15R,0.03150X0.03740*%
%ADD16R,0.03150X0.03150*%
%ADD17R,0.02559X0.07579*%
%ADD18R,0.01772X0.05807*%
%ADD19R,0.04724X0.02362*%
%ADD20R,0.04528X0.02165*%
%ADD21R,0.03985X0.04758*%
%ADD22R,0.04758X0.03985*%
%ADD23R,0.03740X0.03150*%
%ADD24R,0.04921X0.11811*%
%ADD25R,0.05512X0.08268*%
%ADD38C,0.13780*%
%ADD40C,0.01575*%
%ADD41C,0.00800*%
%ADD42C,0.01500*%
%ADD43C,0.05118*%
%ADD44C,0.04724*%
%ADD45C,0.03583*%
%ADD46C,0.06496*%
%ADD47R,0.06496X0.06496*%
%ADD48C,0.03150*%
G36*
X246063Y143695D02*
X236614D01*
X235433Y142514D01*
Y132468D01*
X236996Y130905D01*
X245469D01*
X245468Y128540D01*
X209485Y128553D01*
X208172Y129865D01*
X208162Y133859D01*
X211378Y133852D01*
X211709Y134156D01*
X212015Y133851D01*
X213084Y133848D01*
Y132781D01*
X214961Y130905D01*
X233369D01*
X233371Y143695D01*
X234951Y145276D01*
X246063D01*
Y143695D01*
D02*
G37*
G36*
X264748Y130405D02*
X264728Y130308D01*
Y129921D01*
X264806Y129531D01*
X265027Y129200D01*
X265330Y128897D01*
X267740D01*
Y108661D01*
X359842D01*
X361907Y106597D01*
X361907Y59055D01*
X358566Y59055D01*
X358566Y103590D01*
X356251Y105905D01*
X292221Y105905D01*
Y59055D01*
X288881Y59055D01*
X288881Y83905D01*
X287008Y85778D01*
X117323D01*
X115248Y83703D01*
X115230Y83701D01*
X115230Y57385D01*
X111890Y57385D01*
Y83337D01*
X109449Y85778D01*
X46063D01*
X43403Y83118D01*
X43403Y57874D01*
X40062Y57874D01*
Y85778D01*
X40062Y85778D01*
Y87448D01*
X40062Y87448D01*
X41732Y89119D01*
X111890Y89119D01*
Y89121D01*
X115230D01*
Y89119D01*
X287341Y89119D01*
X288881Y90658D01*
Y105905D01*
X267740Y105905D01*
Y102310D01*
X265848Y100418D01*
X234720D01*
X234646Y100492D01*
Y104232D01*
X262170D01*
X263709Y105771D01*
X263720Y107133D01*
X263752Y127020D01*
X263734Y127014D01*
X262205Y128543D01*
X250590D01*
Y130905D01*
X264389D01*
X264748Y130405D01*
D02*
G37*
D13*
X105856Y125837D02*
X107571Y124122D01*
X108653D02*
X117028Y115748D01*
X105856Y125837D02*
Y126919D01*
X107571Y124122D02*
X108653D01*
X218428Y93898D02*
X219350Y94820D01*
X173071Y93898D02*
X218428D01*
X219350Y94820D02*
Y105165D01*
X224918Y53051D02*
X228265Y49705D01*
X214665Y53051D02*
X224918D01*
X228265Y49705D02*
X228560D01*
X204357Y63359D02*
X214665Y53051D01*
X179341Y68073D02*
Y73514D01*
Y68073D02*
X179350Y68063D01*
X179331Y73524D02*
X179341Y73514D01*
X174380Y68093D02*
Y73494D01*
X174350Y68063D02*
X174380Y68093D01*
Y73494D02*
X174409Y73524D01*
X162402Y77756D02*
X183765D01*
X158563Y81595D02*
X162402Y77756D01*
X184350Y68063D02*
Y77170D01*
X183765Y77756D02*
X184350Y77170D01*
X219350Y105165D02*
X228496D01*
X231299Y102362D02*
Y102657D01*
X230224Y103732D02*
X231299Y102657D01*
X229929Y103732D02*
X230224D01*
X228496Y105165D02*
X229929Y103732D01*
X204350Y68063D02*
X204357Y68056D01*
Y63359D02*
Y68056D01*
X199350Y65553D02*
X215199Y49705D01*
X220630D01*
X199350Y65553D02*
Y68063D01*
X194222Y53376D02*
Y67935D01*
X194095Y53248D02*
X194222Y53376D01*
Y67935D02*
X194350Y68063D01*
X189557Y53455D02*
Y67856D01*
Y53455D02*
X189764Y53248D01*
X189350Y68063D02*
X189557Y67856D01*
X209646Y68358D02*
Y75394D01*
X209350Y68063D02*
X209646Y68358D01*
X204134Y80905D02*
X209646Y75394D01*
X169291Y80905D02*
X204134D01*
X99902Y120965D02*
X105315Y126378D01*
X66142Y120965D02*
X99902D01*
X69055Y161417D02*
X78642D01*
X105315Y134744D01*
Y127756D02*
Y134744D01*
X95236Y68347D02*
Y68898D01*
X47464Y59055D02*
X48094D01*
X224803Y129528D02*
X225590D01*
D15*
X350689Y127165D02*
D03*
X355610D02*
D03*
X326476D02*
D03*
X321555D02*
D03*
X297342D02*
D03*
X292421D02*
D03*
X236221Y102362D02*
D03*
X231299D02*
D03*
D16*
X356102Y137402D02*
D03*
X350197D02*
D03*
X326969D02*
D03*
X321063D02*
D03*
X291929Y137402D02*
D03*
X297835D02*
D03*
D17*
X174350Y105165D02*
D03*
X179350D02*
D03*
X184350D02*
D03*
X189350D02*
D03*
X194350D02*
D03*
X199350D02*
D03*
X204350D02*
D03*
X209350D02*
D03*
X214350D02*
D03*
X219350D02*
D03*
Y68063D02*
D03*
X214350D02*
D03*
X209350D02*
D03*
X204350D02*
D03*
X199350D02*
D03*
X194350D02*
D03*
X189350D02*
D03*
X184350D02*
D03*
X179350D02*
D03*
X174350D02*
D03*
D18*
X182776Y35251D02*
D03*
X185335D02*
D03*
X187894D02*
D03*
X190453D02*
D03*
X193012D02*
D03*
X195571D02*
D03*
X198130D02*
D03*
X200689D02*
D03*
X203248D02*
D03*
X205807D02*
D03*
X208366D02*
D03*
X210925D02*
D03*
Y12117D02*
D03*
X208366D02*
D03*
X205807D02*
D03*
X203248D02*
D03*
X200689D02*
D03*
X198130D02*
D03*
X195571D02*
D03*
X193012D02*
D03*
X190453D02*
D03*
X187894D02*
D03*
X185335D02*
D03*
X182776D02*
D03*
D19*
X243110Y129724D02*
D03*
Y125984D02*
D03*
Y122244D02*
D03*
X252953D02*
D03*
Y129724D02*
D03*
D20*
X66142Y115847D02*
D03*
Y120965D02*
D03*
X58268Y118405D02*
D03*
D21*
X265748Y130308D02*
D03*
Y136621D02*
D03*
X244094Y142906D02*
D03*
Y149220D02*
D03*
X46457Y115249D02*
D03*
Y121563D02*
D03*
D22*
X162212Y25197D02*
D03*
X155898D02*
D03*
X172473Y122047D02*
D03*
X178787D02*
D03*
X150379D02*
D03*
X156693D02*
D03*
D23*
X226690Y26083D02*
D03*
Y21161D02*
D03*
X220630Y44783D02*
D03*
Y49705D02*
D03*
X228560Y44783D02*
D03*
Y49705D02*
D03*
D24*
X192913Y137953D02*
D03*
X200787D02*
D03*
X183071D02*
D03*
X210630D02*
D03*
D25*
X123031Y127756D02*
D03*
Y163583D02*
D03*
X105315Y127756D02*
D03*
Y163583D02*
D03*
D38*
X170984Y152441D02*
D03*
X222716Y152441D02*
D03*
D40*
X220630Y44783D02*
X228560D01*
X238583D02*
X241929Y48130D01*
X228560Y44783D02*
X238583D01*
X154429Y87205D02*
Y96818D01*
X172473Y114862D01*
Y122047D01*
X189350Y105165D02*
Y110748D01*
X172473Y114862D02*
X174638Y112697D01*
X187402D01*
X189350Y110748D01*
X156693Y122047D02*
X172473D01*
X105315Y126378D02*
Y127756D01*
X29055Y139350D02*
X46457Y121949D01*
X29055Y139350D02*
Y151417D01*
X46457Y121563D02*
Y121949D01*
X237008Y87402D02*
X241929Y82480D01*
Y48130D02*
Y82480D01*
X53930Y121563D02*
X57087Y118405D01*
X46457Y121563D02*
X53930D01*
X57087Y118405D02*
X58268D01*
X53409Y87448D02*
X58268Y92307D01*
Y118405D01*
D41*
X218839Y122244D02*
X243110D01*
X210338Y130745D02*
X218839Y122244D01*
X350689Y127165D02*
Y131988D01*
X356102Y137402D01*
X326476Y127165D02*
Y136909D01*
X326969Y137402D01*
X291929Y132874D02*
Y137402D01*
X297342Y127165D02*
Y127461D01*
X291929Y132874D02*
X297342Y127461D01*
X265748Y129921D02*
X268504Y127165D01*
X292421D01*
X265748Y129921D02*
Y130308D01*
D42*
X204350Y105165D02*
Y109705D01*
X200787Y113268D02*
X204350Y109705D01*
X200787Y113268D02*
Y137953D01*
X199350Y105165D02*
Y109705D01*
X192913Y116142D02*
X199350Y109705D01*
X192913Y116142D02*
Y137953D01*
D43*
X13409Y76181D02*
D03*
X63409D02*
D03*
X13409Y26181D02*
D03*
X63409D02*
D03*
X23409Y68898D02*
D03*
X53409D02*
D03*
X331828Y76380D02*
D03*
X381828D02*
D03*
X331828Y26381D02*
D03*
X381828D02*
D03*
X341828Y69097D02*
D03*
X371828D02*
D03*
X302402Y68898D02*
D03*
X272402D02*
D03*
X312402Y26181D02*
D03*
X262402D02*
D03*
X312402Y76181D02*
D03*
X262402D02*
D03*
X125236Y68898D02*
D03*
X95236D02*
D03*
X135236Y26181D02*
D03*
X85236D02*
D03*
X135236Y76181D02*
D03*
X85236D02*
D03*
D44*
X47464Y59055D02*
D03*
Y43307D02*
D03*
X41558D02*
D03*
Y59055D02*
D03*
X365883Y59254D02*
D03*
Y43507D02*
D03*
X359978D02*
D03*
Y59254D02*
D03*
X290551Y59055D02*
D03*
Y43307D02*
D03*
X296457D02*
D03*
Y59055D02*
D03*
X113386D02*
D03*
Y43307D02*
D03*
X119291D02*
D03*
Y59055D02*
D03*
D45*
X189764Y53248D02*
D03*
X194095D02*
D03*
D46*
X69055Y161417D02*
D03*
X59055D02*
D03*
X69055Y151417D02*
D03*
X59055D02*
D03*
X49055Y161417D02*
D03*
Y151417D02*
D03*
X29055Y161417D02*
D03*
X39055Y151417D02*
D03*
Y161417D02*
D03*
D47*
X29055Y151417D02*
D03*
D48*
X219340Y71862D02*
D03*
X214340D02*
D03*
X214469Y101181D02*
D03*
X209449D02*
D03*
X179331Y73524D02*
D03*
X174409D02*
D03*
X169291Y80905D02*
D03*
X158563Y81595D02*
D03*
X117028Y115748D02*
D03*
X173071Y93898D02*
D03*
M02*
