G04*
G04 #@! TF.GenerationSoftware,Altium Limited,Altium Designer,21.2.1 (34)*
G04*
G04 Layer_Color=255*
%FSLAX25Y25*%
%MOIN*%
G70*
G04*
G04 #@! TF.SameCoordinates,376BEF27-1B36-4492-BBE4-843C7A460007*
G04*
G04*
G04 #@! TF.FilePolarity,Positive*
G04*
G01*
G75*
%ADD38C,0.13780*%
%ADD43C,0.05118*%
%ADD44C,0.04724*%
%ADD45C,0.03583*%
%ADD46C,0.06496*%
%ADD47R,0.06496X0.06496*%
D38*
X170984Y152441D02*
D03*
X222716Y152441D02*
D03*
D43*
X13409Y76181D02*
D03*
X63409D02*
D03*
X13409Y26181D02*
D03*
X63409D02*
D03*
X23409Y68898D02*
D03*
X53409D02*
D03*
X331828Y76380D02*
D03*
X381828D02*
D03*
X331828Y26381D02*
D03*
X381828D02*
D03*
X341828Y69097D02*
D03*
X371828D02*
D03*
X302402Y68898D02*
D03*
X272402D02*
D03*
X312402Y26181D02*
D03*
X262402D02*
D03*
X312402Y76181D02*
D03*
X262402D02*
D03*
X125236Y68898D02*
D03*
X95236D02*
D03*
X135236Y26181D02*
D03*
X85236D02*
D03*
X135236Y76181D02*
D03*
X85236D02*
D03*
D44*
X47464Y59055D02*
D03*
Y43307D02*
D03*
X41558D02*
D03*
Y59055D02*
D03*
X365883Y59254D02*
D03*
Y43507D02*
D03*
X359978D02*
D03*
Y59254D02*
D03*
X290551Y59055D02*
D03*
Y43307D02*
D03*
X296457D02*
D03*
Y59055D02*
D03*
X113386D02*
D03*
Y43307D02*
D03*
X119291D02*
D03*
Y59055D02*
D03*
D45*
X189764Y53248D02*
D03*
X194095D02*
D03*
D46*
X69055Y161417D02*
D03*
X59055D02*
D03*
X69055Y151417D02*
D03*
X59055D02*
D03*
X49055Y161417D02*
D03*
Y151417D02*
D03*
X29055Y161417D02*
D03*
X39055Y151417D02*
D03*
Y161417D02*
D03*
D47*
X29055Y151417D02*
D03*
M02*
