G04*
G04 #@! TF.GenerationSoftware,Altium Limited,Altium Designer,21.3.2 (30)*
G04*
G04 Layer_Physical_Order=2*
G04 Layer_Color=16711680*
%FSLAX25Y25*%
%MOIN*%
G70*
G04*
G04 #@! TF.SameCoordinates,75D106E2-5011-445C-8AED-ED28EDA0CE08*
G04*
G04*
G04 #@! TF.FilePolarity,Positive*
G04*
G01*
G75*
%ADD13C,0.01000*%
%ADD37C,0.13780*%
%ADD39C,0.01575*%
%ADD41C,0.00800*%
%ADD43R,0.04331X0.04331*%
%ADD44C,0.04331*%
%ADD45C,0.05118*%
%ADD46C,0.04724*%
%ADD47C,0.03583*%
%ADD48C,0.03150*%
G36*
X389764Y3937D02*
X205642D01*
X205308Y4437D01*
X205452Y4784D01*
Y5649D01*
X205121Y6448D01*
X204509Y7060D01*
X203710Y7391D01*
X202845D01*
X202472Y7237D01*
X201978Y7224D01*
X201647Y8023D01*
X201035Y8635D01*
X200236Y8966D01*
X199371D01*
X198571Y8635D01*
X197959Y8023D01*
X197628Y7224D01*
Y7023D01*
X182509D01*
X180252Y9281D01*
Y24213D01*
X180174Y24603D01*
X179953Y24934D01*
X176016Y28871D01*
X175686Y29092D01*
X175295Y29169D01*
X153921D01*
X150952Y32138D01*
X150800Y32366D01*
X150994Y32835D01*
Y33700D01*
X150663Y34500D01*
X150051Y35111D01*
X149941Y35157D01*
Y44798D01*
X150454Y45311D01*
X150893D01*
X151693Y45642D01*
X152304Y46254D01*
X152636Y47053D01*
Y47918D01*
X152304Y48718D01*
X151693Y49329D01*
X150893Y49661D01*
X150591D01*
Y50554D01*
X163489D01*
X176460Y37582D01*
X176919Y37276D01*
X177461Y37168D01*
X195223D01*
X195764Y37276D01*
X196223Y37582D01*
X197457Y38816D01*
X197764Y39275D01*
X197871Y39817D01*
Y42354D01*
X198300Y42783D01*
X198632Y43582D01*
Y44448D01*
X198300Y45247D01*
X197689Y45859D01*
X196889Y46190D01*
X196024D01*
X195225Y45859D01*
X194613Y45247D01*
X194282Y44448D01*
Y44026D01*
X193782Y43692D01*
X193715Y43720D01*
X193056D01*
X192823Y43765D01*
X192594Y44155D01*
Y44675D01*
X192263Y45475D01*
X191651Y46087D01*
X190852Y46418D01*
X189987D01*
X189187Y46087D01*
X188575Y45475D01*
X188244Y44675D01*
Y44584D01*
X179661D01*
X166847Y57398D01*
X166388Y57705D01*
X165846Y57812D01*
X164564D01*
X164444Y58217D01*
X164439Y58312D01*
X165033Y58906D01*
X165364Y59705D01*
Y60570D01*
X165033Y61370D01*
X164421Y61981D01*
X164311Y62027D01*
Y73688D01*
X170061Y79439D01*
X175392D01*
X175438Y79328D01*
X176049Y78717D01*
X176849Y78386D01*
X176934D01*
X177125Y77924D01*
X174952Y75751D01*
X174842Y75797D01*
X173977D01*
X173178Y75466D01*
X172566Y74854D01*
X172235Y74055D01*
Y73189D01*
X172566Y72390D01*
X173178Y71778D01*
X173977Y71447D01*
X174842D01*
X175641Y71778D01*
X176253Y72390D01*
X176584Y73189D01*
Y73880D01*
X176656Y73929D01*
X177156Y73664D01*
Y73189D01*
X177487Y72390D01*
X178099Y71778D01*
X178898Y71447D01*
X179763D01*
X180563Y71778D01*
X181174Y72390D01*
X181506Y73189D01*
Y74055D01*
X181174Y74854D01*
X180563Y75466D01*
X180611Y75973D01*
X185431Y80793D01*
X220934D01*
X221125Y80331D01*
X214883Y74090D01*
X214773Y74135D01*
X213908D01*
X213109Y73804D01*
X212497Y73193D01*
X212166Y72393D01*
Y71528D01*
X212497Y70729D01*
X213109Y70117D01*
X213908Y69786D01*
X214773D01*
X215345Y70023D01*
X215426Y69882D01*
X218209D01*
Y69882D01*
X218388Y70001D01*
X218908Y69786D01*
X219773D01*
X220572Y70117D01*
X221184Y70729D01*
X221515Y71528D01*
Y72393D01*
X221184Y73193D01*
X220800Y73577D01*
Y74571D01*
X223749Y77520D01*
X249138D01*
X265049Y61608D01*
X265049Y61608D01*
X265413Y61365D01*
X265842Y61280D01*
X265842Y61280D01*
X285476D01*
X285476Y61280D01*
X285905Y61365D01*
X286269Y61608D01*
X321850Y97189D01*
X321850Y97189D01*
X322093Y97553D01*
X322147Y97825D01*
X339910Y115587D01*
X340020Y115542D01*
X340885D01*
X341685Y115873D01*
X342297Y116485D01*
X342628Y117284D01*
Y118149D01*
X342297Y118948D01*
X341685Y119560D01*
X340885Y119891D01*
X340020D01*
X339221Y119560D01*
X338609Y118948D01*
X338278Y118149D01*
Y117284D01*
X338324Y117174D01*
X330619Y109469D01*
X330157Y109660D01*
Y114055D01*
X330267Y114101D01*
X330879Y114713D01*
X331210Y115512D01*
Y116377D01*
X330879Y117177D01*
X330267Y117789D01*
X329468Y118120D01*
X328603D01*
X327803Y117789D01*
X327192Y117177D01*
X326861Y116377D01*
Y115512D01*
X327192Y114713D01*
X327803Y114101D01*
X327914Y114055D01*
Y109032D01*
X306168Y87286D01*
X305925Y86922D01*
X305870Y86644D01*
X284422Y65196D01*
X276362D01*
X275931Y65432D01*
X275931Y65432D01*
X275931Y65432D01*
Y66654D01*
X275207Y67537D01*
X275345Y67777D01*
X275561Y68580D01*
Y69412D01*
X275345Y70215D01*
X274929Y70936D01*
X274341Y71524D01*
X273621Y71940D01*
X272817Y72155D01*
X271986D01*
X271182Y71940D01*
X270462Y71524D01*
X269874Y70936D01*
X269458Y70215D01*
X269243Y69412D01*
Y68580D01*
X269458Y67777D01*
X269508Y67689D01*
X268689Y66870D01*
X267590D01*
X261810Y72650D01*
X261930Y72971D01*
X262047Y73120D01*
X262818D01*
X263621Y73336D01*
X264341Y73752D01*
X264930Y74340D01*
X265345Y75060D01*
X265561Y75864D01*
Y76695D01*
X265345Y77499D01*
X264930Y78219D01*
X264341Y78807D01*
X263621Y79223D01*
X262818Y79439D01*
X261986D01*
X261182Y79223D01*
X260462Y78807D01*
X259874Y78219D01*
X259458Y77499D01*
X259243Y76695D01*
Y75925D01*
X259093Y75808D01*
X258772Y75688D01*
X252481Y81980D01*
X252672Y82441D01*
X294010D01*
X294056Y82331D01*
X294668Y81719D01*
X295467Y81388D01*
X296332D01*
X297131Y81719D01*
X297743Y82331D01*
X298074Y83130D01*
Y83996D01*
X297743Y84795D01*
X297131Y85407D01*
X296332Y85738D01*
X295467D01*
X294668Y85407D01*
X294056Y84795D01*
X294010Y84685D01*
X184350D01*
X183921Y84599D01*
X183557Y84356D01*
X183557Y84356D01*
X179918Y80717D01*
X179456Y80908D01*
Y80993D01*
X179125Y81792D01*
X178513Y82404D01*
X177714Y82735D01*
X176849D01*
X176049Y82404D01*
X175438Y81792D01*
X175392Y81682D01*
X169874D01*
X169536Y82143D01*
X169533Y82165D01*
X169689Y82541D01*
Y83406D01*
X169358Y84206D01*
X168746Y84817D01*
X167947Y85149D01*
X167081D01*
X166282Y84817D01*
X165670Y84206D01*
X165339Y83406D01*
Y82541D01*
X165385Y82431D01*
X164014Y81060D01*
X154945D01*
X154926Y81073D01*
X154710Y81560D01*
X154821Y81683D01*
X155529D01*
X156328Y82015D01*
X156940Y82626D01*
X157271Y83426D01*
Y84291D01*
X156940Y85090D01*
X156328Y85702D01*
X155529Y86033D01*
X154664D01*
X153865Y85702D01*
X153253Y85090D01*
X152922Y84291D01*
Y83426D01*
X152967Y83315D01*
X152312Y82660D01*
X133058D01*
X133058Y82660D01*
X132844Y82618D01*
X126333D01*
X126333Y82618D01*
X125904Y82532D01*
X125540Y82289D01*
X125540Y82289D01*
X110416Y67165D01*
X98654D01*
X98129Y67689D01*
X98180Y67777D01*
X98395Y68580D01*
Y69412D01*
X98180Y70215D01*
X97764Y70936D01*
X97176Y71524D01*
X96456Y71940D01*
X95652Y72155D01*
X94820D01*
X94017Y71940D01*
X93296Y71524D01*
X92708Y70936D01*
X92292Y70215D01*
X92077Y69412D01*
Y68580D01*
X92292Y67777D01*
X92708Y67056D01*
X93296Y66468D01*
X94017Y66052D01*
X94611Y65893D01*
X94545Y65393D01*
X49599D01*
X45203Y69789D01*
X44839Y70032D01*
X44410Y70118D01*
X44410Y70118D01*
X26379D01*
X26352Y70215D01*
X25936Y70936D01*
X25348Y71524D01*
X24628Y71940D01*
X23824Y72155D01*
X22993D01*
X22189Y71940D01*
X21469Y71524D01*
X20881Y70936D01*
X20465Y70215D01*
X20250Y69412D01*
Y68580D01*
X20465Y67777D01*
X20881Y67056D01*
X21469Y66468D01*
X22189Y66052D01*
X22993Y65837D01*
X23824D01*
X24628Y66052D01*
X25348Y66468D01*
X25936Y67056D01*
X26352Y67777D01*
X26379Y67874D01*
X43945D01*
X48341Y63479D01*
X48341Y63479D01*
X48705Y63235D01*
X49134Y63150D01*
X111614D01*
X111614Y63150D01*
X112043Y63235D01*
X112407Y63479D01*
X127703Y78774D01*
X132610D01*
X132802Y78313D01*
X132708Y78219D01*
X132292Y77499D01*
X132077Y76695D01*
Y75864D01*
X132292Y75060D01*
X132708Y74340D01*
X133297Y73752D01*
X134017Y73336D01*
X134820Y73120D01*
X135652D01*
X136456Y73336D01*
X137176Y73752D01*
X137764Y74340D01*
X138180Y75060D01*
X138395Y75864D01*
Y76695D01*
X138180Y77499D01*
X137764Y78219D01*
X137666Y78317D01*
X137873Y78817D01*
X153402D01*
X153789Y78431D01*
X153836Y78478D01*
X165221D01*
X165428Y77978D01*
X162396Y74946D01*
X162153Y74582D01*
X162067Y74153D01*
X162067Y74153D01*
Y62027D01*
X161957Y61981D01*
X161345Y61370D01*
X161014Y60570D01*
Y59705D01*
X161345Y58906D01*
X161939Y58312D01*
X161934Y58217D01*
X161814Y57812D01*
X122633D01*
X122133Y58313D01*
X122254Y58764D01*
Y59544D01*
X122052Y60297D01*
X121662Y60972D01*
X121110Y61524D01*
X120435Y61914D01*
X119681Y62116D01*
X118901D01*
X118148Y61914D01*
X117473Y61524D01*
X116921Y60972D01*
X116616Y60444D01*
X116512Y60411D01*
X116165D01*
X116061Y60444D01*
X115756Y60972D01*
X115205Y61524D01*
X114529Y61914D01*
X113776Y62116D01*
X112996D01*
X112242Y61914D01*
X111567Y61524D01*
X111015Y60972D01*
X110626Y60297D01*
X110424Y59544D01*
Y58764D01*
X110626Y58010D01*
X111015Y57335D01*
X111567Y56783D01*
X112242Y56393D01*
X112996Y56191D01*
X113776D01*
X114529Y56393D01*
X115205Y56783D01*
X115756Y57335D01*
X116061Y57863D01*
X116165Y57896D01*
X116512D01*
X116616Y57863D01*
X116921Y57335D01*
X117473Y56783D01*
X118148Y56393D01*
X118901Y56191D01*
X119681D01*
X120132Y56312D01*
X121047Y55397D01*
X121506Y55091D01*
X122047Y54983D01*
X128215D01*
X128406Y54521D01*
X120132Y46247D01*
X119681Y46368D01*
X118901D01*
X118148Y46166D01*
X117473Y45776D01*
X116921Y45224D01*
X116616Y44696D01*
X116512Y44663D01*
X116165D01*
X116061Y44696D01*
X115756Y45224D01*
X115205Y45776D01*
X114529Y46166D01*
X113776Y46368D01*
X112996D01*
X112242Y46166D01*
X111567Y45776D01*
X111015Y45224D01*
X110626Y44549D01*
X110424Y43795D01*
Y43016D01*
X110626Y42262D01*
X111015Y41587D01*
X111567Y41035D01*
X112242Y40645D01*
X112612Y40546D01*
X112682Y40195D01*
X112988Y39736D01*
X114748Y37976D01*
X115207Y37670D01*
X115748Y37562D01*
X120276D01*
X120817Y37670D01*
X121276Y37976D01*
X133854Y50554D01*
X140196D01*
X140457Y50054D01*
X140203Y49439D01*
Y48574D01*
X140534Y47774D01*
X141146Y47163D01*
X141945Y46832D01*
X142552D01*
X144255Y45129D01*
Y25689D01*
Y14895D01*
X144362Y14353D01*
X144546Y14079D01*
X144479Y13917D01*
Y13052D01*
X144810Y12252D01*
X145422Y11641D01*
X146221Y11310D01*
X147086D01*
X147886Y11641D01*
X148497Y12252D01*
X148828Y13052D01*
Y13917D01*
X148497Y14716D01*
X147886Y15328D01*
X147086Y15659D01*
X147084D01*
Y25662D01*
X148552Y27130D01*
X174873D01*
X178213Y23790D01*
Y8858D01*
X178290Y8468D01*
X178511Y8137D01*
X180994Y5655D01*
X180787Y5155D01*
X172178D01*
X172084Y5249D01*
Y7000D01*
X172513Y7429D01*
X172844Y8229D01*
Y9094D01*
X172513Y9893D01*
X171901Y10505D01*
X171102Y10836D01*
X170237D01*
X169437Y10505D01*
X168826Y9893D01*
X168494Y9094D01*
Y8229D01*
X168826Y7429D01*
X169255Y7000D01*
Y4663D01*
X169300Y4437D01*
X168930Y3937D01*
X3937D01*
Y192913D01*
X389764D01*
Y3937D01*
D02*
G37*
%LPC*%
G36*
X77169Y170413D02*
X77169Y170413D01*
X41732D01*
X41303Y170327D01*
X40939Y170084D01*
X40939Y170084D01*
X34482Y163628D01*
X34239Y163264D01*
X34154Y162835D01*
X34154Y162835D01*
Y160695D01*
X33578Y160362D01*
X33063Y159848D01*
X32699Y159217D01*
X32510Y158514D01*
Y157785D01*
X32699Y157082D01*
X33063Y156452D01*
X33099Y156415D01*
X32892Y155915D01*
X32510D01*
Y150384D01*
X38041D01*
Y155441D01*
X38041Y155766D01*
X38500Y156015D01*
X38578Y155937D01*
X39208Y155573D01*
X39911Y155384D01*
X40640D01*
X41343Y155573D01*
X41974Y155937D01*
X42488Y156452D01*
X42526Y156516D01*
X43026D01*
X43063Y156452D01*
X43578Y155937D01*
X44208Y155573D01*
X44912Y155384D01*
X45640D01*
X46343Y155573D01*
X46974Y155937D01*
X47488Y156452D01*
X47526Y156516D01*
X48026D01*
X48063Y156452D01*
X48578Y155937D01*
X48642Y155900D01*
Y155400D01*
X48578Y155362D01*
X48063Y154848D01*
X47699Y154217D01*
X47510Y153514D01*
Y152786D01*
X47699Y152082D01*
X48063Y151452D01*
X48578Y150937D01*
X49208Y150573D01*
X49911Y150384D01*
X50640D01*
X51343Y150573D01*
X51974Y150937D01*
X52488Y151452D01*
X52526Y151516D01*
X53026D01*
X53063Y151452D01*
X53578Y150937D01*
X54208Y150573D01*
X54912Y150384D01*
X55640D01*
X56343Y150573D01*
X56974Y150937D01*
X57488Y151452D01*
X57853Y152082D01*
X58041Y152786D01*
Y153514D01*
X57853Y154217D01*
X57488Y154848D01*
X56974Y155362D01*
X56909Y155400D01*
Y155900D01*
X56974Y155937D01*
X57488Y156452D01*
X57853Y157082D01*
X58041Y157785D01*
Y158514D01*
X57853Y159217D01*
X57488Y159848D01*
X56974Y160362D01*
X56343Y160726D01*
X55640Y160915D01*
X54912D01*
X54208Y160726D01*
X53578Y160362D01*
X53063Y159848D01*
X53026Y159783D01*
X52526D01*
X52488Y159848D01*
X51974Y160362D01*
X51343Y160726D01*
X50640Y160915D01*
X49911D01*
X49208Y160726D01*
X48578Y160362D01*
X48063Y159848D01*
X48026Y159783D01*
X47526D01*
X47488Y159848D01*
X46974Y160362D01*
X46343Y160726D01*
X45640Y160915D01*
X44912D01*
X44208Y160726D01*
X43578Y160362D01*
X43063Y159848D01*
X43026Y159783D01*
X42526D01*
X42488Y159848D01*
X41974Y160362D01*
X41397Y160695D01*
Y162272D01*
X45622Y166497D01*
X76012D01*
X109902Y132606D01*
Y126280D01*
X109902Y126280D01*
X109987Y125850D01*
X110231Y125487D01*
X117196Y118521D01*
X116989Y118021D01*
X116595D01*
X115796Y117690D01*
X115184Y117078D01*
X114853Y116279D01*
Y115414D01*
X115184Y114614D01*
X115796Y114003D01*
X116595Y113672D01*
X117460D01*
X118260Y114003D01*
X118658Y114401D01*
X138988Y94072D01*
X138988Y94072D01*
X139352Y93828D01*
X139781Y93743D01*
X171181D01*
X171227Y93633D01*
X171839Y93021D01*
X172638Y92690D01*
X173503D01*
X174303Y93021D01*
X174915Y93633D01*
X175246Y94432D01*
Y95297D01*
X174989Y95918D01*
X175247Y96418D01*
X210728D01*
X210728Y96418D01*
X211157Y96503D01*
X211521Y96746D01*
X213926Y99151D01*
X214036Y99105D01*
X214901D01*
X215700Y99436D01*
X216312Y100048D01*
X216643Y100847D01*
Y101712D01*
X216312Y102512D01*
X215700Y103123D01*
X214901Y103454D01*
X214036D01*
X213237Y103123D01*
X212625Y102512D01*
X212294Y101712D01*
Y100847D01*
X212339Y100737D01*
X211963Y100361D01*
X211539Y100644D01*
X211624Y100847D01*
Y101712D01*
X211293Y102512D01*
X210681Y103123D01*
X209881Y103454D01*
X209016D01*
X208217Y103123D01*
X207605Y102512D01*
X207274Y101712D01*
Y100847D01*
X207320Y100737D01*
X206917Y100334D01*
X140921D01*
X113818Y127437D01*
Y133764D01*
X113818Y133764D01*
X113733Y134193D01*
X113490Y134557D01*
X113490Y134557D01*
X77962Y170084D01*
X77599Y170327D01*
X77169Y170413D01*
D02*
G37*
G36*
X382244Y79638D02*
X381412D01*
X380609Y79423D01*
X379888Y79007D01*
X379300Y78419D01*
X378884Y77698D01*
X378669Y76895D01*
Y76063D01*
X378884Y75260D01*
X379300Y74539D01*
X379888Y73951D01*
X380609Y73535D01*
X381412Y73320D01*
X382244D01*
X383048Y73535D01*
X383768Y73951D01*
X384356Y74539D01*
X384772Y75260D01*
X384987Y76063D01*
Y76895D01*
X384772Y77698D01*
X384356Y78419D01*
X383768Y79007D01*
X383048Y79423D01*
X382244Y79638D01*
D02*
G37*
G36*
X332244D02*
X331412D01*
X330609Y79423D01*
X329888Y79007D01*
X329300Y78419D01*
X328884Y77698D01*
X328669Y76895D01*
Y76063D01*
X328884Y75260D01*
X329300Y74539D01*
X329888Y73951D01*
X330609Y73535D01*
X331412Y73320D01*
X332244D01*
X333048Y73535D01*
X333768Y73951D01*
X334356Y74539D01*
X334772Y75260D01*
X334987Y76063D01*
Y76895D01*
X334772Y77698D01*
X334356Y78419D01*
X333768Y79007D01*
X333048Y79423D01*
X332244Y79638D01*
D02*
G37*
G36*
X312818Y79439D02*
X311986D01*
X311182Y79223D01*
X310462Y78807D01*
X309874Y78219D01*
X309458Y77499D01*
X309243Y76695D01*
Y75864D01*
X309458Y75060D01*
X309874Y74340D01*
X310462Y73752D01*
X311182Y73336D01*
X311986Y73120D01*
X312818D01*
X313621Y73336D01*
X314341Y73752D01*
X314930Y74340D01*
X315345Y75060D01*
X315561Y75864D01*
Y76695D01*
X315345Y77499D01*
X314930Y78219D01*
X314341Y78807D01*
X313621Y79223D01*
X312818Y79439D01*
D02*
G37*
G36*
X85652D02*
X84820D01*
X84017Y79223D01*
X83297Y78807D01*
X82708Y78219D01*
X82292Y77499D01*
X82077Y76695D01*
Y75864D01*
X82292Y75060D01*
X82708Y74340D01*
X83297Y73752D01*
X84017Y73336D01*
X84820Y73120D01*
X85652D01*
X86456Y73336D01*
X87176Y73752D01*
X87764Y74340D01*
X88180Y75060D01*
X88395Y75864D01*
Y76695D01*
X88180Y77499D01*
X87764Y78219D01*
X87176Y78807D01*
X86456Y79223D01*
X85652Y79439D01*
D02*
G37*
G36*
X63824D02*
X62993D01*
X62189Y79223D01*
X61469Y78807D01*
X60881Y78219D01*
X60465Y77499D01*
X60250Y76695D01*
Y75864D01*
X60465Y75060D01*
X60881Y74340D01*
X61469Y73752D01*
X62189Y73336D01*
X62993Y73120D01*
X63824D01*
X64628Y73336D01*
X65348Y73752D01*
X65936Y74340D01*
X66352Y75060D01*
X66568Y75864D01*
Y76695D01*
X66352Y77499D01*
X65936Y78219D01*
X65348Y78807D01*
X64628Y79223D01*
X63824Y79439D01*
D02*
G37*
G36*
X13825D02*
X12993D01*
X12189Y79223D01*
X11469Y78807D01*
X10881Y78219D01*
X10465Y77499D01*
X10250Y76695D01*
Y75864D01*
X10465Y75060D01*
X10881Y74340D01*
X11469Y73752D01*
X12189Y73336D01*
X12993Y73120D01*
X13825D01*
X14628Y73336D01*
X15348Y73752D01*
X15936Y74340D01*
X16352Y75060D01*
X16568Y75864D01*
Y76695D01*
X16352Y77499D01*
X15936Y78219D01*
X15348Y78807D01*
X14628Y79223D01*
X13825Y79439D01*
D02*
G37*
G36*
X342244Y72355D02*
X341412D01*
X340609Y72139D01*
X339888Y71723D01*
X339300Y71135D01*
X338884Y70415D01*
X338669Y69611D01*
Y68780D01*
X338884Y67976D01*
X339300Y67256D01*
X339888Y66668D01*
X340609Y66252D01*
X341412Y66036D01*
X342244D01*
X343047Y66252D01*
X343768Y66668D01*
X344356Y67256D01*
X344772Y67976D01*
X344987Y68780D01*
Y69611D01*
X344772Y70415D01*
X344356Y71135D01*
X343768Y71723D01*
X343047Y72139D01*
X342244Y72355D01*
D02*
G37*
G36*
X366273Y62315D02*
X365493D01*
X364740Y62113D01*
X364064Y61723D01*
X363513Y61172D01*
X363208Y60643D01*
X363104Y60611D01*
X362757D01*
X362653Y60643D01*
X362348Y61172D01*
X361797Y61723D01*
X361121Y62113D01*
X360368Y62315D01*
X359588D01*
X358834Y62113D01*
X358159Y61723D01*
X357607Y61172D01*
X357217Y60496D01*
X357015Y59743D01*
Y58963D01*
X357217Y58210D01*
X357607Y57534D01*
X358159Y56983D01*
X358834Y56593D01*
X359588Y56391D01*
X360368D01*
X361121Y56593D01*
X361797Y56983D01*
X362348Y57534D01*
X362653Y58063D01*
X362757Y58095D01*
X363104D01*
X363208Y58063D01*
X363513Y57534D01*
X364064Y56983D01*
X364740Y56593D01*
X365493Y56391D01*
X366273D01*
X367027Y56593D01*
X367702Y56983D01*
X368254Y57534D01*
X368644Y58210D01*
X368846Y58963D01*
Y59743D01*
X368644Y60496D01*
X368254Y61172D01*
X367702Y61723D01*
X367027Y62113D01*
X366273Y62315D01*
D02*
G37*
G36*
X296847Y62116D02*
X296067D01*
X295313Y61914D01*
X294638Y61524D01*
X294086Y60972D01*
X293781Y60444D01*
X293677Y60411D01*
X293331D01*
X293227Y60444D01*
X292921Y60972D01*
X292370Y61524D01*
X291695Y61914D01*
X290941Y62116D01*
X290161D01*
X289408Y61914D01*
X288732Y61524D01*
X288181Y60972D01*
X287791Y60297D01*
X287589Y59544D01*
Y58764D01*
X287791Y58010D01*
X288181Y57335D01*
X288732Y56783D01*
X289408Y56393D01*
X290161Y56191D01*
X290941D01*
X291695Y56393D01*
X292370Y56783D01*
X292921Y57335D01*
X293227Y57863D01*
X293331Y57896D01*
X293677D01*
X293781Y57863D01*
X294086Y57335D01*
X294638Y56783D01*
X295313Y56393D01*
X296067Y56191D01*
X296847D01*
X297600Y56393D01*
X298275Y56783D01*
X298827Y57335D01*
X299217Y58010D01*
X299419Y58764D01*
Y59544D01*
X299217Y60297D01*
X298827Y60972D01*
X298275Y61524D01*
X297600Y61914D01*
X296847Y62116D01*
D02*
G37*
G36*
X47854D02*
X47074D01*
X46320Y61914D01*
X45645Y61524D01*
X45093Y60972D01*
X44788Y60444D01*
X44684Y60411D01*
X44338D01*
X44234Y60444D01*
X43929Y60972D01*
X43377Y61524D01*
X42702Y61914D01*
X41948Y62116D01*
X41168D01*
X40415Y61914D01*
X39739Y61524D01*
X39188Y60972D01*
X38798Y60297D01*
X38596Y59544D01*
Y58764D01*
X38798Y58010D01*
X39188Y57335D01*
X39739Y56783D01*
X40415Y56393D01*
X41168Y56191D01*
X41948D01*
X42702Y56393D01*
X43377Y56783D01*
X43929Y57335D01*
X44234Y57863D01*
X44338Y57896D01*
X44684D01*
X44788Y57863D01*
X45093Y57335D01*
X45645Y56783D01*
X46320Y56393D01*
X47074Y56191D01*
X47854D01*
X48607Y56393D01*
X49283Y56783D01*
X49834Y57335D01*
X50224Y58010D01*
X50426Y58764D01*
Y59544D01*
X50224Y60297D01*
X49834Y60972D01*
X49283Y61524D01*
X48607Y61914D01*
X47854Y62116D01*
D02*
G37*
G36*
X194570Y56722D02*
X193619D01*
X192740Y56358D01*
X192255Y55873D01*
X191929Y55741D01*
X191604Y55873D01*
X191118Y56358D01*
X190240Y56722D01*
X189288D01*
X188409Y56358D01*
X187736Y55686D01*
X187372Y54807D01*
Y53855D01*
X187736Y52976D01*
X188409Y52304D01*
X189288Y51940D01*
X190240D01*
X191118Y52304D01*
X191604Y52789D01*
X191929Y52921D01*
X192255Y52789D01*
X192740Y52304D01*
X193619Y51940D01*
X194570D01*
X195449Y52304D01*
X196122Y52976D01*
X196486Y53855D01*
Y54807D01*
X196122Y55686D01*
X195449Y56358D01*
X194570Y56722D01*
D02*
G37*
G36*
X204783Y66547D02*
X203918D01*
X203118Y66216D01*
X202507Y65604D01*
X202176Y64805D01*
Y63939D01*
X202507Y63140D01*
X203118Y62528D01*
X203918Y62197D01*
X204783D01*
X204893Y62243D01*
X211827Y55309D01*
X211827Y55309D01*
X212191Y55066D01*
X212620Y54981D01*
X232651D01*
X232842Y54519D01*
X222506Y44183D01*
X222263Y43819D01*
X222178Y43389D01*
X222178Y43389D01*
Y34834D01*
X222067Y34789D01*
X221455Y34177D01*
X221124Y33377D01*
Y32512D01*
X221455Y31713D01*
X222067Y31101D01*
X222867Y30770D01*
X223732D01*
X224531Y31101D01*
X225143Y31713D01*
X225474Y32512D01*
Y33377D01*
X225143Y34177D01*
X224531Y34789D01*
X224421Y34834D01*
Y42925D01*
X236805Y55309D01*
X237241Y55745D01*
X237351Y55699D01*
X238216D01*
X239016Y56030D01*
X239628Y56642D01*
X239959Y57441D01*
Y58307D01*
X239628Y59106D01*
X239016Y59718D01*
X238216Y60049D01*
X237351D01*
X236552Y59718D01*
X235940Y59106D01*
X235609Y58307D01*
Y57441D01*
X235158Y57224D01*
X213085D01*
X206480Y63829D01*
X206525Y63939D01*
Y64805D01*
X206194Y65604D01*
X205582Y66216D01*
X204783Y66547D01*
D02*
G37*
G36*
X366273Y46567D02*
X365493D01*
X364740Y46365D01*
X364064Y45975D01*
X363513Y45424D01*
X363208Y44895D01*
X363104Y44863D01*
X362757D01*
X362653Y44895D01*
X362348Y45424D01*
X361797Y45975D01*
X361121Y46365D01*
X360368Y46567D01*
X359588D01*
X358834Y46365D01*
X358159Y45975D01*
X357607Y45424D01*
X357217Y44748D01*
X357015Y43995D01*
Y43215D01*
X357217Y42462D01*
X357607Y41786D01*
X358159Y41235D01*
X358834Y40845D01*
X359588Y40643D01*
X360368D01*
X361121Y40845D01*
X361797Y41235D01*
X362348Y41786D01*
X362653Y42315D01*
X362757Y42347D01*
X363104D01*
X363208Y42315D01*
X363513Y41786D01*
X364064Y41235D01*
X364740Y40845D01*
X365493Y40643D01*
X366273D01*
X367027Y40845D01*
X367702Y41235D01*
X368254Y41786D01*
X368644Y42462D01*
X368846Y43215D01*
Y43995D01*
X368644Y44748D01*
X368254Y45424D01*
X367702Y45975D01*
X367027Y46365D01*
X366273Y46567D01*
D02*
G37*
G36*
X296847Y46368D02*
X296067D01*
X295313Y46166D01*
X294638Y45776D01*
X294086Y45224D01*
X293781Y44696D01*
X293677Y44663D01*
X293331D01*
X293227Y44696D01*
X292921Y45224D01*
X292370Y45776D01*
X291695Y46166D01*
X290941Y46368D01*
X290161D01*
X289408Y46166D01*
X288732Y45776D01*
X288181Y45224D01*
X287791Y44549D01*
X287589Y43795D01*
Y43016D01*
X287791Y42262D01*
X288181Y41587D01*
X288732Y41035D01*
X289408Y40645D01*
X290161Y40443D01*
X290941D01*
X291695Y40645D01*
X292370Y41035D01*
X292921Y41587D01*
X293227Y42115D01*
X293331Y42148D01*
X293677D01*
X293781Y42115D01*
X294086Y41587D01*
X294638Y41035D01*
X295313Y40645D01*
X296067Y40443D01*
X296847D01*
X297600Y40645D01*
X298275Y41035D01*
X298827Y41587D01*
X299217Y42262D01*
X299419Y43016D01*
Y43795D01*
X299217Y44549D01*
X298827Y45224D01*
X298275Y45776D01*
X297600Y46166D01*
X296847Y46368D01*
D02*
G37*
G36*
X47854D02*
X47074D01*
X46320Y46166D01*
X45645Y45776D01*
X45093Y45224D01*
X44788Y44696D01*
X44684Y44663D01*
X44338D01*
X44234Y44696D01*
X43929Y45224D01*
X43377Y45776D01*
X42702Y46166D01*
X41948Y46368D01*
X41168D01*
X40415Y46166D01*
X39739Y45776D01*
X39188Y45224D01*
X38798Y44549D01*
X38596Y43795D01*
Y43016D01*
X38798Y42262D01*
X39188Y41587D01*
X39739Y41035D01*
X40415Y40645D01*
X41168Y40443D01*
X41948D01*
X42702Y40645D01*
X43377Y41035D01*
X43929Y41587D01*
X44234Y42115D01*
X44338Y42148D01*
X44684D01*
X44788Y42115D01*
X45093Y41587D01*
X45645Y41035D01*
X46320Y40645D01*
X47074Y40443D01*
X47854D01*
X48607Y40645D01*
X49283Y41035D01*
X49834Y41587D01*
X50224Y42262D01*
X50426Y43016D01*
Y43795D01*
X50224Y44549D01*
X49834Y45224D01*
X49283Y45776D01*
X48607Y46166D01*
X47854Y46368D01*
D02*
G37*
G36*
X382244Y29638D02*
X381412D01*
X380609Y29423D01*
X379888Y29007D01*
X379300Y28419D01*
X378884Y27698D01*
X378669Y26895D01*
Y26063D01*
X378884Y25260D01*
X379300Y24539D01*
X379888Y23951D01*
X380609Y23535D01*
X381412Y23320D01*
X382244D01*
X383048Y23535D01*
X383768Y23951D01*
X384356Y24539D01*
X384772Y25260D01*
X384987Y26063D01*
Y26895D01*
X384772Y27698D01*
X384356Y28419D01*
X383768Y29007D01*
X383048Y29423D01*
X382244Y29638D01*
D02*
G37*
G36*
X332244D02*
X331412D01*
X330609Y29423D01*
X329888Y29007D01*
X329300Y28419D01*
X328884Y27698D01*
X328669Y26895D01*
Y26063D01*
X328884Y25260D01*
X329300Y24539D01*
X329888Y23951D01*
X330609Y23535D01*
X331412Y23320D01*
X332244D01*
X333048Y23535D01*
X333768Y23951D01*
X334356Y24539D01*
X334772Y25260D01*
X334987Y26063D01*
Y26895D01*
X334772Y27698D01*
X334356Y28419D01*
X333768Y29007D01*
X333048Y29423D01*
X332244Y29638D01*
D02*
G37*
G36*
X312818Y29439D02*
X311986D01*
X311182Y29223D01*
X310462Y28807D01*
X309874Y28219D01*
X309458Y27499D01*
X309243Y26695D01*
Y25864D01*
X309458Y25060D01*
X309874Y24340D01*
X310462Y23752D01*
X311182Y23336D01*
X311986Y23121D01*
X312818D01*
X313621Y23336D01*
X314341Y23752D01*
X314930Y24340D01*
X315345Y25060D01*
X315561Y25864D01*
Y26695D01*
X315345Y27499D01*
X314930Y28219D01*
X314341Y28807D01*
X313621Y29223D01*
X312818Y29439D01*
D02*
G37*
G36*
X262818D02*
X261986D01*
X261182Y29223D01*
X260462Y28807D01*
X259874Y28219D01*
X259458Y27499D01*
X259243Y26695D01*
Y25864D01*
X259458Y25060D01*
X259874Y24340D01*
X260462Y23752D01*
X261182Y23336D01*
X261986Y23121D01*
X262818D01*
X263621Y23336D01*
X264341Y23752D01*
X264930Y24340D01*
X265345Y25060D01*
X265561Y25864D01*
Y26695D01*
X265345Y27499D01*
X264930Y28219D01*
X264341Y28807D01*
X263621Y29223D01*
X262818Y29439D01*
D02*
G37*
G36*
X135652D02*
X134820D01*
X134017Y29223D01*
X133297Y28807D01*
X132708Y28219D01*
X132292Y27499D01*
X132077Y26695D01*
Y25864D01*
X132292Y25060D01*
X132708Y24340D01*
X133297Y23752D01*
X134017Y23336D01*
X134820Y23121D01*
X135652D01*
X136456Y23336D01*
X137176Y23752D01*
X137764Y24340D01*
X138180Y25060D01*
X138395Y25864D01*
Y26695D01*
X138180Y27499D01*
X137764Y28219D01*
X137176Y28807D01*
X136456Y29223D01*
X135652Y29439D01*
D02*
G37*
G36*
X85652D02*
X84820D01*
X84017Y29223D01*
X83297Y28807D01*
X82708Y28219D01*
X82292Y27499D01*
X82077Y26695D01*
Y25864D01*
X82292Y25060D01*
X82708Y24340D01*
X83297Y23752D01*
X84017Y23336D01*
X84820Y23121D01*
X85652D01*
X86456Y23336D01*
X87176Y23752D01*
X87764Y24340D01*
X88180Y25060D01*
X88395Y25864D01*
Y26695D01*
X88180Y27499D01*
X87764Y28219D01*
X87176Y28807D01*
X86456Y29223D01*
X85652Y29439D01*
D02*
G37*
G36*
X63824D02*
X62993D01*
X62189Y29223D01*
X61469Y28807D01*
X60881Y28219D01*
X60465Y27499D01*
X60250Y26695D01*
Y25864D01*
X60465Y25060D01*
X60881Y24340D01*
X61469Y23752D01*
X62189Y23336D01*
X62993Y23121D01*
X63824D01*
X64628Y23336D01*
X65348Y23752D01*
X65936Y24340D01*
X66352Y25060D01*
X66568Y25864D01*
Y26695D01*
X66352Y27499D01*
X65936Y28219D01*
X65348Y28807D01*
X64628Y29223D01*
X63824Y29439D01*
D02*
G37*
G36*
X13825D02*
X12993D01*
X12189Y29223D01*
X11469Y28807D01*
X10881Y28219D01*
X10465Y27499D01*
X10250Y26695D01*
Y25864D01*
X10465Y25060D01*
X10881Y24340D01*
X11469Y23752D01*
X12189Y23336D01*
X12993Y23121D01*
X13825D01*
X14628Y23336D01*
X15348Y23752D01*
X15936Y24340D01*
X16352Y25060D01*
X16568Y25864D01*
Y26695D01*
X16352Y27499D01*
X15936Y28219D01*
X15348Y28807D01*
X14628Y29223D01*
X13825Y29439D01*
D02*
G37*
%LPD*%
D13*
X40276Y158150D02*
Y162736D01*
X45158Y167618D01*
X35276Y158150D02*
Y162835D01*
X41732Y169291D02*
X77169D01*
X35276Y162835D02*
X41732Y169291D01*
X117316Y115558D02*
X119088D01*
X139781Y94865D01*
X173071D01*
X117028Y115847D02*
X117316Y115558D01*
X207382Y99213D02*
X209449Y101279D01*
X210728Y97539D02*
X214469Y101279D01*
X111024Y126280D02*
X139764Y97539D01*
X112697Y126973D02*
X140457Y99213D01*
X139764Y97539D02*
X210728D01*
X140457Y99213D02*
X207382D01*
X184350Y83563D02*
X295900D01*
X133058Y81539D02*
X152777D01*
X155096Y83858D01*
X164479Y79939D02*
X167514Y82974D01*
X133015Y81496D02*
X133058Y81539D01*
X126333Y81496D02*
X133015D01*
X111614Y64272D02*
X127239Y79896D01*
X167514Y82974D02*
Y82974D01*
X110880Y66043D02*
X126333Y81496D01*
X133678Y79896D02*
X133721Y79939D01*
X164479D01*
X127239Y79896D02*
X133678D01*
X223299Y32945D02*
Y43389D01*
X236012Y56102D01*
X237784Y57874D01*
X236012Y56102D02*
X236012Y56102D01*
X212620Y56102D02*
X236012D01*
X204350Y64372D02*
X212620Y56102D01*
X237202Y57874D02*
X237784D01*
X163189Y60138D02*
Y74153D01*
X169596Y80560D01*
X177281D01*
X184966Y81915D02*
X250959D01*
X179331Y76279D02*
X184966Y81915D01*
X174409Y73622D02*
X184350Y83563D01*
X179331Y73622D02*
Y76279D01*
X174409Y73622D02*
Y73622D01*
X148819Y33268D02*
Y45262D01*
X150461Y46904D02*
Y47486D01*
X148819Y45262D02*
X150461Y46904D01*
X266535Y64075D02*
X284887D01*
X265842Y62402D02*
X285476D01*
X284887Y64075D02*
X306961Y86149D01*
X285476Y62402D02*
X321057Y97982D01*
Y98321D01*
X306961Y86149D02*
Y86493D01*
X321057Y98321D02*
X340453Y117717D01*
X306961Y86493D02*
X329035Y108567D01*
X214340Y71961D02*
X222695Y80315D01*
X329035Y108567D02*
Y115945D01*
X223031Y33212D02*
X223299Y32945D01*
X223284Y78642D02*
X249602D01*
X219678Y72298D02*
Y75036D01*
X219340Y71961D02*
X219678Y72298D01*
X222695Y80315D02*
X250295D01*
X219678Y75036D02*
X223284Y78642D01*
X250295Y80315D02*
X266535Y64075D01*
X249602Y78642D02*
X265842Y62402D01*
X250959Y81915D02*
X267126Y65748D01*
X269153D02*
X272402Y68996D01*
X267126Y65748D02*
X269153D01*
X45158Y167618D02*
X76476D01*
X77169Y169291D02*
X112697Y133764D01*
X76476Y167618D02*
X111024Y133071D01*
Y126280D02*
Y133071D01*
X112697Y126973D02*
Y133764D01*
X95236Y68996D02*
X98189Y66043D01*
X110880D01*
X49134Y64272D02*
X111614D01*
X44410Y68996D02*
X49134Y64272D01*
X23409Y68996D02*
X44410D01*
D37*
X170984Y152539D02*
D03*
X222716Y152539D02*
D03*
D39*
X146653Y13484D02*
Y13910D01*
X145669Y14895D02*
X146653Y13910D01*
X188919Y43169D02*
X189993Y44243D01*
X165846Y56398D02*
X179075Y43169D01*
X189993Y44243D02*
X190419D01*
X179075Y43169D02*
X188919D01*
X195223Y38583D02*
X196457Y39817D01*
X178325Y40843D02*
X191573D01*
X177461Y38583D02*
X195223D01*
X164075Y51968D02*
X177461Y38583D01*
X191973Y41244D02*
X192982D01*
X196457Y39817D02*
Y44015D01*
X164946Y54223D02*
X178325Y40843D01*
X191573D02*
X191973Y41244D01*
X192982D02*
X193283Y41545D01*
X145669Y25689D02*
Y45715D01*
X142377Y49006D02*
X145669Y45715D01*
X120276Y38976D02*
X133268Y51968D01*
X119291Y59153D02*
X122047Y56398D01*
X119291Y43406D02*
X130109Y54223D01*
X164946D01*
X122047Y56398D02*
X165846D01*
X133268Y51968D02*
X164075D01*
X203113Y5217D02*
X203277D01*
X201637Y3740D02*
X203113Y5217D01*
X145669Y14895D02*
Y25689D01*
X171592Y3740D02*
X201637D01*
X170669Y4663D02*
X171592Y3740D01*
X170669Y4663D02*
Y8661D01*
X115748Y38976D02*
X120276D01*
X113988Y40736D02*
X115748Y38976D01*
X113386Y43406D02*
X113988Y42803D01*
Y40736D02*
Y42803D01*
D41*
X199167Y6791D02*
X199803D01*
X182087Y6004D02*
X198380D01*
X179232Y8858D02*
X182087Y6004D01*
X198380D02*
X199167Y6791D01*
X175295Y28150D02*
X179232Y24213D01*
Y8858D02*
Y24213D01*
X148130Y28150D02*
X175295D01*
X145669Y25689D02*
X148130Y28150D01*
D43*
X35276Y153150D02*
D03*
D44*
Y158150D02*
D03*
X40276Y153150D02*
D03*
Y158150D02*
D03*
X45276Y153150D02*
D03*
Y158150D02*
D03*
X50276Y153150D02*
D03*
Y158150D02*
D03*
X55276Y153150D02*
D03*
Y158150D02*
D03*
D45*
X53409Y68996D02*
D03*
X23409D02*
D03*
X63409Y26280D02*
D03*
X13409D02*
D03*
X63409Y76279D02*
D03*
X13409D02*
D03*
X85236D02*
D03*
X135236D02*
D03*
X85236Y26280D02*
D03*
X135236D02*
D03*
X95236Y68996D02*
D03*
X125236D02*
D03*
X331828Y76479D02*
D03*
X381828D02*
D03*
X331828Y26479D02*
D03*
X381828D02*
D03*
X341828Y69195D02*
D03*
X371828D02*
D03*
X262402Y76279D02*
D03*
X312402D02*
D03*
X262402Y26280D02*
D03*
X312402D02*
D03*
X272402Y68996D02*
D03*
X302402D02*
D03*
D46*
X41558Y59153D02*
D03*
X47464Y43406D02*
D03*
X41558D02*
D03*
X47464Y59153D02*
D03*
X119291D02*
D03*
Y43406D02*
D03*
X113386D02*
D03*
Y59153D02*
D03*
X365883Y59353D02*
D03*
Y43605D02*
D03*
X359978D02*
D03*
Y59353D02*
D03*
X296457Y59153D02*
D03*
Y43406D02*
D03*
X290551D02*
D03*
Y59153D02*
D03*
D47*
X189764Y54331D02*
D03*
X194095D02*
D03*
D48*
X211139Y93933D02*
D03*
X185387Y93958D02*
D03*
X173071Y94865D02*
D03*
X9209Y54429D02*
D03*
X252737Y126010D02*
D03*
X279409Y77113D02*
D03*
X295900Y83563D02*
D03*
X201299Y54092D02*
D03*
X183445Y52618D02*
D03*
X278898Y100853D02*
D03*
X255870Y96198D02*
D03*
X155096Y83858D02*
D03*
X215347Y78129D02*
D03*
X174595Y83363D02*
D03*
X166535Y103150D02*
D03*
X125591Y118504D02*
D03*
X293504Y156299D02*
D03*
X197989Y28342D02*
D03*
X199063Y18893D02*
D03*
X169142Y32835D02*
D03*
X150638Y22345D02*
D03*
X164813Y9453D02*
D03*
X157725Y9100D02*
D03*
X187252Y24011D02*
D03*
X194339Y26767D02*
D03*
X184449Y19981D02*
D03*
X237784Y57874D02*
D03*
X262402Y36516D02*
D03*
X233465Y73327D02*
D03*
X179331Y73622D02*
D03*
X177281Y80560D02*
D03*
X167514Y82974D02*
D03*
X204350Y64372D02*
D03*
X174409Y73622D02*
D03*
X170984Y141339D02*
D03*
X159252Y150394D02*
D03*
X160039Y155217D02*
D03*
X175984Y175197D02*
D03*
X198327Y156028D02*
D03*
X202354Y167811D02*
D03*
X192027Y167642D02*
D03*
X150000Y74592D02*
D03*
X194437Y112167D02*
D03*
X207283Y119095D02*
D03*
X203248Y124138D02*
D03*
X202756Y128609D02*
D03*
X207087Y113878D02*
D03*
X196063Y117028D02*
D03*
X192913Y122146D02*
D03*
X192126Y127657D02*
D03*
X146653Y13484D02*
D03*
X187303Y74606D02*
D03*
X198425Y78740D02*
D03*
X190419Y44243D02*
D03*
X163189Y60138D02*
D03*
X189676Y77495D02*
D03*
X193071Y75492D02*
D03*
X150461Y47486D02*
D03*
X170430Y106988D02*
D03*
X345036Y94488D02*
D03*
X348232Y57956D02*
D03*
X323149Y59842D02*
D03*
X310549Y59252D02*
D03*
X302615Y99213D02*
D03*
X269685Y95669D02*
D03*
X238976Y95276D02*
D03*
X294446Y33957D02*
D03*
X248087Y28937D02*
D03*
X284252Y24803D02*
D03*
X274374Y34021D02*
D03*
X142651Y106569D02*
D03*
X118461Y98327D02*
D03*
X90491Y102518D02*
D03*
X73481Y112697D02*
D03*
X353501Y159547D02*
D03*
X283858Y183858D02*
D03*
X246519Y169327D02*
D03*
X276772Y157874D02*
D03*
X284252Y150000D02*
D03*
X309813Y121793D02*
D03*
X296611Y112303D02*
D03*
X277123Y120965D02*
D03*
X257665Y114569D02*
D03*
X259997Y122146D02*
D03*
X252756Y110630D02*
D03*
X247595Y115256D02*
D03*
X227812Y117421D02*
D03*
X237795Y114961D02*
D03*
X219403Y114341D02*
D03*
X215784Y122441D02*
D03*
X208028Y124213D02*
D03*
X386221Y158268D02*
D03*
X386614Y121260D02*
D03*
X386965Y87303D02*
D03*
X383465Y51968D02*
D03*
X382144Y7144D02*
D03*
X341887Y6988D02*
D03*
X311417Y6299D02*
D03*
X273481Y6201D02*
D03*
X237457Y6299D02*
D03*
X137064Y7283D02*
D03*
X99213Y7087D02*
D03*
X64173Y7480D02*
D03*
X31453Y7382D02*
D03*
X9209Y13386D02*
D03*
X9013Y97146D02*
D03*
X8324Y140847D02*
D03*
X386670Y187894D02*
D03*
X341198Y189075D02*
D03*
X298383Y189370D02*
D03*
X249564Y189469D02*
D03*
X201926Y189567D02*
D03*
X164820Y189764D02*
D03*
X127910D02*
D03*
X89524D02*
D03*
X46850Y190945D02*
D03*
X7831Y189961D02*
D03*
X214340Y71961D02*
D03*
X142377Y49006D02*
D03*
X186618Y122663D02*
D03*
X186713Y128609D02*
D03*
X170094Y134606D02*
D03*
X129921Y137402D02*
D03*
X130503Y129981D02*
D03*
X146085Y130875D02*
D03*
X139370Y130709D02*
D03*
X142520Y114567D02*
D03*
X156890Y73646D02*
D03*
X154975Y62766D02*
D03*
X181299Y59768D02*
D03*
X206693Y74311D02*
D03*
X203071Y75492D02*
D03*
X226969Y12622D02*
D03*
X218504Y7406D02*
D03*
X214272Y7427D02*
D03*
X215354Y11417D02*
D03*
X227658Y18528D02*
D03*
X217815Y33193D02*
D03*
X224803Y26772D02*
D03*
X219291Y29528D02*
D03*
X227461Y22760D02*
D03*
X203277Y5217D02*
D03*
X193283Y41545D02*
D03*
X196457Y44015D02*
D03*
X120141Y152788D02*
D03*
X120866Y139567D02*
D03*
X109350Y146752D02*
D03*
X98817Y153662D02*
D03*
X92816Y163508D02*
D03*
X98176Y133212D02*
D03*
X88155Y141776D02*
D03*
X90453Y130217D02*
D03*
X80814Y140786D02*
D03*
X78892Y129833D02*
D03*
X67006Y140087D02*
D03*
X59782Y133969D02*
D03*
X51509Y141718D02*
D03*
X43799Y142224D02*
D03*
X223862Y161417D02*
D03*
X236221D02*
D03*
X230806Y165354D02*
D03*
X222716Y169291D02*
D03*
X147244Y173622D02*
D03*
X151730Y155417D02*
D03*
X150379Y141732D02*
D03*
X160827Y134055D02*
D03*
X159702Y141732D02*
D03*
X189567Y19981D02*
D03*
X184449Y28346D02*
D03*
X193898Y22441D02*
D03*
X208366Y19200D02*
D03*
X202362Y20472D02*
D03*
X203150Y27559D02*
D03*
X207874Y27165D02*
D03*
X199016Y24016D02*
D03*
X189370Y28346D02*
D03*
X251969Y55118D02*
D03*
X237784Y47155D02*
D03*
X244094Y55118D02*
D03*
X248031Y62797D02*
D03*
X244094Y70866D02*
D03*
X214340Y61789D02*
D03*
X221939D02*
D03*
X223622Y66142D02*
D03*
X199803Y6791D02*
D03*
X340453Y117717D02*
D03*
X329035Y115945D02*
D03*
X223299Y32945D02*
D03*
X232776Y148819D02*
D03*
X232972Y154134D02*
D03*
X219340Y71961D02*
D03*
X148819Y33268D02*
D03*
X170669Y8661D02*
D03*
X214469Y101279D02*
D03*
X209449D02*
D03*
X117028Y115847D02*
D03*
M02*
