G04*
G04 #@! TF.GenerationSoftware,Altium Limited,Altium Designer,21.2.1 (34)*
G04*
G04 Layer_Physical_Order=2*
G04 Layer_Color=16711680*
%FSLAX25Y25*%
%MOIN*%
G70*
G04*
G04 #@! TF.SameCoordinates,376BEF27-1B36-4492-BBE4-843C7A460007*
G04*
G04*
G04 #@! TF.FilePolarity,Positive*
G04*
G01*
G75*
%ADD13C,0.01000*%
%ADD38C,0.13780*%
%ADD43C,0.05118*%
%ADD44C,0.04724*%
%ADD45C,0.03583*%
%ADD46C,0.06496*%
%ADD47R,0.06496X0.06496*%
%ADD48C,0.03150*%
D13*
X220669Y75295D02*
X245472D01*
X217520Y76968D02*
X245472D01*
X214340Y73789D02*
X217520Y76968D01*
X219752Y74378D02*
X220669Y75295D01*
X219340Y71862D02*
X219752Y72273D01*
Y74378D01*
X214340Y71862D02*
Y73789D01*
X250984Y81791D02*
X263878Y68898D01*
X184941Y81791D02*
X250984D01*
X263878Y68898D02*
X272402D01*
X179331Y73524D02*
Y76181D01*
X184941Y81791D01*
X174409Y73524D02*
Y73524D01*
X184350Y83465D01*
X336554D01*
X341828Y78190D01*
X29055Y161417D02*
X36831Y169193D01*
X39055Y161417D02*
X45158Y167520D01*
X36831Y169193D02*
X77169D01*
X45158Y167520D02*
X76476D01*
X77169Y169193D02*
X112697Y133666D01*
X76476Y167520D02*
X111024Y132973D01*
Y126181D02*
Y132973D01*
X112697Y126874D02*
Y133666D01*
Y126874D02*
X141146Y98425D01*
X111024Y126181D02*
X140453Y96752D01*
X141146Y98425D02*
X206693D01*
X140453Y96752D02*
X210039D01*
X214469Y101181D01*
X206693Y98425D02*
X209449Y101181D01*
X111614Y64173D02*
X127435Y79994D01*
X151009D02*
X153347Y77658D01*
X127435Y79994D02*
X151009D01*
X110880Y65945D02*
X126530Y81595D01*
X158563D01*
X341828Y69097D02*
Y78190D01*
X169291Y80807D02*
Y80905D01*
X166142Y77658D02*
X169291Y80807D01*
X153347Y77658D02*
X166142D01*
X95236Y68898D02*
X98189Y65945D01*
X110880D01*
X49134Y64173D02*
X111614D01*
X44410Y68898D02*
X49134Y64173D01*
X23409Y68898D02*
X44410D01*
X117028Y115748D02*
X138878Y93898D01*
X173071D01*
D38*
X170984Y152441D02*
D03*
X222716Y152441D02*
D03*
D43*
X13409Y76181D02*
D03*
X63409D02*
D03*
X13409Y26181D02*
D03*
X63409D02*
D03*
X23409Y68898D02*
D03*
X53409D02*
D03*
X331828Y76380D02*
D03*
X381828D02*
D03*
X331828Y26381D02*
D03*
X381828D02*
D03*
X341828Y69097D02*
D03*
X371828D02*
D03*
X302402Y68898D02*
D03*
X272402D02*
D03*
X312402Y26181D02*
D03*
X262402D02*
D03*
X312402Y76181D02*
D03*
X262402D02*
D03*
X125236Y68898D02*
D03*
X95236D02*
D03*
X135236Y26181D02*
D03*
X85236D02*
D03*
X135236Y76181D02*
D03*
X85236D02*
D03*
D44*
X47464Y59055D02*
D03*
Y43307D02*
D03*
X41558D02*
D03*
Y59055D02*
D03*
X365883Y59254D02*
D03*
Y43507D02*
D03*
X359978D02*
D03*
Y59254D02*
D03*
X290551Y59055D02*
D03*
Y43307D02*
D03*
X296457D02*
D03*
Y59055D02*
D03*
X113386D02*
D03*
Y43307D02*
D03*
X119291D02*
D03*
Y59055D02*
D03*
D45*
X189764Y53248D02*
D03*
X194095D02*
D03*
D46*
X69055Y161417D02*
D03*
X59055D02*
D03*
X69055Y151417D02*
D03*
X59055D02*
D03*
X49055Y161417D02*
D03*
Y151417D02*
D03*
X29055Y161417D02*
D03*
X39055Y151417D02*
D03*
Y161417D02*
D03*
D47*
X29055Y151417D02*
D03*
D48*
X219340Y71862D02*
D03*
X214340D02*
D03*
X214469Y101181D02*
D03*
X209449D02*
D03*
X179331Y73524D02*
D03*
X174409D02*
D03*
X169291Y80905D02*
D03*
X158563Y81595D02*
D03*
X117028Y115748D02*
D03*
X173071Y93898D02*
D03*
M02*
