G04*
G04 #@! TF.GenerationSoftware,Altium Limited,Altium Designer,21.3.2 (30)*
G04*
G04 Layer_Color=32768*
%FSLAX25Y25*%
%MOIN*%
G70*
G04*
G04 #@! TF.SameCoordinates,75D106E2-5011-445C-8AED-ED28EDA0CE08*
G04*
G04*
G04 #@! TF.FilePolarity,Positive*
G04*
G01*
G75*
%ADD10C,0.00394*%
%ADD12C,0.00787*%
%ADD50C,0.00197*%
D10*
X28248Y166575D02*
X62303D01*
Y144724D02*
Y166575D01*
X28248Y144724D02*
X62303D01*
X28248D02*
Y166575D01*
X184264Y46831D02*
Y61831D01*
X199764D01*
Y46831D02*
Y61831D01*
X184264Y46831D02*
X199764D01*
X168898Y17520D02*
X172638D01*
X170768Y15650D02*
Y19390D01*
X351279Y127264D02*
X355020D01*
X353150Y125394D02*
Y129134D01*
X322146Y127264D02*
X325886D01*
X324016Y125394D02*
Y129134D01*
X293012Y127264D02*
X296752D01*
X294882Y125394D02*
Y129134D01*
X233760Y100591D02*
Y104331D01*
X231890Y102461D02*
X235630D01*
X227646Y65258D02*
X231386D01*
X229516Y63388D02*
Y67128D01*
X235914Y65258D02*
X239654D01*
X237784Y63388D02*
Y67128D01*
X112205Y145768D02*
X116142D01*
X114173Y143799D02*
Y147736D01*
D12*
X50418Y111000D02*
Y126008D01*
X42496Y111000D02*
X50418D01*
X42496D02*
Y126008D01*
X50418D01*
X289961Y135335D02*
X299803D01*
X289961D02*
Y139665D01*
X299803D01*
Y135335D02*
Y139665D01*
X157456Y11295D02*
X165378D01*
Y26303D01*
X157456D02*
X165378D01*
X157456Y11295D02*
Y26303D01*
X348228Y135335D02*
Y139665D01*
Y135335D02*
X358071D01*
Y139665D01*
X348228D02*
X358071D01*
X319094Y135335D02*
Y139665D01*
Y135335D02*
X328937D01*
Y139665D01*
X319094D02*
X328937D01*
X261787Y126059D02*
Y141067D01*
X269709D01*
Y126059D02*
Y141067D01*
X261787Y126059D02*
X269709D01*
X240134Y138657D02*
Y153666D01*
X248055D01*
Y138657D02*
Y153666D01*
X240134Y138657D02*
X248055D01*
X217889Y8539D02*
Y23548D01*
X225811D01*
Y8539D02*
Y23548D01*
X217889Y8539D02*
X225811D01*
X168126Y126107D02*
X183134D01*
Y118185D02*
Y126107D01*
X168126Y118185D02*
X183134D01*
X168126D02*
Y126107D01*
X161040Y118185D02*
Y126107D01*
X146032D02*
X161040D01*
X146032Y118185D02*
Y126107D01*
Y118185D02*
X161040D01*
X163701Y193405D02*
X230000D01*
X163701Y131752D02*
Y193405D01*
Y131752D02*
X230000D01*
Y193405D01*
D50*
X69390Y113189D02*
Y123819D01*
X55020D02*
X69390D01*
X55020Y113189D02*
Y123819D01*
Y113189D02*
X69390D01*
X38409Y49311D02*
Y53248D01*
X36440Y51279D02*
X40377D01*
X8094Y20965D02*
Y81595D01*
Y20965D02*
X68724D01*
Y81595D01*
X8094D02*
X68724D01*
X79921D02*
X140551D01*
Y20965D02*
Y81595D01*
X79921Y20965D02*
X140551D01*
X79921D02*
Y81595D01*
X108268Y51279D02*
X112205D01*
X110236Y49311D02*
Y53248D01*
X326513Y81794D02*
X387143D01*
Y21164D02*
Y81794D01*
X326513Y21164D02*
X387143D01*
X326513D02*
Y81794D01*
X354860Y51479D02*
X358797D01*
X356828Y49510D02*
Y53448D01*
X257087Y81595D02*
X317717D01*
Y20965D02*
Y81595D01*
X257087Y20965D02*
X317717D01*
X257087D02*
Y81595D01*
X285433Y51279D02*
X289370D01*
X287402Y49311D02*
Y53248D01*
X170276Y63386D02*
Y110039D01*
X223425D01*
Y63386D02*
Y110039D01*
X170276Y63386D02*
X223425D01*
X180315Y8330D02*
Y39235D01*
X213386D01*
Y8330D02*
Y39235D01*
X180315Y8330D02*
X213386D01*
X167815Y12402D02*
Y22638D01*
X173721Y12402D02*
Y22638D01*
X167815Y12402D02*
X173721D01*
X167815Y22638D02*
X173721D01*
X348031Y124311D02*
Y130217D01*
X358268Y124311D02*
Y130217D01*
X348031D02*
X358268D01*
X348031Y124311D02*
X358268D01*
X329134Y124311D02*
Y130217D01*
X318898Y124311D02*
Y130217D01*
Y124311D02*
X329134D01*
X318898Y130217D02*
X329134D01*
X300000Y124311D02*
Y130217D01*
X289764Y124311D02*
Y130217D01*
Y124311D02*
X300000D01*
X289764Y130217D02*
X300000D01*
X239764Y133071D02*
X256299D01*
Y119095D02*
Y133071D01*
X239764Y119095D02*
X256299D01*
X239764D02*
Y133071D01*
X228642Y99508D02*
X238878D01*
X228642Y105413D02*
X238878D01*
Y99508D02*
Y105413D01*
X228642Y99508D02*
Y105413D01*
X232469Y60140D02*
Y70376D01*
X226563Y60140D02*
Y70376D01*
X232469D01*
X226563Y60140D02*
X232469D01*
X240737D02*
Y70376D01*
X234831Y60140D02*
Y70376D01*
X240737D01*
X234831Y60140D02*
X240737D01*
X126181Y123327D02*
Y168209D01*
X102165Y123327D02*
Y168209D01*
Y123327D02*
X126181D01*
X102165Y168209D02*
X126181D01*
M02*
