G04*
G04 #@! TF.GenerationSoftware,Altium Limited,Altium Designer,22.3.1 (43)*
G04*
G04 Layer_Physical_Order=2*
G04 Layer_Color=16711680*
%FSLAX25Y25*%
%MOIN*%
G70*
G04*
G04 #@! TF.SameCoordinates,8ED6FF1A-C223-48F4-A418-E12A0B0AD757*
G04*
G04*
G04 #@! TF.FilePolarity,Positive*
G04*
G01*
G75*
%ADD13C,0.01000*%
%ADD38C,0.01575*%
%ADD40C,0.00800*%
%ADD41C,0.02362*%
%ADD44C,0.31496*%
%ADD45C,0.07087*%
%ADD46R,0.06496X0.06496*%
%ADD47C,0.06496*%
%ADD48R,0.04331X0.04331*%
%ADD49C,0.04331*%
%ADD50C,0.03150*%
G36*
X431284Y43503D02*
X245489Y43410D01*
X245348Y43752D01*
X244736Y44363D01*
X243936Y44695D01*
X243071D01*
X242272Y44363D01*
X241660Y43752D01*
X241518Y43408D01*
X240578Y43408D01*
X240281Y43813D01*
X240405Y44318D01*
X241017Y44930D01*
X241348Y45729D01*
Y46594D01*
X241017Y47393D01*
X240405Y48005D01*
X239606Y48336D01*
X238741D01*
X237941Y48005D01*
X237330Y47393D01*
X236998Y46594D01*
Y45729D01*
X237330Y44930D01*
X237744Y44515D01*
X237805Y43916D01*
X237780Y43843D01*
X237343Y43406D01*
X223292Y43399D01*
X219622Y47069D01*
Y63583D01*
X219544Y63973D01*
X219323Y64304D01*
X215386Y68241D01*
X215055Y68462D01*
X214665Y68539D01*
X193291D01*
X190322Y71508D01*
X190170Y71737D01*
X190364Y72205D01*
Y73070D01*
X190033Y73870D01*
X189421Y74481D01*
X189311Y74527D01*
Y84168D01*
X190213Y85070D01*
X190213Y85070D01*
X190456Y85434D01*
X190541Y85863D01*
X190541Y85863D01*
Y86335D01*
X191063Y86552D01*
X191675Y87163D01*
X192006Y87963D01*
Y88828D01*
X191675Y89627D01*
X191063Y90239D01*
X190263Y90570D01*
X189398D01*
X188599Y90239D01*
X188517Y90158D01*
X183366D01*
X183366Y90158D01*
X182912Y90267D01*
X182180Y90570D01*
X181315D01*
X180516Y90239D01*
X179904Y89627D01*
X179573Y88828D01*
Y87963D01*
X179904Y87163D01*
X180516Y86552D01*
X181315Y86221D01*
X181903D01*
X183625Y84499D01*
Y65059D01*
Y54265D01*
X183732Y53723D01*
X183916Y53449D01*
X183849Y53287D01*
Y52422D01*
X184180Y51622D01*
X184792Y51011D01*
X185591Y50679D01*
X186456D01*
X187256Y51011D01*
X187867Y51622D01*
X188198Y52422D01*
Y53287D01*
X187867Y54086D01*
X187256Y54698D01*
X186456Y55029D01*
X186454D01*
Y65032D01*
X187922Y66500D01*
X214243D01*
X217583Y63160D01*
Y46647D01*
X217660Y46257D01*
X217881Y45926D01*
X219948Y43860D01*
X219757Y43398D01*
X211808Y43394D01*
X211454Y43747D01*
Y46370D01*
X211883Y46800D01*
X212214Y47599D01*
Y48464D01*
X211883Y49263D01*
X211271Y49875D01*
X210472Y50206D01*
X209607D01*
X208807Y49875D01*
X208196Y49263D01*
X207865Y48464D01*
Y47599D01*
X208196Y46800D01*
X208625Y46370D01*
Y43392D01*
X37440Y43307D01*
X37087Y43661D01*
Y227502D01*
X43847Y234262D01*
X431284D01*
Y43503D01*
D02*
G37*
%LPC*%
G36*
X257313Y207155D02*
X249617D01*
Y199459D01*
X257313D01*
Y207155D01*
D02*
G37*
G36*
X243971D02*
X242958D01*
X241979Y206893D01*
X241102Y206386D01*
X240385Y205670D01*
X239879Y204792D01*
X239616Y203814D01*
Y202800D01*
X239879Y201822D01*
X240385Y200944D01*
X241102Y200228D01*
X241979Y199721D01*
X242958Y199459D01*
X243971D01*
X244950Y199721D01*
X245827Y200228D01*
X246544Y200944D01*
X247050Y201822D01*
X247313Y202800D01*
Y203814D01*
X247050Y204792D01*
X246544Y205670D01*
X245827Y206386D01*
X244950Y206893D01*
X243971Y207155D01*
D02*
G37*
G36*
X233971D02*
X232958D01*
X231979Y206893D01*
X231102Y206386D01*
X230385Y205670D01*
X229879Y204792D01*
X229616Y203814D01*
Y202800D01*
X229879Y201822D01*
X230385Y200944D01*
X231102Y200228D01*
X231979Y199721D01*
X232958Y199459D01*
X233971D01*
X234950Y199721D01*
X235827Y200228D01*
X236544Y200944D01*
X237050Y201822D01*
X237313Y202800D01*
Y203814D01*
X237050Y204792D01*
X236544Y205670D01*
X235827Y206386D01*
X234950Y206893D01*
X233971Y207155D01*
D02*
G37*
G36*
X223971D02*
X222958D01*
X221979Y206893D01*
X221102Y206386D01*
X220385Y205670D01*
X219879Y204792D01*
X219617Y203814D01*
Y202800D01*
X219879Y201822D01*
X220385Y200944D01*
X221102Y200228D01*
X221979Y199721D01*
X222958Y199459D01*
X223971D01*
X224950Y199721D01*
X225827Y200228D01*
X226544Y200944D01*
X227050Y201822D01*
X227313Y202800D01*
Y203814D01*
X227050Y204792D01*
X226544Y205670D01*
X225827Y206386D01*
X224950Y206893D01*
X223971Y207155D01*
D02*
G37*
G36*
X213971D02*
X212958D01*
X211979Y206893D01*
X211102Y206386D01*
X210385Y205670D01*
X209879Y204792D01*
X209616Y203814D01*
Y202800D01*
X209879Y201822D01*
X210385Y200944D01*
X211102Y200228D01*
X211979Y199721D01*
X212958Y199459D01*
X213971D01*
X214950Y199721D01*
X215827Y200228D01*
X216544Y200944D01*
X217050Y201822D01*
X217313Y202800D01*
Y203814D01*
X217050Y204792D01*
X216544Y205670D01*
X215827Y206386D01*
X214950Y206893D01*
X213971Y207155D01*
D02*
G37*
G36*
X253971Y197155D02*
X252958D01*
X251979Y196893D01*
X251102Y196386D01*
X250385Y195670D01*
X249879Y194792D01*
X249617Y193814D01*
Y192800D01*
X249879Y191822D01*
X250385Y190944D01*
X251102Y190228D01*
X251979Y189721D01*
X252958Y189459D01*
X253971D01*
X254950Y189721D01*
X255827Y190228D01*
X256544Y190944D01*
X257050Y191822D01*
X257313Y192800D01*
Y193814D01*
X257050Y194792D01*
X256544Y195670D01*
X255827Y196386D01*
X254950Y196893D01*
X253971Y197155D01*
D02*
G37*
G36*
X243971D02*
X242958D01*
X241979Y196893D01*
X241102Y196386D01*
X240385Y195670D01*
X239879Y194792D01*
X239616Y193814D01*
Y192800D01*
X239879Y191822D01*
X240385Y190944D01*
X241102Y190228D01*
X241979Y189721D01*
X242958Y189459D01*
X243971D01*
X244950Y189721D01*
X245827Y190228D01*
X246544Y190944D01*
X247050Y191822D01*
X247313Y192800D01*
Y193814D01*
X247050Y194792D01*
X246544Y195670D01*
X245827Y196386D01*
X244950Y196893D01*
X243971Y197155D01*
D02*
G37*
G36*
X233971D02*
X232958D01*
X231979Y196893D01*
X231102Y196386D01*
X230385Y195670D01*
X229879Y194792D01*
X229616Y193814D01*
Y192800D01*
X229879Y191822D01*
X230385Y190944D01*
X231102Y190228D01*
X231979Y189721D01*
X232958Y189459D01*
X233971D01*
X234950Y189721D01*
X235827Y190228D01*
X236544Y190944D01*
X237050Y191822D01*
X237313Y192800D01*
Y193814D01*
X237050Y194792D01*
X236544Y195670D01*
X235827Y196386D01*
X234950Y196893D01*
X233971Y197155D01*
D02*
G37*
G36*
X223971D02*
X222958D01*
X221979Y196893D01*
X221102Y196386D01*
X220385Y195670D01*
X219879Y194792D01*
X219617Y193814D01*
Y192800D01*
X219879Y191822D01*
X220385Y190944D01*
X221102Y190228D01*
X221979Y189721D01*
X222958Y189459D01*
X223971D01*
X224950Y189721D01*
X225827Y190228D01*
X226544Y190944D01*
X227050Y191822D01*
X227313Y192800D01*
Y193814D01*
X227050Y194792D01*
X226544Y195670D01*
X225827Y196386D01*
X224950Y196893D01*
X223971Y197155D01*
D02*
G37*
G36*
X380255Y159261D02*
X379390D01*
X378591Y158930D01*
X377979Y158319D01*
X377933Y158208D01*
X377165D01*
X376736Y158123D01*
X376372Y157880D01*
X376372Y157880D01*
X370027Y151534D01*
X369527Y151742D01*
Y153426D01*
X369637Y153471D01*
X370249Y154083D01*
X370580Y154882D01*
Y155748D01*
X370249Y156547D01*
X369637Y157159D01*
X368838Y157490D01*
X367973D01*
X367174Y157159D01*
X366562Y156547D01*
X366231Y155748D01*
Y154882D01*
X366562Y154083D01*
X367174Y153471D01*
X367284Y153426D01*
Y151758D01*
X337906Y122381D01*
X337813Y122405D01*
X337444Y122626D01*
Y123366D01*
X337113Y124165D01*
X336502Y124777D01*
X335702Y125108D01*
X334837D01*
X334727Y125062D01*
X333799Y125990D01*
X333435Y126233D01*
X333006Y126318D01*
X333006Y126318D01*
X225984D01*
X225984Y126318D01*
X225555Y126233D01*
X225191Y125990D01*
X225191Y125990D01*
X219288Y120087D01*
X218826Y120278D01*
Y120363D01*
X218495Y121162D01*
X217883Y121774D01*
X217084Y122105D01*
X216219D01*
X215420Y121774D01*
X214808Y121162D01*
X214762Y121052D01*
X209244D01*
X208906Y121513D01*
X208903Y121536D01*
X209059Y121911D01*
Y122776D01*
X208728Y123576D01*
X208116Y124187D01*
X207317Y124519D01*
X206452D01*
X205652Y124187D01*
X205040Y123576D01*
X204709Y122776D01*
Y121911D01*
X204755Y121801D01*
X203786Y120832D01*
X135065D01*
X134635Y120746D01*
X134272Y120503D01*
X134272Y120503D01*
X121648Y107880D01*
X121405Y107516D01*
X121319Y107087D01*
X121319Y107087D01*
Y79913D01*
X119172Y77766D01*
X118985Y77826D01*
X118710Y78011D01*
Y78779D01*
X118379Y79578D01*
X118351Y79606D01*
Y109922D01*
X118379Y109949D01*
X118710Y110749D01*
Y111614D01*
X118379Y112413D01*
X117767Y113025D01*
X116968Y113356D01*
X116103D01*
X115304Y113025D01*
X114692Y112413D01*
X114361Y111614D01*
Y110749D01*
X114692Y109949D01*
X114719Y109922D01*
Y79606D01*
X114692Y79578D01*
X114361Y78779D01*
Y77914D01*
X114692Y77114D01*
X115304Y76503D01*
X116103Y76172D01*
X116871D01*
X117056Y75896D01*
X117116Y75710D01*
X113709Y72303D01*
X102847D01*
X102719Y72780D01*
X102174Y73725D01*
X101402Y74497D01*
X100458Y75042D01*
X99404Y75324D01*
X98313D01*
X97259Y75042D01*
X96314Y74497D01*
X95543Y73725D01*
X94997Y72780D01*
X94715Y71727D01*
Y70636D01*
X94997Y69582D01*
X95543Y68637D01*
X96314Y67866D01*
X97259Y67320D01*
X98313Y67038D01*
X99404D01*
X100458Y67320D01*
X101402Y67866D01*
X102174Y68637D01*
X102719Y69582D01*
X102847Y70060D01*
X114094D01*
X114134Y70067D01*
X114173Y70060D01*
X114602Y70145D01*
X114966Y70388D01*
X122914Y78336D01*
X123607Y78350D01*
X131569Y70388D01*
X131569Y70388D01*
X131933Y70145D01*
X132362Y70060D01*
X132362Y70060D01*
X158255D01*
X158383Y69582D01*
X158929Y68637D01*
X159700Y67866D01*
X160645Y67320D01*
X161699Y67038D01*
X162790D01*
X163843Y67320D01*
X164788Y67866D01*
X165560Y68637D01*
X166105Y69582D01*
X166387Y70636D01*
Y71727D01*
X166105Y72780D01*
X165560Y73725D01*
X164788Y74497D01*
X163843Y75042D01*
X162790Y75324D01*
X161699D01*
X160645Y75042D01*
X159700Y74497D01*
X158929Y73725D01*
X158383Y72780D01*
X158255Y72303D01*
X132827D01*
X125162Y79967D01*
Y105860D01*
X136291Y116989D01*
X180244D01*
X184485Y112748D01*
X184439Y112637D01*
Y111772D01*
X184771Y110973D01*
X185382Y110361D01*
X186182Y110030D01*
X187047D01*
X187846Y110361D01*
X188458Y110973D01*
X188789Y111772D01*
Y112637D01*
X188458Y113437D01*
X187846Y114048D01*
X187047Y114380D01*
X186182D01*
X186071Y114334D01*
X182278Y118127D01*
X182470Y118589D01*
X192371D01*
X193159Y117801D01*
X193206Y117848D01*
X204591D01*
X204798Y117348D01*
X201569Y114119D01*
X201326Y113755D01*
X201241Y113326D01*
X201241Y113326D01*
Y108582D01*
X201130Y108537D01*
X200518Y107925D01*
X200187Y107125D01*
Y106260D01*
X200518Y105461D01*
X201130Y104849D01*
X201930Y104518D01*
X202795D01*
X203594Y104849D01*
X204206Y105461D01*
X204537Y106260D01*
Y107125D01*
X204206Y107925D01*
X203594Y108537D01*
X203484Y108582D01*
Y112862D01*
X209431Y118809D01*
X214762D01*
X214808Y118699D01*
X215420Y118087D01*
X216219Y117756D01*
X216304D01*
X216495Y117294D01*
X214322Y115121D01*
X214212Y115167D01*
X213347D01*
X212548Y114836D01*
X211936Y114224D01*
X211605Y113425D01*
Y112559D01*
X211936Y111760D01*
X212548Y111148D01*
X213347Y110817D01*
X214212D01*
X215012Y111148D01*
X215623Y111760D01*
X215954Y112559D01*
Y113250D01*
X216026Y113299D01*
X216526Y113034D01*
Y112559D01*
X216857Y111760D01*
X217469Y111148D01*
X218268Y110817D01*
X219133D01*
X219933Y111148D01*
X220545Y111760D01*
X220876Y112559D01*
Y113425D01*
X220830Y113535D01*
X228614Y121319D01*
X289843D01*
X289889Y121209D01*
X290500Y120597D01*
X291300Y120266D01*
X292165D01*
X292964Y120597D01*
X293576Y121209D01*
X293907Y122008D01*
Y122874D01*
X293616Y123575D01*
X293827Y124075D01*
X332541D01*
X333140Y123476D01*
X333095Y123366D01*
Y122501D01*
X333426Y121701D01*
X334038Y121089D01*
X334837Y120758D01*
X335577D01*
X335798Y120389D01*
X335822Y120296D01*
X334364Y118838D01*
X260097D01*
X259667Y118753D01*
X259303Y118510D01*
X259303Y118510D01*
X254254Y113460D01*
X254143Y113505D01*
X253278D01*
X252479Y113174D01*
X251867Y112563D01*
X251536Y111763D01*
Y110898D01*
X251867Y110099D01*
X252479Y109487D01*
X253278Y109156D01*
X254143D01*
X254715Y109393D01*
X254796Y109252D01*
X257579D01*
Y109252D01*
X257758Y109371D01*
X258278Y109156D01*
X259143D01*
X259943Y109487D01*
X260554Y110099D01*
X260885Y110898D01*
Y111763D01*
X260840Y111874D01*
X263961Y114995D01*
X331645D01*
X331745Y114620D01*
X331746Y114495D01*
X330976Y113725D01*
X330430Y112780D01*
X330148Y111727D01*
Y110636D01*
X330430Y109582D01*
X330976Y108637D01*
X331747Y107866D01*
X332692Y107320D01*
X333746Y107038D01*
X334837D01*
X335891Y107320D01*
X336835Y107866D01*
X337607Y108637D01*
X338152Y109582D01*
X338435Y110636D01*
Y111727D01*
X338152Y112780D01*
X337607Y113725D01*
X336835Y114497D01*
X336686Y114583D01*
X336662Y114780D01*
X336717Y115142D01*
X336988Y115323D01*
X377471Y155807D01*
X377591Y155818D01*
X378053Y155780D01*
X378591Y155243D01*
X379390Y154912D01*
X380255D01*
X381055Y155243D01*
X381667Y155855D01*
X381998Y156654D01*
Y157519D01*
X381667Y158319D01*
X381055Y158930D01*
X380255Y159261D01*
D02*
G37*
G36*
X116540Y209783D02*
X116540Y209783D01*
X81102D01*
X80673Y209698D01*
X80309Y209454D01*
X80309Y209454D01*
X73853Y202998D01*
X73610Y202634D01*
X73524Y202205D01*
X73524Y202205D01*
Y200065D01*
X72948Y199732D01*
X72433Y199218D01*
X72069Y198587D01*
X71880Y197884D01*
Y197156D01*
X72069Y196452D01*
X72433Y195822D01*
X72470Y195785D01*
X72262Y195285D01*
X71880D01*
Y189754D01*
X77411D01*
Y194811D01*
X77411Y195136D01*
X77870Y195385D01*
X77948Y195307D01*
X78578Y194943D01*
X79282Y194754D01*
X80010D01*
X80713Y194943D01*
X81344Y195307D01*
X81858Y195822D01*
X81896Y195886D01*
X82396D01*
X82433Y195822D01*
X82948Y195307D01*
X83578Y194943D01*
X84282Y194754D01*
X85010D01*
X85713Y194943D01*
X86344Y195307D01*
X86858Y195822D01*
X86896Y195886D01*
X87396D01*
X87433Y195822D01*
X87948Y195307D01*
X88012Y195270D01*
Y194770D01*
X87948Y194732D01*
X87433Y194218D01*
X87069Y193587D01*
X86880Y192884D01*
Y192156D01*
X87069Y191452D01*
X87433Y190822D01*
X87948Y190307D01*
X88578Y189943D01*
X89282Y189754D01*
X90010D01*
X90713Y189943D01*
X91344Y190307D01*
X91859Y190822D01*
X91896Y190886D01*
X92396D01*
X92433Y190822D01*
X92948Y190307D01*
X93578Y189943D01*
X94282Y189754D01*
X95010D01*
X95713Y189943D01*
X96344Y190307D01*
X96859Y190822D01*
X97223Y191452D01*
X97411Y192156D01*
Y192884D01*
X97223Y193587D01*
X96859Y194218D01*
X96344Y194732D01*
X96279Y194770D01*
Y195270D01*
X96344Y195307D01*
X96859Y195822D01*
X97223Y196452D01*
X97411Y197156D01*
Y197884D01*
X97223Y198587D01*
X96859Y199218D01*
X96344Y199732D01*
X95713Y200097D01*
X95010Y200285D01*
X94282D01*
X93578Y200097D01*
X92948Y199732D01*
X92433Y199218D01*
X92396Y199153D01*
X91896D01*
X91859Y199218D01*
X91344Y199732D01*
X90713Y200097D01*
X90010Y200285D01*
X89282D01*
X88578Y200097D01*
X87948Y199732D01*
X87433Y199218D01*
X87396Y199153D01*
X86896D01*
X86858Y199218D01*
X86344Y199732D01*
X85713Y200097D01*
X85010Y200285D01*
X84282D01*
X83578Y200097D01*
X82948Y199732D01*
X82433Y199218D01*
X82396Y199153D01*
X81896D01*
X81858Y199218D01*
X81344Y199732D01*
X80767Y200065D01*
Y201642D01*
X84992Y205867D01*
X115382D01*
X149272Y171976D01*
Y165650D01*
X149272Y165650D01*
X149357Y165220D01*
X149601Y164857D01*
X156566Y157891D01*
X156359Y157391D01*
X155965D01*
X155166Y157060D01*
X154554Y156448D01*
X154223Y155649D01*
Y154784D01*
X154554Y153985D01*
X155166Y153373D01*
X155965Y153042D01*
X156830D01*
X157630Y153373D01*
X158028Y153771D01*
X177160Y134640D01*
X177160Y134640D01*
X177524Y134397D01*
X177953Y134311D01*
X177953Y134311D01*
X210266D01*
Y133802D01*
X210597Y133003D01*
X211209Y132391D01*
X212008Y132060D01*
X212874D01*
X213673Y132391D01*
X214285Y133003D01*
X214616Y133802D01*
Y134667D01*
X214307Y135412D01*
X214493Y135912D01*
X250222D01*
X250222Y135912D01*
X250651Y135997D01*
X251015Y136240D01*
X253296Y138521D01*
X253406Y138475D01*
X254271D01*
X255070Y138806D01*
X255682Y139418D01*
X256013Y140217D01*
Y141082D01*
X255682Y141882D01*
X255070Y142493D01*
X254271Y142824D01*
X253406D01*
X252607Y142493D01*
X251995Y141882D01*
X251664Y141082D01*
Y140217D01*
X251710Y140107D01*
X251333Y139731D01*
X250909Y140014D01*
X250994Y140217D01*
Y141082D01*
X250663Y141882D01*
X250051Y142493D01*
X249252Y142824D01*
X248386D01*
X247587Y142493D01*
X246975Y141882D01*
X246644Y141082D01*
Y140376D01*
X246022Y139755D01*
X180241D01*
X153189Y166807D01*
Y173134D01*
X153189Y173134D01*
X153103Y173563D01*
X152860Y173927D01*
X152860Y173927D01*
X117333Y209454D01*
X116969Y209698D01*
X116540Y209783D01*
D02*
G37*
G36*
X405073Y115324D02*
X403982D01*
X402928Y115042D01*
X401983Y114497D01*
X401212Y113725D01*
X400667Y112780D01*
X400384Y111727D01*
Y110636D01*
X400667Y109582D01*
X401212Y108637D01*
X401983Y107866D01*
X402928Y107320D01*
X403982Y107038D01*
X405073D01*
X406127Y107320D01*
X407072Y107866D01*
X407843Y108637D01*
X408389Y109582D01*
X408671Y110636D01*
Y111727D01*
X408389Y112780D01*
X407843Y113725D01*
X407072Y114497D01*
X406127Y115042D01*
X405073Y115324D01*
D02*
G37*
G36*
X162790D02*
X161699D01*
X160645Y115042D01*
X159700Y114497D01*
X158929Y113725D01*
X158383Y112780D01*
X158101Y111727D01*
Y110636D01*
X158383Y109582D01*
X158929Y108637D01*
X159700Y107866D01*
X160645Y107320D01*
X161699Y107038D01*
X162790D01*
X163843Y107320D01*
X164788Y107866D01*
X165560Y108637D01*
X166105Y109582D01*
X166387Y110636D01*
Y111727D01*
X166105Y112780D01*
X165560Y113725D01*
X164788Y114497D01*
X163843Y115042D01*
X162790Y115324D01*
D02*
G37*
G36*
X99404D02*
X98313D01*
X97259Y115042D01*
X96314Y114497D01*
X95543Y113725D01*
X94997Y112780D01*
X94715Y111727D01*
Y110636D01*
X94997Y109582D01*
X95543Y108637D01*
X96314Y107866D01*
X97259Y107320D01*
X98313Y107038D01*
X99404D01*
X100458Y107320D01*
X101402Y107866D01*
X102174Y108637D01*
X102719Y109582D01*
X103002Y110636D01*
Y111727D01*
X102719Y112780D01*
X102174Y113725D01*
X101402Y114497D01*
X100458Y115042D01*
X99404Y115324D01*
D02*
G37*
G36*
X323231Y110986D02*
X322366D01*
X321567Y110655D01*
X320955Y110043D01*
X320624Y109244D01*
Y108378D01*
X320955Y107579D01*
X321567Y106967D01*
X322366Y106636D01*
X323048D01*
X323682Y106002D01*
Y102737D01*
X323182Y102671D01*
X323152Y102780D01*
X322607Y103725D01*
X321835Y104497D01*
X320891Y105042D01*
X319837Y105324D01*
X318746D01*
X317692Y105042D01*
X316747Y104497D01*
X315976Y103725D01*
X315430Y102780D01*
X315148Y101727D01*
Y100636D01*
X315430Y99582D01*
X315976Y98637D01*
X316747Y97866D01*
X317692Y97320D01*
X318746Y97038D01*
X319837D01*
X320891Y97320D01*
X321835Y97866D01*
X322607Y98637D01*
X323152Y99582D01*
X323182Y99691D01*
X323682Y99625D01*
Y82737D01*
X323182Y82671D01*
X323152Y82780D01*
X322607Y83725D01*
X321835Y84497D01*
X320891Y85042D01*
X319837Y85324D01*
X318746D01*
X317692Y85042D01*
X316747Y84497D01*
X315976Y83725D01*
X315430Y82780D01*
X315148Y81727D01*
Y80636D01*
X315430Y79582D01*
X315976Y78637D01*
X316747Y77866D01*
X317692Y77320D01*
X318746Y77038D01*
X319837D01*
X320891Y77320D01*
X321835Y77866D01*
X322607Y78637D01*
X323152Y79582D01*
X323182Y79691D01*
X323682Y79625D01*
Y73937D01*
X323682Y73937D01*
X323767Y73508D01*
X324010Y73144D01*
X326766Y70388D01*
X326766Y70388D01*
X327130Y70145D01*
X327559Y70060D01*
X327559Y70060D01*
X330302D01*
X330430Y69582D01*
X330976Y68637D01*
X331747Y67866D01*
X332692Y67320D01*
X333746Y67038D01*
X334837D01*
X335891Y67320D01*
X336835Y67866D01*
X337607Y68637D01*
X338152Y69582D01*
X338435Y70636D01*
Y71727D01*
X338152Y72780D01*
X337607Y73725D01*
X336835Y74497D01*
X335891Y75042D01*
X334837Y75324D01*
X333746D01*
X332692Y75042D01*
X331747Y74497D01*
X330976Y73725D01*
X330430Y72780D01*
X330302Y72303D01*
X328024D01*
X325925Y74402D01*
Y106467D01*
X325925Y106467D01*
X325839Y106896D01*
X325596Y107260D01*
X325596Y107260D01*
X324828Y108028D01*
X324973Y108378D01*
Y109244D01*
X324642Y110043D01*
X324031Y110655D01*
X323231Y110986D01*
D02*
G37*
G36*
X390073Y105324D02*
X388982D01*
X387928Y105042D01*
X386983Y104497D01*
X386212Y103725D01*
X385667Y102780D01*
X385384Y101727D01*
Y100636D01*
X385667Y99582D01*
X386212Y98637D01*
X386983Y97866D01*
X387928Y97320D01*
X388982Y97038D01*
X390073D01*
X391127Y97320D01*
X392072Y97866D01*
X392843Y98637D01*
X393389Y99582D01*
X393671Y100636D01*
Y101727D01*
X393389Y102780D01*
X392843Y103725D01*
X392072Y104497D01*
X391127Y105042D01*
X390073Y105324D01*
D02*
G37*
G36*
X380073D02*
X378982D01*
X377928Y105042D01*
X376983Y104497D01*
X376212Y103725D01*
X375667Y102780D01*
X375384Y101727D01*
Y100636D01*
X375667Y99582D01*
X376212Y98637D01*
X376983Y97866D01*
X377928Y97320D01*
X378982Y97038D01*
X380073D01*
X381127Y97320D01*
X382072Y97866D01*
X382843Y98637D01*
X383388Y99582D01*
X383671Y100636D01*
Y101727D01*
X383388Y102780D01*
X382843Y103725D01*
X382072Y104497D01*
X381127Y105042D01*
X380073Y105324D01*
D02*
G37*
G36*
X309837D02*
X308746D01*
X307692Y105042D01*
X306747Y104497D01*
X305976Y103725D01*
X305430Y102780D01*
X305148Y101727D01*
Y100636D01*
X305430Y99582D01*
X305976Y98637D01*
X306747Y97866D01*
X307692Y97320D01*
X308746Y97038D01*
X309837D01*
X310891Y97320D01*
X311835Y97866D01*
X312607Y98637D01*
X313152Y99582D01*
X313435Y100636D01*
Y101727D01*
X313152Y102780D01*
X312607Y103725D01*
X311835Y104497D01*
X310891Y105042D01*
X309837Y105324D01*
D02*
G37*
G36*
X84404D02*
X83313D01*
X82259Y105042D01*
X81314Y104497D01*
X80543Y103725D01*
X79997Y102780D01*
X79715Y101727D01*
Y100636D01*
X79997Y99582D01*
X80543Y98637D01*
X81314Y97866D01*
X82259Y97320D01*
X83313Y97038D01*
X84404D01*
X85457Y97320D01*
X86402Y97866D01*
X87174Y98637D01*
X87719Y99582D01*
X88002Y100636D01*
Y101727D01*
X87719Y102780D01*
X87174Y103725D01*
X86402Y104497D01*
X85457Y105042D01*
X84404Y105324D01*
D02*
G37*
G36*
X74404D02*
X73313D01*
X72259Y105042D01*
X71314Y104497D01*
X70543Y103725D01*
X69997Y102780D01*
X69715Y101727D01*
Y100636D01*
X69997Y99582D01*
X70543Y98637D01*
X71314Y97866D01*
X72259Y97320D01*
X73313Y97038D01*
X74404D01*
X75458Y97320D01*
X76402Y97866D01*
X77174Y98637D01*
X77719Y99582D01*
X78002Y100636D01*
Y101727D01*
X77719Y102780D01*
X77174Y103725D01*
X76402Y104497D01*
X75458Y105042D01*
X74404Y105324D01*
D02*
G37*
G36*
X244153Y105917D02*
X243288D01*
X242489Y105586D01*
X241877Y104974D01*
X241546Y104175D01*
Y103310D01*
X241877Y102510D01*
X242489Y101898D01*
X243288Y101567D01*
X244153D01*
X244264Y101613D01*
X251197Y94679D01*
X251197Y94679D01*
X251561Y94436D01*
X251990Y94351D01*
X272021D01*
X272213Y93889D01*
X261876Y83552D01*
X261633Y83189D01*
X261548Y82759D01*
X261548Y82759D01*
Y74204D01*
X261437Y74159D01*
X260825Y73547D01*
X260494Y72747D01*
Y71882D01*
X260825Y71083D01*
X261437Y70471D01*
X262237Y70140D01*
X263102D01*
X263901Y70471D01*
X264513Y71083D01*
X264844Y71882D01*
Y72747D01*
X264513Y73547D01*
X263901Y74159D01*
X263791Y74204D01*
Y82295D01*
X276175Y94679D01*
X276611Y95115D01*
X276721Y95069D01*
X277586D01*
X278386Y95400D01*
X278997Y96012D01*
X279329Y96811D01*
Y97677D01*
X278997Y98476D01*
X278386Y99088D01*
X277586Y99419D01*
X276721D01*
X275922Y99088D01*
X275310Y98476D01*
X274979Y97677D01*
Y96811D01*
X274528Y96594D01*
X252455D01*
X245850Y103199D01*
X245895Y103310D01*
Y104175D01*
X245564Y104974D01*
X244952Y105586D01*
X244153Y105917D01*
D02*
G37*
G36*
X153937Y110076D02*
X139764D01*
X139222Y109968D01*
X138763Y109662D01*
X136266Y107164D01*
X135960Y106705D01*
X135852Y106164D01*
Y105097D01*
X135645Y105042D01*
X134700Y104497D01*
X133929Y103725D01*
X133383Y102780D01*
X133101Y101727D01*
Y100636D01*
X133383Y99582D01*
X133929Y98637D01*
X134700Y97866D01*
X135645Y97320D01*
X136699Y97038D01*
X137790D01*
X138843Y97320D01*
X139788Y97866D01*
X140560Y98637D01*
X141105Y99582D01*
X141387Y100636D01*
Y101727D01*
X141105Y102780D01*
X140560Y103725D01*
X139788Y104497D01*
X138843Y105042D01*
X138681Y105086D01*
Y105578D01*
X140350Y107247D01*
X153351D01*
X165742Y94856D01*
X166200Y94550D01*
X166742Y94442D01*
X173088D01*
X173279Y93980D01*
X164400Y85101D01*
X157450D01*
X148659Y93893D01*
Y97271D01*
X148843Y97320D01*
X149788Y97866D01*
X150560Y98637D01*
X151105Y99582D01*
X151387Y100636D01*
Y101727D01*
X151105Y102780D01*
X150560Y103725D01*
X149788Y104497D01*
X148843Y105042D01*
X147790Y105324D01*
X146699D01*
X145645Y105042D01*
X144700Y104497D01*
X143929Y103725D01*
X143383Y102780D01*
X143101Y101727D01*
Y100636D01*
X143383Y99582D01*
X143929Y98637D01*
X144700Y97866D01*
X145645Y97320D01*
X145829Y97271D01*
Y93307D01*
X145937Y92766D01*
X146244Y92307D01*
X155864Y82686D01*
X156323Y82380D01*
X156865Y82272D01*
X164986D01*
X165527Y82380D01*
X165986Y82686D01*
X175567Y92267D01*
X200516D01*
X215830Y76952D01*
X216289Y76646D01*
X216831Y76538D01*
X234593D01*
X235134Y76646D01*
X235593Y76952D01*
X236827Y78187D01*
X237134Y78645D01*
X237241Y79187D01*
Y81724D01*
X237670Y82153D01*
X238002Y82952D01*
Y83818D01*
X237670Y84617D01*
X237059Y85229D01*
X236259Y85560D01*
X235394D01*
X234595Y85229D01*
X233983Y84617D01*
X233652Y83818D01*
Y83396D01*
X233152Y83062D01*
X233085Y83090D01*
X232426D01*
X232193Y83135D01*
X231964Y83525D01*
Y84046D01*
X231633Y84845D01*
X231021Y85457D01*
X230222Y85788D01*
X229357D01*
X228557Y85457D01*
X227945Y84845D01*
X227614Y84046D01*
Y83954D01*
X219228D01*
X204150Y99032D01*
X203691Y99338D01*
X203150Y99446D01*
X173814D01*
X170876Y102385D01*
Y102992D01*
X170545Y103791D01*
X169933Y104403D01*
X169133Y104734D01*
X168268D01*
X167469Y104403D01*
X166857Y103791D01*
X166526Y102992D01*
Y102127D01*
X166857Y101327D01*
X167469Y100715D01*
X168268Y100384D01*
X168875D01*
X171526Y97733D01*
X171335Y97271D01*
X167328D01*
X154937Y109662D01*
X154478Y109968D01*
X153937Y110076D01*
D02*
G37*
G36*
X390073Y85324D02*
X388982D01*
X387928Y85042D01*
X386983Y84497D01*
X386212Y83725D01*
X385667Y82780D01*
X385384Y81727D01*
Y80636D01*
X385667Y79582D01*
X386212Y78637D01*
X386983Y77866D01*
X387928Y77320D01*
X388982Y77038D01*
X390073D01*
X391127Y77320D01*
X392072Y77866D01*
X392843Y78637D01*
X393389Y79582D01*
X393671Y80636D01*
Y81727D01*
X393389Y82780D01*
X392843Y83725D01*
X392072Y84497D01*
X391127Y85042D01*
X390073Y85324D01*
D02*
G37*
G36*
X361599Y91767D02*
X360734D01*
X359935Y91436D01*
X359323Y90824D01*
X358992Y90025D01*
Y89160D01*
X359323Y88361D01*
X359935Y87749D01*
X360734Y87418D01*
X361599D01*
X362398Y87749D01*
X362828Y88178D01*
X370530D01*
X375762Y82946D01*
X375667Y82780D01*
X375384Y81727D01*
Y80636D01*
X375667Y79582D01*
X376212Y78637D01*
X376983Y77866D01*
X377928Y77320D01*
X378982Y77038D01*
X380073D01*
X381127Y77320D01*
X382072Y77866D01*
X382843Y78637D01*
X383388Y79582D01*
X383671Y80636D01*
Y81727D01*
X383388Y82780D01*
X382843Y83725D01*
X382072Y84497D01*
X381127Y85042D01*
X380073Y85324D01*
X378982D01*
X377928Y85042D01*
X377763Y84946D01*
X372116Y90593D01*
X371657Y90899D01*
X371116Y91007D01*
X362828D01*
X362398Y91436D01*
X361599Y91767D01*
D02*
G37*
G36*
X289803Y91151D02*
X288937D01*
X288138Y90820D01*
X287526Y90208D01*
X287195Y89409D01*
Y88544D01*
X287526Y87744D01*
X288138Y87133D01*
X288937Y86802D01*
X289803D01*
X290602Y87133D01*
X291031Y87562D01*
X300910D01*
X305526Y82946D01*
X305430Y82780D01*
X305148Y81727D01*
Y80636D01*
X305430Y79582D01*
X305976Y78637D01*
X306747Y77866D01*
X307692Y77320D01*
X308746Y77038D01*
X309837D01*
X310891Y77320D01*
X311835Y77866D01*
X312607Y78637D01*
X313152Y79582D01*
X313435Y80636D01*
Y81727D01*
X313152Y82780D01*
X312607Y83725D01*
X311835Y84497D01*
X310891Y85042D01*
X309837Y85324D01*
X308746D01*
X307692Y85042D01*
X307526Y84946D01*
X302496Y89977D01*
X302037Y90283D01*
X301496Y90391D01*
X291031D01*
X290602Y90820D01*
X289803Y91151D01*
D02*
G37*
G36*
X147790Y85324D02*
X146699D01*
X145645Y85042D01*
X144700Y84497D01*
X143929Y83725D01*
X143383Y82780D01*
X143101Y81727D01*
Y80636D01*
X143383Y79582D01*
X143929Y78637D01*
X144700Y77866D01*
X145645Y77320D01*
X146699Y77038D01*
X147790D01*
X148843Y77320D01*
X149788Y77866D01*
X150560Y78637D01*
X151105Y79582D01*
X151387Y80636D01*
Y81727D01*
X151105Y82780D01*
X150560Y83725D01*
X149788Y84497D01*
X148843Y85042D01*
X147790Y85324D01*
D02*
G37*
G36*
X141888Y94695D02*
X141023D01*
X140223Y94363D01*
X139611Y93752D01*
X139280Y92952D01*
Y92345D01*
X136244Y89309D01*
X135937Y88850D01*
X135829Y88309D01*
Y85092D01*
X135645Y85042D01*
X134700Y84497D01*
X133929Y83725D01*
X133383Y82780D01*
X133101Y81727D01*
Y80636D01*
X133383Y79582D01*
X133929Y78637D01*
X134700Y77866D01*
X135645Y77320D01*
X136699Y77038D01*
X137790D01*
X138843Y77320D01*
X139788Y77866D01*
X140560Y78637D01*
X141105Y79582D01*
X141387Y80636D01*
Y81727D01*
X141105Y82780D01*
X140560Y83725D01*
X139788Y84497D01*
X138843Y85042D01*
X138659Y85092D01*
Y87723D01*
X141281Y90345D01*
X141888D01*
X142687Y90676D01*
X143299Y91288D01*
X143630Y92087D01*
Y92952D01*
X143299Y93752D01*
X142687Y94363D01*
X141888Y94695D01*
D02*
G37*
G36*
X84404Y85324D02*
X83313D01*
X82259Y85042D01*
X81314Y84497D01*
X80543Y83725D01*
X79997Y82780D01*
X79715Y81727D01*
Y80636D01*
X79997Y79582D01*
X80543Y78637D01*
X81314Y77866D01*
X82259Y77320D01*
X83313Y77038D01*
X84404D01*
X85457Y77320D01*
X86402Y77866D01*
X87174Y78637D01*
X87719Y79582D01*
X88002Y80636D01*
Y81727D01*
X87719Y82780D01*
X87174Y83725D01*
X86402Y84497D01*
X85457Y85042D01*
X84404Y85324D01*
D02*
G37*
G36*
X74404D02*
X73313D01*
X72259Y85042D01*
X71314Y84497D01*
X70543Y83725D01*
X69997Y82780D01*
X69715Y81727D01*
Y80636D01*
X69997Y79582D01*
X70543Y78637D01*
X71314Y77866D01*
X72259Y77320D01*
X73313Y77038D01*
X74404D01*
X75458Y77320D01*
X76402Y77866D01*
X77174Y78637D01*
X77719Y79582D01*
X78002Y80636D01*
Y81727D01*
X77719Y82780D01*
X77174Y83725D01*
X76402Y84497D01*
X75458Y85042D01*
X74404Y85324D01*
D02*
G37*
G36*
X383424Y115861D02*
X382559D01*
X381759Y115530D01*
X381148Y114918D01*
X380817Y114119D01*
Y113254D01*
X381148Y112455D01*
X381759Y111843D01*
X382559Y111512D01*
X383424D01*
X383534Y111557D01*
X388247Y106845D01*
X388611Y106602D01*
X389040Y106516D01*
X389040Y106516D01*
X391568D01*
X395729Y102356D01*
Y78858D01*
X395729Y78858D01*
X395814Y78429D01*
X396057Y78065D01*
X400914Y73209D01*
X400667Y72780D01*
X400384Y71727D01*
Y70636D01*
X400667Y69582D01*
X401212Y68637D01*
X401983Y67866D01*
X402928Y67320D01*
X403982Y67038D01*
X405073D01*
X406127Y67320D01*
X407072Y67866D01*
X407843Y68637D01*
X408389Y69582D01*
X408671Y70636D01*
Y71727D01*
X408389Y72780D01*
X407843Y73725D01*
X407072Y74497D01*
X406127Y75042D01*
X405073Y75324D01*
X403982D01*
X402928Y75042D01*
X402500Y74795D01*
X397972Y79323D01*
Y102821D01*
X397887Y103250D01*
X397643Y103613D01*
X397643Y103613D01*
X392826Y108431D01*
X392462Y108674D01*
X392033Y108759D01*
X392033Y108759D01*
X389505D01*
X385120Y113144D01*
X385166Y113254D01*
Y114119D01*
X384835Y114918D01*
X384223Y115530D01*
X383424Y115861D01*
D02*
G37*
%LPD*%
D13*
X228150Y122441D02*
X291732D01*
X218701Y112992D02*
X228150Y122441D01*
X258711Y111331D02*
X263496Y116116D01*
X336195D01*
X334828Y117717D02*
X368406Y151294D01*
X260097Y117717D02*
X334828D01*
X336195Y116116D02*
X377165Y157087D01*
X253711Y111331D02*
X260097Y117717D01*
X333006Y125197D02*
X335269Y122933D01*
X225984Y125197D02*
X333006D01*
X213779Y112992D02*
X225984Y125197D01*
X377165Y157087D02*
X379823D01*
X368406Y151294D02*
Y155315D01*
X180709Y118110D02*
X186614Y112205D01*
X135827Y118110D02*
X180709D01*
X150394Y165650D02*
X179010Y137033D01*
X115847Y206988D02*
X150394Y172441D01*
Y165650D02*
Y172441D01*
X152067Y166343D02*
X179777Y138633D01*
X116540Y208661D02*
X152067Y173134D01*
Y166343D02*
Y173134D01*
X84528Y206988D02*
X115847D01*
X81102Y208661D02*
X116540D01*
X396850Y78858D02*
X404528Y71181D01*
X396850Y78858D02*
Y102821D01*
X392033Y107638D02*
X396850Y102821D01*
X389040Y107638D02*
X392033D01*
X382991Y113687D02*
X389040Y107638D01*
X327559Y71181D02*
X334291D01*
X324803Y73937D02*
X327559Y71181D01*
X324803Y73937D02*
Y106467D01*
X322799Y108472D02*
Y108811D01*
Y108472D02*
X324803Y106467D01*
X204251Y119710D02*
X206884Y122344D01*
X135065Y119710D02*
X204251D01*
X124041Y106324D02*
X135827Y118110D01*
X122441Y107087D02*
X135065Y119710D01*
X124041Y79502D02*
Y106324D01*
X122441Y79449D02*
Y107087D01*
X124041Y79502D02*
X132362Y71181D01*
X162244D01*
X179777Y138633D02*
X246487D01*
X211979Y134235D02*
X212441D01*
X177953Y135433D02*
X210780D01*
X211979Y134235D01*
X248504Y140650D02*
X248819D01*
X250222Y137033D02*
X253839Y140650D01*
X158458Y154928D02*
X177953Y135433D01*
X179010Y137033D02*
X250222D01*
X246487Y138633D02*
X248504Y140650D01*
X206884Y122344D02*
Y122344D01*
X114173Y71181D02*
X122441Y79449D01*
X98858Y71181D02*
X114094D01*
X189420Y87984D02*
X189831Y88395D01*
X189420Y85863D02*
Y87984D01*
X202362Y106693D02*
Y113326D01*
X208966Y119930D01*
X188189Y84632D02*
X189420Y85863D01*
X188189Y72638D02*
Y84632D01*
X79646Y197520D02*
Y202106D01*
X84528Y206988D01*
X74646Y197520D02*
Y202205D01*
X81102Y208661D01*
X156686Y154928D02*
X158458D01*
X156398Y155217D02*
X156686Y154928D01*
X262669Y72315D02*
Y82759D01*
X275382Y95472D01*
X277154Y97244D01*
X275382Y95473D02*
X275382Y95472D01*
X251990Y95473D02*
X275382D01*
X243721Y103742D02*
X251990Y95473D01*
X276572Y97244D02*
X277154D01*
X208966Y119930D02*
X216651D01*
X213779Y112992D02*
Y112992D01*
X262402Y72583D02*
X262669Y72315D01*
D38*
X240354Y39370D02*
X243504Y42520D01*
X210962Y39370D02*
X240354D01*
X210039Y40293D02*
Y48031D01*
Y40293D02*
X210962Y39370D01*
X361167Y89592D02*
X371116D01*
X379528Y81181D01*
X289370Y88976D02*
X301496D01*
X309291Y81181D01*
X137244Y88309D02*
X141455Y92520D01*
X137244Y81181D02*
Y88309D01*
X168701Y102559D02*
X173228Y98032D01*
X166535Y96063D02*
X166742Y95857D01*
X202052D01*
X217695Y80213D01*
X201102Y93682D02*
X216831Y77953D01*
X203150Y98032D02*
X218642Y82539D01*
X173228Y98032D02*
X203150D01*
X164986Y83687D02*
X174981Y93682D01*
X201102D01*
X218642Y82539D02*
X228289D01*
X216831Y77953D02*
X234593D01*
X217695Y80213D02*
X230943D01*
X137267Y101204D02*
Y106164D01*
X139764Y108661D02*
X153937D01*
X137267Y106164D02*
X139764Y108661D01*
X137244Y101181D02*
X137267Y101204D01*
X153937Y108661D02*
X166535Y96063D01*
X156865Y83687D02*
X164986D01*
X147244Y93307D02*
Y101181D01*
Y93307D02*
X156865Y83687D01*
X181747Y88376D02*
X185039Y85084D01*
X181747Y88376D02*
Y88395D01*
X186024Y52854D02*
Y53281D01*
X185039Y54265D02*
X186024Y53281D01*
X228289Y82539D02*
X229363Y83613D01*
X229789D01*
X234593Y77953D02*
X235827Y79187D01*
X231343Y80614D02*
X232352D01*
X235827Y79187D02*
Y83385D01*
X230943Y80213D02*
X231343Y80614D01*
X232352D02*
X232653Y80915D01*
X185039Y65059D02*
Y85084D01*
Y54265D02*
Y65059D01*
D40*
X223514Y41735D02*
X237114D01*
X239173Y43795D01*
Y46161D01*
X218602Y46647D02*
X223514Y41735D01*
X218602Y46647D02*
Y63583D01*
X214665Y67520D02*
X218602Y63583D01*
X187500Y67520D02*
X214665D01*
X185039Y65059D02*
X187500Y67520D01*
D41*
X116535Y78347D02*
Y111181D01*
D44*
X413386Y43307D02*
D03*
X59055D02*
D03*
X413386Y224410D02*
D03*
X59055D02*
D03*
D45*
X83858Y81181D02*
D03*
X73858D02*
D03*
Y101181D02*
D03*
X83858D02*
D03*
X98858Y91181D02*
D03*
Y71181D02*
D03*
Y111181D02*
D03*
X147244Y81181D02*
D03*
X137244D02*
D03*
Y101181D02*
D03*
X147244D02*
D03*
X162244Y91181D02*
D03*
Y71181D02*
D03*
Y111181D02*
D03*
X319291Y81181D02*
D03*
X309291D02*
D03*
Y101181D02*
D03*
X319291D02*
D03*
X334291Y91181D02*
D03*
Y71181D02*
D03*
Y111181D02*
D03*
X389528Y81181D02*
D03*
X379528D02*
D03*
Y101181D02*
D03*
X389528D02*
D03*
X404528Y91181D02*
D03*
Y71181D02*
D03*
Y111181D02*
D03*
D46*
X253465Y203307D02*
D03*
D47*
Y193307D02*
D03*
X243465Y203307D02*
D03*
Y193307D02*
D03*
X233465Y203307D02*
D03*
Y193307D02*
D03*
X223465Y203307D02*
D03*
Y193307D02*
D03*
X213465Y203307D02*
D03*
Y193307D02*
D03*
D48*
X74646Y192520D02*
D03*
D49*
Y197520D02*
D03*
X79646Y192520D02*
D03*
Y197520D02*
D03*
X84646Y192520D02*
D03*
Y197520D02*
D03*
X89646Y192520D02*
D03*
Y197520D02*
D03*
X94646Y192520D02*
D03*
Y197520D02*
D03*
D50*
X243504Y42520D02*
D03*
X239173Y46161D02*
D03*
X210039Y48031D02*
D03*
X47244Y196850D02*
D03*
X229817Y115285D02*
D03*
X272835Y112697D02*
D03*
X291732Y122441D02*
D03*
X382991Y113687D02*
D03*
X361167Y89592D02*
D03*
X322799Y108811D02*
D03*
X289370Y88976D02*
D03*
X116535Y111181D02*
D03*
Y78347D02*
D03*
X186614Y112205D02*
D03*
X141455Y92520D02*
D03*
X168701Y102559D02*
D03*
X189831Y88395D02*
D03*
X181747D02*
D03*
X202362Y106693D02*
D03*
X240569Y182842D02*
D03*
X224757Y133328D02*
D03*
X212441Y134235D02*
D03*
X292107Y165380D02*
D03*
X335269Y122933D02*
D03*
X222815Y91988D02*
D03*
X318268Y140223D02*
D03*
X254717Y117499D02*
D03*
X213965Y122733D02*
D03*
X205906Y142520D02*
D03*
X237359Y67712D02*
D03*
X208512Y72205D02*
D03*
X190008Y61716D02*
D03*
X197095Y48470D02*
D03*
X223819Y59351D02*
D03*
X277154Y97244D02*
D03*
X218701Y112992D02*
D03*
X216651Y119930D02*
D03*
X206884Y122344D02*
D03*
X243721Y103742D02*
D03*
X213779Y112992D02*
D03*
X233807Y151537D02*
D03*
X186024Y52854D02*
D03*
X229789Y83613D02*
D03*
X209800Y146358D02*
D03*
X384406Y133858D02*
D03*
X278346Y134646D02*
D03*
X287457Y68307D02*
D03*
X323622Y64173D02*
D03*
X112851Y152067D02*
D03*
X326772Y153543D02*
D03*
X297035Y153939D02*
D03*
X277165Y154331D02*
D03*
X425591Y197638D02*
D03*
X422835Y91339D02*
D03*
X350787Y45669D02*
D03*
X121260Y46850D02*
D03*
X48383Y136516D02*
D03*
X299213Y228346D02*
D03*
X137795D02*
D03*
X253711Y111331D02*
D03*
X243721Y117717D02*
D03*
X253642Y46797D02*
D03*
X267028Y57898D02*
D03*
X258661Y68898D02*
D03*
X232653Y80915D02*
D03*
X235827Y83385D02*
D03*
X129823Y169587D02*
D03*
X99152Y173339D02*
D03*
X223819Y67716D02*
D03*
X247736Y58570D02*
D03*
X247244Y66535D02*
D03*
X262795Y101380D02*
D03*
X379823Y157087D02*
D03*
X368406Y155315D02*
D03*
X262669Y72315D02*
D03*
X258711Y111331D02*
D03*
X188189Y72638D02*
D03*
X253839Y140650D02*
D03*
X248819D02*
D03*
X156398Y155217D02*
D03*
M02*
