G04*
G04 #@! TF.GenerationSoftware,Altium Limited,Altium Designer,22.3.1 (43)*
G04*
G04 Layer_Color=16711935*
%FSLAX25Y25*%
%MOIN*%
G70*
G04*
G04 #@! TF.SameCoordinates,8ED6FF1A-C223-48F4-A418-E12A0B0AD757*
G04*
G04*
G04 #@! TF.FilePolarity,Positive*
G04*
G01*
G75*
%ADD12C,0.00787*%
G36*
X87211Y157871D02*
X87246Y157869D01*
X87287Y157866D01*
X87331Y157860D01*
X87380Y157855D01*
X87432Y157847D01*
X87487Y157839D01*
X87604Y157811D01*
X87661Y157792D01*
X87719Y157773D01*
X87779Y157751D01*
X87833Y157724D01*
X87836Y157721D01*
X87847Y157716D01*
X87861Y157708D01*
X87882Y157697D01*
X87907Y157680D01*
X87934Y157661D01*
X87964Y157639D01*
X88000Y157615D01*
X88033Y157585D01*
X88071Y157555D01*
X88106Y157519D01*
X88144Y157481D01*
X88180Y157440D01*
X88216Y157396D01*
X88248Y157347D01*
X88278Y157298D01*
X88281Y157295D01*
X88284Y157284D01*
X88292Y157271D01*
X88303Y157249D01*
X88314Y157224D01*
X88327Y157192D01*
X88341Y157156D01*
X88355Y157118D01*
X88368Y157074D01*
X88382Y157025D01*
X88396Y156976D01*
X88407Y156921D01*
X88426Y156809D01*
X88428Y156749D01*
X88431Y156686D01*
Y156651D01*
X88428Y156624D01*
X88426Y156591D01*
X88420Y156553D01*
X88415Y156512D01*
X88407Y156465D01*
X88396Y156416D01*
X88385Y156364D01*
X88368Y156313D01*
X88349Y156258D01*
X88327Y156203D01*
X88300Y156151D01*
X88273Y156100D01*
X88237Y156050D01*
X88235Y156048D01*
X88229Y156040D01*
X88218Y156026D01*
X88202Y156009D01*
X88183Y155988D01*
X88158Y155963D01*
X88131Y155938D01*
X88098Y155909D01*
X88063Y155878D01*
X88022Y155848D01*
X87978Y155818D01*
X87929Y155791D01*
X87877Y155761D01*
X87820Y155736D01*
X87760Y155712D01*
X87697Y155690D01*
X87620Y156018D01*
X87623D01*
X87631Y156023D01*
X87648Y156026D01*
X87667Y156034D01*
X87689Y156042D01*
X87713Y156056D01*
X87773Y156083D01*
X87839Y156119D01*
X87907Y156165D01*
X87970Y156214D01*
X87997Y156244D01*
X88022Y156274D01*
X88024Y156277D01*
X88027Y156282D01*
X88033Y156291D01*
X88041Y156304D01*
X88052Y156321D01*
X88063Y156340D01*
X88073Y156362D01*
X88084Y156389D01*
X88095Y156419D01*
X88106Y156449D01*
X88128Y156520D01*
X88142Y156602D01*
X88147Y156646D01*
Y156719D01*
X88144Y156741D01*
X88142Y156766D01*
X88139Y156796D01*
X88136Y156828D01*
X88131Y156861D01*
X88112Y156940D01*
X88087Y157022D01*
X88071Y157063D01*
X88052Y157104D01*
X88030Y157142D01*
X88005Y157181D01*
X88003Y157183D01*
X88000Y157189D01*
X87992Y157200D01*
X87981Y157213D01*
X87967Y157227D01*
X87948Y157246D01*
X87929Y157265D01*
X87907Y157287D01*
X87880Y157309D01*
X87852Y157334D01*
X87790Y157377D01*
X87716Y157418D01*
X87631Y157454D01*
X87629D01*
X87620Y157456D01*
X87607Y157462D01*
X87590Y157465D01*
X87568Y157470D01*
X87544Y157478D01*
X87514Y157484D01*
X87484Y157492D01*
X87448Y157500D01*
X87410Y157506D01*
X87328Y157519D01*
X87241Y157527D01*
X87148Y157530D01*
X87145D01*
X87134D01*
X87118D01*
X87093Y157527D01*
X87066D01*
X87033Y157525D01*
X86998Y157522D01*
X86957Y157519D01*
X86913Y157514D01*
X86870Y157508D01*
X86774Y157492D01*
X86678Y157467D01*
X86586Y157437D01*
X86583D01*
X86575Y157432D01*
X86564Y157426D01*
X86547Y157421D01*
X86526Y157410D01*
X86504Y157396D01*
X86452Y157366D01*
X86392Y157325D01*
X86335Y157276D01*
X86277Y157216D01*
X86253Y157183D01*
X86228Y157148D01*
Y157145D01*
X86223Y157140D01*
X86217Y157129D01*
X86209Y157112D01*
X86201Y157093D01*
X86190Y157071D01*
X86182Y157047D01*
X86171Y157020D01*
X86149Y156957D01*
X86130Y156883D01*
X86116Y156804D01*
X86113Y156763D01*
X86111Y156719D01*
Y156692D01*
X86113Y156673D01*
X86116Y156648D01*
X86119Y156621D01*
X86124Y156588D01*
X86130Y156555D01*
X86149Y156479D01*
X86163Y156441D01*
X86179Y156400D01*
X86198Y156359D01*
X86220Y156321D01*
X86244Y156282D01*
X86272Y156244D01*
X86274Y156242D01*
X86280Y156236D01*
X86288Y156225D01*
X86302Y156211D01*
X86318Y156198D01*
X86340Y156179D01*
X86365Y156160D01*
X86392Y156138D01*
X86425Y156116D01*
X86460Y156094D01*
X86498Y156072D01*
X86542Y156050D01*
X86588Y156031D01*
X86640Y156012D01*
X86695Y155993D01*
X86752Y155979D01*
X86668Y155646D01*
X86662D01*
X86648Y155652D01*
X86629Y155657D01*
X86599Y155668D01*
X86567Y155679D01*
X86526Y155695D01*
X86482Y155712D01*
X86436Y155734D01*
X86384Y155758D01*
X86335Y155786D01*
X86280Y155816D01*
X86228Y155851D01*
X86179Y155889D01*
X86130Y155930D01*
X86083Y155977D01*
X86040Y156026D01*
X86037Y156029D01*
X86032Y156040D01*
X86021Y156053D01*
X86007Y156075D01*
X85991Y156100D01*
X85971Y156132D01*
X85952Y156168D01*
X85933Y156211D01*
X85914Y156258D01*
X85895Y156307D01*
X85876Y156362D01*
X85860Y156422D01*
X85846Y156484D01*
X85835Y156550D01*
X85830Y156618D01*
X85827Y156692D01*
Y156730D01*
X85830Y156760D01*
X85832Y156793D01*
X85835Y156834D01*
X85840Y156878D01*
X85849Y156927D01*
X85857Y156979D01*
X85868Y157033D01*
X85881Y157088D01*
X85895Y157142D01*
X85914Y157200D01*
X85936Y157254D01*
X85961Y157306D01*
X85991Y157355D01*
X85993Y157358D01*
X85999Y157366D01*
X86007Y157380D01*
X86021Y157396D01*
X86040Y157418D01*
X86059Y157443D01*
X86083Y157470D01*
X86113Y157500D01*
X86146Y157530D01*
X86182Y157563D01*
X86220Y157593D01*
X86264Y157626D01*
X86310Y157658D01*
X86359Y157688D01*
X86414Y157716D01*
X86471Y157743D01*
X86474Y157746D01*
X86485Y157748D01*
X86504Y157754D01*
X86526Y157762D01*
X86556Y157773D01*
X86588Y157784D01*
X86629Y157795D01*
X86673Y157808D01*
X86722Y157819D01*
X86774Y157833D01*
X86829Y157844D01*
X86889Y157852D01*
X87014Y157869D01*
X87080Y157871D01*
X87145Y157874D01*
X87151D01*
X87162D01*
X87183D01*
X87211Y157871D01*
D02*
G37*
G36*
X88388Y154314D02*
Y154060D01*
X86755D01*
Y153719D01*
X86471D01*
Y154060D01*
X85868D01*
Y154369D01*
X86471D01*
Y155466D01*
X86755D01*
X88388Y154314D01*
D02*
G37*
G36*
X334252Y175091D02*
X333313D01*
X333285Y175094D01*
X333253D01*
X333220Y175097D01*
X333146Y175100D01*
X333073Y175108D01*
X332999Y175116D01*
X332966Y175124D01*
X332936Y175130D01*
X332933D01*
X332925Y175132D01*
X332914Y175135D01*
X332901Y175141D01*
X332881Y175146D01*
X332860Y175152D01*
X332808Y175171D01*
X332751Y175195D01*
X332690Y175225D01*
X332628Y175263D01*
X332568Y175310D01*
X332565Y175312D01*
X332559Y175318D01*
X332548Y175326D01*
X332535Y175340D01*
X332518Y175356D01*
X332499Y175378D01*
X332477Y175400D01*
X332456Y175427D01*
X332431Y175457D01*
X332406Y175490D01*
X332382Y175525D01*
X332357Y175564D01*
X332311Y175648D01*
X332270Y175741D01*
Y175744D01*
X332264Y175752D01*
X332262Y175768D01*
X332254Y175788D01*
X332245Y175812D01*
X332237Y175842D01*
X332229Y175875D01*
X332218Y175913D01*
X332210Y175957D01*
X332202Y176003D01*
X332193Y176052D01*
X332185Y176104D01*
X332177Y176159D01*
X332174Y176216D01*
X332169Y176339D01*
Y176342D01*
Y176353D01*
Y176366D01*
Y176388D01*
X332172Y176413D01*
Y176443D01*
X332174Y176476D01*
X332177Y176511D01*
X332185Y176590D01*
X332199Y176675D01*
X332215Y176762D01*
X332237Y176849D01*
Y176852D01*
X332240Y176860D01*
X332245Y176871D01*
X332248Y176885D01*
X332256Y176904D01*
X332264Y176926D01*
X332284Y176978D01*
X332308Y177035D01*
X332338Y177098D01*
X332371Y177158D01*
X332409Y177215D01*
Y177218D01*
X332415Y177221D01*
X332420Y177229D01*
X332428Y177240D01*
X332447Y177264D01*
X332477Y177297D01*
X332510Y177336D01*
X332548Y177374D01*
X332592Y177409D01*
X332639Y177445D01*
X332641D01*
X332644Y177447D01*
X332660Y177458D01*
X332688Y177472D01*
X332723Y177491D01*
X332767Y177510D01*
X332819Y177532D01*
X332879Y177551D01*
X332942Y177570D01*
X332944D01*
X332950Y177573D01*
X332958D01*
X332972Y177576D01*
X332988Y177578D01*
X333010Y177584D01*
X333032Y177587D01*
X333056Y177589D01*
X333116Y177597D01*
X333185Y177606D01*
X333261Y177609D01*
X333343Y177611D01*
X334252D01*
Y175091D01*
D02*
G37*
G36*
X330979Y175643D02*
X330984Y175648D01*
X330998Y175662D01*
X331022Y175681D01*
X331058Y175708D01*
X331099Y175741D01*
X331151Y175777D01*
X331208Y175815D01*
X331274Y175856D01*
X331276D01*
X331282Y175861D01*
X331290Y175867D01*
X331304Y175872D01*
X331320Y175883D01*
X331339Y175891D01*
X331383Y175916D01*
X331432Y175940D01*
X331487Y175968D01*
X331544Y175992D01*
X331598Y176014D01*
Y175717D01*
X331596Y175714D01*
X331588Y175711D01*
X331574Y175703D01*
X331555Y175695D01*
X331533Y175684D01*
X331506Y175667D01*
X331475Y175651D01*
X331446Y175635D01*
X331375Y175591D01*
X331298Y175539D01*
X331219Y175485D01*
X331145Y175422D01*
X331142Y175419D01*
X331137Y175414D01*
X331126Y175405D01*
X331112Y175392D01*
X331099Y175375D01*
X331080Y175359D01*
X331039Y175312D01*
X330992Y175263D01*
X330946Y175206D01*
X330905Y175146D01*
X330870Y175083D01*
X330670D01*
Y177611D01*
X330979D01*
Y175643D01*
D02*
G37*
G36*
X198505Y62330D02*
X198513Y62322D01*
X198530Y62308D01*
X198549Y62292D01*
X198576Y62270D01*
X198606Y62242D01*
X198642Y62215D01*
X198683Y62182D01*
X198729Y62147D01*
X198781Y62109D01*
X198838Y62068D01*
X198898Y62027D01*
X198961Y61986D01*
X199032Y61942D01*
X199106Y61896D01*
X199182Y61852D01*
X199188Y61849D01*
X199201Y61841D01*
X199223Y61830D01*
X199256Y61814D01*
X199294Y61795D01*
X199341Y61770D01*
X199392Y61746D01*
X199450Y61718D01*
X199513Y61691D01*
X199581Y61661D01*
X199654Y61631D01*
X199728Y61601D01*
X199807Y61571D01*
X199889Y61541D01*
X200056Y61489D01*
X200059D01*
X200069Y61486D01*
X200089Y61481D01*
X200110Y61475D01*
X200140Y61467D01*
X200176Y61459D01*
X200217Y61448D01*
X200261Y61440D01*
X200310Y61429D01*
X200364Y61421D01*
X200422Y61410D01*
X200482Y61401D01*
X200545Y61391D01*
X200610Y61382D01*
X200746Y61371D01*
Y61055D01*
X200744D01*
X200733D01*
X200716D01*
X200695Y61058D01*
X200665Y61060D01*
X200632Y61063D01*
X200591Y61066D01*
X200547Y61071D01*
X200495Y61077D01*
X200444Y61085D01*
X200383Y61093D01*
X200321Y61104D01*
X200252Y61118D01*
X200181Y61131D01*
X200108Y61150D01*
X200031Y61169D01*
X200026Y61172D01*
X200012Y61175D01*
X199990Y61180D01*
X199960Y61191D01*
X199922Y61202D01*
X199876Y61216D01*
X199827Y61232D01*
X199772Y61251D01*
X199712Y61273D01*
X199646Y61298D01*
X199578Y61322D01*
X199510Y61352D01*
X199365Y61415D01*
X199218Y61489D01*
X199212Y61492D01*
X199201Y61500D01*
X199179Y61511D01*
X199152Y61524D01*
X199119Y61546D01*
X199081Y61568D01*
X199038Y61595D01*
X198988Y61623D01*
X198939Y61655D01*
X198885Y61691D01*
X198775Y61767D01*
X198663Y61849D01*
X198609Y61893D01*
X198557Y61937D01*
Y60703D01*
X198259D01*
Y62332D01*
X198502D01*
X198505Y62330D01*
D02*
G37*
G36*
X199966Y60391D02*
X199985Y60386D01*
X200015Y60375D01*
X200048Y60364D01*
X200089Y60348D01*
X200132Y60331D01*
X200179Y60310D01*
X200231Y60285D01*
X200280Y60258D01*
X200334Y60228D01*
X200386Y60192D01*
X200435Y60154D01*
X200484Y60113D01*
X200531Y60067D01*
X200574Y60017D01*
X200577Y60015D01*
X200583Y60004D01*
X200594Y59990D01*
X200607Y59968D01*
X200624Y59944D01*
X200643Y59911D01*
X200662Y59876D01*
X200681Y59832D01*
X200700Y59785D01*
X200719Y59736D01*
X200738Y59682D01*
X200755Y59622D01*
X200768Y59559D01*
X200779Y59493D01*
X200785Y59425D01*
X200787Y59351D01*
Y59313D01*
X200785Y59283D01*
X200782Y59250D01*
X200779Y59209D01*
X200774Y59166D01*
X200766Y59117D01*
X200757Y59065D01*
X200746Y59010D01*
X200733Y58956D01*
X200719Y58901D01*
X200700Y58843D01*
X200678Y58789D01*
X200654Y58737D01*
X200624Y58688D01*
X200621Y58685D01*
X200616Y58677D01*
X200607Y58663D01*
X200594Y58647D01*
X200574Y58625D01*
X200555Y58601D01*
X200531Y58573D01*
X200501Y58543D01*
X200468Y58513D01*
X200432Y58480D01*
X200394Y58450D01*
X200351Y58418D01*
X200304Y58385D01*
X200255Y58355D01*
X200201Y58328D01*
X200143Y58300D01*
X200140Y58297D01*
X200130Y58295D01*
X200110Y58289D01*
X200089Y58281D01*
X200059Y58270D01*
X200026Y58259D01*
X199985Y58248D01*
X199941Y58235D01*
X199892Y58224D01*
X199840Y58210D01*
X199785Y58199D01*
X199725Y58191D01*
X199600Y58175D01*
X199534Y58172D01*
X199469Y58169D01*
X199463D01*
X199452D01*
X199431D01*
X199403Y58172D01*
X199368Y58175D01*
X199327Y58177D01*
X199283Y58183D01*
X199234Y58188D01*
X199182Y58197D01*
X199128Y58205D01*
X199010Y58232D01*
X198953Y58251D01*
X198896Y58270D01*
X198836Y58292D01*
X198781Y58319D01*
X198778Y58322D01*
X198767Y58328D01*
X198754Y58336D01*
X198732Y58347D01*
X198707Y58363D01*
X198680Y58382D01*
X198650Y58404D01*
X198614Y58429D01*
X198582Y58459D01*
X198543Y58489D01*
X198508Y58524D01*
X198470Y58562D01*
X198434Y58603D01*
X198399Y58647D01*
X198366Y58696D01*
X198336Y58745D01*
X198333Y58748D01*
X198330Y58759D01*
X198322Y58773D01*
X198311Y58794D01*
X198300Y58819D01*
X198287Y58852D01*
X198273Y58887D01*
X198259Y58925D01*
X198246Y58969D01*
X198232Y59018D01*
X198219Y59067D01*
X198208Y59122D01*
X198188Y59234D01*
X198186Y59294D01*
X198183Y59357D01*
Y59392D01*
X198186Y59420D01*
X198188Y59452D01*
X198194Y59491D01*
X198199Y59531D01*
X198208Y59578D01*
X198219Y59627D01*
X198229Y59679D01*
X198246Y59731D01*
X198265Y59785D01*
X198287Y59840D01*
X198314Y59892D01*
X198341Y59944D01*
X198377Y59993D01*
X198380Y59996D01*
X198385Y60004D01*
X198396Y60017D01*
X198412Y60034D01*
X198432Y60056D01*
X198456Y60080D01*
X198483Y60105D01*
X198516Y60135D01*
X198552Y60165D01*
X198592Y60195D01*
X198636Y60225D01*
X198685Y60252D01*
X198737Y60282D01*
X198795Y60307D01*
X198855Y60331D01*
X198917Y60353D01*
X198994Y60026D01*
X198991D01*
X198983Y60020D01*
X198967Y60017D01*
X198947Y60009D01*
X198926Y60001D01*
X198901Y59987D01*
X198841Y59960D01*
X198775Y59925D01*
X198707Y59878D01*
X198644Y59829D01*
X198617Y59799D01*
X198592Y59769D01*
X198590Y59766D01*
X198587Y59761D01*
X198582Y59753D01*
X198573Y59739D01*
X198563Y59723D01*
X198552Y59703D01*
X198541Y59682D01*
X198530Y59654D01*
X198519Y59624D01*
X198508Y59594D01*
X198486Y59523D01*
X198472Y59441D01*
X198467Y59398D01*
Y59324D01*
X198470Y59302D01*
X198472Y59278D01*
X198475Y59248D01*
X198478Y59215D01*
X198483Y59182D01*
X198502Y59103D01*
X198527Y59021D01*
X198543Y58980D01*
X198563Y58939D01*
X198584Y58901D01*
X198609Y58863D01*
X198612Y58860D01*
X198614Y58855D01*
X198623Y58843D01*
X198634Y58830D01*
X198647Y58816D01*
X198666Y58797D01*
X198685Y58778D01*
X198707Y58756D01*
X198734Y58734D01*
X198762Y58710D01*
X198825Y58666D01*
X198898Y58625D01*
X198983Y58590D01*
X198986D01*
X198994Y58587D01*
X199007Y58582D01*
X199024Y58579D01*
X199046Y58573D01*
X199070Y58565D01*
X199100Y58560D01*
X199130Y58551D01*
X199166Y58543D01*
X199204Y58538D01*
X199286Y58524D01*
X199373Y58516D01*
X199466Y58513D01*
X199469D01*
X199480D01*
X199496D01*
X199521Y58516D01*
X199548D01*
X199581Y58519D01*
X199616Y58521D01*
X199657Y58524D01*
X199701Y58530D01*
X199745Y58535D01*
X199840Y58551D01*
X199936Y58576D01*
X200028Y58606D01*
X200031D01*
X200039Y58612D01*
X200050Y58617D01*
X200067Y58622D01*
X200089Y58633D01*
X200110Y58647D01*
X200162Y58677D01*
X200222Y58718D01*
X200280Y58767D01*
X200337Y58827D01*
X200362Y58860D01*
X200386Y58895D01*
Y58898D01*
X200392Y58904D01*
X200397Y58915D01*
X200405Y58931D01*
X200413Y58950D01*
X200424Y58972D01*
X200432Y58996D01*
X200444Y59024D01*
X200465Y59087D01*
X200484Y59160D01*
X200498Y59239D01*
X200501Y59280D01*
X200503Y59324D01*
Y59351D01*
X200501Y59370D01*
X200498Y59395D01*
X200495Y59422D01*
X200490Y59455D01*
X200484Y59488D01*
X200465Y59564D01*
X200452Y59602D01*
X200435Y59643D01*
X200416Y59684D01*
X200394Y59723D01*
X200370Y59761D01*
X200342Y59799D01*
X200340Y59802D01*
X200334Y59807D01*
X200326Y59818D01*
X200312Y59832D01*
X200296Y59846D01*
X200274Y59865D01*
X200250Y59884D01*
X200222Y59905D01*
X200190Y59927D01*
X200154Y59949D01*
X200116Y59971D01*
X200072Y59993D01*
X200026Y60012D01*
X199974Y60031D01*
X199919Y60050D01*
X199862Y60064D01*
X199947Y60397D01*
X199952D01*
X199966Y60391D01*
D02*
G37*
G36*
X395779Y178698D02*
X395798Y178695D01*
X395850Y178690D01*
X395908Y178679D01*
X395973Y178662D01*
X396039Y178641D01*
X396104Y178611D01*
X396107D01*
X396112Y178608D01*
X396121Y178602D01*
X396134Y178594D01*
X396164Y178575D01*
X396202Y178548D01*
X396246Y178512D01*
X396290Y178471D01*
X396334Y178425D01*
X396372Y178370D01*
Y178368D01*
X396374Y178365D01*
X396380Y178354D01*
X396385Y178343D01*
X396394Y178329D01*
X396402Y178313D01*
X396418Y178272D01*
X396434Y178223D01*
X396451Y178168D01*
X396462Y178108D01*
X396464Y178045D01*
Y178043D01*
Y178037D01*
Y178029D01*
Y178018D01*
X396459Y177985D01*
X396454Y177947D01*
X396443Y177901D01*
X396426Y177852D01*
X396405Y177800D01*
X396374Y177748D01*
Y177745D01*
X396372Y177742D01*
X396358Y177726D01*
X396339Y177701D01*
X396309Y177671D01*
X396273Y177636D01*
X396227Y177600D01*
X396175Y177568D01*
X396115Y177535D01*
X396118D01*
X396126Y177532D01*
X396137Y177529D01*
X396153Y177524D01*
X396170Y177518D01*
X396192Y177510D01*
X396243Y177489D01*
X396298Y177459D01*
X396355Y177423D01*
X396413Y177377D01*
X396462Y177319D01*
X396464Y177316D01*
X396467Y177311D01*
X396473Y177303D01*
X396481Y177289D01*
X396492Y177276D01*
X396503Y177256D01*
X396514Y177235D01*
X396525Y177207D01*
X396535Y177180D01*
X396546Y177150D01*
X396568Y177082D01*
X396582Y177003D01*
X396587Y176959D01*
Y176915D01*
Y176912D01*
Y176901D01*
X396585Y176882D01*
Y176861D01*
X396579Y176831D01*
X396574Y176798D01*
X396568Y176762D01*
X396557Y176721D01*
X396544Y176678D01*
X396527Y176634D01*
X396508Y176588D01*
X396484Y176541D01*
X396456Y176492D01*
X396424Y176446D01*
X396388Y176399D01*
X396344Y176356D01*
X396342Y176353D01*
X396334Y176345D01*
X396320Y176334D01*
X396301Y176320D01*
X396279Y176304D01*
X396249Y176285D01*
X396216Y176263D01*
X396178Y176244D01*
X396137Y176222D01*
X396091Y176200D01*
X396041Y176181D01*
X395987Y176164D01*
X395930Y176151D01*
X395869Y176140D01*
X395807Y176132D01*
X395738Y176129D01*
X395725D01*
X395706Y176132D01*
X395684D01*
X395654Y176134D01*
X395621Y176140D01*
X395585Y176145D01*
X395545Y176154D01*
X395501Y176164D01*
X395457Y176178D01*
X395411Y176192D01*
X395364Y176211D01*
X395318Y176235D01*
X395274Y176260D01*
X395228Y176290D01*
X395187Y176326D01*
X395184Y176328D01*
X395179Y176334D01*
X395168Y176345D01*
X395151Y176361D01*
X395135Y176380D01*
X395116Y176405D01*
X395097Y176432D01*
X395075Y176465D01*
X395053Y176497D01*
X395031Y176539D01*
X395009Y176579D01*
X394990Y176626D01*
X394974Y176675D01*
X394958Y176727D01*
X394947Y176781D01*
X394938Y176839D01*
X395247Y176880D01*
Y176877D01*
X395250Y176869D01*
X395252Y176855D01*
X395258Y176836D01*
X395263Y176814D01*
X395269Y176790D01*
X395288Y176732D01*
X395312Y176670D01*
X395342Y176607D01*
X395381Y176549D01*
X395403Y176525D01*
X395424Y176500D01*
X395427D01*
X395430Y176495D01*
X395438Y176489D01*
X395446Y176481D01*
X395474Y176465D01*
X395512Y176443D01*
X395558Y176421D01*
X395610Y176405D01*
X395673Y176391D01*
X395738Y176386D01*
X395760D01*
X395777Y176388D01*
X395793Y176391D01*
X395817Y176394D01*
X395867Y176405D01*
X395927Y176421D01*
X395989Y176448D01*
X396020Y176468D01*
X396050Y176487D01*
X396080Y176508D01*
X396110Y176536D01*
X396112Y176539D01*
X396115Y176544D01*
X396123Y176552D01*
X396134Y176563D01*
X396145Y176577D01*
X396156Y176596D01*
X396170Y176615D01*
X396186Y176639D01*
X396213Y176694D01*
X396235Y176757D01*
X396254Y176831D01*
X396257Y176869D01*
X396260Y176910D01*
Y176912D01*
Y176918D01*
Y176932D01*
X396257Y176945D01*
X396254Y176964D01*
X396252Y176983D01*
X396243Y177033D01*
X396224Y177090D01*
X396200Y177147D01*
X396183Y177177D01*
X396164Y177205D01*
X396142Y177232D01*
X396118Y177259D01*
X396115Y177262D01*
X396112Y177265D01*
X396104Y177273D01*
X396093Y177281D01*
X396080Y177292D01*
X396063Y177303D01*
X396022Y177330D01*
X395970Y177355D01*
X395910Y177377D01*
X395842Y177393D01*
X395804Y177396D01*
X395766Y177398D01*
X395749D01*
X395730Y177396D01*
X395706D01*
X395673Y177390D01*
X395637Y177385D01*
X395594Y177377D01*
X395547Y177366D01*
X395580Y177636D01*
X395585D01*
X395599Y177633D01*
X395616Y177630D01*
X395651D01*
X395665Y177633D01*
X395684D01*
X395703Y177636D01*
X395749Y177644D01*
X395804Y177655D01*
X395864Y177674D01*
X395927Y177699D01*
X395987Y177734D01*
X395989D01*
X395995Y177740D01*
X396000Y177745D01*
X396011Y177753D01*
X396039Y177778D01*
X396069Y177813D01*
X396096Y177857D01*
X396123Y177912D01*
X396134Y177942D01*
X396140Y177977D01*
X396145Y178013D01*
X396148Y178051D01*
Y178054D01*
Y178059D01*
Y178067D01*
X396145Y178081D01*
X396142Y178111D01*
X396134Y178152D01*
X396121Y178196D01*
X396099Y178242D01*
X396069Y178291D01*
X396052Y178313D01*
X396030Y178335D01*
X396025Y178340D01*
X396009Y178351D01*
X395984Y178370D01*
X395951Y178392D01*
X395908Y178411D01*
X395856Y178430D01*
X395798Y178441D01*
X395733Y178447D01*
X395717D01*
X395703Y178444D01*
X395687D01*
X395670Y178441D01*
X395626Y178433D01*
X395580Y178419D01*
X395528Y178398D01*
X395479Y178370D01*
X395430Y178332D01*
X395424Y178327D01*
X395411Y178310D01*
X395389Y178286D01*
X395367Y178247D01*
X395340Y178201D01*
X395315Y178141D01*
X395293Y178073D01*
X395277Y177994D01*
X394969Y178048D01*
Y178051D01*
X394971Y178062D01*
X394974Y178078D01*
X394979Y178100D01*
X394988Y178125D01*
X394996Y178155D01*
X395007Y178187D01*
X395020Y178223D01*
X395056Y178302D01*
X395075Y178340D01*
X395099Y178381D01*
X395127Y178419D01*
X395157Y178458D01*
X395190Y178496D01*
X395225Y178529D01*
X395228Y178531D01*
X395233Y178537D01*
X395247Y178545D01*
X395261Y178556D01*
X395283Y178570D01*
X395304Y178583D01*
X395332Y178600D01*
X395364Y178616D01*
X395397Y178630D01*
X395435Y178646D01*
X395476Y178660D01*
X395520Y178673D01*
X395569Y178684D01*
X395618Y178692D01*
X395670Y178698D01*
X395725Y178701D01*
X395760D01*
X395779Y178698D01*
D02*
G37*
G36*
X393486Y178690D02*
X393519D01*
X393552Y178687D01*
X393625Y178684D01*
X393699Y178676D01*
X393773Y178668D01*
X393806Y178660D01*
X393836Y178654D01*
X393838D01*
X393847Y178651D01*
X393857Y178649D01*
X393871Y178643D01*
X393890Y178638D01*
X393912Y178632D01*
X393964Y178613D01*
X394021Y178589D01*
X394081Y178559D01*
X394144Y178520D01*
X394204Y178474D01*
X394207Y178471D01*
X394212Y178466D01*
X394223Y178458D01*
X394237Y178444D01*
X394253Y178428D01*
X394272Y178406D01*
X394294Y178384D01*
X394316Y178357D01*
X394341Y178327D01*
X394365Y178294D01*
X394390Y178258D01*
X394414Y178220D01*
X394461Y178136D01*
X394502Y178043D01*
Y178040D01*
X394507Y178032D01*
X394510Y178015D01*
X394518Y177996D01*
X394526Y177972D01*
X394534Y177942D01*
X394543Y177909D01*
X394553Y177871D01*
X394562Y177827D01*
X394570Y177781D01*
X394578Y177732D01*
X394586Y177680D01*
X394595Y177625D01*
X394597Y177568D01*
X394603Y177445D01*
Y177442D01*
Y177431D01*
Y177418D01*
Y177396D01*
X394600Y177371D01*
Y177341D01*
X394597Y177308D01*
X394595Y177273D01*
X394586Y177194D01*
X394573Y177109D01*
X394556Y177022D01*
X394534Y176934D01*
Y176932D01*
X394532Y176923D01*
X394526Y176912D01*
X394524Y176899D01*
X394515Y176880D01*
X394507Y176858D01*
X394488Y176806D01*
X394463Y176749D01*
X394433Y176686D01*
X394401Y176626D01*
X394362Y176568D01*
Y176566D01*
X394357Y176563D01*
X394352Y176555D01*
X394343Y176544D01*
X394324Y176519D01*
X394294Y176487D01*
X394261Y176448D01*
X394223Y176410D01*
X394180Y176375D01*
X394133Y176339D01*
X394130D01*
X394128Y176336D01*
X394111Y176326D01*
X394084Y176312D01*
X394049Y176293D01*
X394005Y176274D01*
X393953Y176252D01*
X393893Y176233D01*
X393830Y176214D01*
X393827D01*
X393822Y176211D01*
X393814D01*
X393800Y176208D01*
X393784Y176205D01*
X393762Y176200D01*
X393740Y176197D01*
X393715Y176195D01*
X393655Y176186D01*
X393587Y176178D01*
X393511Y176175D01*
X393429Y176173D01*
X392520D01*
Y178692D01*
X393459D01*
X393486Y178690D01*
D02*
G37*
G36*
X366697Y178654D02*
X366727Y178651D01*
X366763Y178646D01*
X366804Y178641D01*
X366845Y178632D01*
X366891Y178621D01*
X366938Y178608D01*
X366987Y178591D01*
X367033Y178572D01*
X367082Y178548D01*
X367129Y178520D01*
X367172Y178490D01*
X367213Y178455D01*
X367216Y178452D01*
X367221Y178447D01*
X367232Y178433D01*
X367246Y178419D01*
X367262Y178400D01*
X367282Y178376D01*
X367301Y178349D01*
X367320Y178316D01*
X367339Y178283D01*
X367358Y178245D01*
X367377Y178204D01*
X367393Y178160D01*
X367407Y178111D01*
X367418Y178062D01*
X367424Y178010D01*
X367426Y177955D01*
Y177953D01*
Y177950D01*
Y177942D01*
Y177931D01*
X367424Y177901D01*
X367418Y177863D01*
X367410Y177816D01*
X367399Y177767D01*
X367385Y177712D01*
X367363Y177658D01*
Y177655D01*
X367361Y177652D01*
X367358Y177644D01*
X367353Y177633D01*
X367336Y177603D01*
X367314Y177565D01*
X367284Y177518D01*
X367249Y177467D01*
X367208Y177412D01*
X367156Y177352D01*
X367153Y177349D01*
X367150Y177344D01*
X367140Y177336D01*
X367129Y177322D01*
X367112Y177306D01*
X367093Y177287D01*
X367071Y177262D01*
X367044Y177237D01*
X367011Y177207D01*
X366976Y177174D01*
X366938Y177136D01*
X366894Y177098D01*
X366847Y177054D01*
X366796Y177011D01*
X366738Y176962D01*
X366678Y176910D01*
X366675Y176907D01*
X366667Y176899D01*
X366651Y176888D01*
X366634Y176872D01*
X366610Y176852D01*
X366585Y176831D01*
X366528Y176781D01*
X366468Y176730D01*
X366411Y176675D01*
X366383Y176650D01*
X366359Y176628D01*
X366337Y176607D01*
X366321Y176590D01*
X366318Y176588D01*
X366307Y176577D01*
X366293Y176560D01*
X366274Y176539D01*
X366252Y176514D01*
X366231Y176487D01*
X366187Y176426D01*
X367429D01*
Y176129D01*
X365761D01*
Y176134D01*
Y176148D01*
Y176170D01*
X365764Y176197D01*
X365766Y176230D01*
X365775Y176266D01*
X365783Y176304D01*
X365796Y176342D01*
Y176345D01*
X365799Y176350D01*
X365802Y176358D01*
X365807Y176372D01*
X365815Y176386D01*
X365824Y176405D01*
X365846Y176448D01*
X365873Y176500D01*
X365908Y176558D01*
X365949Y176618D01*
X365998Y176678D01*
X366001Y176680D01*
X366004Y176686D01*
X366012Y176694D01*
X366026Y176708D01*
X366039Y176721D01*
X366058Y176741D01*
X366078Y176762D01*
X366102Y176787D01*
X366129Y176814D01*
X366160Y176841D01*
X366192Y176874D01*
X366231Y176907D01*
X366269Y176943D01*
X366312Y176978D01*
X366356Y177016D01*
X366405Y177057D01*
X366411Y177060D01*
X366424Y177074D01*
X366443Y177090D01*
X366471Y177114D01*
X366504Y177142D01*
X366542Y177174D01*
X366585Y177210D01*
X366629Y177251D01*
X366722Y177336D01*
X366812Y177426D01*
X366856Y177469D01*
X366897Y177513D01*
X366932Y177554D01*
X366962Y177592D01*
X366965Y177595D01*
X366968Y177600D01*
X366976Y177611D01*
X366984Y177625D01*
X366998Y177644D01*
X367008Y177663D01*
X367036Y177712D01*
X367063Y177770D01*
X367088Y177832D01*
X367104Y177898D01*
X367107Y177931D01*
X367109Y177963D01*
Y177966D01*
Y177972D01*
Y177983D01*
X367107Y177994D01*
Y178010D01*
X367101Y178029D01*
X367093Y178070D01*
X367077Y178119D01*
X367052Y178171D01*
X367039Y178198D01*
X367020Y178223D01*
X367000Y178247D01*
X366976Y178272D01*
X366973Y178275D01*
X366970Y178278D01*
X366962Y178283D01*
X366951Y178291D01*
X366938Y178302D01*
X366921Y178313D01*
X366883Y178338D01*
X366831Y178359D01*
X366774Y178381D01*
X366705Y178395D01*
X366667Y178400D01*
X366607D01*
X366591Y178398D01*
X366572D01*
X366550Y178392D01*
X366501Y178384D01*
X366443Y178368D01*
X366383Y178343D01*
X366353Y178327D01*
X366323Y178310D01*
X366296Y178288D01*
X366269Y178264D01*
X366266Y178261D01*
X366263Y178258D01*
X366258Y178250D01*
X366247Y178239D01*
X366239Y178226D01*
X366228Y178209D01*
X366214Y178190D01*
X366203Y178168D01*
X366190Y178144D01*
X366179Y178116D01*
X366157Y178051D01*
X366140Y177980D01*
X366138Y177939D01*
X366135Y177895D01*
X365818Y177928D01*
Y177934D01*
X365821Y177944D01*
X365824Y177961D01*
X365827Y177985D01*
X365832Y178015D01*
X365840Y178051D01*
X365848Y178089D01*
X365862Y178130D01*
X365876Y178171D01*
X365892Y178217D01*
X365914Y178261D01*
X365936Y178305D01*
X365963Y178351D01*
X365993Y178392D01*
X366026Y178433D01*
X366064Y178469D01*
X366067Y178471D01*
X366075Y178477D01*
X366086Y178485D01*
X366102Y178499D01*
X366124Y178512D01*
X366151Y178529D01*
X366181Y178545D01*
X366217Y178564D01*
X366255Y178580D01*
X366299Y178597D01*
X366345Y178613D01*
X366397Y178627D01*
X366452Y178641D01*
X366509Y178649D01*
X366572Y178654D01*
X366637Y178657D01*
X366673D01*
X366697Y178654D01*
D02*
G37*
G36*
X364352Y178646D02*
X364385D01*
X364418Y178643D01*
X364492Y178641D01*
X364565Y178632D01*
X364639Y178624D01*
X364672Y178616D01*
X364702Y178611D01*
X364704D01*
X364713Y178608D01*
X364723Y178605D01*
X364737Y178600D01*
X364756Y178594D01*
X364778Y178589D01*
X364830Y178570D01*
X364887Y178545D01*
X364947Y178515D01*
X365010Y178477D01*
X365070Y178430D01*
X365073Y178428D01*
X365078Y178422D01*
X365089Y178414D01*
X365103Y178400D01*
X365119Y178384D01*
X365139Y178362D01*
X365160Y178340D01*
X365182Y178313D01*
X365207Y178283D01*
X365231Y178250D01*
X365256Y178215D01*
X365281Y178176D01*
X365327Y178092D01*
X365368Y177999D01*
Y177996D01*
X365373Y177988D01*
X365376Y177972D01*
X365384Y177953D01*
X365392Y177928D01*
X365401Y177898D01*
X365409Y177865D01*
X365420Y177827D01*
X365428Y177783D01*
X365436Y177737D01*
X365444Y177688D01*
X365452Y177636D01*
X365461Y177581D01*
X365463Y177524D01*
X365469Y177401D01*
Y177398D01*
Y177387D01*
Y177374D01*
Y177352D01*
X365466Y177327D01*
Y177297D01*
X365463Y177265D01*
X365461Y177229D01*
X365452Y177150D01*
X365439Y177065D01*
X365422Y176978D01*
X365401Y176891D01*
Y176888D01*
X365398Y176880D01*
X365392Y176869D01*
X365390Y176855D01*
X365382Y176836D01*
X365373Y176814D01*
X365354Y176762D01*
X365330Y176705D01*
X365300Y176642D01*
X365267Y176582D01*
X365229Y176525D01*
Y176522D01*
X365223Y176519D01*
X365218Y176511D01*
X365210Y176500D01*
X365190Y176476D01*
X365160Y176443D01*
X365128Y176405D01*
X365089Y176366D01*
X365046Y176331D01*
X364999Y176295D01*
X364997D01*
X364994Y176293D01*
X364977Y176282D01*
X364950Y176268D01*
X364915Y176249D01*
X364871Y176230D01*
X364819Y176208D01*
X364759Y176189D01*
X364696Y176170D01*
X364693D01*
X364688Y176167D01*
X364680D01*
X364666Y176164D01*
X364650Y176162D01*
X364628Y176156D01*
X364606Y176154D01*
X364582Y176151D01*
X364522Y176143D01*
X364453Y176134D01*
X364377Y176132D01*
X364295Y176129D01*
X363386D01*
Y178649D01*
X364325D01*
X364352Y178646D01*
D02*
G37*
G36*
X304365Y177094D02*
X304386D01*
X304417Y177088D01*
X304449Y177083D01*
X304485Y177077D01*
X304526Y177066D01*
X304569Y177053D01*
X304613Y177036D01*
X304660Y177017D01*
X304706Y176992D01*
X304755Y176965D01*
X304802Y176933D01*
X304848Y176897D01*
X304892Y176853D01*
X304894Y176851D01*
X304903Y176842D01*
X304913Y176829D01*
X304927Y176810D01*
X304943Y176788D01*
X304963Y176758D01*
X304984Y176725D01*
X305003Y176687D01*
X305025Y176646D01*
X305047Y176599D01*
X305066Y176550D01*
X305083Y176496D01*
X305096Y176438D01*
X305107Y176378D01*
X305115Y176315D01*
X305118Y176247D01*
Y176234D01*
X305115Y176215D01*
Y176193D01*
X305113Y176163D01*
X305107Y176130D01*
X305102Y176094D01*
X305094Y176053D01*
X305083Y176010D01*
X305069Y175966D01*
X305055Y175920D01*
X305036Y175873D01*
X305012Y175827D01*
X304987Y175783D01*
X304957Y175737D01*
X304922Y175696D01*
X304919Y175693D01*
X304913Y175688D01*
X304903Y175677D01*
X304886Y175660D01*
X304867Y175644D01*
X304842Y175625D01*
X304815Y175606D01*
X304782Y175584D01*
X304750Y175562D01*
X304709Y175540D01*
X304668Y175518D01*
X304621Y175499D01*
X304572Y175483D01*
X304520Y175467D01*
X304466Y175455D01*
X304408Y175447D01*
X304367Y175756D01*
X304370D01*
X304378Y175759D01*
X304392Y175761D01*
X304411Y175767D01*
X304433Y175772D01*
X304457Y175778D01*
X304515Y175797D01*
X304578Y175821D01*
X304640Y175851D01*
X304698Y175890D01*
X304722Y175911D01*
X304747Y175933D01*
Y175936D01*
X304752Y175939D01*
X304758Y175947D01*
X304766Y175955D01*
X304782Y175982D01*
X304804Y176021D01*
X304826Y176067D01*
X304842Y176119D01*
X304856Y176182D01*
X304861Y176247D01*
Y176269D01*
X304859Y176286D01*
X304856Y176302D01*
X304853Y176326D01*
X304842Y176376D01*
X304826Y176436D01*
X304799Y176498D01*
X304780Y176528D01*
X304761Y176558D01*
X304739Y176588D01*
X304711Y176619D01*
X304709Y176621D01*
X304703Y176624D01*
X304695Y176632D01*
X304684Y176643D01*
X304670Y176654D01*
X304651Y176665D01*
X304632Y176679D01*
X304608Y176695D01*
X304553Y176722D01*
X304490Y176744D01*
X304417Y176763D01*
X304378Y176766D01*
X304337Y176769D01*
X304335D01*
X304329D01*
X304315D01*
X304302Y176766D01*
X304283Y176763D01*
X304264Y176760D01*
X304215Y176752D01*
X304157Y176733D01*
X304100Y176709D01*
X304070Y176692D01*
X304043Y176673D01*
X304015Y176651D01*
X303988Y176627D01*
X303985Y176624D01*
X303982Y176621D01*
X303974Y176613D01*
X303966Y176602D01*
X303955Y176588D01*
X303944Y176572D01*
X303917Y176531D01*
X303892Y176479D01*
X303871Y176419D01*
X303854Y176351D01*
X303852Y176313D01*
X303849Y176275D01*
Y176258D01*
X303852Y176239D01*
Y176215D01*
X303857Y176182D01*
X303862Y176146D01*
X303871Y176103D01*
X303882Y176056D01*
X303611Y176089D01*
Y176094D01*
X303614Y176108D01*
X303617Y176124D01*
Y176160D01*
X303614Y176173D01*
Y176193D01*
X303611Y176212D01*
X303603Y176258D01*
X303592Y176313D01*
X303573Y176373D01*
X303548Y176436D01*
X303513Y176496D01*
Y176498D01*
X303507Y176504D01*
X303502Y176509D01*
X303494Y176520D01*
X303469Y176548D01*
X303434Y176578D01*
X303390Y176605D01*
X303335Y176632D01*
X303306Y176643D01*
X303270Y176649D01*
X303235Y176654D01*
X303196Y176657D01*
X303193D01*
X303188D01*
X303180D01*
X303166Y176654D01*
X303136Y176651D01*
X303095Y176643D01*
X303052Y176629D01*
X303005Y176608D01*
X302956Y176578D01*
X302934Y176561D01*
X302912Y176539D01*
X302907Y176534D01*
X302896Y176517D01*
X302877Y176493D01*
X302855Y176460D01*
X302836Y176417D01*
X302817Y176365D01*
X302806Y176307D01*
X302800Y176242D01*
Y176225D01*
X302803Y176212D01*
Y176195D01*
X302806Y176179D01*
X302814Y176135D01*
X302828Y176089D01*
X302850Y176037D01*
X302877Y175988D01*
X302915Y175939D01*
X302921Y175933D01*
X302937Y175920D01*
X302961Y175898D01*
X303000Y175876D01*
X303046Y175849D01*
X303106Y175824D01*
X303174Y175802D01*
X303254Y175786D01*
X303199Y175477D01*
X303196D01*
X303185Y175480D01*
X303169Y175483D01*
X303147Y175488D01*
X303122Y175496D01*
X303093Y175505D01*
X303060Y175516D01*
X303024Y175529D01*
X302945Y175565D01*
X302907Y175584D01*
X302866Y175608D01*
X302828Y175636D01*
X302789Y175666D01*
X302751Y175698D01*
X302718Y175734D01*
X302716Y175737D01*
X302710Y175742D01*
X302702Y175756D01*
X302691Y175769D01*
X302678Y175791D01*
X302664Y175813D01*
X302647Y175840D01*
X302631Y175873D01*
X302618Y175906D01*
X302601Y175944D01*
X302588Y175985D01*
X302574Y176029D01*
X302563Y176078D01*
X302555Y176127D01*
X302549Y176179D01*
X302547Y176234D01*
Y176269D01*
X302549Y176288D01*
X302552Y176307D01*
X302557Y176359D01*
X302568Y176417D01*
X302585Y176482D01*
X302607Y176548D01*
X302637Y176613D01*
Y176616D01*
X302639Y176621D01*
X302645Y176629D01*
X302653Y176643D01*
X302672Y176673D01*
X302699Y176711D01*
X302735Y176755D01*
X302776Y176799D01*
X302822Y176842D01*
X302877Y176881D01*
X302880D01*
X302882Y176883D01*
X302893Y176889D01*
X302904Y176894D01*
X302918Y176902D01*
X302934Y176911D01*
X302975Y176927D01*
X303024Y176943D01*
X303079Y176960D01*
X303139Y176971D01*
X303202Y176973D01*
X303204D01*
X303210D01*
X303218D01*
X303229D01*
X303262Y176968D01*
X303300Y176962D01*
X303346Y176952D01*
X303396Y176935D01*
X303447Y176913D01*
X303499Y176883D01*
X303502D01*
X303505Y176881D01*
X303521Y176867D01*
X303546Y176848D01*
X303576Y176818D01*
X303611Y176782D01*
X303647Y176736D01*
X303679Y176684D01*
X303712Y176624D01*
Y176627D01*
X303715Y176635D01*
X303718Y176646D01*
X303723Y176662D01*
X303729Y176679D01*
X303737Y176700D01*
X303759Y176752D01*
X303789Y176807D01*
X303824Y176864D01*
X303871Y176922D01*
X303928Y176971D01*
X303931Y176973D01*
X303936Y176976D01*
X303944Y176982D01*
X303958Y176990D01*
X303972Y177001D01*
X303991Y177012D01*
X304012Y177023D01*
X304040Y177033D01*
X304067Y177044D01*
X304097Y177055D01*
X304165Y177077D01*
X304245Y177091D01*
X304288Y177096D01*
X304332D01*
X304335D01*
X304346D01*
X304365Y177094D01*
D02*
G37*
G36*
X304294Y175155D02*
X304313Y175150D01*
X304343Y175139D01*
X304376Y175128D01*
X304417Y175112D01*
X304460Y175095D01*
X304507Y175073D01*
X304558Y175049D01*
X304608Y175022D01*
X304662Y174992D01*
X304714Y174956D01*
X304763Y174918D01*
X304812Y174877D01*
X304859Y174830D01*
X304903Y174781D01*
X304905Y174778D01*
X304911Y174768D01*
X304922Y174754D01*
X304935Y174732D01*
X304952Y174707D01*
X304971Y174675D01*
X304990Y174639D01*
X305009Y174596D01*
X305028Y174549D01*
X305047Y174500D01*
X305066Y174445D01*
X305083Y174385D01*
X305096Y174323D01*
X305107Y174257D01*
X305113Y174189D01*
X305115Y174115D01*
Y174077D01*
X305113Y174047D01*
X305110Y174014D01*
X305107Y173973D01*
X305102Y173930D01*
X305094Y173880D01*
X305085Y173828D01*
X305075Y173774D01*
X305061Y173719D01*
X305047Y173665D01*
X305028Y173607D01*
X305006Y173553D01*
X304982Y173501D01*
X304952Y173452D01*
X304949Y173449D01*
X304943Y173441D01*
X304935Y173427D01*
X304922Y173411D01*
X304903Y173389D01*
X304883Y173364D01*
X304859Y173337D01*
X304829Y173307D01*
X304796Y173277D01*
X304761Y173244D01*
X304722Y173214D01*
X304679Y173181D01*
X304632Y173149D01*
X304583Y173119D01*
X304528Y173091D01*
X304471Y173064D01*
X304468Y173061D01*
X304457Y173059D01*
X304438Y173053D01*
X304417Y173045D01*
X304386Y173034D01*
X304354Y173023D01*
X304313Y173012D01*
X304269Y172999D01*
X304220Y172988D01*
X304168Y172974D01*
X304114Y172963D01*
X304053Y172955D01*
X303928Y172939D01*
X303862Y172936D01*
X303797Y172933D01*
X303791D01*
X303781D01*
X303759D01*
X303731Y172936D01*
X303696Y172939D01*
X303655Y172941D01*
X303611Y172947D01*
X303562Y172952D01*
X303510Y172960D01*
X303456Y172968D01*
X303338Y172996D01*
X303281Y173015D01*
X303223Y173034D01*
X303164Y173056D01*
X303109Y173083D01*
X303106Y173086D01*
X303095Y173091D01*
X303082Y173100D01*
X303060Y173110D01*
X303035Y173127D01*
X303008Y173146D01*
X302978Y173168D01*
X302942Y173192D01*
X302910Y173222D01*
X302871Y173252D01*
X302836Y173288D01*
X302798Y173326D01*
X302762Y173367D01*
X302727Y173411D01*
X302694Y173460D01*
X302664Y173509D01*
X302661Y173512D01*
X302658Y173523D01*
X302650Y173536D01*
X302639Y173558D01*
X302628Y173583D01*
X302615Y173616D01*
X302601Y173651D01*
X302588Y173689D01*
X302574Y173733D01*
X302560Y173782D01*
X302547Y173831D01*
X302536Y173886D01*
X302517Y173998D01*
X302514Y174058D01*
X302511Y174121D01*
Y174156D01*
X302514Y174183D01*
X302517Y174216D01*
X302522Y174254D01*
X302527Y174295D01*
X302536Y174342D01*
X302547Y174391D01*
X302557Y174443D01*
X302574Y174495D01*
X302593Y174549D01*
X302615Y174604D01*
X302642Y174656D01*
X302669Y174707D01*
X302705Y174757D01*
X302708Y174759D01*
X302713Y174768D01*
X302724Y174781D01*
X302740Y174798D01*
X302760Y174820D01*
X302784Y174844D01*
X302811Y174869D01*
X302844Y174899D01*
X302880Y174929D01*
X302921Y174959D01*
X302964Y174989D01*
X303013Y175016D01*
X303065Y175046D01*
X303122Y175071D01*
X303183Y175095D01*
X303245Y175117D01*
X303322Y174789D01*
X303319D01*
X303311Y174784D01*
X303294Y174781D01*
X303275Y174773D01*
X303254Y174765D01*
X303229Y174751D01*
X303169Y174724D01*
X303103Y174688D01*
X303035Y174642D01*
X302972Y174593D01*
X302945Y174563D01*
X302921Y174533D01*
X302918Y174530D01*
X302915Y174525D01*
X302910Y174516D01*
X302901Y174503D01*
X302890Y174486D01*
X302880Y174467D01*
X302869Y174445D01*
X302858Y174418D01*
X302847Y174388D01*
X302836Y174358D01*
X302814Y174287D01*
X302800Y174205D01*
X302795Y174162D01*
Y174088D01*
X302798Y174066D01*
X302800Y174041D01*
X302803Y174011D01*
X302806Y173979D01*
X302811Y173946D01*
X302830Y173867D01*
X302855Y173785D01*
X302871Y173744D01*
X302890Y173703D01*
X302912Y173665D01*
X302937Y173626D01*
X302940Y173624D01*
X302942Y173618D01*
X302951Y173607D01*
X302961Y173594D01*
X302975Y173580D01*
X302994Y173561D01*
X303013Y173542D01*
X303035Y173520D01*
X303063Y173498D01*
X303090Y173474D01*
X303153Y173430D01*
X303226Y173389D01*
X303311Y173353D01*
X303314D01*
X303322Y173351D01*
X303335Y173345D01*
X303352Y173343D01*
X303374Y173337D01*
X303398Y173329D01*
X303428Y173323D01*
X303458Y173315D01*
X303494Y173307D01*
X303532Y173302D01*
X303614Y173288D01*
X303701Y173280D01*
X303794Y173277D01*
X303797D01*
X303808D01*
X303824D01*
X303849Y173280D01*
X303876D01*
X303909Y173283D01*
X303944Y173285D01*
X303985Y173288D01*
X304029Y173293D01*
X304073Y173299D01*
X304168Y173315D01*
X304264Y173340D01*
X304357Y173370D01*
X304359D01*
X304367Y173375D01*
X304378Y173381D01*
X304395Y173386D01*
X304417Y173397D01*
X304438Y173411D01*
X304490Y173441D01*
X304550Y173482D01*
X304608Y173531D01*
X304665Y173591D01*
X304690Y173624D01*
X304714Y173659D01*
Y173662D01*
X304720Y173667D01*
X304725Y173678D01*
X304733Y173695D01*
X304741Y173714D01*
X304752Y173736D01*
X304761Y173760D01*
X304771Y173787D01*
X304793Y173850D01*
X304812Y173924D01*
X304826Y174003D01*
X304829Y174044D01*
X304832Y174088D01*
Y174115D01*
X304829Y174134D01*
X304826Y174159D01*
X304823Y174186D01*
X304818Y174219D01*
X304812Y174252D01*
X304793Y174328D01*
X304780Y174366D01*
X304763Y174407D01*
X304744Y174448D01*
X304722Y174486D01*
X304698Y174525D01*
X304670Y174563D01*
X304668Y174566D01*
X304662Y174571D01*
X304654Y174582D01*
X304640Y174596D01*
X304624Y174609D01*
X304602Y174628D01*
X304578Y174647D01*
X304550Y174669D01*
X304518Y174691D01*
X304482Y174713D01*
X304444Y174735D01*
X304400Y174757D01*
X304354Y174776D01*
X304302Y174795D01*
X304247Y174814D01*
X304190Y174828D01*
X304275Y175161D01*
X304280D01*
X304294Y175155D01*
D02*
G37*
G36*
X283424Y188002D02*
X283418D01*
X283405D01*
X283383D01*
X283355Y188005D01*
X283323Y188007D01*
X283287Y188016D01*
X283249Y188024D01*
X283211Y188038D01*
X283208D01*
X283203Y188040D01*
X283194Y188043D01*
X283181Y188049D01*
X283167Y188057D01*
X283148Y188065D01*
X283104Y188087D01*
X283052Y188114D01*
X282995Y188149D01*
X282935Y188190D01*
X282875Y188240D01*
X282872Y188242D01*
X282867Y188245D01*
X282859Y188253D01*
X282845Y188267D01*
X282831Y188280D01*
X282812Y188300D01*
X282790Y188319D01*
X282766Y188343D01*
X282738Y188371D01*
X282711Y188401D01*
X282678Y188433D01*
X282646Y188472D01*
X282610Y188510D01*
X282575Y188554D01*
X282536Y188597D01*
X282495Y188646D01*
X282493Y188652D01*
X282479Y188665D01*
X282463Y188685D01*
X282438Y188712D01*
X282411Y188745D01*
X282378Y188783D01*
X282343Y188827D01*
X282302Y188870D01*
X282217Y188963D01*
X282127Y189053D01*
X282083Y189097D01*
X282040Y189138D01*
X281999Y189173D01*
X281960Y189203D01*
X281958Y189206D01*
X281952Y189209D01*
X281941Y189217D01*
X281928Y189225D01*
X281908Y189239D01*
X281889Y189250D01*
X281840Y189277D01*
X281783Y189304D01*
X281720Y189329D01*
X281655Y189345D01*
X281622Y189348D01*
X281589Y189351D01*
X281586D01*
X281581D01*
X281570D01*
X281559Y189348D01*
X281543D01*
X281524Y189342D01*
X281483Y189334D01*
X281434Y189318D01*
X281382Y189293D01*
X281354Y189280D01*
X281330Y189261D01*
X281305Y189242D01*
X281281Y189217D01*
X281278Y189214D01*
X281275Y189211D01*
X281270Y189203D01*
X281261Y189192D01*
X281251Y189179D01*
X281240Y189162D01*
X281215Y189124D01*
X281193Y189072D01*
X281171Y189015D01*
X281158Y188947D01*
X281152Y188908D01*
Y188848D01*
X281155Y188832D01*
Y188813D01*
X281160Y188791D01*
X281169Y188742D01*
X281185Y188685D01*
X281210Y188625D01*
X281226Y188594D01*
X281242Y188565D01*
X281264Y188537D01*
X281289Y188510D01*
X281292Y188507D01*
X281294Y188504D01*
X281302Y188499D01*
X281313Y188488D01*
X281327Y188480D01*
X281343Y188469D01*
X281363Y188455D01*
X281384Y188444D01*
X281409Y188431D01*
X281436Y188420D01*
X281502Y188398D01*
X281573Y188382D01*
X281614Y188379D01*
X281657Y188376D01*
X281625Y188059D01*
X281619D01*
X281608Y188062D01*
X281592Y188065D01*
X281567Y188068D01*
X281537Y188073D01*
X281502Y188081D01*
X281464Y188090D01*
X281423Y188103D01*
X281382Y188117D01*
X281335Y188133D01*
X281292Y188155D01*
X281248Y188177D01*
X281201Y188204D01*
X281160Y188234D01*
X281119Y188267D01*
X281084Y188305D01*
X281081Y188308D01*
X281076Y188316D01*
X281068Y188327D01*
X281054Y188343D01*
X281040Y188365D01*
X281024Y188392D01*
X281008Y188423D01*
X280989Y188458D01*
X280972Y188496D01*
X280956Y188540D01*
X280939Y188586D01*
X280926Y188638D01*
X280912Y188693D01*
X280904Y188750D01*
X280898Y188813D01*
X280896Y188878D01*
Y188914D01*
X280898Y188938D01*
X280901Y188969D01*
X280907Y189004D01*
X280912Y189045D01*
X280920Y189086D01*
X280931Y189132D01*
X280945Y189179D01*
X280961Y189228D01*
X280980Y189274D01*
X281005Y189323D01*
X281032Y189370D01*
X281062Y189413D01*
X281098Y189454D01*
X281100Y189457D01*
X281106Y189463D01*
X281119Y189474D01*
X281133Y189487D01*
X281152Y189504D01*
X281177Y189523D01*
X281204Y189542D01*
X281237Y189561D01*
X281270Y189580D01*
X281308Y189599D01*
X281349Y189618D01*
X281393Y189635D01*
X281442Y189648D01*
X281491Y189659D01*
X281543Y189665D01*
X281597Y189667D01*
X281600D01*
X281603D01*
X281611D01*
X281622D01*
X281652Y189665D01*
X281690Y189659D01*
X281736Y189651D01*
X281786Y189640D01*
X281840Y189626D01*
X281895Y189605D01*
X281898D01*
X281900Y189602D01*
X281908Y189599D01*
X281919Y189594D01*
X281949Y189577D01*
X281988Y189556D01*
X282034Y189525D01*
X282086Y189490D01*
X282141Y189449D01*
X282201Y189397D01*
X282203Y189394D01*
X282209Y189392D01*
X282217Y189381D01*
X282231Y189370D01*
X282247Y189353D01*
X282266Y189334D01*
X282291Y189313D01*
X282315Y189285D01*
X282345Y189252D01*
X282378Y189217D01*
X282416Y189179D01*
X282454Y189135D01*
X282498Y189089D01*
X282542Y189037D01*
X282591Y188979D01*
X282643Y188919D01*
X282646Y188917D01*
X282654Y188908D01*
X282665Y188892D01*
X282681Y188876D01*
X282700Y188851D01*
X282722Y188827D01*
X282771Y188769D01*
X282823Y188709D01*
X282878Y188652D01*
X282902Y188625D01*
X282924Y188600D01*
X282946Y188578D01*
X282962Y188562D01*
X282965Y188559D01*
X282976Y188548D01*
X282992Y188534D01*
X283014Y188515D01*
X283039Y188494D01*
X283066Y188472D01*
X283126Y188428D01*
Y189670D01*
X283424D01*
Y188002D01*
D02*
G37*
G36*
X282643Y187754D02*
X282662Y187748D01*
X282692Y187737D01*
X282725Y187726D01*
X282766Y187710D01*
X282809Y187694D01*
X282856Y187672D01*
X282908Y187647D01*
X282957Y187620D01*
X283011Y187590D01*
X283063Y187554D01*
X283112Y187516D01*
X283162Y187475D01*
X283208Y187429D01*
X283252Y187380D01*
X283254Y187377D01*
X283260Y187366D01*
X283271Y187352D01*
X283284Y187330D01*
X283301Y187306D01*
X283320Y187273D01*
X283339Y187238D01*
X283358Y187194D01*
X283377Y187148D01*
X283396Y187099D01*
X283416Y187044D01*
X283432Y186984D01*
X283446Y186921D01*
X283456Y186855D01*
X283462Y186787D01*
X283465Y186714D01*
Y186675D01*
X283462Y186645D01*
X283459Y186612D01*
X283456Y186572D01*
X283451Y186528D01*
X283443Y186479D01*
X283435Y186427D01*
X283424Y186372D01*
X283410Y186318D01*
X283396Y186263D01*
X283377Y186206D01*
X283355Y186151D01*
X283331Y186099D01*
X283301Y186050D01*
X283298Y186047D01*
X283293Y186039D01*
X283284Y186026D01*
X283271Y186009D01*
X283252Y185987D01*
X283233Y185963D01*
X283208Y185935D01*
X283178Y185905D01*
X283145Y185875D01*
X283110Y185843D01*
X283071Y185813D01*
X283028Y185780D01*
X282981Y185747D01*
X282932Y185717D01*
X282878Y185690D01*
X282820Y185662D01*
X282818Y185660D01*
X282807Y185657D01*
X282788Y185652D01*
X282766Y185643D01*
X282736Y185632D01*
X282703Y185622D01*
X282662Y185611D01*
X282618Y185597D01*
X282569Y185586D01*
X282517Y185572D01*
X282463Y185562D01*
X282403Y185553D01*
X282277Y185537D01*
X282211Y185534D01*
X282146Y185531D01*
X282141D01*
X282130D01*
X282108D01*
X282081Y185534D01*
X282045Y185537D01*
X282004Y185540D01*
X281960Y185545D01*
X281911Y185550D01*
X281859Y185559D01*
X281805Y185567D01*
X281687Y185594D01*
X281630Y185613D01*
X281573Y185632D01*
X281513Y185654D01*
X281458Y185682D01*
X281455Y185684D01*
X281444Y185690D01*
X281431Y185698D01*
X281409Y185709D01*
X281384Y185725D01*
X281357Y185744D01*
X281327Y185766D01*
X281292Y185791D01*
X281259Y185821D01*
X281221Y185851D01*
X281185Y185886D01*
X281147Y185925D01*
X281111Y185966D01*
X281076Y186009D01*
X281043Y186058D01*
X281013Y186108D01*
X281010Y186110D01*
X281008Y186121D01*
X280999Y186135D01*
X280989Y186157D01*
X280978Y186181D01*
X280964Y186214D01*
X280950Y186249D01*
X280937Y186288D01*
X280923Y186331D01*
X280909Y186381D01*
X280896Y186430D01*
X280885Y186484D01*
X280866Y186596D01*
X280863Y186656D01*
X280860Y186719D01*
Y186755D01*
X280863Y186782D01*
X280866Y186814D01*
X280871Y186853D01*
X280877Y186894D01*
X280885Y186940D01*
X280896Y186989D01*
X280907Y187041D01*
X280923Y187093D01*
X280942Y187148D01*
X280964Y187202D01*
X280991Y187254D01*
X281018Y187306D01*
X281054Y187355D01*
X281057Y187358D01*
X281062Y187366D01*
X281073Y187380D01*
X281089Y187396D01*
X281109Y187418D01*
X281133Y187442D01*
X281160Y187467D01*
X281193Y187497D01*
X281229Y187527D01*
X281270Y187557D01*
X281313Y187587D01*
X281363Y187614D01*
X281414Y187645D01*
X281472Y187669D01*
X281532Y187694D01*
X281595Y187715D01*
X281671Y187388D01*
X281668D01*
X281660Y187382D01*
X281644Y187380D01*
X281625Y187372D01*
X281603Y187363D01*
X281578Y187350D01*
X281518Y187322D01*
X281453Y187287D01*
X281384Y187240D01*
X281322Y187191D01*
X281294Y187161D01*
X281270Y187131D01*
X281267Y187128D01*
X281264Y187123D01*
X281259Y187115D01*
X281251Y187101D01*
X281240Y187085D01*
X281229Y187066D01*
X281218Y187044D01*
X281207Y187017D01*
X281196Y186986D01*
X281185Y186957D01*
X281163Y186885D01*
X281150Y186804D01*
X281144Y186760D01*
Y186686D01*
X281147Y186664D01*
X281150Y186640D01*
X281152Y186610D01*
X281155Y186577D01*
X281160Y186544D01*
X281180Y186465D01*
X281204Y186383D01*
X281221Y186342D01*
X281240Y186301D01*
X281261Y186263D01*
X281286Y186225D01*
X281289Y186222D01*
X281292Y186217D01*
X281300Y186206D01*
X281311Y186192D01*
X281324Y186178D01*
X281343Y186159D01*
X281363Y186140D01*
X281384Y186118D01*
X281412Y186097D01*
X281439Y186072D01*
X281502Y186028D01*
X281575Y185987D01*
X281660Y185952D01*
X281663D01*
X281671Y185949D01*
X281685Y185944D01*
X281701Y185941D01*
X281723Y185935D01*
X281747Y185927D01*
X281778Y185922D01*
X281807Y185914D01*
X281843Y185905D01*
X281881Y185900D01*
X281963Y185886D01*
X282050Y185878D01*
X282143Y185875D01*
X282146D01*
X282157D01*
X282173D01*
X282198Y185878D01*
X282225D01*
X282258Y185881D01*
X282293Y185884D01*
X282334Y185886D01*
X282378Y185892D01*
X282422Y185897D01*
X282517Y185914D01*
X282613Y185938D01*
X282706Y185968D01*
X282708D01*
X282717Y185974D01*
X282728Y185979D01*
X282744Y185985D01*
X282766Y185995D01*
X282788Y186009D01*
X282839Y186039D01*
X282899Y186080D01*
X282957Y186129D01*
X283014Y186189D01*
X283039Y186222D01*
X283063Y186258D01*
Y186260D01*
X283069Y186266D01*
X283074Y186277D01*
X283082Y186293D01*
X283091Y186312D01*
X283102Y186334D01*
X283110Y186359D01*
X283121Y186386D01*
X283142Y186449D01*
X283162Y186522D01*
X283175Y186602D01*
X283178Y186643D01*
X283181Y186686D01*
Y186714D01*
X283178Y186733D01*
X283175Y186757D01*
X283172Y186785D01*
X283167Y186817D01*
X283162Y186850D01*
X283142Y186926D01*
X283129Y186965D01*
X283112Y187006D01*
X283093Y187047D01*
X283071Y187085D01*
X283047Y187123D01*
X283020Y187161D01*
X283017Y187164D01*
X283011Y187169D01*
X283003Y187180D01*
X282990Y187194D01*
X282973Y187208D01*
X282951Y187227D01*
X282927Y187246D01*
X282899Y187268D01*
X282867Y187290D01*
X282831Y187311D01*
X282793Y187333D01*
X282749Y187355D01*
X282703Y187374D01*
X282651Y187393D01*
X282596Y187412D01*
X282539Y187426D01*
X282624Y187759D01*
X282629D01*
X282643Y187754D01*
D02*
G37*
G36*
X261180Y58782D02*
X259211D01*
X259217Y58777D01*
X259230Y58763D01*
X259249Y58738D01*
X259277Y58703D01*
X259310Y58662D01*
X259345Y58610D01*
X259383Y58553D01*
X259424Y58487D01*
Y58485D01*
X259430Y58479D01*
X259435Y58471D01*
X259440Y58457D01*
X259452Y58441D01*
X259460Y58422D01*
X259484Y58378D01*
X259509Y58329D01*
X259536Y58274D01*
X259561Y58217D01*
X259582Y58162D01*
X259285D01*
X259282Y58165D01*
X259279Y58173D01*
X259271Y58187D01*
X259263Y58206D01*
X259252Y58228D01*
X259236Y58255D01*
X259219Y58285D01*
X259203Y58315D01*
X259159Y58386D01*
X259107Y58463D01*
X259053Y58542D01*
X258990Y58616D01*
X258987Y58618D01*
X258982Y58624D01*
X258974Y58635D01*
X258960Y58648D01*
X258944Y58662D01*
X258927Y58681D01*
X258881Y58722D01*
X258832Y58768D01*
X258774Y58815D01*
X258714Y58856D01*
X258652Y58891D01*
Y59091D01*
X261180D01*
Y58782D01*
D02*
G37*
G36*
X260399Y57636D02*
X260418Y57630D01*
X260448Y57619D01*
X260481Y57608D01*
X260522Y57592D01*
X260565Y57576D01*
X260612Y57554D01*
X260664Y57529D01*
X260713Y57502D01*
X260767Y57472D01*
X260819Y57436D01*
X260868Y57398D01*
X260917Y57357D01*
X260964Y57311D01*
X261008Y57262D01*
X261010Y57259D01*
X261016Y57248D01*
X261027Y57234D01*
X261040Y57212D01*
X261057Y57188D01*
X261076Y57155D01*
X261095Y57120D01*
X261114Y57076D01*
X261133Y57029D01*
X261152Y56980D01*
X261171Y56926D01*
X261188Y56866D01*
X261201Y56803D01*
X261212Y56737D01*
X261218Y56669D01*
X261221Y56595D01*
Y56557D01*
X261218Y56527D01*
X261215Y56494D01*
X261212Y56454D01*
X261207Y56410D01*
X261199Y56361D01*
X261191Y56309D01*
X261180Y56254D01*
X261166Y56200D01*
X261152Y56145D01*
X261133Y56088D01*
X261111Y56033D01*
X261087Y55981D01*
X261057Y55932D01*
X261054Y55929D01*
X261049Y55921D01*
X261040Y55907D01*
X261027Y55891D01*
X261008Y55869D01*
X260988Y55845D01*
X260964Y55817D01*
X260934Y55787D01*
X260901Y55757D01*
X260866Y55725D01*
X260827Y55695D01*
X260784Y55662D01*
X260737Y55629D01*
X260688Y55599D01*
X260634Y55572D01*
X260576Y55544D01*
X260574Y55542D01*
X260563Y55539D01*
X260543Y55533D01*
X260522Y55525D01*
X260492Y55514D01*
X260459Y55503D01*
X260418Y55493D01*
X260374Y55479D01*
X260325Y55468D01*
X260273Y55454D01*
X260219Y55443D01*
X260158Y55435D01*
X260033Y55419D01*
X259967Y55416D01*
X259902Y55413D01*
X259896D01*
X259886D01*
X259864D01*
X259836Y55416D01*
X259801Y55419D01*
X259760Y55422D01*
X259716Y55427D01*
X259667Y55432D01*
X259615Y55441D01*
X259561Y55449D01*
X259443Y55476D01*
X259386Y55495D01*
X259329Y55514D01*
X259269Y55536D01*
X259214Y55563D01*
X259211Y55566D01*
X259200Y55572D01*
X259187Y55580D01*
X259165Y55591D01*
X259140Y55607D01*
X259113Y55626D01*
X259083Y55648D01*
X259047Y55673D01*
X259015Y55703D01*
X258977Y55733D01*
X258941Y55768D01*
X258903Y55806D01*
X258867Y55847D01*
X258832Y55891D01*
X258799Y55940D01*
X258769Y55989D01*
X258766Y55992D01*
X258764Y56003D01*
X258755Y56017D01*
X258744Y56038D01*
X258734Y56063D01*
X258720Y56096D01*
X258706Y56131D01*
X258693Y56169D01*
X258679Y56213D01*
X258665Y56262D01*
X258652Y56312D01*
X258641Y56366D01*
X258622Y56478D01*
X258619Y56538D01*
X258616Y56601D01*
Y56636D01*
X258619Y56664D01*
X258622Y56696D01*
X258627Y56735D01*
X258632Y56776D01*
X258641Y56822D01*
X258652Y56871D01*
X258663Y56923D01*
X258679Y56975D01*
X258698Y57029D01*
X258720Y57084D01*
X258747Y57136D01*
X258774Y57188D01*
X258810Y57237D01*
X258813Y57240D01*
X258818Y57248D01*
X258829Y57262D01*
X258845Y57278D01*
X258864Y57300D01*
X258889Y57324D01*
X258916Y57349D01*
X258949Y57379D01*
X258985Y57409D01*
X259026Y57439D01*
X259069Y57469D01*
X259118Y57496D01*
X259170Y57526D01*
X259228Y57551D01*
X259288Y57576D01*
X259350Y57597D01*
X259427Y57270D01*
X259424D01*
X259416Y57264D01*
X259400Y57262D01*
X259381Y57253D01*
X259359Y57245D01*
X259334Y57231D01*
X259274Y57204D01*
X259208Y57169D01*
X259140Y57122D01*
X259078Y57073D01*
X259050Y57043D01*
X259026Y57013D01*
X259023Y57010D01*
X259020Y57005D01*
X259015Y56997D01*
X259007Y56983D01*
X258996Y56967D01*
X258985Y56948D01*
X258974Y56926D01*
X258963Y56898D01*
X258952Y56868D01*
X258941Y56838D01*
X258919Y56767D01*
X258906Y56686D01*
X258900Y56642D01*
Y56568D01*
X258903Y56546D01*
X258906Y56522D01*
X258908Y56492D01*
X258911Y56459D01*
X258916Y56426D01*
X258935Y56347D01*
X258960Y56265D01*
X258977Y56224D01*
X258996Y56183D01*
X259017Y56145D01*
X259042Y56107D01*
X259045Y56104D01*
X259047Y56099D01*
X259056Y56088D01*
X259067Y56074D01*
X259080Y56060D01*
X259099Y56041D01*
X259118Y56022D01*
X259140Y56000D01*
X259168Y55978D01*
X259195Y55954D01*
X259258Y55910D01*
X259331Y55869D01*
X259416Y55834D01*
X259419D01*
X259427Y55831D01*
X259440Y55826D01*
X259457Y55823D01*
X259479Y55817D01*
X259503Y55809D01*
X259533Y55804D01*
X259563Y55796D01*
X259599Y55787D01*
X259637Y55782D01*
X259719Y55768D01*
X259806Y55760D01*
X259899Y55757D01*
X259902D01*
X259913D01*
X259929D01*
X259954Y55760D01*
X259981D01*
X260014Y55763D01*
X260049Y55765D01*
X260090Y55768D01*
X260134Y55774D01*
X260178Y55779D01*
X260273Y55796D01*
X260369Y55820D01*
X260462Y55850D01*
X260464D01*
X260472Y55856D01*
X260483Y55861D01*
X260500Y55866D01*
X260522Y55877D01*
X260543Y55891D01*
X260595Y55921D01*
X260655Y55962D01*
X260713Y56011D01*
X260770Y56071D01*
X260795Y56104D01*
X260819Y56139D01*
Y56142D01*
X260825Y56148D01*
X260830Y56159D01*
X260838Y56175D01*
X260846Y56194D01*
X260857Y56216D01*
X260866Y56240D01*
X260876Y56268D01*
X260898Y56331D01*
X260917Y56404D01*
X260931Y56484D01*
X260934Y56524D01*
X260937Y56568D01*
Y56595D01*
X260934Y56615D01*
X260931Y56639D01*
X260928Y56666D01*
X260923Y56699D01*
X260917Y56732D01*
X260898Y56808D01*
X260885Y56847D01*
X260868Y56888D01*
X260849Y56928D01*
X260827Y56967D01*
X260803Y57005D01*
X260775Y57043D01*
X260773Y57046D01*
X260767Y57051D01*
X260759Y57062D01*
X260746Y57076D01*
X260729Y57090D01*
X260707Y57109D01*
X260683Y57128D01*
X260655Y57150D01*
X260623Y57171D01*
X260587Y57193D01*
X260549Y57215D01*
X260505Y57237D01*
X260459Y57256D01*
X260407Y57275D01*
X260352Y57294D01*
X260295Y57308D01*
X260380Y57641D01*
X260385D01*
X260399Y57636D01*
D02*
G37*
G36*
X216250Y164117D02*
X216283Y164115D01*
X216321Y164109D01*
X216362Y164104D01*
X216409Y164096D01*
X216458Y164085D01*
X216510Y164074D01*
X216562Y164057D01*
X216616Y164038D01*
X216671Y164016D01*
X216723Y163989D01*
X216775Y163962D01*
X216824Y163926D01*
X216826Y163924D01*
X216834Y163918D01*
X216848Y163907D01*
X216865Y163891D01*
X216886Y163872D01*
X216911Y163847D01*
X216935Y163820D01*
X216966Y163787D01*
X216996Y163752D01*
X217026Y163711D01*
X217056Y163667D01*
X217083Y163618D01*
X217113Y163566D01*
X217138Y163509D01*
X217162Y163449D01*
X217184Y163386D01*
X216856Y163309D01*
Y163312D01*
X216851Y163320D01*
X216848Y163337D01*
X216840Y163356D01*
X216832Y163378D01*
X216818Y163402D01*
X216791Y163462D01*
X216755Y163528D01*
X216709Y163596D01*
X216660Y163659D01*
X216630Y163686D01*
X216600Y163711D01*
X216597Y163713D01*
X216592Y163716D01*
X216583Y163722D01*
X216570Y163730D01*
X216553Y163741D01*
X216534Y163752D01*
X216512Y163762D01*
X216485Y163773D01*
X216455Y163784D01*
X216425Y163795D01*
X216354Y163817D01*
X216272Y163831D01*
X216229Y163836D01*
X216155D01*
X216133Y163833D01*
X216108Y163831D01*
X216078Y163828D01*
X216046Y163825D01*
X216013Y163820D01*
X215934Y163801D01*
X215852Y163776D01*
X215811Y163760D01*
X215770Y163741D01*
X215732Y163719D01*
X215693Y163694D01*
X215691Y163691D01*
X215685Y163689D01*
X215674Y163681D01*
X215661Y163670D01*
X215647Y163656D01*
X215628Y163637D01*
X215609Y163618D01*
X215587Y163596D01*
X215565Y163569D01*
X215541Y163541D01*
X215497Y163479D01*
X215456Y163405D01*
X215420Y163320D01*
Y163318D01*
X215418Y163309D01*
X215412Y163296D01*
X215409Y163279D01*
X215404Y163257D01*
X215396Y163233D01*
X215390Y163203D01*
X215382Y163173D01*
X215374Y163137D01*
X215369Y163099D01*
X215355Y163017D01*
X215347Y162930D01*
X215344Y162837D01*
Y162834D01*
Y162823D01*
Y162807D01*
X215347Y162782D01*
Y162755D01*
X215349Y162722D01*
X215352Y162687D01*
X215355Y162646D01*
X215360Y162602D01*
X215366Y162559D01*
X215382Y162463D01*
X215407Y162367D01*
X215437Y162275D01*
Y162272D01*
X215442Y162264D01*
X215448Y162253D01*
X215453Y162236D01*
X215464Y162215D01*
X215478Y162193D01*
X215508Y162141D01*
X215549Y162081D01*
X215598Y162023D01*
X215658Y161966D01*
X215691Y161942D01*
X215726Y161917D01*
X215729D01*
X215734Y161912D01*
X215745Y161906D01*
X215762Y161898D01*
X215781Y161890D01*
X215803Y161879D01*
X215827Y161871D01*
X215854Y161860D01*
X215917Y161838D01*
X215991Y161819D01*
X216070Y161805D01*
X216111Y161802D01*
X216155Y161800D01*
X216182D01*
X216201Y161802D01*
X216226Y161805D01*
X216253Y161808D01*
X216286Y161813D01*
X216319Y161819D01*
X216395Y161838D01*
X216433Y161852D01*
X216474Y161868D01*
X216515Y161887D01*
X216553Y161909D01*
X216592Y161933D01*
X216630Y161961D01*
X216633Y161963D01*
X216638Y161969D01*
X216649Y161977D01*
X216663Y161991D01*
X216676Y162007D01*
X216695Y162029D01*
X216714Y162054D01*
X216736Y162081D01*
X216758Y162114D01*
X216780Y162149D01*
X216802Y162187D01*
X216824Y162231D01*
X216843Y162277D01*
X216862Y162329D01*
X216881Y162384D01*
X216895Y162441D01*
X217228Y162356D01*
Y162351D01*
X217222Y162337D01*
X217217Y162318D01*
X217206Y162288D01*
X217195Y162256D01*
X217179Y162215D01*
X217162Y162171D01*
X217140Y162125D01*
X217116Y162073D01*
X217088Y162023D01*
X217058Y161969D01*
X217023Y161917D01*
X216985Y161868D01*
X216944Y161819D01*
X216897Y161772D01*
X216848Y161729D01*
X216845Y161726D01*
X216834Y161721D01*
X216821Y161709D01*
X216799Y161696D01*
X216775Y161679D01*
X216742Y161660D01*
X216706Y161641D01*
X216663Y161622D01*
X216616Y161603D01*
X216567Y161584D01*
X216512Y161565D01*
X216452Y161548D01*
X216389Y161535D01*
X216324Y161524D01*
X216256Y161518D01*
X216182Y161516D01*
X216144D01*
X216114Y161518D01*
X216081Y161521D01*
X216040Y161524D01*
X215996Y161529D01*
X215947Y161538D01*
X215895Y161546D01*
X215841Y161557D01*
X215786Y161570D01*
X215732Y161584D01*
X215674Y161603D01*
X215620Y161625D01*
X215568Y161650D01*
X215519Y161679D01*
X215516Y161682D01*
X215508Y161688D01*
X215494Y161696D01*
X215478Y161709D01*
X215456Y161729D01*
X215431Y161748D01*
X215404Y161772D01*
X215374Y161802D01*
X215344Y161835D01*
X215311Y161871D01*
X215281Y161909D01*
X215248Y161952D01*
X215216Y161999D01*
X215186Y162048D01*
X215158Y162103D01*
X215131Y162160D01*
X215128Y162163D01*
X215125Y162174D01*
X215120Y162193D01*
X215112Y162215D01*
X215101Y162245D01*
X215090Y162277D01*
X215079Y162318D01*
X215066Y162362D01*
X215055Y162411D01*
X215041Y162463D01*
X215030Y162518D01*
X215022Y162578D01*
X215005Y162703D01*
X215003Y162769D01*
X215000Y162834D01*
Y162840D01*
Y162851D01*
Y162873D01*
X215003Y162900D01*
X215005Y162935D01*
X215008Y162976D01*
X215014Y163020D01*
X215019Y163069D01*
X215027Y163121D01*
X215035Y163175D01*
X215063Y163293D01*
X215082Y163350D01*
X215101Y163408D01*
X215123Y163468D01*
X215150Y163522D01*
X215153Y163525D01*
X215158Y163536D01*
X215166Y163549D01*
X215177Y163571D01*
X215194Y163596D01*
X215213Y163623D01*
X215235Y163653D01*
X215259Y163689D01*
X215289Y163722D01*
X215319Y163760D01*
X215355Y163795D01*
X215393Y163833D01*
X215434Y163869D01*
X215478Y163904D01*
X215527Y163937D01*
X215576Y163967D01*
X215579Y163970D01*
X215590Y163973D01*
X215603Y163981D01*
X215625Y163992D01*
X215650Y164003D01*
X215683Y164016D01*
X215718Y164030D01*
X215756Y164044D01*
X215800Y164057D01*
X215849Y164071D01*
X215898Y164085D01*
X215953Y164096D01*
X216065Y164115D01*
X216125Y164117D01*
X216188Y164120D01*
X216223D01*
X216250Y164117D01*
D02*
G37*
G36*
X219065Y163749D02*
X218058D01*
X217924Y163072D01*
X217927Y163075D01*
X217935Y163080D01*
X217946Y163085D01*
X217962Y163096D01*
X217984Y163107D01*
X218008Y163121D01*
X218036Y163137D01*
X218069Y163151D01*
X218101Y163165D01*
X218140Y163181D01*
X218219Y163206D01*
X218262Y163216D01*
X218306Y163225D01*
X218352Y163227D01*
X218399Y163230D01*
X218412D01*
X218432Y163227D01*
X218453D01*
X218481Y163222D01*
X218513Y163219D01*
X218552Y163211D01*
X218590Y163203D01*
X218634Y163189D01*
X218677Y163175D01*
X218724Y163156D01*
X218770Y163135D01*
X218816Y163107D01*
X218863Y163077D01*
X218909Y163042D01*
X218953Y163001D01*
X218956Y162998D01*
X218964Y162990D01*
X218975Y162976D01*
X218988Y162960D01*
X219008Y162938D01*
X219027Y162908D01*
X219046Y162878D01*
X219068Y162843D01*
X219090Y162802D01*
X219109Y162755D01*
X219130Y162709D01*
X219147Y162654D01*
X219161Y162600D01*
X219171Y162540D01*
X219180Y162477D01*
X219182Y162411D01*
Y162408D01*
Y162395D01*
Y162378D01*
X219180Y162354D01*
X219177Y162324D01*
X219171Y162291D01*
X219166Y162253D01*
X219158Y162209D01*
X219147Y162165D01*
X219133Y162116D01*
X219117Y162067D01*
X219098Y162018D01*
X219076Y161969D01*
X219049Y161917D01*
X219019Y161868D01*
X218983Y161821D01*
X218980Y161819D01*
X218972Y161808D01*
X218958Y161794D01*
X218939Y161775D01*
X218915Y161750D01*
X218885Y161726D01*
X218849Y161696D01*
X218808Y161669D01*
X218765Y161641D01*
X218716Y161611D01*
X218661Y161587D01*
X218601Y161565D01*
X218538Y161543D01*
X218470Y161529D01*
X218399Y161518D01*
X218322Y161516D01*
X218290D01*
X218265Y161518D01*
X218235Y161521D01*
X218202Y161527D01*
X218164Y161532D01*
X218123Y161540D01*
X218079Y161548D01*
X218033Y161562D01*
X217987Y161579D01*
X217940Y161598D01*
X217894Y161619D01*
X217847Y161644D01*
X217804Y161674D01*
X217760Y161707D01*
X217757Y161709D01*
X217752Y161715D01*
X217741Y161726D01*
X217727Y161742D01*
X217708Y161761D01*
X217689Y161783D01*
X217670Y161811D01*
X217648Y161843D01*
X217626Y161876D01*
X217604Y161914D01*
X217585Y161958D01*
X217566Y162002D01*
X217547Y162051D01*
X217533Y162103D01*
X217523Y162160D01*
X217514Y162217D01*
X217839Y162242D01*
Y162239D01*
X217842Y162231D01*
X217845Y162220D01*
X217847Y162204D01*
X217850Y162185D01*
X217858Y162160D01*
X217872Y162108D01*
X217894Y162051D01*
X217924Y161991D01*
X217959Y161936D01*
X217981Y161912D01*
X218003Y161887D01*
X218006D01*
X218008Y161881D01*
X218017Y161876D01*
X218027Y161868D01*
X218055Y161849D01*
X218093Y161830D01*
X218140Y161808D01*
X218194Y161789D01*
X218254Y161775D01*
X218287Y161772D01*
X218322Y161770D01*
X218344D01*
X218361Y161772D01*
X218380Y161775D01*
X218402Y161778D01*
X218453Y161791D01*
X218513Y161811D01*
X218544Y161824D01*
X218576Y161841D01*
X218609Y161860D01*
X218639Y161881D01*
X218669Y161906D01*
X218699Y161936D01*
X218702Y161939D01*
X218705Y161944D01*
X218713Y161952D01*
X218724Y161966D01*
X218735Y161985D01*
X218748Y162004D01*
X218762Y162029D01*
X218778Y162056D01*
X218792Y162086D01*
X218806Y162119D01*
X218819Y162157D01*
X218830Y162196D01*
X218841Y162239D01*
X218849Y162286D01*
X218852Y162332D01*
X218855Y162384D01*
Y162387D01*
Y162395D01*
Y162408D01*
X218852Y162427D01*
X218849Y162449D01*
X218847Y162477D01*
X218841Y162504D01*
X218836Y162537D01*
X218819Y162602D01*
X218792Y162673D01*
X218776Y162706D01*
X218754Y162739D01*
X218732Y162771D01*
X218705Y162802D01*
X218702Y162804D01*
X218699Y162807D01*
X218688Y162815D01*
X218677Y162826D01*
X218664Y162837D01*
X218644Y162851D01*
X218625Y162864D01*
X218601Y162881D01*
X218573Y162894D01*
X218546Y162908D01*
X218478Y162933D01*
X218443Y162943D01*
X218402Y162952D01*
X218361Y162954D01*
X218317Y162957D01*
X218292D01*
X218262Y162954D01*
X218227Y162949D01*
X218183Y162941D01*
X218137Y162927D01*
X218090Y162911D01*
X218044Y162886D01*
X218039Y162883D01*
X218025Y162875D01*
X218003Y162859D01*
X217976Y162840D01*
X217948Y162812D01*
X217916Y162782D01*
X217886Y162747D01*
X217858Y162709D01*
X217569Y162750D01*
X217812Y164044D01*
X219065D01*
Y163749D01*
D02*
G37*
G36*
X189573Y161513D02*
X189600Y161510D01*
X189633Y161508D01*
X189671Y161499D01*
X189712Y161491D01*
X189758Y161480D01*
X189807Y161464D01*
X189859Y161448D01*
X189911Y161423D01*
X189963Y161396D01*
X190018Y161363D01*
X190067Y161325D01*
X190119Y161281D01*
X190165Y161232D01*
X190168Y161229D01*
X190176Y161218D01*
X190187Y161202D01*
X190203Y161177D01*
X190223Y161147D01*
X190242Y161109D01*
X190263Y161063D01*
X190285Y161008D01*
X190310Y160948D01*
X190332Y160880D01*
X190351Y160803D01*
X190370Y160719D01*
X190386Y160626D01*
X190397Y160525D01*
X190405Y160416D01*
X190408Y160298D01*
Y160295D01*
Y160290D01*
Y160279D01*
Y160266D01*
Y160249D01*
X190405Y160227D01*
Y160205D01*
X190403Y160178D01*
X190400Y160118D01*
X190394Y160050D01*
X190386Y159973D01*
X190375Y159891D01*
X190359Y159804D01*
X190343Y159717D01*
X190321Y159629D01*
X190294Y159542D01*
X190263Y159457D01*
X190228Y159376D01*
X190184Y159302D01*
X190138Y159236D01*
X190135Y159233D01*
X190127Y159223D01*
X190113Y159209D01*
X190094Y159190D01*
X190072Y159168D01*
X190042Y159143D01*
X190010Y159119D01*
X189971Y159092D01*
X189928Y159064D01*
X189878Y159040D01*
X189827Y159015D01*
X189769Y158993D01*
X189709Y158974D01*
X189644Y158960D01*
X189576Y158950D01*
X189502Y158947D01*
X189472D01*
X189453Y158950D01*
X189428Y158952D01*
X189398Y158955D01*
X189365Y158960D01*
X189330Y158969D01*
X189251Y158988D01*
X189212Y159002D01*
X189169Y159018D01*
X189128Y159037D01*
X189090Y159062D01*
X189051Y159086D01*
X189013Y159116D01*
X189010Y159119D01*
X189005Y159124D01*
X188994Y159133D01*
X188983Y159146D01*
X188967Y159162D01*
X188950Y159184D01*
X188931Y159209D01*
X188912Y159236D01*
X188893Y159266D01*
X188874Y159302D01*
X188855Y159340D01*
X188836Y159381D01*
X188819Y159425D01*
X188806Y159471D01*
X188792Y159520D01*
X188784Y159575D01*
X189092Y159599D01*
Y159597D01*
X189095Y159591D01*
X189098Y159583D01*
X189101Y159569D01*
X189109Y159537D01*
X189122Y159498D01*
X189139Y159455D01*
X189161Y159411D01*
X189182Y159370D01*
X189210Y159335D01*
X189212Y159332D01*
X189215Y159329D01*
X189223Y159321D01*
X189232Y159313D01*
X189259Y159291D01*
X189297Y159266D01*
X189341Y159242D01*
X189395Y159223D01*
X189455Y159206D01*
X189488Y159204D01*
X189521Y159201D01*
X189546D01*
X189576Y159206D01*
X189611Y159212D01*
X189652Y159223D01*
X189696Y159236D01*
X189739Y159258D01*
X189783Y159285D01*
X189786D01*
X189788Y159291D01*
X189797Y159296D01*
X189807Y159304D01*
X189832Y159329D01*
X189865Y159365D01*
X189903Y159408D01*
X189941Y159463D01*
X189977Y159526D01*
X190012Y159597D01*
Y159599D01*
X190015Y159605D01*
X190021Y159618D01*
X190026Y159635D01*
X190031Y159654D01*
X190040Y159681D01*
X190048Y159711D01*
X190056Y159744D01*
X190064Y159782D01*
X190070Y159826D01*
X190078Y159875D01*
X190086Y159927D01*
X190092Y159982D01*
X190094Y160042D01*
X190097Y160107D01*
X190100Y160172D01*
X190094Y160167D01*
X190089Y160159D01*
X190080Y160148D01*
X190056Y160118D01*
X190026Y160080D01*
X189985Y160039D01*
X189939Y159998D01*
X189887Y159960D01*
X189829Y159924D01*
X189827D01*
X189821Y159922D01*
X189813Y159916D01*
X189802Y159911D01*
X189786Y159905D01*
X189769Y159897D01*
X189726Y159880D01*
X189674Y159867D01*
X189616Y159853D01*
X189554Y159842D01*
X189488Y159840D01*
X189474D01*
X189458Y159842D01*
X189436D01*
X189409Y159848D01*
X189379Y159851D01*
X189343Y159859D01*
X189305Y159867D01*
X189267Y159880D01*
X189223Y159894D01*
X189180Y159913D01*
X189136Y159935D01*
X189090Y159962D01*
X189046Y159993D01*
X189002Y160028D01*
X188961Y160069D01*
X188959Y160072D01*
X188953Y160080D01*
X188942Y160091D01*
X188926Y160110D01*
X188909Y160132D01*
X188893Y160159D01*
X188871Y160192D01*
X188852Y160227D01*
X188833Y160268D01*
X188811Y160312D01*
X188795Y160361D01*
X188776Y160413D01*
X188762Y160468D01*
X188751Y160528D01*
X188746Y160590D01*
X188743Y160656D01*
Y160659D01*
Y160667D01*
Y160678D01*
X188746Y160697D01*
Y160716D01*
X188748Y160740D01*
X188751Y160770D01*
X188757Y160801D01*
X188767Y160869D01*
X188786Y160942D01*
X188811Y161019D01*
X188847Y161098D01*
Y161101D01*
X188852Y161106D01*
X188857Y161117D01*
X188866Y161131D01*
X188877Y161147D01*
X188888Y161166D01*
X188920Y161213D01*
X188959Y161262D01*
X189008Y161314D01*
X189065Y161366D01*
X189128Y161409D01*
X189130D01*
X189136Y161415D01*
X189147Y161420D01*
X189161Y161426D01*
X189177Y161434D01*
X189196Y161442D01*
X189221Y161453D01*
X189245Y161461D01*
X189305Y161483D01*
X189376Y161499D01*
X189453Y161510D01*
X189534Y161516D01*
X189551D01*
X189573Y161513D01*
D02*
G37*
G36*
X191792D02*
X191825Y161510D01*
X191866Y161508D01*
X191910Y161502D01*
X191959Y161494D01*
X192011Y161486D01*
X192065Y161475D01*
X192120Y161461D01*
X192174Y161448D01*
X192232Y161428D01*
X192286Y161407D01*
X192338Y161382D01*
X192387Y161352D01*
X192390Y161349D01*
X192398Y161344D01*
X192412Y161336D01*
X192428Y161322D01*
X192450Y161303D01*
X192475Y161284D01*
X192502Y161259D01*
X192532Y161229D01*
X192562Y161196D01*
X192595Y161161D01*
X192625Y161123D01*
X192658Y161079D01*
X192690Y161033D01*
X192720Y160983D01*
X192748Y160929D01*
X192775Y160872D01*
X192778Y160869D01*
X192780Y160858D01*
X192786Y160839D01*
X192794Y160817D01*
X192805Y160787D01*
X192816Y160754D01*
X192827Y160713D01*
X192841Y160670D01*
X192851Y160620D01*
X192865Y160568D01*
X192876Y160514D01*
X192884Y160454D01*
X192901Y160328D01*
X192903Y160263D01*
X192906Y160197D01*
Y160192D01*
Y160181D01*
Y160159D01*
X192903Y160132D01*
X192901Y160096D01*
X192898Y160055D01*
X192892Y160012D01*
X192887Y159962D01*
X192879Y159911D01*
X192871Y159856D01*
X192843Y159739D01*
X192824Y159681D01*
X192805Y159624D01*
X192783Y159564D01*
X192756Y159509D01*
X192753Y159506D01*
X192748Y159496D01*
X192740Y159482D01*
X192729Y159460D01*
X192712Y159435D01*
X192693Y159408D01*
X192671Y159378D01*
X192647Y159343D01*
X192617Y159310D01*
X192587Y159272D01*
X192551Y159236D01*
X192513Y159198D01*
X192472Y159162D01*
X192428Y159127D01*
X192379Y159094D01*
X192330Y159064D01*
X192327Y159062D01*
X192316Y159059D01*
X192303Y159051D01*
X192281Y159040D01*
X192256Y159029D01*
X192224Y159015D01*
X192188Y159002D01*
X192150Y158988D01*
X192106Y158974D01*
X192057Y158960D01*
X192008Y158947D01*
X191953Y158936D01*
X191841Y158917D01*
X191781Y158914D01*
X191718Y158911D01*
X191683D01*
X191656Y158914D01*
X191623Y158917D01*
X191585Y158922D01*
X191544Y158928D01*
X191497Y158936D01*
X191448Y158947D01*
X191396Y158958D01*
X191344Y158974D01*
X191290Y158993D01*
X191235Y159015D01*
X191183Y159042D01*
X191132Y159070D01*
X191082Y159105D01*
X191080Y159108D01*
X191071Y159113D01*
X191058Y159124D01*
X191042Y159141D01*
X191020Y159160D01*
X190995Y159184D01*
X190971Y159212D01*
X190940Y159244D01*
X190910Y159280D01*
X190880Y159321D01*
X190850Y159365D01*
X190823Y159414D01*
X190793Y159466D01*
X190769Y159523D01*
X190744Y159583D01*
X190722Y159646D01*
X191050Y159722D01*
Y159720D01*
X191055Y159711D01*
X191058Y159695D01*
X191066Y159676D01*
X191074Y159654D01*
X191088Y159629D01*
X191115Y159569D01*
X191151Y159504D01*
X191197Y159435D01*
X191246Y159373D01*
X191276Y159345D01*
X191306Y159321D01*
X191309Y159318D01*
X191314Y159315D01*
X191323Y159310D01*
X191336Y159302D01*
X191353Y159291D01*
X191372Y159280D01*
X191394Y159269D01*
X191421Y159258D01*
X191451Y159247D01*
X191481Y159236D01*
X191552Y159214D01*
X191634Y159201D01*
X191678Y159195D01*
X191751D01*
X191773Y159198D01*
X191798Y159201D01*
X191828Y159204D01*
X191860Y159206D01*
X191893Y159212D01*
X191972Y159231D01*
X192054Y159255D01*
X192095Y159272D01*
X192136Y159291D01*
X192174Y159313D01*
X192213Y159337D01*
X192215Y159340D01*
X192221Y159343D01*
X192232Y159351D01*
X192245Y159362D01*
X192259Y159376D01*
X192278Y159395D01*
X192297Y159414D01*
X192319Y159435D01*
X192341Y159463D01*
X192366Y159490D01*
X192409Y159553D01*
X192450Y159627D01*
X192486Y159711D01*
Y159714D01*
X192488Y159722D01*
X192494Y159736D01*
X192497Y159752D01*
X192502Y159774D01*
X192510Y159799D01*
X192516Y159829D01*
X192524Y159859D01*
X192532Y159894D01*
X192537Y159932D01*
X192551Y160014D01*
X192559Y160102D01*
X192562Y160195D01*
Y160197D01*
Y160208D01*
Y160224D01*
X192559Y160249D01*
Y160276D01*
X192557Y160309D01*
X192554Y160345D01*
X192551Y160386D01*
X192546Y160429D01*
X192540Y160473D01*
X192524Y160568D01*
X192499Y160664D01*
X192469Y160757D01*
Y160760D01*
X192464Y160768D01*
X192458Y160779D01*
X192453Y160795D01*
X192442Y160817D01*
X192428Y160839D01*
X192398Y160891D01*
X192357Y160951D01*
X192308Y161008D01*
X192248Y161065D01*
X192215Y161090D01*
X192180Y161115D01*
X192177D01*
X192172Y161120D01*
X192161Y161125D01*
X192144Y161134D01*
X192125Y161142D01*
X192104Y161153D01*
X192079Y161161D01*
X192052Y161172D01*
X191989Y161194D01*
X191915Y161213D01*
X191836Y161226D01*
X191795Y161229D01*
X191751Y161232D01*
X191724D01*
X191705Y161229D01*
X191680Y161226D01*
X191653Y161224D01*
X191620Y161218D01*
X191587Y161213D01*
X191511Y161194D01*
X191473Y161180D01*
X191432Y161164D01*
X191391Y161144D01*
X191353Y161123D01*
X191314Y161098D01*
X191276Y161071D01*
X191274Y161068D01*
X191268Y161063D01*
X191257Y161054D01*
X191244Y161041D01*
X191230Y161024D01*
X191211Y161003D01*
X191192Y160978D01*
X191170Y160951D01*
X191148Y160918D01*
X191126Y160882D01*
X191104Y160844D01*
X191082Y160801D01*
X191063Y160754D01*
X191044Y160702D01*
X191025Y160648D01*
X191012Y160590D01*
X190678Y160675D01*
Y160680D01*
X190684Y160694D01*
X190689Y160713D01*
X190700Y160743D01*
X190711Y160776D01*
X190727Y160817D01*
X190744Y160861D01*
X190766Y160907D01*
X190790Y160959D01*
X190818Y161008D01*
X190848Y161063D01*
X190883Y161115D01*
X190921Y161164D01*
X190962Y161213D01*
X191009Y161259D01*
X191058Y161303D01*
X191061Y161306D01*
X191071Y161311D01*
X191085Y161322D01*
X191107Y161336D01*
X191132Y161352D01*
X191164Y161371D01*
X191200Y161390D01*
X191244Y161409D01*
X191290Y161428D01*
X191339Y161448D01*
X191394Y161467D01*
X191454Y161483D01*
X191516Y161497D01*
X191582Y161508D01*
X191650Y161513D01*
X191724Y161516D01*
X191762D01*
X191792Y161513D01*
D02*
G37*
%LPC*%
G36*
X86755Y155163D02*
Y154369D01*
X87891D01*
X86755Y155163D01*
D02*
G37*
G36*
X333919Y177314D02*
X333340D01*
X333318Y177311D01*
X333294D01*
X333239Y177308D01*
X333176Y177303D01*
X333111Y177295D01*
X333048Y177284D01*
X332991Y177270D01*
X332988D01*
X332985Y177267D01*
X332977Y177264D01*
X332966Y177262D01*
X332942Y177251D01*
X332909Y177237D01*
X332873Y177218D01*
X332835Y177196D01*
X332797Y177169D01*
X332764Y177139D01*
X332761Y177136D01*
X332759Y177133D01*
X332745Y177117D01*
X332723Y177090D01*
X332696Y177054D01*
X332669Y177008D01*
X332639Y176953D01*
X332609Y176891D01*
X332581Y176820D01*
Y176817D01*
X332578Y176811D01*
X332576Y176800D01*
X332570Y176784D01*
X332565Y176765D01*
X332559Y176740D01*
X332554Y176713D01*
X332546Y176683D01*
X332540Y176650D01*
X332535Y176612D01*
X332529Y176574D01*
X332524Y176530D01*
X332516Y176437D01*
X332513Y176333D01*
Y176328D01*
Y176317D01*
Y176295D01*
X332516Y176268D01*
Y176235D01*
X332518Y176197D01*
X332524Y176156D01*
X332529Y176110D01*
X332546Y176011D01*
X332568Y175910D01*
X332600Y175815D01*
X332622Y175768D01*
X332644Y175727D01*
X332647Y175725D01*
X332649Y175719D01*
X332658Y175708D01*
X332669Y175692D01*
X332680Y175676D01*
X332696Y175656D01*
X332731Y175613D01*
X332778Y175564D01*
X332832Y175517D01*
X332892Y175474D01*
X332925Y175457D01*
X332961Y175441D01*
X332963D01*
X332966Y175438D01*
X332974Y175435D01*
X332985Y175433D01*
X333002Y175430D01*
X333018Y175425D01*
X333040Y175419D01*
X333064Y175414D01*
X333092Y175411D01*
X333124Y175405D01*
X333160Y175400D01*
X333198Y175397D01*
X333242Y175394D01*
X333288Y175392D01*
X333337Y175389D01*
X333919D01*
Y177314D01*
D02*
G37*
G36*
X393434Y178395D02*
X392853D01*
Y176470D01*
X393431D01*
X393453Y176473D01*
X393478D01*
X393532Y176476D01*
X393595Y176481D01*
X393661Y176489D01*
X393724Y176500D01*
X393781Y176514D01*
X393784D01*
X393786Y176517D01*
X393795Y176519D01*
X393806Y176522D01*
X393830Y176533D01*
X393863Y176547D01*
X393898Y176566D01*
X393937Y176588D01*
X393975Y176615D01*
X394007Y176645D01*
X394010Y176648D01*
X394013Y176650D01*
X394027Y176667D01*
X394049Y176694D01*
X394076Y176730D01*
X394103Y176776D01*
X394133Y176831D01*
X394163Y176893D01*
X394191Y176964D01*
Y176967D01*
X394193Y176972D01*
X394196Y176983D01*
X394201Y177000D01*
X394207Y177019D01*
X394212Y177043D01*
X394218Y177071D01*
X394226Y177101D01*
X394231Y177134D01*
X394237Y177172D01*
X394242Y177210D01*
X394248Y177254D01*
X394256Y177347D01*
X394259Y177450D01*
Y177456D01*
Y177467D01*
Y177489D01*
X394256Y177516D01*
Y177549D01*
X394253Y177587D01*
X394248Y177628D01*
X394242Y177674D01*
X394226Y177772D01*
X394204Y177873D01*
X394171Y177969D01*
X394149Y178015D01*
X394128Y178056D01*
X394125Y178059D01*
X394122Y178065D01*
X394114Y178076D01*
X394103Y178092D01*
X394092Y178108D01*
X394076Y178127D01*
X394040Y178171D01*
X393994Y178220D01*
X393939Y178267D01*
X393879Y178310D01*
X393847Y178327D01*
X393811Y178343D01*
X393808D01*
X393806Y178346D01*
X393797Y178349D01*
X393786Y178351D01*
X393770Y178354D01*
X393754Y178359D01*
X393732Y178365D01*
X393707Y178370D01*
X393680Y178373D01*
X393647Y178378D01*
X393612Y178384D01*
X393573Y178387D01*
X393530Y178389D01*
X393483Y178392D01*
X393434Y178395D01*
D02*
G37*
G36*
X364300Y178351D02*
X363719D01*
Y176426D01*
X364298D01*
X364319Y176429D01*
X364344D01*
X364399Y176432D01*
X364461Y176437D01*
X364527Y176446D01*
X364590Y176457D01*
X364647Y176470D01*
X364650D01*
X364653Y176473D01*
X364661Y176476D01*
X364672Y176478D01*
X364696Y176489D01*
X364729Y176503D01*
X364764Y176522D01*
X364803Y176544D01*
X364841Y176571D01*
X364874Y176601D01*
X364876Y176604D01*
X364879Y176607D01*
X364893Y176623D01*
X364915Y176650D01*
X364942Y176686D01*
X364969Y176732D01*
X364999Y176787D01*
X365029Y176850D01*
X365057Y176921D01*
Y176923D01*
X365059Y176929D01*
X365062Y176940D01*
X365068Y176956D01*
X365073Y176975D01*
X365078Y177000D01*
X365084Y177027D01*
X365092Y177057D01*
X365097Y177090D01*
X365103Y177128D01*
X365108Y177166D01*
X365114Y177210D01*
X365122Y177303D01*
X365125Y177407D01*
Y177412D01*
Y177423D01*
Y177445D01*
X365122Y177472D01*
Y177505D01*
X365119Y177543D01*
X365114Y177584D01*
X365108Y177630D01*
X365092Y177729D01*
X365070Y177830D01*
X365037Y177925D01*
X365016Y177972D01*
X364994Y178013D01*
X364991Y178015D01*
X364988Y178021D01*
X364980Y178032D01*
X364969Y178048D01*
X364958Y178065D01*
X364942Y178084D01*
X364906Y178127D01*
X364860Y178176D01*
X364805Y178223D01*
X364745Y178267D01*
X364713Y178283D01*
X364677Y178299D01*
X364674D01*
X364672Y178302D01*
X364664Y178305D01*
X364653Y178307D01*
X364636Y178310D01*
X364620Y178316D01*
X364598Y178321D01*
X364573Y178327D01*
X364546Y178329D01*
X364513Y178335D01*
X364478Y178340D01*
X364440Y178343D01*
X364396Y178346D01*
X364350Y178349D01*
X364300Y178351D01*
D02*
G37*
G36*
X190100Y160175D02*
X190100Y160172D01*
X190100Y160173D01*
Y160175D01*
D02*
G37*
G36*
X189540Y161262D02*
X189521D01*
X189507Y161259D01*
X189488Y161256D01*
X189469Y161254D01*
X189423Y161243D01*
X189371Y161224D01*
X189341Y161210D01*
X189313Y161196D01*
X189283Y161177D01*
X189256Y161158D01*
X189229Y161134D01*
X189201Y161106D01*
X189199Y161104D01*
X189196Y161098D01*
X189188Y161090D01*
X189180Y161076D01*
X189169Y161060D01*
X189158Y161041D01*
X189144Y161019D01*
X189130Y160992D01*
X189117Y160964D01*
X189103Y160932D01*
X189092Y160896D01*
X189081Y160858D01*
X189073Y160817D01*
X189065Y160770D01*
X189062Y160724D01*
X189059Y160675D01*
Y160672D01*
Y160664D01*
Y160650D01*
X189062Y160631D01*
X189065Y160609D01*
X189068Y160585D01*
X189070Y160558D01*
X189076Y160528D01*
X189092Y160462D01*
X189117Y160394D01*
X189133Y160358D01*
X189152Y160326D01*
X189174Y160295D01*
X189199Y160266D01*
X189201Y160263D01*
X189204Y160260D01*
X189212Y160252D01*
X189223Y160241D01*
X189237Y160230D01*
X189253Y160216D01*
X189294Y160189D01*
X189346Y160162D01*
X189406Y160137D01*
X189474Y160118D01*
X189513Y160115D01*
X189551Y160113D01*
X189570D01*
X189586Y160115D01*
X189603Y160118D01*
X189625Y160121D01*
X189674Y160132D01*
X189731Y160151D01*
X189791Y160178D01*
X189821Y160195D01*
X189851Y160214D01*
X189881Y160238D01*
X189909Y160266D01*
X189911Y160268D01*
X189914Y160274D01*
X189922Y160282D01*
X189930Y160293D01*
X189941Y160306D01*
X189955Y160326D01*
X189969Y160347D01*
X189980Y160372D01*
X189993Y160397D01*
X190007Y160426D01*
X190031Y160495D01*
X190048Y160571D01*
X190050Y160615D01*
X190053Y160659D01*
Y160661D01*
Y160667D01*
Y160675D01*
Y160686D01*
X190050Y160699D01*
Y160716D01*
X190045Y160757D01*
X190037Y160803D01*
X190026Y160855D01*
X190010Y160910D01*
X189988Y160964D01*
Y160967D01*
X189985Y160970D01*
X189980Y160978D01*
X189974Y160989D01*
X189960Y161013D01*
X189939Y161046D01*
X189911Y161082D01*
X189878Y161117D01*
X189843Y161153D01*
X189799Y161186D01*
X189797D01*
X189794Y161188D01*
X189778Y161196D01*
X189753Y161210D01*
X189720Y161224D01*
X189682Y161237D01*
X189638Y161251D01*
X189589Y161259D01*
X189540Y161262D01*
D02*
G37*
%LPD*%
D12*
X89788Y150370D02*
Y165378D01*
X81866Y150370D02*
X89788D01*
X81866D02*
Y165378D01*
X89788D01*
X329331Y174705D02*
X339173D01*
X329331D02*
Y179035D01*
X339173D01*
Y174705D02*
Y179035D01*
X196827Y50665D02*
X204748D01*
Y65674D01*
X196827D02*
X204748D01*
X196827Y50665D02*
Y65674D01*
X387598Y174705D02*
Y179035D01*
Y174705D02*
X397441D01*
Y179035D01*
X387598D02*
X397441D01*
X358465Y174705D02*
Y179035D01*
Y174705D02*
X368307D01*
Y179035D01*
X358465D02*
X368307D01*
X301157Y165429D02*
Y180437D01*
X309079D01*
Y165429D02*
Y180437D01*
X301157Y165429D02*
X309079D01*
X279504Y178027D02*
Y193036D01*
X287425D01*
Y178027D02*
Y193036D01*
X279504Y178027D02*
X287425D01*
X257260Y47909D02*
Y62918D01*
X265181D01*
Y47909D02*
Y62918D01*
X257260Y47909D02*
X265181D01*
X207496Y165477D02*
X222504D01*
Y157555D02*
Y165477D01*
X207496Y157555D02*
X222504D01*
X207496D02*
Y165477D01*
X200410Y157555D02*
Y165477D01*
X185402D02*
X200410D01*
X185402Y157555D02*
Y165477D01*
Y157555D02*
X200410D01*
M02*
