G04*
G04 #@! TF.GenerationSoftware,Altium Limited,Altium Designer,21.2.1 (34)*
G04*
G04 Layer_Color=65535*
%FSLAX25Y25*%
%MOIN*%
G70*
G04*
G04 #@! TF.SameCoordinates,376BEF27-1B36-4492-BBE4-843C7A460007*
G04*
G04*
G04 #@! TF.FilePolarity,Positive*
G04*
G01*
G75*
%ADD10C,0.00984*%
%ADD11C,0.00394*%
%ADD12C,0.00787*%
%ADD13C,0.01000*%
%ADD14C,0.00600*%
D10*
X346555Y137402D02*
G03*
X346555Y137402I-492J0D01*
G01*
X317421D02*
G03*
X317421Y137402I-492J0D01*
G01*
X302461Y137402D02*
G03*
X302461Y137402I-492J0D01*
G01*
X211122Y129823D02*
G03*
X211122Y129823I-492J0D01*
G01*
X100886Y127756D02*
G03*
X100886Y127756I-492J0D01*
G01*
D11*
X191929Y46949D02*
G03*
X191929Y59547I0J6299D01*
G01*
D02*
G03*
X191929Y46949I0J-6299D01*
G01*
X240748Y131890D02*
X245472D01*
X62709Y113784D02*
X68771Y113782D01*
X358531Y125985D02*
Y129921D01*
X360499D01*
X361155Y129265D01*
Y127953D01*
X360499Y127297D01*
X358531D01*
X359843D02*
X361155Y125985D01*
X362467Y129921D02*
X365091D01*
Y129265D01*
X362467Y126641D01*
Y125985D01*
X329397D02*
Y129921D01*
X331365D01*
X332021Y129265D01*
Y127953D01*
X331365Y127297D01*
X329397D01*
X330709D02*
X332021Y125985D01*
X335957Y129921D02*
X334645Y129265D01*
X333333Y127953D01*
Y126641D01*
X333989Y125985D01*
X335301D01*
X335957Y126641D01*
Y127297D01*
X335301Y127953D01*
X333333D01*
X301051Y125985D02*
Y129921D01*
X303019D01*
X303675Y129265D01*
Y127953D01*
X303019Y127297D01*
X301051D01*
X302363D02*
X303675Y125985D01*
X307611Y129921D02*
X304987D01*
Y127953D01*
X306299Y128609D01*
X306955D01*
X307611Y127953D01*
Y126641D01*
X306955Y125985D01*
X305643D01*
X304987Y126641D01*
X340031Y145997D02*
Y142061D01*
X341998D01*
X342654Y142717D01*
Y145341D01*
X341998Y145997D01*
X340031D01*
X346590D02*
X343966D01*
Y142061D01*
X346590D01*
X343966Y144029D02*
X345278D01*
X347902Y145997D02*
Y142061D01*
X349870D01*
X350526Y142717D01*
Y143373D01*
X349870Y144029D01*
X347902D01*
X349870D01*
X350526Y144685D01*
Y145341D01*
X349870Y145997D01*
X347902D01*
X351838D02*
Y142717D01*
X352494Y142061D01*
X353806D01*
X354462Y142717D01*
Y145997D01*
X358397Y145341D02*
X357741Y145997D01*
X356429D01*
X355773Y145341D01*
Y142717D01*
X356429Y142061D01*
X357741D01*
X358397Y142717D01*
Y144029D01*
X357085D01*
X359709Y141405D02*
X362333D01*
X366269Y142061D02*
X363645D01*
X366269Y144685D01*
Y145341D01*
X365613Y145997D01*
X364301D01*
X363645Y145341D01*
X311553Y145997D02*
Y142061D01*
X313520D01*
X314176Y142717D01*
Y145341D01*
X313520Y145997D01*
X311553D01*
X318112D02*
X315488D01*
Y142061D01*
X318112D01*
X315488Y144029D02*
X316800D01*
X319424Y145997D02*
Y142061D01*
X321392D01*
X322048Y142717D01*
Y143373D01*
X321392Y144029D01*
X319424D01*
X321392D01*
X322048Y144685D01*
Y145341D01*
X321392Y145997D01*
X319424D01*
X323360D02*
Y142717D01*
X324016Y142061D01*
X325328D01*
X325984Y142717D01*
Y145997D01*
X329919Y145341D02*
X329263Y145997D01*
X327952D01*
X327295Y145341D01*
Y142717D01*
X327952Y142061D01*
X329263D01*
X329919Y142717D01*
Y144029D01*
X328608D01*
X331231Y141405D02*
X333855D01*
X335167Y142061D02*
X336479D01*
X335823D01*
Y145997D01*
X335167Y145341D01*
X285699Y142127D02*
Y146062D01*
X287666D01*
X288322Y145406D01*
Y144095D01*
X287666Y143438D01*
X285699D01*
X291602Y146062D02*
X290290D01*
X289634Y145406D01*
Y142783D01*
X290290Y142127D01*
X291602D01*
X292258Y142783D01*
Y145406D01*
X291602Y146062D01*
X293570D02*
Y142127D01*
X294882Y143438D01*
X296194Y142127D01*
Y146062D01*
X300130D02*
X297506D01*
Y142127D01*
X300130D01*
X297506Y144095D02*
X298818D01*
X301442Y142127D02*
Y146062D01*
X303409D01*
X304065Y145406D01*
Y144095D01*
X303409Y143438D01*
X301442D01*
X302753D02*
X304065Y142127D01*
X179528Y47376D02*
X180184D01*
X181496Y48688D01*
X180184Y50000D01*
X179528D01*
X181496Y48688D02*
X183464D01*
Y51312D02*
Y52624D01*
Y51968D01*
X179528D01*
X180184Y51312D01*
X175296Y8532D02*
Y9843D01*
Y9188D01*
X179232D01*
Y8532D01*
Y9843D01*
X175952Y14435D02*
X175296Y13779D01*
Y12467D01*
X175952Y11811D01*
X178576D01*
X179232Y12467D01*
Y13779D01*
X178576Y14435D01*
X179232Y15747D02*
Y17059D01*
Y16403D01*
X175296D01*
X175952Y15747D01*
X141486Y120527D02*
X140830Y119871D01*
Y118559D01*
X141486Y117903D01*
X144109D01*
X144765Y118559D01*
Y119871D01*
X144109Y120527D01*
X140830Y124462D02*
X141486Y123150D01*
X142797Y121838D01*
X144109D01*
X144765Y122494D01*
Y123806D01*
X144109Y124462D01*
X143453D01*
X142797Y123806D01*
Y121838D01*
X102424Y173880D02*
X101768Y174536D01*
X100456D01*
X99800Y173880D01*
Y173224D01*
X100456Y172568D01*
X101768D01*
X102424Y171912D01*
Y171256D01*
X101768Y170600D01*
X100456D01*
X99800Y171256D01*
X103736Y174536D02*
Y170600D01*
X105048Y171912D01*
X106360Y170600D01*
Y174536D01*
X107671Y170600D02*
X108983D01*
X108327D01*
Y174536D01*
X107671Y173880D01*
X11024Y87280D02*
X10368Y87936D01*
X9056D01*
X8400Y87280D01*
Y86624D01*
X9056Y85968D01*
X10368D01*
X11024Y85312D01*
Y84656D01*
X10368Y84000D01*
X9056D01*
X8400Y84656D01*
X14304Y84000D02*
Y87936D01*
X12336Y85968D01*
X14960D01*
X82824Y87280D02*
X82168Y87936D01*
X80856D01*
X80200Y87280D01*
Y86624D01*
X80856Y85968D01*
X82168D01*
X82824Y85312D01*
Y84656D01*
X82168Y84000D01*
X80856D01*
X80200Y84656D01*
X84136Y87280D02*
X84792Y87936D01*
X86104D01*
X86760Y87280D01*
Y86624D01*
X86104Y85968D01*
X85448D01*
X86104D01*
X86760Y85312D01*
Y84656D01*
X86104Y84000D01*
X84792D01*
X84136Y84656D01*
X260024Y87280D02*
X259368Y87936D01*
X258056D01*
X257400Y87280D01*
Y86624D01*
X258056Y85968D01*
X259368D01*
X260024Y85312D01*
Y84656D01*
X259368Y84000D01*
X258056D01*
X257400Y84656D01*
X263960Y84000D02*
X261336D01*
X263960Y86624D01*
Y87280D01*
X263304Y87936D01*
X261992D01*
X261336Y87280D01*
X329384Y87479D02*
X328728Y88135D01*
X327416D01*
X326760Y87479D01*
Y86823D01*
X327416Y86167D01*
X328728D01*
X329384Y85511D01*
Y84855D01*
X328728Y84199D01*
X327416D01*
X326760Y84855D01*
X330696Y84199D02*
X332008D01*
X331352D01*
Y88135D01*
X330696Y87479D01*
X224066Y29528D02*
Y33464D01*
X226034D01*
X226690Y32808D01*
Y31496D01*
X226034Y30840D01*
X224066D01*
X225378D02*
X226690Y29528D01*
X228002D02*
X229314D01*
X228658D01*
Y33464D01*
X228002Y32808D01*
X228964Y106245D02*
Y110181D01*
X230932D01*
X231588Y109525D01*
Y108213D01*
X230932Y107557D01*
X228964D01*
X230276D02*
X231588Y106245D01*
X234868D02*
Y110181D01*
X232900Y108213D01*
X235523D01*
X225280Y53150D02*
Y57086D01*
X227248D01*
X227904Y56430D01*
Y55118D01*
X227248Y54462D01*
X225280D01*
X226592D02*
X227904Y53150D01*
X229216Y56430D02*
X229872Y57086D01*
X231184D01*
X231840Y56430D01*
Y55774D01*
X231184Y55118D01*
X230528D01*
X231184D01*
X231840Y54462D01*
Y53806D01*
X231184Y53150D01*
X229872D01*
X229216Y53806D01*
X217350Y53150D02*
Y57086D01*
X219318D01*
X219974Y56430D01*
Y55118D01*
X219318Y54462D01*
X217350D01*
X218662D02*
X219974Y53150D01*
X223910D02*
X221286D01*
X223910Y55774D01*
Y56430D01*
X223254Y57086D01*
X221942D01*
X221286Y56430D01*
X240215Y133756D02*
Y137692D01*
X242183D01*
X242839Y137036D01*
Y135724D01*
X242183Y135068D01*
X240215D01*
X246775Y137036D02*
X246119Y137692D01*
X244807D01*
X244151Y137036D01*
Y136380D01*
X244807Y135724D01*
X246119D01*
X246775Y135068D01*
Y134412D01*
X246119Y133756D01*
X244807D01*
X244151Y134412D01*
X248087Y133756D02*
X249399D01*
X248743D01*
Y137692D01*
X248087Y137036D01*
X22943Y168438D02*
Y172374D01*
X24911D01*
X25567Y171718D01*
Y170406D01*
X24911Y169750D01*
X22943D01*
X26879Y168438D02*
X28191D01*
X27535D01*
Y172374D01*
X26879Y171718D01*
X159209Y193274D02*
X157897D01*
X158553D01*
Y189994D01*
X157897Y189338D01*
X157241D01*
X156585Y189994D01*
X160521Y189338D02*
X161833D01*
X161177D01*
Y193274D01*
X160521Y192618D01*
X55300Y130136D02*
X56612D01*
X55956D01*
Y126200D01*
X55300D01*
X56612D01*
X61204Y129480D02*
X60548Y130136D01*
X59236D01*
X58580Y129480D01*
Y126856D01*
X59236Y126200D01*
X60548D01*
X61204Y126856D01*
X65139Y126200D02*
X62515D01*
X65139Y128824D01*
Y129480D01*
X64483Y130136D01*
X63171D01*
X62515Y129480D01*
X160002Y109597D02*
X161314D01*
X160658D01*
Y105661D01*
X160002D01*
X161314D01*
X165905Y108941D02*
X165250Y109597D01*
X163938D01*
X163282Y108941D01*
Y106317D01*
X163938Y105661D01*
X165250D01*
X165905Y106317D01*
X167217Y108941D02*
X167873Y109597D01*
X169185D01*
X169841Y108941D01*
Y108285D01*
X169185Y107629D01*
X168529D01*
X169185D01*
X169841Y106973D01*
Y106317D01*
X169185Y105661D01*
X167873D01*
X167217Y106317D01*
X266144Y145552D02*
X265489Y146208D01*
X264177D01*
X263521Y145552D01*
Y142928D01*
X264177Y142272D01*
X265489D01*
X266144Y142928D01*
X267456Y145552D02*
X268112Y146208D01*
X269424D01*
X270080Y145552D01*
Y144896D01*
X269424Y144240D01*
X268768D01*
X269424D01*
X270080Y143584D01*
Y142928D01*
X269424Y142272D01*
X268112D01*
X267456Y142928D01*
X244226Y157611D02*
X243570Y158267D01*
X242258D01*
X241602Y157611D01*
Y154987D01*
X242258Y154331D01*
X243570D01*
X244226Y154987D01*
X248162Y154331D02*
X245538D01*
X248162Y156955D01*
Y157611D01*
X247506Y158267D01*
X246194D01*
X245538Y157611D01*
X155766Y33853D02*
X155110Y34509D01*
X153798D01*
X153142Y33853D01*
Y31229D01*
X153798Y30573D01*
X155110D01*
X155766Y31229D01*
X157078Y30573D02*
X158390D01*
X157734D01*
Y34509D01*
X157078Y33853D01*
X45124Y131980D02*
X44468Y132636D01*
X43156D01*
X42500Y131980D01*
Y129356D01*
X43156Y128700D01*
X44468D01*
X45124Y129356D01*
X48404Y128700D02*
Y132636D01*
X46436Y130668D01*
X49060D01*
X164042Y120604D02*
X163386Y119948D01*
Y118636D01*
X164042Y117980D01*
X166666D01*
X167322Y118636D01*
Y119948D01*
X166666Y120604D01*
X163386Y124540D02*
Y121916D01*
X165354D01*
X164698Y123228D01*
Y123884D01*
X165354Y124540D01*
X166666D01*
X167322Y123884D01*
Y122572D01*
X166666Y121916D01*
D12*
X8881Y80709D02*
X67936D01*
Y21654D02*
Y80709D01*
X8881Y21654D02*
X67936D01*
X8881D02*
Y80709D01*
X349803Y134055D02*
X356496D01*
X349803Y140748D02*
X356496D01*
X320669Y134055D02*
X327362D01*
X320669Y140748D02*
X327362D01*
X291535Y140748D02*
X298228D01*
X291535Y134055D02*
X298228D01*
X171693Y64272D02*
Y71850D01*
X171653Y73228D02*
X222047D01*
Y100000D01*
X171653D02*
X222047D01*
X171653Y73228D02*
Y100000D01*
X180512Y9216D02*
Y15023D01*
X181496Y16401D02*
X212205D01*
Y30968D01*
X181496D02*
X212205D01*
X181496Y16401D02*
Y30968D01*
X246850Y131693D02*
X249213D01*
Y120276D02*
Y131693D01*
X246850Y120276D02*
X249213D01*
X246850D02*
Y131693D01*
X61909Y114469D02*
X62500D01*
X61909D02*
Y122343D01*
X62500D01*
Y114469D02*
Y122343D01*
X327301Y80908D02*
X386356D01*
Y21853D02*
Y80908D01*
X327301Y21853D02*
X386356D01*
X327301D02*
Y80908D01*
X74646Y146122D02*
Y166713D01*
X23465D02*
X74646D01*
X23465Y146122D02*
X74646D01*
X23465D02*
Y166713D01*
X269315Y127929D02*
Y139000D01*
X262181Y127929D02*
Y139000D01*
X247662Y140527D02*
Y151599D01*
X240527Y140527D02*
Y151599D01*
X153519Y28764D02*
X164591D01*
X153519Y21630D02*
X164591D01*
X170094Y118480D02*
X181166D01*
X170094Y125614D02*
X181166D01*
X148000Y118480D02*
X159072D01*
X148000Y125614D02*
X159072D01*
X167441Y137795D02*
Y144075D01*
X214567Y137795D02*
X226260D01*
X204724D02*
X206693D01*
X187008D02*
X188976D01*
X167441D02*
X179134D01*
X226260D02*
Y144075D01*
X257874Y21654D02*
Y80709D01*
Y21654D02*
X316929D01*
Y80709D01*
X257874D02*
X316929D01*
X80709Y21654D02*
Y80709D01*
Y21654D02*
X139764D01*
Y80709D01*
X80709D02*
X139764D01*
X102362Y133858D02*
X125984D01*
X102362Y157480D02*
X125984D01*
Y133858D02*
Y157480D01*
X102362Y133858D02*
Y157480D01*
X50024Y112870D02*
Y123941D01*
X42889Y112870D02*
Y123941D01*
D13*
X299188Y181888D02*
Y185887D01*
X301187Y187886D01*
X303187Y185887D01*
Y181888D01*
Y184887D01*
X299188D01*
X305186Y181888D02*
Y185887D01*
X308185D01*
X309185Y184887D01*
Y181888D01*
X312184Y186887D02*
Y185887D01*
X311184D01*
X313183D01*
X312184D01*
Y182888D01*
X313183Y181888D01*
X317182D02*
X319181D01*
X320181Y182888D01*
Y184887D01*
X319181Y185887D01*
X317182D01*
X316182Y184887D01*
Y182888D01*
X317182Y181888D01*
X322181D02*
Y185887D01*
X325180D01*
X326179Y184887D01*
Y181888D01*
X334177Y184887D02*
X338175D01*
X350171Y181888D02*
X346173D01*
X350171Y185887D01*
Y186887D01*
X349172Y187886D01*
X347172D01*
X346173Y186887D01*
X352171D02*
X353170Y187886D01*
X355170D01*
X356170Y186887D01*
Y182888D01*
X355170Y181888D01*
X353170D01*
X352171Y182888D01*
Y186887D01*
X362168Y181888D02*
X358169D01*
X362168Y185887D01*
Y186887D01*
X361168Y187886D01*
X359169D01*
X358169Y186887D01*
X364167Y181888D02*
X366166D01*
X365167D01*
Y187886D01*
X364167Y186887D01*
X281194Y172291D02*
Y178289D01*
X284193D01*
X285192Y177289D01*
Y175290D01*
X284193Y174290D01*
X281194D01*
X287192Y176289D02*
Y172291D01*
Y174290D01*
X288192Y175290D01*
X289191Y176289D01*
X290191D01*
X294190Y172291D02*
X296189D01*
X297189Y173290D01*
Y175290D01*
X296189Y176289D01*
X294190D01*
X293190Y175290D01*
Y173290D01*
X294190Y172291D01*
X299188Y170291D02*
X300188D01*
X301187Y171291D01*
Y176289D01*
X308185Y172291D02*
X306186D01*
X305186Y173290D01*
Y175290D01*
X306186Y176289D01*
X308185D01*
X309185Y175290D01*
Y174290D01*
X305186D01*
X315183Y176289D02*
X312184D01*
X311184Y175290D01*
Y173290D01*
X312184Y172291D01*
X315183D01*
X318182Y177289D02*
Y176289D01*
X317182D01*
X319181D01*
X318182D01*
Y173290D01*
X319181Y172291D01*
X328179Y178289D02*
Y172291D01*
X331178D01*
X332177Y173290D01*
Y174290D01*
X331178Y175290D01*
X328179D01*
X331178D01*
X332177Y176289D01*
Y177289D01*
X331178Y178289D01*
X328179D01*
X334177Y176289D02*
Y173290D01*
X335176Y172291D01*
X338175D01*
Y176289D01*
X340175D02*
Y172291D01*
Y174290D01*
X341174Y175290D01*
X342174Y176289D01*
X343174D01*
X347172D02*
X349172D01*
X350171Y175290D01*
Y172291D01*
X347172D01*
X346173Y173290D01*
X347172Y174290D01*
X350171D01*
X352171Y172291D02*
Y176289D01*
X355170D01*
X356170Y175290D01*
Y172291D01*
X364167Y176289D02*
X366166Y172291D01*
X368166Y176289D01*
X370165Y172291D02*
X372164D01*
X371165D01*
Y178289D01*
X370165Y177289D01*
X375163Y172291D02*
Y173290D01*
X376163D01*
Y172291D01*
X375163D01*
X380162Y177289D02*
X381161Y178289D01*
X383161D01*
X384160Y177289D01*
Y173290D01*
X383161Y172291D01*
X381161D01*
X380162Y173290D01*
Y177289D01*
D14*
X22154Y159961D02*
X19488D01*
X22154Y162626D01*
Y163293D01*
X21487Y163959D01*
X20155D01*
X19488Y163293D01*
X20669Y149331D02*
X22002D01*
X21336D01*
Y153329D01*
X20669Y152663D01*
X75866Y149997D02*
X76533Y149331D01*
X77865D01*
X78532Y149997D01*
Y152663D01*
X77865Y153329D01*
X76533D01*
X75866Y152663D01*
Y151997D01*
X76533Y151330D01*
X78532D01*
X75866Y159961D02*
X77199D01*
X76533D01*
Y163959D01*
X75866Y163293D01*
X79198D02*
X79865Y163959D01*
X81198D01*
X81864Y163293D01*
Y160627D01*
X81198Y159961D01*
X79865D01*
X79198Y160627D01*
Y163293D01*
M02*
