G04*
G04 #@! TF.GenerationSoftware,Altium Limited,Altium Designer,21.3.2 (30)*
G04*
G04 Layer_Color=12632256*
%FSLAX25Y25*%
%MOIN*%
G70*
G04*
G04 #@! TF.SameCoordinates,75D106E2-5011-445C-8AED-ED28EDA0CE08*
G04*
G04*
G04 #@! TF.FilePolarity,Positive*
G04*
G01*
G75*
%ADD37C,0.13780*%
%ADD43R,0.04331X0.04331*%
%ADD44C,0.04331*%
%ADD45C,0.05118*%
%ADD46C,0.04724*%
%ADD47C,0.03583*%
D37*
X170984Y152539D02*
D03*
X222716Y152539D02*
D03*
D43*
X35276Y153150D02*
D03*
D44*
Y158150D02*
D03*
X40276Y153150D02*
D03*
Y158150D02*
D03*
X45276Y153150D02*
D03*
Y158150D02*
D03*
X50276Y153150D02*
D03*
Y158150D02*
D03*
X55276Y153150D02*
D03*
Y158150D02*
D03*
D45*
X53409Y68996D02*
D03*
X23409D02*
D03*
X63409Y26280D02*
D03*
X13409D02*
D03*
X63409Y76279D02*
D03*
X13409D02*
D03*
X85236D02*
D03*
X135236D02*
D03*
X85236Y26280D02*
D03*
X135236D02*
D03*
X95236Y68996D02*
D03*
X125236D02*
D03*
X331828Y76479D02*
D03*
X381828D02*
D03*
X331828Y26479D02*
D03*
X381828D02*
D03*
X341828Y69195D02*
D03*
X371828D02*
D03*
X262402Y76279D02*
D03*
X312402D02*
D03*
X262402Y26280D02*
D03*
X312402D02*
D03*
X272402Y68996D02*
D03*
X302402D02*
D03*
D46*
X41558Y59153D02*
D03*
X47464Y43406D02*
D03*
X41558D02*
D03*
X47464Y59153D02*
D03*
X119291D02*
D03*
Y43406D02*
D03*
X113386D02*
D03*
Y59153D02*
D03*
X365883Y59353D02*
D03*
Y43605D02*
D03*
X359978D02*
D03*
Y59353D02*
D03*
X296457Y59153D02*
D03*
Y43406D02*
D03*
X290551D02*
D03*
Y59153D02*
D03*
D47*
X189764Y54331D02*
D03*
X194095D02*
D03*
M02*
