G04*
G04 #@! TF.GenerationSoftware,Altium Limited,Altium Designer,22.3.1 (43)*
G04*
G04 Layer_Color=32768*
%FSLAX25Y25*%
%MOIN*%
G70*
G04*
G04 #@! TF.SameCoordinates,8ED6FF1A-C223-48F4-A418-E12A0B0AD757*
G04*
G04*
G04 #@! TF.FilePolarity,Positive*
G04*
G01*
G75*
%ADD11C,0.00394*%
%ADD12C,0.00787*%
%ADD51C,0.00197*%
D11*
X67618Y205945D02*
X101673D01*
Y184095D02*
Y205945D01*
X67618Y184095D02*
X101673D01*
X67618D02*
Y205945D01*
X208268Y56890D02*
X212008D01*
X210138Y55020D02*
Y58760D01*
X390650Y166634D02*
X394390D01*
X392520Y164764D02*
Y168504D01*
X361516Y166634D02*
X365256D01*
X363386Y164764D02*
Y168504D01*
X332382Y166634D02*
X336122D01*
X334252Y164764D02*
Y168504D01*
X273130Y139961D02*
Y143701D01*
X271260Y141831D02*
X275000D01*
X267016Y104628D02*
X270756D01*
X268886Y102758D02*
Y106498D01*
X275284Y104628D02*
X279024D01*
X277154Y102758D02*
Y106498D01*
X151575Y185138D02*
X155512D01*
X153543Y183169D02*
Y187106D01*
D12*
X89788Y150370D02*
Y165378D01*
X81866Y150370D02*
X89788D01*
X81866D02*
Y165378D01*
X89788D01*
X329331Y174705D02*
X339173D01*
X329331D02*
Y179035D01*
X339173D01*
Y174705D02*
Y179035D01*
X196827Y50665D02*
X204748D01*
Y65674D01*
X196827D02*
X204748D01*
X196827Y50665D02*
Y65674D01*
X387598Y174705D02*
Y179035D01*
Y174705D02*
X397441D01*
Y179035D01*
X387598D02*
X397441D01*
X358465Y174705D02*
Y179035D01*
Y174705D02*
X368307D01*
Y179035D01*
X358465D02*
X368307D01*
X301157Y165429D02*
Y180437D01*
X309079D01*
Y165429D02*
Y180437D01*
X301157Y165429D02*
X309079D01*
X279504Y178027D02*
Y193036D01*
X287425D01*
Y178027D02*
Y193036D01*
X279504Y178027D02*
X287425D01*
X257260Y47909D02*
Y62918D01*
X265181D01*
Y47909D02*
Y62918D01*
X257260Y47909D02*
X265181D01*
X207496Y165477D02*
X222504D01*
Y157555D02*
Y165477D01*
X207496Y157555D02*
X222504D01*
X207496D02*
Y165477D01*
X200410Y157555D02*
Y165477D01*
X185402D02*
X200410D01*
X185402Y157555D02*
Y165477D01*
Y157555D02*
X200410D01*
D51*
X209646Y102756D02*
X262795D01*
Y149409D01*
X209646D02*
X262795D01*
X209646Y102756D02*
Y149409D01*
X260039Y187323D02*
Y209291D01*
X206890Y187323D02*
X260039D01*
X206890D02*
Y209291D01*
X260039D01*
X108760Y152559D02*
Y163189D01*
X94390D02*
X108760D01*
X94390Y152559D02*
Y163189D01*
Y152559D02*
X108760D01*
X219685Y47700D02*
Y78605D01*
X252756D01*
Y47700D02*
Y78605D01*
X219685Y47700D02*
X252756D01*
X207185Y51772D02*
Y62008D01*
X213091Y51772D02*
Y62008D01*
X207185Y51772D02*
X213091D01*
X207185Y62008D02*
X213091D01*
X387402Y163681D02*
Y169587D01*
X397638Y163681D02*
Y169587D01*
X387402D02*
X397638D01*
X387402Y163681D02*
X397638D01*
X368504Y163681D02*
Y169587D01*
X358268Y163681D02*
Y169587D01*
Y163681D02*
X368504D01*
X358268Y169587D02*
X368504D01*
X339370Y163681D02*
Y169587D01*
X329134Y163681D02*
Y169587D01*
Y163681D02*
X339370D01*
X329134Y169587D02*
X339370D01*
X279134Y172441D02*
X295669D01*
Y158465D02*
Y172441D01*
X279134Y158465D02*
X295669D01*
X279134D02*
Y172441D01*
X268012Y138878D02*
X278248D01*
X268012Y144783D02*
X278248D01*
Y138878D02*
Y144783D01*
X268012Y138878D02*
Y144783D01*
X271839Y99510D02*
Y109746D01*
X265933Y99510D02*
Y109746D01*
X271839D01*
X265933Y99510D02*
X271839D01*
X280107D02*
Y109746D01*
X274201Y99510D02*
Y109746D01*
X280107D01*
X274201Y99510D02*
X280107D01*
X165551Y162697D02*
Y207579D01*
X141535Y162697D02*
Y207579D01*
Y162697D02*
X165551D01*
X141535Y207579D02*
X165551D01*
M02*
