G04*
G04 #@! TF.GenerationSoftware,Altium Limited,Altium Designer,22.3.1 (43)*
G04*
G04 Layer_Color=16711935*
%FSLAX25Y25*%
%MOIN*%
G70*
G04*
G04 #@! TF.SameCoordinates,8ED6FF1A-C223-48F4-A418-E12A0B0AD757*
G04*
G04*
G04 #@! TF.FilePolarity,Negative*
G04*
G01*
G75*
%ADD31C,0.32087*%
%ADD32C,0.07677*%
%ADD33R,0.07087X0.07087*%
%ADD34C,0.07087*%
%ADD35R,0.04921X0.04921*%
%ADD36C,0.04921*%
%ADD37C,0.03740*%
D31*
X413386Y43307D02*
D03*
X59055D02*
D03*
X413386Y224410D02*
D03*
X59055D02*
D03*
D32*
X83858Y81181D02*
D03*
X73858D02*
D03*
Y101181D02*
D03*
X83858D02*
D03*
X98858Y91181D02*
D03*
Y71181D02*
D03*
Y111181D02*
D03*
X147244Y81181D02*
D03*
X137244D02*
D03*
Y101181D02*
D03*
X147244D02*
D03*
X162244Y91181D02*
D03*
Y71181D02*
D03*
Y111181D02*
D03*
X319291Y81181D02*
D03*
X309291D02*
D03*
Y101181D02*
D03*
X319291D02*
D03*
X334291Y91181D02*
D03*
Y71181D02*
D03*
Y111181D02*
D03*
X389528Y81181D02*
D03*
X379528D02*
D03*
Y101181D02*
D03*
X389528D02*
D03*
X404528Y91181D02*
D03*
Y71181D02*
D03*
Y111181D02*
D03*
D33*
X253465Y203307D02*
D03*
D34*
Y193307D02*
D03*
X243465Y203307D02*
D03*
Y193307D02*
D03*
X233465Y203307D02*
D03*
Y193307D02*
D03*
X223465Y203307D02*
D03*
Y193307D02*
D03*
X213465Y203307D02*
D03*
Y193307D02*
D03*
D35*
X74646Y192520D02*
D03*
D36*
Y197520D02*
D03*
X79646Y192520D02*
D03*
Y197520D02*
D03*
X84646Y192520D02*
D03*
Y197520D02*
D03*
X89646Y192520D02*
D03*
Y197520D02*
D03*
X94646Y192520D02*
D03*
Y197520D02*
D03*
D37*
X243504Y42520D02*
D03*
X239173Y46161D02*
D03*
X210039Y48031D02*
D03*
X47244Y196850D02*
D03*
X229817Y115285D02*
D03*
X272835Y112697D02*
D03*
X291732Y122441D02*
D03*
X382991Y113687D02*
D03*
X361167Y89592D02*
D03*
X322799Y108811D02*
D03*
X289370Y88976D02*
D03*
X116535Y111181D02*
D03*
Y78347D02*
D03*
X186614Y112205D02*
D03*
X141455Y92520D02*
D03*
X168701Y102559D02*
D03*
X189831Y88395D02*
D03*
X181747D02*
D03*
X202362Y106693D02*
D03*
X240569Y182842D02*
D03*
X224757Y133328D02*
D03*
X212441Y134235D02*
D03*
X292107Y165380D02*
D03*
X335269Y122933D02*
D03*
X222815Y91988D02*
D03*
X318268Y140223D02*
D03*
X254717Y117499D02*
D03*
X213965Y122733D02*
D03*
X205906Y142520D02*
D03*
X237359Y67712D02*
D03*
X208512Y72205D02*
D03*
X190008Y61716D02*
D03*
X197095Y48470D02*
D03*
X223819Y59351D02*
D03*
X277154Y97244D02*
D03*
X218701Y112992D02*
D03*
X216651Y119930D02*
D03*
X206884Y122344D02*
D03*
X243721Y103742D02*
D03*
X213779Y112992D02*
D03*
X233807Y151537D02*
D03*
X186024Y52854D02*
D03*
X229789Y83613D02*
D03*
X209800Y146358D02*
D03*
X384406Y133858D02*
D03*
X278346Y134646D02*
D03*
X287457Y68307D02*
D03*
X323622Y64173D02*
D03*
X112851Y152067D02*
D03*
X326772Y153543D02*
D03*
X297035Y153939D02*
D03*
X277165Y154331D02*
D03*
X425591Y197638D02*
D03*
X422835Y91339D02*
D03*
X350787Y45669D02*
D03*
X121260Y46850D02*
D03*
X48383Y136516D02*
D03*
X299213Y228346D02*
D03*
X137795D02*
D03*
X253711Y111331D02*
D03*
X243721Y117717D02*
D03*
X253642Y46797D02*
D03*
X267028Y57898D02*
D03*
X258661Y68898D02*
D03*
X232653Y80915D02*
D03*
X235827Y83385D02*
D03*
X129823Y169587D02*
D03*
X99152Y173339D02*
D03*
X223819Y67716D02*
D03*
X247736Y58570D02*
D03*
X247244Y66535D02*
D03*
X262795Y101380D02*
D03*
X379823Y157087D02*
D03*
X368406Y155315D02*
D03*
X262669Y72315D02*
D03*
X258711Y111331D02*
D03*
X188189Y72638D02*
D03*
X253839Y140650D02*
D03*
X248819D02*
D03*
X156398Y155217D02*
D03*
M02*
