G04*
G04 #@! TF.GenerationSoftware,Altium Limited,Altium Designer,21.2.1 (34)*
G04*
G04 Layer_Color=32768*
%FSLAX25Y25*%
%MOIN*%
G70*
G04*
G04 #@! TF.SameCoordinates,376BEF27-1B36-4492-BBE4-843C7A460007*
G04*
G04*
G04 #@! TF.FilePolarity,Positive*
G04*
G01*
G75*
%ADD11C,0.00394*%
%ADD12C,0.00787*%
%ADD50C,0.00197*%
D11*
X351279Y127165D02*
X355020D01*
X353150Y125295D02*
Y129035D01*
X322146Y127165D02*
X325886D01*
X324016Y125295D02*
Y129035D01*
X293012Y127165D02*
X296752D01*
X294882Y125295D02*
Y129035D01*
X184264Y45748D02*
Y60748D01*
X199764D01*
Y45748D02*
Y60748D01*
X184264Y45748D02*
X199764D01*
X233760Y100492D02*
Y104232D01*
X231890Y102362D02*
X235630D01*
X224820Y23622D02*
X228560D01*
X226690Y21752D02*
Y25492D01*
X218760Y47244D02*
X222500D01*
X220630Y45374D02*
Y49114D01*
X226690Y47244D02*
X230430D01*
X228560Y45374D02*
Y49114D01*
X112205Y145669D02*
X116142D01*
X114173Y143701D02*
Y147638D01*
D12*
X348228Y135236D02*
Y139567D01*
Y135236D02*
X358071D01*
Y139567D01*
X348228D02*
X358071D01*
X319094Y135236D02*
Y139567D01*
Y135236D02*
X328937D01*
Y139567D01*
X319094D02*
X328937D01*
X299803Y135236D02*
Y139567D01*
X289961D02*
X299803D01*
X289961Y135236D02*
Y139567D01*
Y135236D02*
X299803D01*
X261787Y125960D02*
Y140969D01*
X269709D01*
Y125960D02*
Y140969D01*
X261787Y125960D02*
X269709D01*
X240134Y138559D02*
Y153567D01*
X248055D01*
Y138559D02*
Y153567D01*
X240134Y138559D02*
X248055D01*
X151551Y21236D02*
X166559D01*
X151551D02*
Y29158D01*
X166559D01*
Y21236D02*
Y29158D01*
X168126Y126008D02*
X183134D01*
Y118086D02*
Y126008D01*
X168126Y118086D02*
X183134D01*
X168126D02*
Y126008D01*
X161040Y118086D02*
Y126008D01*
X146032D02*
X161040D01*
X146032Y118086D02*
Y126008D01*
Y118086D02*
X161040D01*
X163701Y193307D02*
X230000D01*
X163701Y131653D02*
Y193307D01*
Y131653D02*
X230000D01*
Y193307D01*
X42496Y125910D02*
X50418D01*
X42496Y110901D02*
Y125910D01*
Y110901D02*
X50418D01*
Y125910D01*
D50*
X8094Y81496D02*
X68724D01*
Y20866D02*
Y81496D01*
X8094Y20866D02*
X68724D01*
X8094D02*
Y81496D01*
X36440Y51181D02*
X40377D01*
X38409Y49213D02*
Y53150D01*
X348031Y124213D02*
Y130118D01*
X358268Y124213D02*
Y130118D01*
X348031D02*
X358268D01*
X348031Y124213D02*
X358268D01*
X329134Y124213D02*
Y130118D01*
X318898Y124213D02*
Y130118D01*
Y124213D02*
X329134D01*
X318898Y130118D02*
X329134D01*
X300000Y124213D02*
Y130118D01*
X289764Y124213D02*
Y130118D01*
Y124213D02*
X300000D01*
X289764Y130118D02*
X300000D01*
X170276Y63287D02*
X223425D01*
Y109941D01*
X170276D02*
X223425D01*
X170276Y63287D02*
Y109941D01*
X180315Y8231D02*
X213386D01*
Y39137D01*
X180315D02*
X213386D01*
X180315Y8231D02*
Y39137D01*
X239764Y132972D02*
X256299D01*
Y118996D02*
Y132972D01*
X239764Y118996D02*
X256299D01*
X239764D02*
Y132972D01*
X55020Y113091D02*
X69390D01*
X55020D02*
Y123721D01*
X69390D01*
Y113091D02*
Y123721D01*
X326513Y81695D02*
X387143D01*
Y21066D02*
Y81695D01*
X326513Y21066D02*
X387143D01*
X326513D02*
Y81695D01*
X354860Y51380D02*
X358797D01*
X356828Y49412D02*
Y53349D01*
X47087Y156417D02*
X51024D01*
X49055Y154449D02*
Y158386D01*
X22677Y145335D02*
Y167500D01*
Y145335D02*
X75433D01*
Y167500D01*
X22677D02*
X75433D01*
X228642Y99410D02*
X238878D01*
X228642Y105315D02*
X238878D01*
Y99410D02*
Y105315D01*
X228642Y99410D02*
Y105315D01*
X229643Y18504D02*
Y28740D01*
X223737Y18504D02*
Y28740D01*
X229643D01*
X223737Y18504D02*
X229643D01*
X217677Y42126D02*
Y52362D01*
X223583Y42126D02*
Y52362D01*
X217677Y42126D02*
X223583D01*
X217677Y52362D02*
X223583D01*
X225607Y42126D02*
Y52362D01*
X231513Y42126D02*
Y52362D01*
X225607Y42126D02*
X231513D01*
X225607Y52362D02*
X231513D01*
X287402Y49213D02*
Y53150D01*
X285433Y51181D02*
X289370D01*
X257087Y20866D02*
Y81496D01*
Y20866D02*
X317717D01*
Y81496D01*
X257087D02*
X317717D01*
X110236Y49213D02*
Y53150D01*
X108268Y51181D02*
X112205D01*
X79921Y20866D02*
Y81496D01*
Y20866D02*
X140551D01*
Y81496D01*
X79921D02*
X140551D01*
X126181Y123228D02*
Y168110D01*
X102165Y123228D02*
Y168110D01*
Y123228D02*
X126181D01*
X102165Y168110D02*
X126181D01*
M02*
