G04*
G04 #@! TF.GenerationSoftware,Altium Limited,Altium Designer,21.9.1 (22)*
G04*
G04 Layer_Physical_Order=2*
G04 Layer_Color=16711680*
%FSLAX25Y25*%
%MOIN*%
G70*
G04*
G04 #@! TF.SameCoordinates,0F29A8BA-E8F9-4293-BDD9-90E20D7A2386*
G04*
G04*
G04 #@! TF.FilePolarity,Positive*
G04*
G01*
G75*
%ADD13C,0.01000*%
%ADD37C,0.02362*%
%ADD38C,0.01575*%
%ADD42C,0.00800*%
%ADD43C,0.07087*%
%ADD44R,0.06496X0.06496*%
%ADD45C,0.06496*%
%ADD46R,0.04331X0.04331*%
%ADD47C,0.04331*%
%ADD48C,0.03150*%
G36*
X389764Y3937D02*
X205642D01*
X205308Y4437D01*
X205452Y4784D01*
Y5649D01*
X205121Y6448D01*
X204509Y7060D01*
X203710Y7391D01*
X202845D01*
X202472Y7237D01*
X201978Y7224D01*
X201647Y8023D01*
X201035Y8635D01*
X200236Y8966D01*
X199371D01*
X198571Y8635D01*
X197959Y8023D01*
X197628Y7224D01*
Y7023D01*
X182509D01*
X180252Y9281D01*
Y24213D01*
X180174Y24603D01*
X179953Y24934D01*
X176016Y28871D01*
X175686Y29092D01*
X175295Y29169D01*
X153921D01*
X150952Y32138D01*
X150800Y32366D01*
X150994Y32835D01*
Y33700D01*
X150663Y34500D01*
X150051Y35111D01*
X149941Y35157D01*
Y44798D01*
X150842Y45700D01*
X150842Y45700D01*
X151086Y46064D01*
X151171Y46493D01*
X151171Y46493D01*
Y46965D01*
X151693Y47181D01*
X152304Y47793D01*
X152636Y48593D01*
Y49458D01*
X152304Y50257D01*
X151693Y50869D01*
X150893Y51200D01*
X150028D01*
X149229Y50869D01*
X149147Y50787D01*
X143996D01*
X143996Y50787D01*
X143542Y50897D01*
X142810Y51200D01*
X141945D01*
X141146Y50869D01*
X140534Y50257D01*
X140203Y49458D01*
Y48593D01*
X140534Y47793D01*
X141146Y47181D01*
X141945Y46850D01*
X142533D01*
X144255Y45129D01*
Y25689D01*
Y14895D01*
X144362Y14353D01*
X144546Y14079D01*
X144479Y13917D01*
Y13052D01*
X144810Y12252D01*
X145422Y11641D01*
X146221Y11310D01*
X147086D01*
X147886Y11641D01*
X148497Y12252D01*
X148828Y13052D01*
Y13917D01*
X148497Y14716D01*
X147886Y15328D01*
X147086Y15659D01*
X147084D01*
Y25662D01*
X148552Y27130D01*
X174873D01*
X178213Y23790D01*
Y8858D01*
X178290Y8468D01*
X178511Y8137D01*
X180994Y5655D01*
X180787Y5155D01*
X172178D01*
X172084Y5249D01*
Y7000D01*
X172513Y7429D01*
X172844Y8229D01*
Y9094D01*
X172513Y9893D01*
X171901Y10505D01*
X171102Y10836D01*
X170237D01*
X169437Y10505D01*
X168826Y9893D01*
X168494Y9094D01*
Y8229D01*
X168826Y7429D01*
X169255Y7000D01*
Y4663D01*
X169300Y4437D01*
X168930Y3937D01*
X3937D01*
Y192913D01*
X389764D01*
Y3937D01*
D02*
G37*
%LPC*%
G36*
X217943Y167785D02*
X210246D01*
Y160089D01*
X217943D01*
Y167785D01*
D02*
G37*
G36*
X204601D02*
X203588D01*
X202609Y167523D01*
X201732Y167016D01*
X201015Y166300D01*
X200509Y165422D01*
X200247Y164444D01*
Y163430D01*
X200509Y162452D01*
X201015Y161574D01*
X201732Y160858D01*
X202609Y160351D01*
X203588Y160089D01*
X204601D01*
X205580Y160351D01*
X206457Y160858D01*
X207174Y161574D01*
X207680Y162452D01*
X207943Y163430D01*
Y164444D01*
X207680Y165422D01*
X207174Y166300D01*
X206457Y167016D01*
X205580Y167523D01*
X204601Y167785D01*
D02*
G37*
G36*
X194601D02*
X193588D01*
X192609Y167523D01*
X191732Y167016D01*
X191015Y166300D01*
X190509Y165422D01*
X190246Y164444D01*
Y163430D01*
X190509Y162452D01*
X191015Y161574D01*
X191732Y160858D01*
X192609Y160351D01*
X193588Y160089D01*
X194601D01*
X195580Y160351D01*
X196457Y160858D01*
X197174Y161574D01*
X197680Y162452D01*
X197942Y163430D01*
Y164444D01*
X197680Y165422D01*
X197174Y166300D01*
X196457Y167016D01*
X195580Y167523D01*
X194601Y167785D01*
D02*
G37*
G36*
X184601D02*
X183588D01*
X182609Y167523D01*
X181732Y167016D01*
X181015Y166300D01*
X180509Y165422D01*
X180246Y164444D01*
Y163430D01*
X180509Y162452D01*
X181015Y161574D01*
X181732Y160858D01*
X182609Y160351D01*
X183588Y160089D01*
X184601D01*
X185580Y160351D01*
X186457Y160858D01*
X187174Y161574D01*
X187680Y162452D01*
X187943Y163430D01*
Y164444D01*
X187680Y165422D01*
X187174Y166300D01*
X186457Y167016D01*
X185580Y167523D01*
X184601Y167785D01*
D02*
G37*
G36*
X174601D02*
X173588D01*
X172609Y167523D01*
X171732Y167016D01*
X171015Y166300D01*
X170509Y165422D01*
X170247Y164444D01*
Y163430D01*
X170509Y162452D01*
X171015Y161574D01*
X171732Y160858D01*
X172609Y160351D01*
X173588Y160089D01*
X174601D01*
X175580Y160351D01*
X176457Y160858D01*
X177174Y161574D01*
X177680Y162452D01*
X177943Y163430D01*
Y164444D01*
X177680Y165422D01*
X177174Y166300D01*
X176457Y167016D01*
X175580Y167523D01*
X174601Y167785D01*
D02*
G37*
G36*
X214601Y157785D02*
X213588D01*
X212609Y157523D01*
X211732Y157016D01*
X211015Y156300D01*
X210509Y155422D01*
X210246Y154444D01*
Y153430D01*
X210509Y152452D01*
X211015Y151574D01*
X211732Y150858D01*
X212609Y150351D01*
X213588Y150089D01*
X214601D01*
X215580Y150351D01*
X216457Y150858D01*
X217174Y151574D01*
X217680Y152452D01*
X217943Y153430D01*
Y154444D01*
X217680Y155422D01*
X217174Y156300D01*
X216457Y157016D01*
X215580Y157523D01*
X214601Y157785D01*
D02*
G37*
G36*
X204601D02*
X203588D01*
X202609Y157523D01*
X201732Y157016D01*
X201015Y156300D01*
X200509Y155422D01*
X200247Y154444D01*
Y153430D01*
X200509Y152452D01*
X201015Y151574D01*
X201732Y150858D01*
X202609Y150351D01*
X203588Y150089D01*
X204601D01*
X205580Y150351D01*
X206457Y150858D01*
X207174Y151574D01*
X207680Y152452D01*
X207943Y153430D01*
Y154444D01*
X207680Y155422D01*
X207174Y156300D01*
X206457Y157016D01*
X205580Y157523D01*
X204601Y157785D01*
D02*
G37*
G36*
X194601D02*
X193588D01*
X192609Y157523D01*
X191732Y157016D01*
X191015Y156300D01*
X190509Y155422D01*
X190246Y154444D01*
Y153430D01*
X190509Y152452D01*
X191015Y151574D01*
X191732Y150858D01*
X192609Y150351D01*
X193588Y150089D01*
X194601D01*
X195580Y150351D01*
X196457Y150858D01*
X197174Y151574D01*
X197680Y152452D01*
X197942Y153430D01*
Y154444D01*
X197680Y155422D01*
X197174Y156300D01*
X196457Y157016D01*
X195580Y157523D01*
X194601Y157785D01*
D02*
G37*
G36*
X184601D02*
X183588D01*
X182609Y157523D01*
X181732Y157016D01*
X181015Y156300D01*
X180509Y155422D01*
X180246Y154444D01*
Y153430D01*
X180509Y152452D01*
X181015Y151574D01*
X181732Y150858D01*
X182609Y150351D01*
X183588Y150089D01*
X184601D01*
X185580Y150351D01*
X186457Y150858D01*
X187174Y151574D01*
X187680Y152452D01*
X187943Y153430D01*
Y154444D01*
X187680Y155422D01*
X187174Y156300D01*
X186457Y157016D01*
X185580Y157523D01*
X184601Y157785D01*
D02*
G37*
G36*
X340885Y119891D02*
X340020D01*
X339221Y119560D01*
X338609Y118948D01*
X338563Y118838D01*
X337795D01*
X337366Y118753D01*
X337002Y118510D01*
X337002Y118510D01*
X330657Y112164D01*
X330157Y112372D01*
Y114055D01*
X330267Y114101D01*
X330879Y114713D01*
X331210Y115512D01*
Y116377D01*
X330879Y117177D01*
X330267Y117789D01*
X329468Y118120D01*
X328603D01*
X327803Y117789D01*
X327192Y117177D01*
X326861Y116377D01*
Y115512D01*
X327192Y114713D01*
X327803Y114101D01*
X327914Y114055D01*
Y112388D01*
X298536Y83011D01*
X298443Y83035D01*
X298074Y83256D01*
Y83996D01*
X297743Y84795D01*
X297131Y85407D01*
X296332Y85738D01*
X295467D01*
X295356Y85692D01*
X294429Y86620D01*
X294065Y86863D01*
X293636Y86948D01*
X293636Y86948D01*
X186614D01*
X186614Y86948D01*
X186185Y86863D01*
X185821Y86620D01*
X185821Y86620D01*
X179918Y80717D01*
X179456Y80908D01*
Y80993D01*
X179125Y81792D01*
X178513Y82404D01*
X177714Y82735D01*
X176849D01*
X176049Y82404D01*
X175438Y81792D01*
X175392Y81682D01*
X169874D01*
X169536Y82143D01*
X169533Y82165D01*
X169689Y82541D01*
Y83406D01*
X169358Y84206D01*
X168746Y84817D01*
X167947Y85149D01*
X167081D01*
X166282Y84817D01*
X165670Y84206D01*
X165339Y83406D01*
Y82541D01*
X165385Y82431D01*
X164416Y81462D01*
X95695D01*
X95265Y81376D01*
X94901Y81133D01*
X94901Y81133D01*
X82278Y68510D01*
X82035Y68146D01*
X81949Y67716D01*
X81949Y67716D01*
Y40543D01*
X79802Y38396D01*
X79615Y38456D01*
X79340Y38641D01*
Y39409D01*
X79009Y40208D01*
X78981Y40236D01*
Y70551D01*
X79009Y70579D01*
X79340Y71378D01*
Y72244D01*
X79009Y73043D01*
X78397Y73655D01*
X77598Y73986D01*
X76733D01*
X75933Y73655D01*
X75322Y73043D01*
X74990Y72244D01*
Y71378D01*
X75322Y70579D01*
X75349Y70551D01*
Y40236D01*
X75322Y40208D01*
X74990Y39409D01*
Y38544D01*
X75322Y37745D01*
X75933Y37133D01*
X76733Y36802D01*
X77500D01*
X77686Y36526D01*
X77746Y36340D01*
X74339Y32933D01*
X63477D01*
X63349Y33410D01*
X62804Y34355D01*
X62032Y35127D01*
X61087Y35672D01*
X60034Y35954D01*
X58943D01*
X57889Y35672D01*
X56944Y35127D01*
X56173Y34355D01*
X55627Y33410D01*
X55345Y32357D01*
Y31266D01*
X55627Y30212D01*
X56173Y29267D01*
X56944Y28496D01*
X57889Y27950D01*
X58943Y27668D01*
X60034D01*
X61087Y27950D01*
X62032Y28496D01*
X62804Y29267D01*
X63349Y30212D01*
X63477Y30689D01*
X74724D01*
X74764Y30697D01*
X74803Y30689D01*
X75232Y30775D01*
X75596Y31018D01*
X83544Y38966D01*
X84237Y38980D01*
X92199Y31018D01*
X92199Y31018D01*
X92563Y30775D01*
X92992Y30689D01*
X92992Y30689D01*
X118885D01*
X119013Y30212D01*
X119559Y29267D01*
X120330Y28496D01*
X121275Y27950D01*
X122328Y27668D01*
X123419D01*
X124473Y27950D01*
X125418Y28496D01*
X126189Y29267D01*
X126735Y30212D01*
X127017Y31266D01*
Y32357D01*
X126735Y33410D01*
X126189Y34355D01*
X125418Y35127D01*
X124473Y35672D01*
X123419Y35954D01*
X122328D01*
X121275Y35672D01*
X120330Y35127D01*
X119559Y34355D01*
X119013Y33410D01*
X118885Y32933D01*
X93457D01*
X85792Y40597D01*
Y66490D01*
X96921Y77619D01*
X140874D01*
X145115Y73378D01*
X145069Y73267D01*
Y72402D01*
X145400Y71603D01*
X146012Y70991D01*
X146811Y70660D01*
X147677D01*
X148476Y70991D01*
X149088Y71603D01*
X149419Y72402D01*
Y73267D01*
X149088Y74067D01*
X148476Y74678D01*
X147677Y75010D01*
X146811D01*
X146701Y74964D01*
X142908Y78757D01*
X143099Y79219D01*
X153001D01*
X153789Y78431D01*
X153836Y78478D01*
X165221D01*
X165428Y77978D01*
X162199Y74749D01*
X161956Y74385D01*
X161871Y73956D01*
X161871Y73956D01*
Y69212D01*
X161760Y69166D01*
X161148Y68555D01*
X160817Y67755D01*
Y66890D01*
X161148Y66091D01*
X161760Y65479D01*
X162559Y65148D01*
X163425D01*
X164224Y65479D01*
X164836Y66091D01*
X165167Y66890D01*
Y67755D01*
X164836Y68555D01*
X164224Y69166D01*
X164114Y69212D01*
Y73492D01*
X170061Y79439D01*
X175392D01*
X175438Y79328D01*
X176049Y78717D01*
X176849Y78386D01*
X176934D01*
X177125Y77924D01*
X174952Y75751D01*
X174842Y75797D01*
X173977D01*
X173178Y75466D01*
X172566Y74854D01*
X172235Y74055D01*
Y73189D01*
X172566Y72390D01*
X173178Y71778D01*
X173977Y71447D01*
X174842D01*
X175641Y71778D01*
X176253Y72390D01*
X176584Y73189D01*
Y73880D01*
X176656Y73929D01*
X177156Y73664D01*
Y73189D01*
X177487Y72390D01*
X178099Y71778D01*
X178898Y71447D01*
X179763D01*
X180563Y71778D01*
X181174Y72390D01*
X181506Y73189D01*
Y74055D01*
X181460Y74165D01*
X189244Y81949D01*
X250473D01*
X250518Y81839D01*
X251130Y81227D01*
X251930Y80896D01*
X252795D01*
X253594Y81227D01*
X254206Y81839D01*
X254537Y82638D01*
Y83504D01*
X254246Y84205D01*
X254457Y84705D01*
X293171D01*
X293770Y84106D01*
X293725Y83996D01*
Y83130D01*
X294056Y82331D01*
X294668Y81719D01*
X295467Y81388D01*
X296207D01*
X296428Y81019D01*
X296452Y80926D01*
X294994Y79468D01*
X220726D01*
X220297Y79383D01*
X219933Y79140D01*
X219933Y79140D01*
X214883Y74090D01*
X214773Y74135D01*
X213908D01*
X213109Y73804D01*
X212497Y73193D01*
X212166Y72393D01*
Y71528D01*
X212497Y70729D01*
X213109Y70117D01*
X213908Y69786D01*
X214773D01*
X215345Y70023D01*
X215426Y69882D01*
X218209D01*
Y69882D01*
X218388Y70001D01*
X218908Y69786D01*
X219773D01*
X220572Y70117D01*
X221184Y70729D01*
X221515Y71528D01*
Y72393D01*
X221470Y72504D01*
X224591Y75625D01*
X292275D01*
X292375Y75250D01*
X292376Y75125D01*
X291606Y74355D01*
X291060Y73410D01*
X290778Y72356D01*
Y71266D01*
X291060Y70212D01*
X291606Y69267D01*
X292377Y68496D01*
X293322Y67950D01*
X294376Y67668D01*
X295467D01*
X296520Y67950D01*
X297465Y68496D01*
X298237Y69267D01*
X298782Y70212D01*
X299065Y71266D01*
Y72356D01*
X298782Y73410D01*
X298237Y74355D01*
X297465Y75126D01*
X297316Y75213D01*
X297292Y75410D01*
X297347Y75772D01*
X297618Y75953D01*
X338101Y116437D01*
X338221Y116448D01*
X338683Y116410D01*
X339221Y115873D01*
X340020Y115542D01*
X340885D01*
X341685Y115873D01*
X342297Y116485D01*
X342628Y117284D01*
Y118149D01*
X342297Y118948D01*
X341685Y119560D01*
X340885Y119891D01*
D02*
G37*
G36*
X77169Y170413D02*
X77169Y170413D01*
X41732D01*
X41303Y170327D01*
X40939Y170084D01*
X40939Y170084D01*
X34482Y163628D01*
X34239Y163264D01*
X34154Y162835D01*
X34154Y162835D01*
Y160695D01*
X33578Y160362D01*
X33063Y159848D01*
X32699Y159217D01*
X32510Y158514D01*
Y157785D01*
X32699Y157082D01*
X33063Y156452D01*
X33099Y156415D01*
X32892Y155915D01*
X32510D01*
Y150384D01*
X38041D01*
Y155441D01*
X38041Y155766D01*
X38500Y156015D01*
X38578Y155937D01*
X39208Y155573D01*
X39911Y155384D01*
X40640D01*
X41343Y155573D01*
X41974Y155937D01*
X42488Y156452D01*
X42526Y156516D01*
X43026D01*
X43063Y156452D01*
X43578Y155937D01*
X44208Y155573D01*
X44912Y155384D01*
X45640D01*
X46343Y155573D01*
X46974Y155937D01*
X47488Y156452D01*
X47526Y156516D01*
X48026D01*
X48063Y156452D01*
X48578Y155937D01*
X48642Y155900D01*
Y155400D01*
X48578Y155362D01*
X48063Y154848D01*
X47699Y154217D01*
X47510Y153514D01*
Y152786D01*
X47699Y152082D01*
X48063Y151452D01*
X48578Y150937D01*
X49208Y150573D01*
X49911Y150384D01*
X50640D01*
X51343Y150573D01*
X51974Y150937D01*
X52488Y151452D01*
X52526Y151516D01*
X53026D01*
X53063Y151452D01*
X53578Y150937D01*
X54208Y150573D01*
X54912Y150384D01*
X55640D01*
X56343Y150573D01*
X56974Y150937D01*
X57488Y151452D01*
X57853Y152082D01*
X58041Y152786D01*
Y153514D01*
X57853Y154217D01*
X57488Y154848D01*
X56974Y155362D01*
X56909Y155400D01*
Y155900D01*
X56974Y155937D01*
X57488Y156452D01*
X57853Y157082D01*
X58041Y157785D01*
Y158514D01*
X57853Y159217D01*
X57488Y159848D01*
X56974Y160362D01*
X56343Y160726D01*
X55640Y160915D01*
X54912D01*
X54208Y160726D01*
X53578Y160362D01*
X53063Y159848D01*
X53026Y159783D01*
X52526D01*
X52488Y159848D01*
X51974Y160362D01*
X51343Y160726D01*
X50640Y160915D01*
X49911D01*
X49208Y160726D01*
X48578Y160362D01*
X48063Y159848D01*
X48026Y159783D01*
X47526D01*
X47488Y159848D01*
X46974Y160362D01*
X46343Y160726D01*
X45640Y160915D01*
X44912D01*
X44208Y160726D01*
X43578Y160362D01*
X43063Y159848D01*
X43026Y159783D01*
X42526D01*
X42488Y159848D01*
X41974Y160362D01*
X41397Y160695D01*
Y162272D01*
X45622Y166497D01*
X76012D01*
X109902Y132606D01*
Y126280D01*
X109902Y126280D01*
X109987Y125850D01*
X110231Y125487D01*
X117196Y118521D01*
X116989Y118021D01*
X116595D01*
X115796Y117690D01*
X115184Y117078D01*
X114853Y116279D01*
Y115414D01*
X115184Y114614D01*
X115796Y114003D01*
X116595Y113672D01*
X117460D01*
X118260Y114003D01*
X118658Y114401D01*
X137790Y95270D01*
X137790Y95270D01*
X138154Y95027D01*
X138583Y94941D01*
X138583Y94941D01*
X170896D01*
Y94432D01*
X171227Y93633D01*
X171839Y93021D01*
X172638Y92690D01*
X173503D01*
X174303Y93021D01*
X174915Y93633D01*
X175246Y94432D01*
Y95297D01*
X174937Y96041D01*
X175123Y96541D01*
X210852D01*
X210852Y96541D01*
X211281Y96627D01*
X211645Y96870D01*
X213926Y99150D01*
X214036Y99105D01*
X214901D01*
X215700Y99436D01*
X216312Y100048D01*
X216643Y100847D01*
Y101712D01*
X216312Y102512D01*
X215700Y103123D01*
X214901Y103454D01*
X214036D01*
X213237Y103123D01*
X212625Y102512D01*
X212294Y101712D01*
Y100847D01*
X212339Y100737D01*
X211963Y100361D01*
X211539Y100644D01*
X211624Y100847D01*
Y101712D01*
X211293Y102512D01*
X210681Y103123D01*
X209881Y103454D01*
X209016D01*
X208217Y103123D01*
X207605Y102512D01*
X207274Y101712D01*
Y101006D01*
X206652Y100384D01*
X140871D01*
X113818Y127437D01*
Y133764D01*
X113818Y133764D01*
X113733Y134193D01*
X113490Y134557D01*
X113490Y134557D01*
X77962Y170084D01*
X77599Y170327D01*
X77169Y170413D01*
D02*
G37*
G36*
X365703Y75954D02*
X364612D01*
X363558Y75672D01*
X362613Y75126D01*
X361842Y74355D01*
X361297Y73410D01*
X361014Y72356D01*
Y71266D01*
X361297Y70212D01*
X361842Y69267D01*
X362613Y68496D01*
X363558Y67950D01*
X364612Y67668D01*
X365703D01*
X366757Y67950D01*
X367702Y68496D01*
X368473Y69267D01*
X369018Y70212D01*
X369301Y71266D01*
Y72356D01*
X369018Y73410D01*
X368473Y74355D01*
X367702Y75126D01*
X366757Y75672D01*
X365703Y75954D01*
D02*
G37*
G36*
X123419D02*
X122328D01*
X121275Y75672D01*
X120330Y75126D01*
X119559Y74355D01*
X119013Y73410D01*
X118731Y72356D01*
Y71266D01*
X119013Y70212D01*
X119559Y69267D01*
X120330Y68496D01*
X121275Y67950D01*
X122328Y67668D01*
X123419D01*
X124473Y67950D01*
X125418Y68496D01*
X126189Y69267D01*
X126735Y70212D01*
X127017Y71266D01*
Y72356D01*
X126735Y73410D01*
X126189Y74355D01*
X125418Y75126D01*
X124473Y75672D01*
X123419Y75954D01*
D02*
G37*
G36*
X60034D02*
X58943D01*
X57889Y75672D01*
X56944Y75126D01*
X56173Y74355D01*
X55627Y73410D01*
X55345Y72356D01*
Y71266D01*
X55627Y70212D01*
X56173Y69267D01*
X56944Y68496D01*
X57889Y67950D01*
X58943Y67668D01*
X60034D01*
X61087Y67950D01*
X62032Y68496D01*
X62804Y69267D01*
X63349Y70212D01*
X63631Y71266D01*
Y72356D01*
X63349Y73410D01*
X62804Y74355D01*
X62032Y75126D01*
X61087Y75672D01*
X60034Y75954D01*
D02*
G37*
G36*
X283861Y71616D02*
X282996D01*
X282197Y71285D01*
X281585Y70673D01*
X281254Y69873D01*
Y69008D01*
X281585Y68209D01*
X282197Y67597D01*
X282996Y67266D01*
X283678D01*
X284312Y66632D01*
Y63367D01*
X283811Y63301D01*
X283782Y63410D01*
X283237Y64355D01*
X282465Y65127D01*
X281521Y65672D01*
X280467Y65954D01*
X279376D01*
X278322Y65672D01*
X277377Y65127D01*
X276606Y64355D01*
X276060Y63410D01*
X275778Y62357D01*
Y61265D01*
X276060Y60212D01*
X276606Y59267D01*
X277377Y58496D01*
X278322Y57950D01*
X279376Y57668D01*
X280467D01*
X281521Y57950D01*
X282465Y58496D01*
X283237Y59267D01*
X283782Y60212D01*
X283811Y60321D01*
X284312Y60255D01*
Y43367D01*
X283811Y43301D01*
X283782Y43410D01*
X283237Y44355D01*
X282465Y45127D01*
X281521Y45672D01*
X280467Y45954D01*
X279376D01*
X278322Y45672D01*
X277377Y45127D01*
X276606Y44355D01*
X276060Y43410D01*
X275778Y42357D01*
Y41265D01*
X276060Y40212D01*
X276606Y39267D01*
X277377Y38496D01*
X278322Y37950D01*
X279376Y37668D01*
X280467D01*
X281521Y37950D01*
X282465Y38496D01*
X283237Y39267D01*
X283782Y40212D01*
X283811Y40321D01*
X284312Y40255D01*
Y34567D01*
X284312Y34567D01*
X284397Y34138D01*
X284640Y33774D01*
X287396Y31018D01*
X287396Y31018D01*
X287760Y30775D01*
X288189Y30689D01*
X288189Y30689D01*
X290932D01*
X291060Y30212D01*
X291606Y29267D01*
X292377Y28496D01*
X293322Y27950D01*
X294376Y27668D01*
X295467D01*
X296520Y27950D01*
X297465Y28496D01*
X298237Y29267D01*
X298782Y30212D01*
X299065Y31266D01*
Y32357D01*
X298782Y33410D01*
X298237Y34355D01*
X297465Y35127D01*
X296520Y35672D01*
X295467Y35954D01*
X294376D01*
X293322Y35672D01*
X292377Y35127D01*
X291606Y34355D01*
X291060Y33410D01*
X290932Y32933D01*
X288653D01*
X286555Y35032D01*
Y67097D01*
X286555Y67097D01*
X286469Y67526D01*
X286226Y67890D01*
X286226Y67890D01*
X285458Y68658D01*
X285603Y69008D01*
Y69873D01*
X285272Y70673D01*
X284661Y71285D01*
X283861Y71616D01*
D02*
G37*
G36*
X350703Y65954D02*
X349612D01*
X348558Y65672D01*
X347613Y65127D01*
X346842Y64355D01*
X346297Y63410D01*
X346014Y62357D01*
Y61265D01*
X346297Y60212D01*
X346842Y59267D01*
X347613Y58496D01*
X348558Y57950D01*
X349612Y57668D01*
X350703D01*
X351757Y57950D01*
X352701Y58496D01*
X353473Y59267D01*
X354018Y60212D01*
X354301Y61265D01*
Y62357D01*
X354018Y63410D01*
X353473Y64355D01*
X352701Y65127D01*
X351757Y65672D01*
X350703Y65954D01*
D02*
G37*
G36*
X340703D02*
X339612D01*
X338558Y65672D01*
X337613Y65127D01*
X336842Y64355D01*
X336297Y63410D01*
X336014Y62357D01*
Y61265D01*
X336297Y60212D01*
X336842Y59267D01*
X337613Y58496D01*
X338558Y57950D01*
X339612Y57668D01*
X340703D01*
X341757Y57950D01*
X342702Y58496D01*
X343473Y59267D01*
X344018Y60212D01*
X344301Y61265D01*
Y62357D01*
X344018Y63410D01*
X343473Y64355D01*
X342702Y65127D01*
X341757Y65672D01*
X340703Y65954D01*
D02*
G37*
G36*
X270467D02*
X269376D01*
X268322Y65672D01*
X267377Y65127D01*
X266606Y64355D01*
X266060Y63410D01*
X265778Y62357D01*
Y61265D01*
X266060Y60212D01*
X266606Y59267D01*
X267377Y58496D01*
X268322Y57950D01*
X269376Y57668D01*
X270467D01*
X271520Y57950D01*
X272465Y58496D01*
X273237Y59267D01*
X273782Y60212D01*
X274065Y61265D01*
Y62357D01*
X273782Y63410D01*
X273237Y64355D01*
X272465Y65127D01*
X271520Y65672D01*
X270467Y65954D01*
D02*
G37*
G36*
X45034D02*
X43943D01*
X42889Y65672D01*
X41944Y65127D01*
X41173Y64355D01*
X40627Y63410D01*
X40345Y62357D01*
Y61265D01*
X40627Y60212D01*
X41173Y59267D01*
X41944Y58496D01*
X42889Y57950D01*
X43943Y57668D01*
X45034D01*
X46087Y57950D01*
X47032Y58496D01*
X47804Y59267D01*
X48349Y60212D01*
X48632Y61265D01*
Y62357D01*
X48349Y63410D01*
X47804Y64355D01*
X47032Y65127D01*
X46087Y65672D01*
X45034Y65954D01*
D02*
G37*
G36*
X35034D02*
X33943D01*
X32889Y65672D01*
X31944Y65127D01*
X31173Y64355D01*
X30627Y63410D01*
X30345Y62357D01*
Y61265D01*
X30627Y60212D01*
X31173Y59267D01*
X31944Y58496D01*
X32889Y57950D01*
X33943Y57668D01*
X35034D01*
X36087Y57950D01*
X37032Y58496D01*
X37804Y59267D01*
X38349Y60212D01*
X38631Y61265D01*
Y62357D01*
X38349Y63410D01*
X37804Y64355D01*
X37032Y65127D01*
X36087Y65672D01*
X35034Y65954D01*
D02*
G37*
G36*
X204783Y66547D02*
X203918D01*
X203118Y66216D01*
X202507Y65604D01*
X202176Y64805D01*
Y63939D01*
X202507Y63140D01*
X203118Y62528D01*
X203918Y62197D01*
X204783D01*
X204893Y62243D01*
X211827Y55309D01*
X211827Y55309D01*
X212191Y55066D01*
X212620Y54981D01*
X232651D01*
X232842Y54519D01*
X222506Y44183D01*
X222263Y43819D01*
X222178Y43389D01*
X222178Y43389D01*
Y34834D01*
X222067Y34789D01*
X221455Y34177D01*
X221124Y33377D01*
Y32512D01*
X221455Y31713D01*
X222067Y31101D01*
X222867Y30770D01*
X223732D01*
X224531Y31101D01*
X225143Y31713D01*
X225474Y32512D01*
Y33377D01*
X225143Y34177D01*
X224531Y34789D01*
X224421Y34834D01*
Y42925D01*
X236805Y55309D01*
X237241Y55745D01*
X237351Y55699D01*
X238216D01*
X239016Y56030D01*
X239628Y56642D01*
X239959Y57441D01*
Y58307D01*
X239628Y59106D01*
X239016Y59718D01*
X238216Y60049D01*
X237351D01*
X236552Y59718D01*
X235940Y59106D01*
X235609Y58307D01*
Y57441D01*
X235158Y57224D01*
X213085D01*
X206480Y63829D01*
X206525Y63939D01*
Y64805D01*
X206194Y65604D01*
X205582Y66216D01*
X204783Y66547D01*
D02*
G37*
G36*
X114567Y70706D02*
X100394D01*
X99852Y70598D01*
X99393Y70292D01*
X96896Y67794D01*
X96589Y67335D01*
X96482Y66794D01*
Y65727D01*
X96275Y65672D01*
X95330Y65127D01*
X94559Y64355D01*
X94013Y63410D01*
X93731Y62357D01*
Y61265D01*
X94013Y60212D01*
X94559Y59267D01*
X95330Y58496D01*
X96275Y57950D01*
X97329Y57668D01*
X98419D01*
X99473Y57950D01*
X100418Y58496D01*
X101189Y59267D01*
X101735Y60212D01*
X102017Y61265D01*
Y62357D01*
X101735Y63410D01*
X101189Y64355D01*
X100418Y65127D01*
X99473Y65672D01*
X99311Y65715D01*
Y66208D01*
X100980Y67877D01*
X113981D01*
X126371Y55486D01*
X126830Y55180D01*
X127372Y55072D01*
X133717D01*
X133909Y54610D01*
X125030Y45731D01*
X118080D01*
X109289Y54523D01*
Y57901D01*
X109473Y57950D01*
X110418Y58496D01*
X111189Y59267D01*
X111735Y60212D01*
X112017Y61265D01*
Y62357D01*
X111735Y63410D01*
X111189Y64355D01*
X110418Y65127D01*
X109473Y65672D01*
X108420Y65954D01*
X107328D01*
X106275Y65672D01*
X105330Y65127D01*
X104559Y64355D01*
X104013Y63410D01*
X103731Y62357D01*
Y61265D01*
X104013Y60212D01*
X104559Y59267D01*
X105330Y58496D01*
X106275Y57950D01*
X106459Y57901D01*
Y53937D01*
X106567Y53396D01*
X106874Y52937D01*
X116494Y43316D01*
X116953Y43010D01*
X117494Y42902D01*
X125616D01*
X126157Y43010D01*
X126616Y43316D01*
X136197Y52897D01*
X161146D01*
X176460Y37582D01*
X176919Y37276D01*
X177461Y37168D01*
X195223D01*
X195764Y37276D01*
X196223Y37582D01*
X197457Y38816D01*
X197764Y39275D01*
X197871Y39817D01*
Y42354D01*
X198300Y42783D01*
X198632Y43582D01*
Y44448D01*
X198300Y45247D01*
X197689Y45859D01*
X196889Y46190D01*
X196024D01*
X195225Y45859D01*
X194613Y45247D01*
X194282Y44448D01*
Y44026D01*
X193782Y43692D01*
X193715Y43720D01*
X193056D01*
X192823Y43765D01*
X192594Y44155D01*
Y44675D01*
X192263Y45475D01*
X191651Y46087D01*
X190852Y46418D01*
X189987D01*
X189187Y46087D01*
X188575Y45475D01*
X188244Y44675D01*
Y44584D01*
X179858D01*
X164780Y59662D01*
X164321Y59968D01*
X163779Y60076D01*
X134444D01*
X131506Y63015D01*
Y63622D01*
X131174Y64421D01*
X130563Y65033D01*
X129763Y65364D01*
X128898D01*
X128099Y65033D01*
X127487Y64421D01*
X127156Y63622D01*
Y62756D01*
X127487Y61957D01*
X128099Y61345D01*
X128898Y61014D01*
X129505D01*
X132156Y58363D01*
X131965Y57901D01*
X127958D01*
X115567Y70292D01*
X115108Y70598D01*
X114567Y70706D01*
D02*
G37*
G36*
X350703Y45954D02*
X349612D01*
X348558Y45672D01*
X347613Y45127D01*
X346842Y44355D01*
X346297Y43410D01*
X346014Y42357D01*
Y41265D01*
X346297Y40212D01*
X346842Y39267D01*
X347613Y38496D01*
X348558Y37950D01*
X349612Y37668D01*
X350703D01*
X351757Y37950D01*
X352701Y38496D01*
X353473Y39267D01*
X354018Y40212D01*
X354301Y41265D01*
Y42357D01*
X354018Y43410D01*
X353473Y44355D01*
X352701Y45127D01*
X351757Y45672D01*
X350703Y45954D01*
D02*
G37*
G36*
X322229Y52397D02*
X321364D01*
X320565Y52066D01*
X319953Y51454D01*
X319622Y50655D01*
Y49790D01*
X319953Y48990D01*
X320565Y48379D01*
X321364Y48048D01*
X322229D01*
X323028Y48379D01*
X323458Y48808D01*
X331160D01*
X336392Y43576D01*
X336297Y43410D01*
X336014Y42357D01*
Y41265D01*
X336297Y40212D01*
X336842Y39267D01*
X337613Y38496D01*
X338558Y37950D01*
X339612Y37668D01*
X340703D01*
X341757Y37950D01*
X342702Y38496D01*
X343473Y39267D01*
X344018Y40212D01*
X344301Y41265D01*
Y42357D01*
X344018Y43410D01*
X343473Y44355D01*
X342702Y45127D01*
X341757Y45672D01*
X340703Y45954D01*
X339612D01*
X338558Y45672D01*
X338393Y45576D01*
X332746Y51223D01*
X332287Y51529D01*
X331746Y51637D01*
X323458D01*
X323028Y52066D01*
X322229Y52397D01*
D02*
G37*
G36*
X250433Y51781D02*
X249567D01*
X248768Y51450D01*
X248156Y50838D01*
X247825Y50039D01*
Y49174D01*
X248156Y48374D01*
X248768Y47763D01*
X249567Y47431D01*
X250433D01*
X251232Y47763D01*
X251661Y48192D01*
X261540D01*
X266156Y43576D01*
X266060Y43410D01*
X265778Y42357D01*
Y41265D01*
X266060Y40212D01*
X266606Y39267D01*
X267377Y38496D01*
X268322Y37950D01*
X269376Y37668D01*
X270467D01*
X271520Y37950D01*
X272465Y38496D01*
X273237Y39267D01*
X273782Y40212D01*
X274065Y41265D01*
Y42357D01*
X273782Y43410D01*
X273237Y44355D01*
X272465Y45127D01*
X271520Y45672D01*
X270467Y45954D01*
X269376D01*
X268322Y45672D01*
X268156Y45576D01*
X263126Y50607D01*
X262667Y50913D01*
X262126Y51021D01*
X251661D01*
X251232Y51450D01*
X250433Y51781D01*
D02*
G37*
G36*
X108420Y45954D02*
X107328D01*
X106275Y45672D01*
X105330Y45127D01*
X104559Y44355D01*
X104013Y43410D01*
X103731Y42357D01*
Y41265D01*
X104013Y40212D01*
X104559Y39267D01*
X105330Y38496D01*
X106275Y37950D01*
X107328Y37668D01*
X108420D01*
X109473Y37950D01*
X110418Y38496D01*
X111189Y39267D01*
X111735Y40212D01*
X112017Y41265D01*
Y42357D01*
X111735Y43410D01*
X111189Y44355D01*
X110418Y45127D01*
X109473Y45672D01*
X108420Y45954D01*
D02*
G37*
G36*
X102518Y55324D02*
X101653D01*
X100853Y54993D01*
X100241Y54382D01*
X99910Y53582D01*
Y52975D01*
X96874Y49939D01*
X96567Y49480D01*
X96459Y48939D01*
Y45721D01*
X96275Y45672D01*
X95330Y45127D01*
X94559Y44355D01*
X94013Y43410D01*
X93731Y42357D01*
Y41265D01*
X94013Y40212D01*
X94559Y39267D01*
X95330Y38496D01*
X96275Y37950D01*
X97329Y37668D01*
X98419D01*
X99473Y37950D01*
X100418Y38496D01*
X101189Y39267D01*
X101735Y40212D01*
X102017Y41265D01*
Y42357D01*
X101735Y43410D01*
X101189Y44355D01*
X100418Y45127D01*
X99473Y45672D01*
X99289Y45721D01*
Y48353D01*
X101911Y50975D01*
X102518D01*
X103317Y51306D01*
X103929Y51918D01*
X104260Y52717D01*
Y53582D01*
X103929Y54382D01*
X103317Y54993D01*
X102518Y55324D01*
D02*
G37*
G36*
X45034Y45954D02*
X43943D01*
X42889Y45672D01*
X41944Y45127D01*
X41173Y44355D01*
X40627Y43410D01*
X40345Y42357D01*
Y41265D01*
X40627Y40212D01*
X41173Y39267D01*
X41944Y38496D01*
X42889Y37950D01*
X43943Y37668D01*
X45034D01*
X46087Y37950D01*
X47032Y38496D01*
X47804Y39267D01*
X48349Y40212D01*
X48632Y41265D01*
Y42357D01*
X48349Y43410D01*
X47804Y44355D01*
X47032Y45127D01*
X46087Y45672D01*
X45034Y45954D01*
D02*
G37*
G36*
X35034D02*
X33943D01*
X32889Y45672D01*
X31944Y45127D01*
X31173Y44355D01*
X30627Y43410D01*
X30345Y42357D01*
Y41265D01*
X30627Y40212D01*
X31173Y39267D01*
X31944Y38496D01*
X32889Y37950D01*
X33943Y37668D01*
X35034D01*
X36087Y37950D01*
X37032Y38496D01*
X37804Y39267D01*
X38349Y40212D01*
X38631Y41265D01*
Y42357D01*
X38349Y43410D01*
X37804Y44355D01*
X37032Y45127D01*
X36087Y45672D01*
X35034Y45954D01*
D02*
G37*
G36*
X344054Y76491D02*
X343189D01*
X342389Y76160D01*
X341778Y75548D01*
X341446Y74749D01*
Y73884D01*
X341778Y73085D01*
X342389Y72473D01*
X343189Y72142D01*
X344054D01*
X344164Y72187D01*
X348877Y67475D01*
X349241Y67232D01*
X349670Y67146D01*
X349670Y67146D01*
X352198D01*
X356359Y62986D01*
Y39488D01*
X356359Y39488D01*
X356444Y39059D01*
X356687Y38695D01*
X361544Y33839D01*
X361297Y33410D01*
X361014Y32357D01*
Y31266D01*
X361297Y30212D01*
X361842Y29267D01*
X362613Y28496D01*
X363558Y27950D01*
X364612Y27668D01*
X365703D01*
X366757Y27950D01*
X367702Y28496D01*
X368473Y29267D01*
X369018Y30212D01*
X369301Y31266D01*
Y32357D01*
X369018Y33410D01*
X368473Y34355D01*
X367702Y35127D01*
X366757Y35672D01*
X365703Y35954D01*
X364612D01*
X363558Y35672D01*
X363130Y35425D01*
X358602Y39953D01*
Y63450D01*
X358517Y63880D01*
X358273Y64243D01*
X358273Y64244D01*
X353456Y69061D01*
X353092Y69304D01*
X352663Y69389D01*
X352663Y69389D01*
X350135D01*
X345750Y73774D01*
X345796Y73884D01*
Y74749D01*
X345465Y75548D01*
X344853Y76160D01*
X344054Y76491D01*
D02*
G37*
%LPD*%
D13*
X188779Y83071D02*
X252362D01*
X179331Y73622D02*
X188779Y83071D01*
X219340Y71961D02*
X224126Y76746D01*
X296825D01*
X295458Y78347D02*
X329035Y111924D01*
X220726Y78347D02*
X295458D01*
X296825Y76746D02*
X337795Y117717D01*
X214340Y71961D02*
X220726Y78347D01*
X293636Y85827D02*
X295900Y83563D01*
X186614Y85827D02*
X293636D01*
X174409Y73622D02*
X186614Y85827D01*
X337795Y117717D02*
X340453D01*
X329035Y111924D02*
Y115945D01*
X141339Y78740D02*
X147244Y72835D01*
X96457Y78740D02*
X141339D01*
X111024Y126280D02*
X139640Y97663D01*
X76476Y167618D02*
X111024Y133071D01*
Y126280D02*
Y133071D01*
X112697Y126973D02*
X140407Y99263D01*
X77169Y169291D02*
X112697Y133764D01*
Y126973D02*
Y133764D01*
X45158Y167618D02*
X76476D01*
X41732Y169291D02*
X77169D01*
X357480Y39488D02*
X365158Y31811D01*
X357480Y39488D02*
Y63450D01*
X352663Y68268D02*
X357480Y63450D01*
X349670Y68268D02*
X352663D01*
X343621Y74317D02*
X349670Y68268D01*
X288189Y31811D02*
X294921D01*
X285433Y34567D02*
X288189Y31811D01*
X285433Y34567D02*
Y67097D01*
X283429Y69102D02*
Y69441D01*
Y69102D02*
X285433Y67097D01*
X164881Y80340D02*
X167514Y82974D01*
X95695Y80340D02*
X164881D01*
X84671Y66954D02*
X96457Y78740D01*
X83071Y67716D02*
X95695Y80340D01*
X84671Y40132D02*
Y66954D01*
X83071Y40079D02*
Y67716D01*
X84671Y40132D02*
X92992Y31811D01*
X122874D01*
X140407Y99263D02*
X207117D01*
X172609Y94865D02*
X173071D01*
X138583Y96063D02*
X171410D01*
X172609Y94865D01*
X209134Y101279D02*
X209449D01*
X210852Y97663D02*
X214469Y101279D01*
X119088Y115558D02*
X138583Y96063D01*
X139640Y97663D02*
X210852D01*
X207117Y99263D02*
X209134Y101279D01*
X167514Y82974D02*
Y82974D01*
X74803Y31811D02*
X83071Y40079D01*
X59488Y31811D02*
X74724D01*
X150049Y48614D02*
X150461Y49025D01*
X150049Y46493D02*
Y48614D01*
X162992Y67323D02*
Y73956D01*
X169596Y80560D01*
X148819Y45262D02*
X150049Y46493D01*
X148819Y33268D02*
Y45262D01*
X40276Y158150D02*
Y162736D01*
X45158Y167618D01*
X35276Y158150D02*
Y162835D01*
X41732Y169291D01*
X117316Y115558D02*
X119088D01*
X117028Y115847D02*
X117316Y115558D01*
X223299Y32945D02*
Y43389D01*
X236012Y56102D01*
X237784Y57874D01*
X236012Y56102D02*
X236012Y56102D01*
X212620Y56102D02*
X236012D01*
X204350Y64372D02*
X212620Y56102D01*
X237202Y57874D02*
X237784D01*
X169596Y80560D02*
X177281D01*
X174409Y73622D02*
Y73622D01*
X223031Y33212D02*
X223299Y32945D01*
D37*
X77165Y38976D02*
Y71811D01*
D38*
X321796Y50222D02*
X331746D01*
X340158Y41811D01*
X250000Y49606D02*
X262126D01*
X269921Y41811D01*
X97874Y48939D02*
X102085Y53150D01*
X97874Y41811D02*
Y48939D01*
X129331Y63189D02*
X133858Y58661D01*
X127165Y56693D02*
X127372Y56487D01*
X162682D01*
X178325Y40843D01*
X161732Y54312D02*
X177461Y38583D01*
X163779Y58661D02*
X179272Y43169D01*
X133858Y58661D02*
X163779D01*
X125616Y44317D02*
X135611Y54312D01*
X161732D01*
X179272Y43169D02*
X188919D01*
X177461Y38583D02*
X195223D01*
X178325Y40843D02*
X191573D01*
X97896Y61833D02*
Y66794D01*
X100394Y69291D02*
X114567D01*
X97896Y66794D02*
X100394Y69291D01*
X97874Y61811D02*
X97896Y61833D01*
X114567Y69291D02*
X127165Y56693D01*
X117494Y44317D02*
X125616D01*
X107874Y53937D02*
Y61811D01*
Y53937D02*
X117494Y44317D01*
X142377Y49006D02*
X145669Y45715D01*
X142377Y49006D02*
Y49025D01*
X146653Y13484D02*
Y13910D01*
X145669Y14895D02*
X146653Y13910D01*
X188919Y43169D02*
X189993Y44243D01*
X190419D01*
X195223Y38583D02*
X196457Y39817D01*
X191973Y41244D02*
X192982D01*
X196457Y39817D02*
Y44015D01*
X191573Y40843D02*
X191973Y41244D01*
X192982D02*
X193283Y41545D01*
X145669Y25689D02*
Y45715D01*
X203113Y5217D02*
X203277D01*
X201637Y3740D02*
X203113Y5217D01*
X145669Y14895D02*
Y25689D01*
X171592Y3740D02*
X201637D01*
X170669Y4663D02*
X171592Y3740D01*
X170669Y4663D02*
Y8661D01*
D42*
X199167Y6791D02*
X199803D01*
X182087Y6004D02*
X198380D01*
X179232Y8858D02*
X182087Y6004D01*
X198380D02*
X199167Y6791D01*
X175295Y28150D02*
X179232Y24213D01*
Y8858D02*
Y24213D01*
X148130Y28150D02*
X175295D01*
X145669Y25689D02*
X148130Y28150D01*
D43*
X44488Y41811D02*
D03*
X34488D02*
D03*
Y61811D02*
D03*
X44488D02*
D03*
X59488Y51811D02*
D03*
Y31811D02*
D03*
Y71811D02*
D03*
X107874Y41811D02*
D03*
X97874D02*
D03*
Y61811D02*
D03*
X107874D02*
D03*
X122874Y51811D02*
D03*
Y31811D02*
D03*
Y71811D02*
D03*
X279921Y41811D02*
D03*
X269921D02*
D03*
Y61811D02*
D03*
X279921D02*
D03*
X294921Y51811D02*
D03*
Y31811D02*
D03*
Y71811D02*
D03*
X350157Y41811D02*
D03*
X340158D02*
D03*
Y61811D02*
D03*
X350157D02*
D03*
X365158Y51811D02*
D03*
Y31811D02*
D03*
Y71811D02*
D03*
D44*
X214094Y163937D02*
D03*
D45*
Y153937D02*
D03*
X204095Y163937D02*
D03*
Y153937D02*
D03*
X194095Y163937D02*
D03*
Y153937D02*
D03*
X184095Y163937D02*
D03*
Y153937D02*
D03*
X174094Y163937D02*
D03*
Y153937D02*
D03*
D46*
X35276Y153150D02*
D03*
D47*
Y158150D02*
D03*
X40276Y153150D02*
D03*
Y158150D02*
D03*
X45276Y153150D02*
D03*
Y158150D02*
D03*
X50276Y153150D02*
D03*
Y158150D02*
D03*
X55276Y153150D02*
D03*
Y158150D02*
D03*
D48*
X155118Y146063D02*
D03*
X283858Y183858D02*
D03*
X189676Y77495D02*
D03*
X193071Y75492D02*
D03*
X283429Y74072D02*
D03*
X233465Y73327D02*
D03*
X252362Y83071D02*
D03*
X284252D02*
D03*
X278740D02*
D03*
X343621Y74317D02*
D03*
X321796Y50222D02*
D03*
X283429Y69441D02*
D03*
X250000Y49606D02*
D03*
X77165Y71811D02*
D03*
Y38976D02*
D03*
X147244Y72835D02*
D03*
X102085Y53150D02*
D03*
X129331Y63189D02*
D03*
X150461Y67323D02*
D03*
X159055Y68110D02*
D03*
X150461Y49025D02*
D03*
X142377D02*
D03*
X162992Y67323D02*
D03*
X201199Y143472D02*
D03*
X203248Y124138D02*
D03*
X211139Y93933D02*
D03*
X185387Y93958D02*
D03*
X173071Y94865D02*
D03*
X252737Y126010D02*
D03*
X295900Y83563D02*
D03*
X201299Y54092D02*
D03*
X183445Y52618D02*
D03*
X278898Y100853D02*
D03*
X215347Y78129D02*
D03*
X174595Y83363D02*
D03*
X166535Y103150D02*
D03*
X125591Y118504D02*
D03*
X293504Y156299D02*
D03*
X197989Y28342D02*
D03*
X199063Y18893D02*
D03*
X169142Y32835D02*
D03*
X150638Y22345D02*
D03*
X164813Y9453D02*
D03*
X157725Y9100D02*
D03*
X187252Y24011D02*
D03*
X194339Y26767D02*
D03*
X184449Y19981D02*
D03*
X237784Y57874D02*
D03*
X262402Y36516D02*
D03*
X179331Y73622D02*
D03*
X177281Y80560D02*
D03*
X167514Y82974D02*
D03*
X204350Y64372D02*
D03*
X174409Y73622D02*
D03*
X142520Y152362D02*
D03*
X194437Y112167D02*
D03*
X207283Y119095D02*
D03*
X202756Y128609D02*
D03*
X207087Y113878D02*
D03*
X196063Y117028D02*
D03*
X188071Y118387D02*
D03*
X181798Y134646D02*
D03*
X146653Y13484D02*
D03*
X187303Y74606D02*
D03*
X198425Y78740D02*
D03*
X190419Y44243D02*
D03*
X170430Y106988D02*
D03*
X345036Y94488D02*
D03*
X323149Y59842D02*
D03*
X310549Y59252D02*
D03*
X302615Y99213D02*
D03*
X269685Y95669D02*
D03*
X238976Y95276D02*
D03*
X248087Y28937D02*
D03*
X284252Y24803D02*
D03*
X274374Y34021D02*
D03*
X142651Y106569D02*
D03*
X118461Y98327D02*
D03*
X90491Y102518D02*
D03*
X73481Y112697D02*
D03*
X353501Y159547D02*
D03*
X246519Y169327D02*
D03*
X276772Y157874D02*
D03*
X284252Y150000D02*
D03*
X309813Y121793D02*
D03*
X296611Y112303D02*
D03*
X277123Y120965D02*
D03*
X257665Y114569D02*
D03*
X259997Y122146D02*
D03*
X252756Y110630D02*
D03*
X247595Y115256D02*
D03*
X227812Y117421D02*
D03*
X237795Y114961D02*
D03*
X219403Y114341D02*
D03*
X215784Y122441D02*
D03*
X208028Y124213D02*
D03*
X386221Y158268D02*
D03*
X386614Y121260D02*
D03*
X386965Y87303D02*
D03*
X383465Y51968D02*
D03*
X382144Y7144D02*
D03*
X311417Y6299D02*
D03*
X237457D02*
D03*
X137064Y7283D02*
D03*
X81890Y7480D02*
D03*
X31453Y7382D02*
D03*
X9209Y13386D02*
D03*
X9013Y97146D02*
D03*
X8324Y140847D02*
D03*
X386670Y187894D02*
D03*
X341198Y189075D02*
D03*
X298383Y189370D02*
D03*
X89524Y189764D02*
D03*
X46850Y190945D02*
D03*
X7831Y189961D02*
D03*
X214340Y71961D02*
D03*
X186618Y122663D02*
D03*
X186713Y128609D02*
D03*
X170094Y134606D02*
D03*
X129921Y137402D02*
D03*
X130503Y129981D02*
D03*
X146085Y130875D02*
D03*
X139370Y130709D02*
D03*
X142520Y114567D02*
D03*
X181299Y59768D02*
D03*
X206693Y74311D02*
D03*
X203071Y75492D02*
D03*
X226969Y12622D02*
D03*
X218504Y7406D02*
D03*
X214272Y7427D02*
D03*
X215354Y11417D02*
D03*
X227658Y18528D02*
D03*
X217815Y33193D02*
D03*
X224803Y26772D02*
D03*
X219291Y29528D02*
D03*
X227461Y22760D02*
D03*
X203277Y5217D02*
D03*
X193283Y41545D02*
D03*
X196457Y44015D02*
D03*
X120141Y152788D02*
D03*
X120866Y139567D02*
D03*
X109350Y146752D02*
D03*
X98817Y153662D02*
D03*
X92816Y163508D02*
D03*
X98176Y133212D02*
D03*
X88155Y141776D02*
D03*
X90453Y130217D02*
D03*
X80814Y140786D02*
D03*
X78892Y129833D02*
D03*
X67006Y140087D02*
D03*
X59782Y133969D02*
D03*
X51509Y141718D02*
D03*
X43799Y142224D02*
D03*
X191732Y189370D02*
D03*
X144095Y159547D02*
D03*
X150379Y141732D02*
D03*
X160827Y134055D02*
D03*
X159702Y141732D02*
D03*
X189567Y19981D02*
D03*
X184449Y28346D02*
D03*
X193898Y22441D02*
D03*
X208366Y19200D02*
D03*
X202362Y20472D02*
D03*
X203150Y27559D02*
D03*
X207874Y27165D02*
D03*
X199016Y24016D02*
D03*
X189370Y28346D02*
D03*
X235914Y50394D02*
D03*
X244094Y55118D02*
D03*
X248031Y62797D02*
D03*
X244094Y70866D02*
D03*
X214340Y61789D02*
D03*
X221939D02*
D03*
X223622Y66142D02*
D03*
X199803Y6791D02*
D03*
X340453Y117717D02*
D03*
X329035Y115945D02*
D03*
X223299Y32945D02*
D03*
X219340Y71961D02*
D03*
X148819Y33268D02*
D03*
X170669Y8661D02*
D03*
X214469Y101279D02*
D03*
X209449D02*
D03*
X117028Y115847D02*
D03*
M02*
