G04*
G04 #@! TF.GenerationSoftware,Altium Limited,Altium Designer,21.9.1 (22)*
G04*
G04 Layer_Color=255*
%FSLAX25Y25*%
%MOIN*%
G70*
G04*
G04 #@! TF.SameCoordinates,0F29A8BA-E8F9-4293-BDD9-90E20D7A2386*
G04*
G04*
G04 #@! TF.FilePolarity,Positive*
G04*
G01*
G75*
%ADD43C,0.07087*%
%ADD44R,0.06496X0.06496*%
%ADD45C,0.06496*%
%ADD46R,0.04331X0.04331*%
%ADD47C,0.04331*%
D43*
X44488Y41811D02*
D03*
X34488D02*
D03*
Y61811D02*
D03*
X44488D02*
D03*
X59488Y51811D02*
D03*
Y31811D02*
D03*
Y71811D02*
D03*
X107874Y41811D02*
D03*
X97874D02*
D03*
Y61811D02*
D03*
X107874D02*
D03*
X122874Y51811D02*
D03*
Y31811D02*
D03*
Y71811D02*
D03*
X279921Y41811D02*
D03*
X269921D02*
D03*
Y61811D02*
D03*
X279921D02*
D03*
X294921Y51811D02*
D03*
Y31811D02*
D03*
Y71811D02*
D03*
X350157Y41811D02*
D03*
X340158D02*
D03*
Y61811D02*
D03*
X350157D02*
D03*
X365158Y51811D02*
D03*
Y31811D02*
D03*
Y71811D02*
D03*
D44*
X214094Y163937D02*
D03*
D45*
Y153937D02*
D03*
X204095Y163937D02*
D03*
Y153937D02*
D03*
X194095Y163937D02*
D03*
Y153937D02*
D03*
X184095Y163937D02*
D03*
Y153937D02*
D03*
X174094Y163937D02*
D03*
Y153937D02*
D03*
D46*
X35276Y153150D02*
D03*
D47*
Y158150D02*
D03*
X40276Y153150D02*
D03*
Y158150D02*
D03*
X45276Y153150D02*
D03*
Y158150D02*
D03*
X50276Y153150D02*
D03*
Y158150D02*
D03*
X55276Y153150D02*
D03*
Y158150D02*
D03*
M02*
